<?xml version="1.0" encoding="utf-8" standalone="no"?>
<!DOCTYPE svg PUBLIC "-//W3C//DTD SVG 1.1//EN"
  "http://www.w3.org/Graphics/SVG/1.1/DTD/svg11.dtd">
<svg height="342.408625pt" version="1.1" viewBox="0 0 616.740375 342.408625" width="616.740375pt" xmlns="http://www.w3.org/2000/svg" xmlns:xlink="http://www.w3.org/1999/xlink">
 <metadata>
  <rdf:RDF xmlns:cc="http://creativecommons.org/ns#" xmlns:dc="http://purl.org/dc/elements/1.1/" xmlns:rdf="http://www.w3.org/1999/02/22-rdf-syntax-ns#">
   <cc:Work>
    <dc:type rdf:resource="http://purl.org/dc/dcmitype/StillImage"/>
    <dc:date>2021-06-07T21:55:40.455539</dc:date>
    <dc:format>image/svg+xml</dc:format>
    <dc:creator>
     <cc:Agent>
      <dc:title>Matplotlib v3.4.2, https://matplotlib.org/</dc:title>
     </cc:Agent>
    </dc:creator>
   </cc:Work>
  </rdf:RDF>
 </metadata>
 <defs>
  <style type="text/css">*{stroke-linecap:butt;stroke-linejoin:round;}</style>
 </defs>
 <g id="figure_1">
  <g id="patch_1">
   <path d="M 0 342.408625 
L 616.740375 342.408625 
L 616.740375 0 
L 0 0 
z
" style="fill:none;"/>
  </g>
  <g id="axes_1">
   <g id="patch_2">
    <path d="M 50.74 297.1575 
L 497.14 297.1575 
L 497.14 25.3575 
L 50.74 25.3575 
z
" style="fill:#ffffff;"/>
   </g>
   <g id="matplotlib.axis_1">
    <g id="xtick_1">
     <g id="line2d_1">
      <defs>
       <path d="M 0 0 
L 0 6 
" id="m97819b8b8a" style="stroke:#262626;"/>
      </defs>
      <g>
       <use style="fill:#262626;stroke:#262626;" x="50.74" xlink:href="#m97819b8b8a" y="297.1575"/>
      </g>
     </g>
    </g>
    <g id="xtick_2">
     <g id="line2d_2">
      <g>
       <use style="fill:#262626;stroke:#262626;" x="107.8792" xlink:href="#m97819b8b8a" y="297.1575"/>
      </g>
     </g>
     <g id="text_1">
      <!-- Apr -->
      <g style="fill:#262626;" transform="translate(97.4992 319.275625)scale(0.12 -0.12)">
       <defs>
        <path d="M 2188 4044 
L 1331 1722 
L 3047 1722 
L 2188 4044 
z
M 1831 4666 
L 2547 4666 
L 4325 0 
L 3669 0 
L 3244 1197 
L 1141 1197 
L 716 0 
L 50 0 
L 1831 4666 
z
" id="DejaVuSans-41" transform="scale(0.015625)"/>
        <path d="M 1159 525 
L 1159 -1331 
L 581 -1331 
L 581 3500 
L 1159 3500 
L 1159 2969 
Q 1341 3281 1617 3432 
Q 1894 3584 2278 3584 
Q 2916 3584 3314 3078 
Q 3713 2572 3713 1747 
Q 3713 922 3314 415 
Q 2916 -91 2278 -91 
Q 1894 -91 1617 61 
Q 1341 213 1159 525 
z
M 3116 1747 
Q 3116 2381 2855 2742 
Q 2594 3103 2138 3103 
Q 1681 3103 1420 2742 
Q 1159 2381 1159 1747 
Q 1159 1113 1420 752 
Q 1681 391 2138 391 
Q 2594 391 2855 752 
Q 3116 1113 3116 1747 
z
" id="DejaVuSans-70" transform="scale(0.015625)"/>
        <path d="M 2631 2963 
Q 2534 3019 2420 3045 
Q 2306 3072 2169 3072 
Q 1681 3072 1420 2755 
Q 1159 2438 1159 1844 
L 1159 0 
L 581 0 
L 581 3500 
L 1159 3500 
L 1159 2956 
Q 1341 3275 1631 3429 
Q 1922 3584 2338 3584 
Q 2397 3584 2469 3576 
Q 2541 3569 2628 3553 
L 2631 2963 
z
" id="DejaVuSans-72" transform="scale(0.015625)"/>
       </defs>
       <use xlink:href="#DejaVuSans-41"/>
       <use x="68.408203" xlink:href="#DejaVuSans-70"/>
       <use x="131.884766" xlink:href="#DejaVuSans-72"/>
      </g>
     </g>
    </g>
    <g id="xtick_3">
     <g id="line2d_3">
      <g>
       <use style="fill:#262626;stroke:#262626;" x="189.124" xlink:href="#m97819b8b8a" y="297.1575"/>
      </g>
     </g>
     <g id="text_2">
      <!-- Jul -->
      <g style="fill:#262626;" transform="translate(181.884625 319.275625)scale(0.12 -0.12)">
       <defs>
        <path d="M 628 4666 
L 1259 4666 
L 1259 325 
Q 1259 -519 939 -900 
Q 619 -1281 -91 -1281 
L -331 -1281 
L -331 -750 
L -134 -750 
Q 284 -750 456 -515 
Q 628 -281 628 325 
L 628 4666 
z
" id="DejaVuSans-4a" transform="scale(0.015625)"/>
        <path d="M 544 1381 
L 544 3500 
L 1119 3500 
L 1119 1403 
Q 1119 906 1312 657 
Q 1506 409 1894 409 
Q 2359 409 2629 706 
Q 2900 1003 2900 1516 
L 2900 3500 
L 3475 3500 
L 3475 0 
L 2900 0 
L 2900 538 
Q 2691 219 2414 64 
Q 2138 -91 1772 -91 
Q 1169 -91 856 284 
Q 544 659 544 1381 
z
M 1991 3584 
L 1991 3584 
z
" id="DejaVuSans-75" transform="scale(0.015625)"/>
        <path d="M 603 4863 
L 1178 4863 
L 1178 0 
L 603 0 
L 603 4863 
z
" id="DejaVuSans-6c" transform="scale(0.015625)"/>
       </defs>
       <use xlink:href="#DejaVuSans-4a"/>
       <use x="29.492188" xlink:href="#DejaVuSans-75"/>
       <use x="92.871094" xlink:href="#DejaVuSans-6c"/>
      </g>
     </g>
    </g>
    <g id="xtick_4">
     <g id="line2d_4">
      <g>
       <use style="fill:#262626;stroke:#262626;" x="271.2616" xlink:href="#m97819b8b8a" y="297.1575"/>
      </g>
     </g>
     <g id="text_3">
      <!-- Oct -->
      <g style="fill:#262626;" transform="translate(260.887225 319.275625)scale(0.12 -0.12)">
       <defs>
        <path d="M 2522 4238 
Q 1834 4238 1429 3725 
Q 1025 3213 1025 2328 
Q 1025 1447 1429 934 
Q 1834 422 2522 422 
Q 3209 422 3611 934 
Q 4013 1447 4013 2328 
Q 4013 3213 3611 3725 
Q 3209 4238 2522 4238 
z
M 2522 4750 
Q 3503 4750 4090 4092 
Q 4678 3434 4678 2328 
Q 4678 1225 4090 567 
Q 3503 -91 2522 -91 
Q 1538 -91 948 565 
Q 359 1222 359 2328 
Q 359 3434 948 4092 
Q 1538 4750 2522 4750 
z
" id="DejaVuSans-4f" transform="scale(0.015625)"/>
        <path d="M 3122 3366 
L 3122 2828 
Q 2878 2963 2633 3030 
Q 2388 3097 2138 3097 
Q 1578 3097 1268 2742 
Q 959 2388 959 1747 
Q 959 1106 1268 751 
Q 1578 397 2138 397 
Q 2388 397 2633 464 
Q 2878 531 3122 666 
L 3122 134 
Q 2881 22 2623 -34 
Q 2366 -91 2075 -91 
Q 1284 -91 818 406 
Q 353 903 353 1747 
Q 353 2603 823 3093 
Q 1294 3584 2113 3584 
Q 2378 3584 2631 3529 
Q 2884 3475 3122 3366 
z
" id="DejaVuSans-63" transform="scale(0.015625)"/>
        <path d="M 1172 4494 
L 1172 3500 
L 2356 3500 
L 2356 3053 
L 1172 3053 
L 1172 1153 
Q 1172 725 1289 603 
Q 1406 481 1766 481 
L 2356 481 
L 2356 0 
L 1766 0 
Q 1100 0 847 248 
Q 594 497 594 1153 
L 594 3053 
L 172 3053 
L 172 3500 
L 594 3500 
L 594 4494 
L 1172 4494 
z
" id="DejaVuSans-74" transform="scale(0.015625)"/>
       </defs>
       <use xlink:href="#DejaVuSans-4f"/>
       <use x="78.710938" xlink:href="#DejaVuSans-63"/>
       <use x="133.691406" xlink:href="#DejaVuSans-74"/>
      </g>
     </g>
    </g>
    <g id="xtick_5">
     <g id="line2d_5">
      <g>
       <use style="fill:#262626;stroke:#262626;" x="353.3992" xlink:href="#m97819b8b8a" y="297.1575"/>
      </g>
     </g>
     <g id="text_4">
      <!-- Jan -->
      <g style="fill:#262626;" transform="translate(344.149825 319.275625)scale(0.12 -0.12)">
       <defs>
        <path d="M 2194 1759 
Q 1497 1759 1228 1600 
Q 959 1441 959 1056 
Q 959 750 1161 570 
Q 1363 391 1709 391 
Q 2188 391 2477 730 
Q 2766 1069 2766 1631 
L 2766 1759 
L 2194 1759 
z
M 3341 1997 
L 3341 0 
L 2766 0 
L 2766 531 
Q 2569 213 2275 61 
Q 1981 -91 1556 -91 
Q 1019 -91 701 211 
Q 384 513 384 1019 
Q 384 1609 779 1909 
Q 1175 2209 1959 2209 
L 2766 2209 
L 2766 2266 
Q 2766 2663 2505 2880 
Q 2244 3097 1772 3097 
Q 1472 3097 1187 3025 
Q 903 2953 641 2809 
L 641 3341 
Q 956 3463 1253 3523 
Q 1550 3584 1831 3584 
Q 2591 3584 2966 3190 
Q 3341 2797 3341 1997 
z
" id="DejaVuSans-61" transform="scale(0.015625)"/>
        <path d="M 3513 2113 
L 3513 0 
L 2938 0 
L 2938 2094 
Q 2938 2591 2744 2837 
Q 2550 3084 2163 3084 
Q 1697 3084 1428 2787 
Q 1159 2491 1159 1978 
L 1159 0 
L 581 0 
L 581 3500 
L 1159 3500 
L 1159 2956 
Q 1366 3272 1645 3428 
Q 1925 3584 2291 3584 
Q 2894 3584 3203 3211 
Q 3513 2838 3513 2113 
z
" id="DejaVuSans-6e" transform="scale(0.015625)"/>
       </defs>
       <use xlink:href="#DejaVuSans-4a"/>
       <use x="29.492188" xlink:href="#DejaVuSans-61"/>
       <use x="90.771484" xlink:href="#DejaVuSans-6e"/>
      </g>
      <!-- 2021 -->
      <g style="fill:#262626;" transform="translate(338.1292 332.713)scale(0.12 -0.12)">
       <defs>
        <path d="M 1228 531 
L 3431 531 
L 3431 0 
L 469 0 
L 469 531 
Q 828 903 1448 1529 
Q 2069 2156 2228 2338 
Q 2531 2678 2651 2914 
Q 2772 3150 2772 3378 
Q 2772 3750 2511 3984 
Q 2250 4219 1831 4219 
Q 1534 4219 1204 4116 
Q 875 4013 500 3803 
L 500 4441 
Q 881 4594 1212 4672 
Q 1544 4750 1819 4750 
Q 2544 4750 2975 4387 
Q 3406 4025 3406 3419 
Q 3406 3131 3298 2873 
Q 3191 2616 2906 2266 
Q 2828 2175 2409 1742 
Q 1991 1309 1228 531 
z
" id="DejaVuSans-32" transform="scale(0.015625)"/>
        <path d="M 2034 4250 
Q 1547 4250 1301 3770 
Q 1056 3291 1056 2328 
Q 1056 1369 1301 889 
Q 1547 409 2034 409 
Q 2525 409 2770 889 
Q 3016 1369 3016 2328 
Q 3016 3291 2770 3770 
Q 2525 4250 2034 4250 
z
M 2034 4750 
Q 2819 4750 3233 4129 
Q 3647 3509 3647 2328 
Q 3647 1150 3233 529 
Q 2819 -91 2034 -91 
Q 1250 -91 836 529 
Q 422 1150 422 2328 
Q 422 3509 836 4129 
Q 1250 4750 2034 4750 
z
" id="DejaVuSans-30" transform="scale(0.015625)"/>
        <path d="M 794 531 
L 1825 531 
L 1825 4091 
L 703 3866 
L 703 4441 
L 1819 4666 
L 2450 4666 
L 2450 531 
L 3481 531 
L 3481 0 
L 794 0 
L 794 531 
z
" id="DejaVuSans-31" transform="scale(0.015625)"/>
       </defs>
       <use xlink:href="#DejaVuSans-32"/>
       <use x="63.623047" xlink:href="#DejaVuSans-30"/>
       <use x="127.246094" xlink:href="#DejaVuSans-32"/>
       <use x="190.869141" xlink:href="#DejaVuSans-31"/>
      </g>
     </g>
    </g>
    <g id="xtick_6">
     <g id="line2d_6">
      <g>
       <use style="fill:#262626;stroke:#262626;" x="433.7512" xlink:href="#m97819b8b8a" y="297.1575"/>
      </g>
     </g>
     <g id="text_5">
      <!-- Apr -->
      <g style="fill:#262626;" transform="translate(423.3712 319.275625)scale(0.12 -0.12)">
       <use xlink:href="#DejaVuSans-41"/>
       <use x="68.408203" xlink:href="#DejaVuSans-70"/>
       <use x="131.884766" xlink:href="#DejaVuSans-72"/>
      </g>
     </g>
    </g>
    <g id="xtick_7">
     <g id="line2d_7">
      <g>
       <use style="fill:#262626;stroke:#262626;" x="497.14" xlink:href="#m97819b8b8a" y="297.1575"/>
      </g>
     </g>
    </g>
    <g id="xtick_8">
     <g id="line2d_8">
      <defs>
       <path d="M 0 0 
L 0 3 
" id="m2cd9f09afb" style="stroke:#262626;stroke-width:0.5;"/>
      </defs>
      <g>
       <use style="fill:#262626;stroke:#262626;stroke-width:0.5;" x="54.3112" xlink:href="#m2cd9f09afb" y="297.1575"/>
      </g>
     </g>
    </g>
    <g id="xtick_9">
     <g id="line2d_9">
      <g>
       <use style="fill:#262626;stroke:#262626;stroke-width:0.5;" x="80.2024" xlink:href="#m2cd9f09afb" y="297.1575"/>
      </g>
     </g>
    </g>
    <g id="xtick_10">
     <g id="line2d_10">
      <g>
       <use style="fill:#262626;stroke:#262626;stroke-width:0.5;" x="134.6632" xlink:href="#m2cd9f09afb" y="297.1575"/>
      </g>
     </g>
    </g>
    <g id="xtick_11">
     <g id="line2d_11">
      <g>
       <use style="fill:#262626;stroke:#262626;stroke-width:0.5;" x="162.34" xlink:href="#m2cd9f09afb" y="297.1575"/>
      </g>
     </g>
    </g>
    <g id="xtick_12">
     <g id="line2d_12">
      <g>
       <use style="fill:#262626;stroke:#262626;stroke-width:0.5;" x="216.8008" xlink:href="#m2cd9f09afb" y="297.1575"/>
      </g>
     </g>
    </g>
    <g id="xtick_13">
     <g id="line2d_13">
      <g>
       <use style="fill:#262626;stroke:#262626;stroke-width:0.5;" x="244.4776" xlink:href="#m2cd9f09afb" y="297.1575"/>
      </g>
     </g>
    </g>
    <g id="xtick_14">
     <g id="line2d_14">
      <g>
       <use style="fill:#262626;stroke:#262626;stroke-width:0.5;" x="298.9384" xlink:href="#m2cd9f09afb" y="297.1575"/>
      </g>
     </g>
    </g>
    <g id="xtick_15">
     <g id="line2d_15">
      <g>
       <use style="fill:#262626;stroke:#262626;stroke-width:0.5;" x="325.7224" xlink:href="#m2cd9f09afb" y="297.1575"/>
      </g>
     </g>
    </g>
    <g id="xtick_16">
     <g id="line2d_16">
      <g>
       <use style="fill:#262626;stroke:#262626;stroke-width:0.5;" x="381.076" xlink:href="#m2cd9f09afb" y="297.1575"/>
      </g>
     </g>
    </g>
    <g id="xtick_17">
     <g id="line2d_17">
      <g>
       <use style="fill:#262626;stroke:#262626;stroke-width:0.5;" x="406.0744" xlink:href="#m2cd9f09afb" y="297.1575"/>
      </g>
     </g>
    </g>
    <g id="xtick_18">
     <g id="line2d_18">
      <g>
       <use style="fill:#262626;stroke:#262626;stroke-width:0.5;" x="460.5352" xlink:href="#m2cd9f09afb" y="297.1575"/>
      </g>
     </g>
    </g>
    <g id="xtick_19">
     <g id="line2d_19">
      <g>
       <use style="fill:#262626;stroke:#262626;stroke-width:0.5;" x="488.212" xlink:href="#m2cd9f09afb" y="297.1575"/>
      </g>
     </g>
    </g>
   </g>
   <g id="matplotlib.axis_2">
    <g id="ytick_1">
     <g id="line2d_20">
      <path clip-path="url(#p308f50904f)" d="M 50.74 297.1575 
L 497.14 297.1575 
" style="fill:none;stroke:#b0b0b0;stroke-linecap:square;stroke-opacity:0.3;"/>
     </g>
     <g id="line2d_21">
      <defs>
       <path d="M 0 0 
L -6 0 
" id="mf43a2d8aeb" style="stroke:#262626;"/>
      </defs>
      <g>
       <use style="fill:#262626;stroke:#262626;" x="50.74" xlink:href="#mf43a2d8aeb" y="297.1575"/>
      </g>
     </g>
     <g id="text_6">
      <!-- 0 -->
      <g style="fill:#262626;" transform="translate(30.105 301.716562)scale(0.12 -0.12)">
       <use xlink:href="#DejaVuSans-30"/>
      </g>
     </g>
    </g>
    <g id="ytick_2">
     <g id="line2d_22">
      <path clip-path="url(#p308f50904f)" d="M 50.74 266.415342 
L 497.14 266.415342 
" style="fill:none;stroke:#b0b0b0;stroke-linecap:square;stroke-opacity:0.3;"/>
     </g>
     <g id="line2d_23">
      <g>
       <use style="fill:#262626;stroke:#262626;" x="50.74" xlink:href="#mf43a2d8aeb" y="266.415342"/>
      </g>
     </g>
     <g id="text_7">
      <!-- 200 -->
      <g style="fill:#262626;" transform="translate(14.835 270.974404)scale(0.12 -0.12)">
       <use xlink:href="#DejaVuSans-32"/>
       <use x="63.623047" xlink:href="#DejaVuSans-30"/>
       <use x="127.246094" xlink:href="#DejaVuSans-30"/>
      </g>
     </g>
    </g>
    <g id="ytick_3">
     <g id="line2d_24">
      <path clip-path="url(#p308f50904f)" d="M 50.74 235.673184 
L 497.14 235.673184 
" style="fill:none;stroke:#b0b0b0;stroke-linecap:square;stroke-opacity:0.3;"/>
     </g>
     <g id="line2d_25">
      <g>
       <use style="fill:#262626;stroke:#262626;" x="50.74" xlink:href="#mf43a2d8aeb" y="235.673184"/>
      </g>
     </g>
     <g id="text_8">
      <!-- 400 -->
      <g style="fill:#262626;" transform="translate(14.835 240.232246)scale(0.12 -0.12)">
       <defs>
        <path d="M 2419 4116 
L 825 1625 
L 2419 1625 
L 2419 4116 
z
M 2253 4666 
L 3047 4666 
L 3047 1625 
L 3713 1625 
L 3713 1100 
L 3047 1100 
L 3047 0 
L 2419 0 
L 2419 1100 
L 313 1100 
L 313 1709 
L 2253 4666 
z
" id="DejaVuSans-34" transform="scale(0.015625)"/>
       </defs>
       <use xlink:href="#DejaVuSans-34"/>
       <use x="63.623047" xlink:href="#DejaVuSans-30"/>
       <use x="127.246094" xlink:href="#DejaVuSans-30"/>
      </g>
     </g>
    </g>
    <g id="ytick_4">
     <g id="line2d_26">
      <path clip-path="url(#p308f50904f)" d="M 50.74 204.931025 
L 497.14 204.931025 
" style="fill:none;stroke:#b0b0b0;stroke-linecap:square;stroke-opacity:0.3;"/>
     </g>
     <g id="line2d_27">
      <g>
       <use style="fill:#262626;stroke:#262626;" x="50.74" xlink:href="#mf43a2d8aeb" y="204.931025"/>
      </g>
     </g>
     <g id="text_9">
      <!-- 600 -->
      <g style="fill:#262626;" transform="translate(14.835 209.490088)scale(0.12 -0.12)">
       <defs>
        <path d="M 2113 2584 
Q 1688 2584 1439 2293 
Q 1191 2003 1191 1497 
Q 1191 994 1439 701 
Q 1688 409 2113 409 
Q 2538 409 2786 701 
Q 3034 994 3034 1497 
Q 3034 2003 2786 2293 
Q 2538 2584 2113 2584 
z
M 3366 4563 
L 3366 3988 
Q 3128 4100 2886 4159 
Q 2644 4219 2406 4219 
Q 1781 4219 1451 3797 
Q 1122 3375 1075 2522 
Q 1259 2794 1537 2939 
Q 1816 3084 2150 3084 
Q 2853 3084 3261 2657 
Q 3669 2231 3669 1497 
Q 3669 778 3244 343 
Q 2819 -91 2113 -91 
Q 1303 -91 875 529 
Q 447 1150 447 2328 
Q 447 3434 972 4092 
Q 1497 4750 2381 4750 
Q 2619 4750 2861 4703 
Q 3103 4656 3366 4563 
z
" id="DejaVuSans-36" transform="scale(0.015625)"/>
       </defs>
       <use xlink:href="#DejaVuSans-36"/>
       <use x="63.623047" xlink:href="#DejaVuSans-30"/>
       <use x="127.246094" xlink:href="#DejaVuSans-30"/>
      </g>
     </g>
    </g>
    <g id="ytick_5">
     <g id="line2d_28">
      <path clip-path="url(#p308f50904f)" d="M 50.74 174.188867 
L 497.14 174.188867 
" style="fill:none;stroke:#b0b0b0;stroke-linecap:square;stroke-opacity:0.3;"/>
     </g>
     <g id="line2d_29">
      <g>
       <use style="fill:#262626;stroke:#262626;" x="50.74" xlink:href="#mf43a2d8aeb" y="174.188867"/>
      </g>
     </g>
     <g id="text_10">
      <!-- 800 -->
      <g style="fill:#262626;" transform="translate(14.835 178.74793)scale(0.12 -0.12)">
       <defs>
        <path d="M 2034 2216 
Q 1584 2216 1326 1975 
Q 1069 1734 1069 1313 
Q 1069 891 1326 650 
Q 1584 409 2034 409 
Q 2484 409 2743 651 
Q 3003 894 3003 1313 
Q 3003 1734 2745 1975 
Q 2488 2216 2034 2216 
z
M 1403 2484 
Q 997 2584 770 2862 
Q 544 3141 544 3541 
Q 544 4100 942 4425 
Q 1341 4750 2034 4750 
Q 2731 4750 3128 4425 
Q 3525 4100 3525 3541 
Q 3525 3141 3298 2862 
Q 3072 2584 2669 2484 
Q 3125 2378 3379 2068 
Q 3634 1759 3634 1313 
Q 3634 634 3220 271 
Q 2806 -91 2034 -91 
Q 1263 -91 848 271 
Q 434 634 434 1313 
Q 434 1759 690 2068 
Q 947 2378 1403 2484 
z
M 1172 3481 
Q 1172 3119 1398 2916 
Q 1625 2713 2034 2713 
Q 2441 2713 2670 2916 
Q 2900 3119 2900 3481 
Q 2900 3844 2670 4047 
Q 2441 4250 2034 4250 
Q 1625 4250 1398 4047 
Q 1172 3844 1172 3481 
z
" id="DejaVuSans-38" transform="scale(0.015625)"/>
       </defs>
       <use xlink:href="#DejaVuSans-38"/>
       <use x="63.623047" xlink:href="#DejaVuSans-30"/>
       <use x="127.246094" xlink:href="#DejaVuSans-30"/>
      </g>
     </g>
    </g>
    <g id="ytick_6">
     <g id="line2d_30">
      <path clip-path="url(#p308f50904f)" d="M 50.74 143.446709 
L 497.14 143.446709 
" style="fill:none;stroke:#b0b0b0;stroke-linecap:square;stroke-opacity:0.3;"/>
     </g>
     <g id="line2d_31">
      <g>
       <use style="fill:#262626;stroke:#262626;" x="50.74" xlink:href="#mf43a2d8aeb" y="143.446709"/>
      </g>
     </g>
     <g id="text_11">
      <!-- 1000 -->
      <g style="fill:#262626;" transform="translate(7.2 148.005771)scale(0.12 -0.12)">
       <use xlink:href="#DejaVuSans-31"/>
       <use x="63.623047" xlink:href="#DejaVuSans-30"/>
       <use x="127.246094" xlink:href="#DejaVuSans-30"/>
       <use x="190.869141" xlink:href="#DejaVuSans-30"/>
      </g>
     </g>
    </g>
    <g id="ytick_7">
     <g id="line2d_32">
      <path clip-path="url(#p308f50904f)" d="M 50.74 112.704551 
L 497.14 112.704551 
" style="fill:none;stroke:#b0b0b0;stroke-linecap:square;stroke-opacity:0.3;"/>
     </g>
     <g id="line2d_33">
      <g>
       <use style="fill:#262626;stroke:#262626;" x="50.74" xlink:href="#mf43a2d8aeb" y="112.704551"/>
      </g>
     </g>
     <g id="text_12">
      <!-- 1200 -->
      <g style="fill:#262626;" transform="translate(7.2 117.263613)scale(0.12 -0.12)">
       <use xlink:href="#DejaVuSans-31"/>
       <use x="63.623047" xlink:href="#DejaVuSans-32"/>
       <use x="127.246094" xlink:href="#DejaVuSans-30"/>
       <use x="190.869141" xlink:href="#DejaVuSans-30"/>
      </g>
     </g>
    </g>
    <g id="ytick_8">
     <g id="line2d_34">
      <path clip-path="url(#p308f50904f)" d="M 50.74 81.962393 
L 497.14 81.962393 
" style="fill:none;stroke:#b0b0b0;stroke-linecap:square;stroke-opacity:0.3;"/>
     </g>
     <g id="line2d_35">
      <g>
       <use style="fill:#262626;stroke:#262626;" x="50.74" xlink:href="#mf43a2d8aeb" y="81.962393"/>
      </g>
     </g>
     <g id="text_13">
      <!-- 1400 -->
      <g style="fill:#262626;" transform="translate(7.2 86.521455)scale(0.12 -0.12)">
       <use xlink:href="#DejaVuSans-31"/>
       <use x="63.623047" xlink:href="#DejaVuSans-34"/>
       <use x="127.246094" xlink:href="#DejaVuSans-30"/>
       <use x="190.869141" xlink:href="#DejaVuSans-30"/>
      </g>
     </g>
    </g>
    <g id="ytick_9">
     <g id="line2d_36">
      <path clip-path="url(#p308f50904f)" d="M 50.74 51.220234 
L 497.14 51.220234 
" style="fill:none;stroke:#b0b0b0;stroke-linecap:square;stroke-opacity:0.3;"/>
     </g>
     <g id="line2d_37">
      <g>
       <use style="fill:#262626;stroke:#262626;" x="50.74" xlink:href="#mf43a2d8aeb" y="51.220234"/>
      </g>
     </g>
     <g id="text_14">
      <!-- 1600 -->
      <g style="fill:#262626;" transform="translate(7.2 55.779297)scale(0.12 -0.12)">
       <use xlink:href="#DejaVuSans-31"/>
       <use x="63.623047" xlink:href="#DejaVuSans-36"/>
       <use x="127.246094" xlink:href="#DejaVuSans-30"/>
       <use x="190.869141" xlink:href="#DejaVuSans-30"/>
      </g>
     </g>
    </g>
   </g>
   <g id="line2d_38">
    <path clip-path="url(#p308f50904f)" d="M 49.8472 297.1575 
L 91.8088 297.072489 
L 94.4872 296.88721 
L 98.9512 296.390225 
L 101.6296 295.830027 
L 102.5224 295.010438 
L 103.4152 294.600643 
L 105.2008 293.419214 
L 106.0936 292.933128 
L 107.8792 291.230736 
L 108.772 290.990963 
L 109.6648 290.398068 
L 111.4504 288.865698 
L 112.3432 288.686958 
L 113.236 288.658621 
L 114.1288 288.412308 
L 115.0216 288.634643 
L 115.9144 288.734912 
L 116.8072 289.319088 
L 117.7 290.068925 
L 118.5928 290.487438 
L 119.4856 290.319597 
L 120.3784 290.692336 
L 121.2712 290.838379 
L 122.164 290.703234 
L 123.0568 290.29562 
L 123.9496 290.29344 
L 124.8424 287.575281 
L 125.7352 286.055989 
L 126.628 284.211913 
L 127.5208 282.653385 
L 128.4136 281.563506 
L 129.3064 281.71173 
L 130.1992 281.491574 
L 131.092 282.768913 
L 131.9848 284.436428 
L 132.8776 283.96996 
L 133.7704 284.789549 
L 134.6632 284.798268 
L 135.556 284.543236 
L 136.4488 283.78686 
L 137.3416 284.514899 
L 138.2344 282.25013 
L 139.1272 283.732366 
L 140.02 283.544907 
L 140.9128 283.902387 
L 141.8056 283.418481 
L 142.6984 284.046251 
L 143.5912 283.989578 
L 144.484 285.463094 
L 145.3768 284.549776 
L 146.2696 284.292564 
L 147.1624 284.159599 
L 148.948 283.431559 
L 149.8408 283.658254 
L 150.7336 283.222303 
L 151.6264 283.143831 
L 152.5192 282.535679 
L 153.412 282.350399 
L 154.3048 282.439769 
L 155.1976 281.868672 
L 156.0904 280.663266 
L 156.9832 279.17667 
L 157.876 280.061652 
L 158.7688 280.292707 
L 159.6616 278.607753 
L 160.5544 276.240535 
L 161.4472 275.342475 
L 162.34 275.468901 
L 163.2328 276.894463 
L 164.1256 276.37568 
L 165.0184 275.630203 
L 165.9112 276.486848 
L 166.804 278.221936 
L 167.6968 277.870995 
L 168.5896 278.245913 
L 169.4824 278.18488 
L 170.3752 277.910231 
L 171.268 277.049226 
L 173.0536 276.046537 
L 173.9464 277.160394 
L 174.8392 277.219247 
L 175.732 276.968575 
L 176.6248 275.087443 
L 177.5176 276.772396 
L 178.4104 277.249764 
L 179.3032 276.203479 
L 180.196 274.533784 
L 181.0888 270.671252 
L 181.9816 268.43264 
L 182.8744 270.344288 
L 183.7672 268.297495 
L 184.66 267.462647 
L 185.5528 267.218514 
L 186.4456 265.557538 
L 187.3384 264.831678 
L 188.2312 263.879124 
L 189.124 262.244305 
L 190.0168 261.845409 
L 190.9096 259.931581 
L 191.8024 257.647193 
L 192.6952 259.885806 
L 193.588 262.721672 
L 194.4808 260.079804 
L 195.3736 259.018262 
L 196.2664 259.946839 
L 197.1592 259.996973 
L 198.052 260.65744 
L 198.9448 256.709897 
L 199.8376 254.523599 
L 201.6232 253.551427 
L 202.516 247.611584 
L 203.4088 247.10806 
L 204.3016 247.461181 
L 205.1944 248.46605 
L 206.0872 247.206149 
L 206.98 250.584775 
L 207.8728 249.505795 
L 208.7656 254.913776 
L 209.6584 256.967109 
L 210.5512 255.123033 
L 212.3368 260.138658 
L 213.2296 260.169174 
L 214.1224 256.803627 
L 215.0152 255.68977 
L 215.908 254.163939 
L 216.8008 257.119692 
L 217.6936 257.546925 
L 218.5864 258.444985 
L 219.4792 260.162635 
L 220.372 265.487786 
L 221.2648 263.951056 
L 223.0504 262.133137 
L 224.836 260.895034 
L 225.7288 261.858487 
L 226.6216 261.660129 
L 227.5144 264.389187 
L 229.3 266.638698 
L 230.1928 267.900778 
L 231.0856 269.459306 
L 231.9784 270.514309 
L 232.8712 271.806906 
L 233.764 272.728944 
L 234.6568 274.57302 
L 235.5496 275.577889 
L 236.4424 275.915751 
L 238.228 275.913572 
L 239.1208 276.321186 
L 240.0136 276.144626 
L 240.9064 276.659049 
L 241.7992 277.334774 
L 242.692 277.421965 
L 245.3704 278.522743 
L 246.2632 279.691093 
L 247.156 279.830598 
L 248.9416 280.62403 
L 249.8344 281.783662 
L 250.7272 282.509521 
L 251.62 284.244609 
L 252.5128 284.024454 
L 253.4056 284.822245 
L 255.1912 284.839683 
L 256.084 284.438608 
L 256.9768 284.497461 
L 257.8696 283.448997 
L 258.7624 283.540547 
L 261.4408 282.308984 
L 262.3336 282.356938 
L 263.2264 281.716089 
L 264.1192 281.495934 
L 265.012 281.587483 
L 265.9048 281.334631 
L 266.7976 281.52645 
L 267.6904 281.89047 
L 268.5832 281.879571 
L 269.476 281.570045 
L 270.3688 281.973301 
L 271.2616 281.992919 
L 272.1544 282.16512 
L 273.0472 282.662105 
L 273.94 282.413612 
L 274.8328 283.017405 
L 275.7256 282.832126 
L 276.6184 281.580944 
L 277.5112 281.25834 
L 278.404 281.341171 
L 279.2968 280.750456 
L 280.1896 280.656726 
L 281.0824 279.63224 
L 281.9752 279.950485 
L 282.868 280.654547 
L 283.7608 280.770074 
L 284.6536 281.216924 
L 285.5464 281.962402 
L 286.4392 283.390144 
L 287.332 283.24192 
L 288.2248 283.51439 
L 289.1176 285.23422 
L 290.0104 279.976642 
L 290.9032 276.233996 
L 291.796 273.613926 
L 292.6888 272.506609 
L 293.5816 272.639574 
L 295.3672 269.075668 
L 296.26 273.169255 
L 297.1528 276.436714 
L 298.0456 278.235015 
L 298.9384 276.602375 
L 299.8312 275.401328 
L 300.724 276.083593 
L 301.6168 275.017691 
L 302.5096 274.130529 
L 303.4024 272.308251 
L 304.2952 270.063099 
L 305.188 268.622279 
L 306.0808 268.593942 
L 306.9736 266.191848 
L 307.8664 265.516122 
L 309.652 263.985932 
L 310.5448 261.012741 
L 311.4376 259.319068 
L 312.3304 256.339338 
L 313.2232 256.491921 
L 314.116 252.738377 
L 315.0088 247.485158 
L 315.9016 243.544155 
L 316.7944 241.939852 
L 317.6872 242.722386 
L 318.58 235.461609 
L 319.4728 232.584328 
L 320.3656 231.762559 
L 321.2584 231.640492 
L 322.1512 231.215439 
L 323.044 233.852947 
L 323.9368 228.835143 
L 324.8296 231.099912 
L 325.7224 222.426652 
L 326.6152 218.941218 
L 327.508 212.95996 
L 328.4008 203.602256 
L 330.1864 179.396035 
L 331.0792 172.961387 
L 331.972 170.853561 
L 332.8648 163.963343 
L 334.6504 142.22243 
L 336.436 132.217338 
L 337.3288 133.928448 
L 338.2216 128.247997 
L 339.1144 99.287723 
L 340.0072 95.638806 
L 341.7928 84.559093 
L 342.6856 83.05288 
L 343.5784 74.46681 
L 344.4712 70.861489 
L 345.364 83.523707 
L 346.2568 85.648972 
L 347.1496 121.407914 
L 348.0424 87.573699 
L 348.9352 87.412397 
L 349.828 82.333559 
L 350.7208 82.200594 
L 351.6136 96.142331 
L 352.5064 93.61817 
L 353.3992 50.066591 
L 354.292 79.593603 
L 355.1848 81.666553 
L 356.0776 91.756656 
L 356.9704 91.006819 
L 357.8632 87.687047 
L 358.756 77.363709 
L 359.6488 81.596801 
L 360.5416 79.114056 
L 361.4344 75.691834 
L 362.3272 67.759692 
L 363.22 70.992275 
L 364.1128 65.272588 
L 365.0056 70.58466 
L 365.8984 78.006738 
L 366.7912 84.04685 
L 369.4696 106.289108 
L 371.2552 142.980986 
L 372.148 155.717316 
L 373.0408 164.220555 
L 373.9336 169.707008 
L 374.8264 176.778145 
L 375.7192 181.218314 
L 376.612 180.237422 
L 377.5048 183.943012 
L 378.3976 188.978255 
L 379.2904 196.378535 
L 381.076 206.629941 
L 382.8616 214.712486 
L 383.7544 217.690036 
L 385.54 226.589991 
L 386.4328 232.625743 
L 387.3256 235.653428 
L 388.2184 236.765105 
L 389.1112 240.78022 
L 390.004 244.156667 
L 390.8968 246.940219 
L 391.7896 250.560798 
L 392.6824 253.294215 
L 393.5752 255.003146 
L 394.468 259.316889 
L 395.3608 261.409457 
L 397.1464 264.36085 
L 398.0392 265.90194 
L 398.932 266.671395 
L 399.8248 268.624458 
L 400.7176 266.926426 
L 401.6104 266.961302 
L 404.2888 271.244528 
L 405.1816 272.092454 
L 406.0744 272.009624 
L 406.9672 273.378512 
L 407.86 274.317988 
L 408.7528 273.973586 
L 409.6456 273.387231 
L 410.5384 273.197592 
L 411.4312 272.657012 
L 413.2168 273.079885 
L 414.1096 273.596488 
L 415.0024 275.501597 
L 415.8952 279.906889 
L 416.788 280.214235 
L 417.6808 281.635438 
L 418.5736 282.653385 
L 419.4664 284.8702 
L 420.3592 286.197673 
L 421.252 287.196003 
L 422.1448 285.700688 
L 423.0376 288.1224 
L 423.9304 288.645542 
L 424.8232 288.414488 
L 425.716 287.969817 
L 426.6088 288.445004 
L 427.5016 289.175224 
L 428.3944 288.979045 
L 430.18 288.320758 
L 431.0728 288.641183 
L 431.9656 288.795946 
L 432.8584 288.806844 
L 433.7512 288.447184 
L 434.644 288.830822 
L 435.5368 288.649902 
L 438.2152 288.824282 
L 439.108 289.277672 
L 440.0008 289.419357 
L 440.8936 289.186122 
L 442.6792 289.125089 
L 444.4648 288.828642 
L 446.2504 289.035719 
L 447.1432 289.282032 
L 448.036 289.942499 
L 449.8216 290.352293 
L 450.7144 290.515775 
L 451.6072 290.544112 
L 453.3928 291.333185 
L 456.0712 291.716822 
L 457.8568 291.978393 
L 458.7496 292.771825 
L 459.6424 292.198549 
L 460.5352 292.089561 
L 462.3208 292.407806 
L 463.2136 292.529872 
L 464.1064 292.795803 
L 464.9992 291.980573 
L 465.892 292.667197 
L 466.7848 292.937487 
L 469.4632 293.301507 
L 470.356 293.081351 
L 471.2488 293.432292 
L 472.1416 293.083531 
L 473.9272 293.323304 
L 474.82 293.312406 
L 476.6056 293.54782 
L 477.4984 293.528202 
L 478.3912 294.151613 
L 481.0696 294.195208 
L 481.9624 294.077501 
L 482.8552 294.145073 
L 483.748 285.822755 
L 486.4264 286.032011 
L 487.3192 285.9579 
L 489.1048 286.304481 
L 489.9976 294.668216 
L 490.8904 294.668216 
L 492.676 294.458959 
L 492.676 294.458959 
" style="fill:none;stroke:#4c72b0;stroke-linecap:square;stroke-width:2;"/>
   </g>
   <g id="line2d_39">
    <path clip-path="url(#p308f50904f)" d="M 49.8472 297.1575 
L 93.5944 297.085343 
L 100.7368 296.291622 
L 101.6296 295.786526 
L 102.5224 295.083001 
L 103.4152 294.812414 
L 104.308 293.766144 
L 105.2008 293.098697 
L 106.0936 292.792032 
L 106.9864 292.341054 
L 107.8792 292.323014 
L 108.772 291.99831 
L 109.6648 291.421058 
L 110.5576 291.150471 
L 112.3432 290.807728 
L 113.236 290.591258 
L 114.1288 290.591258 
L 115.9144 291.529293 
L 119.4856 293.477518 
L 121.2712 294.163005 
L 122.164 294.289279 
L 123.0568 294.036731 
L 123.9496 293.946536 
L 124.8424 294.163005 
L 125.7352 294.163005 
L 126.628 293.838301 
L 127.5208 293.116736 
L 128.4136 293.008501 
L 129.3064 293.748105 
L 130.1992 293.982614 
L 131.092 293.874379 
L 131.9848 293.982614 
L 132.8776 293.820262 
L 133.7704 294.632022 
L 134.6632 294.595944 
L 136.4488 294.740257 
L 137.3416 294.613983 
L 138.2344 294.632022 
L 139.1272 294.974766 
L 140.02 294.451631 
L 140.9128 294.704179 
L 141.8056 294.397514 
L 142.6984 294.307318 
L 143.5912 294.523788 
L 145.3768 294.433592 
L 146.2696 295.137118 
L 147.1624 294.866531 
L 148.0552 295.191235 
L 148.948 295.353587 
L 149.8408 294.812414 
L 150.7336 294.776335 
L 151.6264 294.595944 
L 152.5192 294.144966 
L 153.412 294.325357 
L 154.3048 294.307318 
L 155.1976 294.018692 
L 158.7688 294.758296 
L 159.6616 294.794375 
L 160.5544 294.559866 
L 161.4472 294.740257 
L 162.34 295.10104 
L 163.2328 295.137118 
L 164.1256 294.920648 
L 166.804 295.4979 
L 168.5896 295.552018 
L 169.4824 295.371627 
L 170.3752 295.678292 
L 172.1608 295.4979 
L 174.8392 295.750448 
L 175.732 295.606135 
L 177.5176 295.948879 
L 179.3032 295.660253 
L 180.196 295.425744 
L 181.0888 294.740257 
L 181.9816 294.88457 
L 182.8744 294.07281 
L 183.7672 293.567714 
L 184.66 292.773993 
L 186.4456 290.068124 
L 187.3384 289.382637 
L 188.2312 287.759116 
L 189.124 286.586573 
L 190.0168 283.050904 
L 190.9096 280.958366 
L 191.8024 279.876018 
L 192.6952 279.316805 
L 193.588 276.881523 
L 194.4808 275.167806 
L 195.3736 273.003111 
L 196.2664 274.356046 
L 197.1592 274.301928 
L 198.9448 271.812529 
L 199.8376 274.46428 
L 200.7304 272.173312 
L 201.6232 271.884686 
L 202.516 272.20939 
L 203.4088 271.127042 
L 204.3016 272.570172 
L 205.1944 273.688598 
L 206.0872 271.866646 
L 206.98 275.330158 
L 207.8728 278.036027 
L 208.7656 277.909753 
L 209.6584 278.667397 
L 210.5512 278.468966 
L 211.444 278.559162 
L 212.3368 278.414849 
L 213.2296 278.775631 
L 214.1224 278.252497 
L 215.0152 278.523084 
L 215.908 277.693284 
L 216.8008 279.136414 
L 217.6936 280.056409 
L 218.5864 282.076791 
L 219.4792 281.842283 
L 220.372 282.834435 
L 221.2648 283.411687 
L 222.1576 286.063438 
L 223.0504 285.684616 
L 223.9432 286.063438 
L 224.836 285.937164 
L 225.7288 286.947355 
L 226.6216 286.947355 
L 227.5144 286.694807 
L 229.3 287.001472 
L 230.1928 286.766964 
L 231.0856 286.83912 
L 231.9784 287.398333 
L 232.8712 288.174016 
L 235.5496 288.895581 
L 236.4424 288.679111 
L 237.3352 289.436754 
L 238.228 289.202246 
L 239.1208 289.436754 
L 240.0136 290.14028 
L 240.9064 290.446945 
L 241.7992 290.050085 
L 243.5848 289.671263 
L 244.4776 290.194398 
L 245.3704 289.220285 
L 246.2632 288.426563 
L 247.156 287.903429 
L 248.0488 288.174016 
L 248.9416 288.841463 
L 251.62 288.661072 
L 252.5128 289.581067 
L 253.4056 289.436754 
L 254.2984 289.635185 
L 255.1912 290.753611 
L 256.084 288.895581 
L 256.9768 287.939507 
L 257.8696 287.849311 
L 258.7624 287.398333 
L 259.6552 287.975585 
L 260.548 287.47049 
L 261.4408 286.135594 
L 262.3336 287.939507 
L 263.2264 288.805385 
L 264.1192 289.292441 
L 265.012 289.635185 
L 265.9048 289.635185 
L 266.7976 289.256363 
L 267.6904 289.490872 
L 269.476 288.426563 
L 270.3688 288.480681 
L 271.2616 287.650881 
L 272.1544 287.560685 
L 273.0472 289.472833 
L 273.94 286.893238 
L 274.8328 287.362255 
L 276.6184 287.25402 
L 277.5112 286.875199 
L 278.404 286.785003 
L 279.2968 285.323834 
L 280.1896 287.25402 
L 281.0824 286.604612 
L 281.9752 286.658729 
L 282.868 285.684616 
L 283.7608 285.468147 
L 284.6536 284.187369 
L 285.5464 283.159139 
L 287.332 282.50973 
L 289.1176 281.589735 
L 290.0104 281.69797 
L 290.9032 281.535618 
L 292.6888 281.878361 
L 293.5816 282.347378 
L 294.4744 282.293261 
L 295.3672 280.850131 
L 297.1528 280.290918 
L 300.724 277.15211 
L 301.6168 277.134071 
L 302.5096 276.412506 
L 303.4024 275.221924 
L 305.188 271.072925 
L 306.9736 265.354522 
L 307.8664 262.360027 
L 308.7592 258.337302 
L 309.652 255.829864 
L 310.5448 254.350656 
L 311.4376 249.534209 
L 312.3304 245.385211 
L 313.2232 245.908345 
L 314.116 241.326407 
L 315.0088 237.7727 
L 315.9016 235.860552 
L 316.7944 231.819788 
L 317.6872 230.935871 
L 318.58 232.992331 
L 319.4728 228.428433 
L 320.3656 229.600976 
L 321.2584 226.642559 
L 322.1512 219.697496 
L 323.044 218.452796 
L 323.9368 219.462988 
L 324.8296 219.21044 
L 325.7224 218.092014 
L 326.6152 218.939853 
L 327.508 214.339876 
L 328.4008 213.582233 
L 329.2936 203.94934 
L 330.1864 197.924272 
L 331.0792 194.027821 
L 331.972 192.4043 
L 332.8648 188.453731 
L 333.7576 185.964332 
L 334.6504 178.550251 
L 335.5432 178.532212 
L 336.436 177.75653 
L 337.3288 175.339287 
L 339.1144 162.477391 
L 340.0072 168.177754 
L 340.9 177.107121 
L 341.7928 180.408281 
L 342.6856 185.206689 
L 343.5784 184.647476 
L 345.364 193.775273 
L 346.2568 192.656847 
L 347.1496 195.723499 
L 348.0424 204.075614 
L 348.9352 208.224612 
L 349.828 218.831618 
L 350.7208 214.808893 
L 351.6136 220.310826 
L 353.3992 224.008847 
L 354.292 215.061441 
L 355.1848 215.440263 
L 356.0776 210.407347 
L 356.9704 218.615149 
L 357.8632 212.19322 
L 358.756 214.844971 
L 359.6488 207.376774 
L 360.5416 210.96656 
L 361.4344 208.459121 
L 362.3272 210.33519 
L 363.22 208.008143 
L 364.1128 211.814398 
L 365.0056 214.790854 
L 365.8984 224.658256 
L 366.7912 230.484893 
L 367.684 230.53901 
L 368.5768 232.126453 
L 369.4696 236.816626 
L 370.3624 240.550725 
L 373.0408 244.393059 
L 373.9336 248.542057 
L 374.8264 247.567945 
L 375.7192 250.309892 
L 376.612 251.879296 
L 377.5048 253.087917 
L 378.3976 252.709095 
L 379.2904 255.198495 
L 380.1832 256.154568 
L 381.076 259.131024 
L 381.9688 258.80632 
L 383.7544 260.483958 
L 384.6472 261.007093 
L 385.54 262.017284 
L 387.3256 261.151406 
L 388.2184 259.257298 
L 389.1112 260.86278 
L 390.004 261.638462 
L 390.8968 263.13571 
L 391.7896 262.486301 
L 392.6824 263.352179 
L 393.5752 263.496492 
L 394.468 267.212552 
L 396.2536 268.060391 
L 397.1464 267.970195 
L 398.0392 268.349017 
L 398.932 267.410982 
L 399.8248 268.709799 
L 400.7176 267.356865 
L 401.6104 266.725496 
L 402.5032 267.140396 
L 403.396 264.344331 
L 404.2888 263.839236 
L 405.1816 264.632957 
L 406.0744 263.298062 
L 407.86 265.787461 
L 408.7528 264.849427 
L 409.6456 267.086278 
L 410.5384 267.753726 
L 411.4312 269.178817 
L 412.324 270.026656 
L 413.2168 267.356865 
L 414.1096 266.941965 
L 415.0024 267.591374 
L 415.8952 267.447061 
L 416.788 266.490987 
L 417.6808 266.310596 
L 418.5736 266.545104 
L 419.4664 267.302748 
L 420.3592 265.931774 
L 422.1448 264.019627 
L 423.0376 263.316101 
L 423.9304 261.403954 
L 424.8232 260.610232 
L 425.716 259.563963 
L 426.6088 255.721629 
L 427.5016 255.956138 
L 428.3944 251.626748 
L 429.2872 251.067535 
L 430.18 250.075383 
L 431.0728 247.189123 
L 431.9656 246.323245 
L 432.8584 247.766375 
L 433.7512 246.972654 
L 434.644 249.588327 
L 435.5368 245.006389 
L 436.4296 245.18678 
L 437.3224 247.135006 
L 438.2152 244.970311 
L 439.108 244.970311 
L 440.0008 244.032276 
L 440.8936 241.290329 
L 441.7864 246.359323 
L 442.6792 243.346789 
L 443.572 242.841694 
L 444.4648 244.681685 
L 445.3576 228.392355 
L 446.2504 227.959416 
L 447.1432 229.799406 
L 448.036 229.204115 
L 448.9288 233.605662 
L 450.7144 235.157026 
L 451.6072 252.853408 
L 452.5 254.729477 
L 453.3928 257.272994 
L 454.2856 257.958481 
L 455.1784 258.102794 
L 456.0712 260.069058 
L 456.964 262.396106 
L 458.7496 265.697266 
L 459.6424 265.40864 
L 460.5352 267.140396 
L 461.428 266.743535 
L 462.3208 264.560801 
L 463.2136 265.246287 
L 464.1064 266.761574 
L 464.9992 267.429022 
L 465.892 270.585868 
L 466.7848 271.036847 
L 467.6776 273.183503 
L 468.5704 275.781137 
L 469.4632 275.745058 
L 470.356 275.29408 
L 471.2488 275.92545 
L 472.1416 276.773288 
L 473.0344 277.855636 
L 473.9272 278.378771 
L 474.82 278.378771 
L 475.7128 279.42504 
L 476.6056 281.048561 
L 477.4984 281.084639 
L 478.3912 281.535618 
L 479.284 284.890895 
L 480.1768 283.808547 
L 481.0696 284.151291 
L 481.9624 286.02736 
L 482.8552 286.406181 
L 483.748 288.08382 
L 484.6408 288.931659 
L 485.5336 288.065781 
L 486.4264 290.086163 
L 487.3192 290.573219 
L 488.212 290.807728 
L 489.1048 291.348902 
L 489.9976 291.601449 
L 490.8904 292.268897 
L 492.676 293.008501 
L 492.676 293.008501 
" style="fill:none;stroke:#55a868;stroke-linecap:square;stroke-width:2;"/>
   </g>
   <g id="line2d_40">
    <path clip-path="url(#p308f50904f)" d="M 49.8472 297.1575 
L 95.38 297.061998 
L 96.2728 296.560613 
L 98.0584 296.321858 
L 98.9512 295.939851 
L 99.844 295.223586 
L 101.6296 294.41182 
L 102.5224 294.626699 
L 103.4152 292.66891 
L 104.308 289.612848 
L 105.2008 289.374094 
L 106.0936 288.657829 
L 106.9864 289.254716 
L 107.8792 286.867168 
L 108.772 282.832212 
L 109.6648 283.238095 
L 110.5576 283.047092 
L 111.4504 280.946049 
L 112.3432 279.967155 
L 113.236 279.847777 
L 114.1288 281.590687 
L 115.9144 282.665084 
L 116.8072 284.575122 
L 117.7 284.933254 
L 118.5928 286.150904 
L 120.3784 284.121488 
L 121.2712 285.506266 
L 122.164 284.742251 
L 123.0568 284.622873 
L 123.9496 285.243636 
L 124.8424 285.577892 
L 125.7352 285.721145 
L 126.628 285.649519 
L 127.5208 282.832212 
L 128.4136 281.065427 
L 130.1992 276.051576 
L 132.8776 274.165413 
L 133.7704 276.409708 
L 134.6632 276.194829 
L 135.556 277.460229 
L 136.4488 279.107637 
L 138.2344 278.009365 
L 139.1272 277.770611 
L 140.02 277.651233 
L 140.9128 278.677879 
L 141.8056 279.513521 
L 142.6984 279.418019 
L 143.5912 280.898298 
L 145.3768 282.879963 
L 146.2696 284.384118 
L 147.1624 284.575122 
L 148.0552 284.503496 
L 148.948 285.195885 
L 149.8408 284.981005 
L 150.7336 285.052632 
L 151.6264 284.622873 
L 152.5192 282.856088 
L 153.412 282.47408 
L 154.3048 280.802797 
L 155.1976 281.113178 
L 156.0904 280.277536 
L 156.9832 280.062657 
L 157.876 280.946049 
L 158.7688 282.450205 
L 160.5544 286.127028 
L 162.34 287.058172 
L 163.2328 287.129799 
L 164.1256 287.034297 
L 167.6968 287.225301 
L 168.5896 287.416304 
L 169.4824 287.082048 
L 170.3752 288.037067 
L 171.268 288.777207 
L 172.1608 288.610078 
L 173.0536 289.421845 
L 173.9464 290.018732 
L 174.8392 290.329113 
L 175.732 291.021502 
L 176.6248 290.806622 
L 177.5176 290.926 
L 178.4104 291.475136 
L 180.196 291.92877 
L 181.9816 291.881019 
L 182.8744 291.761642 
L 183.7672 291.952645 
L 184.66 291.761642 
L 186.4456 291.809393 
L 187.3384 292.048147 
L 188.2312 291.92877 
L 189.124 291.690015 
L 190.0168 291.618389 
L 191.8024 291.045377 
L 192.6952 291.260257 
L 195.3736 290.973751 
L 196.2664 291.093128 
L 197.1592 291.594513 
L 198.9448 290.782747 
L 199.8376 290.806622 
L 200.7304 290.257486 
L 202.516 289.92323 
L 203.4088 289.469596 
L 205.1944 290.161984 
L 206.0872 290.472366 
L 206.98 290.639494 
L 207.8728 291.331883 
L 208.7656 290.949875 
L 209.6584 291.140879 
L 210.5512 290.806622 
L 211.444 290.806622 
L 212.3368 290.44849 
L 213.2296 290.997626 
L 214.1224 290.591743 
L 215.0152 291.260257 
L 216.8008 290.806622 
L 217.6936 290.687245 
L 218.5864 290.018732 
L 219.4792 289.92323 
L 220.372 290.18586 
L 221.2648 289.92323 
L 222.1576 290.018732 
L 223.0504 289.947105 
L 223.9432 289.230841 
L 224.836 290.18586 
L 225.7288 289.517347 
L 226.6216 289.732226 
L 227.5144 290.090358 
L 228.4072 290.639494 
L 229.3 290.854373 
L 230.1928 291.355758 
L 231.0856 291.45126 
L 231.9784 292.382404 
L 232.8712 291.713891 
L 233.764 291.18863 
L 234.6568 289.994856 
L 235.5496 290.018732 
L 238.228 288.586203 
L 239.1208 288.848833 
L 240.0136 287.96544 
L 240.9064 288.824958 
L 241.7992 289.326343 
L 242.692 288.992086 
L 243.5848 288.060942 
L 244.4776 287.583433 
L 245.3704 286.938795 
L 246.2632 287.17755 
L 248.0488 285.912149 
L 249.8344 286.461285 
L 250.7272 287.631184 
L 252.5128 288.610078 
L 253.4056 288.872709 
L 254.2984 288.681705 
L 255.1912 288.299697 
L 256.084 288.848833 
L 256.9768 288.323573 
L 257.8696 288.610078 
L 258.7624 287.869938 
L 260.548 288.801082 
L 262.3336 288.228071 
L 264.1192 288.562327 
L 265.9048 288.132569 
L 266.7976 287.822187 
L 267.6904 288.968211 
L 268.5832 289.588973 
L 269.476 288.490701 
L 270.3688 287.893814 
L 271.2616 288.251946 
L 272.1544 287.941565 
L 273.0472 287.869938 
L 273.94 287.010421 
L 274.8328 286.676164 
L 278.404 288.538452 
L 279.2968 288.610078 
L 280.1896 289.039837 
L 281.0824 288.657829 
L 281.9752 289.565097 
L 283.7608 289.612848 
L 286.4392 288.944335 
L 287.332 289.660599 
L 288.2248 289.254716 
L 290.0104 288.060942 
L 290.9032 288.060942 
L 291.796 287.869938 
L 292.6888 288.371324 
L 293.5816 287.917689 
L 294.4744 286.22253 
L 295.3672 286.485161 
L 296.26 284.95713 
L 297.1528 283.858858 
L 298.9384 280.158159 
L 299.8312 279.752275 
L 300.724 278.606252 
L 301.6168 275.97995 
L 302.5096 274.189289 
L 303.4024 271.467484 
L 304.2952 266.023875 
L 305.188 262.370926 
L 306.0808 258.192717 
L 306.9736 252.796859 
L 307.8664 246.541483 
L 309.652 233.099588 
L 310.5448 231.45218 
L 311.4376 231.308927 
L 312.3304 230.258406 
L 313.2232 230.210655 
L 314.116 226.605458 
L 315.0088 227.130718 
L 315.9016 223.573272 
L 316.7944 223.501646 
L 318.58 212.304046 
L 319.4728 214.476714 
L 320.3656 211.802661 
L 321.2584 211.253525 
L 322.1512 205.714413 
L 323.044 204.377386 
L 323.9368 204.831021 
L 324.8296 205.117526 
L 325.7224 197.620626 
L 326.6152 202.610601 
L 327.508 200.724438 
L 328.4008 202.371846 
L 329.2936 195.901591 
L 330.1864 192.224767 
L 331.0792 194.660066 
L 331.972 200.915442 
L 332.8648 196.85661 
L 333.7576 197.548999 
L 334.6504 198.981528 
L 335.5432 206.239674 
L 336.436 209.486739 
L 337.3288 209.367362 
L 338.2216 208.340716 
L 339.1144 214.50059 
L 340.9 213.784325 
L 341.7928 214.452839 
L 342.6856 216.195749 
L 343.5784 216.195749 
L 344.4712 215.479484 
L 345.364 211.826536 
L 346.2568 215.049726 
L 347.1496 217.294021 
L 348.0424 220.039701 
L 348.9352 223.47777 
L 349.828 223.47777 
L 350.7208 224.528291 
L 351.6136 229.589893 
L 352.5064 224.194034 
L 353.3992 222.283996 
L 354.292 218.798176 
L 355.1848 214.858722 
L 356.0776 211.969789 
L 356.9704 212.160793 
L 357.8632 200.915442 
L 358.756 205.833791 
L 360.5416 191.604005 
L 361.4344 186.948286 
L 362.3272 190.62511 
L 363.22 186.423026 
L 364.1128 192.917156 
L 365.0056 192.081514 
L 366.7912 205.714413 
L 367.684 205.595036 
L 368.5768 206.096421 
L 369.4696 207.05144 
L 370.3624 213.808201 
L 371.2552 211.54003 
L 372.148 216.50613 
L 373.0408 216.434504 
L 373.9336 222.713755 
L 374.8264 221.830362 
L 375.7192 226.581582 
L 376.612 222.666004 
L 377.5048 225.149054 
L 378.3976 226.22345 
L 379.2904 228.467745 
L 380.1832 227.823107 
L 381.076 231.046297 
L 381.9688 233.314468 
L 382.8616 237.325548 
L 383.7544 236.704786 
L 384.6472 240.405485 
L 385.54 240.691991 
L 386.4328 244.583694 
L 387.3256 244.034558 
L 388.2184 246.063974 
L 389.1112 243.461546 
L 390.004 246.445981 
L 390.8968 246.684736 
L 391.7896 248.308269 
L 392.6824 244.822449 
L 393.5752 246.254978 
L 394.468 244.39269 
L 395.3608 248.379895 
L 396.2536 249.502043 
L 397.1464 251.913466 
L 398.0392 252.677482 
L 398.932 257.3332 
L 399.8248 257.07057 
L 400.7176 257.643581 
L 401.6104 257.166072 
L 402.5032 256.998943 
L 403.396 255.924547 
L 404.2888 256.211053 
L 405.1816 255.447037 
L 406.0744 255.59029 
L 406.9672 256.378181 
L 407.86 256.020049 
L 408.7528 257.882336 
L 409.6456 257.643581 
L 410.5384 257.977838 
L 412.324 259.720748 
L 413.2168 258.885106 
L 414.1096 259.410367 
L 415.0024 260.771269 
L 415.8952 259.935627 
L 416.788 261.941168 
L 417.6808 261.177152 
L 418.5736 260.007254 
L 419.4664 259.625246 
L 420.3592 259.099986 
L 421.252 256.80794 
L 422.1448 256.784064 
L 423.0376 252.820734 
L 423.9304 249.454292 
L 424.8232 249.955677 
L 425.716 247.496503 
L 426.6088 247.35325 
L 428.3944 243.318294 
L 429.2872 239.354964 
L 430.18 239.64147 
L 431.0728 233.863604 
L 431.9656 231.858063 
L 432.8584 226.96359 
L 433.7512 224.170159 
L 434.644 223.859778 
L 435.5368 224.504416 
L 436.4296 222.092992 
L 437.3224 220.899218 
L 438.2152 223.048011 
L 439.108 223.167389 
L 440.0008 222.689879 
L 440.8936 218.98918 
L 441.7864 217.723779 
L 442.6792 217.389523 
L 443.572 220.397833 
L 444.4648 218.51167 
L 445.3576 214.381212 
L 446.2504 212.972559 
L 447.1432 217.461149 
L 448.036 215.24073 
L 448.9288 216.673258 
L 449.8216 217.867032 
L 450.7144 219.824822 
L 451.6072 226.295077 
L 452.5 230.855293 
L 453.3928 229.780897 
L 454.2856 238.256692 
L 455.1784 242.769158 
L 456.0712 245.108955 
L 456.964 246.636985 
L 457.8568 249.09616 
L 458.7496 250.337685 
L 459.6424 253.84738 
L 460.5352 253.84738 
L 463.2136 259.362616 
L 464.1064 261.82179 
L 464.9992 266.740139 
L 465.892 270.178208 
L 466.7848 270.178208 
L 467.6776 270.989974 
L 468.5704 272.135997 
L 469.4632 273.75953 
L 470.356 274.356417 
L 471.2488 274.189289 
L 472.1416 274.929429 
L 473.0344 278.51075 
L 473.9272 279.680649 
L 474.82 280.038781 
L 475.7128 280.850547 
L 476.6056 281.256431 
L 477.4984 282.569582 
L 478.3912 283.333597 
L 480.1768 285.43464 
L 481.0696 285.43464 
L 482.8552 286.43741 
L 483.748 287.225301 
L 485.5336 289.18309 
L 486.4264 288.92046 
L 487.3192 290.209735 
L 488.212 290.400739 
L 489.9976 292.119774 
L 491.7832 292.310778 
L 492.676 292.955416 
L 492.676 292.955416 
" style="fill:none;stroke:#c44e52;stroke-linecap:square;stroke-width:2;"/>
   </g>
   <g id="line2d_41">
    <path clip-path="url(#p308f50904f)" d="M 49.8472 297.1575 
L 80.2024 297.058958 
L 82.8808 296.842166 
L 83.7736 296.654937 
L 86.452 296.369166 
L 87.3448 296.152374 
L 88.2376 295.492145 
L 89.1304 295.166957 
L 90.0232 294.999436 
L 91.8088 294.033727 
L 92.7016 293.905623 
L 93.5944 293.491748 
L 94.4872 293.935185 
L 95.38 293.925331 
L 96.2728 292.999039 
L 97.1656 292.57531 
L 98.9512 291.097184 
L 99.844 290.486225 
L 100.7368 289.668328 
L 101.6296 289.303724 
L 102.5224 288.426703 
L 103.4152 286.948577 
L 104.308 285.884326 
L 105.2008 286.051847 
L 106.0936 285.667534 
L 106.9864 286.771202 
L 107.8792 285.943451 
L 108.772 286.524847 
L 110.5576 289.067224 
L 111.4504 287.244202 
L 112.3432 287.293473 
L 113.236 285.766076 
L 115.0216 285.036867 
L 115.9144 284.05145 
L 116.8072 283.716408 
L 117.7 284.751096 
L 118.5928 285.155117 
L 119.4856 285.982868 
L 120.3784 287.214639 
L 121.2712 288.062098 
L 122.164 289.421974 
L 123.0568 289.264307 
L 123.9496 289.806287 
L 124.8424 289.825995 
L 125.7352 289.678183 
L 126.628 289.747162 
L 127.5208 289.668328 
L 128.4136 289.402266 
L 129.3064 289.786579 
L 130.1992 289.865412 
L 131.092 290.289141 
L 131.9848 290.505933 
L 132.8776 289.934391 
L 133.7704 289.875266 
L 135.556 290.318704 
L 136.4488 290.200454 
L 137.3416 291.32383 
L 138.2344 291.25485 
L 139.1272 291.363246 
L 141.8056 292.279684 
L 142.6984 292.939914 
L 143.5912 291.905226 
L 144.484 291.974205 
L 145.3768 292.713268 
L 146.2696 292.782247 
L 147.1624 293.018747 
L 148.0552 292.821664 
L 148.948 292.880789 
L 150.7336 293.186268 
L 151.6264 293.255247 
L 152.5192 293.82679 
L 153.412 293.836644 
L 154.3048 293.964748 
L 156.0904 293.708539 
L 156.9832 294.06329 
L 157.876 294.06329 
L 158.7688 293.797227 
L 159.6616 294.112561 
L 160.5544 294.29979 
L 161.4472 293.807081 
L 162.34 294.073144 
L 163.2328 293.816935 
L 165.0184 293.738102 
L 165.9112 293.314373 
L 166.804 293.580435 
L 167.6968 294.142123 
L 168.5896 294.053435 
L 170.3752 294.378623 
L 171.268 294.684103 
L 172.1608 294.713665 
L 173.0536 294.368769 
L 174.8392 294.29979 
L 175.732 294.014019 
L 176.6248 293.866206 
L 177.5176 293.186268 
L 178.4104 292.703414 
L 180.196 292.397934 
L 181.0888 292.466914 
L 181.9816 292.092455 
L 182.8744 291.156309 
L 183.7672 290.998642 
L 184.66 291.25485 
L 185.5528 290.712871 
L 186.4456 290.584767 
L 187.3384 289.313578 
L 189.124 288.742036 
L 190.0168 287.460994 
L 190.9096 287.066827 
L 191.8024 287.648223 
L 192.6952 286.189805 
L 193.588 286.603681 
L 194.4808 287.204785 
L 195.3736 287.667931 
L 196.2664 288.387286 
L 197.1592 288.16064 
L 198.052 287.431431 
L 198.9448 287.983265 
L 199.8376 287.707348 
L 200.7304 286.928868 
L 201.6232 286.968285 
L 203.4088 285.578847 
L 204.3016 285.135409 
L 205.1944 285.194534 
L 206.0872 284.938325 
L 206.98 284.918617 
L 207.8728 284.28795 
L 208.7656 284.908763 
L 212.3368 284.376638 
L 213.2296 284.741242 
L 215.0152 285.125555 
L 215.908 285.825201 
L 216.8008 285.884326 
L 218.5864 287.155514 
L 219.4792 286.810618 
L 220.372 286.643097 
L 221.2648 286.327764 
L 222.1576 286.564264 
L 223.0504 286.583972 
L 224.836 286.170097 
L 225.7288 286.800764 
L 226.6216 286.978139 
L 227.5144 286.652952 
L 228.4072 286.633243 
L 229.3 286.889452 
L 230.1928 286.889452 
L 231.0856 286.564264 
L 231.9784 285.736513 
L 232.8712 285.815347 
L 234.6568 286.534701 
L 236.4424 286.958431 
L 237.3352 287.303327 
L 238.228 288.406994 
L 239.1208 288.101515 
L 240.0136 288.643494 
L 240.9064 287.865015 
L 243.5848 288.87014 
L 244.4776 288.93912 
L 245.3704 289.569787 
L 248.0488 290.407391 
L 248.9416 290.161037 
L 249.8344 290.703017 
L 250.7272 291.097184 
L 251.62 291.038059 
L 252.5128 290.742433 
L 253.4056 290.988788 
L 254.2984 290.9001 
L 255.1912 291.205579 
L 256.084 291.1366 
L 256.9768 290.387683 
L 257.8696 290.082204 
L 258.7624 290.949371 
L 259.6552 291.195725 
L 261.4408 291.333684 
L 262.3336 291.225288 
L 263.2264 291.471642 
L 264.1192 292.043184 
L 265.012 291.176017 
L 265.9048 291.32383 
L 266.7976 291.235142 
L 267.6904 290.6636 
L 268.5832 290.466517 
L 269.476 290.525642 
L 270.3688 290.032933 
L 271.2616 289.697891 
L 272.1544 288.367578 
L 273.0472 287.884723 
L 273.94 288.239473 
L 274.8328 287.92414 
L 275.7256 287.254056 
L 277.5112 287.047118 
L 278.404 287.815744 
L 279.2968 287.914286 
L 280.1896 287.007702 
L 281.0824 286.751493 
L 281.9752 286.692368 
L 282.868 286.505139 
L 284.6536 286.938723 
L 285.5464 286.189805 
L 286.4392 286.869743 
L 287.332 286.67266 
L 288.2248 286.938723 
L 289.1176 286.90916 
L 290.0104 286.406597 
L 290.9032 285.371909 
L 291.796 285.440888 
L 292.6888 284.898909 
L 295.3672 284.573721 
L 296.26 284.366783 
L 297.1528 282.829532 
L 298.0456 281.627323 
L 298.9384 281.134615 
L 299.8312 280.001385 
L 300.724 279.735322 
L 301.6168 276.158257 
L 302.5096 273.241422 
L 303.4024 271.792859 
L 304.2952 270.965108 
L 305.188 268.590252 
L 306.0808 267.772356 
L 306.9736 265.752251 
L 307.8664 267.594981 
L 308.7592 266.560293 
L 309.652 263.939083 
L 310.5448 261.879561 
L 311.4376 260.982831 
L 312.3304 258.085704 
L 313.2232 256.420349 
L 314.116 257.29737 
L 315.0088 255.503911 
L 315.9016 257.080578 
L 316.7944 257.573287 
L 317.6872 256.410495 
L 318.58 249.305636 
L 319.4728 247.630426 
L 320.3656 242.890569 
L 321.2584 244.871258 
L 322.1512 243.274882 
L 323.044 244.220882 
L 323.9368 246.260696 
L 324.8296 254.380535 
L 325.7224 253.77943 
L 326.6152 254.67616 
L 327.508 257.051016 
L 328.4008 257.464891 
L 329.2936 259.011996 
L 330.1864 259.898872 
L 331.0792 244.605195 
L 331.972 246.03405 
L 332.8648 246.319821 
L 333.7576 242.979257 
L 334.6504 241.540547 
L 335.5432 237.135732 
L 336.436 234.100647 
L 337.3288 248.77351 
L 338.2216 252.587075 
L 339.1144 255.356098 
L 340.0072 252.025388 
L 340.9 252.399846 
L 341.7928 253.602055 
L 342.6856 260.214205 
L 343.5784 256.94262 
L 344.4712 256.735682 
L 345.364 256.223265 
L 346.2568 261.426269 
L 347.1496 269.959982 
L 348.0424 268.481856 
L 348.9352 268.481856 
L 349.828 273.497631 
L 350.7208 272.650172 
L 351.6136 274.226839 
L 352.5064 270.689191 
L 353.3992 270.689191 
L 354.292 278.562675 
L 355.1848 252.104221 
L 356.0776 253.582347 
L 356.9704 254.006076 
L 357.8632 252.064804 
L 358.756 253.621764 
L 360.5416 235.874398 
L 361.4344 262.332853 
L 362.3272 252.922117 
L 363.22 250.734491 
L 364.1128 249.660386 
L 365.0056 251.355304 
L 365.8984 254.577618 
L 366.7912 263.121186 
L 367.684 255.612306 
L 368.5768 268.028565 
L 369.4696 266.392772 
L 370.3624 267.880752 
L 371.2552 269.03369 
L 372.148 270.570941 
L 373.0408 265.82123 
L 373.9336 273.33011 
L 374.8264 268.698648 
L 375.7192 272.729005 
L 376.612 272.699443 
L 377.5048 271.861838 
L 378.3976 270.157066 
L 379.2904 271.763296 
L 380.1832 271.763296 
L 381.076 272.660026 
L 381.9688 272.206734 
L 382.8616 272.502359 
L 383.7544 274.758965 
L 384.6472 278.040404 
L 385.54 280.513802 
L 386.4328 280.513802 
L 387.3256 277.192945 
L 388.2184 278.276904 
L 389.1112 280.06051 
L 390.004 279.991531 
L 390.8968 280.41526 
L 391.7896 279.006113 
L 392.6824 279.006113 
L 393.5752 286.061701 
L 394.468 283.085741 
L 395.3608 283.312387 
L 396.2536 284.149992 
L 397.1464 284.494888 
L 398.932 284.4062 
L 399.8248 282.080615 
L 400.7176 285.598555 
L 401.6104 285.766076 
L 402.5032 285.243805 
L 403.396 285.470451 
L 406.0744 285.598555 
L 406.9672 286.01243 
L 407.86 286.01243 
L 408.7528 286.288347 
L 410.5384 287.293473 
L 411.4312 287.293473 
L 412.324 286.928868 
L 413.2168 286.406597 
L 414.1096 286.239076 
L 415.0024 286.219368 
L 415.8952 285.854764 
L 416.788 285.145263 
L 417.6808 285.145263 
L 418.5736 284.76095 
L 419.4664 284.958034 
L 420.3592 284.800367 
L 421.252 284.209117 
L 422.1448 283.450345 
L 423.9304 283.440491 
L 424.8232 282.56347 
L 425.716 282.79997 
L 426.6088 281.243011 
L 427.5016 280.454677 
L 428.3944 279.321447 
L 429.2872 277.350612 
L 430.18 277.350612 
L 431.0728 276.42432 
L 431.9656 275.271382 
L 432.8584 275.212257 
L 434.644 274.443631 
L 435.5368 275.29109 
L 436.4296 275.29109 
L 437.3224 273.990339 
L 438.2152 275.113715 
L 439.108 274.39436 
L 440.0008 275.281236 
L 441.7864 274.719548 
L 442.6792 274.719548 
L 443.572 274.502756 
L 444.4648 273.202005 
L 445.3576 274.049464 
L 448.036 270.787733 
L 448.9288 270.787733 
L 449.8216 272.965505 
L 450.7144 270.442837 
L 451.6072 269.447565 
L 452.5 269.122378 
L 453.3928 270.058524 
L 455.1784 270.127503 
L 456.0712 267.141689 
L 456.964 269.910712 
L 457.8568 269.624941 
L 458.7496 269.03369 
L 459.6424 269.585524 
L 461.428 269.585524 
L 463.2136 268.836607 
L 464.1064 268.481856 
L 464.9992 270.275316 
L 465.892 270.649775 
L 466.7848 271.398692 
L 467.6776 271.398692 
L 468.5704 274.433777 
L 469.4632 274.108589 
L 470.356 276.42432 
L 471.2488 276.798779 
L 472.1416 273.832672 
L 473.0344 275.635986 
L 473.9272 275.635986 
L 474.82 278.010842 
L 475.7128 279.695905 
L 477.4984 281.686448 
L 478.3912 285.529576 
L 479.284 287.56939 
L 480.1768 287.56939 
L 481.0696 285.904034 
L 481.9624 285.805493 
L 482.8552 284.52445 
L 483.748 284.228825 
L 484.6408 284.958034 
L 485.5336 283.27297 
L 486.4264 283.27297 
L 487.3192 287.096389 
L 488.212 285.89418 
L 489.1048 288.239473 
L 489.9976 289.185474 
L 490.8904 289.9541 
L 491.7832 290.348266 
L 492.676 290.348266 
L 492.676 290.348266 
" style="fill:none;stroke:#8172b2;stroke-linecap:square;stroke-width:2;"/>
   </g>
   <g id="line2d_42">
    <path clip-path="url(#p308f50904f)" d="M 49.8472 297.1575 
L 93.5944 297.060435 
L 95.38 296.935638 
L 96.2728 296.713776 
L 97.1656 296.616711 
L 99.844 295.493535 
L 100.7368 294.841815 
L 101.6296 293.829569 
L 104.308 288.283018 
L 105.2008 286.424924 
L 106.0936 284.06764 
L 106.9864 281.377562 
L 107.8792 280.226653 
L 108.772 277.051253 
L 109.6648 272.835874 
L 110.5576 270.797516 
L 111.4504 265.680823 
L 112.3432 261.950768 
L 113.236 259.75988 
L 114.1288 255.863428 
L 115.0216 253.104019 
L 115.9144 252.272036 
L 116.8072 249.84542 
L 117.7 252.549364 
L 118.5928 252.798958 
L 119.4856 253.922135 
L 120.3784 255.766363 
L 122.164 254.97598 
L 123.0568 255.669299 
L 124.8424 259.122027 
L 125.7352 256.972738 
L 126.628 252.757359 
L 127.5208 253.048553 
L 128.4136 251.204325 
L 129.3064 251.190459 
L 130.1992 250.677403 
L 131.092 251.190459 
L 131.9848 249.776088 
L 132.8776 258.30391 
L 133.7704 252.202704 
L 134.6632 251.953109 
L 135.556 252.812825 
L 136.4488 251.564851 
L 137.3416 253.173351 
L 138.2344 256.043691 
L 139.1272 252.06404 
L 140.02 261.396112 
L 140.9128 264.155522 
L 141.8056 264.516047 
L 142.6984 264.474448 
L 143.5912 265.639224 
L 144.484 267.663715 
L 146.2696 268.786892 
L 147.1624 271.754296 
L 148.0552 273.237999 
L 148.948 277.813903 
L 149.8408 274.45824 
L 150.7336 275.082227 
L 151.6264 275.248624 
L 152.5192 274.874231 
L 153.412 274.139313 
L 154.3048 274.583037 
L 155.1976 274.583037 
L 156.0904 273.709456 
L 156.9832 274.846499 
L 157.876 274.749434 
L 158.7688 277.051253 
L 159.6616 277.800037 
L 161.4472 277.813903 
L 162.34 279.963192 
L 163.2328 279.186675 
L 164.1256 280.725843 
L 165.0184 281.474627 
L 165.9112 283.26339 
L 166.804 284.67776 
L 167.6968 284.67776 
L 168.5896 285.925734 
L 169.4824 286.230795 
L 170.3752 286.189195 
L 171.268 285.703872 
L 173.9464 285.939601 
L 174.8392 286.28626 
L 175.732 286.494256 
L 176.6248 287.39557 
L 177.5176 288.615811 
L 178.4104 288.657411 
L 179.3032 290.182712 
L 180.196 290.182712 
L 181.0888 288.269152 
L 181.9816 286.840915 
L 182.8744 286.230795 
L 183.7672 287.173708 
L 184.66 285.343346 
L 186.4456 285.343346 
L 187.3384 285.02442 
L 188.2312 286.092131 
L 189.124 285.870269 
L 190.0168 283.887377 
L 190.9096 285.468144 
L 191.8024 285.066019 
L 192.6952 285.066019 
L 195.3736 287.284639 
L 196.2664 285.676139 
L 197.1592 285.995066 
L 198.9448 286.036665 
L 199.8376 286.549721 
L 200.7304 285.759338 
L 201.6232 284.705493 
L 202.516 286.119864 
L 203.4088 285.814803 
L 204.3016 285.662273 
L 205.1944 285.662273 
L 206.0872 283.055394 
L 206.98 283.027661 
L 207.8728 283.194058 
L 209.6584 281.294364 
L 210.5512 281.80742 
L 211.444 281.80742 
L 212.3368 280.365317 
L 214.1224 280.476248 
L 215.0152 281.751955 
L 215.908 282.583937 
L 217.6936 282.583937 
L 218.5864 285.204683 
L 219.4792 285.703872 
L 221.2648 286.43879 
L 223.0504 286.535855 
L 223.9432 286.535855 
L 224.836 286.300126 
L 226.6216 285.398812 
L 227.5144 284.344967 
L 228.4072 284.164704 
L 229.3 282.375942 
L 230.1928 282.375942 
L 231.0856 284.67776 
L 231.9784 285.398812 
L 232.8712 285.454277 
L 233.764 286.563588 
L 234.6568 286.979579 
L 235.5496 286.757717 
L 236.4424 286.757717 
L 237.3352 287.367838 
L 238.228 287.353971 
L 240.0136 287.880893 
L 240.9064 287.39557 
L 241.7992 287.853161 
L 242.692 287.853161 
L 244.4776 286.480389 
L 245.3704 284.83029 
L 246.2632 283.734847 
L 247.156 283.984441 
L 248.0488 285.537476 
L 248.9416 285.537476 
L 249.8344 284.386566 
L 250.7272 285.606808 
L 251.62 288.865406 
L 252.5128 289.170467 
L 253.4056 289.65579 
L 254.2984 288.158221 
L 255.1912 288.158221 
L 256.084 289.420061 
L 256.9768 288.809941 
L 257.8696 287.464902 
L 258.7624 288.255286 
L 259.6552 288.879273 
L 260.548 290.376841 
L 261.4408 290.376841 
L 262.3336 289.281398 
L 263.2264 289.433928 
L 264.1192 289.350729 
L 265.9048 288.782208 
L 267.6904 288.782208 
L 268.5832 288.463281 
L 269.476 280.989304 
L 270.3688 280.212787 
L 271.2616 279.838395 
L 272.1544 278.923214 
L 273.94 278.923214 
L 274.8328 278.368559 
L 275.7256 283.06926 
L 276.6184 282.7642 
L 278.404 279.616532 
L 280.1896 279.616532 
L 281.0824 283.845778 
L 281.9752 278.715218 
L 282.868 277.370179 
L 283.7608 278.368559 
L 284.6536 277.578175 
L 286.4392 277.578175 
L 287.332 268.925555 
L 288.2248 273.848119 
L 289.1176 274.527572 
L 290.0104 273.709456 
L 290.9032 272.295085 
L 292.6888 272.295085 
L 293.5816 266.65147 
L 294.4744 265.666957 
L 296.26 261.409979 
L 297.1528 262.033966 
L 298.9384 262.033966 
L 299.8312 263.212608 
L 300.724 259.330022 
L 302.5096 258.636703 
L 303.4024 253.201083 
L 305.188 253.201083 
L 306.0808 241.622658 
L 306.9736 238.072866 
L 307.8664 243.563951 
L 308.7592 233.427629 
L 309.652 227.160027 
L 311.4376 227.160027 
L 312.3304 216.094657 
L 313.2232 213.70964 
L 314.116 202.214413 
L 315.0088 207.039913 
L 315.9016 208.995072 
L 317.6872 208.995072 
L 318.58 211.241425 
L 319.4728 210.520374 
L 320.3656 204.79356 
L 321.2584 216.039192 
L 322.1512 208.371085 
L 323.9368 208.371085 
L 324.8296 216.940506 
L 325.7224 223.346773 
L 326.6152 217.176235 
L 327.508 205.445279 
L 328.4008 202.450142 
L 330.1864 202.450142 
L 331.972 177.2688 
L 332.8648 186.628605 
L 333.7576 184.992373 
L 334.6504 195.48922 
L 336.436 195.48922 
L 337.3288 204.169573 
L 338.2216 206.693253 
L 339.1144 207.580702 
L 340.0072 207.469771 
L 340.9 212.75286 
L 342.6856 212.75286 
L 343.5784 219.283924 
L 344.4712 223.568635 
L 345.364 226.397376 
L 346.2568 229.850104 
L 347.1496 239.556568 
L 348.9352 239.556568 
L 349.828 241.220533 
L 350.7208 242.607171 
L 351.6136 248.042791 
L 352.5064 241.719723 
L 355.1848 241.719723 
L 356.0776 240.665878 
L 356.9704 240.790676 
L 357.8632 236.242504 
L 358.756 241.608792 
L 359.6488 232.595646 
L 361.4344 232.595646 
L 362.3272 233.524694 
L 363.22 234.883599 
L 364.1128 234.99453 
L 365.0056 237.851004 
L 365.8984 237.587542 
L 367.684 237.587542 
L 368.5768 259.094294 
L 369.4696 245.324981 
L 370.3624 247.307873 
L 371.2552 248.001192 
L 372.148 251.467786 
L 373.9336 251.467786 
L 374.8264 236.977422 
L 375.7192 252.577096 
L 376.612 254.934381 
L 377.5048 254.906648 
L 378.3976 254.185596 
L 381.076 254.241062 
L 381.9688 256.529014 
L 382.8616 257.277798 
L 383.7544 260.397733 
L 384.6472 262.228095 
L 386.4328 262.228095 
L 387.3256 264.155522 
L 388.2184 263.448336 
L 389.1112 263.587 
L 390.004 262.949147 
L 390.8968 261.687306 
L 392.6824 261.687306 
L 393.5752 274.194779 
L 394.468 272.281219 
L 395.3608 268.856224 
L 396.2536 268.509564 
L 397.1464 270.339926 
L 398.932 270.339926 
L 399.8248 263.628599 
L 400.7176 269.36928 
L 401.6104 272.780408 
L 402.5032 273.612391 
L 403.396 277.744572 
L 405.1816 277.744572 
L 406.0744 271.255107 
L 406.9672 271.033245 
L 407.86 270.436991 
L 408.7528 270.534055 
L 409.6456 266.207745 
L 411.4312 266.207745 
L 412.324 270.187396 
L 413.2168 268.592762 
L 414.1096 269.466344 
L 415.0024 269.133551 
L 415.8952 269.32768 
L 417.6808 269.32768 
L 418.5736 268.606629 
L 419.4664 269.355413 
L 420.3592 265.417362 
L 421.252 264.210987 
L 422.1448 260.993988 
L 423.9304 260.993988 
L 424.8232 257.915652 
L 425.716 253.464545 
L 426.6088 254.47679 
L 428.3944 251.661916 
L 430.18 251.661916 
L 431.0728 246.559089 
L 431.9656 246.295627 
L 432.8584 244.520731 
L 433.7512 243.95221 
L 434.644 252.729627 
L 436.4296 252.729627 
L 437.3224 248.652912 
L 438.2152 245.921235 
L 439.108 242.371443 
L 440.0008 242.094115 
L 440.8936 232.567914 
L 442.6792 232.567914 
L 443.572 233.011638 
L 444.4648 243.827412 
L 445.3576 237.71234 
L 446.2504 234.19028 
L 447.1432 233.413763 
L 448.9288 233.413763 
L 449.8216 236.838758 
L 450.7144 228.297069 
L 451.6072 237.019021 
L 453.3928 244.201804 
L 455.1784 244.201804 
L 456.0712 246.82255 
L 456.964 248.73611 
L 457.8568 251.745114 
L 458.7496 252.951489 
L 459.6424 254.490657 
L 461.428 254.490657 
L 462.3208 257.638324 
L 463.2136 266.069082 
L 464.1064 272.530814 
L 464.9992 263.73953 
L 465.892 268.773025 
L 467.6776 268.773025 
L 468.5704 270.506322 
L 470.356 270.506322 
L 471.2488 274.638503 
L 473.9272 274.638503 
L 474.82 276.344067 
L 476.6056 276.344067 
L 477.4984 281.169567 
L 480.1768 281.169567 
L 481.0696 282.237278 
L 482.8552 282.237278 
L 483.748 283.194058 
L 486.4264 283.194058 
L 487.3192 291.250423 
L 488.212 286.369458 
L 489.1048 286.369458 
L 489.9976 289.322997 
L 492.676 289.322997 
L 492.676 289.322997 
" style="fill:none;stroke:#ccb974;stroke-linecap:square;stroke-width:2;"/>
   </g>
   <g id="patch_3">
    <path d="M 50.74 297.1575 
L 50.74 25.3575 
" style="fill:none;stroke:#000000;stroke-linecap:square;stroke-linejoin:miter;stroke-width:0.8;"/>
   </g>
   <g id="patch_4">
    <path d="M 50.74 297.1575 
L 497.14 297.1575 
" style="fill:none;stroke:#000000;stroke-linecap:square;stroke-linejoin:miter;stroke-width:0.8;"/>
   </g>
   <g id="text_15">
    <!-- Los Angeles, CA -->
    <g style="fill:#4c72b0;" transform="translate(497.676 298.458959)scale(0.14 -0.14)">
     <defs>
      <path d="M 628 4666 
L 1259 4666 
L 1259 531 
L 3531 531 
L 3531 0 
L 628 0 
L 628 4666 
z
" id="DejaVuSans-4c" transform="scale(0.015625)"/>
      <path d="M 1959 3097 
Q 1497 3097 1228 2736 
Q 959 2375 959 1747 
Q 959 1119 1226 758 
Q 1494 397 1959 397 
Q 2419 397 2687 759 
Q 2956 1122 2956 1747 
Q 2956 2369 2687 2733 
Q 2419 3097 1959 3097 
z
M 1959 3584 
Q 2709 3584 3137 3096 
Q 3566 2609 3566 1747 
Q 3566 888 3137 398 
Q 2709 -91 1959 -91 
Q 1206 -91 779 398 
Q 353 888 353 1747 
Q 353 2609 779 3096 
Q 1206 3584 1959 3584 
z
" id="DejaVuSans-6f" transform="scale(0.015625)"/>
      <path d="M 2834 3397 
L 2834 2853 
Q 2591 2978 2328 3040 
Q 2066 3103 1784 3103 
Q 1356 3103 1142 2972 
Q 928 2841 928 2578 
Q 928 2378 1081 2264 
Q 1234 2150 1697 2047 
L 1894 2003 
Q 2506 1872 2764 1633 
Q 3022 1394 3022 966 
Q 3022 478 2636 193 
Q 2250 -91 1575 -91 
Q 1294 -91 989 -36 
Q 684 19 347 128 
L 347 722 
Q 666 556 975 473 
Q 1284 391 1588 391 
Q 1994 391 2212 530 
Q 2431 669 2431 922 
Q 2431 1156 2273 1281 
Q 2116 1406 1581 1522 
L 1381 1569 
Q 847 1681 609 1914 
Q 372 2147 372 2553 
Q 372 3047 722 3315 
Q 1072 3584 1716 3584 
Q 2034 3584 2315 3537 
Q 2597 3491 2834 3397 
z
" id="DejaVuSans-73" transform="scale(0.015625)"/>
      <path id="DejaVuSans-20" transform="scale(0.015625)"/>
      <path d="M 2906 1791 
Q 2906 2416 2648 2759 
Q 2391 3103 1925 3103 
Q 1463 3103 1205 2759 
Q 947 2416 947 1791 
Q 947 1169 1205 825 
Q 1463 481 1925 481 
Q 2391 481 2648 825 
Q 2906 1169 2906 1791 
z
M 3481 434 
Q 3481 -459 3084 -895 
Q 2688 -1331 1869 -1331 
Q 1566 -1331 1297 -1286 
Q 1028 -1241 775 -1147 
L 775 -588 
Q 1028 -725 1275 -790 
Q 1522 -856 1778 -856 
Q 2344 -856 2625 -561 
Q 2906 -266 2906 331 
L 2906 616 
Q 2728 306 2450 153 
Q 2172 0 1784 0 
Q 1141 0 747 490 
Q 353 981 353 1791 
Q 353 2603 747 3093 
Q 1141 3584 1784 3584 
Q 2172 3584 2450 3431 
Q 2728 3278 2906 2969 
L 2906 3500 
L 3481 3500 
L 3481 434 
z
" id="DejaVuSans-67" transform="scale(0.015625)"/>
      <path d="M 3597 1894 
L 3597 1613 
L 953 1613 
Q 991 1019 1311 708 
Q 1631 397 2203 397 
Q 2534 397 2845 478 
Q 3156 559 3463 722 
L 3463 178 
Q 3153 47 2828 -22 
Q 2503 -91 2169 -91 
Q 1331 -91 842 396 
Q 353 884 353 1716 
Q 353 2575 817 3079 
Q 1281 3584 2069 3584 
Q 2775 3584 3186 3129 
Q 3597 2675 3597 1894 
z
M 3022 2063 
Q 3016 2534 2758 2815 
Q 2500 3097 2075 3097 
Q 1594 3097 1305 2825 
Q 1016 2553 972 2059 
L 3022 2063 
z
" id="DejaVuSans-65" transform="scale(0.015625)"/>
      <path d="M 750 794 
L 1409 794 
L 1409 256 
L 897 -744 
L 494 -744 
L 750 256 
L 750 794 
z
" id="DejaVuSans-2c" transform="scale(0.015625)"/>
      <path d="M 4122 4306 
L 4122 3641 
Q 3803 3938 3442 4084 
Q 3081 4231 2675 4231 
Q 1875 4231 1450 3742 
Q 1025 3253 1025 2328 
Q 1025 1406 1450 917 
Q 1875 428 2675 428 
Q 3081 428 3442 575 
Q 3803 722 4122 1019 
L 4122 359 
Q 3791 134 3420 21 
Q 3050 -91 2638 -91 
Q 1578 -91 968 557 
Q 359 1206 359 2328 
Q 359 3453 968 4101 
Q 1578 4750 2638 4750 
Q 3056 4750 3426 4639 
Q 3797 4528 4122 4306 
z
" id="DejaVuSans-43" transform="scale(0.015625)"/>
     </defs>
     <use xlink:href="#DejaVuSans-4c"/>
     <use x="53.962891" xlink:href="#DejaVuSans-6f"/>
     <use x="115.144531" xlink:href="#DejaVuSans-73"/>
     <use x="167.244141" xlink:href="#DejaVuSans-20"/>
     <use x="199.03125" xlink:href="#DejaVuSans-41"/>
     <use x="267.439453" xlink:href="#DejaVuSans-6e"/>
     <use x="330.818359" xlink:href="#DejaVuSans-67"/>
     <use x="394.294922" xlink:href="#DejaVuSans-65"/>
     <use x="455.818359" xlink:href="#DejaVuSans-6c"/>
     <use x="483.601562" xlink:href="#DejaVuSans-65"/>
     <use x="545.125" xlink:href="#DejaVuSans-73"/>
     <use x="597.224609" xlink:href="#DejaVuSans-2c"/>
     <use x="629.011719" xlink:href="#DejaVuSans-20"/>
     <use x="660.798828" xlink:href="#DejaVuSans-43"/>
     <use x="730.623047" xlink:href="#DejaVuSans-41"/>
    </g>
   </g>
   <g id="text_16">
    <!-- Allegheny, PA -->
    <g style="fill:#55a868;" transform="translate(497.676 297.008501)scale(0.14 -0.14)">
     <defs>
      <path d="M 3513 2113 
L 3513 0 
L 2938 0 
L 2938 2094 
Q 2938 2591 2744 2837 
Q 2550 3084 2163 3084 
Q 1697 3084 1428 2787 
Q 1159 2491 1159 1978 
L 1159 0 
L 581 0 
L 581 4863 
L 1159 4863 
L 1159 2956 
Q 1366 3272 1645 3428 
Q 1925 3584 2291 3584 
Q 2894 3584 3203 3211 
Q 3513 2838 3513 2113 
z
" id="DejaVuSans-68" transform="scale(0.015625)"/>
      <path d="M 2059 -325 
Q 1816 -950 1584 -1140 
Q 1353 -1331 966 -1331 
L 506 -1331 
L 506 -850 
L 844 -850 
Q 1081 -850 1212 -737 
Q 1344 -625 1503 -206 
L 1606 56 
L 191 3500 
L 800 3500 
L 1894 763 
L 2988 3500 
L 3597 3500 
L 2059 -325 
z
" id="DejaVuSans-79" transform="scale(0.015625)"/>
      <path d="M 1259 4147 
L 1259 2394 
L 2053 2394 
Q 2494 2394 2734 2622 
Q 2975 2850 2975 3272 
Q 2975 3691 2734 3919 
Q 2494 4147 2053 4147 
L 1259 4147 
z
M 628 4666 
L 2053 4666 
Q 2838 4666 3239 4311 
Q 3641 3956 3641 3272 
Q 3641 2581 3239 2228 
Q 2838 1875 2053 1875 
L 1259 1875 
L 1259 0 
L 628 0 
L 628 4666 
z
" id="DejaVuSans-50" transform="scale(0.015625)"/>
     </defs>
     <use xlink:href="#DejaVuSans-41"/>
     <use x="68.408203" xlink:href="#DejaVuSans-6c"/>
     <use x="96.191406" xlink:href="#DejaVuSans-6c"/>
     <use x="123.974609" xlink:href="#DejaVuSans-65"/>
     <use x="185.498047" xlink:href="#DejaVuSans-67"/>
     <use x="248.974609" xlink:href="#DejaVuSans-68"/>
     <use x="312.353516" xlink:href="#DejaVuSans-65"/>
     <use x="373.876953" xlink:href="#DejaVuSans-6e"/>
     <use x="437.255859" xlink:href="#DejaVuSans-79"/>
     <use x="496.435547" xlink:href="#DejaVuSans-2c"/>
     <use x="528.222656" xlink:href="#DejaVuSans-20"/>
     <use x="560.009766" xlink:href="#DejaVuSans-50"/>
     <use x="613.9375" xlink:href="#DejaVuSans-41"/>
    </g>
   </g>
   <g id="text_17">
    <!-- Erie, NY -->
    <g style="fill:#c44e52;" transform="translate(497.676 296.955416)scale(0.14 -0.14)">
     <defs>
      <path d="M 628 4666 
L 3578 4666 
L 3578 4134 
L 1259 4134 
L 1259 2753 
L 3481 2753 
L 3481 2222 
L 1259 2222 
L 1259 531 
L 3634 531 
L 3634 0 
L 628 0 
L 628 4666 
z
" id="DejaVuSans-45" transform="scale(0.015625)"/>
      <path d="M 603 3500 
L 1178 3500 
L 1178 0 
L 603 0 
L 603 3500 
z
M 603 4863 
L 1178 4863 
L 1178 4134 
L 603 4134 
L 603 4863 
z
" id="DejaVuSans-69" transform="scale(0.015625)"/>
      <path d="M 628 4666 
L 1478 4666 
L 3547 763 
L 3547 4666 
L 4159 4666 
L 4159 0 
L 3309 0 
L 1241 3903 
L 1241 0 
L 628 0 
L 628 4666 
z
" id="DejaVuSans-4e" transform="scale(0.015625)"/>
      <path d="M -13 4666 
L 666 4666 
L 1959 2747 
L 3244 4666 
L 3922 4666 
L 2272 2222 
L 2272 0 
L 1638 0 
L 1638 2222 
L -13 4666 
z
" id="DejaVuSans-59" transform="scale(0.015625)"/>
     </defs>
     <use xlink:href="#DejaVuSans-45"/>
     <use x="63.183594" xlink:href="#DejaVuSans-72"/>
     <use x="104.296875" xlink:href="#DejaVuSans-69"/>
     <use x="132.080078" xlink:href="#DejaVuSans-65"/>
     <use x="193.603516" xlink:href="#DejaVuSans-2c"/>
     <use x="225.390625" xlink:href="#DejaVuSans-20"/>
     <use x="257.177734" xlink:href="#DejaVuSans-4e"/>
     <use x="331.982422" xlink:href="#DejaVuSans-59"/>
    </g>
   </g>
   <g id="text_18">
    <!-- King, WA -->
    <g style="fill:#8172b2;" transform="translate(497.676 294.348266)scale(0.14 -0.14)">
     <defs>
      <path d="M 628 4666 
L 1259 4666 
L 1259 2694 
L 3353 4666 
L 4166 4666 
L 1850 2491 
L 4331 0 
L 3500 0 
L 1259 2247 
L 1259 0 
L 628 0 
L 628 4666 
z
" id="DejaVuSans-4b" transform="scale(0.015625)"/>
      <path d="M 213 4666 
L 850 4666 
L 1831 722 
L 2809 4666 
L 3519 4666 
L 4500 722 
L 5478 4666 
L 6119 4666 
L 4947 0 
L 4153 0 
L 3169 4050 
L 2175 0 
L 1381 0 
L 213 4666 
z
" id="DejaVuSans-57" transform="scale(0.015625)"/>
     </defs>
     <use xlink:href="#DejaVuSans-4b"/>
     <use x="65.576172" xlink:href="#DejaVuSans-69"/>
     <use x="93.359375" xlink:href="#DejaVuSans-6e"/>
     <use x="156.738281" xlink:href="#DejaVuSans-67"/>
     <use x="220.214844" xlink:href="#DejaVuSans-2c"/>
     <use x="252.001953" xlink:href="#DejaVuSans-20"/>
     <use x="283.789062" xlink:href="#DejaVuSans-57"/>
     <use x="377.166016" xlink:href="#DejaVuSans-41"/>
    </g>
   </g>
   <g id="text_19">
    <!-- Philadelphia, PA -->
    <g style="fill:#ccb974;" transform="translate(497.676 293.322997)scale(0.14 -0.14)">
     <defs>
      <path d="M 2906 2969 
L 2906 4863 
L 3481 4863 
L 3481 0 
L 2906 0 
L 2906 525 
Q 2725 213 2448 61 
Q 2172 -91 1784 -91 
Q 1150 -91 751 415 
Q 353 922 353 1747 
Q 353 2572 751 3078 
Q 1150 3584 1784 3584 
Q 2172 3584 2448 3432 
Q 2725 3281 2906 2969 
z
M 947 1747 
Q 947 1113 1208 752 
Q 1469 391 1925 391 
Q 2381 391 2643 752 
Q 2906 1113 2906 1747 
Q 2906 2381 2643 2742 
Q 2381 3103 1925 3103 
Q 1469 3103 1208 2742 
Q 947 2381 947 1747 
z
" id="DejaVuSans-64" transform="scale(0.015625)"/>
     </defs>
     <use xlink:href="#DejaVuSans-50"/>
     <use x="60.302734" xlink:href="#DejaVuSans-68"/>
     <use x="123.681641" xlink:href="#DejaVuSans-69"/>
     <use x="151.464844" xlink:href="#DejaVuSans-6c"/>
     <use x="179.248047" xlink:href="#DejaVuSans-61"/>
     <use x="240.527344" xlink:href="#DejaVuSans-64"/>
     <use x="304.003906" xlink:href="#DejaVuSans-65"/>
     <use x="365.527344" xlink:href="#DejaVuSans-6c"/>
     <use x="393.310547" xlink:href="#DejaVuSans-70"/>
     <use x="456.787109" xlink:href="#DejaVuSans-68"/>
     <use x="520.166016" xlink:href="#DejaVuSans-69"/>
     <use x="547.949219" xlink:href="#DejaVuSans-61"/>
     <use x="609.228516" xlink:href="#DejaVuSans-2c"/>
     <use x="641.015625" xlink:href="#DejaVuSans-20"/>
     <use x="672.802734" xlink:href="#DejaVuSans-50"/>
     <use x="726.730469" xlink:href="#DejaVuSans-41"/>
    </g>
   </g>
   <g id="text_20">
    <!-- Cases per million people -->
    <g style="fill:#262626;" transform="translate(175.50875 19.3575)scale(0.16 -0.16)">
     <defs>
      <path d="M 3328 2828 
Q 3544 3216 3844 3400 
Q 4144 3584 4550 3584 
Q 5097 3584 5394 3201 
Q 5691 2819 5691 2113 
L 5691 0 
L 5113 0 
L 5113 2094 
Q 5113 2597 4934 2840 
Q 4756 3084 4391 3084 
Q 3944 3084 3684 2787 
Q 3425 2491 3425 1978 
L 3425 0 
L 2847 0 
L 2847 2094 
Q 2847 2600 2669 2842 
Q 2491 3084 2119 3084 
Q 1678 3084 1418 2786 
Q 1159 2488 1159 1978 
L 1159 0 
L 581 0 
L 581 3500 
L 1159 3500 
L 1159 2956 
Q 1356 3278 1631 3431 
Q 1906 3584 2284 3584 
Q 2666 3584 2933 3390 
Q 3200 3197 3328 2828 
z
" id="DejaVuSans-6d" transform="scale(0.015625)"/>
     </defs>
     <use xlink:href="#DejaVuSans-43"/>
     <use x="69.824219" xlink:href="#DejaVuSans-61"/>
     <use x="131.103516" xlink:href="#DejaVuSans-73"/>
     <use x="183.203125" xlink:href="#DejaVuSans-65"/>
     <use x="244.726562" xlink:href="#DejaVuSans-73"/>
     <use x="296.826172" xlink:href="#DejaVuSans-20"/>
     <use x="328.613281" xlink:href="#DejaVuSans-70"/>
     <use x="392.089844" xlink:href="#DejaVuSans-65"/>
     <use x="453.613281" xlink:href="#DejaVuSans-72"/>
     <use x="494.726562" xlink:href="#DejaVuSans-20"/>
     <use x="526.513672" xlink:href="#DejaVuSans-6d"/>
     <use x="623.925781" xlink:href="#DejaVuSans-69"/>
     <use x="651.708984" xlink:href="#DejaVuSans-6c"/>
     <use x="679.492188" xlink:href="#DejaVuSans-6c"/>
     <use x="707.275391" xlink:href="#DejaVuSans-69"/>
     <use x="735.058594" xlink:href="#DejaVuSans-6f"/>
     <use x="796.240234" xlink:href="#DejaVuSans-6e"/>
     <use x="859.619141" xlink:href="#DejaVuSans-20"/>
     <use x="891.40625" xlink:href="#DejaVuSans-70"/>
     <use x="954.882812" xlink:href="#DejaVuSans-65"/>
     <use x="1016.40625" xlink:href="#DejaVuSans-6f"/>
     <use x="1077.587891" xlink:href="#DejaVuSans-70"/>
     <use x="1141.064453" xlink:href="#DejaVuSans-6c"/>
     <use x="1168.847656" xlink:href="#DejaVuSans-65"/>
    </g>
   </g>
   <g id="legend_1"/>
   <g id="PathCollection_1">
    <defs>
     <path d="M 0 2.236068 
C 0.593012 2.236068 1.161816 2.000462 1.581139 1.581139 
C 2.000462 1.161816 2.236068 0.593012 2.236068 -0 
C 2.236068 -0.593012 2.000462 -1.161816 1.581139 -1.581139 
C 1.161816 -2.000462 0.593012 -2.236068 0 -2.236068 
C -0.593012 -2.236068 -1.161816 -2.000462 -1.581139 -1.581139 
C -2.000462 -1.161816 -2.236068 -0.593012 -2.236068 0 
C -2.236068 0.593012 -2.000462 1.161816 -1.581139 1.581139 
C -1.161816 2.000462 -0.593012 2.236068 0 2.236068 
z
" id="C0_0_99a4834758"/>
    </defs>
    <g clip-path="url(#p308f50904f)">
     <use style="fill:#4c72b0;stroke:#4c72b0;" x="492.676" xlink:href="#C0_0_99a4834758" y="294.458959"/>
    </g>
    <g clip-path="url(#p308f50904f)">
     <use style="fill:#55a868;stroke:#55a868;" x="492.676" xlink:href="#C0_0_99a4834758" y="293.008501"/>
    </g>
    <g clip-path="url(#p308f50904f)">
     <use style="fill:#c44e52;stroke:#c44e52;" x="492.676" xlink:href="#C0_0_99a4834758" y="292.955416"/>
    </g>
    <g clip-path="url(#p308f50904f)">
     <use style="fill:#8172b2;stroke:#8172b2;" x="492.676" xlink:href="#C0_0_99a4834758" y="290.348266"/>
    </g>
    <g clip-path="url(#p308f50904f)">
     <use style="fill:#ccb974;stroke:#ccb974;" x="492.676" xlink:href="#C0_0_99a4834758" y="289.322997"/>
    </g>
   </g>
  </g>
 </g>
 <defs>
  <clipPath id="p308f50904f">
   <rect height="271.8" width="446.4" x="50.74" y="25.3575"/>
  </clipPath>
 </defs>
</svg>
