<?xml version="1.0" encoding="utf-8" standalone="no"?>
<!DOCTYPE svg PUBLIC "-//W3C//DTD SVG 1.1//EN"
  "http://www.w3.org/Graphics/SVG/1.1/DTD/svg11.dtd">
<!-- Created with matplotlib (https://matplotlib.org/) -->
<svg height="342.408625pt" version="1.1" viewBox="0 0 597.991315 342.408625" width="597.991315pt" xmlns="http://www.w3.org/2000/svg" xmlns:xlink="http://www.w3.org/1999/xlink">
 <defs>
  <style type="text/css">
*{stroke-linecap:butt;stroke-linejoin:round;}
  </style>
 </defs>
 <g id="figure_1">
  <g id="patch_1">
   <path d="M 0 342.408625 
L 597.991315 342.408625 
L 597.991315 0 
L 0 0 
z
" style="fill:#ffffff;"/>
  </g>
  <g id="axes_1">
   <g id="patch_2">
    <path d="M 35.47 297.1575 
L 481.87 297.1575 
L 481.87 25.3575 
L 35.47 25.3575 
z
" style="fill:#ffffff;"/>
   </g>
   <g id="matplotlib.axis_1">
    <g id="xtick_1">
     <g id="line2d_1">
      <defs>
       <path d="M 0 0 
L 0 6 
" id="m22dcb1f10c" style="stroke:#262626;"/>
      </defs>
      <g>
       <use style="fill:#262626;stroke:#262626;" x="35.47" xlink:href="#m22dcb1f10c" y="297.1575"/>
      </g>
     </g>
    </g>
    <g id="xtick_2">
     <g id="line2d_2">
      <g>
       <use style="fill:#262626;stroke:#262626;" x="59.299181" xlink:href="#m22dcb1f10c" y="297.1575"/>
      </g>
     </g>
     <g id="text_1">
      <!-- Mar -->
      <defs>
       <path d="M 9.8125 72.90625 
L 24.515625 72.90625 
L 43.109375 23.296875 
L 61.8125 72.90625 
L 76.515625 72.90625 
L 76.515625 0 
L 66.890625 0 
L 66.890625 64.015625 
L 48.09375 14.015625 
L 38.1875 14.015625 
L 19.390625 64.015625 
L 19.390625 0 
L 9.8125 0 
z
" id="DejaVuSans-77"/>
       <path d="M 34.28125 27.484375 
Q 23.390625 27.484375 19.1875 25 
Q 14.984375 22.515625 14.984375 16.5 
Q 14.984375 11.71875 18.140625 8.90625 
Q 21.296875 6.109375 26.703125 6.109375 
Q 34.1875 6.109375 38.703125 11.40625 
Q 43.21875 16.703125 43.21875 25.484375 
L 43.21875 27.484375 
z
M 52.203125 31.203125 
L 52.203125 0 
L 43.21875 0 
L 43.21875 8.296875 
Q 40.140625 3.328125 35.546875 0.953125 
Q 30.953125 -1.421875 24.3125 -1.421875 
Q 15.921875 -1.421875 10.953125 3.296875 
Q 6 8.015625 6 15.921875 
Q 6 25.140625 12.171875 29.828125 
Q 18.359375 34.515625 30.609375 34.515625 
L 43.21875 34.515625 
L 43.21875 35.40625 
Q 43.21875 41.609375 39.140625 45 
Q 35.0625 48.390625 27.6875 48.390625 
Q 23 48.390625 18.546875 47.265625 
Q 14.109375 46.140625 10.015625 43.890625 
L 10.015625 52.203125 
Q 14.9375 54.109375 19.578125 55.046875 
Q 24.21875 56 28.609375 56 
Q 40.484375 56 46.34375 49.84375 
Q 52.203125 43.703125 52.203125 31.203125 
z
" id="DejaVuSans-97"/>
       <path d="M 41.109375 46.296875 
Q 39.59375 47.171875 37.8125 47.578125 
Q 36.03125 48 33.890625 48 
Q 26.265625 48 22.1875 43.046875 
Q 18.109375 38.09375 18.109375 28.8125 
L 18.109375 0 
L 9.078125 0 
L 9.078125 54.6875 
L 18.109375 54.6875 
L 18.109375 46.1875 
Q 20.953125 51.171875 25.484375 53.578125 
Q 30.03125 56 36.53125 56 
Q 37.453125 56 38.578125 55.875 
Q 39.703125 55.765625 41.0625 55.515625 
z
" id="DejaVuSans-114"/>
      </defs>
      <g style="fill:#262626;" transform="translate(47.978869 319.275625)scale(0.12 -0.12)">
       <use xlink:href="#DejaVuSans-77"/>
       <use x="86.279297" xlink:href="#DejaVuSans-97"/>
       <use x="147.558594" xlink:href="#DejaVuSans-114"/>
      </g>
      <!-- 2020 -->
      <defs>
       <path d="M 19.1875 8.296875 
L 53.609375 8.296875 
L 53.609375 0 
L 7.328125 0 
L 7.328125 8.296875 
Q 12.9375 14.109375 22.625 23.890625 
Q 32.328125 33.6875 34.8125 36.53125 
Q 39.546875 41.84375 41.421875 45.53125 
Q 43.3125 49.21875 43.3125 52.78125 
Q 43.3125 58.59375 39.234375 62.25 
Q 35.15625 65.921875 28.609375 65.921875 
Q 23.96875 65.921875 18.8125 64.3125 
Q 13.671875 62.703125 7.8125 59.421875 
L 7.8125 69.390625 
Q 13.765625 71.78125 18.9375 73 
Q 24.125 74.21875 28.421875 74.21875 
Q 39.75 74.21875 46.484375 68.546875 
Q 53.21875 62.890625 53.21875 53.421875 
Q 53.21875 48.921875 51.53125 44.890625 
Q 49.859375 40.875 45.40625 35.40625 
Q 44.1875 33.984375 37.640625 27.21875 
Q 31.109375 20.453125 19.1875 8.296875 
z
" id="DejaVuSans-50"/>
       <path d="M 31.78125 66.40625 
Q 24.171875 66.40625 20.328125 58.90625 
Q 16.5 51.421875 16.5 36.375 
Q 16.5 21.390625 20.328125 13.890625 
Q 24.171875 6.390625 31.78125 6.390625 
Q 39.453125 6.390625 43.28125 13.890625 
Q 47.125 21.390625 47.125 36.375 
Q 47.125 51.421875 43.28125 58.90625 
Q 39.453125 66.40625 31.78125 66.40625 
z
M 31.78125 74.21875 
Q 44.046875 74.21875 50.515625 64.515625 
Q 56.984375 54.828125 56.984375 36.375 
Q 56.984375 17.96875 50.515625 8.265625 
Q 44.046875 -1.421875 31.78125 -1.421875 
Q 19.53125 -1.421875 13.0625 8.265625 
Q 6.59375 17.96875 6.59375 36.375 
Q 6.59375 54.828125 13.0625 64.515625 
Q 19.53125 74.21875 31.78125 74.21875 
z
" id="DejaVuSans-48"/>
      </defs>
      <g style="fill:#262626;" transform="translate(44.029181 332.713)scale(0.12 -0.12)">
       <use xlink:href="#DejaVuSans-50"/>
       <use x="63.623047" xlink:href="#DejaVuSans-48"/>
       <use x="127.246094" xlink:href="#DejaVuSans-50"/>
       <use x="190.869141" xlink:href="#DejaVuSans-48"/>
      </g>
     </g>
    </g>
    <g id="xtick_3">
     <g id="line2d_3">
      <g>
       <use style="fill:#262626;stroke:#262626;" x="108.546157" xlink:href="#m22dcb1f10c" y="297.1575"/>
      </g>
     </g>
     <g id="text_2">
      <!-- Apr -->
      <defs>
       <path d="M 34.1875 63.1875 
L 20.796875 26.90625 
L 47.609375 26.90625 
z
M 28.609375 72.90625 
L 39.796875 72.90625 
L 67.578125 0 
L 57.328125 0 
L 50.6875 18.703125 
L 17.828125 18.703125 
L 11.1875 0 
L 0.78125 0 
z
" id="DejaVuSans-65"/>
       <path d="M 18.109375 8.203125 
L 18.109375 -20.796875 
L 9.078125 -20.796875 
L 9.078125 54.6875 
L 18.109375 54.6875 
L 18.109375 46.390625 
Q 20.953125 51.265625 25.265625 53.625 
Q 29.59375 56 35.59375 56 
Q 45.5625 56 51.78125 48.09375 
Q 58.015625 40.1875 58.015625 27.296875 
Q 58.015625 14.40625 51.78125 6.484375 
Q 45.5625 -1.421875 35.59375 -1.421875 
Q 29.59375 -1.421875 25.265625 0.953125 
Q 20.953125 3.328125 18.109375 8.203125 
z
M 48.6875 27.296875 
Q 48.6875 37.203125 44.609375 42.84375 
Q 40.53125 48.484375 33.40625 48.484375 
Q 26.265625 48.484375 22.1875 42.84375 
Q 18.109375 37.203125 18.109375 27.296875 
Q 18.109375 17.390625 22.1875 11.75 
Q 26.265625 6.109375 33.40625 6.109375 
Q 40.53125 6.109375 44.609375 11.75 
Q 48.6875 17.390625 48.6875 27.296875 
z
" id="DejaVuSans-112"/>
      </defs>
      <g style="fill:#262626;" transform="translate(98.166157 319.275625)scale(0.12 -0.12)">
       <use xlink:href="#DejaVuSans-65"/>
       <use x="68.408203" xlink:href="#DejaVuSans-112"/>
       <use x="131.884766" xlink:href="#DejaVuSans-114"/>
      </g>
     </g>
    </g>
    <g id="xtick_4">
     <g id="line2d_4">
      <g>
       <use style="fill:#262626;stroke:#262626;" x="156.20452" xlink:href="#m22dcb1f10c" y="297.1575"/>
      </g>
     </g>
     <g id="text_3">
      <!-- May -->
      <defs>
       <path d="M 32.171875 -5.078125 
Q 28.375 -14.84375 24.75 -17.8125 
Q 21.140625 -20.796875 15.09375 -20.796875 
L 7.90625 -20.796875 
L 7.90625 -13.28125 
L 13.1875 -13.28125 
Q 16.890625 -13.28125 18.9375 -11.515625 
Q 21 -9.765625 23.484375 -3.21875 
L 25.09375 0.875 
L 2.984375 54.6875 
L 12.5 54.6875 
L 29.59375 11.921875 
L 46.6875 54.6875 
L 56.203125 54.6875 
z
" id="DejaVuSans-121"/>
      </defs>
      <g style="fill:#262626;" transform="translate(143.79952 319.275625)scale(0.12 -0.12)">
       <use xlink:href="#DejaVuSans-77"/>
       <use x="86.279297" xlink:href="#DejaVuSans-97"/>
       <use x="147.558594" xlink:href="#DejaVuSans-121"/>
      </g>
     </g>
    </g>
    <g id="xtick_5">
     <g id="line2d_5">
      <g>
       <use style="fill:#262626;stroke:#262626;" x="205.451495" xlink:href="#m22dcb1f10c" y="297.1575"/>
      </g>
     </g>
     <g id="text_4">
      <!-- Jun -->
      <defs>
       <path d="M 9.8125 72.90625 
L 19.671875 72.90625 
L 19.671875 5.078125 
Q 19.671875 -8.109375 14.671875 -14.0625 
Q 9.671875 -20.015625 -1.421875 -20.015625 
L -5.171875 -20.015625 
L -5.171875 -11.71875 
L -2.09375 -11.71875 
Q 4.4375 -11.71875 7.125 -8.046875 
Q 9.8125 -4.390625 9.8125 5.078125 
z
" id="DejaVuSans-74"/>
       <path d="M 8.5 21.578125 
L 8.5 54.6875 
L 17.484375 54.6875 
L 17.484375 21.921875 
Q 17.484375 14.15625 20.5 10.265625 
Q 23.53125 6.390625 29.59375 6.390625 
Q 36.859375 6.390625 41.078125 11.03125 
Q 45.3125 15.671875 45.3125 23.6875 
L 45.3125 54.6875 
L 54.296875 54.6875 
L 54.296875 0 
L 45.3125 0 
L 45.3125 8.40625 
Q 42.046875 3.421875 37.71875 1 
Q 33.40625 -1.421875 27.6875 -1.421875 
Q 18.265625 -1.421875 13.375 4.4375 
Q 8.5 10.296875 8.5 21.578125 
z
M 31.109375 56 
z
" id="DejaVuSans-117"/>
       <path d="M 54.890625 33.015625 
L 54.890625 0 
L 45.90625 0 
L 45.90625 32.71875 
Q 45.90625 40.484375 42.875 44.328125 
Q 39.84375 48.1875 33.796875 48.1875 
Q 26.515625 48.1875 22.3125 43.546875 
Q 18.109375 38.921875 18.109375 30.90625 
L 18.109375 0 
L 9.078125 0 
L 9.078125 54.6875 
L 18.109375 54.6875 
L 18.109375 46.1875 
Q 21.34375 51.125 25.703125 53.5625 
Q 30.078125 56 35.796875 56 
Q 45.21875 56 50.046875 50.171875 
Q 54.890625 44.34375 54.890625 33.015625 
z
" id="DejaVuSans-110"/>
      </defs>
      <g style="fill:#262626;" transform="translate(196.076495 319.275625)scale(0.12 -0.12)">
       <use xlink:href="#DejaVuSans-74"/>
       <use x="29.492188" xlink:href="#DejaVuSans-117"/>
       <use x="92.871094" xlink:href="#DejaVuSans-110"/>
      </g>
     </g>
    </g>
    <g id="xtick_6">
     <g id="line2d_6">
      <g>
       <use style="fill:#262626;stroke:#262626;" x="253.109858" xlink:href="#m22dcb1f10c" y="297.1575"/>
      </g>
     </g>
     <g id="text_5">
      <!-- Jul -->
      <defs>
       <path d="M 9.421875 75.984375 
L 18.40625 75.984375 
L 18.40625 0 
L 9.421875 0 
z
" id="DejaVuSans-108"/>
      </defs>
      <g style="fill:#262626;" transform="translate(245.870483 319.275625)scale(0.12 -0.12)">
       <use xlink:href="#DejaVuSans-74"/>
       <use x="29.492188" xlink:href="#DejaVuSans-117"/>
       <use x="92.871094" xlink:href="#DejaVuSans-108"/>
      </g>
     </g>
    </g>
    <g id="xtick_7">
     <g id="line2d_7">
      <g>
       <use style="fill:#262626;stroke:#262626;" x="302.356833" xlink:href="#m22dcb1f10c" y="297.1575"/>
      </g>
     </g>
     <g id="text_6">
      <!-- Aug -->
      <defs>
       <path d="M 45.40625 27.984375 
Q 45.40625 37.75 41.375 43.109375 
Q 37.359375 48.484375 30.078125 48.484375 
Q 22.859375 48.484375 18.828125 43.109375 
Q 14.796875 37.75 14.796875 27.984375 
Q 14.796875 18.265625 18.828125 12.890625 
Q 22.859375 7.515625 30.078125 7.515625 
Q 37.359375 7.515625 41.375 12.890625 
Q 45.40625 18.265625 45.40625 27.984375 
z
M 54.390625 6.78125 
Q 54.390625 -7.171875 48.1875 -13.984375 
Q 42 -20.796875 29.203125 -20.796875 
Q 24.46875 -20.796875 20.265625 -20.09375 
Q 16.0625 -19.390625 12.109375 -17.921875 
L 12.109375 -9.1875 
Q 16.0625 -11.328125 19.921875 -12.34375 
Q 23.78125 -13.375 27.78125 -13.375 
Q 36.625 -13.375 41.015625 -8.765625 
Q 45.40625 -4.15625 45.40625 5.171875 
L 45.40625 9.625 
Q 42.625 4.78125 38.28125 2.390625 
Q 33.9375 0 27.875 0 
Q 17.828125 0 11.671875 7.65625 
Q 5.515625 15.328125 5.515625 27.984375 
Q 5.515625 40.671875 11.671875 48.328125 
Q 17.828125 56 27.875 56 
Q 33.9375 56 38.28125 53.609375 
Q 42.625 51.21875 45.40625 46.390625 
L 45.40625 54.6875 
L 54.390625 54.6875 
z
" id="DejaVuSans-103"/>
      </defs>
      <g style="fill:#262626;" transform="translate(290.640895 319.275625)scale(0.12 -0.12)">
       <use xlink:href="#DejaVuSans-65"/>
       <use x="68.408203" xlink:href="#DejaVuSans-117"/>
       <use x="131.787109" xlink:href="#DejaVuSans-103"/>
      </g>
     </g>
    </g>
    <g id="xtick_8">
     <g id="line2d_8">
      <g>
       <use style="fill:#262626;stroke:#262626;" x="351.603808" xlink:href="#m22dcb1f10c" y="297.1575"/>
      </g>
     </g>
     <g id="text_7">
      <!-- Sep -->
      <defs>
       <path d="M 53.515625 70.515625 
L 53.515625 60.890625 
Q 47.90625 63.578125 42.921875 64.890625 
Q 37.9375 66.21875 33.296875 66.21875 
Q 25.25 66.21875 20.875 63.09375 
Q 16.5 59.96875 16.5 54.203125 
Q 16.5 49.359375 19.40625 46.890625 
Q 22.3125 44.4375 30.421875 42.921875 
L 36.375 41.703125 
Q 47.40625 39.59375 52.65625 34.296875 
Q 57.90625 29 57.90625 20.125 
Q 57.90625 9.515625 50.796875 4.046875 
Q 43.703125 -1.421875 29.984375 -1.421875 
Q 24.8125 -1.421875 18.96875 -0.25 
Q 13.140625 0.921875 6.890625 3.21875 
L 6.890625 13.375 
Q 12.890625 10.015625 18.65625 8.296875 
Q 24.421875 6.59375 29.984375 6.59375 
Q 38.421875 6.59375 43.015625 9.90625 
Q 47.609375 13.234375 47.609375 19.390625 
Q 47.609375 24.75 44.3125 27.78125 
Q 41.015625 30.8125 33.5 32.328125 
L 27.484375 33.5 
Q 16.453125 35.6875 11.515625 40.375 
Q 6.59375 45.0625 6.59375 53.421875 
Q 6.59375 63.09375 13.40625 68.65625 
Q 20.21875 74.21875 32.171875 74.21875 
Q 37.3125 74.21875 42.625 73.28125 
Q 47.953125 72.359375 53.515625 70.515625 
z
" id="DejaVuSans-83"/>
       <path d="M 56.203125 29.59375 
L 56.203125 25.203125 
L 14.890625 25.203125 
Q 15.484375 15.921875 20.484375 11.0625 
Q 25.484375 6.203125 34.421875 6.203125 
Q 39.59375 6.203125 44.453125 7.46875 
Q 49.3125 8.734375 54.109375 11.28125 
L 54.109375 2.78125 
Q 49.265625 0.734375 44.1875 -0.34375 
Q 39.109375 -1.421875 33.890625 -1.421875 
Q 20.796875 -1.421875 13.15625 6.1875 
Q 5.515625 13.8125 5.515625 26.8125 
Q 5.515625 40.234375 12.765625 48.109375 
Q 20.015625 56 32.328125 56 
Q 43.359375 56 49.78125 48.890625 
Q 56.203125 41.796875 56.203125 29.59375 
z
M 47.21875 32.234375 
Q 47.125 39.59375 43.09375 43.984375 
Q 39.0625 48.390625 32.421875 48.390625 
Q 24.90625 48.390625 20.390625 44.140625 
Q 15.875 39.890625 15.1875 32.171875 
z
" id="DejaVuSans-101"/>
      </defs>
      <g style="fill:#262626;" transform="translate(340.293808 319.275625)scale(0.12 -0.12)">
       <use xlink:href="#DejaVuSans-83"/>
       <use x="63.476562" xlink:href="#DejaVuSans-101"/>
       <use x="125" xlink:href="#DejaVuSans-112"/>
      </g>
     </g>
    </g>
    <g id="xtick_9">
     <g id="line2d_9">
      <g>
       <use style="fill:#262626;stroke:#262626;" x="399.262171" xlink:href="#m22dcb1f10c" y="297.1575"/>
      </g>
     </g>
     <g id="text_8">
      <!-- Oct -->
      <defs>
       <path d="M 39.40625 66.21875 
Q 28.65625 66.21875 22.328125 58.203125 
Q 16.015625 50.203125 16.015625 36.375 
Q 16.015625 22.609375 22.328125 14.59375 
Q 28.65625 6.59375 39.40625 6.59375 
Q 50.140625 6.59375 56.421875 14.59375 
Q 62.703125 22.609375 62.703125 36.375 
Q 62.703125 50.203125 56.421875 58.203125 
Q 50.140625 66.21875 39.40625 66.21875 
z
M 39.40625 74.21875 
Q 54.734375 74.21875 63.90625 63.9375 
Q 73.09375 53.65625 73.09375 36.375 
Q 73.09375 19.140625 63.90625 8.859375 
Q 54.734375 -1.421875 39.40625 -1.421875 
Q 24.03125 -1.421875 14.8125 8.828125 
Q 5.609375 19.09375 5.609375 36.375 
Q 5.609375 53.65625 14.8125 63.9375 
Q 24.03125 74.21875 39.40625 74.21875 
z
" id="DejaVuSans-79"/>
       <path d="M 48.78125 52.59375 
L 48.78125 44.1875 
Q 44.96875 46.296875 41.140625 47.34375 
Q 37.3125 48.390625 33.40625 48.390625 
Q 24.65625 48.390625 19.8125 42.84375 
Q 14.984375 37.3125 14.984375 27.296875 
Q 14.984375 17.28125 19.8125 11.734375 
Q 24.65625 6.203125 33.40625 6.203125 
Q 37.3125 6.203125 41.140625 7.25 
Q 44.96875 8.296875 48.78125 10.40625 
L 48.78125 2.09375 
Q 45.015625 0.34375 40.984375 -0.53125 
Q 36.96875 -1.421875 32.421875 -1.421875 
Q 20.0625 -1.421875 12.78125 6.34375 
Q 5.515625 14.109375 5.515625 27.296875 
Q 5.515625 40.671875 12.859375 48.328125 
Q 20.21875 56 33.015625 56 
Q 37.15625 56 41.109375 55.140625 
Q 45.0625 54.296875 48.78125 52.59375 
z
" id="DejaVuSans-99"/>
       <path d="M 18.3125 70.21875 
L 18.3125 54.6875 
L 36.8125 54.6875 
L 36.8125 47.703125 
L 18.3125 47.703125 
L 18.3125 18.015625 
Q 18.3125 11.328125 20.140625 9.421875 
Q 21.96875 7.515625 27.59375 7.515625 
L 36.8125 7.515625 
L 36.8125 0 
L 27.59375 0 
Q 17.1875 0 13.234375 3.875 
Q 9.28125 7.765625 9.28125 18.015625 
L 9.28125 47.703125 
L 2.6875 47.703125 
L 2.6875 54.6875 
L 9.28125 54.6875 
L 9.28125 70.21875 
z
" id="DejaVuSans-116"/>
      </defs>
      <g style="fill:#262626;" transform="translate(388.887796 319.275625)scale(0.12 -0.12)">
       <use xlink:href="#DejaVuSans-79"/>
       <use x="78.710938" xlink:href="#DejaVuSans-99"/>
       <use x="133.691406" xlink:href="#DejaVuSans-116"/>
      </g>
     </g>
    </g>
    <g id="xtick_10">
     <g id="line2d_10">
      <g>
       <use style="fill:#262626;stroke:#262626;" x="448.509146" xlink:href="#m22dcb1f10c" y="297.1575"/>
      </g>
     </g>
     <g id="text_9">
      <!-- Nov -->
      <defs>
       <path d="M 9.8125 72.90625 
L 23.09375 72.90625 
L 55.421875 11.921875 
L 55.421875 72.90625 
L 64.984375 72.90625 
L 64.984375 0 
L 51.703125 0 
L 19.390625 60.984375 
L 19.390625 0 
L 9.8125 0 
z
" id="DejaVuSans-78"/>
       <path d="M 30.609375 48.390625 
Q 23.390625 48.390625 19.1875 42.75 
Q 14.984375 37.109375 14.984375 27.296875 
Q 14.984375 17.484375 19.15625 11.84375 
Q 23.34375 6.203125 30.609375 6.203125 
Q 37.796875 6.203125 41.984375 11.859375 
Q 46.1875 17.53125 46.1875 27.296875 
Q 46.1875 37.015625 41.984375 42.703125 
Q 37.796875 48.390625 30.609375 48.390625 
z
M 30.609375 56 
Q 42.328125 56 49.015625 48.375 
Q 55.71875 40.765625 55.71875 27.296875 
Q 55.71875 13.875 49.015625 6.21875 
Q 42.328125 -1.421875 30.609375 -1.421875 
Q 18.84375 -1.421875 12.171875 6.21875 
Q 5.515625 13.875 5.515625 27.296875 
Q 5.515625 40.765625 12.171875 48.375 
Q 18.84375 56 30.609375 56 
z
" id="DejaVuSans-111"/>
       <path d="M 2.984375 54.6875 
L 12.5 54.6875 
L 29.59375 8.796875 
L 46.6875 54.6875 
L 56.203125 54.6875 
L 35.6875 0 
L 23.484375 0 
z
" id="DejaVuSans-118"/>
      </defs>
      <g style="fill:#262626;" transform="translate(436.797896 319.275625)scale(0.12 -0.12)">
       <use xlink:href="#DejaVuSans-78"/>
       <use x="74.804688" xlink:href="#DejaVuSans-111"/>
       <use x="135.986328" xlink:href="#DejaVuSans-118"/>
      </g>
     </g>
    </g>
    <g id="xtick_11">
     <g id="line2d_11">
      <g>
       <use style="fill:#262626;stroke:#262626;" x="481.87" xlink:href="#m22dcb1f10c" y="297.1575"/>
      </g>
     </g>
    </g>
    <g id="xtick_12">
     <g id="line2d_12">
      <defs>
       <path d="M 0 0 
L 0 3 
" id="m471b974307" style="stroke:#262626;stroke-width:0.5;"/>
      </defs>
      <g>
       <use style="fill:#262626;stroke:#262626;stroke-width:0.5;" x="38.647224" xlink:href="#m471b974307" y="297.1575"/>
      </g>
     </g>
    </g>
    <g id="xtick_13">
     <g id="line2d_13">
      <g>
       <use style="fill:#262626;stroke:#262626;stroke-width:0.5;" x="49.767509" xlink:href="#m471b974307" y="297.1575"/>
      </g>
     </g>
    </g>
    <g id="xtick_14">
     <g id="line2d_14">
      <g>
       <use style="fill:#262626;stroke:#262626;stroke-width:0.5;" x="60.887794" xlink:href="#m471b974307" y="297.1575"/>
      </g>
     </g>
    </g>
    <g id="xtick_15">
     <g id="line2d_15">
      <g>
       <use style="fill:#262626;stroke:#262626;stroke-width:0.5;" x="72.008078" xlink:href="#m471b974307" y="297.1575"/>
      </g>
     </g>
    </g>
    <g id="xtick_16">
     <g id="line2d_16">
      <g>
       <use style="fill:#262626;stroke:#262626;stroke-width:0.5;" x="83.128363" xlink:href="#m471b974307" y="297.1575"/>
      </g>
     </g>
    </g>
    <g id="xtick_17">
     <g id="line2d_17">
      <g>
       <use style="fill:#262626;stroke:#262626;stroke-width:0.5;" x="94.248648" xlink:href="#m471b974307" y="297.1575"/>
      </g>
     </g>
    </g>
    <g id="xtick_18">
     <g id="line2d_18">
      <g>
       <use style="fill:#262626;stroke:#262626;stroke-width:0.5;" x="105.368932" xlink:href="#m471b974307" y="297.1575"/>
      </g>
     </g>
    </g>
    <g id="xtick_19">
     <g id="line2d_19">
      <g>
       <use style="fill:#262626;stroke:#262626;stroke-width:0.5;" x="116.489217" xlink:href="#m471b974307" y="297.1575"/>
      </g>
     </g>
    </g>
    <g id="xtick_20">
     <g id="line2d_20">
      <g>
       <use style="fill:#262626;stroke:#262626;stroke-width:0.5;" x="127.609502" xlink:href="#m471b974307" y="297.1575"/>
      </g>
     </g>
    </g>
    <g id="xtick_21">
     <g id="line2d_21">
      <g>
       <use style="fill:#262626;stroke:#262626;stroke-width:0.5;" x="138.729786" xlink:href="#m471b974307" y="297.1575"/>
      </g>
     </g>
    </g>
    <g id="xtick_22">
     <g id="line2d_22">
      <g>
       <use style="fill:#262626;stroke:#262626;stroke-width:0.5;" x="149.850071" xlink:href="#m471b974307" y="297.1575"/>
      </g>
     </g>
    </g>
    <g id="xtick_23">
     <g id="line2d_23">
      <g>
       <use style="fill:#262626;stroke:#262626;stroke-width:0.5;" x="160.970356" xlink:href="#m471b974307" y="297.1575"/>
      </g>
     </g>
    </g>
    <g id="xtick_24">
     <g id="line2d_24">
      <g>
       <use style="fill:#262626;stroke:#262626;stroke-width:0.5;" x="172.090641" xlink:href="#m471b974307" y="297.1575"/>
      </g>
     </g>
    </g>
    <g id="xtick_25">
     <g id="line2d_25">
      <g>
       <use style="fill:#262626;stroke:#262626;stroke-width:0.5;" x="183.210925" xlink:href="#m471b974307" y="297.1575"/>
      </g>
     </g>
    </g>
    <g id="xtick_26">
     <g id="line2d_26">
      <g>
       <use style="fill:#262626;stroke:#262626;stroke-width:0.5;" x="194.33121" xlink:href="#m471b974307" y="297.1575"/>
      </g>
     </g>
    </g>
    <g id="xtick_27">
     <g id="line2d_27">
      <g>
       <use style="fill:#262626;stroke:#262626;stroke-width:0.5;" x="216.571779" xlink:href="#m471b974307" y="297.1575"/>
      </g>
     </g>
    </g>
    <g id="xtick_28">
     <g id="line2d_28">
      <g>
       <use style="fill:#262626;stroke:#262626;stroke-width:0.5;" x="227.692064" xlink:href="#m471b974307" y="297.1575"/>
      </g>
     </g>
    </g>
    <g id="xtick_29">
     <g id="line2d_29">
      <g>
       <use style="fill:#262626;stroke:#262626;stroke-width:0.5;" x="238.812349" xlink:href="#m471b974307" y="297.1575"/>
      </g>
     </g>
    </g>
    <g id="xtick_30">
     <g id="line2d_30">
      <g>
       <use style="fill:#262626;stroke:#262626;stroke-width:0.5;" x="249.932633" xlink:href="#m471b974307" y="297.1575"/>
      </g>
     </g>
    </g>
    <g id="xtick_31">
     <g id="line2d_31">
      <g>
       <use style="fill:#262626;stroke:#262626;stroke-width:0.5;" x="261.052918" xlink:href="#m471b974307" y="297.1575"/>
      </g>
     </g>
    </g>
    <g id="xtick_32">
     <g id="line2d_32">
      <g>
       <use style="fill:#262626;stroke:#262626;stroke-width:0.5;" x="272.173203" xlink:href="#m471b974307" y="297.1575"/>
      </g>
     </g>
    </g>
    <g id="xtick_33">
     <g id="line2d_33">
      <g>
       <use style="fill:#262626;stroke:#262626;stroke-width:0.5;" x="283.293488" xlink:href="#m471b974307" y="297.1575"/>
      </g>
     </g>
    </g>
    <g id="xtick_34">
     <g id="line2d_34">
      <g>
       <use style="fill:#262626;stroke:#262626;stroke-width:0.5;" x="294.413772" xlink:href="#m471b974307" y="297.1575"/>
      </g>
     </g>
    </g>
    <g id="xtick_35">
     <g id="line2d_35">
      <g>
       <use style="fill:#262626;stroke:#262626;stroke-width:0.5;" x="305.534057" xlink:href="#m471b974307" y="297.1575"/>
      </g>
     </g>
    </g>
    <g id="xtick_36">
     <g id="line2d_36">
      <g>
       <use style="fill:#262626;stroke:#262626;stroke-width:0.5;" x="316.654342" xlink:href="#m471b974307" y="297.1575"/>
      </g>
     </g>
    </g>
    <g id="xtick_37">
     <g id="line2d_37">
      <g>
       <use style="fill:#262626;stroke:#262626;stroke-width:0.5;" x="327.774626" xlink:href="#m471b974307" y="297.1575"/>
      </g>
     </g>
    </g>
    <g id="xtick_38">
     <g id="line2d_38">
      <g>
       <use style="fill:#262626;stroke:#262626;stroke-width:0.5;" x="338.894911" xlink:href="#m471b974307" y="297.1575"/>
      </g>
     </g>
    </g>
    <g id="xtick_39">
     <g id="line2d_39">
      <g>
       <use style="fill:#262626;stroke:#262626;stroke-width:0.5;" x="350.015196" xlink:href="#m471b974307" y="297.1575"/>
      </g>
     </g>
    </g>
    <g id="xtick_40">
     <g id="line2d_40">
      <g>
       <use style="fill:#262626;stroke:#262626;stroke-width:0.5;" x="361.13548" xlink:href="#m471b974307" y="297.1575"/>
      </g>
     </g>
    </g>
    <g id="xtick_41">
     <g id="line2d_41">
      <g>
       <use style="fill:#262626;stroke:#262626;stroke-width:0.5;" x="372.255765" xlink:href="#m471b974307" y="297.1575"/>
      </g>
     </g>
    </g>
    <g id="xtick_42">
     <g id="line2d_42">
      <g>
       <use style="fill:#262626;stroke:#262626;stroke-width:0.5;" x="383.37605" xlink:href="#m471b974307" y="297.1575"/>
      </g>
     </g>
    </g>
    <g id="xtick_43">
     <g id="line2d_43">
      <g>
       <use style="fill:#262626;stroke:#262626;stroke-width:0.5;" x="394.496335" xlink:href="#m471b974307" y="297.1575"/>
      </g>
     </g>
    </g>
    <g id="xtick_44">
     <g id="line2d_44">
      <g>
       <use style="fill:#262626;stroke:#262626;stroke-width:0.5;" x="405.616619" xlink:href="#m471b974307" y="297.1575"/>
      </g>
     </g>
    </g>
    <g id="xtick_45">
     <g id="line2d_45">
      <g>
       <use style="fill:#262626;stroke:#262626;stroke-width:0.5;" x="416.736904" xlink:href="#m471b974307" y="297.1575"/>
      </g>
     </g>
    </g>
    <g id="xtick_46">
     <g id="line2d_46">
      <g>
       <use style="fill:#262626;stroke:#262626;stroke-width:0.5;" x="427.857189" xlink:href="#m471b974307" y="297.1575"/>
      </g>
     </g>
    </g>
    <g id="xtick_47">
     <g id="line2d_47">
      <g>
       <use style="fill:#262626;stroke:#262626;stroke-width:0.5;" x="438.977473" xlink:href="#m471b974307" y="297.1575"/>
      </g>
     </g>
    </g>
    <g id="xtick_48">
     <g id="line2d_48">
      <g>
       <use style="fill:#262626;stroke:#262626;stroke-width:0.5;" x="450.097758" xlink:href="#m471b974307" y="297.1575"/>
      </g>
     </g>
    </g>
    <g id="xtick_49">
     <g id="line2d_49">
      <g>
       <use style="fill:#262626;stroke:#262626;stroke-width:0.5;" x="461.218043" xlink:href="#m471b974307" y="297.1575"/>
      </g>
     </g>
    </g>
    <g id="xtick_50">
     <g id="line2d_50">
      <g>
       <use style="fill:#262626;stroke:#262626;stroke-width:0.5;" x="472.338327" xlink:href="#m471b974307" y="297.1575"/>
      </g>
     </g>
    </g>
   </g>
   <g id="matplotlib.axis_2">
    <g id="ytick_1">
     <g id="line2d_51">
      <path clip-path="url(#p49286ebffd)" d="M 35.47 297.1575 
L 481.87 297.1575 
" style="fill:none;stroke:#b0b0b0;stroke-linecap:square;stroke-opacity:0.3;"/>
     </g>
     <g id="line2d_52">
      <defs>
       <path d="M 0 0 
L -6 0 
" id="mf8ab6ccb62" style="stroke:#262626;"/>
      </defs>
      <g>
       <use style="fill:#262626;stroke:#262626;" x="35.47" xlink:href="#mf8ab6ccb62" y="297.1575"/>
      </g>
     </g>
     <g id="text_10">
      <!-- 0 -->
      <g style="fill:#262626;" transform="translate(14.835 301.716562)scale(0.12 -0.12)">
       <use xlink:href="#DejaVuSans-48"/>
      </g>
     </g>
    </g>
    <g id="ytick_2">
     <g id="line2d_53">
      <path clip-path="url(#p49286ebffd)" d="M 35.47 249.439063 
L 481.87 249.439063 
" style="fill:none;stroke:#b0b0b0;stroke-linecap:square;stroke-opacity:0.3;"/>
     </g>
     <g id="line2d_54">
      <g>
       <use style="fill:#262626;stroke:#262626;" x="35.47" xlink:href="#mf8ab6ccb62" y="249.439063"/>
      </g>
     </g>
     <g id="text_11">
      <!-- 5 -->
      <defs>
       <path d="M 10.796875 72.90625 
L 49.515625 72.90625 
L 49.515625 64.59375 
L 19.828125 64.59375 
L 19.828125 46.734375 
Q 21.96875 47.46875 24.109375 47.828125 
Q 26.265625 48.1875 28.421875 48.1875 
Q 40.625 48.1875 47.75 41.5 
Q 54.890625 34.8125 54.890625 23.390625 
Q 54.890625 11.625 47.5625 5.09375 
Q 40.234375 -1.421875 26.90625 -1.421875 
Q 22.3125 -1.421875 17.546875 -0.640625 
Q 12.796875 0.140625 7.71875 1.703125 
L 7.71875 11.625 
Q 12.109375 9.234375 16.796875 8.0625 
Q 21.484375 6.890625 26.703125 6.890625 
Q 35.15625 6.890625 40.078125 11.328125 
Q 45.015625 15.765625 45.015625 23.390625 
Q 45.015625 31 40.078125 35.4375 
Q 35.15625 39.890625 26.703125 39.890625 
Q 22.75 39.890625 18.8125 39.015625 
Q 14.890625 38.140625 10.796875 36.28125 
z
" id="DejaVuSans-53"/>
      </defs>
      <g style="fill:#262626;" transform="translate(14.835 253.998125)scale(0.12 -0.12)">
       <use xlink:href="#DejaVuSans-53"/>
      </g>
     </g>
    </g>
    <g id="ytick_3">
     <g id="line2d_55">
      <path clip-path="url(#p49286ebffd)" d="M 35.47 201.720625 
L 481.87 201.720625 
" style="fill:none;stroke:#b0b0b0;stroke-linecap:square;stroke-opacity:0.3;"/>
     </g>
     <g id="line2d_56">
      <g>
       <use style="fill:#262626;stroke:#262626;" x="35.47" xlink:href="#mf8ab6ccb62" y="201.720625"/>
      </g>
     </g>
     <g id="text_12">
      <!-- 10 -->
      <defs>
       <path d="M 12.40625 8.296875 
L 28.515625 8.296875 
L 28.515625 63.921875 
L 10.984375 60.40625 
L 10.984375 69.390625 
L 28.421875 72.90625 
L 38.28125 72.90625 
L 38.28125 8.296875 
L 54.390625 8.296875 
L 54.390625 0 
L 12.40625 0 
z
" id="DejaVuSans-49"/>
      </defs>
      <g style="fill:#262626;" transform="translate(7.2 206.279688)scale(0.12 -0.12)">
       <use xlink:href="#DejaVuSans-49"/>
       <use x="63.623047" xlink:href="#DejaVuSans-48"/>
      </g>
     </g>
    </g>
    <g id="ytick_4">
     <g id="line2d_57">
      <path clip-path="url(#p49286ebffd)" d="M 35.47 154.002188 
L 481.87 154.002188 
" style="fill:none;stroke:#b0b0b0;stroke-linecap:square;stroke-opacity:0.3;"/>
     </g>
     <g id="line2d_58">
      <g>
       <use style="fill:#262626;stroke:#262626;" x="35.47" xlink:href="#mf8ab6ccb62" y="154.002188"/>
      </g>
     </g>
     <g id="text_13">
      <!-- 15 -->
      <g style="fill:#262626;" transform="translate(7.2 158.56125)scale(0.12 -0.12)">
       <use xlink:href="#DejaVuSans-49"/>
       <use x="63.623047" xlink:href="#DejaVuSans-53"/>
      </g>
     </g>
    </g>
    <g id="ytick_5">
     <g id="line2d_59">
      <path clip-path="url(#p49286ebffd)" d="M 35.47 106.28375 
L 481.87 106.28375 
" style="fill:none;stroke:#b0b0b0;stroke-linecap:square;stroke-opacity:0.3;"/>
     </g>
     <g id="line2d_60">
      <g>
       <use style="fill:#262626;stroke:#262626;" x="35.47" xlink:href="#mf8ab6ccb62" y="106.28375"/>
      </g>
     </g>
     <g id="text_14">
      <!-- 20 -->
      <g style="fill:#262626;" transform="translate(7.2 110.842813)scale(0.12 -0.12)">
       <use xlink:href="#DejaVuSans-50"/>
       <use x="63.623047" xlink:href="#DejaVuSans-48"/>
      </g>
     </g>
    </g>
    <g id="ytick_6">
     <g id="line2d_61">
      <path clip-path="url(#p49286ebffd)" d="M 35.47 58.565313 
L 481.87 58.565313 
" style="fill:none;stroke:#b0b0b0;stroke-linecap:square;stroke-opacity:0.3;"/>
     </g>
     <g id="line2d_62">
      <g>
       <use style="fill:#262626;stroke:#262626;" x="35.47" xlink:href="#mf8ab6ccb62" y="58.565313"/>
      </g>
     </g>
     <g id="text_15">
      <!-- 25 -->
      <g style="fill:#262626;" transform="translate(7.2 63.124375)scale(0.12 -0.12)">
       <use xlink:href="#DejaVuSans-50"/>
       <use x="63.623047" xlink:href="#DejaVuSans-53"/>
      </g>
     </g>
    </g>
   </g>
   <g id="line2d_63">
    <path clip-path="url(#p49286ebffd)" d="M 5.28637 297.1575 
L 73.59669 297.1575 
L 75.185302 297.022162 
L 84.716975 297.022162 
L 86.305587 297.1575 
L 87.894199 297.022162 
L 89.482811 297.022162 
L 91.071423 296.751486 
L 92.660036 296.616147 
L 94.248648 296.345471 
L 95.83726 295.804118 
L 97.425872 295.533442 
L 99.014484 294.586075 
L 100.603096 293.774046 
L 102.191708 293.232693 
L 103.78032 292.826679 
L 105.368932 292.149988 
L 106.957544 291.337959 
L 108.546157 290.119916 
L 111.723381 288.766534 
L 113.311993 285.789094 
L 114.900605 284.300375 
L 116.489217 283.217669 
L 118.077829 281.593611 
L 119.666441 279.157524 
L 121.255053 277.533466 
L 122.843665 276.586099 
L 124.432278 277.127452 
L 126.02089 274.962041 
L 127.609502 273.743998 
L 129.198114 271.307911 
L 130.786726 269.548515 
L 132.375338 265.759046 
L 133.96395 262.781607 
L 135.552562 255.067331 
L 138.729786 256.962066 
L 140.318399 256.150037 
L 141.907011 252.901921 
L 143.495623 250.871848 
L 145.084235 249.112452 
L 146.672847 253.984626 
L 148.261459 254.796655 
L 151.438683 251.548539 
L 153.027295 252.901921 
L 154.615907 254.661317 
L 156.20452 253.578612 
L 157.793132 254.661317 
L 159.381744 254.390641 
L 160.970356 254.661317 
L 162.558968 254.796655 
L 164.14758 255.067331 
L 165.736192 255.608684 
L 167.324804 257.097404 
L 168.913416 256.150037 
L 170.502028 256.420713 
L 172.090641 254.796655 
L 173.679253 256.556051 
L 175.267865 257.638757 
L 176.856477 264.541003 
L 178.445089 258.315447 
L 180.033701 259.127476 
L 181.622313 257.774095 
L 183.210925 260.616196 
L 184.799537 256.556051 
L 186.388149 255.067331 
L 187.976762 248.841776 
L 189.565374 257.36808 
L 191.153986 256.962066 
L 192.742598 258.8568 
L 194.33121 259.668829 
L 195.919822 266.029723 
L 197.508434 266.706413 
L 199.097046 266.706413 
L 200.685658 264.541003 
L 202.27427 263.593636 
L 205.451495 260.886872 
L 207.040107 256.556051 
L 208.628719 257.36808 
L 210.217331 257.909433 
L 211.805943 259.939505 
L 213.394555 258.992138 
L 214.983167 258.8568 
L 216.571779 260.480858 
L 218.160391 261.428225 
L 219.749004 259.398153 
L 221.337616 258.992138 
L 222.926228 261.022211 
L 224.51484 260.616196 
L 226.103452 261.698901 
L 227.692064 260.480858 
L 229.280676 263.052283 
L 230.869288 266.97709 
L 232.4579 268.195133 
L 234.046512 265.894384 
L 235.635125 267.383104 
L 237.223737 268.330471 
L 238.812349 268.601148 
L 240.400961 268.46581 
L 241.989573 268.195133 
L 243.578185 267.518442 
L 245.166797 269.548515 
L 246.755409 273.473322 
L 248.344021 272.11994 
L 249.932633 271.578587 
L 251.521246 270.360544 
L 253.109858 270.495882 
L 254.69847 269.007162 
L 256.287082 271.849264 
L 257.875694 274.285351 
L 259.464306 272.525954 
L 261.052918 269.007162 
L 262.64153 268.736486 
L 264.230142 264.676341 
L 265.818754 265.353032 
L 267.407367 258.721462 
L 268.995979 251.277863 
L 270.584591 253.578612 
L 272.173203 258.180109 
L 273.761815 254.525979 
L 275.350427 257.36808 
L 276.939039 256.691389 
L 278.527651 255.338008 
L 280.116263 257.774095 
L 281.704875 258.450786 
L 283.293488 258.992138 
L 284.8821 261.969578 
L 286.470712 259.668829 
L 288.059324 260.074843 
L 289.647936 262.916945 
L 291.236548 261.022211 
L 292.82516 261.292887 
L 294.413772 260.480858 
L 296.002384 260.34552 
L 297.590996 256.150037 
L 299.179609 257.909433 
L 300.768221 253.71395 
L 302.356833 254.119964 
L 303.945445 252.22523 
L 305.534057 253.037259 
L 307.122669 252.22523 
L 308.711281 255.338008 
L 310.299893 254.255303 
L 311.888505 256.962066 
L 313.477117 256.826728 
L 315.06573 258.586124 
L 316.654342 257.232742 
L 318.242954 256.691389 
L 319.831566 258.721462 
L 321.420178 256.285375 
L 323.00879 257.097404 
L 324.597402 259.533491 
L 326.186014 259.668829 
L 327.774626 259.668829 
L 329.363238 259.533491 
L 330.951851 258.8568 
L 332.540463 259.939505 
L 334.129075 259.668829 
L 335.717687 257.638757 
L 337.306299 257.774095 
L 338.894911 258.586124 
L 340.483523 260.616196 
L 342.072135 260.480858 
L 343.660747 262.646269 
L 345.249359 264.541003 
L 346.837972 267.112428 
L 350.015196 266.571075 
L 351.603808 266.841752 
L 353.19242 268.059795 
L 354.781032 265.894384 
L 356.369644 263.99965 
L 357.958256 264.541003 
L 359.546868 265.217694 
L 361.13548 263.864312 
L 362.724093 269.1425 
L 364.312705 268.46581 
L 365.901317 270.63122 
L 367.489929 270.901896 
L 369.078541 270.495882 
L 370.667153 269.683853 
L 372.255765 269.954529 
L 373.844377 265.082356 
L 375.432989 268.330471 
L 377.021601 270.63122 
L 378.610214 275.638732 
L 380.198826 279.157524 
L 381.787438 277.533466 
L 383.37605 278.886848 
L 384.964662 279.834215 
L 386.553274 280.916921 
L 388.141886 279.428201 
L 389.730498 275.77407 
L 391.31911 273.60866 
L 394.496335 276.992114 
L 396.084947 276.856776 
L 397.673559 276.450761 
L 399.262171 276.180085 
L 400.850783 278.480834 
L 402.439395 278.480834 
L 404.028007 279.157524 
L 405.616619 278.345495 
L 407.205231 279.563539 
L 408.793843 279.157524 
L 410.382456 281.458273 
L 411.971068 281.593611 
L 413.55968 280.104892 
L 415.148292 280.375568 
L 416.736904 281.052259 
L 418.325516 282.40564 
L 419.914128 283.217669 
L 421.50274 282.540978 
L 423.091352 281.728949 
L 424.679964 284.300375 
L 426.268577 282.946993 
L 427.857189 283.082331 
L 429.445801 280.646244 
L 431.034413 279.292863 
L 432.623025 280.646244 
L 434.211637 281.052259 
L 435.800249 280.104892 
L 437.388861 281.322935 
L 438.977473 280.510906 
L 440.566085 281.593611 
L 442.154698 284.165036 
L 443.74331 285.247742 
L 445.331922 286.059771 
L 446.920534 286.059771 
L 448.509146 286.195109 
L 450.097758 286.8718 
L 451.68637 287.683829 
L 453.274982 286.736461 
L 454.863594 284.165036 
L 456.452206 283.488346 
L 458.040819 283.759022 
L 459.629431 283.89436 
L 461.218043 283.488346 
L 462.806655 283.217669 
L 464.395267 283.759022 
L 465.983879 286.195109 
L 467.572491 285.112404 
L 469.161103 284.165036 
L 472.338327 283.89436 
L 473.92694 287.007138 
L 473.92694 287.007138 
" style="fill:none;stroke:#4c72b0;stroke-linecap:square;stroke-width:2;"/>
   </g>
   <g id="line2d_64">
    <path clip-path="url(#p49286ebffd)" d="M 5.28637 297.1575 
L 89.482811 297.1575 
L 91.071423 296.037476 
L 94.248648 296.037476 
L 95.83726 294.917452 
L 100.603096 294.917452 
L 102.191708 296.037476 
L 105.368932 296.037476 
L 106.957544 297.1575 
L 111.723381 297.1575 
L 114.900605 294.917452 
L 116.489217 294.917452 
L 118.077829 292.677404 
L 119.666441 288.197308 
L 121.255053 285.95726 
L 122.843665 279.237116 
L 124.432278 279.237116 
L 126.02089 280.35714 
L 127.609502 278.117092 
L 129.198114 276.997068 
L 130.786726 279.237116 
L 132.375338 268.036876 
L 133.96395 269.1569 
L 138.729786 259.076684 
L 140.318399 248.996468 
L 141.907011 243.396348 
L 143.495623 262.436756 
L 145.084235 265.796828 
L 146.672847 268.036876 
L 148.261459 271.396948 
L 149.850071 270.276924 
L 151.438683 274.75702 
L 153.027295 283.717212 
L 154.615907 269.1569 
L 156.20452 265.796828 
L 157.793132 264.676804 
L 159.381744 264.676804 
L 160.970356 271.396948 
L 162.558968 272.516972 
L 164.14758 269.1569 
L 165.736192 271.396948 
L 167.324804 274.75702 
L 168.913416 276.997068 
L 170.502028 274.75702 
L 172.090641 273.636996 
L 173.679253 276.997068 
L 175.267865 265.796828 
L 176.856477 272.516972 
L 178.445089 272.516972 
L 180.033701 271.396948 
L 181.622313 273.636996 
L 183.210925 274.75702 
L 184.799537 276.997068 
L 186.388149 288.197308 
L 187.976762 287.077284 
L 189.565374 282.597188 
L 191.153986 280.35714 
L 194.33121 278.117092 
L 197.508434 282.597188 
L 199.097046 282.597188 
L 200.685658 288.197308 
L 202.27427 291.55738 
L 203.862883 292.677404 
L 205.451495 292.677404 
L 208.628719 290.437356 
L 210.217331 291.55738 
L 211.805943 290.437356 
L 213.394555 291.55738 
L 216.571779 291.55738 
L 218.160391 292.677404 
L 219.749004 292.677404 
L 221.337616 291.55738 
L 222.926228 293.797428 
L 224.51484 292.677404 
L 226.103452 292.677404 
L 227.692064 291.55738 
L 229.280676 288.197308 
L 232.4579 290.437356 
L 234.046512 289.317332 
L 237.223737 289.317332 
L 238.812349 291.55738 
L 240.400961 294.917452 
L 241.989573 293.797428 
L 243.578185 291.55738 
L 245.166797 291.55738 
L 246.755409 289.317332 
L 253.109858 289.317332 
L 254.69847 290.437356 
L 256.287082 289.317332 
L 257.875694 292.677404 
L 261.052918 292.677404 
L 262.64153 288.197308 
L 264.230142 287.077284 
L 267.407367 289.317332 
L 268.995979 288.197308 
L 272.173203 288.197308 
L 273.761815 291.55738 
L 275.350427 288.197308 
L 276.939039 287.077284 
L 280.116263 287.077284 
L 281.704875 285.95726 
L 283.293488 285.95726 
L 284.8821 283.717212 
L 289.647936 280.35714 
L 291.236548 280.35714 
L 292.82516 281.477164 
L 294.413772 281.477164 
L 296.002384 276.997068 
L 299.179609 279.237116 
L 300.768221 276.997068 
L 302.356833 276.997068 
L 303.945445 274.75702 
L 305.534057 274.75702 
L 307.122669 281.477164 
L 308.711281 281.477164 
L 311.888505 276.997068 
L 313.477117 276.997068 
L 315.06573 278.117092 
L 318.242954 278.117092 
L 319.831566 269.1569 
L 321.420178 266.916852 
L 324.597402 269.1569 
L 326.186014 264.676804 
L 327.774626 262.436756 
L 329.363238 262.436756 
L 330.951851 270.276924 
L 332.540463 274.75702 
L 334.129075 273.636996 
L 335.717687 271.396948 
L 337.306299 276.997068 
L 338.894911 279.237116 
L 342.072135 274.75702 
L 343.660747 274.75702 
L 345.249359 273.636996 
L 346.837972 270.276924 
L 350.015196 270.276924 
L 353.19242 268.036876 
L 354.781032 268.036876 
L 356.369644 270.276924 
L 357.958256 275.877044 
L 361.13548 275.877044 
L 362.724093 280.35714 
L 364.312705 280.35714 
L 365.901317 281.477164 
L 367.489929 283.717212 
L 369.078541 282.597188 
L 372.255765 282.597188 
L 373.844377 281.477164 
L 375.432989 291.55738 
L 377.021601 288.197308 
L 378.610214 287.077284 
L 380.198826 284.837236 
L 383.37605 284.837236 
L 384.964662 285.95726 
L 386.553274 282.597188 
L 388.141886 285.95726 
L 389.730498 285.95726 
L 391.31911 289.317332 
L 396.084947 289.317332 
L 397.673559 290.437356 
L 405.616619 290.437356 
L 407.205231 285.95726 
L 408.793843 284.837236 
L 416.736904 284.837236 
L 418.325516 289.317332 
L 419.914128 292.677404 
L 421.50274 292.677404 
L 424.679964 288.197308 
L 427.857189 288.197308 
L 429.445801 287.077284 
L 431.034413 275.877044 
L 432.623025 274.75702 
L 435.800249 279.237116 
L 440.566085 279.237116 
L 442.154698 285.95726 
L 443.74331 284.837236 
L 445.331922 281.477164 
L 446.920534 282.597188 
L 450.097758 282.597188 
L 451.68637 280.35714 
L 453.274982 279.237116 
L 454.863594 281.477164 
L 456.452206 284.837236 
L 458.040819 282.597188 
L 461.218043 282.597188 
L 462.806655 284.837236 
L 464.395267 284.837236 
L 465.983879 281.477164 
L 467.572491 283.717212 
L 469.161103 284.837236 
L 470.749715 284.837236 
L 472.338327 283.717212 
L 473.92694 281.477164 
L 473.92694 281.477164 
" style="fill:none;stroke:#55a868;stroke-linecap:square;stroke-width:2;"/>
   </g>
   <g id="line2d_65">
    <path clip-path="url(#p49286ebffd)" d="M 5.28637 297.1575 
L 97.425872 297.1575 
L 99.014484 294.19271 
L 100.603096 288.26313 
L 103.78032 288.26313 
L 105.368932 285.29834 
L 106.957544 285.29834 
L 108.546157 279.368759 
L 110.134769 271.956784 
L 111.723381 273.439179 
L 113.311993 267.509599 
L 116.489217 264.544809 
L 118.077829 255.650439 
L 119.666441 258.615229 
L 121.255053 257.132834 
L 122.843665 243.791278 
L 124.432278 243.791278 
L 126.02089 226.002538 
L 127.609502 214.143377 
L 129.198114 203.766612 
L 130.786726 190.425057 
L 132.375338 194.872242 
L 133.96395 212.660982 
L 135.552562 218.590562 
L 137.141174 191.907452 
L 138.729786 197.837032 
L 140.318399 205.249007 
L 141.907011 202.284217 
L 143.495623 202.284217 
L 145.084235 194.872242 
L 146.672847 172.636316 
L 148.261459 209.696192 
L 149.850071 215.625772 
L 151.438683 215.625772 
L 153.027295 228.967328 
L 154.615907 226.002538 
L 156.20452 224.520143 
L 157.793132 231.932118 
L 160.970356 228.967328 
L 162.558968 226.002538 
L 164.14758 122.234884 
L 165.736192 114.822909 
L 167.324804 114.822909 
L 168.913416 111.858119 
L 170.502028 110.375724 
L 172.090641 99.998959 
L 173.679253 102.963749 
L 175.267865 202.284217 
L 176.856477 206.731402 
L 178.445089 206.731402 
L 180.033701 208.213797 
L 181.622313 205.249007 
L 183.210925 212.660982 
L 186.388149 218.590562 
L 187.976762 220.072957 
L 189.565374 214.143377 
L 192.742598 228.967328 
L 194.33121 228.967328 
L 195.919822 226.002538 
L 197.508434 224.520143 
L 199.097046 221.555353 
L 200.685658 231.932118 
L 202.27427 234.896908 
L 203.862883 242.308883 
L 205.451495 240.826488 
L 207.040107 246.756068 
L 208.628719 249.720858 
L 210.217331 257.132834 
L 211.805943 258.615229 
L 213.394555 258.615229 
L 214.983167 254.168044 
L 216.571779 258.615229 
L 218.160391 255.650439 
L 219.749004 257.132834 
L 221.337616 260.097624 
L 222.926228 260.097624 
L 226.103452 257.132834 
L 227.692064 260.097624 
L 229.280676 264.544809 
L 230.869288 267.509599 
L 234.046512 270.474389 
L 235.635125 274.921574 
L 237.223737 277.886364 
L 238.812349 277.886364 
L 240.400961 280.851154 
L 245.166797 285.29834 
L 249.932633 294.19271 
L 253.109858 291.22792 
L 257.875694 291.22792 
L 259.464306 289.745525 
L 262.64153 289.745525 
L 265.818754 292.710315 
L 267.407367 292.710315 
L 268.995979 291.22792 
L 270.584591 292.710315 
L 272.173203 291.22792 
L 273.761815 292.710315 
L 275.350427 289.745525 
L 280.116263 285.29834 
L 281.704875 285.29834 
L 283.293488 282.33355 
L 288.059324 286.780735 
L 291.236548 283.815945 
L 292.82516 283.815945 
L 294.413772 288.26313 
L 297.590996 288.26313 
L 299.179609 286.780735 
L 300.768221 289.745525 
L 302.356833 294.19271 
L 303.945445 294.19271 
L 307.122669 291.22792 
L 308.711281 292.710315 
L 310.299893 334.217376 
L 311.888505 332.734981 
L 313.477117 332.734981 
L 315.06573 331.252586 
L 316.654342 332.734981 
L 318.242954 332.734981 
L 319.831566 329.770191 
L 321.420178 289.745525 
L 323.00879 291.22792 
L 326.186014 291.22792 
L 327.774626 289.745525 
L 330.951851 292.710315 
L 337.306299 292.710315 
L 338.894911 294.19271 
L 340.483523 294.19271 
L 342.072135 295.675105 
L 350.015196 295.675105 
L 351.603808 294.19271 
L 357.958256 294.19271 
L 359.546868 292.710315 
L 362.724093 292.710315 
L 364.312705 291.22792 
L 365.901317 286.780735 
L 367.489929 285.29834 
L 369.078541 285.29834 
L 370.667153 288.26313 
L 372.255765 286.780735 
L 373.844377 283.815945 
L 375.432989 285.29834 
L 377.021601 289.745525 
L 380.198826 286.780735 
L 381.787438 286.780735 
L 383.37605 288.26313 
L 384.964662 291.22792 
L 388.141886 291.22792 
L 389.730498 294.19271 
L 392.907722 294.19271 
L 394.496335 292.710315 
L 396.084947 294.19271 
L 397.673559 294.19271 
L 399.262171 291.22792 
L 400.850783 291.22792 
L 402.439395 289.745525 
L 404.028007 285.29834 
L 405.616619 285.29834 
L 408.793843 282.33355 
L 410.382456 283.815945 
L 411.971068 283.815945 
L 413.55968 285.29834 
L 415.148292 288.26313 
L 416.736904 288.26313 
L 419.914128 291.22792 
L 423.091352 291.22792 
L 424.679964 292.710315 
L 426.268577 292.710315 
L 427.857189 294.19271 
L 429.445801 291.22792 
L 431.034413 291.22792 
L 432.623025 288.26313 
L 434.211637 286.780735 
L 435.800249 286.780735 
L 437.388861 288.26313 
L 438.977473 285.29834 
L 440.566085 288.26313 
L 442.154698 283.815945 
L 443.74331 288.26313 
L 445.331922 288.26313 
L 446.920534 286.780735 
L 448.509146 286.780735 
L 450.097758 288.26313 
L 451.68637 286.780735 
L 453.274982 289.745525 
L 454.863594 288.26313 
L 456.452206 289.745525 
L 458.040819 286.780735 
L 459.629431 280.851154 
L 461.218043 277.886364 
L 462.806655 270.474389 
L 464.395267 268.991994 
L 467.572491 257.132834 
L 470.749715 254.168044 
L 472.338327 245.273673 
L 473.92694 237.861698 
L 473.92694 237.861698 
" style="fill:none;stroke:#c44e52;stroke-linecap:square;stroke-width:2;"/>
   </g>
   <g id="line2d_66">
    <path clip-path="url(#p49286ebffd)" d="M 5.28637 297.1575 
L 56.121957 297.1575 
L 57.710569 296.545668 
L 59.299181 295.322005 
L 60.887794 293.486509 
L 62.476406 291.039182 
L 64.065018 290.42735 
L 65.65363 290.42735 
L 67.242242 289.815519 
L 68.830854 287.980023 
L 72.008078 287.980023 
L 73.59669 289.203687 
L 75.185302 287.368191 
L 76.773915 286.75636 
L 78.362527 284.309032 
L 79.951139 284.920864 
L 81.539751 284.920864 
L 83.128363 283.085369 
L 84.716975 282.473537 
L 86.305587 278.802546 
L 87.894199 276.967051 
L 89.482811 275.743387 
L 91.071423 272.684229 
L 92.660036 273.29606 
L 94.248648 270.236901 
L 95.83726 267.789574 
L 97.425872 270.236901 
L 99.014484 266.565911 
L 100.603096 261.059425 
L 102.191708 259.223929 
L 103.78032 254.941107 
L 105.368932 258.000266 
L 106.957544 262.283088 
L 108.546157 257.388434 
L 110.134769 256.776602 
L 111.723381 259.835761 
L 113.311993 256.776602 
L 114.900605 258.000266 
L 118.077829 248.210957 
L 119.666441 248.210957 
L 121.255053 246.375462 
L 122.843665 241.480807 
L 124.432278 246.987294 
L 126.02089 245.76363 
L 127.609502 251.881948 
L 129.198114 252.49378 
L 130.786726 255.552939 
L 132.375338 259.223929 
L 133.96395 264.118584 
L 135.552562 262.89492 
L 137.141174 264.118584 
L 138.729786 258.000266 
L 140.318399 254.941107 
L 141.907011 256.16477 
L 143.495623 258.000266 
L 145.084235 260.447593 
L 146.672847 261.059425 
L 148.261459 259.223929 
L 149.850071 262.89492 
L 151.438683 263.506752 
L 153.027295 262.283088 
L 154.615907 259.223929 
L 156.20452 261.671256 
L 157.793132 263.506752 
L 160.970356 268.401406 
L 162.558968 271.460565 
L 165.736192 276.355219 
L 167.324804 275.131556 
L 168.913416 275.131556 
L 170.502028 272.072397 
L 172.090641 271.460565 
L 173.679253 271.460565 
L 175.267865 272.684229 
L 176.856477 276.355219 
L 178.445089 275.131556 
L 180.033701 275.131556 
L 181.622313 280.638042 
L 183.210925 283.085369 
L 184.799537 283.085369 
L 186.388149 284.920864 
L 187.976762 281.861705 
L 189.565374 284.309032 
L 191.153986 287.368191 
L 192.742598 284.920864 
L 194.33121 283.697201 
L 195.919822 286.144528 
L 197.508434 281.861705 
L 199.097046 283.085369 
L 200.685658 283.697201 
L 202.27427 281.861705 
L 203.862883 284.920864 
L 207.040107 286.144528 
L 208.628719 288.591855 
L 210.217331 289.815519 
L 211.805943 289.815519 
L 213.394555 291.651014 
L 214.983167 290.42735 
L 216.571779 291.039182 
L 218.160391 291.039182 
L 219.749004 292.874677 
L 221.337616 291.651014 
L 222.926228 291.039182 
L 224.51484 287.980023 
L 226.103452 289.203687 
L 227.692064 289.203687 
L 229.280676 287.980023 
L 230.869288 290.42735 
L 232.4579 288.591855 
L 234.046512 288.591855 
L 235.635125 291.039182 
L 237.223737 291.651014 
L 238.812349 291.039182 
L 240.400961 291.651014 
L 241.989573 289.203687 
L 243.578185 291.651014 
L 245.166797 292.874677 
L 246.755409 291.651014 
L 248.344021 291.039182 
L 251.521246 293.486509 
L 253.109858 292.262846 
L 254.69847 291.651014 
L 256.287082 290.42735 
L 257.875694 291.651014 
L 259.464306 291.039182 
L 261.052918 289.815519 
L 262.64153 287.368191 
L 264.230142 287.368191 
L 265.818754 286.75636 
L 267.407367 287.980023 
L 268.995979 288.591855 
L 270.584591 286.75636 
L 272.173203 287.980023 
L 273.761815 286.75636 
L 275.350427 284.309032 
L 276.939039 286.144528 
L 278.527651 286.75636 
L 280.116263 283.085369 
L 281.704875 286.75636 
L 283.293488 286.144528 
L 284.8821 288.591855 
L 286.470712 292.262846 
L 288.059324 292.874677 
L 289.647936 291.039182 
L 291.236548 294.098341 
L 292.82516 292.874677 
L 294.413772 292.874677 
L 296.002384 292.262846 
L 297.590996 292.262846 
L 299.179609 291.651014 
L 300.768221 293.486509 
L 302.356833 290.42735 
L 303.945445 289.203687 
L 305.534057 289.203687 
L 307.122669 290.42735 
L 308.711281 290.42735 
L 310.299893 288.591855 
L 311.888505 284.309032 
L 313.477117 284.920864 
L 315.06573 286.75636 
L 316.654342 286.144528 
L 318.242954 284.920864 
L 319.831566 284.309032 
L 321.420178 283.085369 
L 323.00879 287.368191 
L 324.597402 288.591855 
L 326.186014 284.920864 
L 327.774626 286.144528 
L 329.363238 285.532696 
L 330.951851 284.309032 
L 332.540463 284.309032 
L 334.129075 282.473537 
L 335.717687 283.085369 
L 337.306299 285.532696 
L 338.894911 283.697201 
L 340.483523 286.75636 
L 342.072135 286.144528 
L 343.660747 287.980023 
L 346.837972 290.42735 
L 348.426584 291.039182 
L 350.015196 292.874677 
L 351.603808 289.203687 
L 353.19242 289.815519 
L 354.781032 291.039182 
L 356.369644 289.815519 
L 357.958256 289.815519 
L 359.546868 289.203687 
L 361.13548 289.203687 
L 362.724093 292.262846 
L 364.312705 289.815519 
L 365.901317 289.815519 
L 367.489929 291.651014 
L 369.078541 291.651014 
L 370.667153 292.262846 
L 372.255765 290.42735 
L 373.844377 289.815519 
L 375.432989 293.486509 
L 377.021601 293.486509 
L 378.610214 292.874677 
L 381.787438 292.874677 
L 383.37605 293.486509 
L 384.964662 291.651014 
L 386.553274 291.039182 
L 388.141886 291.651014 
L 389.730498 286.75636 
L 392.907722 286.75636 
L 394.496335 287.980023 
L 396.084947 294.710173 
L 399.262171 297.1575 
L 400.850783 297.769332 
L 404.028007 297.769332 
L 405.616619 295.322005 
L 407.205231 288.591855 
L 408.793843 285.532696 
L 410.382456 283.085369 
L 411.971068 286.75636 
L 415.148292 286.75636 
L 416.736904 289.203687 
L 418.325516 289.203687 
L 419.914128 291.039182 
L 423.091352 292.262846 
L 424.679964 291.651014 
L 426.268577 291.651014 
L 427.857189 291.039182 
L 429.445801 289.815519 
L 431.034413 291.039182 
L 432.623025 292.874677 
L 435.800249 294.098341 
L 437.388861 294.098341 
L 438.977473 287.980023 
L 440.566085 291.651014 
L 442.154698 288.591855 
L 443.74331 287.368191 
L 445.331922 286.75636 
L 448.509146 286.75636 
L 450.097758 292.262846 
L 451.68637 289.815519 
L 453.274982 292.262846 
L 454.863594 292.262846 
L 456.452206 292.874677 
L 459.629431 292.874677 
L 461.218043 291.651014 
L 464.395267 292.874677 
L 465.983879 287.368191 
L 467.572491 288.591855 
L 470.749715 288.591855 
L 472.338327 289.815519 
L 473.92694 287.368191 
L 473.92694 287.368191 
" style="fill:none;stroke:#8172b2;stroke-linecap:square;stroke-width:2;"/>
   </g>
   <g id="line2d_67">
    <path clip-path="url(#p49286ebffd)" d="M 5.28637 297.1575 
L 95.83726 297.1575 
L 97.425872 296.296556 
L 99.014484 296.296556 
L 100.603096 295.435612 
L 102.191708 292.85278 
L 103.78032 292.85278 
L 105.368932 291.130892 
L 106.957544 285.104285 
L 108.546157 285.965229 
L 110.134769 285.965229 
L 111.723381 286.826173 
L 113.311993 280.799565 
L 114.900605 277.35579 
L 116.489217 279.077677 
L 118.077829 259.275967 
L 119.666441 235.169537 
L 121.255053 235.169537 
L 122.843665 214.506882 
L 124.432278 205.897443 
L 126.02089 211.063107 
L 127.609502 211.924051 
L 129.198114 169.737798 
L 130.786726 180.069125 
L 132.375338 143.90948 
L 133.96395 135.30004 
L 137.141174 93.113788 
L 138.729786 87.948124 
L 140.318399 135.30004 
L 141.907011 127.551545 
L 143.495623 143.048536 
L 146.672847 190.400452 
L 148.261459 205.036499 
L 149.850071 199.009892 
L 151.438683 192.12234 
L 153.027295 213.645938 
L 154.615907 155.962695 
L 156.20452 134.439096 
L 157.793132 91.3919 
L 159.381744 77.616797 
L 160.970356 88.809068 
L 162.558968 101.723227 
L 164.14758 50.066591 
L 165.736192 117.220218 
L 167.324804 93.113788 
L 168.913416 137.021928 
L 170.502028 153.379863 
L 172.090641 153.379863 
L 173.679253 155.101751 
L 175.267865 139.60476 
L 176.856477 131.856265 
L 178.445089 171.459686 
L 180.033701 176.625349 
L 181.622313 179.208181 
L 183.210925 136.160984 
L 184.799537 124.107769 
L 186.388149 154.240807 
L 187.976762 150.797031 
L 189.565374 124.968713 
L 191.153986 123.246825 
L 192.742598 123.246825 
L 194.33121 163.71119 
L 195.919822 181.791013 
L 197.508434 202.453667 
L 199.097046 207.619331 
L 200.685658 229.142929 
L 202.27427 232.586705 
L 203.862883 225.699153 
L 205.451495 223.977266 
L 207.040107 208.480275 
L 208.628719 213.645938 
L 210.217331 200.731779 
L 211.805943 201.592723 
L 213.394555 205.897443 
L 214.983167 207.619331 
L 216.571779 210.202163 
L 218.160391 219.672546 
L 219.749004 215.367826 
L 221.337616 230.864817 
L 222.926228 231.725761 
L 224.51484 221.394434 
L 226.103452 223.977266 
L 227.692064 221.394434 
L 229.280676 226.560097 
L 230.869288 233.447649 
L 232.4579 237.752369 
L 234.046512 242.918032 
L 235.635125 254.110303 
L 237.223737 255.832191 
L 238.812349 259.275967 
L 241.989573 255.832191 
L 243.578185 260.136911 
L 245.166797 265.302574 
L 246.755409 263.580687 
L 248.344021 263.580687 
L 249.932633 260.997855 
L 251.521246 260.997855 
L 253.109858 268.74635 
L 254.69847 269.607294 
L 256.287082 269.607294 
L 257.875694 273.05107 
L 259.464306 273.912014 
L 261.052918 276.494846 
L 262.64153 284.243341 
L 264.230142 280.799565 
L 265.818754 281.660509 
L 267.407367 283.382397 
L 270.584591 281.660509 
L 272.173203 279.077677 
L 273.761815 275.633902 
L 275.350427 275.633902 
L 276.939039 270.468238 
L 281.704875 273.05107 
L 283.293488 275.633902 
L 284.8821 279.938621 
L 286.470712 279.938621 
L 288.059324 287.687117 
L 292.82516 287.687117 
L 294.413772 285.965229 
L 296.002384 286.826173 
L 297.590996 291.130892 
L 299.179609 283.382397 
L 300.768221 285.104285 
L 305.534057 285.104285 
L 307.122669 282.521453 
L 308.711281 284.243341 
L 310.299893 291.130892 
L 311.888505 286.826173 
L 313.477117 285.965229 
L 315.06573 285.965229 
L 316.654342 286.826173 
L 318.242954 284.243341 
L 321.420178 273.912014 
L 323.00879 274.772958 
L 324.597402 272.190126 
L 326.186014 271.329182 
L 327.774626 272.190126 
L 329.363238 268.74635 
L 330.951851 267.024462 
L 332.540463 272.190126 
L 334.129075 271.329182 
L 335.717687 274.772958 
L 337.306299 275.633902 
L 338.894911 275.633902 
L 340.483523 283.382397 
L 342.072135 287.687117 
L 343.660747 287.687117 
L 345.249359 290.269949 
L 346.837972 289.409005 
L 351.603808 289.409005 
L 353.19242 291.130892 
L 356.369644 292.85278 
L 357.958256 291.991836 
L 359.546868 291.991836 
L 361.13548 289.409005 
L 362.724093 287.687117 
L 364.312705 288.548061 
L 365.901317 288.548061 
L 367.489929 285.965229 
L 369.078541 287.687117 
L 370.667153 287.687117 
L 372.255765 285.104285 
L 373.844377 285.965229 
L 375.432989 281.660509 
L 377.021601 282.521453 
L 380.198826 279.077677 
L 381.787438 275.633902 
L 383.37605 280.799565 
L 384.964662 279.938621 
L 388.141886 279.938621 
L 389.730498 284.243341 
L 391.31911 283.382397 
L 392.907722 286.826173 
L 396.084947 286.826173 
L 397.673559 289.409005 
L 399.262171 285.104285 
L 400.850783 282.521453 
L 402.439395 284.243341 
L 404.028007 282.521453 
L 405.616619 281.660509 
L 407.205231 282.521453 
L 408.793843 281.660509 
L 410.382456 282.521453 
L 411.971068 284.243341 
L 413.55968 281.660509 
L 415.148292 283.382397 
L 416.736904 283.382397 
L 418.325516 284.243341 
L 419.914128 285.965229 
L 421.50274 286.826173 
L 423.091352 284.243341 
L 424.679964 286.826173 
L 426.268577 285.104285 
L 427.857189 286.826173 
L 429.445801 287.687117 
L 431.034413 287.687117 
L 432.623025 288.548061 
L 434.211637 290.269949 
L 435.800249 290.269949 
L 437.388861 291.130892 
L 438.977473 289.409005 
L 440.566085 285.965229 
L 442.154698 285.104285 
L 443.74331 280.799565 
L 445.331922 282.521453 
L 448.509146 280.799565 
L 451.68637 282.521453 
L 453.274982 281.660509 
L 454.863594 286.826173 
L 456.452206 284.243341 
L 458.040819 284.243341 
L 459.629431 285.104285 
L 461.218043 284.243341 
L 462.806655 284.243341 
L 464.395267 285.104285 
L 465.983879 281.660509 
L 467.572491 277.35579 
L 469.161103 273.912014 
L 470.749715 274.772958 
L 472.338327 274.772958 
L 473.92694 273.912014 
L 473.92694 273.912014 
" style="fill:none;stroke:#ccb974;stroke-linecap:square;stroke-width:2;"/>
   </g>
   <g id="patch_3">
    <path d="M 35.47 297.1575 
L 35.47 25.3575 
" style="fill:none;stroke:#000000;stroke-linecap:square;stroke-linejoin:miter;stroke-width:0.8;"/>
   </g>
   <g id="patch_4">
    <path d="M 35.47 297.1575 
L 481.87 297.1575 
" style="fill:none;stroke:#000000;stroke-linecap:square;stroke-linejoin:miter;stroke-width:0.8;"/>
   </g>
   <g id="text_16">
    <!-- Los Angeles, CA -->
    <defs>
     <path d="M 9.8125 72.90625 
L 19.671875 72.90625 
L 19.671875 8.296875 
L 55.171875 8.296875 
L 55.171875 0 
L 9.8125 0 
z
" id="DejaVuSans-76"/>
     <path d="M 44.28125 53.078125 
L 44.28125 44.578125 
Q 40.484375 46.53125 36.375 47.5 
Q 32.28125 48.484375 27.875 48.484375 
Q 21.1875 48.484375 17.84375 46.4375 
Q 14.5 44.390625 14.5 40.28125 
Q 14.5 37.15625 16.890625 35.375 
Q 19.28125 33.59375 26.515625 31.984375 
L 29.59375 31.296875 
Q 39.15625 29.25 43.1875 25.515625 
Q 47.21875 21.78125 47.21875 15.09375 
Q 47.21875 7.46875 41.1875 3.015625 
Q 35.15625 -1.421875 24.609375 -1.421875 
Q 20.21875 -1.421875 15.453125 -0.5625 
Q 10.6875 0.296875 5.421875 2 
L 5.421875 11.28125 
Q 10.40625 8.6875 15.234375 7.390625 
Q 20.0625 6.109375 24.8125 6.109375 
Q 31.15625 6.109375 34.5625 8.28125 
Q 37.984375 10.453125 37.984375 14.40625 
Q 37.984375 18.0625 35.515625 20.015625 
Q 33.0625 21.96875 24.703125 23.78125 
L 21.578125 24.515625 
Q 13.234375 26.265625 9.515625 29.90625 
Q 5.8125 33.546875 5.8125 39.890625 
Q 5.8125 47.609375 11.28125 51.796875 
Q 16.75 56 26.8125 56 
Q 31.78125 56 36.171875 55.265625 
Q 40.578125 54.546875 44.28125 53.078125 
z
" id="DejaVuSans-115"/>
     <path id="DejaVuSans-32"/>
     <path d="M 11.71875 12.40625 
L 22.015625 12.40625 
L 22.015625 4 
L 14.015625 -11.625 
L 7.71875 -11.625 
L 11.71875 4 
z
" id="DejaVuSans-44"/>
     <path d="M 64.40625 67.28125 
L 64.40625 56.890625 
Q 59.421875 61.53125 53.78125 63.8125 
Q 48.140625 66.109375 41.796875 66.109375 
Q 29.296875 66.109375 22.65625 58.46875 
Q 16.015625 50.828125 16.015625 36.375 
Q 16.015625 21.96875 22.65625 14.328125 
Q 29.296875 6.6875 41.796875 6.6875 
Q 48.140625 6.6875 53.78125 8.984375 
Q 59.421875 11.28125 64.40625 15.921875 
L 64.40625 5.609375 
Q 59.234375 2.09375 53.4375 0.328125 
Q 47.65625 -1.421875 41.21875 -1.421875 
Q 24.65625 -1.421875 15.125 8.703125 
Q 5.609375 18.84375 5.609375 36.375 
Q 5.609375 53.953125 15.125 64.078125 
Q 24.65625 74.21875 41.21875 74.21875 
Q 47.75 74.21875 53.53125 72.484375 
Q 59.328125 70.75 64.40625 67.28125 
z
" id="DejaVuSans-67"/>
    </defs>
    <g style="fill:#4c72b0;" transform="translate(478.92694 291.007138)scale(0.14 -0.14)">
     <use xlink:href="#DejaVuSans-76"/>
     <use x="53.962891" xlink:href="#DejaVuSans-111"/>
     <use x="115.144531" xlink:href="#DejaVuSans-115"/>
     <use x="167.244141" xlink:href="#DejaVuSans-32"/>
     <use x="199.03125" xlink:href="#DejaVuSans-65"/>
     <use x="267.439453" xlink:href="#DejaVuSans-110"/>
     <use x="330.818359" xlink:href="#DejaVuSans-103"/>
     <use x="394.294922" xlink:href="#DejaVuSans-101"/>
     <use x="455.818359" xlink:href="#DejaVuSans-108"/>
     <use x="483.601562" xlink:href="#DejaVuSans-101"/>
     <use x="545.125" xlink:href="#DejaVuSans-115"/>
     <use x="597.224609" xlink:href="#DejaVuSans-44"/>
     <use x="629.011719" xlink:href="#DejaVuSans-32"/>
     <use x="660.798828" xlink:href="#DejaVuSans-67"/>
     <use x="730.623047" xlink:href="#DejaVuSans-65"/>
    </g>
   </g>
   <g id="text_17">
    <!-- Allegheny, PA -->
    <defs>
     <path d="M 54.890625 33.015625 
L 54.890625 0 
L 45.90625 0 
L 45.90625 32.71875 
Q 45.90625 40.484375 42.875 44.328125 
Q 39.84375 48.1875 33.796875 48.1875 
Q 26.515625 48.1875 22.3125 43.546875 
Q 18.109375 38.921875 18.109375 30.90625 
L 18.109375 0 
L 9.078125 0 
L 9.078125 75.984375 
L 18.109375 75.984375 
L 18.109375 46.1875 
Q 21.34375 51.125 25.703125 53.5625 
Q 30.078125 56 35.796875 56 
Q 45.21875 56 50.046875 50.171875 
Q 54.890625 44.34375 54.890625 33.015625 
z
" id="DejaVuSans-104"/>
     <path d="M 19.671875 64.796875 
L 19.671875 37.40625 
L 32.078125 37.40625 
Q 38.96875 37.40625 42.71875 40.96875 
Q 46.484375 44.53125 46.484375 51.125 
Q 46.484375 57.671875 42.71875 61.234375 
Q 38.96875 64.796875 32.078125 64.796875 
z
M 9.8125 72.90625 
L 32.078125 72.90625 
Q 44.34375 72.90625 50.609375 67.359375 
Q 56.890625 61.8125 56.890625 51.125 
Q 56.890625 40.328125 50.609375 34.8125 
Q 44.34375 29.296875 32.078125 29.296875 
L 19.671875 29.296875 
L 19.671875 0 
L 9.8125 0 
z
" id="DejaVuSans-80"/>
    </defs>
    <g style="fill:#55a868;" transform="translate(478.92694 285.477164)scale(0.14 -0.14)">
     <use xlink:href="#DejaVuSans-65"/>
     <use x="68.408203" xlink:href="#DejaVuSans-108"/>
     <use x="96.191406" xlink:href="#DejaVuSans-108"/>
     <use x="123.974609" xlink:href="#DejaVuSans-101"/>
     <use x="185.498047" xlink:href="#DejaVuSans-103"/>
     <use x="248.974609" xlink:href="#DejaVuSans-104"/>
     <use x="312.353516" xlink:href="#DejaVuSans-101"/>
     <use x="373.876953" xlink:href="#DejaVuSans-110"/>
     <use x="437.255859" xlink:href="#DejaVuSans-121"/>
     <use x="496.435547" xlink:href="#DejaVuSans-44"/>
     <use x="528.222656" xlink:href="#DejaVuSans-32"/>
     <use x="560.009766" xlink:href="#DejaVuSans-80"/>
     <use x="613.9375" xlink:href="#DejaVuSans-65"/>
    </g>
   </g>
   <g id="text_18">
    <!-- Erie, NY -->
    <defs>
     <path d="M 9.8125 72.90625 
L 55.90625 72.90625 
L 55.90625 64.59375 
L 19.671875 64.59375 
L 19.671875 43.015625 
L 54.390625 43.015625 
L 54.390625 34.71875 
L 19.671875 34.71875 
L 19.671875 8.296875 
L 56.78125 8.296875 
L 56.78125 0 
L 9.8125 0 
z
" id="DejaVuSans-69"/>
     <path d="M 9.421875 54.6875 
L 18.40625 54.6875 
L 18.40625 0 
L 9.421875 0 
z
M 9.421875 75.984375 
L 18.40625 75.984375 
L 18.40625 64.59375 
L 9.421875 64.59375 
z
" id="DejaVuSans-105"/>
     <path d="M -0.203125 72.90625 
L 10.40625 72.90625 
L 30.609375 42.921875 
L 50.6875 72.90625 
L 61.28125 72.90625 
L 35.5 34.71875 
L 35.5 0 
L 25.59375 0 
L 25.59375 34.71875 
z
" id="DejaVuSans-89"/>
    </defs>
    <g style="fill:#c44e52;" transform="translate(478.92694 241.861698)scale(0.14 -0.14)">
     <use xlink:href="#DejaVuSans-69"/>
     <use x="63.183594" xlink:href="#DejaVuSans-114"/>
     <use x="104.296875" xlink:href="#DejaVuSans-105"/>
     <use x="132.080078" xlink:href="#DejaVuSans-101"/>
     <use x="193.603516" xlink:href="#DejaVuSans-44"/>
     <use x="225.390625" xlink:href="#DejaVuSans-32"/>
     <use x="257.177734" xlink:href="#DejaVuSans-78"/>
     <use x="331.982422" xlink:href="#DejaVuSans-89"/>
    </g>
   </g>
   <g id="text_19">
    <!-- King, WA -->
    <defs>
     <path d="M 9.8125 72.90625 
L 19.671875 72.90625 
L 19.671875 42.09375 
L 52.390625 72.90625 
L 65.09375 72.90625 
L 28.90625 38.921875 
L 67.671875 0 
L 54.6875 0 
L 19.671875 35.109375 
L 19.671875 0 
L 9.8125 0 
z
" id="DejaVuSans-75"/>
     <path d="M 3.328125 72.90625 
L 13.28125 72.90625 
L 28.609375 11.28125 
L 43.890625 72.90625 
L 54.984375 72.90625 
L 70.3125 11.28125 
L 85.59375 72.90625 
L 95.609375 72.90625 
L 77.296875 0 
L 64.890625 0 
L 49.515625 63.28125 
L 33.984375 0 
L 21.578125 0 
z
" id="DejaVuSans-87"/>
    </defs>
    <g style="fill:#8172b2;" transform="translate(478.92694 291.368191)scale(0.14 -0.14)">
     <use xlink:href="#DejaVuSans-75"/>
     <use x="65.576172" xlink:href="#DejaVuSans-105"/>
     <use x="93.359375" xlink:href="#DejaVuSans-110"/>
     <use x="156.738281" xlink:href="#DejaVuSans-103"/>
     <use x="220.214844" xlink:href="#DejaVuSans-44"/>
     <use x="252.001953" xlink:href="#DejaVuSans-32"/>
     <use x="283.789062" xlink:href="#DejaVuSans-87"/>
     <use x="377.166016" xlink:href="#DejaVuSans-65"/>
    </g>
   </g>
   <g id="text_20">
    <!-- Philadelphia, PA -->
    <defs>
     <path d="M 45.40625 46.390625 
L 45.40625 75.984375 
L 54.390625 75.984375 
L 54.390625 0 
L 45.40625 0 
L 45.40625 8.203125 
Q 42.578125 3.328125 38.25 0.953125 
Q 33.9375 -1.421875 27.875 -1.421875 
Q 17.96875 -1.421875 11.734375 6.484375 
Q 5.515625 14.40625 5.515625 27.296875 
Q 5.515625 40.1875 11.734375 48.09375 
Q 17.96875 56 27.875 56 
Q 33.9375 56 38.25 53.625 
Q 42.578125 51.265625 45.40625 46.390625 
z
M 14.796875 27.296875 
Q 14.796875 17.390625 18.875 11.75 
Q 22.953125 6.109375 30.078125 6.109375 
Q 37.203125 6.109375 41.296875 11.75 
Q 45.40625 17.390625 45.40625 27.296875 
Q 45.40625 37.203125 41.296875 42.84375 
Q 37.203125 48.484375 30.078125 48.484375 
Q 22.953125 48.484375 18.875 42.84375 
Q 14.796875 37.203125 14.796875 27.296875 
z
" id="DejaVuSans-100"/>
    </defs>
    <g style="fill:#ccb974;" transform="translate(478.92694 277.912014)scale(0.14 -0.14)">
     <use xlink:href="#DejaVuSans-80"/>
     <use x="60.302734" xlink:href="#DejaVuSans-104"/>
     <use x="123.681641" xlink:href="#DejaVuSans-105"/>
     <use x="151.464844" xlink:href="#DejaVuSans-108"/>
     <use x="179.248047" xlink:href="#DejaVuSans-97"/>
     <use x="240.527344" xlink:href="#DejaVuSans-100"/>
     <use x="304.003906" xlink:href="#DejaVuSans-101"/>
     <use x="365.527344" xlink:href="#DejaVuSans-108"/>
     <use x="393.310547" xlink:href="#DejaVuSans-112"/>
     <use x="456.787109" xlink:href="#DejaVuSans-104"/>
     <use x="520.166016" xlink:href="#DejaVuSans-105"/>
     <use x="547.949219" xlink:href="#DejaVuSans-97"/>
     <use x="609.228516" xlink:href="#DejaVuSans-44"/>
     <use x="641.015625" xlink:href="#DejaVuSans-32"/>
     <use x="672.802734" xlink:href="#DejaVuSans-80"/>
     <use x="726.730469" xlink:href="#DejaVuSans-65"/>
    </g>
   </g>
   <g id="text_21">
    <!-- Deaths per million people -->
    <defs>
     <path d="M 19.671875 64.796875 
L 19.671875 8.109375 
L 31.59375 8.109375 
Q 46.6875 8.109375 53.6875 14.9375 
Q 60.6875 21.78125 60.6875 36.53125 
Q 60.6875 51.171875 53.6875 57.984375 
Q 46.6875 64.796875 31.59375 64.796875 
z
M 9.8125 72.90625 
L 30.078125 72.90625 
Q 51.265625 72.90625 61.171875 64.09375 
Q 71.09375 55.28125 71.09375 36.53125 
Q 71.09375 17.671875 61.125 8.828125 
Q 51.171875 0 30.078125 0 
L 9.8125 0 
z
" id="DejaVuSans-68"/>
     <path d="M 52 44.1875 
Q 55.375 50.25 60.0625 53.125 
Q 64.75 56 71.09375 56 
Q 79.640625 56 84.28125 50.015625 
Q 88.921875 44.046875 88.921875 33.015625 
L 88.921875 0 
L 79.890625 0 
L 79.890625 32.71875 
Q 79.890625 40.578125 77.09375 44.375 
Q 74.3125 48.1875 68.609375 48.1875 
Q 61.625 48.1875 57.5625 43.546875 
Q 53.515625 38.921875 53.515625 30.90625 
L 53.515625 0 
L 44.484375 0 
L 44.484375 32.71875 
Q 44.484375 40.625 41.703125 44.40625 
Q 38.921875 48.1875 33.109375 48.1875 
Q 26.21875 48.1875 22.15625 43.53125 
Q 18.109375 38.875 18.109375 30.90625 
L 18.109375 0 
L 9.078125 0 
L 9.078125 54.6875 
L 18.109375 54.6875 
L 18.109375 46.1875 
Q 21.1875 51.21875 25.484375 53.609375 
Q 29.78125 56 35.6875 56 
Q 41.65625 56 45.828125 52.96875 
Q 50 49.953125 52 44.1875 
z
" id="DejaVuSans-109"/>
    </defs>
    <g style="fill:#262626;" transform="translate(155.62625 19.3575)scale(0.16 -0.16)">
     <use xlink:href="#DejaVuSans-68"/>
     <use x="77.001953" xlink:href="#DejaVuSans-101"/>
     <use x="138.525391" xlink:href="#DejaVuSans-97"/>
     <use x="199.804688" xlink:href="#DejaVuSans-116"/>
     <use x="239.013672" xlink:href="#DejaVuSans-104"/>
     <use x="302.392578" xlink:href="#DejaVuSans-115"/>
     <use x="354.492188" xlink:href="#DejaVuSans-32"/>
     <use x="386.279297" xlink:href="#DejaVuSans-112"/>
     <use x="449.755859" xlink:href="#DejaVuSans-101"/>
     <use x="511.279297" xlink:href="#DejaVuSans-114"/>
     <use x="552.392578" xlink:href="#DejaVuSans-32"/>
     <use x="584.179688" xlink:href="#DejaVuSans-109"/>
     <use x="681.591797" xlink:href="#DejaVuSans-105"/>
     <use x="709.375" xlink:href="#DejaVuSans-108"/>
     <use x="737.158203" xlink:href="#DejaVuSans-108"/>
     <use x="764.941406" xlink:href="#DejaVuSans-105"/>
     <use x="792.724609" xlink:href="#DejaVuSans-111"/>
     <use x="853.90625" xlink:href="#DejaVuSans-110"/>
     <use x="917.285156" xlink:href="#DejaVuSans-32"/>
     <use x="949.072266" xlink:href="#DejaVuSans-112"/>
     <use x="1012.548828" xlink:href="#DejaVuSans-101"/>
     <use x="1074.072266" xlink:href="#DejaVuSans-111"/>
     <use x="1135.253906" xlink:href="#DejaVuSans-112"/>
     <use x="1198.730469" xlink:href="#DejaVuSans-108"/>
     <use x="1226.513672" xlink:href="#DejaVuSans-101"/>
    </g>
   </g>
   <g id="legend_1"/>
   <g id="PathCollection_1">
    <defs>
     <path d="M 0 2.236068 
C 0.593012 2.236068 1.161816 2.000462 1.581139 1.581139 
C 2.000462 1.161816 2.236068 0.593012 2.236068 0 
C 2.236068 -0.593012 2.000462 -1.161816 1.581139 -1.581139 
C 1.161816 -2.000462 0.593012 -2.236068 0 -2.236068 
C -0.593012 -2.236068 -1.161816 -2.000462 -1.581139 -1.581139 
C -2.000462 -1.161816 -2.236068 -0.593012 -2.236068 0 
C -2.236068 0.593012 -2.000462 1.161816 -1.581139 1.581139 
C -1.161816 2.000462 -0.593012 2.236068 0 2.236068 
z
" id="C0_0_f99e29bf93"/>
    </defs>
    <g clip-path="url(#p49286ebffd)">
     <use style="fill:#4c72b0;stroke:#4c72b0;" x="473.92694" xlink:href="#C0_0_f99e29bf93" y="287.007138"/>
    </g>
    <g clip-path="url(#p49286ebffd)">
     <use style="fill:#55a868;stroke:#55a868;" x="473.92694" xlink:href="#C0_0_f99e29bf93" y="281.477164"/>
    </g>
    <g clip-path="url(#p49286ebffd)">
     <use style="fill:#c44e52;stroke:#c44e52;" x="473.92694" xlink:href="#C0_0_f99e29bf93" y="237.861698"/>
    </g>
    <g clip-path="url(#p49286ebffd)">
     <use style="fill:#8172b2;stroke:#8172b2;" x="473.92694" xlink:href="#C0_0_f99e29bf93" y="287.368191"/>
    </g>
    <g clip-path="url(#p49286ebffd)">
     <use style="fill:#ccb974;stroke:#ccb974;" x="473.92694" xlink:href="#C0_0_f99e29bf93" y="273.912014"/>
    </g>
   </g>
  </g>
 </g>
 <defs>
  <clipPath id="p49286ebffd">
   <rect height="271.8" width="446.4" x="35.47" y="25.3575"/>
  </clipPath>
 </defs>
</svg>
