<?xml version="1.0" encoding="utf-8" standalone="no"?>
<!DOCTYPE svg PUBLIC "-//W3C//DTD SVG 1.1//EN"
  "http://www.w3.org/Graphics/SVG/1.1/DTD/svg11.dtd">
<!-- Created with matplotlib (https://matplotlib.org/) -->
<svg height="342.408625pt" version="1.1" viewBox="0 0 605.626315 342.408625" width="605.626315pt" xmlns="http://www.w3.org/2000/svg" xmlns:xlink="http://www.w3.org/1999/xlink">
 <defs>
  <style type="text/css">
*{stroke-linecap:butt;stroke-linejoin:round;}
  </style>
 </defs>
 <g id="figure_1">
  <g id="patch_1">
   <path d="M 0 342.408625 
L 605.626315 342.408625 
L 605.626315 0 
L 0 0 
z
" style="fill:#ffffff;"/>
  </g>
  <g id="axes_1">
   <g id="patch_2">
    <path d="M 43.105 297.1575 
L 489.505 297.1575 
L 489.505 25.3575 
L 43.105 25.3575 
z
" style="fill:#ffffff;"/>
   </g>
   <g id="matplotlib.axis_1">
    <g id="xtick_1">
     <g id="line2d_1">
      <defs>
       <path d="M 0 0 
L 0 6 
" id="m38adc0e85a" style="stroke:#262626;"/>
      </defs>
      <g>
       <use style="fill:#262626;stroke:#262626;" x="43.105" xlink:href="#m38adc0e85a" y="297.1575"/>
      </g>
     </g>
    </g>
    <g id="xtick_2">
     <g id="line2d_2">
      <g>
       <use style="fill:#262626;stroke:#262626;" x="66.934181" xlink:href="#m38adc0e85a" y="297.1575"/>
      </g>
     </g>
     <g id="text_1">
      <!-- Mar -->
      <defs>
       <path d="M 9.8125 72.90625 
L 24.515625 72.90625 
L 43.109375 23.296875 
L 61.8125 72.90625 
L 76.515625 72.90625 
L 76.515625 0 
L 66.890625 0 
L 66.890625 64.015625 
L 48.09375 14.015625 
L 38.1875 14.015625 
L 19.390625 64.015625 
L 19.390625 0 
L 9.8125 0 
z
" id="DejaVuSans-77"/>
       <path d="M 34.28125 27.484375 
Q 23.390625 27.484375 19.1875 25 
Q 14.984375 22.515625 14.984375 16.5 
Q 14.984375 11.71875 18.140625 8.90625 
Q 21.296875 6.109375 26.703125 6.109375 
Q 34.1875 6.109375 38.703125 11.40625 
Q 43.21875 16.703125 43.21875 25.484375 
L 43.21875 27.484375 
z
M 52.203125 31.203125 
L 52.203125 0 
L 43.21875 0 
L 43.21875 8.296875 
Q 40.140625 3.328125 35.546875 0.953125 
Q 30.953125 -1.421875 24.3125 -1.421875 
Q 15.921875 -1.421875 10.953125 3.296875 
Q 6 8.015625 6 15.921875 
Q 6 25.140625 12.171875 29.828125 
Q 18.359375 34.515625 30.609375 34.515625 
L 43.21875 34.515625 
L 43.21875 35.40625 
Q 43.21875 41.609375 39.140625 45 
Q 35.0625 48.390625 27.6875 48.390625 
Q 23 48.390625 18.546875 47.265625 
Q 14.109375 46.140625 10.015625 43.890625 
L 10.015625 52.203125 
Q 14.9375 54.109375 19.578125 55.046875 
Q 24.21875 56 28.609375 56 
Q 40.484375 56 46.34375 49.84375 
Q 52.203125 43.703125 52.203125 31.203125 
z
" id="DejaVuSans-97"/>
       <path d="M 41.109375 46.296875 
Q 39.59375 47.171875 37.8125 47.578125 
Q 36.03125 48 33.890625 48 
Q 26.265625 48 22.1875 43.046875 
Q 18.109375 38.09375 18.109375 28.8125 
L 18.109375 0 
L 9.078125 0 
L 9.078125 54.6875 
L 18.109375 54.6875 
L 18.109375 46.1875 
Q 20.953125 51.171875 25.484375 53.578125 
Q 30.03125 56 36.53125 56 
Q 37.453125 56 38.578125 55.875 
Q 39.703125 55.765625 41.0625 55.515625 
z
" id="DejaVuSans-114"/>
      </defs>
      <g style="fill:#262626;" transform="translate(55.613869 319.275625)scale(0.12 -0.12)">
       <use xlink:href="#DejaVuSans-77"/>
       <use x="86.279297" xlink:href="#DejaVuSans-97"/>
       <use x="147.558594" xlink:href="#DejaVuSans-114"/>
      </g>
      <!-- 2020 -->
      <defs>
       <path d="M 19.1875 8.296875 
L 53.609375 8.296875 
L 53.609375 0 
L 7.328125 0 
L 7.328125 8.296875 
Q 12.9375 14.109375 22.625 23.890625 
Q 32.328125 33.6875 34.8125 36.53125 
Q 39.546875 41.84375 41.421875 45.53125 
Q 43.3125 49.21875 43.3125 52.78125 
Q 43.3125 58.59375 39.234375 62.25 
Q 35.15625 65.921875 28.609375 65.921875 
Q 23.96875 65.921875 18.8125 64.3125 
Q 13.671875 62.703125 7.8125 59.421875 
L 7.8125 69.390625 
Q 13.765625 71.78125 18.9375 73 
Q 24.125 74.21875 28.421875 74.21875 
Q 39.75 74.21875 46.484375 68.546875 
Q 53.21875 62.890625 53.21875 53.421875 
Q 53.21875 48.921875 51.53125 44.890625 
Q 49.859375 40.875 45.40625 35.40625 
Q 44.1875 33.984375 37.640625 27.21875 
Q 31.109375 20.453125 19.1875 8.296875 
z
" id="DejaVuSans-50"/>
       <path d="M 31.78125 66.40625 
Q 24.171875 66.40625 20.328125 58.90625 
Q 16.5 51.421875 16.5 36.375 
Q 16.5 21.390625 20.328125 13.890625 
Q 24.171875 6.390625 31.78125 6.390625 
Q 39.453125 6.390625 43.28125 13.890625 
Q 47.125 21.390625 47.125 36.375 
Q 47.125 51.421875 43.28125 58.90625 
Q 39.453125 66.40625 31.78125 66.40625 
z
M 31.78125 74.21875 
Q 44.046875 74.21875 50.515625 64.515625 
Q 56.984375 54.828125 56.984375 36.375 
Q 56.984375 17.96875 50.515625 8.265625 
Q 44.046875 -1.421875 31.78125 -1.421875 
Q 19.53125 -1.421875 13.0625 8.265625 
Q 6.59375 17.96875 6.59375 36.375 
Q 6.59375 54.828125 13.0625 64.515625 
Q 19.53125 74.21875 31.78125 74.21875 
z
" id="DejaVuSans-48"/>
      </defs>
      <g style="fill:#262626;" transform="translate(51.664181 332.713)scale(0.12 -0.12)">
       <use xlink:href="#DejaVuSans-50"/>
       <use x="63.623047" xlink:href="#DejaVuSans-48"/>
       <use x="127.246094" xlink:href="#DejaVuSans-50"/>
       <use x="190.869141" xlink:href="#DejaVuSans-48"/>
      </g>
     </g>
    </g>
    <g id="xtick_3">
     <g id="line2d_3">
      <g>
       <use style="fill:#262626;stroke:#262626;" x="116.181157" xlink:href="#m38adc0e85a" y="297.1575"/>
      </g>
     </g>
     <g id="text_2">
      <!-- Apr -->
      <defs>
       <path d="M 34.1875 63.1875 
L 20.796875 26.90625 
L 47.609375 26.90625 
z
M 28.609375 72.90625 
L 39.796875 72.90625 
L 67.578125 0 
L 57.328125 0 
L 50.6875 18.703125 
L 17.828125 18.703125 
L 11.1875 0 
L 0.78125 0 
z
" id="DejaVuSans-65"/>
       <path d="M 18.109375 8.203125 
L 18.109375 -20.796875 
L 9.078125 -20.796875 
L 9.078125 54.6875 
L 18.109375 54.6875 
L 18.109375 46.390625 
Q 20.953125 51.265625 25.265625 53.625 
Q 29.59375 56 35.59375 56 
Q 45.5625 56 51.78125 48.09375 
Q 58.015625 40.1875 58.015625 27.296875 
Q 58.015625 14.40625 51.78125 6.484375 
Q 45.5625 -1.421875 35.59375 -1.421875 
Q 29.59375 -1.421875 25.265625 0.953125 
Q 20.953125 3.328125 18.109375 8.203125 
z
M 48.6875 27.296875 
Q 48.6875 37.203125 44.609375 42.84375 
Q 40.53125 48.484375 33.40625 48.484375 
Q 26.265625 48.484375 22.1875 42.84375 
Q 18.109375 37.203125 18.109375 27.296875 
Q 18.109375 17.390625 22.1875 11.75 
Q 26.265625 6.109375 33.40625 6.109375 
Q 40.53125 6.109375 44.609375 11.75 
Q 48.6875 17.390625 48.6875 27.296875 
z
" id="DejaVuSans-112"/>
      </defs>
      <g style="fill:#262626;" transform="translate(105.801157 319.275625)scale(0.12 -0.12)">
       <use xlink:href="#DejaVuSans-65"/>
       <use x="68.408203" xlink:href="#DejaVuSans-112"/>
       <use x="131.884766" xlink:href="#DejaVuSans-114"/>
      </g>
     </g>
    </g>
    <g id="xtick_4">
     <g id="line2d_4">
      <g>
       <use style="fill:#262626;stroke:#262626;" x="163.83952" xlink:href="#m38adc0e85a" y="297.1575"/>
      </g>
     </g>
     <g id="text_3">
      <!-- May -->
      <defs>
       <path d="M 32.171875 -5.078125 
Q 28.375 -14.84375 24.75 -17.8125 
Q 21.140625 -20.796875 15.09375 -20.796875 
L 7.90625 -20.796875 
L 7.90625 -13.28125 
L 13.1875 -13.28125 
Q 16.890625 -13.28125 18.9375 -11.515625 
Q 21 -9.765625 23.484375 -3.21875 
L 25.09375 0.875 
L 2.984375 54.6875 
L 12.5 54.6875 
L 29.59375 11.921875 
L 46.6875 54.6875 
L 56.203125 54.6875 
z
" id="DejaVuSans-121"/>
      </defs>
      <g style="fill:#262626;" transform="translate(151.43452 319.275625)scale(0.12 -0.12)">
       <use xlink:href="#DejaVuSans-77"/>
       <use x="86.279297" xlink:href="#DejaVuSans-97"/>
       <use x="147.558594" xlink:href="#DejaVuSans-121"/>
      </g>
     </g>
    </g>
    <g id="xtick_5">
     <g id="line2d_5">
      <g>
       <use style="fill:#262626;stroke:#262626;" x="213.086495" xlink:href="#m38adc0e85a" y="297.1575"/>
      </g>
     </g>
     <g id="text_4">
      <!-- Jun -->
      <defs>
       <path d="M 9.8125 72.90625 
L 19.671875 72.90625 
L 19.671875 5.078125 
Q 19.671875 -8.109375 14.671875 -14.0625 
Q 9.671875 -20.015625 -1.421875 -20.015625 
L -5.171875 -20.015625 
L -5.171875 -11.71875 
L -2.09375 -11.71875 
Q 4.4375 -11.71875 7.125 -8.046875 
Q 9.8125 -4.390625 9.8125 5.078125 
z
" id="DejaVuSans-74"/>
       <path d="M 8.5 21.578125 
L 8.5 54.6875 
L 17.484375 54.6875 
L 17.484375 21.921875 
Q 17.484375 14.15625 20.5 10.265625 
Q 23.53125 6.390625 29.59375 6.390625 
Q 36.859375 6.390625 41.078125 11.03125 
Q 45.3125 15.671875 45.3125 23.6875 
L 45.3125 54.6875 
L 54.296875 54.6875 
L 54.296875 0 
L 45.3125 0 
L 45.3125 8.40625 
Q 42.046875 3.421875 37.71875 1 
Q 33.40625 -1.421875 27.6875 -1.421875 
Q 18.265625 -1.421875 13.375 4.4375 
Q 8.5 10.296875 8.5 21.578125 
z
M 31.109375 56 
z
" id="DejaVuSans-117"/>
       <path d="M 54.890625 33.015625 
L 54.890625 0 
L 45.90625 0 
L 45.90625 32.71875 
Q 45.90625 40.484375 42.875 44.328125 
Q 39.84375 48.1875 33.796875 48.1875 
Q 26.515625 48.1875 22.3125 43.546875 
Q 18.109375 38.921875 18.109375 30.90625 
L 18.109375 0 
L 9.078125 0 
L 9.078125 54.6875 
L 18.109375 54.6875 
L 18.109375 46.1875 
Q 21.34375 51.125 25.703125 53.5625 
Q 30.078125 56 35.796875 56 
Q 45.21875 56 50.046875 50.171875 
Q 54.890625 44.34375 54.890625 33.015625 
z
" id="DejaVuSans-110"/>
      </defs>
      <g style="fill:#262626;" transform="translate(203.711495 319.275625)scale(0.12 -0.12)">
       <use xlink:href="#DejaVuSans-74"/>
       <use x="29.492188" xlink:href="#DejaVuSans-117"/>
       <use x="92.871094" xlink:href="#DejaVuSans-110"/>
      </g>
     </g>
    </g>
    <g id="xtick_6">
     <g id="line2d_6">
      <g>
       <use style="fill:#262626;stroke:#262626;" x="260.744858" xlink:href="#m38adc0e85a" y="297.1575"/>
      </g>
     </g>
     <g id="text_5">
      <!-- Jul -->
      <defs>
       <path d="M 9.421875 75.984375 
L 18.40625 75.984375 
L 18.40625 0 
L 9.421875 0 
z
" id="DejaVuSans-108"/>
      </defs>
      <g style="fill:#262626;" transform="translate(253.505483 319.275625)scale(0.12 -0.12)">
       <use xlink:href="#DejaVuSans-74"/>
       <use x="29.492188" xlink:href="#DejaVuSans-117"/>
       <use x="92.871094" xlink:href="#DejaVuSans-108"/>
      </g>
     </g>
    </g>
    <g id="xtick_7">
     <g id="line2d_7">
      <g>
       <use style="fill:#262626;stroke:#262626;" x="309.991833" xlink:href="#m38adc0e85a" y="297.1575"/>
      </g>
     </g>
     <g id="text_6">
      <!-- Aug -->
      <defs>
       <path d="M 45.40625 27.984375 
Q 45.40625 37.75 41.375 43.109375 
Q 37.359375 48.484375 30.078125 48.484375 
Q 22.859375 48.484375 18.828125 43.109375 
Q 14.796875 37.75 14.796875 27.984375 
Q 14.796875 18.265625 18.828125 12.890625 
Q 22.859375 7.515625 30.078125 7.515625 
Q 37.359375 7.515625 41.375 12.890625 
Q 45.40625 18.265625 45.40625 27.984375 
z
M 54.390625 6.78125 
Q 54.390625 -7.171875 48.1875 -13.984375 
Q 42 -20.796875 29.203125 -20.796875 
Q 24.46875 -20.796875 20.265625 -20.09375 
Q 16.0625 -19.390625 12.109375 -17.921875 
L 12.109375 -9.1875 
Q 16.0625 -11.328125 19.921875 -12.34375 
Q 23.78125 -13.375 27.78125 -13.375 
Q 36.625 -13.375 41.015625 -8.765625 
Q 45.40625 -4.15625 45.40625 5.171875 
L 45.40625 9.625 
Q 42.625 4.78125 38.28125 2.390625 
Q 33.9375 0 27.875 0 
Q 17.828125 0 11.671875 7.65625 
Q 5.515625 15.328125 5.515625 27.984375 
Q 5.515625 40.671875 11.671875 48.328125 
Q 17.828125 56 27.875 56 
Q 33.9375 56 38.28125 53.609375 
Q 42.625 51.21875 45.40625 46.390625 
L 45.40625 54.6875 
L 54.390625 54.6875 
z
" id="DejaVuSans-103"/>
      </defs>
      <g style="fill:#262626;" transform="translate(298.275895 319.275625)scale(0.12 -0.12)">
       <use xlink:href="#DejaVuSans-65"/>
       <use x="68.408203" xlink:href="#DejaVuSans-117"/>
       <use x="131.787109" xlink:href="#DejaVuSans-103"/>
      </g>
     </g>
    </g>
    <g id="xtick_8">
     <g id="line2d_8">
      <g>
       <use style="fill:#262626;stroke:#262626;" x="359.238808" xlink:href="#m38adc0e85a" y="297.1575"/>
      </g>
     </g>
     <g id="text_7">
      <!-- Sep -->
      <defs>
       <path d="M 53.515625 70.515625 
L 53.515625 60.890625 
Q 47.90625 63.578125 42.921875 64.890625 
Q 37.9375 66.21875 33.296875 66.21875 
Q 25.25 66.21875 20.875 63.09375 
Q 16.5 59.96875 16.5 54.203125 
Q 16.5 49.359375 19.40625 46.890625 
Q 22.3125 44.4375 30.421875 42.921875 
L 36.375 41.703125 
Q 47.40625 39.59375 52.65625 34.296875 
Q 57.90625 29 57.90625 20.125 
Q 57.90625 9.515625 50.796875 4.046875 
Q 43.703125 -1.421875 29.984375 -1.421875 
Q 24.8125 -1.421875 18.96875 -0.25 
Q 13.140625 0.921875 6.890625 3.21875 
L 6.890625 13.375 
Q 12.890625 10.015625 18.65625 8.296875 
Q 24.421875 6.59375 29.984375 6.59375 
Q 38.421875 6.59375 43.015625 9.90625 
Q 47.609375 13.234375 47.609375 19.390625 
Q 47.609375 24.75 44.3125 27.78125 
Q 41.015625 30.8125 33.5 32.328125 
L 27.484375 33.5 
Q 16.453125 35.6875 11.515625 40.375 
Q 6.59375 45.0625 6.59375 53.421875 
Q 6.59375 63.09375 13.40625 68.65625 
Q 20.21875 74.21875 32.171875 74.21875 
Q 37.3125 74.21875 42.625 73.28125 
Q 47.953125 72.359375 53.515625 70.515625 
z
" id="DejaVuSans-83"/>
       <path d="M 56.203125 29.59375 
L 56.203125 25.203125 
L 14.890625 25.203125 
Q 15.484375 15.921875 20.484375 11.0625 
Q 25.484375 6.203125 34.421875 6.203125 
Q 39.59375 6.203125 44.453125 7.46875 
Q 49.3125 8.734375 54.109375 11.28125 
L 54.109375 2.78125 
Q 49.265625 0.734375 44.1875 -0.34375 
Q 39.109375 -1.421875 33.890625 -1.421875 
Q 20.796875 -1.421875 13.15625 6.1875 
Q 5.515625 13.8125 5.515625 26.8125 
Q 5.515625 40.234375 12.765625 48.109375 
Q 20.015625 56 32.328125 56 
Q 43.359375 56 49.78125 48.890625 
Q 56.203125 41.796875 56.203125 29.59375 
z
M 47.21875 32.234375 
Q 47.125 39.59375 43.09375 43.984375 
Q 39.0625 48.390625 32.421875 48.390625 
Q 24.90625 48.390625 20.390625 44.140625 
Q 15.875 39.890625 15.1875 32.171875 
z
" id="DejaVuSans-101"/>
      </defs>
      <g style="fill:#262626;" transform="translate(347.928808 319.275625)scale(0.12 -0.12)">
       <use xlink:href="#DejaVuSans-83"/>
       <use x="63.476562" xlink:href="#DejaVuSans-101"/>
       <use x="125" xlink:href="#DejaVuSans-112"/>
      </g>
     </g>
    </g>
    <g id="xtick_9">
     <g id="line2d_9">
      <g>
       <use style="fill:#262626;stroke:#262626;" x="406.897171" xlink:href="#m38adc0e85a" y="297.1575"/>
      </g>
     </g>
     <g id="text_8">
      <!-- Oct -->
      <defs>
       <path d="M 39.40625 66.21875 
Q 28.65625 66.21875 22.328125 58.203125 
Q 16.015625 50.203125 16.015625 36.375 
Q 16.015625 22.609375 22.328125 14.59375 
Q 28.65625 6.59375 39.40625 6.59375 
Q 50.140625 6.59375 56.421875 14.59375 
Q 62.703125 22.609375 62.703125 36.375 
Q 62.703125 50.203125 56.421875 58.203125 
Q 50.140625 66.21875 39.40625 66.21875 
z
M 39.40625 74.21875 
Q 54.734375 74.21875 63.90625 63.9375 
Q 73.09375 53.65625 73.09375 36.375 
Q 73.09375 19.140625 63.90625 8.859375 
Q 54.734375 -1.421875 39.40625 -1.421875 
Q 24.03125 -1.421875 14.8125 8.828125 
Q 5.609375 19.09375 5.609375 36.375 
Q 5.609375 53.65625 14.8125 63.9375 
Q 24.03125 74.21875 39.40625 74.21875 
z
" id="DejaVuSans-79"/>
       <path d="M 48.78125 52.59375 
L 48.78125 44.1875 
Q 44.96875 46.296875 41.140625 47.34375 
Q 37.3125 48.390625 33.40625 48.390625 
Q 24.65625 48.390625 19.8125 42.84375 
Q 14.984375 37.3125 14.984375 27.296875 
Q 14.984375 17.28125 19.8125 11.734375 
Q 24.65625 6.203125 33.40625 6.203125 
Q 37.3125 6.203125 41.140625 7.25 
Q 44.96875 8.296875 48.78125 10.40625 
L 48.78125 2.09375 
Q 45.015625 0.34375 40.984375 -0.53125 
Q 36.96875 -1.421875 32.421875 -1.421875 
Q 20.0625 -1.421875 12.78125 6.34375 
Q 5.515625 14.109375 5.515625 27.296875 
Q 5.515625 40.671875 12.859375 48.328125 
Q 20.21875 56 33.015625 56 
Q 37.15625 56 41.109375 55.140625 
Q 45.0625 54.296875 48.78125 52.59375 
z
" id="DejaVuSans-99"/>
       <path d="M 18.3125 70.21875 
L 18.3125 54.6875 
L 36.8125 54.6875 
L 36.8125 47.703125 
L 18.3125 47.703125 
L 18.3125 18.015625 
Q 18.3125 11.328125 20.140625 9.421875 
Q 21.96875 7.515625 27.59375 7.515625 
L 36.8125 7.515625 
L 36.8125 0 
L 27.59375 0 
Q 17.1875 0 13.234375 3.875 
Q 9.28125 7.765625 9.28125 18.015625 
L 9.28125 47.703125 
L 2.6875 47.703125 
L 2.6875 54.6875 
L 9.28125 54.6875 
L 9.28125 70.21875 
z
" id="DejaVuSans-116"/>
      </defs>
      <g style="fill:#262626;" transform="translate(396.522796 319.275625)scale(0.12 -0.12)">
       <use xlink:href="#DejaVuSans-79"/>
       <use x="78.710938" xlink:href="#DejaVuSans-99"/>
       <use x="133.691406" xlink:href="#DejaVuSans-116"/>
      </g>
     </g>
    </g>
    <g id="xtick_10">
     <g id="line2d_10">
      <g>
       <use style="fill:#262626;stroke:#262626;" x="456.144146" xlink:href="#m38adc0e85a" y="297.1575"/>
      </g>
     </g>
     <g id="text_9">
      <!-- Nov -->
      <defs>
       <path d="M 9.8125 72.90625 
L 23.09375 72.90625 
L 55.421875 11.921875 
L 55.421875 72.90625 
L 64.984375 72.90625 
L 64.984375 0 
L 51.703125 0 
L 19.390625 60.984375 
L 19.390625 0 
L 9.8125 0 
z
" id="DejaVuSans-78"/>
       <path d="M 30.609375 48.390625 
Q 23.390625 48.390625 19.1875 42.75 
Q 14.984375 37.109375 14.984375 27.296875 
Q 14.984375 17.484375 19.15625 11.84375 
Q 23.34375 6.203125 30.609375 6.203125 
Q 37.796875 6.203125 41.984375 11.859375 
Q 46.1875 17.53125 46.1875 27.296875 
Q 46.1875 37.015625 41.984375 42.703125 
Q 37.796875 48.390625 30.609375 48.390625 
z
M 30.609375 56 
Q 42.328125 56 49.015625 48.375 
Q 55.71875 40.765625 55.71875 27.296875 
Q 55.71875 13.875 49.015625 6.21875 
Q 42.328125 -1.421875 30.609375 -1.421875 
Q 18.84375 -1.421875 12.171875 6.21875 
Q 5.515625 13.875 5.515625 27.296875 
Q 5.515625 40.765625 12.171875 48.375 
Q 18.84375 56 30.609375 56 
z
" id="DejaVuSans-111"/>
       <path d="M 2.984375 54.6875 
L 12.5 54.6875 
L 29.59375 8.796875 
L 46.6875 54.6875 
L 56.203125 54.6875 
L 35.6875 0 
L 23.484375 0 
z
" id="DejaVuSans-118"/>
      </defs>
      <g style="fill:#262626;" transform="translate(444.432896 319.275625)scale(0.12 -0.12)">
       <use xlink:href="#DejaVuSans-78"/>
       <use x="74.804688" xlink:href="#DejaVuSans-111"/>
       <use x="135.986328" xlink:href="#DejaVuSans-118"/>
      </g>
     </g>
    </g>
    <g id="xtick_11">
     <g id="line2d_11">
      <g>
       <use style="fill:#262626;stroke:#262626;" x="489.505" xlink:href="#m38adc0e85a" y="297.1575"/>
      </g>
     </g>
    </g>
    <g id="xtick_12">
     <g id="line2d_12">
      <defs>
       <path d="M 0 0 
L 0 3 
" id="mb53703fe01" style="stroke:#262626;stroke-width:0.5;"/>
      </defs>
      <g>
       <use style="fill:#262626;stroke:#262626;stroke-width:0.5;" x="46.282224" xlink:href="#mb53703fe01" y="297.1575"/>
      </g>
     </g>
    </g>
    <g id="xtick_13">
     <g id="line2d_13">
      <g>
       <use style="fill:#262626;stroke:#262626;stroke-width:0.5;" x="57.402509" xlink:href="#mb53703fe01" y="297.1575"/>
      </g>
     </g>
    </g>
    <g id="xtick_14">
     <g id="line2d_14">
      <g>
       <use style="fill:#262626;stroke:#262626;stroke-width:0.5;" x="68.522794" xlink:href="#mb53703fe01" y="297.1575"/>
      </g>
     </g>
    </g>
    <g id="xtick_15">
     <g id="line2d_15">
      <g>
       <use style="fill:#262626;stroke:#262626;stroke-width:0.5;" x="79.643078" xlink:href="#mb53703fe01" y="297.1575"/>
      </g>
     </g>
    </g>
    <g id="xtick_16">
     <g id="line2d_16">
      <g>
       <use style="fill:#262626;stroke:#262626;stroke-width:0.5;" x="90.763363" xlink:href="#mb53703fe01" y="297.1575"/>
      </g>
     </g>
    </g>
    <g id="xtick_17">
     <g id="line2d_17">
      <g>
       <use style="fill:#262626;stroke:#262626;stroke-width:0.5;" x="101.883648" xlink:href="#mb53703fe01" y="297.1575"/>
      </g>
     </g>
    </g>
    <g id="xtick_18">
     <g id="line2d_18">
      <g>
       <use style="fill:#262626;stroke:#262626;stroke-width:0.5;" x="113.003932" xlink:href="#mb53703fe01" y="297.1575"/>
      </g>
     </g>
    </g>
    <g id="xtick_19">
     <g id="line2d_19">
      <g>
       <use style="fill:#262626;stroke:#262626;stroke-width:0.5;" x="124.124217" xlink:href="#mb53703fe01" y="297.1575"/>
      </g>
     </g>
    </g>
    <g id="xtick_20">
     <g id="line2d_20">
      <g>
       <use style="fill:#262626;stroke:#262626;stroke-width:0.5;" x="135.244502" xlink:href="#mb53703fe01" y="297.1575"/>
      </g>
     </g>
    </g>
    <g id="xtick_21">
     <g id="line2d_21">
      <g>
       <use style="fill:#262626;stroke:#262626;stroke-width:0.5;" x="146.364786" xlink:href="#mb53703fe01" y="297.1575"/>
      </g>
     </g>
    </g>
    <g id="xtick_22">
     <g id="line2d_22">
      <g>
       <use style="fill:#262626;stroke:#262626;stroke-width:0.5;" x="157.485071" xlink:href="#mb53703fe01" y="297.1575"/>
      </g>
     </g>
    </g>
    <g id="xtick_23">
     <g id="line2d_23">
      <g>
       <use style="fill:#262626;stroke:#262626;stroke-width:0.5;" x="168.605356" xlink:href="#mb53703fe01" y="297.1575"/>
      </g>
     </g>
    </g>
    <g id="xtick_24">
     <g id="line2d_24">
      <g>
       <use style="fill:#262626;stroke:#262626;stroke-width:0.5;" x="179.725641" xlink:href="#mb53703fe01" y="297.1575"/>
      </g>
     </g>
    </g>
    <g id="xtick_25">
     <g id="line2d_25">
      <g>
       <use style="fill:#262626;stroke:#262626;stroke-width:0.5;" x="190.845925" xlink:href="#mb53703fe01" y="297.1575"/>
      </g>
     </g>
    </g>
    <g id="xtick_26">
     <g id="line2d_26">
      <g>
       <use style="fill:#262626;stroke:#262626;stroke-width:0.5;" x="201.96621" xlink:href="#mb53703fe01" y="297.1575"/>
      </g>
     </g>
    </g>
    <g id="xtick_27">
     <g id="line2d_27">
      <g>
       <use style="fill:#262626;stroke:#262626;stroke-width:0.5;" x="224.206779" xlink:href="#mb53703fe01" y="297.1575"/>
      </g>
     </g>
    </g>
    <g id="xtick_28">
     <g id="line2d_28">
      <g>
       <use style="fill:#262626;stroke:#262626;stroke-width:0.5;" x="235.327064" xlink:href="#mb53703fe01" y="297.1575"/>
      </g>
     </g>
    </g>
    <g id="xtick_29">
     <g id="line2d_29">
      <g>
       <use style="fill:#262626;stroke:#262626;stroke-width:0.5;" x="246.447349" xlink:href="#mb53703fe01" y="297.1575"/>
      </g>
     </g>
    </g>
    <g id="xtick_30">
     <g id="line2d_30">
      <g>
       <use style="fill:#262626;stroke:#262626;stroke-width:0.5;" x="257.567633" xlink:href="#mb53703fe01" y="297.1575"/>
      </g>
     </g>
    </g>
    <g id="xtick_31">
     <g id="line2d_31">
      <g>
       <use style="fill:#262626;stroke:#262626;stroke-width:0.5;" x="268.687918" xlink:href="#mb53703fe01" y="297.1575"/>
      </g>
     </g>
    </g>
    <g id="xtick_32">
     <g id="line2d_32">
      <g>
       <use style="fill:#262626;stroke:#262626;stroke-width:0.5;" x="279.808203" xlink:href="#mb53703fe01" y="297.1575"/>
      </g>
     </g>
    </g>
    <g id="xtick_33">
     <g id="line2d_33">
      <g>
       <use style="fill:#262626;stroke:#262626;stroke-width:0.5;" x="290.928488" xlink:href="#mb53703fe01" y="297.1575"/>
      </g>
     </g>
    </g>
    <g id="xtick_34">
     <g id="line2d_34">
      <g>
       <use style="fill:#262626;stroke:#262626;stroke-width:0.5;" x="302.048772" xlink:href="#mb53703fe01" y="297.1575"/>
      </g>
     </g>
    </g>
    <g id="xtick_35">
     <g id="line2d_35">
      <g>
       <use style="fill:#262626;stroke:#262626;stroke-width:0.5;" x="313.169057" xlink:href="#mb53703fe01" y="297.1575"/>
      </g>
     </g>
    </g>
    <g id="xtick_36">
     <g id="line2d_36">
      <g>
       <use style="fill:#262626;stroke:#262626;stroke-width:0.5;" x="324.289342" xlink:href="#mb53703fe01" y="297.1575"/>
      </g>
     </g>
    </g>
    <g id="xtick_37">
     <g id="line2d_37">
      <g>
       <use style="fill:#262626;stroke:#262626;stroke-width:0.5;" x="335.409626" xlink:href="#mb53703fe01" y="297.1575"/>
      </g>
     </g>
    </g>
    <g id="xtick_38">
     <g id="line2d_38">
      <g>
       <use style="fill:#262626;stroke:#262626;stroke-width:0.5;" x="346.529911" xlink:href="#mb53703fe01" y="297.1575"/>
      </g>
     </g>
    </g>
    <g id="xtick_39">
     <g id="line2d_39">
      <g>
       <use style="fill:#262626;stroke:#262626;stroke-width:0.5;" x="357.650196" xlink:href="#mb53703fe01" y="297.1575"/>
      </g>
     </g>
    </g>
    <g id="xtick_40">
     <g id="line2d_40">
      <g>
       <use style="fill:#262626;stroke:#262626;stroke-width:0.5;" x="368.77048" xlink:href="#mb53703fe01" y="297.1575"/>
      </g>
     </g>
    </g>
    <g id="xtick_41">
     <g id="line2d_41">
      <g>
       <use style="fill:#262626;stroke:#262626;stroke-width:0.5;" x="379.890765" xlink:href="#mb53703fe01" y="297.1575"/>
      </g>
     </g>
    </g>
    <g id="xtick_42">
     <g id="line2d_42">
      <g>
       <use style="fill:#262626;stroke:#262626;stroke-width:0.5;" x="391.01105" xlink:href="#mb53703fe01" y="297.1575"/>
      </g>
     </g>
    </g>
    <g id="xtick_43">
     <g id="line2d_43">
      <g>
       <use style="fill:#262626;stroke:#262626;stroke-width:0.5;" x="402.131335" xlink:href="#mb53703fe01" y="297.1575"/>
      </g>
     </g>
    </g>
    <g id="xtick_44">
     <g id="line2d_44">
      <g>
       <use style="fill:#262626;stroke:#262626;stroke-width:0.5;" x="413.251619" xlink:href="#mb53703fe01" y="297.1575"/>
      </g>
     </g>
    </g>
    <g id="xtick_45">
     <g id="line2d_45">
      <g>
       <use style="fill:#262626;stroke:#262626;stroke-width:0.5;" x="424.371904" xlink:href="#mb53703fe01" y="297.1575"/>
      </g>
     </g>
    </g>
    <g id="xtick_46">
     <g id="line2d_46">
      <g>
       <use style="fill:#262626;stroke:#262626;stroke-width:0.5;" x="435.492189" xlink:href="#mb53703fe01" y="297.1575"/>
      </g>
     </g>
    </g>
    <g id="xtick_47">
     <g id="line2d_47">
      <g>
       <use style="fill:#262626;stroke:#262626;stroke-width:0.5;" x="446.612473" xlink:href="#mb53703fe01" y="297.1575"/>
      </g>
     </g>
    </g>
    <g id="xtick_48">
     <g id="line2d_48">
      <g>
       <use style="fill:#262626;stroke:#262626;stroke-width:0.5;" x="457.732758" xlink:href="#mb53703fe01" y="297.1575"/>
      </g>
     </g>
    </g>
    <g id="xtick_49">
     <g id="line2d_49">
      <g>
       <use style="fill:#262626;stroke:#262626;stroke-width:0.5;" x="468.853043" xlink:href="#mb53703fe01" y="297.1575"/>
      </g>
     </g>
    </g>
    <g id="xtick_50">
     <g id="line2d_50">
      <g>
       <use style="fill:#262626;stroke:#262626;stroke-width:0.5;" x="479.973327" xlink:href="#mb53703fe01" y="297.1575"/>
      </g>
     </g>
    </g>
   </g>
   <g id="matplotlib.axis_2">
    <g id="ytick_1">
     <g id="line2d_51">
      <path clip-path="url(#p2a047fefee)" d="M 43.105 297.1575 
L 489.505 297.1575 
" style="fill:none;stroke:#b0b0b0;stroke-linecap:square;stroke-opacity:0.3;"/>
     </g>
     <g id="line2d_52">
      <defs>
       <path d="M 0 0 
L -6 0 
" id="me25000bd7d" style="stroke:#262626;"/>
      </defs>
      <g>
       <use style="fill:#262626;stroke:#262626;" x="43.105" xlink:href="#me25000bd7d" y="297.1575"/>
      </g>
     </g>
     <g id="text_10">
      <!-- 0 -->
      <g style="fill:#262626;" transform="translate(22.47 301.716562)scale(0.12 -0.12)">
       <use xlink:href="#DejaVuSans-48"/>
      </g>
     </g>
    </g>
    <g id="ytick_2">
     <g id="line2d_53">
      <path clip-path="url(#p2a047fefee)" d="M 43.105 251.643404 
L 489.505 251.643404 
" style="fill:none;stroke:#b0b0b0;stroke-linecap:square;stroke-opacity:0.3;"/>
     </g>
     <g id="line2d_54">
      <g>
       <use style="fill:#262626;stroke:#262626;" x="43.105" xlink:href="#me25000bd7d" y="251.643404"/>
      </g>
     </g>
     <g id="text_11">
      <!-- 100 -->
      <defs>
       <path d="M 12.40625 8.296875 
L 28.515625 8.296875 
L 28.515625 63.921875 
L 10.984375 60.40625 
L 10.984375 69.390625 
L 28.421875 72.90625 
L 38.28125 72.90625 
L 38.28125 8.296875 
L 54.390625 8.296875 
L 54.390625 0 
L 12.40625 0 
z
" id="DejaVuSans-49"/>
      </defs>
      <g style="fill:#262626;" transform="translate(7.2 256.202466)scale(0.12 -0.12)">
       <use xlink:href="#DejaVuSans-49"/>
       <use x="63.623047" xlink:href="#DejaVuSans-48"/>
       <use x="127.246094" xlink:href="#DejaVuSans-48"/>
      </g>
     </g>
    </g>
    <g id="ytick_3">
     <g id="line2d_55">
      <path clip-path="url(#p2a047fefee)" d="M 43.105 206.129308 
L 489.505 206.129308 
" style="fill:none;stroke:#b0b0b0;stroke-linecap:square;stroke-opacity:0.3;"/>
     </g>
     <g id="line2d_56">
      <g>
       <use style="fill:#262626;stroke:#262626;" x="43.105" xlink:href="#me25000bd7d" y="206.129308"/>
      </g>
     </g>
     <g id="text_12">
      <!-- 200 -->
      <g style="fill:#262626;" transform="translate(7.2 210.68837)scale(0.12 -0.12)">
       <use xlink:href="#DejaVuSans-50"/>
       <use x="63.623047" xlink:href="#DejaVuSans-48"/>
       <use x="127.246094" xlink:href="#DejaVuSans-48"/>
      </g>
     </g>
    </g>
    <g id="ytick_4">
     <g id="line2d_57">
      <path clip-path="url(#p2a047fefee)" d="M 43.105 160.615211 
L 489.505 160.615211 
" style="fill:none;stroke:#b0b0b0;stroke-linecap:square;stroke-opacity:0.3;"/>
     </g>
     <g id="line2d_58">
      <g>
       <use style="fill:#262626;stroke:#262626;" x="43.105" xlink:href="#me25000bd7d" y="160.615211"/>
      </g>
     </g>
     <g id="text_13">
      <!-- 300 -->
      <defs>
       <path d="M 40.578125 39.3125 
Q 47.65625 37.796875 51.625 33 
Q 55.609375 28.21875 55.609375 21.1875 
Q 55.609375 10.40625 48.1875 4.484375 
Q 40.765625 -1.421875 27.09375 -1.421875 
Q 22.515625 -1.421875 17.65625 -0.515625 
Q 12.796875 0.390625 7.625 2.203125 
L 7.625 11.71875 
Q 11.71875 9.328125 16.59375 8.109375 
Q 21.484375 6.890625 26.8125 6.890625 
Q 36.078125 6.890625 40.9375 10.546875 
Q 45.796875 14.203125 45.796875 21.1875 
Q 45.796875 27.640625 41.28125 31.265625 
Q 36.765625 34.90625 28.71875 34.90625 
L 20.21875 34.90625 
L 20.21875 43.015625 
L 29.109375 43.015625 
Q 36.375 43.015625 40.234375 45.921875 
Q 44.09375 48.828125 44.09375 54.296875 
Q 44.09375 59.90625 40.109375 62.90625 
Q 36.140625 65.921875 28.71875 65.921875 
Q 24.65625 65.921875 20.015625 65.03125 
Q 15.375 64.15625 9.8125 62.3125 
L 9.8125 71.09375 
Q 15.4375 72.65625 20.34375 73.4375 
Q 25.25 74.21875 29.59375 74.21875 
Q 40.828125 74.21875 47.359375 69.109375 
Q 53.90625 64.015625 53.90625 55.328125 
Q 53.90625 49.265625 50.4375 45.09375 
Q 46.96875 40.921875 40.578125 39.3125 
z
" id="DejaVuSans-51"/>
      </defs>
      <g style="fill:#262626;" transform="translate(7.2 165.174274)scale(0.12 -0.12)">
       <use xlink:href="#DejaVuSans-51"/>
       <use x="63.623047" xlink:href="#DejaVuSans-48"/>
       <use x="127.246094" xlink:href="#DejaVuSans-48"/>
      </g>
     </g>
    </g>
    <g id="ytick_5">
     <g id="line2d_59">
      <path clip-path="url(#p2a047fefee)" d="M 43.105 115.101115 
L 489.505 115.101115 
" style="fill:none;stroke:#b0b0b0;stroke-linecap:square;stroke-opacity:0.3;"/>
     </g>
     <g id="line2d_60">
      <g>
       <use style="fill:#262626;stroke:#262626;" x="43.105" xlink:href="#me25000bd7d" y="115.101115"/>
      </g>
     </g>
     <g id="text_14">
      <!-- 400 -->
      <defs>
       <path d="M 37.796875 64.3125 
L 12.890625 25.390625 
L 37.796875 25.390625 
z
M 35.203125 72.90625 
L 47.609375 72.90625 
L 47.609375 25.390625 
L 58.015625 25.390625 
L 58.015625 17.1875 
L 47.609375 17.1875 
L 47.609375 0 
L 37.796875 0 
L 37.796875 17.1875 
L 4.890625 17.1875 
L 4.890625 26.703125 
z
" id="DejaVuSans-52"/>
      </defs>
      <g style="fill:#262626;" transform="translate(7.2 119.660178)scale(0.12 -0.12)">
       <use xlink:href="#DejaVuSans-52"/>
       <use x="63.623047" xlink:href="#DejaVuSans-48"/>
       <use x="127.246094" xlink:href="#DejaVuSans-48"/>
      </g>
     </g>
    </g>
    <g id="ytick_6">
     <g id="line2d_61">
      <path clip-path="url(#p2a047fefee)" d="M 43.105 69.587019 
L 489.505 69.587019 
" style="fill:none;stroke:#b0b0b0;stroke-linecap:square;stroke-opacity:0.3;"/>
     </g>
     <g id="line2d_62">
      <g>
       <use style="fill:#262626;stroke:#262626;" x="43.105" xlink:href="#me25000bd7d" y="69.587019"/>
      </g>
     </g>
     <g id="text_15">
      <!-- 500 -->
      <defs>
       <path d="M 10.796875 72.90625 
L 49.515625 72.90625 
L 49.515625 64.59375 
L 19.828125 64.59375 
L 19.828125 46.734375 
Q 21.96875 47.46875 24.109375 47.828125 
Q 26.265625 48.1875 28.421875 48.1875 
Q 40.625 48.1875 47.75 41.5 
Q 54.890625 34.8125 54.890625 23.390625 
Q 54.890625 11.625 47.5625 5.09375 
Q 40.234375 -1.421875 26.90625 -1.421875 
Q 22.3125 -1.421875 17.546875 -0.640625 
Q 12.796875 0.140625 7.71875 1.703125 
L 7.71875 11.625 
Q 12.109375 9.234375 16.796875 8.0625 
Q 21.484375 6.890625 26.703125 6.890625 
Q 35.15625 6.890625 40.078125 11.328125 
Q 45.015625 15.765625 45.015625 23.390625 
Q 45.015625 31 40.078125 35.4375 
Q 35.15625 39.890625 26.703125 39.890625 
Q 22.75 39.890625 18.8125 39.015625 
Q 14.890625 38.140625 10.796875 36.28125 
z
" id="DejaVuSans-53"/>
      </defs>
      <g style="fill:#262626;" transform="translate(7.2 74.146082)scale(0.12 -0.12)">
       <use xlink:href="#DejaVuSans-53"/>
       <use x="63.623047" xlink:href="#DejaVuSans-48"/>
       <use x="127.246094" xlink:href="#DejaVuSans-48"/>
      </g>
     </g>
    </g>
   </g>
   <g id="line2d_63">
    <path clip-path="url(#p2a047fefee)" d="M 12.92137 297.1575 
L 78.054466 297.073594 
L 89.174751 296.802513 
L 90.763363 296.673427 
L 93.940587 296.111901 
L 97.117811 295.531013 
L 100.295036 294.885582 
L 105.060872 293.226824 
L 106.649484 290.800002 
L 108.238096 289.586591 
L 111.41532 286.088354 
L 113.003932 284.649042 
L 114.592544 281.99632 
L 116.181157 279.608224 
L 117.769769 278.89825 
L 119.358381 277.142677 
L 120.946993 274.741673 
L 122.535605 272.605295 
L 124.124217 272.076042 
L 125.712829 271.992136 
L 127.301441 271.262798 
L 128.890053 271.921138 
L 130.478665 272.218037 
L 132.067278 273.947792 
L 133.65589 276.168076 
L 135.244502 277.407304 
L 136.833114 276.910322 
L 138.421726 278.014009 
L 140.010338 278.446448 
L 141.59895 278.046281 
L 143.187562 276.839324 
L 144.776174 276.83287 
L 146.364786 268.784342 
L 147.953399 264.285686 
L 149.542011 258.825338 
L 151.130623 254.210505 
L 152.719235 250.983348 
L 154.307847 251.422242 
L 155.896459 250.770356 
L 157.485071 254.552583 
L 159.073683 259.490132 
L 160.662295 258.108909 
L 162.250907 260.535731 
L 163.83952 260.561548 
L 165.428132 259.806394 
L 167.016744 257.566747 
L 168.605356 259.722488 
L 170.193968 253.016457 
L 171.78258 257.405389 
L 173.371192 256.850318 
L 174.959804 257.908826 
L 176.548416 256.475968 
L 178.137028 258.33481 
L 179.725641 258.166998 
L 181.314253 262.530113 
L 182.902865 259.825757 
L 184.491477 259.064148 
L 186.080089 258.670435 
L 187.668701 257.747468 
L 189.257313 256.514694 
L 190.845925 257.185943 
L 192.434537 255.89508 
L 194.023149 255.662725 
L 195.611762 253.861972 
L 197.200374 253.313355 
L 198.788986 253.577982 
L 200.377598 251.886952 
L 201.96621 248.317717 
L 203.554822 243.915876 
L 205.143434 246.536327 
L 206.732046 247.220484 
L 208.320658 242.231301 
L 209.90927 235.221917 
L 211.497883 232.562741 
L 213.086495 232.937091 
L 214.675107 237.158211 
L 216.263719 235.622085 
L 217.852331 233.41471 
L 219.440943 235.951255 
L 221.029555 241.088887 
L 222.618167 240.049743 
L 224.206779 241.159885 
L 225.795391 240.979164 
L 227.384004 240.165921 
L 228.972616 237.616467 
L 230.561228 236.286879 
L 232.14984 234.647483 
L 233.738452 237.945637 
L 235.327064 238.119904 
L 236.915676 237.377658 
L 238.504288 231.807586 
L 240.0929 236.79677 
L 241.681512 238.210264 
L 243.270125 235.112194 
L 244.858737 230.168191 
L 246.447349 218.731149 
L 248.035961 212.10257 
L 249.624573 217.763002 
L 251.213185 211.702403 
L 252.801797 209.230401 
L 254.390409 208.507518 
L 255.979021 203.589332 
L 257.567633 201.440046 
L 259.156246 198.619511 
L 260.744858 193.778777 
L 262.33347 192.597638 
L 263.922082 186.930751 
L 265.510694 180.166632 
L 267.099306 186.795211 
L 268.687918 195.192271 
L 270.27653 187.369644 
L 271.865142 184.226394 
L 273.453754 186.975931 
L 275.042367 187.124381 
L 276.630979 189.080037 
L 278.219591 177.391277 
L 279.808203 170.917602 
L 281.396815 169.568651 
L 282.985427 168.038978 
L 284.574039 150.450977 
L 286.162651 148.960031 
L 287.751263 150.005629 
L 289.339875 152.981067 
L 290.928488 149.250475 
L 292.5171 159.254659 
L 294.105712 156.059774 
L 295.694324 172.072924 
L 297.282936 178.152886 
L 298.871548 172.692538 
L 302.048772 187.543911 
L 303.637384 187.634271 
L 305.225996 177.668813 
L 306.814609 174.370659 
L 308.403221 169.85264 
L 309.991833 178.604688 
L 311.580445 179.869733 
L 313.169057 182.52891 
L 314.757669 187.614908 
L 316.346281 203.382794 
L 317.934893 198.832503 
L 319.523505 195.915154 
L 321.112117 193.449607 
L 324.289342 189.783557 
L 325.877954 192.636363 
L 327.466566 192.049021 
L 329.055178 200.12982 
L 332.232402 206.790671 
L 333.821014 210.527718 
L 335.409626 215.142551 
L 336.998238 218.266438 
L 338.586851 222.093846 
L 340.175463 224.82402 
L 341.764075 230.284368 
L 343.352687 233.259806 
L 344.941299 234.260225 
L 346.529911 234.150501 
L 348.118523 234.25377 
L 349.707135 235.460727 
L 351.295747 234.937928 
L 352.884359 236.461145 
L 354.472972 238.461982 
L 356.061584 238.720155 
L 357.650196 239.875477 
L 359.238808 240.720992 
L 360.82742 241.979582 
L 362.416032 245.439094 
L 364.004644 245.85217 
L 365.593256 246.904223 
L 367.181868 248.20154 
L 368.77048 251.635234 
L 370.359093 253.78452 
L 371.947705 258.922153 
L 373.536317 258.270267 
L 375.124929 260.632546 
L 376.713541 260.793903 
L 378.302153 260.68418 
L 379.890765 259.496587 
L 381.479377 259.670853 
L 383.067989 256.566329 
L 384.656601 256.83741 
L 387.833826 254.294411 
L 389.422438 253.190723 
L 391.01105 253.332718 
L 392.599662 251.43515 
L 394.188274 250.783265 
L 395.776886 251.054346 
L 397.365498 250.305646 
L 398.95411 250.873625 
L 400.542722 251.951495 
L 402.131335 251.919224 
L 403.719947 251.002711 
L 405.308559 252.196759 
L 406.897171 252.254848 
L 408.485783 252.764739 
L 410.074395 254.236322 
L 411.663007 253.50053 
L 413.251619 255.288375 
L 414.840231 254.739758 
L 416.428843 251.034983 
L 418.017456 250.079745 
L 419.606068 250.325009 
L 421.19468 248.57589 
L 422.783292 248.298354 
L 424.371904 245.264828 
L 425.960516 246.207157 
L 427.549128 248.2919 
L 429.13774 248.633979 
L 430.726352 249.957113 
L 432.314964 252.164488 
L 433.903577 256.392062 
L 435.492189 255.953169 
L 437.080801 256.759958 
L 438.669413 261.852411 
L 440.258025 246.284609 
L 441.846637 235.202554 
L 443.435249 227.444471 
L 445.023861 224.16568 
L 446.612473 224.559393 
L 449.789698 214.006592 
L 451.37831 226.127791 
L 452.966922 235.802805 
L 454.555534 241.127613 
L 456.144146 236.293333 
L 457.732758 232.737007 
L 459.32137 234.757207 
L 460.909982 231.601048 
L 462.498594 228.974143 
L 464.087206 223.578338 
L 465.675819 216.930396 
L 467.264431 212.664095 
L 468.853043 212.580189 
L 470.441655 205.467537 
L 472.030267 203.4667 
L 473.618879 201.02697 
L 475.207491 198.935772 
L 476.796103 190.13209 
L 478.384715 185.117089 
L 479.973327 176.294044 
L 481.56194 190.816247 
L 481.56194 190.816247 
" style="fill:none;stroke:#4c72b0;stroke-linecap:square;stroke-width:2;"/>
   </g>
   <g id="line2d_64">
    <path clip-path="url(#p2a047fefee)" d="M 12.92137 297.1575 
L 89.174751 297.050672 
L 90.763363 296.943843 
L 92.351975 296.676772 
L 93.940587 296.569943 
L 95.529199 296.249458 
L 97.117811 295.715316 
L 98.706423 295.555073 
L 101.883648 294.860688 
L 103.47226 294.593617 
L 105.060872 293.098018 
L 106.649484 291.014863 
L 108.238096 290.213649 
L 109.826708 287.115623 
L 111.41532 285.139296 
L 113.003932 284.231254 
L 114.592544 282.895898 
L 116.181157 282.842484 
L 117.769769 281.881028 
L 119.358381 280.171772 
L 120.946993 279.370559 
L 122.535605 278.996659 
L 125.712829 277.714717 
L 127.301441 277.714717 
L 128.890053 278.996659 
L 132.067278 281.987856 
L 133.65589 283.697112 
L 135.244502 284.658568 
L 136.833114 286.260995 
L 140.010338 288.290736 
L 141.59895 288.664636 
L 143.187562 287.916837 
L 144.776174 287.649766 
L 146.364786 288.290736 
L 147.953399 288.290736 
L 149.542011 287.32928 
L 151.130623 285.192711 
L 152.719235 284.872225 
L 154.307847 287.062209 
L 155.896459 287.756594 
L 157.485071 287.436109 
L 159.073683 287.756594 
L 160.662295 287.275866 
L 162.250907 289.679507 
L 163.83952 289.572678 
L 165.428132 289.946578 
L 167.016744 289.999992 
L 168.605356 289.626092 
L 170.193968 289.679507 
L 171.78258 290.694377 
L 173.371192 289.145364 
L 174.959804 289.893164 
L 176.548416 288.985122 
L 178.137028 288.71805 
L 179.725641 289.359021 
L 181.314253 289.09195 
L 182.902865 289.09195 
L 184.491477 291.175105 
L 186.080089 290.373892 
L 187.668701 291.335348 
L 189.257313 291.816076 
L 190.845925 290.213649 
L 192.434537 290.106821 
L 194.023149 289.572678 
L 195.611762 288.237322 
L 197.200374 288.771465 
L 198.788986 288.71805 
L 200.377598 287.863423 
L 201.96621 288.397565 
L 203.554822 288.71805 
L 205.143434 289.626092 
L 206.732046 290.053406 
L 208.320658 290.160235 
L 209.90927 289.46585 
L 211.497883 289.999992 
L 213.086495 291.068277 
L 214.675107 291.175105 
L 216.263719 290.534134 
L 221.029555 292.24339 
L 222.618167 292.24339 
L 224.206779 292.403633 
L 225.795391 291.86949 
L 227.384004 292.777532 
L 228.972616 292.350219 
L 230.561228 292.24339 
L 232.14984 292.510461 
L 233.738452 293.098018 
L 235.327064 292.991189 
L 236.915676 292.563876 
L 238.504288 292.937775 
L 240.0929 293.578746 
L 243.270125 292.724118 
L 244.858737 292.029733 
L 246.447349 289.999992 
L 248.035961 290.427306 
L 249.624573 288.023665 
L 251.213185 286.528067 
L 252.801797 284.17784 
L 254.390409 280.438843 
L 255.979021 276.165704 
L 257.567633 274.135963 
L 259.156246 269.328682 
L 260.744858 265.856756 
L 262.33347 255.387566 
L 263.922082 249.191514 
L 265.510694 245.98666 
L 267.099306 244.330818 
L 268.687918 237.119896 
L 270.27653 232.045544 
L 271.865142 225.635835 
L 273.453754 229.641903 
L 275.042367 229.48166 
L 276.630979 226.009735 
L 278.219591 222.110495 
L 279.808203 229.962388 
L 281.396815 223.17878 
L 282.985427 222.324152 
L 284.574039 223.285608 
L 286.162651 220.080754 
L 287.751263 224.353893 
L 289.339875 227.665576 
L 290.928488 222.270738 
L 292.5171 232.526272 
L 294.105712 240.538407 
L 295.694324 240.164508 
L 297.282936 242.407906 
L 298.871548 241.820349 
L 300.46016 242.08742 
L 302.048772 241.660106 
L 303.637384 242.728391 
L 305.225996 241.179378 
L 306.814609 241.980592 
L 308.403221 239.523537 
L 309.991833 243.796676 
L 311.580445 246.520802 
L 313.169057 252.503197 
L 314.757669 251.808812 
L 316.346281 254.746595 
L 317.934893 256.45585 
L 319.523505 264.307743 
L 321.112117 263.186044 
L 322.70073 264.307743 
L 324.289342 263.933844 
L 325.877954 266.925041 
L 327.466566 266.925041 
L 329.055178 266.177242 
L 330.64379 266.551141 
L 332.232402 267.085284 
L 333.821014 266.390899 
L 335.409626 266.604556 
L 336.998238 268.260397 
L 338.586851 270.557209 
L 340.175463 271.305009 
L 341.764075 271.839151 
L 343.352687 272.693779 
L 344.941299 272.052808 
L 346.529911 274.296206 
L 348.118523 273.601821 
L 349.707135 274.296206 
L 351.295747 276.379361 
L 352.884359 277.287403 
L 354.472972 276.11229 
L 356.061584 275.417905 
L 357.650196 274.990591 
L 359.238808 276.539604 
L 360.82742 273.655235 
L 362.416032 271.305009 
L 364.004644 269.755996 
L 365.593256 270.557209 
L 367.181868 272.533536 
L 368.77048 272.426708 
L 370.359093 271.999394 
L 371.947705 271.999394 
L 373.536317 274.72352 
L 375.124929 274.296206 
L 376.713541 274.883763 
L 378.302153 278.195445 
L 379.890765 272.693779 
L 381.479377 269.862824 
L 383.067989 269.595753 
L 384.656601 268.260397 
L 386.245214 269.969653 
L 387.833826 268.474054 
L 389.422438 264.5214 
L 391.01105 269.862824 
L 392.599662 272.426708 
L 394.188274 273.868892 
L 395.776886 274.883763 
L 397.365498 274.883763 
L 398.95411 273.762064 
L 400.542722 274.456449 
L 403.719947 271.305009 
L 405.308559 271.465251 
L 406.897171 269.008196 
L 408.485783 268.741125 
L 410.074395 274.403034 
L 411.663007 266.764798 
L 413.251619 268.153569 
L 414.840231 267.833083 
L 416.428843 267.833083 
L 418.017456 266.711384 
L 419.606068 266.444313 
L 421.19468 262.11776 
L 422.783292 267.833083 
L 424.371904 265.910171 
L 425.960516 266.070413 
L 427.549128 263.186044 
L 429.13774 262.545074 
L 430.726352 258.752663 
L 432.314964 255.708051 
L 435.492189 253.785139 
L 437.080801 252.236126 
L 438.669413 251.061012 
L 440.258025 251.381498 
L 441.846637 250.90077 
L 443.435249 251.274669 
L 445.023861 251.91564 
L 446.612473 253.30441 
L 448.201085 253.144168 
L 449.789698 248.871029 
L 452.966922 247.215187 
L 459.32137 237.92111 
L 460.909982 237.867695 
L 462.498594 235.731126 
L 464.087206 232.205786 
L 467.264431 219.920511 
L 468.853043 211.908376 
L 472.030267 194.121434 
L 473.618879 182.210059 
L 475.207491 174.78548 
L 476.796103 170.405513 
L 478.384715 156.143911 
L 479.973327 143.858636 
L 481.56194 145.407649 
L 481.56194 145.407649 
" style="fill:none;stroke:#55a868;stroke-linecap:square;stroke-width:2;"/>
   </g>
   <g id="line2d_65">
    <path clip-path="url(#p2a047fefee)" d="M 12.92137 297.1575 
L 89.174751 297.1575 
L 90.763363 296.945413 
L 93.940587 296.874717 
L 95.529199 295.390105 
L 97.117811 295.178017 
L 98.706423 294.683147 
L 100.295036 293.552014 
L 101.883648 291.431139 
L 103.47226 290.087919 
L 105.060872 289.027482 
L 106.649484 289.663744 
L 108.238096 283.866688 
L 109.826708 274.817624 
L 111.41532 274.110666 
L 113.003932 271.989792 
L 114.592544 273.757187 
L 116.181157 266.687606 
L 117.769769 254.740015 
L 119.358381 255.941843 
L 120.946993 255.376277 
L 122.535605 249.155046 
L 124.124217 246.256517 
L 125.712829 245.903038 
L 127.301441 251.063833 
L 128.890053 252.760532 
L 130.478665 254.245144 
L 132.067278 259.900809 
L 133.65589 260.961246 
L 135.244502 264.566732 
L 138.421726 258.557588 
L 140.010338 262.657945 
L 141.59895 260.395679 
L 143.187562 260.0422 
L 144.776174 261.880291 
L 146.364786 262.870033 
L 147.953399 263.294207 
L 149.542011 263.08212 
L 151.130623 254.740015 
L 152.719235 249.508525 
L 155.896459 234.662405 
L 159.073683 230.562048 
L 160.662295 229.077436 
L 162.250907 235.722842 
L 163.83952 235.08658 
L 165.428132 238.833458 
L 167.016744 243.711468 
L 168.605356 241.944073 
L 170.193968 240.459461 
L 171.78258 239.752503 
L 173.371192 239.399024 
L 174.959804 242.438944 
L 176.548416 244.913297 
L 178.137028 244.630514 
L 179.725641 249.013654 
L 182.902865 254.881406 
L 184.491477 259.335242 
L 186.080089 259.900809 
L 187.668701 259.688721 
L 189.257313 261.7389 
L 190.845925 261.102637 
L 192.434537 261.314725 
L 194.023149 260.0422 
L 195.611762 254.81071 
L 197.200374 253.679577 
L 198.788986 248.730871 
L 200.377598 249.649916 
L 201.96621 247.175563 
L 203.554822 246.539301 
L 205.143434 249.155046 
L 206.732046 253.608882 
L 209.90927 264.496036 
L 211.497883 265.768561 
L 213.086495 267.253173 
L 214.675107 267.46526 
L 216.263719 267.182477 
L 217.852331 267.323869 
L 219.440943 267.182477 
L 221.029555 267.818739 
L 222.618167 267.748043 
L 224.206779 268.31361 
L 225.795391 267.323869 
L 227.384004 270.151701 
L 228.972616 272.343271 
L 230.561228 271.8484 
L 232.14984 274.252058 
L 233.738452 276.019453 
L 235.327064 276.938499 
L 236.915676 278.988677 
L 238.504288 278.352415 
L 240.0929 278.705894 
L 241.681512 280.331897 
L 243.270125 281.109551 
L 244.858737 281.675118 
L 246.447349 281.745814 
L 248.035961 281.533726 
L 249.624573 281.180247 
L 251.213185 281.745814 
L 252.801797 281.180247 
L 254.390409 281.180247 
L 255.979021 281.321639 
L 257.567633 282.028597 
L 259.156246 281.675118 
L 260.744858 280.96816 
L 262.33347 280.756072 
L 263.922082 279.766331 
L 265.510694 279.059373 
L 267.099306 279.695635 
L 268.687918 279.412852 
L 270.27653 279.342156 
L 271.865142 278.847285 
L 273.453754 279.200765 
L 275.042367 280.685376 
L 276.630979 279.554244 
L 278.219591 278.281719 
L 279.808203 278.352415 
L 281.396815 276.726411 
L 282.985427 276.302236 
L 284.574039 275.73667 
L 286.162651 274.393449 
L 287.751263 275.595278 
L 290.928488 277.362673 
L 292.5171 277.857544 
L 294.105712 279.907723 
L 295.694324 278.77659 
L 297.282936 279.342156 
L 298.871548 278.352415 
L 300.46016 278.352415 
L 302.048772 277.291978 
L 303.637384 278.917981 
L 305.225996 277.716153 
L 306.814609 279.695635 
L 308.403221 278.917981 
L 309.991833 278.352415 
L 311.580445 277.998936 
L 313.169057 276.019453 
L 314.757669 275.73667 
L 316.346281 276.514324 
L 317.934893 275.73667 
L 319.523505 276.019453 
L 321.112117 275.807366 
L 322.70073 273.686491 
L 324.289342 276.514324 
L 325.877954 274.534841 
L 327.466566 275.171103 
L 329.055178 276.231541 
L 330.64379 277.857544 
L 332.232402 278.493806 
L 333.821014 279.978418 
L 335.409626 280.261202 
L 336.998238 283.018338 
L 338.586851 281.038856 
L 340.175463 279.483548 
L 341.764075 275.948757 
L 343.352687 276.019453 
L 344.941299 274.676233 
L 346.529911 273.5451 
L 348.118523 271.777705 
L 349.707135 272.555358 
L 351.295747 269.939614 
L 352.884359 272.484663 
L 354.472972 273.969275 
L 356.061584 272.979533 
L 357.650196 270.222397 
L 359.238808 268.808481 
L 360.82742 266.899694 
L 362.416032 267.606652 
L 364.004644 265.839257 
L 365.593256 263.859774 
L 368.77048 265.485778 
L 370.359093 268.949872 
L 371.947705 270.50518 
L 373.536317 271.8484 
L 375.124929 272.626054 
L 376.713541 272.060488 
L 378.302153 270.929355 
L 379.890765 272.555358 
L 381.479377 271.000051 
L 383.067989 271.8484 
L 384.656601 269.65683 
L 387.833826 272.413967 
L 391.01105 270.717267 
L 392.599662 271.282834 
L 394.188274 271.707009 
L 395.776886 271.141442 
L 397.365498 270.434484 
L 398.95411 269.515439 
L 400.542722 272.908837 
L 402.131335 274.746929 
L 403.719947 271.494921 
L 405.308559 269.727526 
L 406.897171 270.787963 
L 408.485783 269.868918 
L 410.074395 269.65683 
L 411.663007 267.111781 
L 413.251619 266.12204 
L 419.606068 271.636313 
L 421.19468 271.8484 
L 422.783292 273.120925 
L 424.371904 271.989792 
L 425.960516 274.676233 
L 427.549128 274.676233 
L 429.13774 274.817624 
L 430.726352 274.110666 
L 432.314964 273.262317 
L 433.903577 272.838142 
L 435.492189 274.959016 
L 437.080801 273.757187 
L 438.669413 271.8484 
L 440.258025 270.222397 
L 441.846637 270.222397 
L 443.435249 269.65683 
L 445.023861 271.141442 
L 446.612473 269.798222 
L 448.201085 264.778819 
L 449.789698 265.556473 
L 451.37831 261.031942 
L 452.966922 257.779934 
L 454.555534 252.548444 
L 456.144146 246.822084 
L 457.732758 245.620255 
L 459.32137 242.226856 
L 460.909982 234.450317 
L 462.498594 229.148132 
L 464.087206 221.088809 
L 465.675819 204.970165 
L 467.264431 194.153706 
L 468.853043 181.78194 
L 470.441655 165.804687 
L 472.030267 147.282385 
L 473.618879 126.28573 
L 475.207491 107.480644 
L 476.796103 102.602634 
L 478.384715 102.178459 
L 479.973327 99.067843 
L 481.56194 98.926451 
L 481.56194 98.926451 
" style="fill:none;stroke:#c44e52;stroke-linecap:square;stroke-width:2;"/>
   </g>
   <g id="line2d_66">
    <path clip-path="url(#p2a047fefee)" d="M 12.92137 297.1575 
L 65.345569 297.069965 
L 71.700018 296.223791 
L 73.28863 295.669401 
L 76.465854 295.173368 
L 78.054466 294.823227 
L 79.643078 294.181301 
L 81.23169 292.226347 
L 82.820302 291.263459 
L 84.408915 290.767426 
L 87.586139 287.907941 
L 89.174751 287.528622 
L 90.763363 286.303128 
L 92.351975 287.616157 
L 93.940587 287.586979 
L 95.529199 284.844207 
L 97.117811 283.589535 
L 98.706423 281.226083 
L 100.295036 279.212773 
L 101.883648 277.403711 
L 103.47226 274.981902 
L 105.060872 273.9023 
L 106.649484 271.305421 
L 108.238096 266.928658 
L 109.826708 263.777389 
L 111.41532 264.273422 
L 113.003932 263.135464 
L 114.592544 266.403447 
L 116.181157 263.95246 
L 117.769769 265.673986 
L 119.358381 269.175397 
L 120.946993 273.202018 
L 122.535605 267.804011 
L 124.124217 267.949903 
L 125.712829 263.427248 
L 128.890053 261.268045 
L 130.478665 258.350203 
L 132.067278 257.358137 
L 133.65589 260.421871 
L 135.244502 261.618186 
L 136.833114 264.069173 
L 138.421726 267.716476 
L 140.010338 270.22582 
L 141.59895 274.252441 
L 143.187562 273.785587 
L 144.776174 275.3904 
L 146.364786 275.448757 
L 147.953399 275.01108 
L 149.542011 275.215329 
L 151.130623 274.981902 
L 152.719235 274.194085 
L 154.307847 275.332043 
L 155.896459 275.56547 
L 157.485071 276.820142 
L 159.073683 277.462067 
L 160.662295 275.769719 
L 162.250907 275.594649 
L 165.428132 276.907678 
L 167.016744 276.557537 
L 168.605356 279.883876 
L 170.193968 279.679627 
L 171.78258 280.00059 
L 173.371192 280.963478 
L 174.959804 281.605403 
L 176.548416 282.714183 
L 178.137028 284.669137 
L 179.725641 281.605403 
L 181.314253 281.809652 
L 182.902865 283.998033 
L 184.491477 284.202282 
L 186.080089 284.902564 
L 187.668701 284.318996 
L 189.257313 284.494066 
L 190.845925 285.077635 
L 192.434537 285.398597 
L 194.023149 285.602846 
L 195.611762 287.295195 
L 197.200374 287.324373 
L 198.788986 287.703692 
L 200.377598 287.266016 
L 201.96621 286.945054 
L 203.554822 287.995477 
L 205.143434 287.995477 
L 206.732046 287.207659 
L 208.320658 288.141369 
L 209.90927 288.695759 
L 211.497883 287.236838 
L 213.086495 288.024655 
L 214.675107 287.266016 
L 216.263719 287.061767 
L 217.852331 287.032589 
L 219.440943 285.777917 
L 221.029555 286.565734 
L 222.618167 288.228904 
L 224.206779 287.966298 
L 225.795391 288.374796 
L 227.384004 288.929186 
L 228.972616 289.833717 
L 230.561228 289.921252 
L 232.14984 288.900008 
L 235.327064 288.695759 
L 236.915676 287.849584 
L 238.504288 287.411908 
L 240.0929 285.398597 
L 241.681512 283.968855 
L 243.270125 283.589535 
L 244.858737 283.064324 
L 246.447349 283.268573 
L 248.035961 282.159793 
L 249.624573 279.387843 
L 251.213185 278.920988 
L 252.801797 279.679627 
L 254.390409 278.074814 
L 255.979021 277.695495 
L 257.567633 273.931479 
L 260.744858 272.239131 
L 262.33347 268.445936 
L 263.922082 267.278799 
L 265.510694 269.000326 
L 267.099306 264.68192 
L 268.687918 265.907414 
L 270.27653 267.687297 
L 271.865142 269.058683 
L 273.453754 271.188708 
L 275.042367 270.517604 
L 276.630979 268.358401 
L 278.219591 269.992392 
L 279.808203 269.175397 
L 281.396815 266.870302 
L 282.985427 266.987015 
L 286.162651 262.872858 
L 287.751263 261.559829 
L 289.339875 261.7349 
L 290.928488 260.976261 
L 292.5171 260.917904 
L 294.105712 259.050485 
L 295.694324 260.888726 
L 297.282936 260.480228 
L 298.871548 259.779946 
L 300.46016 259.488162 
L 302.048772 259.313091 
L 303.637384 260.392693 
L 305.225996 261.063796 
L 306.814609 261.530651 
L 308.403221 263.602319 
L 309.991833 263.777389 
L 313.169057 267.541405 
L 314.757669 266.520161 
L 316.346281 266.024127 
L 317.934893 265.090418 
L 319.523505 265.7907 
L 321.112117 265.849057 
L 322.70073 265.323845 
L 324.289342 264.623563 
L 325.877954 266.490982 
L 327.466566 267.016194 
L 329.055178 266.053306 
L 330.64379 265.994949 
L 332.232402 266.753588 
L 333.821014 266.753588 
L 335.409626 265.7907 
L 336.998238 263.339713 
L 338.586851 263.57314 
L 340.175463 264.798634 
L 341.764075 265.703165 
L 344.941299 266.957837 
L 346.529911 267.979081 
L 348.118523 271.247064 
L 349.707135 270.342533 
L 351.295747 271.947346 
L 352.884359 269.642251 
L 357.650196 272.61845 
L 359.238808 272.822699 
L 360.82742 274.690118 
L 362.416032 275.623827 
L 365.593256 277.170283 
L 367.181868 276.440823 
L 368.77048 278.045636 
L 370.359093 279.212773 
L 371.947705 279.037702 
L 373.536317 278.16235 
L 375.124929 278.89181 
L 376.713541 278.629204 
L 378.302153 279.533735 
L 379.890765 279.329486 
L 381.479377 277.111926 
L 383.067989 276.207396 
L 384.656601 278.775096 
L 386.245214 279.504557 
L 389.422438 279.913055 
L 391.01105 279.592092 
L 392.599662 280.321553 
L 394.188274 282.013901 
L 395.776886 279.4462 
L 397.365498 279.883876 
L 398.95411 279.62127 
L 400.542722 277.928922 
L 402.131335 277.345354 
L 403.719947 277.520424 
L 405.308559 276.061503 
L 406.897171 275.069437 
L 408.485783 271.130351 
L 410.074395 269.700608 
L 411.663007 270.751031 
L 413.251619 269.817322 
L 414.840231 267.833189 
L 416.428843 267.424692 
L 418.017456 267.220443 
L 419.606068 269.496359 
L 421.19468 269.788143 
L 422.783292 267.103729 
L 424.371904 266.34509 
L 425.960516 266.17002 
L 427.549128 265.61563 
L 429.13774 266.140841 
L 430.726352 266.89948 
L 432.314964 264.68192 
L 433.903577 266.695231 
L 435.492189 266.111663 
L 437.080801 266.89948 
L 438.669413 266.811945 
L 440.258025 265.323845 
L 441.846637 262.260111 
L 443.435249 262.46436 
L 445.023861 260.859547 
L 446.612473 260.62612 
L 448.201085 260.567763 
L 451.37831 259.283913 
L 452.966922 254.732079 
L 454.555534 251.172312 
L 456.144146 249.713391 
L 457.732758 246.357873 
L 459.32137 245.570056 
L 460.909982 234.97829 
L 462.498594 226.341478 
L 464.087206 222.052251 
L 465.675819 219.601264 
L 467.264431 212.569265 
L 468.853043 210.147456 
L 470.441655 204.16588 
L 472.030267 209.622244 
L 473.618879 206.55851 
L 475.207491 198.797051 
L 476.796103 192.698762 
L 478.384715 190.043526 
L 479.973327 181.465071 
L 481.56194 176.533918 
L 481.56194 176.533918 
" style="fill:none;stroke:#8172b2;stroke-linecap:square;stroke-width:2;"/>
   </g>
   <g id="line2d_67">
    <path clip-path="url(#p2a047fefee)" d="M 12.92137 297.1575 
L 85.997527 297.075383 
L 87.586139 297.034324 
L 89.174751 296.87009 
L 92.351975 296.787972 
L 93.940587 296.500562 
L 95.529199 295.843623 
L 97.117811 295.556213 
L 98.706423 294.488688 
L 100.295036 293.749633 
L 101.883648 292.230463 
L 103.47226 290.300707 
L 105.060872 287.303426 
L 106.649484 282.006861 
L 108.238096 277.120883 
L 109.826708 270.879969 
L 111.41532 265.378111 
L 113.003932 258.398142 
L 114.592544 250.432765 
L 116.181157 247.024898 
L 117.769769 237.622469 
L 119.358381 225.140641 
L 120.946993 219.105021 
L 122.535605 203.954382 
L 124.124217 192.909607 
L 125.712829 186.422342 
L 127.301441 174.884863 
L 128.890053 166.714194 
L 130.478665 164.250675 
L 132.067278 157.065413 
L 133.65589 165.071848 
L 135.244502 165.810903 
L 136.833114 169.136653 
L 138.421726 174.597453 
L 140.010338 173.324635 
L 141.59895 172.25711 
L 143.187562 174.310042 
L 144.776174 179.647666 
L 146.364786 184.533644 
L 147.953399 178.169555 
L 149.542011 165.687727 
L 151.130623 166.549959 
L 152.719235 161.08916 
L 154.307847 161.048101 
L 155.896459 159.528931 
L 157.485071 161.048101 
L 159.073683 156.860119 
L 160.662295 182.111184 
L 162.250907 164.045382 
L 163.83952 163.306326 
L 165.428132 165.851962 
L 167.016744 162.156684 
L 168.605356 166.919487 
L 170.193968 175.418626 
L 171.78258 163.634795 
L 173.371192 191.267262 
L 174.959804 199.437931 
L 176.548416 200.505456 
L 178.137028 200.38228 
L 179.725641 203.831206 
L 181.314253 209.825768 
L 182.902865 211.673407 
L 184.491477 213.151518 
L 186.080089 221.938067 
L 187.668701 226.331342 
L 189.257313 239.880694 
L 190.845925 229.944503 
L 192.434537 231.792142 
L 194.023149 232.284845 
L 195.611762 231.176262 
L 197.200374 229.000154 
L 198.788986 230.31403 
L 200.377598 230.31403 
L 201.96621 227.727336 
L 203.554822 231.094145 
L 205.143434 230.806734 
L 206.732046 237.622469 
L 208.320658 239.839635 
L 211.497883 239.880694 
L 213.086495 246.244784 
L 214.675107 243.9455 
L 216.263719 248.503009 
L 217.852331 250.720176 
L 219.440943 256.01674 
L 221.029555 260.204722 
L 222.618167 260.204722 
L 224.206779 263.9 
L 225.795391 264.80329 
L 227.384004 264.680114 
L 228.972616 263.243061 
L 230.561228 263.448355 
L 232.14984 263.941058 
L 233.738452 263.941058 
L 235.327064 264.967524 
L 236.915676 265.583404 
L 238.504288 268.252216 
L 240.0929 271.865376 
L 241.681512 271.988552 
L 243.270125 276.505003 
L 244.858737 276.505003 
L 246.447349 270.83891 
L 248.035961 266.60987 
L 249.624573 264.80329 
L 251.213185 267.595278 
L 252.801797 262.175537 
L 255.979021 262.175537 
L 257.567633 261.231188 
L 259.156246 264.392703 
L 260.744858 263.735765 
L 262.33347 257.864379 
L 263.922082 262.545065 
L 265.510694 261.354364 
L 267.099306 261.354364 
L 271.865142 267.923747 
L 273.453754 263.160944 
L 275.042367 264.105293 
L 276.630979 264.228469 
L 278.219591 264.228469 
L 279.808203 265.747639 
L 281.396815 263.407296 
L 282.985427 260.286839 
L 284.574039 264.474821 
L 286.162651 263.571531 
L 287.751263 263.119886 
L 289.339875 263.119886 
L 290.928488 255.400861 
L 292.5171 255.318744 
L 294.105712 255.811447 
L 297.282936 250.186413 
L 298.871548 251.705583 
L 300.46016 251.705583 
L 302.048772 247.435484 
L 303.637384 247.763953 
L 305.225996 247.763953 
L 306.814609 251.541348 
L 308.403221 254.004867 
L 311.580445 254.004867 
L 313.169057 261.76495 
L 314.757669 263.243061 
L 317.934893 265.41917 
L 319.523505 265.70658 
L 322.70073 265.70658 
L 324.289342 265.008583 
L 325.877954 263.776824 
L 327.466566 262.339771 
L 329.055178 259.219315 
L 330.64379 258.685552 
L 332.232402 253.388987 
L 333.821014 253.388987 
L 335.409626 260.204722 
L 336.998238 262.339771 
L 338.586851 262.504006 
L 340.175463 265.788697 
L 341.764075 267.020457 
L 343.352687 266.363518 
L 344.941299 266.363518 
L 346.529911 268.170099 
L 348.118523 268.12904 
L 349.707135 268.991271 
L 351.295747 269.689268 
L 352.884359 268.252216 
L 354.472972 269.607151 
L 356.061584 269.607151 
L 357.650196 267.431043 
L 359.238808 265.542345 
L 360.82742 260.656367 
L 362.416032 257.412734 
L 364.004644 258.15179 
L 365.593256 262.750358 
L 367.181868 262.750358 
L 368.77048 259.34249 
L 370.359093 262.955651 
L 371.947705 272.604432 
L 373.536317 273.507722 
L 375.124929 274.944775 
L 376.713541 270.510441 
L 378.302153 270.510441 
L 379.890765 274.246778 
L 381.479377 272.440197 
L 383.067989 268.457509 
L 384.656601 270.797852 
L 386.245214 272.645491 
L 387.833826 277.079824 
L 389.422438 277.079824 
L 391.01105 273.836191 
L 392.599662 274.287836 
L 394.188274 274.041484 
L 397.365498 272.35808 
L 400.542722 272.35808 
L 402.131335 271.413731 
L 403.719947 249.283123 
L 405.308559 246.983839 
L 406.897171 245.875256 
L 408.485783 243.165385 
L 411.663007 243.165385 
L 413.251619 241.52304 
L 414.840231 255.441919 
L 416.428843 254.538629 
L 419.606068 245.218318 
L 422.783292 245.218318 
L 424.371904 257.741203 
L 425.960516 242.549506 
L 427.549128 238.566818 
L 429.13774 241.52304 
L 430.726352 239.182697 
L 433.903577 239.182697 
L 435.492189 213.562104 
L 437.080801 228.137922 
L 438.669413 230.149796 
L 440.258025 227.727336 
L 441.846637 223.539354 
L 445.023861 223.539354 
L 446.612473 206.828487 
L 448.201085 203.913323 
L 449.789698 197.918762 
L 451.37831 191.30832 
L 452.966922 193.155959 
L 456.144146 193.155959 
L 457.732758 196.645944 
L 459.32137 185.149524 
L 460.909982 184.287292 
L 462.498594 183.096592 
L 464.087206 167.001604 
L 467.264431 167.001604 
L 468.853043 132.717638 
L 470.441655 122.206625 
L 472.030267 138.465848 
L 473.618879 108.45198 
L 475.207491 89.893474 
L 478.384715 89.893474 
L 479.973327 57.128677 
L 481.56194 50.066591 
L 481.56194 50.066591 
" style="fill:none;stroke:#ccb974;stroke-linecap:square;stroke-width:2;"/>
   </g>
   <g id="patch_3">
    <path d="M 43.105 297.1575 
L 43.105 25.3575 
" style="fill:none;stroke:#000000;stroke-linecap:square;stroke-linejoin:miter;stroke-width:0.8;"/>
   </g>
   <g id="patch_4">
    <path d="M 43.105 297.1575 
L 489.505 297.1575 
" style="fill:none;stroke:#000000;stroke-linecap:square;stroke-linejoin:miter;stroke-width:0.8;"/>
   </g>
   <g id="text_16">
    <!-- Los Angeles, CA -->
    <defs>
     <path d="M 9.8125 72.90625 
L 19.671875 72.90625 
L 19.671875 8.296875 
L 55.171875 8.296875 
L 55.171875 0 
L 9.8125 0 
z
" id="DejaVuSans-76"/>
     <path d="M 44.28125 53.078125 
L 44.28125 44.578125 
Q 40.484375 46.53125 36.375 47.5 
Q 32.28125 48.484375 27.875 48.484375 
Q 21.1875 48.484375 17.84375 46.4375 
Q 14.5 44.390625 14.5 40.28125 
Q 14.5 37.15625 16.890625 35.375 
Q 19.28125 33.59375 26.515625 31.984375 
L 29.59375 31.296875 
Q 39.15625 29.25 43.1875 25.515625 
Q 47.21875 21.78125 47.21875 15.09375 
Q 47.21875 7.46875 41.1875 3.015625 
Q 35.15625 -1.421875 24.609375 -1.421875 
Q 20.21875 -1.421875 15.453125 -0.5625 
Q 10.6875 0.296875 5.421875 2 
L 5.421875 11.28125 
Q 10.40625 8.6875 15.234375 7.390625 
Q 20.0625 6.109375 24.8125 6.109375 
Q 31.15625 6.109375 34.5625 8.28125 
Q 37.984375 10.453125 37.984375 14.40625 
Q 37.984375 18.0625 35.515625 20.015625 
Q 33.0625 21.96875 24.703125 23.78125 
L 21.578125 24.515625 
Q 13.234375 26.265625 9.515625 29.90625 
Q 5.8125 33.546875 5.8125 39.890625 
Q 5.8125 47.609375 11.28125 51.796875 
Q 16.75 56 26.8125 56 
Q 31.78125 56 36.171875 55.265625 
Q 40.578125 54.546875 44.28125 53.078125 
z
" id="DejaVuSans-115"/>
     <path id="DejaVuSans-32"/>
     <path d="M 11.71875 12.40625 
L 22.015625 12.40625 
L 22.015625 4 
L 14.015625 -11.625 
L 7.71875 -11.625 
L 11.71875 4 
z
" id="DejaVuSans-44"/>
     <path d="M 64.40625 67.28125 
L 64.40625 56.890625 
Q 59.421875 61.53125 53.78125 63.8125 
Q 48.140625 66.109375 41.796875 66.109375 
Q 29.296875 66.109375 22.65625 58.46875 
Q 16.015625 50.828125 16.015625 36.375 
Q 16.015625 21.96875 22.65625 14.328125 
Q 29.296875 6.6875 41.796875 6.6875 
Q 48.140625 6.6875 53.78125 8.984375 
Q 59.421875 11.28125 64.40625 15.921875 
L 64.40625 5.609375 
Q 59.234375 2.09375 53.4375 0.328125 
Q 47.65625 -1.421875 41.21875 -1.421875 
Q 24.65625 -1.421875 15.125 8.703125 
Q 5.609375 18.84375 5.609375 36.375 
Q 5.609375 53.953125 15.125 64.078125 
Q 24.65625 74.21875 41.21875 74.21875 
Q 47.75 74.21875 53.53125 72.484375 
Q 59.328125 70.75 64.40625 67.28125 
z
" id="DejaVuSans-67"/>
    </defs>
    <g style="fill:#4c72b0;" transform="translate(486.56194 194.816247)scale(0.14 -0.14)">
     <use xlink:href="#DejaVuSans-76"/>
     <use x="53.962891" xlink:href="#DejaVuSans-111"/>
     <use x="115.144531" xlink:href="#DejaVuSans-115"/>
     <use x="167.244141" xlink:href="#DejaVuSans-32"/>
     <use x="199.03125" xlink:href="#DejaVuSans-65"/>
     <use x="267.439453" xlink:href="#DejaVuSans-110"/>
     <use x="330.818359" xlink:href="#DejaVuSans-103"/>
     <use x="394.294922" xlink:href="#DejaVuSans-101"/>
     <use x="455.818359" xlink:href="#DejaVuSans-108"/>
     <use x="483.601562" xlink:href="#DejaVuSans-101"/>
     <use x="545.125" xlink:href="#DejaVuSans-115"/>
     <use x="597.224609" xlink:href="#DejaVuSans-44"/>
     <use x="629.011719" xlink:href="#DejaVuSans-32"/>
     <use x="660.798828" xlink:href="#DejaVuSans-67"/>
     <use x="730.623047" xlink:href="#DejaVuSans-65"/>
    </g>
   </g>
   <g id="text_17">
    <!-- Allegheny, PA -->
    <defs>
     <path d="M 54.890625 33.015625 
L 54.890625 0 
L 45.90625 0 
L 45.90625 32.71875 
Q 45.90625 40.484375 42.875 44.328125 
Q 39.84375 48.1875 33.796875 48.1875 
Q 26.515625 48.1875 22.3125 43.546875 
Q 18.109375 38.921875 18.109375 30.90625 
L 18.109375 0 
L 9.078125 0 
L 9.078125 75.984375 
L 18.109375 75.984375 
L 18.109375 46.1875 
Q 21.34375 51.125 25.703125 53.5625 
Q 30.078125 56 35.796875 56 
Q 45.21875 56 50.046875 50.171875 
Q 54.890625 44.34375 54.890625 33.015625 
z
" id="DejaVuSans-104"/>
     <path d="M 19.671875 64.796875 
L 19.671875 37.40625 
L 32.078125 37.40625 
Q 38.96875 37.40625 42.71875 40.96875 
Q 46.484375 44.53125 46.484375 51.125 
Q 46.484375 57.671875 42.71875 61.234375 
Q 38.96875 64.796875 32.078125 64.796875 
z
M 9.8125 72.90625 
L 32.078125 72.90625 
Q 44.34375 72.90625 50.609375 67.359375 
Q 56.890625 61.8125 56.890625 51.125 
Q 56.890625 40.328125 50.609375 34.8125 
Q 44.34375 29.296875 32.078125 29.296875 
L 19.671875 29.296875 
L 19.671875 0 
L 9.8125 0 
z
" id="DejaVuSans-80"/>
    </defs>
    <g style="fill:#55a868;" transform="translate(486.56194 149.407649)scale(0.14 -0.14)">
     <use xlink:href="#DejaVuSans-65"/>
     <use x="68.408203" xlink:href="#DejaVuSans-108"/>
     <use x="96.191406" xlink:href="#DejaVuSans-108"/>
     <use x="123.974609" xlink:href="#DejaVuSans-101"/>
     <use x="185.498047" xlink:href="#DejaVuSans-103"/>
     <use x="248.974609" xlink:href="#DejaVuSans-104"/>
     <use x="312.353516" xlink:href="#DejaVuSans-101"/>
     <use x="373.876953" xlink:href="#DejaVuSans-110"/>
     <use x="437.255859" xlink:href="#DejaVuSans-121"/>
     <use x="496.435547" xlink:href="#DejaVuSans-44"/>
     <use x="528.222656" xlink:href="#DejaVuSans-32"/>
     <use x="560.009766" xlink:href="#DejaVuSans-80"/>
     <use x="613.9375" xlink:href="#DejaVuSans-65"/>
    </g>
   </g>
   <g id="text_18">
    <!-- Erie, NY -->
    <defs>
     <path d="M 9.8125 72.90625 
L 55.90625 72.90625 
L 55.90625 64.59375 
L 19.671875 64.59375 
L 19.671875 43.015625 
L 54.390625 43.015625 
L 54.390625 34.71875 
L 19.671875 34.71875 
L 19.671875 8.296875 
L 56.78125 8.296875 
L 56.78125 0 
L 9.8125 0 
z
" id="DejaVuSans-69"/>
     <path d="M 9.421875 54.6875 
L 18.40625 54.6875 
L 18.40625 0 
L 9.421875 0 
z
M 9.421875 75.984375 
L 18.40625 75.984375 
L 18.40625 64.59375 
L 9.421875 64.59375 
z
" id="DejaVuSans-105"/>
     <path d="M -0.203125 72.90625 
L 10.40625 72.90625 
L 30.609375 42.921875 
L 50.6875 72.90625 
L 61.28125 72.90625 
L 35.5 34.71875 
L 35.5 0 
L 25.59375 0 
L 25.59375 34.71875 
z
" id="DejaVuSans-89"/>
    </defs>
    <g style="fill:#c44e52;" transform="translate(486.56194 102.926451)scale(0.14 -0.14)">
     <use xlink:href="#DejaVuSans-69"/>
     <use x="63.183594" xlink:href="#DejaVuSans-114"/>
     <use x="104.296875" xlink:href="#DejaVuSans-105"/>
     <use x="132.080078" xlink:href="#DejaVuSans-101"/>
     <use x="193.603516" xlink:href="#DejaVuSans-44"/>
     <use x="225.390625" xlink:href="#DejaVuSans-32"/>
     <use x="257.177734" xlink:href="#DejaVuSans-78"/>
     <use x="331.982422" xlink:href="#DejaVuSans-89"/>
    </g>
   </g>
   <g id="text_19">
    <!-- King, WA -->
    <defs>
     <path d="M 9.8125 72.90625 
L 19.671875 72.90625 
L 19.671875 42.09375 
L 52.390625 72.90625 
L 65.09375 72.90625 
L 28.90625 38.921875 
L 67.671875 0 
L 54.6875 0 
L 19.671875 35.109375 
L 19.671875 0 
L 9.8125 0 
z
" id="DejaVuSans-75"/>
     <path d="M 3.328125 72.90625 
L 13.28125 72.90625 
L 28.609375 11.28125 
L 43.890625 72.90625 
L 54.984375 72.90625 
L 70.3125 11.28125 
L 85.59375 72.90625 
L 95.609375 72.90625 
L 77.296875 0 
L 64.890625 0 
L 49.515625 63.28125 
L 33.984375 0 
L 21.578125 0 
z
" id="DejaVuSans-87"/>
    </defs>
    <g style="fill:#8172b2;" transform="translate(486.56194 180.533918)scale(0.14 -0.14)">
     <use xlink:href="#DejaVuSans-75"/>
     <use x="65.576172" xlink:href="#DejaVuSans-105"/>
     <use x="93.359375" xlink:href="#DejaVuSans-110"/>
     <use x="156.738281" xlink:href="#DejaVuSans-103"/>
     <use x="220.214844" xlink:href="#DejaVuSans-44"/>
     <use x="252.001953" xlink:href="#DejaVuSans-32"/>
     <use x="283.789062" xlink:href="#DejaVuSans-87"/>
     <use x="377.166016" xlink:href="#DejaVuSans-65"/>
    </g>
   </g>
   <g id="text_20">
    <!-- Philadelphia, PA -->
    <defs>
     <path d="M 45.40625 46.390625 
L 45.40625 75.984375 
L 54.390625 75.984375 
L 54.390625 0 
L 45.40625 0 
L 45.40625 8.203125 
Q 42.578125 3.328125 38.25 0.953125 
Q 33.9375 -1.421875 27.875 -1.421875 
Q 17.96875 -1.421875 11.734375 6.484375 
Q 5.515625 14.40625 5.515625 27.296875 
Q 5.515625 40.1875 11.734375 48.09375 
Q 17.96875 56 27.875 56 
Q 33.9375 56 38.25 53.625 
Q 42.578125 51.265625 45.40625 46.390625 
z
M 14.796875 27.296875 
Q 14.796875 17.390625 18.875 11.75 
Q 22.953125 6.109375 30.078125 6.109375 
Q 37.203125 6.109375 41.296875 11.75 
Q 45.40625 17.390625 45.40625 27.296875 
Q 45.40625 37.203125 41.296875 42.84375 
Q 37.203125 48.484375 30.078125 48.484375 
Q 22.953125 48.484375 18.875 42.84375 
Q 14.796875 37.203125 14.796875 27.296875 
z
" id="DejaVuSans-100"/>
    </defs>
    <g style="fill:#ccb974;" transform="translate(486.56194 54.066591)scale(0.14 -0.14)">
     <use xlink:href="#DejaVuSans-80"/>
     <use x="60.302734" xlink:href="#DejaVuSans-104"/>
     <use x="123.681641" xlink:href="#DejaVuSans-105"/>
     <use x="151.464844" xlink:href="#DejaVuSans-108"/>
     <use x="179.248047" xlink:href="#DejaVuSans-97"/>
     <use x="240.527344" xlink:href="#DejaVuSans-100"/>
     <use x="304.003906" xlink:href="#DejaVuSans-101"/>
     <use x="365.527344" xlink:href="#DejaVuSans-108"/>
     <use x="393.310547" xlink:href="#DejaVuSans-112"/>
     <use x="456.787109" xlink:href="#DejaVuSans-104"/>
     <use x="520.166016" xlink:href="#DejaVuSans-105"/>
     <use x="547.949219" xlink:href="#DejaVuSans-97"/>
     <use x="609.228516" xlink:href="#DejaVuSans-44"/>
     <use x="641.015625" xlink:href="#DejaVuSans-32"/>
     <use x="672.802734" xlink:href="#DejaVuSans-80"/>
     <use x="726.730469" xlink:href="#DejaVuSans-65"/>
    </g>
   </g>
   <g id="text_21">
    <!-- Cases per million people -->
    <defs>
     <path d="M 52 44.1875 
Q 55.375 50.25 60.0625 53.125 
Q 64.75 56 71.09375 56 
Q 79.640625 56 84.28125 50.015625 
Q 88.921875 44.046875 88.921875 33.015625 
L 88.921875 0 
L 79.890625 0 
L 79.890625 32.71875 
Q 79.890625 40.578125 77.09375 44.375 
Q 74.3125 48.1875 68.609375 48.1875 
Q 61.625 48.1875 57.5625 43.546875 
Q 53.515625 38.921875 53.515625 30.90625 
L 53.515625 0 
L 44.484375 0 
L 44.484375 32.71875 
Q 44.484375 40.625 41.703125 44.40625 
Q 38.921875 48.1875 33.109375 48.1875 
Q 26.21875 48.1875 22.15625 43.53125 
Q 18.109375 38.875 18.109375 30.90625 
L 18.109375 0 
L 9.078125 0 
L 9.078125 54.6875 
L 18.109375 54.6875 
L 18.109375 46.1875 
Q 21.1875 51.21875 25.484375 53.609375 
Q 29.78125 56 35.6875 56 
Q 41.65625 56 45.828125 52.96875 
Q 50 49.953125 52 44.1875 
z
" id="DejaVuSans-109"/>
    </defs>
    <g style="fill:#262626;" transform="translate(167.87375 19.3575)scale(0.16 -0.16)">
     <use xlink:href="#DejaVuSans-67"/>
     <use x="69.824219" xlink:href="#DejaVuSans-97"/>
     <use x="131.103516" xlink:href="#DejaVuSans-115"/>
     <use x="183.203125" xlink:href="#DejaVuSans-101"/>
     <use x="244.726562" xlink:href="#DejaVuSans-115"/>
     <use x="296.826172" xlink:href="#DejaVuSans-32"/>
     <use x="328.613281" xlink:href="#DejaVuSans-112"/>
     <use x="392.089844" xlink:href="#DejaVuSans-101"/>
     <use x="453.613281" xlink:href="#DejaVuSans-114"/>
     <use x="494.726562" xlink:href="#DejaVuSans-32"/>
     <use x="526.513672" xlink:href="#DejaVuSans-109"/>
     <use x="623.925781" xlink:href="#DejaVuSans-105"/>
     <use x="651.708984" xlink:href="#DejaVuSans-108"/>
     <use x="679.492188" xlink:href="#DejaVuSans-108"/>
     <use x="707.275391" xlink:href="#DejaVuSans-105"/>
     <use x="735.058594" xlink:href="#DejaVuSans-111"/>
     <use x="796.240234" xlink:href="#DejaVuSans-110"/>
     <use x="859.619141" xlink:href="#DejaVuSans-32"/>
     <use x="891.40625" xlink:href="#DejaVuSans-112"/>
     <use x="954.882812" xlink:href="#DejaVuSans-101"/>
     <use x="1016.40625" xlink:href="#DejaVuSans-111"/>
     <use x="1077.587891" xlink:href="#DejaVuSans-112"/>
     <use x="1141.064453" xlink:href="#DejaVuSans-108"/>
     <use x="1168.847656" xlink:href="#DejaVuSans-101"/>
    </g>
   </g>
   <g id="legend_1"/>
   <g id="PathCollection_1">
    <defs>
     <path d="M 0 2.236068 
C 0.593012 2.236068 1.161816 2.000462 1.581139 1.581139 
C 2.000462 1.161816 2.236068 0.593012 2.236068 0 
C 2.236068 -0.593012 2.000462 -1.161816 1.581139 -1.581139 
C 1.161816 -2.000462 0.593012 -2.236068 0 -2.236068 
C -0.593012 -2.236068 -1.161816 -2.000462 -1.581139 -1.581139 
C -2.000462 -1.161816 -2.236068 -0.593012 -2.236068 0 
C -2.236068 0.593012 -2.000462 1.161816 -1.581139 1.581139 
C -1.161816 2.000462 -0.593012 2.236068 0 2.236068 
z
" id="C0_0_c96f6fcc80"/>
    </defs>
    <g clip-path="url(#p2a047fefee)">
     <use style="fill:#4c72b0;stroke:#4c72b0;" x="481.56194" xlink:href="#C0_0_c96f6fcc80" y="190.816247"/>
    </g>
    <g clip-path="url(#p2a047fefee)">
     <use style="fill:#55a868;stroke:#55a868;" x="481.56194" xlink:href="#C0_0_c96f6fcc80" y="145.407649"/>
    </g>
    <g clip-path="url(#p2a047fefee)">
     <use style="fill:#c44e52;stroke:#c44e52;" x="481.56194" xlink:href="#C0_0_c96f6fcc80" y="98.926451"/>
    </g>
    <g clip-path="url(#p2a047fefee)">
     <use style="fill:#8172b2;stroke:#8172b2;" x="481.56194" xlink:href="#C0_0_c96f6fcc80" y="176.533918"/>
    </g>
    <g clip-path="url(#p2a047fefee)">
     <use style="fill:#ccb974;stroke:#ccb974;" x="481.56194" xlink:href="#C0_0_c96f6fcc80" y="50.066591"/>
    </g>
   </g>
  </g>
 </g>
 <defs>
  <clipPath id="p2a047fefee">
   <rect height="271.8" width="446.4" x="43.105" y="25.3575"/>
  </clipPath>
 </defs>
</svg>
