<?xml version="1.0" encoding="utf-8" standalone="no"?>
<!DOCTYPE svg PUBLIC "-//W3C//DTD SVG 1.1//EN"
  "http://www.w3.org/Graphics/SVG/1.1/DTD/svg11.dtd">
<!-- Created with matplotlib (https://matplotlib.org/) -->
<svg height="342.408625pt" version="1.1" viewBox="0 0 550.446071 342.408625" width="550.446071pt" xmlns="http://www.w3.org/2000/svg" xmlns:xlink="http://www.w3.org/1999/xlink">
 <defs>
  <style type="text/css">
*{stroke-linecap:butt;stroke-linejoin:round;}
  </style>
 </defs>
 <g id="figure_1">
  <g id="patch_1">
   <path d="M 0 342.408625 
L 550.446071 342.408625 
L 550.446071 0 
L 0 0 
z
" style="fill:#ffffff;"/>
  </g>
  <g id="axes_1">
   <g id="patch_2">
    <path d="M 35.47 297.1575 
L 481.87 297.1575 
L 481.87 25.3575 
L 35.47 25.3575 
z
" style="fill:#ffffff;"/>
   </g>
   <g id="matplotlib.axis_1">
    <g id="xtick_1">
     <g id="line2d_1">
      <defs>
       <path d="M 0 0 
L 0 6 
" id="mf08fc65924" style="stroke:#262626;"/>
      </defs>
      <g>
       <use style="fill:#262626;stroke:#262626;" x="35.47" xlink:href="#mf08fc65924" y="297.1575"/>
      </g>
     </g>
    </g>
    <g id="xtick_2">
     <g id="line2d_2">
      <g>
       <use style="fill:#262626;stroke:#262626;" x="59.384286" xlink:href="#mf08fc65924" y="297.1575"/>
      </g>
     </g>
     <g id="text_1">
      <!-- Mar -->
      <defs>
       <path d="M 9.8125 72.90625 
L 24.515625 72.90625 
L 43.109375 23.296875 
L 61.8125 72.90625 
L 76.515625 72.90625 
L 76.515625 0 
L 66.890625 0 
L 66.890625 64.015625 
L 48.09375 14.015625 
L 38.1875 14.015625 
L 19.390625 64.015625 
L 19.390625 0 
L 9.8125 0 
z
" id="DejaVuSans-77"/>
       <path d="M 34.28125 27.484375 
Q 23.390625 27.484375 19.1875 25 
Q 14.984375 22.515625 14.984375 16.5 
Q 14.984375 11.71875 18.140625 8.90625 
Q 21.296875 6.109375 26.703125 6.109375 
Q 34.1875 6.109375 38.703125 11.40625 
Q 43.21875 16.703125 43.21875 25.484375 
L 43.21875 27.484375 
z
M 52.203125 31.203125 
L 52.203125 0 
L 43.21875 0 
L 43.21875 8.296875 
Q 40.140625 3.328125 35.546875 0.953125 
Q 30.953125 -1.421875 24.3125 -1.421875 
Q 15.921875 -1.421875 10.953125 3.296875 
Q 6 8.015625 6 15.921875 
Q 6 25.140625 12.171875 29.828125 
Q 18.359375 34.515625 30.609375 34.515625 
L 43.21875 34.515625 
L 43.21875 35.40625 
Q 43.21875 41.609375 39.140625 45 
Q 35.0625 48.390625 27.6875 48.390625 
Q 23 48.390625 18.546875 47.265625 
Q 14.109375 46.140625 10.015625 43.890625 
L 10.015625 52.203125 
Q 14.9375 54.109375 19.578125 55.046875 
Q 24.21875 56 28.609375 56 
Q 40.484375 56 46.34375 49.84375 
Q 52.203125 43.703125 52.203125 31.203125 
z
" id="DejaVuSans-97"/>
       <path d="M 41.109375 46.296875 
Q 39.59375 47.171875 37.8125 47.578125 
Q 36.03125 48 33.890625 48 
Q 26.265625 48 22.1875 43.046875 
Q 18.109375 38.09375 18.109375 28.8125 
L 18.109375 0 
L 9.078125 0 
L 9.078125 54.6875 
L 18.109375 54.6875 
L 18.109375 46.1875 
Q 20.953125 51.171875 25.484375 53.578125 
Q 30.03125 56 36.53125 56 
Q 37.453125 56 38.578125 55.875 
Q 39.703125 55.765625 41.0625 55.515625 
z
" id="DejaVuSans-114"/>
      </defs>
      <g style="fill:#262626;" transform="translate(48.063973 319.275625)scale(0.12 -0.12)">
       <use xlink:href="#DejaVuSans-77"/>
       <use x="86.279297" xlink:href="#DejaVuSans-97"/>
       <use x="147.558594" xlink:href="#DejaVuSans-114"/>
      </g>
      <!-- 2020 -->
      <defs>
       <path d="M 19.1875 8.296875 
L 53.609375 8.296875 
L 53.609375 0 
L 7.328125 0 
L 7.328125 8.296875 
Q 12.9375 14.109375 22.625 23.890625 
Q 32.328125 33.6875 34.8125 36.53125 
Q 39.546875 41.84375 41.421875 45.53125 
Q 43.3125 49.21875 43.3125 52.78125 
Q 43.3125 58.59375 39.234375 62.25 
Q 35.15625 65.921875 28.609375 65.921875 
Q 23.96875 65.921875 18.8125 64.3125 
Q 13.671875 62.703125 7.8125 59.421875 
L 7.8125 69.390625 
Q 13.765625 71.78125 18.9375 73 
Q 24.125 74.21875 28.421875 74.21875 
Q 39.75 74.21875 46.484375 68.546875 
Q 53.21875 62.890625 53.21875 53.421875 
Q 53.21875 48.921875 51.53125 44.890625 
Q 49.859375 40.875 45.40625 35.40625 
Q 44.1875 33.984375 37.640625 27.21875 
Q 31.109375 20.453125 19.1875 8.296875 
z
" id="DejaVuSans-50"/>
       <path d="M 31.78125 66.40625 
Q 24.171875 66.40625 20.328125 58.90625 
Q 16.5 51.421875 16.5 36.375 
Q 16.5 21.390625 20.328125 13.890625 
Q 24.171875 6.390625 31.78125 6.390625 
Q 39.453125 6.390625 43.28125 13.890625 
Q 47.125 21.390625 47.125 36.375 
Q 47.125 51.421875 43.28125 58.90625 
Q 39.453125 66.40625 31.78125 66.40625 
z
M 31.78125 74.21875 
Q 44.046875 74.21875 50.515625 64.515625 
Q 56.984375 54.828125 56.984375 36.375 
Q 56.984375 17.96875 50.515625 8.265625 
Q 44.046875 -1.421875 31.78125 -1.421875 
Q 19.53125 -1.421875 13.0625 8.265625 
Q 6.59375 17.96875 6.59375 36.375 
Q 6.59375 54.828125 13.0625 64.515625 
Q 19.53125 74.21875 31.78125 74.21875 
z
" id="DejaVuSans-48"/>
      </defs>
      <g style="fill:#262626;" transform="translate(44.114286 332.713)scale(0.12 -0.12)">
       <use xlink:href="#DejaVuSans-50"/>
       <use x="63.623047" xlink:href="#DejaVuSans-48"/>
       <use x="127.246094" xlink:href="#DejaVuSans-50"/>
       <use x="190.869141" xlink:href="#DejaVuSans-48"/>
      </g>
     </g>
    </g>
    <g id="xtick_3">
     <g id="line2d_3">
      <g>
       <use style="fill:#262626;stroke:#262626;" x="108.807143" xlink:href="#mf08fc65924" y="297.1575"/>
      </g>
     </g>
     <g id="text_2">
      <!-- Apr -->
      <defs>
       <path d="M 34.1875 63.1875 
L 20.796875 26.90625 
L 47.609375 26.90625 
z
M 28.609375 72.90625 
L 39.796875 72.90625 
L 67.578125 0 
L 57.328125 0 
L 50.6875 18.703125 
L 17.828125 18.703125 
L 11.1875 0 
L 0.78125 0 
z
" id="DejaVuSans-65"/>
       <path d="M 18.109375 8.203125 
L 18.109375 -20.796875 
L 9.078125 -20.796875 
L 9.078125 54.6875 
L 18.109375 54.6875 
L 18.109375 46.390625 
Q 20.953125 51.265625 25.265625 53.625 
Q 29.59375 56 35.59375 56 
Q 45.5625 56 51.78125 48.09375 
Q 58.015625 40.1875 58.015625 27.296875 
Q 58.015625 14.40625 51.78125 6.484375 
Q 45.5625 -1.421875 35.59375 -1.421875 
Q 29.59375 -1.421875 25.265625 0.953125 
Q 20.953125 3.328125 18.109375 8.203125 
z
M 48.6875 27.296875 
Q 48.6875 37.203125 44.609375 42.84375 
Q 40.53125 48.484375 33.40625 48.484375 
Q 26.265625 48.484375 22.1875 42.84375 
Q 18.109375 37.203125 18.109375 27.296875 
Q 18.109375 17.390625 22.1875 11.75 
Q 26.265625 6.109375 33.40625 6.109375 
Q 40.53125 6.109375 44.609375 11.75 
Q 48.6875 17.390625 48.6875 27.296875 
z
" id="DejaVuSans-112"/>
      </defs>
      <g style="fill:#262626;" transform="translate(98.427143 319.275625)scale(0.12 -0.12)">
       <use xlink:href="#DejaVuSans-65"/>
       <use x="68.408203" xlink:href="#DejaVuSans-112"/>
       <use x="131.884766" xlink:href="#DejaVuSans-114"/>
      </g>
     </g>
    </g>
    <g id="xtick_4">
     <g id="line2d_4">
      <g>
       <use style="fill:#262626;stroke:#262626;" x="156.635714" xlink:href="#mf08fc65924" y="297.1575"/>
      </g>
     </g>
     <g id="text_3">
      <!-- May -->
      <defs>
       <path d="M 32.171875 -5.078125 
Q 28.375 -14.84375 24.75 -17.8125 
Q 21.140625 -20.796875 15.09375 -20.796875 
L 7.90625 -20.796875 
L 7.90625 -13.28125 
L 13.1875 -13.28125 
Q 16.890625 -13.28125 18.9375 -11.515625 
Q 21 -9.765625 23.484375 -3.21875 
L 25.09375 0.875 
L 2.984375 54.6875 
L 12.5 54.6875 
L 29.59375 11.921875 
L 46.6875 54.6875 
L 56.203125 54.6875 
z
" id="DejaVuSans-121"/>
      </defs>
      <g style="fill:#262626;" transform="translate(144.230714 319.275625)scale(0.12 -0.12)">
       <use xlink:href="#DejaVuSans-77"/>
       <use x="86.279297" xlink:href="#DejaVuSans-97"/>
       <use x="147.558594" xlink:href="#DejaVuSans-121"/>
      </g>
     </g>
    </g>
    <g id="xtick_5">
     <g id="line2d_5">
      <g>
       <use style="fill:#262626;stroke:#262626;" x="206.058571" xlink:href="#mf08fc65924" y="297.1575"/>
      </g>
     </g>
     <g id="text_4">
      <!-- Jun -->
      <defs>
       <path d="M 9.8125 72.90625 
L 19.671875 72.90625 
L 19.671875 5.078125 
Q 19.671875 -8.109375 14.671875 -14.0625 
Q 9.671875 -20.015625 -1.421875 -20.015625 
L -5.171875 -20.015625 
L -5.171875 -11.71875 
L -2.09375 -11.71875 
Q 4.4375 -11.71875 7.125 -8.046875 
Q 9.8125 -4.390625 9.8125 5.078125 
z
" id="DejaVuSans-74"/>
       <path d="M 8.5 21.578125 
L 8.5 54.6875 
L 17.484375 54.6875 
L 17.484375 21.921875 
Q 17.484375 14.15625 20.5 10.265625 
Q 23.53125 6.390625 29.59375 6.390625 
Q 36.859375 6.390625 41.078125 11.03125 
Q 45.3125 15.671875 45.3125 23.6875 
L 45.3125 54.6875 
L 54.296875 54.6875 
L 54.296875 0 
L 45.3125 0 
L 45.3125 8.40625 
Q 42.046875 3.421875 37.71875 1 
Q 33.40625 -1.421875 27.6875 -1.421875 
Q 18.265625 -1.421875 13.375 4.4375 
Q 8.5 10.296875 8.5 21.578125 
z
M 31.109375 56 
z
" id="DejaVuSans-117"/>
       <path d="M 54.890625 33.015625 
L 54.890625 0 
L 45.90625 0 
L 45.90625 32.71875 
Q 45.90625 40.484375 42.875 44.328125 
Q 39.84375 48.1875 33.796875 48.1875 
Q 26.515625 48.1875 22.3125 43.546875 
Q 18.109375 38.921875 18.109375 30.90625 
L 18.109375 0 
L 9.078125 0 
L 9.078125 54.6875 
L 18.109375 54.6875 
L 18.109375 46.1875 
Q 21.34375 51.125 25.703125 53.5625 
Q 30.078125 56 35.796875 56 
Q 45.21875 56 50.046875 50.171875 
Q 54.890625 44.34375 54.890625 33.015625 
z
" id="DejaVuSans-110"/>
      </defs>
      <g style="fill:#262626;" transform="translate(196.683571 319.275625)scale(0.12 -0.12)">
       <use xlink:href="#DejaVuSans-74"/>
       <use x="29.492188" xlink:href="#DejaVuSans-117"/>
       <use x="92.871094" xlink:href="#DejaVuSans-110"/>
      </g>
     </g>
    </g>
    <g id="xtick_6">
     <g id="line2d_6">
      <g>
       <use style="fill:#262626;stroke:#262626;" x="253.887143" xlink:href="#mf08fc65924" y="297.1575"/>
      </g>
     </g>
     <g id="text_5">
      <!-- Jul -->
      <defs>
       <path d="M 9.421875 75.984375 
L 18.40625 75.984375 
L 18.40625 0 
L 9.421875 0 
z
" id="DejaVuSans-108"/>
      </defs>
      <g style="fill:#262626;" transform="translate(246.647768 319.275625)scale(0.12 -0.12)">
       <use xlink:href="#DejaVuSans-74"/>
       <use x="29.492188" xlink:href="#DejaVuSans-117"/>
       <use x="92.871094" xlink:href="#DejaVuSans-108"/>
      </g>
     </g>
    </g>
    <g id="xtick_7">
     <g id="line2d_7">
      <g>
       <use style="fill:#262626;stroke:#262626;" x="303.31" xlink:href="#mf08fc65924" y="297.1575"/>
      </g>
     </g>
     <g id="text_6">
      <!-- Aug -->
      <defs>
       <path d="M 45.40625 27.984375 
Q 45.40625 37.75 41.375 43.109375 
Q 37.359375 48.484375 30.078125 48.484375 
Q 22.859375 48.484375 18.828125 43.109375 
Q 14.796875 37.75 14.796875 27.984375 
Q 14.796875 18.265625 18.828125 12.890625 
Q 22.859375 7.515625 30.078125 7.515625 
Q 37.359375 7.515625 41.375 12.890625 
Q 45.40625 18.265625 45.40625 27.984375 
z
M 54.390625 6.78125 
Q 54.390625 -7.171875 48.1875 -13.984375 
Q 42 -20.796875 29.203125 -20.796875 
Q 24.46875 -20.796875 20.265625 -20.09375 
Q 16.0625 -19.390625 12.109375 -17.921875 
L 12.109375 -9.1875 
Q 16.0625 -11.328125 19.921875 -12.34375 
Q 23.78125 -13.375 27.78125 -13.375 
Q 36.625 -13.375 41.015625 -8.765625 
Q 45.40625 -4.15625 45.40625 5.171875 
L 45.40625 9.625 
Q 42.625 4.78125 38.28125 2.390625 
Q 33.9375 0 27.875 0 
Q 17.828125 0 11.671875 7.65625 
Q 5.515625 15.328125 5.515625 27.984375 
Q 5.515625 40.671875 11.671875 48.328125 
Q 17.828125 56 27.875 56 
Q 33.9375 56 38.28125 53.609375 
Q 42.625 51.21875 45.40625 46.390625 
L 45.40625 54.6875 
L 54.390625 54.6875 
z
" id="DejaVuSans-103"/>
      </defs>
      <g style="fill:#262626;" transform="translate(291.594063 319.275625)scale(0.12 -0.12)">
       <use xlink:href="#DejaVuSans-65"/>
       <use x="68.408203" xlink:href="#DejaVuSans-117"/>
       <use x="131.787109" xlink:href="#DejaVuSans-103"/>
      </g>
     </g>
    </g>
    <g id="xtick_8">
     <g id="line2d_8">
      <g>
       <use style="fill:#262626;stroke:#262626;" x="352.732857" xlink:href="#mf08fc65924" y="297.1575"/>
      </g>
     </g>
     <g id="text_7">
      <!-- Sep -->
      <defs>
       <path d="M 53.515625 70.515625 
L 53.515625 60.890625 
Q 47.90625 63.578125 42.921875 64.890625 
Q 37.9375 66.21875 33.296875 66.21875 
Q 25.25 66.21875 20.875 63.09375 
Q 16.5 59.96875 16.5 54.203125 
Q 16.5 49.359375 19.40625 46.890625 
Q 22.3125 44.4375 30.421875 42.921875 
L 36.375 41.703125 
Q 47.40625 39.59375 52.65625 34.296875 
Q 57.90625 29 57.90625 20.125 
Q 57.90625 9.515625 50.796875 4.046875 
Q 43.703125 -1.421875 29.984375 -1.421875 
Q 24.8125 -1.421875 18.96875 -0.25 
Q 13.140625 0.921875 6.890625 3.21875 
L 6.890625 13.375 
Q 12.890625 10.015625 18.65625 8.296875 
Q 24.421875 6.59375 29.984375 6.59375 
Q 38.421875 6.59375 43.015625 9.90625 
Q 47.609375 13.234375 47.609375 19.390625 
Q 47.609375 24.75 44.3125 27.78125 
Q 41.015625 30.8125 33.5 32.328125 
L 27.484375 33.5 
Q 16.453125 35.6875 11.515625 40.375 
Q 6.59375 45.0625 6.59375 53.421875 
Q 6.59375 63.09375 13.40625 68.65625 
Q 20.21875 74.21875 32.171875 74.21875 
Q 37.3125 74.21875 42.625 73.28125 
Q 47.953125 72.359375 53.515625 70.515625 
z
" id="DejaVuSans-83"/>
       <path d="M 56.203125 29.59375 
L 56.203125 25.203125 
L 14.890625 25.203125 
Q 15.484375 15.921875 20.484375 11.0625 
Q 25.484375 6.203125 34.421875 6.203125 
Q 39.59375 6.203125 44.453125 7.46875 
Q 49.3125 8.734375 54.109375 11.28125 
L 54.109375 2.78125 
Q 49.265625 0.734375 44.1875 -0.34375 
Q 39.109375 -1.421875 33.890625 -1.421875 
Q 20.796875 -1.421875 13.15625 6.1875 
Q 5.515625 13.8125 5.515625 26.8125 
Q 5.515625 40.234375 12.765625 48.109375 
Q 20.015625 56 32.328125 56 
Q 43.359375 56 49.78125 48.890625 
Q 56.203125 41.796875 56.203125 29.59375 
z
M 47.21875 32.234375 
Q 47.125 39.59375 43.09375 43.984375 
Q 39.0625 48.390625 32.421875 48.390625 
Q 24.90625 48.390625 20.390625 44.140625 
Q 15.875 39.890625 15.1875 32.171875 
z
" id="DejaVuSans-101"/>
      </defs>
      <g style="fill:#262626;" transform="translate(341.422857 319.275625)scale(0.12 -0.12)">
       <use xlink:href="#DejaVuSans-83"/>
       <use x="63.476562" xlink:href="#DejaVuSans-101"/>
       <use x="125" xlink:href="#DejaVuSans-112"/>
      </g>
     </g>
    </g>
    <g id="xtick_9">
     <g id="line2d_9">
      <g>
       <use style="fill:#262626;stroke:#262626;" x="400.561429" xlink:href="#mf08fc65924" y="297.1575"/>
      </g>
     </g>
     <g id="text_8">
      <!-- Oct -->
      <defs>
       <path d="M 39.40625 66.21875 
Q 28.65625 66.21875 22.328125 58.203125 
Q 16.015625 50.203125 16.015625 36.375 
Q 16.015625 22.609375 22.328125 14.59375 
Q 28.65625 6.59375 39.40625 6.59375 
Q 50.140625 6.59375 56.421875 14.59375 
Q 62.703125 22.609375 62.703125 36.375 
Q 62.703125 50.203125 56.421875 58.203125 
Q 50.140625 66.21875 39.40625 66.21875 
z
M 39.40625 74.21875 
Q 54.734375 74.21875 63.90625 63.9375 
Q 73.09375 53.65625 73.09375 36.375 
Q 73.09375 19.140625 63.90625 8.859375 
Q 54.734375 -1.421875 39.40625 -1.421875 
Q 24.03125 -1.421875 14.8125 8.828125 
Q 5.609375 19.09375 5.609375 36.375 
Q 5.609375 53.65625 14.8125 63.9375 
Q 24.03125 74.21875 39.40625 74.21875 
z
" id="DejaVuSans-79"/>
       <path d="M 48.78125 52.59375 
L 48.78125 44.1875 
Q 44.96875 46.296875 41.140625 47.34375 
Q 37.3125 48.390625 33.40625 48.390625 
Q 24.65625 48.390625 19.8125 42.84375 
Q 14.984375 37.3125 14.984375 27.296875 
Q 14.984375 17.28125 19.8125 11.734375 
Q 24.65625 6.203125 33.40625 6.203125 
Q 37.3125 6.203125 41.140625 7.25 
Q 44.96875 8.296875 48.78125 10.40625 
L 48.78125 2.09375 
Q 45.015625 0.34375 40.984375 -0.53125 
Q 36.96875 -1.421875 32.421875 -1.421875 
Q 20.0625 -1.421875 12.78125 6.34375 
Q 5.515625 14.109375 5.515625 27.296875 
Q 5.515625 40.671875 12.859375 48.328125 
Q 20.21875 56 33.015625 56 
Q 37.15625 56 41.109375 55.140625 
Q 45.0625 54.296875 48.78125 52.59375 
z
" id="DejaVuSans-99"/>
       <path d="M 18.3125 70.21875 
L 18.3125 54.6875 
L 36.8125 54.6875 
L 36.8125 47.703125 
L 18.3125 47.703125 
L 18.3125 18.015625 
Q 18.3125 11.328125 20.140625 9.421875 
Q 21.96875 7.515625 27.59375 7.515625 
L 36.8125 7.515625 
L 36.8125 0 
L 27.59375 0 
Q 17.1875 0 13.234375 3.875 
Q 9.28125 7.765625 9.28125 18.015625 
L 9.28125 47.703125 
L 2.6875 47.703125 
L 2.6875 54.6875 
L 9.28125 54.6875 
L 9.28125 70.21875 
z
" id="DejaVuSans-116"/>
      </defs>
      <g style="fill:#262626;" transform="translate(390.187054 319.275625)scale(0.12 -0.12)">
       <use xlink:href="#DejaVuSans-79"/>
       <use x="78.710938" xlink:href="#DejaVuSans-99"/>
       <use x="133.691406" xlink:href="#DejaVuSans-116"/>
      </g>
     </g>
    </g>
    <g id="xtick_10">
     <g id="line2d_10">
      <g>
       <use style="fill:#262626;stroke:#262626;" x="449.984286" xlink:href="#mf08fc65924" y="297.1575"/>
      </g>
     </g>
     <g id="text_9">
      <!-- Nov -->
      <defs>
       <path d="M 9.8125 72.90625 
L 23.09375 72.90625 
L 55.421875 11.921875 
L 55.421875 72.90625 
L 64.984375 72.90625 
L 64.984375 0 
L 51.703125 0 
L 19.390625 60.984375 
L 19.390625 0 
L 9.8125 0 
z
" id="DejaVuSans-78"/>
       <path d="M 30.609375 48.390625 
Q 23.390625 48.390625 19.1875 42.75 
Q 14.984375 37.109375 14.984375 27.296875 
Q 14.984375 17.484375 19.15625 11.84375 
Q 23.34375 6.203125 30.609375 6.203125 
Q 37.796875 6.203125 41.984375 11.859375 
Q 46.1875 17.53125 46.1875 27.296875 
Q 46.1875 37.015625 41.984375 42.703125 
Q 37.796875 48.390625 30.609375 48.390625 
z
M 30.609375 56 
Q 42.328125 56 49.015625 48.375 
Q 55.71875 40.765625 55.71875 27.296875 
Q 55.71875 13.875 49.015625 6.21875 
Q 42.328125 -1.421875 30.609375 -1.421875 
Q 18.84375 -1.421875 12.171875 6.21875 
Q 5.515625 13.875 5.515625 27.296875 
Q 5.515625 40.765625 12.171875 48.375 
Q 18.84375 56 30.609375 56 
z
" id="DejaVuSans-111"/>
       <path d="M 2.984375 54.6875 
L 12.5 54.6875 
L 29.59375 8.796875 
L 46.6875 54.6875 
L 56.203125 54.6875 
L 35.6875 0 
L 23.484375 0 
z
" id="DejaVuSans-118"/>
      </defs>
      <g style="fill:#262626;" transform="translate(438.273036 319.275625)scale(0.12 -0.12)">
       <use xlink:href="#DejaVuSans-78"/>
       <use x="74.804688" xlink:href="#DejaVuSans-111"/>
       <use x="135.986328" xlink:href="#DejaVuSans-118"/>
      </g>
     </g>
    </g>
    <g id="xtick_11">
     <g id="line2d_11">
      <g>
       <use style="fill:#262626;stroke:#262626;" x="481.87" xlink:href="#mf08fc65924" y="297.1575"/>
      </g>
     </g>
    </g>
    <g id="xtick_12">
     <g id="line2d_12">
      <defs>
       <path d="M 0 0 
L 0 3 
" id="m5da28c8b11" style="stroke:#262626;stroke-width:0.5;"/>
      </defs>
      <g>
       <use style="fill:#262626;stroke:#262626;stroke-width:0.5;" x="38.658571" xlink:href="#m5da28c8b11" y="297.1575"/>
      </g>
     </g>
    </g>
    <g id="xtick_13">
     <g id="line2d_13">
      <g>
       <use style="fill:#262626;stroke:#262626;stroke-width:0.5;" x="49.818571" xlink:href="#m5da28c8b11" y="297.1575"/>
      </g>
     </g>
    </g>
    <g id="xtick_14">
     <g id="line2d_14">
      <g>
       <use style="fill:#262626;stroke:#262626;stroke-width:0.5;" x="60.978571" xlink:href="#m5da28c8b11" y="297.1575"/>
      </g>
     </g>
    </g>
    <g id="xtick_15">
     <g id="line2d_15">
      <g>
       <use style="fill:#262626;stroke:#262626;stroke-width:0.5;" x="72.138571" xlink:href="#m5da28c8b11" y="297.1575"/>
      </g>
     </g>
    </g>
    <g id="xtick_16">
     <g id="line2d_16">
      <g>
       <use style="fill:#262626;stroke:#262626;stroke-width:0.5;" x="83.298571" xlink:href="#m5da28c8b11" y="297.1575"/>
      </g>
     </g>
    </g>
    <g id="xtick_17">
     <g id="line2d_17">
      <g>
       <use style="fill:#262626;stroke:#262626;stroke-width:0.5;" x="94.458571" xlink:href="#m5da28c8b11" y="297.1575"/>
      </g>
     </g>
    </g>
    <g id="xtick_18">
     <g id="line2d_18">
      <g>
       <use style="fill:#262626;stroke:#262626;stroke-width:0.5;" x="105.618571" xlink:href="#m5da28c8b11" y="297.1575"/>
      </g>
     </g>
    </g>
    <g id="xtick_19">
     <g id="line2d_19">
      <g>
       <use style="fill:#262626;stroke:#262626;stroke-width:0.5;" x="116.778571" xlink:href="#m5da28c8b11" y="297.1575"/>
      </g>
     </g>
    </g>
    <g id="xtick_20">
     <g id="line2d_20">
      <g>
       <use style="fill:#262626;stroke:#262626;stroke-width:0.5;" x="127.938571" xlink:href="#m5da28c8b11" y="297.1575"/>
      </g>
     </g>
    </g>
    <g id="xtick_21">
     <g id="line2d_21">
      <g>
       <use style="fill:#262626;stroke:#262626;stroke-width:0.5;" x="139.098571" xlink:href="#m5da28c8b11" y="297.1575"/>
      </g>
     </g>
    </g>
    <g id="xtick_22">
     <g id="line2d_22">
      <g>
       <use style="fill:#262626;stroke:#262626;stroke-width:0.5;" x="150.258571" xlink:href="#m5da28c8b11" y="297.1575"/>
      </g>
     </g>
    </g>
    <g id="xtick_23">
     <g id="line2d_23">
      <g>
       <use style="fill:#262626;stroke:#262626;stroke-width:0.5;" x="161.418571" xlink:href="#m5da28c8b11" y="297.1575"/>
      </g>
     </g>
    </g>
    <g id="xtick_24">
     <g id="line2d_24">
      <g>
       <use style="fill:#262626;stroke:#262626;stroke-width:0.5;" x="172.578571" xlink:href="#m5da28c8b11" y="297.1575"/>
      </g>
     </g>
    </g>
    <g id="xtick_25">
     <g id="line2d_25">
      <g>
       <use style="fill:#262626;stroke:#262626;stroke-width:0.5;" x="183.738571" xlink:href="#m5da28c8b11" y="297.1575"/>
      </g>
     </g>
    </g>
    <g id="xtick_26">
     <g id="line2d_26">
      <g>
       <use style="fill:#262626;stroke:#262626;stroke-width:0.5;" x="194.898571" xlink:href="#m5da28c8b11" y="297.1575"/>
      </g>
     </g>
    </g>
    <g id="xtick_27">
     <g id="line2d_27">
      <g>
       <use style="fill:#262626;stroke:#262626;stroke-width:0.5;" x="217.218571" xlink:href="#m5da28c8b11" y="297.1575"/>
      </g>
     </g>
    </g>
    <g id="xtick_28">
     <g id="line2d_28">
      <g>
       <use style="fill:#262626;stroke:#262626;stroke-width:0.5;" x="228.378571" xlink:href="#m5da28c8b11" y="297.1575"/>
      </g>
     </g>
    </g>
    <g id="xtick_29">
     <g id="line2d_29">
      <g>
       <use style="fill:#262626;stroke:#262626;stroke-width:0.5;" x="239.538571" xlink:href="#m5da28c8b11" y="297.1575"/>
      </g>
     </g>
    </g>
    <g id="xtick_30">
     <g id="line2d_30">
      <g>
       <use style="fill:#262626;stroke:#262626;stroke-width:0.5;" x="250.698571" xlink:href="#m5da28c8b11" y="297.1575"/>
      </g>
     </g>
    </g>
    <g id="xtick_31">
     <g id="line2d_31">
      <g>
       <use style="fill:#262626;stroke:#262626;stroke-width:0.5;" x="261.858571" xlink:href="#m5da28c8b11" y="297.1575"/>
      </g>
     </g>
    </g>
    <g id="xtick_32">
     <g id="line2d_32">
      <g>
       <use style="fill:#262626;stroke:#262626;stroke-width:0.5;" x="273.018571" xlink:href="#m5da28c8b11" y="297.1575"/>
      </g>
     </g>
    </g>
    <g id="xtick_33">
     <g id="line2d_33">
      <g>
       <use style="fill:#262626;stroke:#262626;stroke-width:0.5;" x="284.178571" xlink:href="#m5da28c8b11" y="297.1575"/>
      </g>
     </g>
    </g>
    <g id="xtick_34">
     <g id="line2d_34">
      <g>
       <use style="fill:#262626;stroke:#262626;stroke-width:0.5;" x="295.338571" xlink:href="#m5da28c8b11" y="297.1575"/>
      </g>
     </g>
    </g>
    <g id="xtick_35">
     <g id="line2d_35">
      <g>
       <use style="fill:#262626;stroke:#262626;stroke-width:0.5;" x="306.498571" xlink:href="#m5da28c8b11" y="297.1575"/>
      </g>
     </g>
    </g>
    <g id="xtick_36">
     <g id="line2d_36">
      <g>
       <use style="fill:#262626;stroke:#262626;stroke-width:0.5;" x="317.658571" xlink:href="#m5da28c8b11" y="297.1575"/>
      </g>
     </g>
    </g>
    <g id="xtick_37">
     <g id="line2d_37">
      <g>
       <use style="fill:#262626;stroke:#262626;stroke-width:0.5;" x="328.818571" xlink:href="#m5da28c8b11" y="297.1575"/>
      </g>
     </g>
    </g>
    <g id="xtick_38">
     <g id="line2d_38">
      <g>
       <use style="fill:#262626;stroke:#262626;stroke-width:0.5;" x="339.978571" xlink:href="#m5da28c8b11" y="297.1575"/>
      </g>
     </g>
    </g>
    <g id="xtick_39">
     <g id="line2d_39">
      <g>
       <use style="fill:#262626;stroke:#262626;stroke-width:0.5;" x="351.138571" xlink:href="#m5da28c8b11" y="297.1575"/>
      </g>
     </g>
    </g>
    <g id="xtick_40">
     <g id="line2d_40">
      <g>
       <use style="fill:#262626;stroke:#262626;stroke-width:0.5;" x="362.298571" xlink:href="#m5da28c8b11" y="297.1575"/>
      </g>
     </g>
    </g>
    <g id="xtick_41">
     <g id="line2d_41">
      <g>
       <use style="fill:#262626;stroke:#262626;stroke-width:0.5;" x="373.458571" xlink:href="#m5da28c8b11" y="297.1575"/>
      </g>
     </g>
    </g>
    <g id="xtick_42">
     <g id="line2d_42">
      <g>
       <use style="fill:#262626;stroke:#262626;stroke-width:0.5;" x="384.618571" xlink:href="#m5da28c8b11" y="297.1575"/>
      </g>
     </g>
    </g>
    <g id="xtick_43">
     <g id="line2d_43">
      <g>
       <use style="fill:#262626;stroke:#262626;stroke-width:0.5;" x="395.778571" xlink:href="#m5da28c8b11" y="297.1575"/>
      </g>
     </g>
    </g>
    <g id="xtick_44">
     <g id="line2d_44">
      <g>
       <use style="fill:#262626;stroke:#262626;stroke-width:0.5;" x="406.938571" xlink:href="#m5da28c8b11" y="297.1575"/>
      </g>
     </g>
    </g>
    <g id="xtick_45">
     <g id="line2d_45">
      <g>
       <use style="fill:#262626;stroke:#262626;stroke-width:0.5;" x="418.098571" xlink:href="#m5da28c8b11" y="297.1575"/>
      </g>
     </g>
    </g>
    <g id="xtick_46">
     <g id="line2d_46">
      <g>
       <use style="fill:#262626;stroke:#262626;stroke-width:0.5;" x="429.258571" xlink:href="#m5da28c8b11" y="297.1575"/>
      </g>
     </g>
    </g>
    <g id="xtick_47">
     <g id="line2d_47">
      <g>
       <use style="fill:#262626;stroke:#262626;stroke-width:0.5;" x="440.418571" xlink:href="#m5da28c8b11" y="297.1575"/>
      </g>
     </g>
    </g>
    <g id="xtick_48">
     <g id="line2d_48">
      <g>
       <use style="fill:#262626;stroke:#262626;stroke-width:0.5;" x="451.578571" xlink:href="#m5da28c8b11" y="297.1575"/>
      </g>
     </g>
    </g>
    <g id="xtick_49">
     <g id="line2d_49">
      <g>
       <use style="fill:#262626;stroke:#262626;stroke-width:0.5;" x="462.738571" xlink:href="#m5da28c8b11" y="297.1575"/>
      </g>
     </g>
    </g>
    <g id="xtick_50">
     <g id="line2d_50">
      <g>
       <use style="fill:#262626;stroke:#262626;stroke-width:0.5;" x="473.898571" xlink:href="#m5da28c8b11" y="297.1575"/>
      </g>
     </g>
    </g>
   </g>
   <g id="matplotlib.axis_2">
    <g id="ytick_1">
     <g id="line2d_51">
      <path clip-path="url(#pfe19ced0c1)" d="M 35.47 297.1575 
L 481.87 297.1575 
" style="fill:none;stroke:#b0b0b0;stroke-linecap:square;stroke-opacity:0.3;"/>
     </g>
     <g id="line2d_52">
      <defs>
       <path d="M 0 0 
L -6 0 
" id="m94cff45bda" style="stroke:#262626;"/>
      </defs>
      <g>
       <use style="fill:#262626;stroke:#262626;" x="35.47" xlink:href="#m94cff45bda" y="297.1575"/>
      </g>
     </g>
     <g id="text_10">
      <!-- 0 -->
      <g style="fill:#262626;" transform="translate(14.835 301.716562)scale(0.12 -0.12)">
       <use xlink:href="#DejaVuSans-48"/>
      </g>
     </g>
    </g>
    <g id="ytick_2">
     <g id="line2d_53">
      <path clip-path="url(#pfe19ced0c1)" d="M 35.47 262.209715 
L 481.87 262.209715 
" style="fill:none;stroke:#b0b0b0;stroke-linecap:square;stroke-opacity:0.3;"/>
     </g>
     <g id="line2d_54">
      <g>
       <use style="fill:#262626;stroke:#262626;" x="35.47" xlink:href="#m94cff45bda" y="262.209715"/>
      </g>
     </g>
     <g id="text_11">
      <!-- 2 -->
      <g style="fill:#262626;" transform="translate(14.835 266.768778)scale(0.12 -0.12)">
       <use xlink:href="#DejaVuSans-50"/>
      </g>
     </g>
    </g>
    <g id="ytick_3">
     <g id="line2d_55">
      <path clip-path="url(#pfe19ced0c1)" d="M 35.47 227.26193 
L 481.87 227.26193 
" style="fill:none;stroke:#b0b0b0;stroke-linecap:square;stroke-opacity:0.3;"/>
     </g>
     <g id="line2d_56">
      <g>
       <use style="fill:#262626;stroke:#262626;" x="35.47" xlink:href="#m94cff45bda" y="227.26193"/>
      </g>
     </g>
     <g id="text_12">
      <!-- 4 -->
      <defs>
       <path d="M 37.796875 64.3125 
L 12.890625 25.390625 
L 37.796875 25.390625 
z
M 35.203125 72.90625 
L 47.609375 72.90625 
L 47.609375 25.390625 
L 58.015625 25.390625 
L 58.015625 17.1875 
L 47.609375 17.1875 
L 47.609375 0 
L 37.796875 0 
L 37.796875 17.1875 
L 4.890625 17.1875 
L 4.890625 26.703125 
z
" id="DejaVuSans-52"/>
      </defs>
      <g style="fill:#262626;" transform="translate(14.835 231.820993)scale(0.12 -0.12)">
       <use xlink:href="#DejaVuSans-52"/>
      </g>
     </g>
    </g>
    <g id="ytick_4">
     <g id="line2d_57">
      <path clip-path="url(#pfe19ced0c1)" d="M 35.47 192.314145 
L 481.87 192.314145 
" style="fill:none;stroke:#b0b0b0;stroke-linecap:square;stroke-opacity:0.3;"/>
     </g>
     <g id="line2d_58">
      <g>
       <use style="fill:#262626;stroke:#262626;" x="35.47" xlink:href="#m94cff45bda" y="192.314145"/>
      </g>
     </g>
     <g id="text_13">
      <!-- 6 -->
      <defs>
       <path d="M 33.015625 40.375 
Q 26.375 40.375 22.484375 35.828125 
Q 18.609375 31.296875 18.609375 23.390625 
Q 18.609375 15.53125 22.484375 10.953125 
Q 26.375 6.390625 33.015625 6.390625 
Q 39.65625 6.390625 43.53125 10.953125 
Q 47.40625 15.53125 47.40625 23.390625 
Q 47.40625 31.296875 43.53125 35.828125 
Q 39.65625 40.375 33.015625 40.375 
z
M 52.59375 71.296875 
L 52.59375 62.3125 
Q 48.875 64.0625 45.09375 64.984375 
Q 41.3125 65.921875 37.59375 65.921875 
Q 27.828125 65.921875 22.671875 59.328125 
Q 17.53125 52.734375 16.796875 39.40625 
Q 19.671875 43.65625 24.015625 45.921875 
Q 28.375 48.1875 33.59375 48.1875 
Q 44.578125 48.1875 50.953125 41.515625 
Q 57.328125 34.859375 57.328125 23.390625 
Q 57.328125 12.15625 50.6875 5.359375 
Q 44.046875 -1.421875 33.015625 -1.421875 
Q 20.359375 -1.421875 13.671875 8.265625 
Q 6.984375 17.96875 6.984375 36.375 
Q 6.984375 53.65625 15.1875 63.9375 
Q 23.390625 74.21875 37.203125 74.21875 
Q 40.921875 74.21875 44.703125 73.484375 
Q 48.484375 72.75 52.59375 71.296875 
z
" id="DejaVuSans-54"/>
      </defs>
      <g style="fill:#262626;" transform="translate(14.835 196.873208)scale(0.12 -0.12)">
       <use xlink:href="#DejaVuSans-54"/>
      </g>
     </g>
    </g>
    <g id="ytick_5">
     <g id="line2d_59">
      <path clip-path="url(#pfe19ced0c1)" d="M 35.47 157.36636 
L 481.87 157.36636 
" style="fill:none;stroke:#b0b0b0;stroke-linecap:square;stroke-opacity:0.3;"/>
     </g>
     <g id="line2d_60">
      <g>
       <use style="fill:#262626;stroke:#262626;" x="35.47" xlink:href="#m94cff45bda" y="157.36636"/>
      </g>
     </g>
     <g id="text_14">
      <!-- 8 -->
      <defs>
       <path d="M 31.78125 34.625 
Q 24.75 34.625 20.71875 30.859375 
Q 16.703125 27.09375 16.703125 20.515625 
Q 16.703125 13.921875 20.71875 10.15625 
Q 24.75 6.390625 31.78125 6.390625 
Q 38.8125 6.390625 42.859375 10.171875 
Q 46.921875 13.96875 46.921875 20.515625 
Q 46.921875 27.09375 42.890625 30.859375 
Q 38.875 34.625 31.78125 34.625 
z
M 21.921875 38.8125 
Q 15.578125 40.375 12.03125 44.71875 
Q 8.5 49.078125 8.5 55.328125 
Q 8.5 64.0625 14.71875 69.140625 
Q 20.953125 74.21875 31.78125 74.21875 
Q 42.671875 74.21875 48.875 69.140625 
Q 55.078125 64.0625 55.078125 55.328125 
Q 55.078125 49.078125 51.53125 44.71875 
Q 48 40.375 41.703125 38.8125 
Q 48.828125 37.15625 52.796875 32.3125 
Q 56.78125 27.484375 56.78125 20.515625 
Q 56.78125 9.90625 50.3125 4.234375 
Q 43.84375 -1.421875 31.78125 -1.421875 
Q 19.734375 -1.421875 13.25 4.234375 
Q 6.78125 9.90625 6.78125 20.515625 
Q 6.78125 27.484375 10.78125 32.3125 
Q 14.796875 37.15625 21.921875 38.8125 
z
M 18.3125 54.390625 
Q 18.3125 48.734375 21.84375 45.5625 
Q 25.390625 42.390625 31.78125 42.390625 
Q 38.140625 42.390625 41.71875 45.5625 
Q 45.3125 48.734375 45.3125 54.390625 
Q 45.3125 60.0625 41.71875 63.234375 
Q 38.140625 66.40625 31.78125 66.40625 
Q 25.390625 66.40625 21.84375 63.234375 
Q 18.3125 60.0625 18.3125 54.390625 
z
" id="DejaVuSans-56"/>
      </defs>
      <g style="fill:#262626;" transform="translate(14.835 161.925423)scale(0.12 -0.12)">
       <use xlink:href="#DejaVuSans-56"/>
      </g>
     </g>
    </g>
    <g id="ytick_6">
     <g id="line2d_61">
      <path clip-path="url(#pfe19ced0c1)" d="M 35.47 122.418576 
L 481.87 122.418576 
" style="fill:none;stroke:#b0b0b0;stroke-linecap:square;stroke-opacity:0.3;"/>
     </g>
     <g id="line2d_62">
      <g>
       <use style="fill:#262626;stroke:#262626;" x="35.47" xlink:href="#m94cff45bda" y="122.418576"/>
      </g>
     </g>
     <g id="text_15">
      <!-- 10 -->
      <defs>
       <path d="M 12.40625 8.296875 
L 28.515625 8.296875 
L 28.515625 63.921875 
L 10.984375 60.40625 
L 10.984375 69.390625 
L 28.421875 72.90625 
L 38.28125 72.90625 
L 38.28125 8.296875 
L 54.390625 8.296875 
L 54.390625 0 
L 12.40625 0 
z
" id="DejaVuSans-49"/>
      </defs>
      <g style="fill:#262626;" transform="translate(7.2 126.977638)scale(0.12 -0.12)">
       <use xlink:href="#DejaVuSans-49"/>
       <use x="63.623047" xlink:href="#DejaVuSans-48"/>
      </g>
     </g>
    </g>
    <g id="ytick_7">
     <g id="line2d_63">
      <path clip-path="url(#pfe19ced0c1)" d="M 35.47 87.470791 
L 481.87 87.470791 
" style="fill:none;stroke:#b0b0b0;stroke-linecap:square;stroke-opacity:0.3;"/>
     </g>
     <g id="line2d_64">
      <g>
       <use style="fill:#262626;stroke:#262626;" x="35.47" xlink:href="#m94cff45bda" y="87.470791"/>
      </g>
     </g>
     <g id="text_16">
      <!-- 12 -->
      <g style="fill:#262626;" transform="translate(7.2 92.029853)scale(0.12 -0.12)">
       <use xlink:href="#DejaVuSans-49"/>
       <use x="63.623047" xlink:href="#DejaVuSans-50"/>
      </g>
     </g>
    </g>
    <g id="ytick_8">
     <g id="line2d_65">
      <path clip-path="url(#pfe19ced0c1)" d="M 35.47 52.523006 
L 481.87 52.523006 
" style="fill:none;stroke:#b0b0b0;stroke-linecap:square;stroke-opacity:0.3;"/>
     </g>
     <g id="line2d_66">
      <g>
       <use style="fill:#262626;stroke:#262626;" x="35.47" xlink:href="#m94cff45bda" y="52.523006"/>
      </g>
     </g>
     <g id="text_17">
      <!-- 14 -->
      <g style="fill:#262626;" transform="translate(7.2 57.082068)scale(0.12 -0.12)">
       <use xlink:href="#DejaVuSans-49"/>
       <use x="63.623047" xlink:href="#DejaVuSans-52"/>
      </g>
     </g>
    </g>
   </g>
   <g id="line2d_67">
    <path clip-path="url(#pfe19ced0c1)" d="M -1 297.1575 
L 68.95 297.051297 
L 81.704286 296.854062 
L 84.892857 296.709929 
L 86.487143 296.550624 
L 88.081429 296.247186 
L 89.675714 296.323045 
L 91.27 295.541692 
L 92.864286 295.010676 
L 96.052857 293.326595 
L 99.241429 290.330144 
L 100.835714 288.464 
L 102.43 286.180629 
L 104.024286 283.115905 
L 105.618571 281.697332 
L 107.212857 277.585746 
L 108.807143 272.290752 
L 110.401429 266.146132 
L 113.59 255.814067 
L 116.778571 243.008981 
L 118.372857 237.842949 
L 119.967143 230.279756 
L 121.561429 223.73308 
L 124.75 209.008749 
L 126.344286 205.314391 
L 127.938571 202.628964 
L 129.532857 201.11936 
L 131.127143 197.311212 
L 132.721429 174.507844 
L 134.315714 171.276228 
L 135.91 158.509073 
L 137.504286 158.319424 
L 139.098571 156.256045 
L 140.692857 153.858885 
L 142.287143 152.978915 
L 143.881429 177.30706 
L 145.475714 170.631423 
L 147.07 191.234866 
L 148.664286 188.837705 
L 150.258571 189.482511 
L 151.852857 193.184455 
L 153.447143 196.325039 
L 155.041429 189.573542 
L 156.635714 198.213941 
L 158.23 190.567302 
L 159.824286 197.05329 
L 161.418571 200.011811 
L 163.012857 200.899367 
L 164.607143 200.641445 
L 166.201429 202.59862 
L 167.795714 201.089016 
L 169.39 205.276461 
L 170.984286 203.023434 
L 172.578571 207.294324 
L 174.172857 208.022575 
L 175.767143 211.36798 
L 177.361429 215.972652 
L 178.955714 219.507705 
L 180.55 218.354641 
L 182.144286 221.601428 
L 183.738571 221.040067 
L 185.332857 223.808939 
L 186.927143 224.833043 
L 188.521429 226.56264 
L 190.115714 230.431475 
L 191.71 233.139659 
L 193.304286 233.94377 
L 194.898571 235.271311 
L 196.492857 237.478823 
L 198.087143 244.093772 
L 199.681429 244.033085 
L 202.87 245.35304 
L 204.464286 246.377144 
L 206.058571 246.612308 
L 207.652857 244.609617 
L 209.247143 242.045566 
L 210.841429 246.081292 
L 212.435714 247.135739 
L 215.624286 251.482489 
L 217.218571 250.648034 
L 218.812857 252.703827 
L 220.407143 252.969335 
L 222.001429 253.545867 
L 223.595714 254.607901 
L 225.19 255.237535 
L 226.784286 254.418252 
L 228.378571 257.574007 
L 229.972857 258.317431 
L 234.755714 262.155922 
L 237.944286 264.666872 
L 239.538571 264.97031 
L 241.132857 264.727559 
L 244.321429 264.826177 
L 245.915714 251.778341 
L 247.51 252.195568 
L 249.104286 253.007265 
L 250.698571 252.938991 
L 252.292857 253.629313 
L 253.887143 250.261151 
L 255.481429 251.01216 
L 257.075714 264.355848 
L 258.67 263.817245 
L 260.264286 265.774421 
L 261.858571 265.728905 
L 263.452857 265.554428 
L 265.047143 266.282679 
L 266.641429 264.939966 
L 268.235714 262.633837 
L 269.83 261.78421 
L 271.424286 258.180884 
L 273.018571 257.270569 
L 274.612857 256.959545 
L 276.207143 259.333948 
L 277.801429 258.39329 
L 279.395714 258.719486 
L 280.99 257.945719 
L 282.584286 256.91403 
L 284.178571 256.731967 
L 285.772857 256.944374 
L 287.367143 254.676174 
L 288.961429 253.378977 
L 290.555714 252.521764 
L 292.15 249.517727 
L 295.338571 248.599827 
L 296.932857 243.259318 
L 298.527143 242.614512 
L 300.121429 240.08839 
L 301.715714 237.774675 
L 303.31 238.229832 
L 304.904286 236.568509 
L 306.498571 237.038838 
L 308.092857 241.08215 
L 309.687143 239.88357 
L 311.281429 239.936671 
L 312.875714 236.211969 
L 314.47 236.151282 
L 316.064286 236.636783 
L 317.658571 235.878188 
L 319.252857 236.029907 
L 320.847143 238.510513 
L 322.441429 238.207074 
L 324.035714 244.010327 
L 325.63 243.373107 
L 327.224286 243.631029 
L 328.818571 243.191044 
L 330.412857 243.782748 
L 332.007143 241.901433 
L 333.601429 242.91795 
L 335.195714 242.95588 
L 336.79 244.359281 
L 338.384286 244.958571 
L 339.978571 245.921987 
L 341.572857 245.70958 
L 344.761429 247.568138 
L 346.355714 247.325388 
L 347.95 248.85775 
L 349.544286 248.478452 
L 351.138571 249.646689 
L 352.732857 249.221875 
L 354.327143 250.101846 
L 355.921429 251.414215 
L 357.515714 251.846614 
L 359.11 251.702481 
L 360.704286 253.470008 
L 362.298571 252.612795 
L 363.892857 254.600315 
L 365.487143 259.303604 
L 367.081429 258.689142 
L 368.675714 259.288432 
L 370.27 257.323671 
L 371.864286 257.991235 
L 373.458571 258.180884 
L 375.052857 256.785069 
L 376.647143 249.684618 
L 378.241429 251.740411 
L 379.835714 252.825202 
L 381.43 254.880995 
L 383.024286 255.00237 
L 384.618571 255.965786 
L 386.212857 256.565076 
L 387.807143 260.213918 
L 389.401429 258.416048 
L 390.995714 257.885031 
L 392.59 257.824344 
L 394.184286 257.414703 
L 395.778571 257.354015 
L 397.372857 257.794 
L 398.967143 257.778828 
L 400.561429 259.083612 
L 402.155714 259.242917 
L 405.344286 260.009098 
L 406.938571 258.939479 
L 408.532857 258.302259 
L 410.127143 259.902894 
L 411.721429 260.191161 
L 414.91 258.689142 
L 416.504286 259.356706 
L 418.098571 259.402222 
L 419.692857 260.039442 
L 421.287143 259.280846 
L 422.881429 258.689142 
L 424.475714 259.781519 
L 426.07 260.653904 
L 427.664286 259.895308 
L 429.258571 259.963582 
L 430.852857 258.863619 
L 432.447143 257.983649 
L 434.041429 256.731967 
L 435.635714 256.63335 
L 437.23 256.223708 
L 438.824286 254.600315 
L 440.418571 255.009956 
L 443.607143 254.243775 
L 445.201429 255.442355 
L 446.795714 254.478939 
L 448.39 253.818962 
L 449.984286 254.243775 
L 451.578571 253.416906 
L 453.172857 253.037609 
L 454.767143 252.370045 
L 456.361429 251.421801 
L 457.955714 249.601173 
L 459.55 248.675687 
L 461.144286 247.416419 
L 462.738571 247.272286 
L 464.332857 246.331628 
L 465.927143 243.631029 
L 467.521429 235.931289 
L 469.115714 240.315969 
L 470.71 234.603748 
L 472.304286 232.775534 
L 473.898571 231.599711 
L 473.898571 231.599711 
" style="fill:none;stroke:#4c72b0;stroke-linecap:square;stroke-width:2;"/>
   </g>
   <g id="line2d_68">
    <path clip-path="url(#pfe19ced0c1)" d="M -1 297.1575 
L 49.818571 297.074787 
L 59.384286 296.04087 
L 60.978571 295.79273 
L 62.572857 295.255093 
L 65.761429 293.228616 
L 67.355714 291.739775 
L 68.95 289.878725 
L 70.544286 288.720738 
L 72.138571 283.468439 
L 73.732857 280.118548 
L 75.327143 274.36997 
L 76.921429 267.380691 
L 78.515714 261.259903 
L 80.11 252.864497 
L 81.704286 247.198632 
L 84.892857 227.099286 
L 86.487143 219.655084 
L 88.081429 208.199284 
L 89.675714 198.273681 
L 91.27 182.84764 
L 92.864286 157.123786 
L 94.458571 145.585273 
L 96.052857 135.080676 
L 97.647143 118.703432 
L 99.241429 109.935816 
L 100.835714 100.382423 
L 102.43 86.073012 
L 104.024286 82.268198 
L 105.618571 77.76032 
L 107.212857 69.116774 
L 108.807143 65.146533 
L 110.401429 63.409552 
L 111.995714 59.273884 
L 115.184286 76.354193 
L 116.778571 85.907585 
L 118.372857 93.103647 
L 119.967143 102.822467 
L 121.561429 110.556166 
L 123.155714 116.676954 
L 124.75 124.70015 
L 126.344286 127.264264 
L 127.938571 131.234505 
L 129.532857 134.212186 
L 131.127143 134.212186 
L 132.721429 132.640632 
L 134.315714 136.238663 
L 135.91 136.03188 
L 137.504286 141.780458 
L 139.098571 141.697745 
L 140.692857 146.24698 
L 142.287143 149.141947 
L 143.881429 154.973239 
L 145.475714 157.495996 
L 147.07 163.906281 
L 148.664286 166.594465 
L 150.258571 173.749171 
L 151.852857 178.753329 
L 153.447143 185.039544 
L 155.041429 189.754205 
L 156.635714 197.157051 
L 158.23 203.401909 
L 159.824286 200.961865 
L 161.418571 204.51854 
L 164.607143 216.263837 
L 166.201429 214.361429 
L 167.795714 214.816353 
L 169.39 215.891626 
L 170.984286 227.471496 
L 172.578571 227.843707 
L 174.172857 228.505413 
L 175.767143 231.152241 
L 177.361429 238.348303 
L 178.955714 238.844583 
L 180.55 238.88594 
L 182.144286 240.581564 
L 183.738571 241.408697 
L 185.332857 244.717231 
L 186.927143 245.130798 
L 188.521429 246.536925 
L 191.71 255.552681 
L 193.304286 256.958808 
L 194.898571 260.887693 
L 196.492857 261.17719 
L 198.087143 264.651151 
L 199.681429 266.470844 
L 201.275714 270.027519 
L 202.87 271.805856 
L 204.464286 272.136709 
L 206.058571 271.102792 
L 207.652857 272.426206 
L 209.247143 273.37741 
L 210.841429 275.279817 
L 212.435714 274.535397 
L 214.03 274.61811 
L 215.624286 276.231021 
L 217.218571 277.140868 
L 218.812857 276.934084 
L 220.407143 275.941524 
L 222.001429 275.941524 
L 223.595714 277.389008 
L 225.19 278.588351 
L 226.784286 278.340211 
L 228.378571 278.712421 
L 229.972857 280.325332 
L 231.567143 282.186382 
L 233.161429 283.344369 
L 234.755714 282.806732 
L 236.35 283.178943 
L 237.944286 284.378286 
L 239.538571 285.20542 
L 241.132857 285.32949 
L 242.727143 285.991197 
L 244.321429 289.051591 
L 245.915714 290.375005 
L 247.51 291.078068 
L 249.104286 292.773692 
L 250.698571 292.856405 
L 252.292857 293.559469 
L 253.887143 293.352686 
L 255.481429 291.202138 
L 257.075714 291.367565 
L 258.67 291.987915 
L 260.264286 291.450278 
L 261.858571 292.070629 
L 263.452857 291.987915 
L 265.047143 291.698418 
L 266.641429 291.946558 
L 268.235714 292.690979 
L 269.83 292.815049 
L 271.424286 293.394042 
L 273.018571 293.311329 
L 274.612857 293.104545 
L 276.207143 293.642182 
L 277.801429 293.724896 
L 279.395714 293.394042 
L 280.99 293.435399 
L 282.584286 293.145902 
L 284.178571 293.394042 
L 287.367143 293.476756 
L 288.961429 293.642182 
L 290.555714 294.055749 
L 292.15 294.303889 
L 293.744286 294.676099 
L 295.338571 294.593386 
L 296.932857 294.924239 
L 301.715714 295.503233 
L 303.31 295.337806 
L 304.904286 295.337806 
L 306.498571 295.213736 
L 308.092857 294.924239 
L 309.687143 295.172379 
L 312.875714 294.882883 
L 314.47 295.131023 
L 316.064286 294.800169 
L 319.252857 295.379163 
L 324.035714 295.337806 
L 325.63 295.337806 
L 327.224286 289.341088 
L 330.412857 289.258374 
L 335.195714 289.423801 
L 336.79 289.175661 
L 338.384286 295.585946 
L 339.978571 295.461876 
L 343.167143 295.503233 
L 344.761429 295.255093 
L 352.732857 295.420519 
L 354.327143 295.255093 
L 355.921429 295.54459 
L 357.515714 295.337806 
L 359.11 295.255093 
L 360.704286 294.634743 
L 362.298571 294.510673 
L 363.892857 294.262532 
L 365.487143 294.179819 
L 367.081429 293.848966 
L 370.27 293.890322 
L 371.864286 294.303889 
L 381.43 294.221176 
L 383.024286 293.476756 
L 384.618571 293.145902 
L 387.807143 292.815049 
L 390.995714 292.070629 
L 392.59 291.657062 
L 394.184286 291.946558 
L 395.778571 291.863845 
L 397.372857 291.905202 
L 398.967143 291.491635 
L 402.155714 291.491635 
L 403.75 291.367565 
L 405.344286 290.953998 
L 410.127143 290.747215 
L 411.721429 290.250935 
L 413.315714 290.333648 
L 414.91 290.126865 
L 416.504286 290.044151 
L 418.098571 289.713298 
L 419.692857 288.762094 
L 422.881429 287.728177 
L 424.475714 285.20542 
L 426.07 284.08879 
L 427.664286 283.344369 
L 429.258571 281.566032 
L 430.852857 280.159905 
L 432.447143 278.174784 
L 434.041429 274.700823 
L 435.635714 272.50892 
L 437.23 271.020079 
L 438.824286 266.718984 
L 440.418571 264.27894 
L 442.012857 261.466686 
L 443.607143 256.007605 
L 446.795714 249.431893 
L 448.39 244.965372 
L 449.984286 238.927296 
L 451.578571 235.618762 
L 453.172857 231.813948 
L 454.767143 226.354866 
L 456.361429 220.275434 
L 457.955714 211.549175 
L 459.55 201.334076 
L 462.738571 190.953549 
L 464.332857 185.866678 
L 465.927143 176.478712 
L 467.521429 165.271052 
L 469.115714 156.668863 
L 470.71 152.367768 
L 472.304286 147.446323 
L 473.898571 138.554637 
L 473.898571 138.554637 
" style="fill:none;stroke:#55a868;stroke-linecap:square;stroke-width:2;"/>
   </g>
   <g id="line2d_69">
    <path clip-path="url(#pfe19ced0c1)" d="M -1 297.1575 
L 76.921429 297.067294 
L 84.892857 296.826746 
L 88.081429 296.856814 
L 89.675714 296.014894 
L 91.27 295.954757 
L 92.864286 295.383453 
L 94.458571 294.691876 
L 96.052857 293.75975 
L 97.647143 293.068172 
L 99.241429 291.594812 
L 100.835714 290.843097 
L 102.43 288.738296 
L 105.618571 286.30274 
L 107.212857 283.416156 
L 108.807143 279.627514 
L 111.995714 274.1851 
L 113.59 272.110368 
L 115.184286 268.502138 
L 116.778571 267.720354 
L 118.372857 266.367268 
L 121.561429 260.022796 
L 123.155714 256.384497 
L 124.75 255.48244 
L 126.344286 257.136212 
L 127.938571 256.11388 
L 129.532857 256.204086 
L 131.127143 255.27196 
L 132.721429 253.197227 
L 134.315714 252.204964 
L 135.91 250.070094 
L 137.504286 248.416322 
L 139.098571 248.897419 
L 140.692857 248.175773 
L 142.287143 248.296048 
L 143.881429 251.302906 
L 145.475714 253.467844 
L 147.07 255.362165 
L 148.664286 256.685183 
L 150.258571 256.685183 
L 151.852857 257.617309 
L 153.447143 259.992728 
L 155.041429 261.255608 
L 156.635714 262.27794 
L 158.23 264.83377 
L 161.418571 268.832892 
L 163.012857 269.554538 
L 164.607143 270.667076 
L 167.795714 273.55366 
L 169.39 273.283043 
L 170.984286 274.726335 
L 174.172857 276.049353 
L 175.767143 277.973742 
L 177.361429 278.996074 
L 180.55 281.762384 
L 182.144286 281.551904 
L 183.738571 281.581972 
L 185.332857 282.90499 
L 186.927143 283.446225 
L 188.521429 284.40842 
L 190.115714 286.633495 
L 191.71 287.084524 
L 193.304286 287.144661 
L 194.898571 287.475415 
L 196.492857 288.287267 
L 198.087143 289.369736 
L 199.681429 289.219393 
L 201.275714 288.85857 
L 202.87 288.948776 
L 204.464286 289.550148 
L 206.058571 289.520079 
L 207.652857 290.542411 
L 209.247143 291.083646 
L 210.841429 292.04584 
L 214.03 292.436732 
L 215.624286 292.105978 
L 217.218571 292.25632 
L 218.812857 291.474537 
L 220.407143 291.805292 
L 222.001429 291.925566 
L 223.595714 292.647212 
L 226.784286 293.579338 
L 228.378571 293.639475 
L 229.972857 294.481396 
L 231.567143 294.120573 
L 233.161429 294.120573 
L 234.755714 293.880024 
L 237.944286 294.300984 
L 241.132857 294.300984 
L 244.321429 295.02263 
L 245.915714 294.872287 
L 247.51 294.992562 
L 252.292857 294.81215 
L 257.075714 295.503728 
L 261.858571 295.503728 
L 263.452857 295.624002 
L 273.018571 295.714208 
L 274.612857 295.834482 
L 276.207143 296.105099 
L 280.99 296.465923 
L 284.178571 296.495991 
L 288.961429 296.465923 
L 292.15 296.105099 
L 301.715714 296.255442 
L 303.31 296.465923 
L 304.904286 296.465923 
L 308.092857 296.135168 
L 309.687143 295.954757 
L 312.875714 295.894619 
L 314.47 295.533796 
L 316.064286 295.503728 
L 320.847143 295.984825 
L 322.441429 296.075031 
L 324.035714 295.894619 
L 325.63 296.075031 
L 330.412857 296.105099 
L 332.007143 296.075031 
L 333.601429 295.894619 
L 335.195714 296.105099 
L 343.167143 296.044962 
L 347.95 296.495991 
L 349.544286 296.375717 
L 352.732857 296.405785 
L 354.327143 296.165237 
L 355.921429 296.075031 
L 368.675714 296.556128 
L 371.864286 296.435854 
L 373.458571 296.405785 
L 375.052857 296.165237 
L 378.241429 296.255442 
L 379.835714 296.075031 
L 384.618571 296.075031 
L 386.212857 296.135168 
L 387.807143 295.924688 
L 389.401429 295.443591 
L 390.995714 295.203042 
L 398.967143 294.782082 
L 402.155714 295.203042 
L 403.75 294.902356 
L 405.344286 294.992562 
L 408.532857 294.902356 
L 410.127143 294.932425 
L 413.315714 294.721945 
L 414.91 294.842219 
L 416.504286 294.571602 
L 419.692857 294.511464 
L 421.287143 293.699613 
L 422.881429 293.188447 
L 424.475714 292.797555 
L 426.07 292.25632 
L 427.664286 292.286389 
L 429.258571 292.105978 
L 430.852857 291.083646 
L 434.041429 291.294126 
L 435.635714 290.542411 
L 440.418571 289.129188 
L 442.012857 289.27953 
L 443.607143 287.896375 
L 445.201429 286.122329 
L 446.795714 285.280409 
L 448.39 283.656705 
L 449.984286 283.656705 
L 451.578571 282.90499 
L 453.172857 280.228886 
L 454.767143 278.244359 
L 456.361429 277.37237 
L 457.955714 274.696266 
L 459.55 273.884414 
L 461.144286 272.862082 
L 462.738571 272.441122 
L 464.332857 271.749545 
L 465.927143 268.442 
L 467.521429 265.525347 
L 470.71 262.518489 
L 472.304286 261.195471 
L 473.898571 261.22554 
L 473.898571 261.22554 
" style="fill:none;stroke:#c44e52;stroke-linecap:square;stroke-width:2;"/>
   </g>
   <g id="line2d_70">
    <path clip-path="url(#pfe19ced0c1)" d="M -1 297.1575 
L 72.138571 297.08259 
L 73.732857 297.045135 
L 75.327143 296.895315 
L 80.11 296.820405 
L 81.704286 296.146214 
L 83.298571 295.621843 
L 84.892857 294.835287 
L 86.487143 294.348372 
L 88.081429 293.0749 
L 89.675714 291.426879 
L 91.27 290.265772 
L 92.864286 288.805026 
L 94.458571 287.981015 
L 96.052857 285.958443 
L 97.647143 281.051832 
L 99.241429 275.171391 
L 100.835714 270.11496 
L 102.43 260.526469 
L 104.024286 251.76199 
L 105.618571 245.169902 
L 107.212857 234.0083 
L 108.807143 224.457264 
L 111.995714 188.61279 
L 115.184286 154.453792 
L 116.778571 139.958691 
L 118.372857 132.729868 
L 119.967143 106.436428 
L 121.561429 93.027524 
L 123.155714 75.835659 
L 124.75 61.378013 
L 126.344286 58.119425 
L 127.938571 55.947032 
L 129.532857 50.066591 
L 131.127143 51.152787 
L 132.721429 56.771043 
L 134.315714 59.767447 
L 135.91 67.59555 
L 137.504286 57.782329 
L 139.098571 66.209714 
L 140.692857 71.97779 
L 142.287143 66.434444 
L 143.881429 67.67046 
L 145.475714 80.929545 
L 147.07 77.296406 
L 148.664286 88.158368 
L 150.258571 90.705311 
L 153.447143 109.620107 
L 155.041429 112.5416 
L 156.635714 114.339442 
L 158.23 126.025415 
L 159.824286 134.67753 
L 161.418571 138.835039 
L 163.012857 140.632881 
L 164.607143 149.734456 
L 166.201429 154.303972 
L 167.795714 160.896059 
L 169.39 165.353209 
L 170.984286 176.926817 
L 172.578571 178.275198 
L 174.172857 181.458877 
L 175.767143 185.653841 
L 177.361429 193.14485 
L 178.955714 197.115084 
L 180.55 205.692289 
L 182.144286 200.598403 
L 183.738571 206.216659 
L 185.332857 207.752316 
L 188.521429 216.479341 
L 190.115714 219.438289 
L 191.71 221.648136 
L 193.304286 228.802049 
L 194.898571 217.116076 
L 196.492857 218.689188 
L 198.087143 232.510098 
L 199.681429 228.989324 
L 201.275714 226.367471 
L 202.87 227.004207 
L 204.464286 229.47624 
L 206.058571 241.424398 
L 207.652857 242.098589 
L 209.247143 237.678894 
L 210.841429 243.971341 
L 212.435714 251.949265 
L 214.03 252.548546 
L 215.624286 252.960551 
L 217.218571 253.185281 
L 218.812857 254.646028 
L 220.407143 256.6686 
L 222.001429 260.039554 
L 223.595714 262.062126 
L 225.19 266.818916 
L 226.784286 268.167298 
L 228.378571 269.178584 
L 229.972857 269.852775 
L 231.567143 272.661903 
L 233.161429 274.684475 
L 234.755714 275.02157 
L 236.35 276.781957 
L 237.944286 278.130339 
L 239.538571 277.980519 
L 241.132857 278.542344 
L 244.321429 280.377641 
L 245.915714 279.17908 
L 247.51 279.441265 
L 249.104286 280.602372 
L 250.698571 280.602372 
L 252.292857 280.340186 
L 253.887143 281.875843 
L 255.481429 281.501293 
L 257.075714 283.673685 
L 258.67 284.722426 
L 260.264286 285.022067 
L 263.452857 285.846077 
L 265.047143 285.808622 
L 266.641429 287.306824 
L 268.235714 287.681374 
L 271.424286 288.805026 
L 273.018571 289.179576 
L 274.612857 289.217031 
L 276.207143 289.591582 
L 277.801429 290.752688 
L 282.584286 291.614154 
L 285.772857 291.539244 
L 287.367143 292.25089 
L 288.961429 292.587985 
L 290.555714 293.149811 
L 293.744286 292.70035 
L 295.338571 292.812715 
L 298.527143 293.224721 
L 300.121429 292.587985 
L 303.31 293.374541 
L 309.687143 293.749091 
L 311.281429 294.498192 
L 312.875714 293.824001 
L 316.064286 294.498192 
L 317.658571 294.498192 
L 319.252857 293.861456 
L 320.847143 294.048732 
L 322.441429 293.824001 
L 328.818571 293.861456 
L 330.412857 294.423282 
L 332.007143 294.460737 
L 333.601429 294.610557 
L 336.79 295.397113 
L 338.384286 294.835287 
L 341.572857 294.760377 
L 343.167143 294.610557 
L 344.761429 294.610557 
L 347.95 294.123642 
L 351.138571 294.535647 
L 352.732857 294.610557 
L 354.327143 295.097473 
L 355.921429 295.322203 
L 363.892857 295.172383 
L 365.487143 294.086187 
L 367.081429 294.161097 
L 368.675714 294.123642 
L 371.864286 294.385827 
L 373.458571 294.273462 
L 375.052857 294.048732 
L 376.647143 294.236007 
L 378.241429 293.786546 
L 379.835714 293.524361 
L 383.024286 292.063614 
L 384.618571 291.576699 
L 386.212857 291.501789 
L 387.807143 291.127238 
L 390.995714 289.778857 
L 394.184286 289.217031 
L 395.778571 289.254486 
L 397.372857 289.179576 
L 400.561429 286.632633 
L 402.155714 285.920988 
L 403.75 284.722426 
L 406.938571 283.598775 
L 410.127143 283.18677 
L 411.721429 283.224225 
L 414.91 281.763478 
L 419.692857 278.205249 
L 422.881429 273.186273 
L 424.475714 270.901516 
L 426.07 269.066219 
L 427.664286 266.481821 
L 429.258571 266.406911 
L 430.852857 265.28326 
L 432.447143 261.612666 
L 435.635714 257.679886 
L 437.23 254.383843 
L 438.824286 253.484922 
L 440.418571 250.338698 
L 442.012857 249.514687 
L 445.201429 240.338202 
L 446.795714 236.929793 
L 448.39 235.057041 
L 449.984286 229.363875 
L 451.578571 228.951869 
L 453.172857 227.678398 
L 454.767143 226.554747 
L 456.361429 219.737929 
L 457.955714 216.067335 
L 461.144286 209.774888 
L 462.738571 209.999618 
L 464.332857 207.827226 
L 465.927143 202.770795 
L 467.521429 198.912926 
L 469.115714 191.983743 
L 470.71 191.197187 
L 472.304286 189.36189 
L 473.898571 188.91243 
L 473.898571 188.91243 
" style="fill:none;stroke:#8172b2;stroke-linecap:square;stroke-width:2;"/>
   </g>
   <g id="patch_3">
    <path d="M 35.47 297.1575 
L 35.47 25.3575 
" style="fill:none;stroke:#000000;stroke-linecap:square;stroke-linejoin:miter;stroke-width:0.8;"/>
   </g>
   <g id="patch_4">
    <path d="M 35.47 297.1575 
L 481.87 297.1575 
" style="fill:none;stroke:#000000;stroke-linecap:square;stroke-linejoin:miter;stroke-width:0.8;"/>
   </g>
   <g id="text_18">
    <!-- USA -->
    <defs>
     <path d="M 8.6875 72.90625 
L 18.609375 72.90625 
L 18.609375 28.609375 
Q 18.609375 16.890625 22.84375 11.734375 
Q 27.09375 6.59375 36.625 6.59375 
Q 46.09375 6.59375 50.34375 11.734375 
Q 54.59375 16.890625 54.59375 28.609375 
L 54.59375 72.90625 
L 64.5 72.90625 
L 64.5 27.390625 
Q 64.5 13.140625 57.4375 5.859375 
Q 50.390625 -1.421875 36.625 -1.421875 
Q 22.796875 -1.421875 15.734375 5.859375 
Q 8.6875 13.140625 8.6875 27.390625 
z
" id="DejaVuSans-85"/>
    </defs>
    <g style="fill:#4c72b0;" transform="translate(478.898571 235.599711)scale(0.14 -0.14)">
     <use xlink:href="#DejaVuSans-85"/>
     <use x="73.193359" xlink:href="#DejaVuSans-83"/>
     <use x="138.544922" xlink:href="#DejaVuSans-65"/>
    </g>
   </g>
   <g id="text_19">
    <!-- Italy -->
    <defs>
     <path d="M 9.8125 72.90625 
L 19.671875 72.90625 
L 19.671875 0 
L 9.8125 0 
z
" id="DejaVuSans-73"/>
    </defs>
    <g style="fill:#55a868;" transform="translate(478.898571 142.554637)scale(0.14 -0.14)">
     <use xlink:href="#DejaVuSans-73"/>
     <use x="29.492188" xlink:href="#DejaVuSans-116"/>
     <use x="68.701172" xlink:href="#DejaVuSans-97"/>
     <use x="129.980469" xlink:href="#DejaVuSans-108"/>
     <use x="157.763672" xlink:href="#DejaVuSans-121"/>
    </g>
   </g>
   <g id="text_20">
    <!-- Germany -->
    <defs>
     <path d="M 59.515625 10.40625 
L 59.515625 29.984375 
L 43.40625 29.984375 
L 43.40625 38.09375 
L 69.28125 38.09375 
L 69.28125 6.78125 
Q 63.578125 2.734375 56.6875 0.65625 
Q 49.8125 -1.421875 42 -1.421875 
Q 24.90625 -1.421875 15.25 8.5625 
Q 5.609375 18.5625 5.609375 36.375 
Q 5.609375 54.25 15.25 64.234375 
Q 24.90625 74.21875 42 74.21875 
Q 49.125 74.21875 55.546875 72.453125 
Q 61.96875 70.703125 67.390625 67.28125 
L 67.390625 56.78125 
Q 61.921875 61.421875 55.765625 63.765625 
Q 49.609375 66.109375 42.828125 66.109375 
Q 29.4375 66.109375 22.71875 58.640625 
Q 16.015625 51.171875 16.015625 36.375 
Q 16.015625 21.625 22.71875 14.15625 
Q 29.4375 6.6875 42.828125 6.6875 
Q 48.046875 6.6875 52.140625 7.59375 
Q 56.25 8.5 59.515625 10.40625 
z
" id="DejaVuSans-71"/>
     <path d="M 52 44.1875 
Q 55.375 50.25 60.0625 53.125 
Q 64.75 56 71.09375 56 
Q 79.640625 56 84.28125 50.015625 
Q 88.921875 44.046875 88.921875 33.015625 
L 88.921875 0 
L 79.890625 0 
L 79.890625 32.71875 
Q 79.890625 40.578125 77.09375 44.375 
Q 74.3125 48.1875 68.609375 48.1875 
Q 61.625 48.1875 57.5625 43.546875 
Q 53.515625 38.921875 53.515625 30.90625 
L 53.515625 0 
L 44.484375 0 
L 44.484375 32.71875 
Q 44.484375 40.625 41.703125 44.40625 
Q 38.921875 48.1875 33.109375 48.1875 
Q 26.21875 48.1875 22.15625 43.53125 
Q 18.109375 38.875 18.109375 30.90625 
L 18.109375 0 
L 9.078125 0 
L 9.078125 54.6875 
L 18.109375 54.6875 
L 18.109375 46.1875 
Q 21.1875 51.21875 25.484375 53.609375 
Q 29.78125 56 35.6875 56 
Q 41.65625 56 45.828125 52.96875 
Q 50 49.953125 52 44.1875 
z
" id="DejaVuSans-109"/>
    </defs>
    <g style="fill:#c44e52;" transform="translate(478.898571 265.22554)scale(0.14 -0.14)">
     <use xlink:href="#DejaVuSans-71"/>
     <use x="77.490234" xlink:href="#DejaVuSans-101"/>
     <use x="139.013672" xlink:href="#DejaVuSans-114"/>
     <use x="178.376953" xlink:href="#DejaVuSans-109"/>
     <use x="275.789062" xlink:href="#DejaVuSans-97"/>
     <use x="337.068359" xlink:href="#DejaVuSans-110"/>
     <use x="400.447266" xlink:href="#DejaVuSans-121"/>
    </g>
   </g>
   <g id="text_21">
    <!-- UK -->
    <defs>
     <path d="M 9.8125 72.90625 
L 19.671875 72.90625 
L 19.671875 42.09375 
L 52.390625 72.90625 
L 65.09375 72.90625 
L 28.90625 38.921875 
L 67.671875 0 
L 54.6875 0 
L 19.671875 35.109375 
L 19.671875 0 
L 9.8125 0 
z
" id="DejaVuSans-75"/>
    </defs>
    <g style="fill:#8172b2;" transform="translate(478.898571 192.91243)scale(0.14 -0.14)">
     <use xlink:href="#DejaVuSans-85"/>
     <use x="73.193359" xlink:href="#DejaVuSans-75"/>
    </g>
   </g>
   <g id="text_22">
    <!-- Deaths per million people -->
    <defs>
     <path d="M 19.671875 64.796875 
L 19.671875 8.109375 
L 31.59375 8.109375 
Q 46.6875 8.109375 53.6875 14.9375 
Q 60.6875 21.78125 60.6875 36.53125 
Q 60.6875 51.171875 53.6875 57.984375 
Q 46.6875 64.796875 31.59375 64.796875 
z
M 9.8125 72.90625 
L 30.078125 72.90625 
Q 51.265625 72.90625 61.171875 64.09375 
Q 71.09375 55.28125 71.09375 36.53125 
Q 71.09375 17.671875 61.125 8.828125 
Q 51.171875 0 30.078125 0 
L 9.8125 0 
z
" id="DejaVuSans-68"/>
     <path d="M 54.890625 33.015625 
L 54.890625 0 
L 45.90625 0 
L 45.90625 32.71875 
Q 45.90625 40.484375 42.875 44.328125 
Q 39.84375 48.1875 33.796875 48.1875 
Q 26.515625 48.1875 22.3125 43.546875 
Q 18.109375 38.921875 18.109375 30.90625 
L 18.109375 0 
L 9.078125 0 
L 9.078125 75.984375 
L 18.109375 75.984375 
L 18.109375 46.1875 
Q 21.34375 51.125 25.703125 53.5625 
Q 30.078125 56 35.796875 56 
Q 45.21875 56 50.046875 50.171875 
Q 54.890625 44.34375 54.890625 33.015625 
z
" id="DejaVuSans-104"/>
     <path d="M 44.28125 53.078125 
L 44.28125 44.578125 
Q 40.484375 46.53125 36.375 47.5 
Q 32.28125 48.484375 27.875 48.484375 
Q 21.1875 48.484375 17.84375 46.4375 
Q 14.5 44.390625 14.5 40.28125 
Q 14.5 37.15625 16.890625 35.375 
Q 19.28125 33.59375 26.515625 31.984375 
L 29.59375 31.296875 
Q 39.15625 29.25 43.1875 25.515625 
Q 47.21875 21.78125 47.21875 15.09375 
Q 47.21875 7.46875 41.1875 3.015625 
Q 35.15625 -1.421875 24.609375 -1.421875 
Q 20.21875 -1.421875 15.453125 -0.5625 
Q 10.6875 0.296875 5.421875 2 
L 5.421875 11.28125 
Q 10.40625 8.6875 15.234375 7.390625 
Q 20.0625 6.109375 24.8125 6.109375 
Q 31.15625 6.109375 34.5625 8.28125 
Q 37.984375 10.453125 37.984375 14.40625 
Q 37.984375 18.0625 35.515625 20.015625 
Q 33.0625 21.96875 24.703125 23.78125 
L 21.578125 24.515625 
Q 13.234375 26.265625 9.515625 29.90625 
Q 5.8125 33.546875 5.8125 39.890625 
Q 5.8125 47.609375 11.28125 51.796875 
Q 16.75 56 26.8125 56 
Q 31.78125 56 36.171875 55.265625 
Q 40.578125 54.546875 44.28125 53.078125 
z
" id="DejaVuSans-115"/>
     <path id="DejaVuSans-32"/>
     <path d="M 9.421875 54.6875 
L 18.40625 54.6875 
L 18.40625 0 
L 9.421875 0 
z
M 9.421875 75.984375 
L 18.40625 75.984375 
L 18.40625 64.59375 
L 9.421875 64.59375 
z
" id="DejaVuSans-105"/>
    </defs>
    <g style="fill:#262626;" transform="translate(155.62625 19.3575)scale(0.16 -0.16)">
     <use xlink:href="#DejaVuSans-68"/>
     <use x="77.001953" xlink:href="#DejaVuSans-101"/>
     <use x="138.525391" xlink:href="#DejaVuSans-97"/>
     <use x="199.804688" xlink:href="#DejaVuSans-116"/>
     <use x="239.013672" xlink:href="#DejaVuSans-104"/>
     <use x="302.392578" xlink:href="#DejaVuSans-115"/>
     <use x="354.492188" xlink:href="#DejaVuSans-32"/>
     <use x="386.279297" xlink:href="#DejaVuSans-112"/>
     <use x="449.755859" xlink:href="#DejaVuSans-101"/>
     <use x="511.279297" xlink:href="#DejaVuSans-114"/>
     <use x="552.392578" xlink:href="#DejaVuSans-32"/>
     <use x="584.179688" xlink:href="#DejaVuSans-109"/>
     <use x="681.591797" xlink:href="#DejaVuSans-105"/>
     <use x="709.375" xlink:href="#DejaVuSans-108"/>
     <use x="737.158203" xlink:href="#DejaVuSans-108"/>
     <use x="764.941406" xlink:href="#DejaVuSans-105"/>
     <use x="792.724609" xlink:href="#DejaVuSans-111"/>
     <use x="853.90625" xlink:href="#DejaVuSans-110"/>
     <use x="917.285156" xlink:href="#DejaVuSans-32"/>
     <use x="949.072266" xlink:href="#DejaVuSans-112"/>
     <use x="1012.548828" xlink:href="#DejaVuSans-101"/>
     <use x="1074.072266" xlink:href="#DejaVuSans-111"/>
     <use x="1135.253906" xlink:href="#DejaVuSans-112"/>
     <use x="1198.730469" xlink:href="#DejaVuSans-108"/>
     <use x="1226.513672" xlink:href="#DejaVuSans-101"/>
    </g>
   </g>
   <g id="legend_1"/>
   <g id="PathCollection_1">
    <defs>
     <path d="M 0 2.236068 
C 0.593012 2.236068 1.161816 2.000462 1.581139 1.581139 
C 2.000462 1.161816 2.236068 0.593012 2.236068 0 
C 2.236068 -0.593012 2.000462 -1.161816 1.581139 -1.581139 
C 1.161816 -2.000462 0.593012 -2.236068 0 -2.236068 
C -0.593012 -2.236068 -1.161816 -2.000462 -1.581139 -1.581139 
C -2.000462 -1.161816 -2.236068 -0.593012 -2.236068 0 
C -2.236068 0.593012 -2.000462 1.161816 -1.581139 1.581139 
C -1.161816 2.000462 -0.593012 2.236068 0 2.236068 
z
" id="C0_0_ca91f9c596"/>
    </defs>
    <g clip-path="url(#pfe19ced0c1)">
     <use style="fill:#4c72b0;stroke:#4c72b0;" x="473.898571" xlink:href="#C0_0_ca91f9c596" y="231.599711"/>
    </g>
    <g clip-path="url(#pfe19ced0c1)">
     <use style="fill:#55a868;stroke:#55a868;" x="473.898571" xlink:href="#C0_0_ca91f9c596" y="138.554637"/>
    </g>
    <g clip-path="url(#pfe19ced0c1)">
     <use style="fill:#c44e52;stroke:#c44e52;" x="473.898571" xlink:href="#C0_0_ca91f9c596" y="261.22554"/>
    </g>
    <g clip-path="url(#pfe19ced0c1)">
     <use style="fill:#8172b2;stroke:#8172b2;" x="473.898571" xlink:href="#C0_0_ca91f9c596" y="188.91243"/>
    </g>
   </g>
  </g>
 </g>
 <defs>
  <clipPath id="pfe19ced0c1">
   <rect height="271.8" width="446.4" x="35.47" y="25.3575"/>
  </clipPath>
 </defs>
</svg>
