<?xml version="1.0" encoding="utf-8" standalone="no"?>
<!DOCTYPE svg PUBLIC "-//W3C//DTD SVG 1.1//EN"
  "http://www.w3.org/Graphics/SVG/1.1/DTD/svg11.dtd">
<!-- Created with matplotlib (https://matplotlib.org/) -->
<svg height="342.408625pt" version="1.1" viewBox="0 0 558.081071 342.408625" width="558.081071pt" xmlns="http://www.w3.org/2000/svg" xmlns:xlink="http://www.w3.org/1999/xlink">
 <defs>
  <style type="text/css">
*{stroke-linecap:butt;stroke-linejoin:round;}
  </style>
 </defs>
 <g id="figure_1">
  <g id="patch_1">
   <path d="M 0 342.408625 
L 558.081071 342.408625 
L 558.081071 0 
L 0 0 
z
" style="fill:#ffffff;"/>
  </g>
  <g id="axes_1">
   <g id="patch_2">
    <path d="M 43.105 297.1575 
L 489.505 297.1575 
L 489.505 25.3575 
L 43.105 25.3575 
z
" style="fill:#ffffff;"/>
   </g>
   <g id="matplotlib.axis_1">
    <g id="xtick_1">
     <g id="line2d_1">
      <defs>
       <path d="M 0 0 
L 0 6 
" id="m6f150b020b" style="stroke:#262626;"/>
      </defs>
      <g>
       <use style="fill:#262626;stroke:#262626;" x="43.105" xlink:href="#m6f150b020b" y="297.1575"/>
      </g>
     </g>
    </g>
    <g id="xtick_2">
     <g id="line2d_2">
      <g>
       <use style="fill:#262626;stroke:#262626;" x="67.019286" xlink:href="#m6f150b020b" y="297.1575"/>
      </g>
     </g>
     <g id="text_1">
      <!-- Mar -->
      <defs>
       <path d="M 9.8125 72.90625 
L 24.515625 72.90625 
L 43.109375 23.296875 
L 61.8125 72.90625 
L 76.515625 72.90625 
L 76.515625 0 
L 66.890625 0 
L 66.890625 64.015625 
L 48.09375 14.015625 
L 38.1875 14.015625 
L 19.390625 64.015625 
L 19.390625 0 
L 9.8125 0 
z
" id="DejaVuSans-77"/>
       <path d="M 34.28125 27.484375 
Q 23.390625 27.484375 19.1875 25 
Q 14.984375 22.515625 14.984375 16.5 
Q 14.984375 11.71875 18.140625 8.90625 
Q 21.296875 6.109375 26.703125 6.109375 
Q 34.1875 6.109375 38.703125 11.40625 
Q 43.21875 16.703125 43.21875 25.484375 
L 43.21875 27.484375 
z
M 52.203125 31.203125 
L 52.203125 0 
L 43.21875 0 
L 43.21875 8.296875 
Q 40.140625 3.328125 35.546875 0.953125 
Q 30.953125 -1.421875 24.3125 -1.421875 
Q 15.921875 -1.421875 10.953125 3.296875 
Q 6 8.015625 6 15.921875 
Q 6 25.140625 12.171875 29.828125 
Q 18.359375 34.515625 30.609375 34.515625 
L 43.21875 34.515625 
L 43.21875 35.40625 
Q 43.21875 41.609375 39.140625 45 
Q 35.0625 48.390625 27.6875 48.390625 
Q 23 48.390625 18.546875 47.265625 
Q 14.109375 46.140625 10.015625 43.890625 
L 10.015625 52.203125 
Q 14.9375 54.109375 19.578125 55.046875 
Q 24.21875 56 28.609375 56 
Q 40.484375 56 46.34375 49.84375 
Q 52.203125 43.703125 52.203125 31.203125 
z
" id="DejaVuSans-97"/>
       <path d="M 41.109375 46.296875 
Q 39.59375 47.171875 37.8125 47.578125 
Q 36.03125 48 33.890625 48 
Q 26.265625 48 22.1875 43.046875 
Q 18.109375 38.09375 18.109375 28.8125 
L 18.109375 0 
L 9.078125 0 
L 9.078125 54.6875 
L 18.109375 54.6875 
L 18.109375 46.1875 
Q 20.953125 51.171875 25.484375 53.578125 
Q 30.03125 56 36.53125 56 
Q 37.453125 56 38.578125 55.875 
Q 39.703125 55.765625 41.0625 55.515625 
z
" id="DejaVuSans-114"/>
      </defs>
      <g style="fill:#262626;" transform="translate(55.698973 319.275625)scale(0.12 -0.12)">
       <use xlink:href="#DejaVuSans-77"/>
       <use x="86.279297" xlink:href="#DejaVuSans-97"/>
       <use x="147.558594" xlink:href="#DejaVuSans-114"/>
      </g>
      <!-- 2020 -->
      <defs>
       <path d="M 19.1875 8.296875 
L 53.609375 8.296875 
L 53.609375 0 
L 7.328125 0 
L 7.328125 8.296875 
Q 12.9375 14.109375 22.625 23.890625 
Q 32.328125 33.6875 34.8125 36.53125 
Q 39.546875 41.84375 41.421875 45.53125 
Q 43.3125 49.21875 43.3125 52.78125 
Q 43.3125 58.59375 39.234375 62.25 
Q 35.15625 65.921875 28.609375 65.921875 
Q 23.96875 65.921875 18.8125 64.3125 
Q 13.671875 62.703125 7.8125 59.421875 
L 7.8125 69.390625 
Q 13.765625 71.78125 18.9375 73 
Q 24.125 74.21875 28.421875 74.21875 
Q 39.75 74.21875 46.484375 68.546875 
Q 53.21875 62.890625 53.21875 53.421875 
Q 53.21875 48.921875 51.53125 44.890625 
Q 49.859375 40.875 45.40625 35.40625 
Q 44.1875 33.984375 37.640625 27.21875 
Q 31.109375 20.453125 19.1875 8.296875 
z
" id="DejaVuSans-50"/>
       <path d="M 31.78125 66.40625 
Q 24.171875 66.40625 20.328125 58.90625 
Q 16.5 51.421875 16.5 36.375 
Q 16.5 21.390625 20.328125 13.890625 
Q 24.171875 6.390625 31.78125 6.390625 
Q 39.453125 6.390625 43.28125 13.890625 
Q 47.125 21.390625 47.125 36.375 
Q 47.125 51.421875 43.28125 58.90625 
Q 39.453125 66.40625 31.78125 66.40625 
z
M 31.78125 74.21875 
Q 44.046875 74.21875 50.515625 64.515625 
Q 56.984375 54.828125 56.984375 36.375 
Q 56.984375 17.96875 50.515625 8.265625 
Q 44.046875 -1.421875 31.78125 -1.421875 
Q 19.53125 -1.421875 13.0625 8.265625 
Q 6.59375 17.96875 6.59375 36.375 
Q 6.59375 54.828125 13.0625 64.515625 
Q 19.53125 74.21875 31.78125 74.21875 
z
" id="DejaVuSans-48"/>
      </defs>
      <g style="fill:#262626;" transform="translate(51.749286 332.713)scale(0.12 -0.12)">
       <use xlink:href="#DejaVuSans-50"/>
       <use x="63.623047" xlink:href="#DejaVuSans-48"/>
       <use x="127.246094" xlink:href="#DejaVuSans-50"/>
       <use x="190.869141" xlink:href="#DejaVuSans-48"/>
      </g>
     </g>
    </g>
    <g id="xtick_3">
     <g id="line2d_3">
      <g>
       <use style="fill:#262626;stroke:#262626;" x="116.442143" xlink:href="#m6f150b020b" y="297.1575"/>
      </g>
     </g>
     <g id="text_2">
      <!-- Apr -->
      <defs>
       <path d="M 34.1875 63.1875 
L 20.796875 26.90625 
L 47.609375 26.90625 
z
M 28.609375 72.90625 
L 39.796875 72.90625 
L 67.578125 0 
L 57.328125 0 
L 50.6875 18.703125 
L 17.828125 18.703125 
L 11.1875 0 
L 0.78125 0 
z
" id="DejaVuSans-65"/>
       <path d="M 18.109375 8.203125 
L 18.109375 -20.796875 
L 9.078125 -20.796875 
L 9.078125 54.6875 
L 18.109375 54.6875 
L 18.109375 46.390625 
Q 20.953125 51.265625 25.265625 53.625 
Q 29.59375 56 35.59375 56 
Q 45.5625 56 51.78125 48.09375 
Q 58.015625 40.1875 58.015625 27.296875 
Q 58.015625 14.40625 51.78125 6.484375 
Q 45.5625 -1.421875 35.59375 -1.421875 
Q 29.59375 -1.421875 25.265625 0.953125 
Q 20.953125 3.328125 18.109375 8.203125 
z
M 48.6875 27.296875 
Q 48.6875 37.203125 44.609375 42.84375 
Q 40.53125 48.484375 33.40625 48.484375 
Q 26.265625 48.484375 22.1875 42.84375 
Q 18.109375 37.203125 18.109375 27.296875 
Q 18.109375 17.390625 22.1875 11.75 
Q 26.265625 6.109375 33.40625 6.109375 
Q 40.53125 6.109375 44.609375 11.75 
Q 48.6875 17.390625 48.6875 27.296875 
z
" id="DejaVuSans-112"/>
      </defs>
      <g style="fill:#262626;" transform="translate(106.062143 319.275625)scale(0.12 -0.12)">
       <use xlink:href="#DejaVuSans-65"/>
       <use x="68.408203" xlink:href="#DejaVuSans-112"/>
       <use x="131.884766" xlink:href="#DejaVuSans-114"/>
      </g>
     </g>
    </g>
    <g id="xtick_4">
     <g id="line2d_4">
      <g>
       <use style="fill:#262626;stroke:#262626;" x="164.270714" xlink:href="#m6f150b020b" y="297.1575"/>
      </g>
     </g>
     <g id="text_3">
      <!-- May -->
      <defs>
       <path d="M 32.171875 -5.078125 
Q 28.375 -14.84375 24.75 -17.8125 
Q 21.140625 -20.796875 15.09375 -20.796875 
L 7.90625 -20.796875 
L 7.90625 -13.28125 
L 13.1875 -13.28125 
Q 16.890625 -13.28125 18.9375 -11.515625 
Q 21 -9.765625 23.484375 -3.21875 
L 25.09375 0.875 
L 2.984375 54.6875 
L 12.5 54.6875 
L 29.59375 11.921875 
L 46.6875 54.6875 
L 56.203125 54.6875 
z
" id="DejaVuSans-121"/>
      </defs>
      <g style="fill:#262626;" transform="translate(151.865714 319.275625)scale(0.12 -0.12)">
       <use xlink:href="#DejaVuSans-77"/>
       <use x="86.279297" xlink:href="#DejaVuSans-97"/>
       <use x="147.558594" xlink:href="#DejaVuSans-121"/>
      </g>
     </g>
    </g>
    <g id="xtick_5">
     <g id="line2d_5">
      <g>
       <use style="fill:#262626;stroke:#262626;" x="213.693571" xlink:href="#m6f150b020b" y="297.1575"/>
      </g>
     </g>
     <g id="text_4">
      <!-- Jun -->
      <defs>
       <path d="M 9.8125 72.90625 
L 19.671875 72.90625 
L 19.671875 5.078125 
Q 19.671875 -8.109375 14.671875 -14.0625 
Q 9.671875 -20.015625 -1.421875 -20.015625 
L -5.171875 -20.015625 
L -5.171875 -11.71875 
L -2.09375 -11.71875 
Q 4.4375 -11.71875 7.125 -8.046875 
Q 9.8125 -4.390625 9.8125 5.078125 
z
" id="DejaVuSans-74"/>
       <path d="M 8.5 21.578125 
L 8.5 54.6875 
L 17.484375 54.6875 
L 17.484375 21.921875 
Q 17.484375 14.15625 20.5 10.265625 
Q 23.53125 6.390625 29.59375 6.390625 
Q 36.859375 6.390625 41.078125 11.03125 
Q 45.3125 15.671875 45.3125 23.6875 
L 45.3125 54.6875 
L 54.296875 54.6875 
L 54.296875 0 
L 45.3125 0 
L 45.3125 8.40625 
Q 42.046875 3.421875 37.71875 1 
Q 33.40625 -1.421875 27.6875 -1.421875 
Q 18.265625 -1.421875 13.375 4.4375 
Q 8.5 10.296875 8.5 21.578125 
z
M 31.109375 56 
z
" id="DejaVuSans-117"/>
       <path d="M 54.890625 33.015625 
L 54.890625 0 
L 45.90625 0 
L 45.90625 32.71875 
Q 45.90625 40.484375 42.875 44.328125 
Q 39.84375 48.1875 33.796875 48.1875 
Q 26.515625 48.1875 22.3125 43.546875 
Q 18.109375 38.921875 18.109375 30.90625 
L 18.109375 0 
L 9.078125 0 
L 9.078125 54.6875 
L 18.109375 54.6875 
L 18.109375 46.1875 
Q 21.34375 51.125 25.703125 53.5625 
Q 30.078125 56 35.796875 56 
Q 45.21875 56 50.046875 50.171875 
Q 54.890625 44.34375 54.890625 33.015625 
z
" id="DejaVuSans-110"/>
      </defs>
      <g style="fill:#262626;" transform="translate(204.318571 319.275625)scale(0.12 -0.12)">
       <use xlink:href="#DejaVuSans-74"/>
       <use x="29.492188" xlink:href="#DejaVuSans-117"/>
       <use x="92.871094" xlink:href="#DejaVuSans-110"/>
      </g>
     </g>
    </g>
    <g id="xtick_6">
     <g id="line2d_6">
      <g>
       <use style="fill:#262626;stroke:#262626;" x="261.522143" xlink:href="#m6f150b020b" y="297.1575"/>
      </g>
     </g>
     <g id="text_5">
      <!-- Jul -->
      <defs>
       <path d="M 9.421875 75.984375 
L 18.40625 75.984375 
L 18.40625 0 
L 9.421875 0 
z
" id="DejaVuSans-108"/>
      </defs>
      <g style="fill:#262626;" transform="translate(254.282768 319.275625)scale(0.12 -0.12)">
       <use xlink:href="#DejaVuSans-74"/>
       <use x="29.492188" xlink:href="#DejaVuSans-117"/>
       <use x="92.871094" xlink:href="#DejaVuSans-108"/>
      </g>
     </g>
    </g>
    <g id="xtick_7">
     <g id="line2d_7">
      <g>
       <use style="fill:#262626;stroke:#262626;" x="310.945" xlink:href="#m6f150b020b" y="297.1575"/>
      </g>
     </g>
     <g id="text_6">
      <!-- Aug -->
      <defs>
       <path d="M 45.40625 27.984375 
Q 45.40625 37.75 41.375 43.109375 
Q 37.359375 48.484375 30.078125 48.484375 
Q 22.859375 48.484375 18.828125 43.109375 
Q 14.796875 37.75 14.796875 27.984375 
Q 14.796875 18.265625 18.828125 12.890625 
Q 22.859375 7.515625 30.078125 7.515625 
Q 37.359375 7.515625 41.375 12.890625 
Q 45.40625 18.265625 45.40625 27.984375 
z
M 54.390625 6.78125 
Q 54.390625 -7.171875 48.1875 -13.984375 
Q 42 -20.796875 29.203125 -20.796875 
Q 24.46875 -20.796875 20.265625 -20.09375 
Q 16.0625 -19.390625 12.109375 -17.921875 
L 12.109375 -9.1875 
Q 16.0625 -11.328125 19.921875 -12.34375 
Q 23.78125 -13.375 27.78125 -13.375 
Q 36.625 -13.375 41.015625 -8.765625 
Q 45.40625 -4.15625 45.40625 5.171875 
L 45.40625 9.625 
Q 42.625 4.78125 38.28125 2.390625 
Q 33.9375 0 27.875 0 
Q 17.828125 0 11.671875 7.65625 
Q 5.515625 15.328125 5.515625 27.984375 
Q 5.515625 40.671875 11.671875 48.328125 
Q 17.828125 56 27.875 56 
Q 33.9375 56 38.28125 53.609375 
Q 42.625 51.21875 45.40625 46.390625 
L 45.40625 54.6875 
L 54.390625 54.6875 
z
" id="DejaVuSans-103"/>
      </defs>
      <g style="fill:#262626;" transform="translate(299.229062 319.275625)scale(0.12 -0.12)">
       <use xlink:href="#DejaVuSans-65"/>
       <use x="68.408203" xlink:href="#DejaVuSans-117"/>
       <use x="131.787109" xlink:href="#DejaVuSans-103"/>
      </g>
     </g>
    </g>
    <g id="xtick_8">
     <g id="line2d_8">
      <g>
       <use style="fill:#262626;stroke:#262626;" x="360.367857" xlink:href="#m6f150b020b" y="297.1575"/>
      </g>
     </g>
     <g id="text_7">
      <!-- Sep -->
      <defs>
       <path d="M 53.515625 70.515625 
L 53.515625 60.890625 
Q 47.90625 63.578125 42.921875 64.890625 
Q 37.9375 66.21875 33.296875 66.21875 
Q 25.25 66.21875 20.875 63.09375 
Q 16.5 59.96875 16.5 54.203125 
Q 16.5 49.359375 19.40625 46.890625 
Q 22.3125 44.4375 30.421875 42.921875 
L 36.375 41.703125 
Q 47.40625 39.59375 52.65625 34.296875 
Q 57.90625 29 57.90625 20.125 
Q 57.90625 9.515625 50.796875 4.046875 
Q 43.703125 -1.421875 29.984375 -1.421875 
Q 24.8125 -1.421875 18.96875 -0.25 
Q 13.140625 0.921875 6.890625 3.21875 
L 6.890625 13.375 
Q 12.890625 10.015625 18.65625 8.296875 
Q 24.421875 6.59375 29.984375 6.59375 
Q 38.421875 6.59375 43.015625 9.90625 
Q 47.609375 13.234375 47.609375 19.390625 
Q 47.609375 24.75 44.3125 27.78125 
Q 41.015625 30.8125 33.5 32.328125 
L 27.484375 33.5 
Q 16.453125 35.6875 11.515625 40.375 
Q 6.59375 45.0625 6.59375 53.421875 
Q 6.59375 63.09375 13.40625 68.65625 
Q 20.21875 74.21875 32.171875 74.21875 
Q 37.3125 74.21875 42.625 73.28125 
Q 47.953125 72.359375 53.515625 70.515625 
z
" id="DejaVuSans-83"/>
       <path d="M 56.203125 29.59375 
L 56.203125 25.203125 
L 14.890625 25.203125 
Q 15.484375 15.921875 20.484375 11.0625 
Q 25.484375 6.203125 34.421875 6.203125 
Q 39.59375 6.203125 44.453125 7.46875 
Q 49.3125 8.734375 54.109375 11.28125 
L 54.109375 2.78125 
Q 49.265625 0.734375 44.1875 -0.34375 
Q 39.109375 -1.421875 33.890625 -1.421875 
Q 20.796875 -1.421875 13.15625 6.1875 
Q 5.515625 13.8125 5.515625 26.8125 
Q 5.515625 40.234375 12.765625 48.109375 
Q 20.015625 56 32.328125 56 
Q 43.359375 56 49.78125 48.890625 
Q 56.203125 41.796875 56.203125 29.59375 
z
M 47.21875 32.234375 
Q 47.125 39.59375 43.09375 43.984375 
Q 39.0625 48.390625 32.421875 48.390625 
Q 24.90625 48.390625 20.390625 44.140625 
Q 15.875 39.890625 15.1875 32.171875 
z
" id="DejaVuSans-101"/>
      </defs>
      <g style="fill:#262626;" transform="translate(349.057857 319.275625)scale(0.12 -0.12)">
       <use xlink:href="#DejaVuSans-83"/>
       <use x="63.476562" xlink:href="#DejaVuSans-101"/>
       <use x="125" xlink:href="#DejaVuSans-112"/>
      </g>
     </g>
    </g>
    <g id="xtick_9">
     <g id="line2d_9">
      <g>
       <use style="fill:#262626;stroke:#262626;" x="408.196429" xlink:href="#m6f150b020b" y="297.1575"/>
      </g>
     </g>
     <g id="text_8">
      <!-- Oct -->
      <defs>
       <path d="M 39.40625 66.21875 
Q 28.65625 66.21875 22.328125 58.203125 
Q 16.015625 50.203125 16.015625 36.375 
Q 16.015625 22.609375 22.328125 14.59375 
Q 28.65625 6.59375 39.40625 6.59375 
Q 50.140625 6.59375 56.421875 14.59375 
Q 62.703125 22.609375 62.703125 36.375 
Q 62.703125 50.203125 56.421875 58.203125 
Q 50.140625 66.21875 39.40625 66.21875 
z
M 39.40625 74.21875 
Q 54.734375 74.21875 63.90625 63.9375 
Q 73.09375 53.65625 73.09375 36.375 
Q 73.09375 19.140625 63.90625 8.859375 
Q 54.734375 -1.421875 39.40625 -1.421875 
Q 24.03125 -1.421875 14.8125 8.828125 
Q 5.609375 19.09375 5.609375 36.375 
Q 5.609375 53.65625 14.8125 63.9375 
Q 24.03125 74.21875 39.40625 74.21875 
z
" id="DejaVuSans-79"/>
       <path d="M 48.78125 52.59375 
L 48.78125 44.1875 
Q 44.96875 46.296875 41.140625 47.34375 
Q 37.3125 48.390625 33.40625 48.390625 
Q 24.65625 48.390625 19.8125 42.84375 
Q 14.984375 37.3125 14.984375 27.296875 
Q 14.984375 17.28125 19.8125 11.734375 
Q 24.65625 6.203125 33.40625 6.203125 
Q 37.3125 6.203125 41.140625 7.25 
Q 44.96875 8.296875 48.78125 10.40625 
L 48.78125 2.09375 
Q 45.015625 0.34375 40.984375 -0.53125 
Q 36.96875 -1.421875 32.421875 -1.421875 
Q 20.0625 -1.421875 12.78125 6.34375 
Q 5.515625 14.109375 5.515625 27.296875 
Q 5.515625 40.671875 12.859375 48.328125 
Q 20.21875 56 33.015625 56 
Q 37.15625 56 41.109375 55.140625 
Q 45.0625 54.296875 48.78125 52.59375 
z
" id="DejaVuSans-99"/>
       <path d="M 18.3125 70.21875 
L 18.3125 54.6875 
L 36.8125 54.6875 
L 36.8125 47.703125 
L 18.3125 47.703125 
L 18.3125 18.015625 
Q 18.3125 11.328125 20.140625 9.421875 
Q 21.96875 7.515625 27.59375 7.515625 
L 36.8125 7.515625 
L 36.8125 0 
L 27.59375 0 
Q 17.1875 0 13.234375 3.875 
Q 9.28125 7.765625 9.28125 18.015625 
L 9.28125 47.703125 
L 2.6875 47.703125 
L 2.6875 54.6875 
L 9.28125 54.6875 
L 9.28125 70.21875 
z
" id="DejaVuSans-116"/>
      </defs>
      <g style="fill:#262626;" transform="translate(397.822054 319.275625)scale(0.12 -0.12)">
       <use xlink:href="#DejaVuSans-79"/>
       <use x="78.710938" xlink:href="#DejaVuSans-99"/>
       <use x="133.691406" xlink:href="#DejaVuSans-116"/>
      </g>
     </g>
    </g>
    <g id="xtick_10">
     <g id="line2d_10">
      <g>
       <use style="fill:#262626;stroke:#262626;" x="457.619286" xlink:href="#m6f150b020b" y="297.1575"/>
      </g>
     </g>
     <g id="text_9">
      <!-- Nov -->
      <defs>
       <path d="M 9.8125 72.90625 
L 23.09375 72.90625 
L 55.421875 11.921875 
L 55.421875 72.90625 
L 64.984375 72.90625 
L 64.984375 0 
L 51.703125 0 
L 19.390625 60.984375 
L 19.390625 0 
L 9.8125 0 
z
" id="DejaVuSans-78"/>
       <path d="M 30.609375 48.390625 
Q 23.390625 48.390625 19.1875 42.75 
Q 14.984375 37.109375 14.984375 27.296875 
Q 14.984375 17.484375 19.15625 11.84375 
Q 23.34375 6.203125 30.609375 6.203125 
Q 37.796875 6.203125 41.984375 11.859375 
Q 46.1875 17.53125 46.1875 27.296875 
Q 46.1875 37.015625 41.984375 42.703125 
Q 37.796875 48.390625 30.609375 48.390625 
z
M 30.609375 56 
Q 42.328125 56 49.015625 48.375 
Q 55.71875 40.765625 55.71875 27.296875 
Q 55.71875 13.875 49.015625 6.21875 
Q 42.328125 -1.421875 30.609375 -1.421875 
Q 18.84375 -1.421875 12.171875 6.21875 
Q 5.515625 13.875 5.515625 27.296875 
Q 5.515625 40.765625 12.171875 48.375 
Q 18.84375 56 30.609375 56 
z
" id="DejaVuSans-111"/>
       <path d="M 2.984375 54.6875 
L 12.5 54.6875 
L 29.59375 8.796875 
L 46.6875 54.6875 
L 56.203125 54.6875 
L 35.6875 0 
L 23.484375 0 
z
" id="DejaVuSans-118"/>
      </defs>
      <g style="fill:#262626;" transform="translate(445.908036 319.275625)scale(0.12 -0.12)">
       <use xlink:href="#DejaVuSans-78"/>
       <use x="74.804688" xlink:href="#DejaVuSans-111"/>
       <use x="135.986328" xlink:href="#DejaVuSans-118"/>
      </g>
     </g>
    </g>
    <g id="xtick_11">
     <g id="line2d_11">
      <g>
       <use style="fill:#262626;stroke:#262626;" x="489.505" xlink:href="#m6f150b020b" y="297.1575"/>
      </g>
     </g>
    </g>
    <g id="xtick_12">
     <g id="line2d_12">
      <defs>
       <path d="M 0 0 
L 0 3 
" id="m86c4a3b078" style="stroke:#262626;stroke-width:0.5;"/>
      </defs>
      <g>
       <use style="fill:#262626;stroke:#262626;stroke-width:0.5;" x="46.293571" xlink:href="#m86c4a3b078" y="297.1575"/>
      </g>
     </g>
    </g>
    <g id="xtick_13">
     <g id="line2d_13">
      <g>
       <use style="fill:#262626;stroke:#262626;stroke-width:0.5;" x="57.453571" xlink:href="#m86c4a3b078" y="297.1575"/>
      </g>
     </g>
    </g>
    <g id="xtick_14">
     <g id="line2d_14">
      <g>
       <use style="fill:#262626;stroke:#262626;stroke-width:0.5;" x="68.613571" xlink:href="#m86c4a3b078" y="297.1575"/>
      </g>
     </g>
    </g>
    <g id="xtick_15">
     <g id="line2d_15">
      <g>
       <use style="fill:#262626;stroke:#262626;stroke-width:0.5;" x="79.773571" xlink:href="#m86c4a3b078" y="297.1575"/>
      </g>
     </g>
    </g>
    <g id="xtick_16">
     <g id="line2d_16">
      <g>
       <use style="fill:#262626;stroke:#262626;stroke-width:0.5;" x="90.933571" xlink:href="#m86c4a3b078" y="297.1575"/>
      </g>
     </g>
    </g>
    <g id="xtick_17">
     <g id="line2d_17">
      <g>
       <use style="fill:#262626;stroke:#262626;stroke-width:0.5;" x="102.093571" xlink:href="#m86c4a3b078" y="297.1575"/>
      </g>
     </g>
    </g>
    <g id="xtick_18">
     <g id="line2d_18">
      <g>
       <use style="fill:#262626;stroke:#262626;stroke-width:0.5;" x="113.253571" xlink:href="#m86c4a3b078" y="297.1575"/>
      </g>
     </g>
    </g>
    <g id="xtick_19">
     <g id="line2d_19">
      <g>
       <use style="fill:#262626;stroke:#262626;stroke-width:0.5;" x="124.413571" xlink:href="#m86c4a3b078" y="297.1575"/>
      </g>
     </g>
    </g>
    <g id="xtick_20">
     <g id="line2d_20">
      <g>
       <use style="fill:#262626;stroke:#262626;stroke-width:0.5;" x="135.573571" xlink:href="#m86c4a3b078" y="297.1575"/>
      </g>
     </g>
    </g>
    <g id="xtick_21">
     <g id="line2d_21">
      <g>
       <use style="fill:#262626;stroke:#262626;stroke-width:0.5;" x="146.733571" xlink:href="#m86c4a3b078" y="297.1575"/>
      </g>
     </g>
    </g>
    <g id="xtick_22">
     <g id="line2d_22">
      <g>
       <use style="fill:#262626;stroke:#262626;stroke-width:0.5;" x="157.893571" xlink:href="#m86c4a3b078" y="297.1575"/>
      </g>
     </g>
    </g>
    <g id="xtick_23">
     <g id="line2d_23">
      <g>
       <use style="fill:#262626;stroke:#262626;stroke-width:0.5;" x="169.053571" xlink:href="#m86c4a3b078" y="297.1575"/>
      </g>
     </g>
    </g>
    <g id="xtick_24">
     <g id="line2d_24">
      <g>
       <use style="fill:#262626;stroke:#262626;stroke-width:0.5;" x="180.213571" xlink:href="#m86c4a3b078" y="297.1575"/>
      </g>
     </g>
    </g>
    <g id="xtick_25">
     <g id="line2d_25">
      <g>
       <use style="fill:#262626;stroke:#262626;stroke-width:0.5;" x="191.373571" xlink:href="#m86c4a3b078" y="297.1575"/>
      </g>
     </g>
    </g>
    <g id="xtick_26">
     <g id="line2d_26">
      <g>
       <use style="fill:#262626;stroke:#262626;stroke-width:0.5;" x="202.533571" xlink:href="#m86c4a3b078" y="297.1575"/>
      </g>
     </g>
    </g>
    <g id="xtick_27">
     <g id="line2d_27">
      <g>
       <use style="fill:#262626;stroke:#262626;stroke-width:0.5;" x="224.853571" xlink:href="#m86c4a3b078" y="297.1575"/>
      </g>
     </g>
    </g>
    <g id="xtick_28">
     <g id="line2d_28">
      <g>
       <use style="fill:#262626;stroke:#262626;stroke-width:0.5;" x="236.013571" xlink:href="#m86c4a3b078" y="297.1575"/>
      </g>
     </g>
    </g>
    <g id="xtick_29">
     <g id="line2d_29">
      <g>
       <use style="fill:#262626;stroke:#262626;stroke-width:0.5;" x="247.173571" xlink:href="#m86c4a3b078" y="297.1575"/>
      </g>
     </g>
    </g>
    <g id="xtick_30">
     <g id="line2d_30">
      <g>
       <use style="fill:#262626;stroke:#262626;stroke-width:0.5;" x="258.333571" xlink:href="#m86c4a3b078" y="297.1575"/>
      </g>
     </g>
    </g>
    <g id="xtick_31">
     <g id="line2d_31">
      <g>
       <use style="fill:#262626;stroke:#262626;stroke-width:0.5;" x="269.493571" xlink:href="#m86c4a3b078" y="297.1575"/>
      </g>
     </g>
    </g>
    <g id="xtick_32">
     <g id="line2d_32">
      <g>
       <use style="fill:#262626;stroke:#262626;stroke-width:0.5;" x="280.653571" xlink:href="#m86c4a3b078" y="297.1575"/>
      </g>
     </g>
    </g>
    <g id="xtick_33">
     <g id="line2d_33">
      <g>
       <use style="fill:#262626;stroke:#262626;stroke-width:0.5;" x="291.813571" xlink:href="#m86c4a3b078" y="297.1575"/>
      </g>
     </g>
    </g>
    <g id="xtick_34">
     <g id="line2d_34">
      <g>
       <use style="fill:#262626;stroke:#262626;stroke-width:0.5;" x="302.973571" xlink:href="#m86c4a3b078" y="297.1575"/>
      </g>
     </g>
    </g>
    <g id="xtick_35">
     <g id="line2d_35">
      <g>
       <use style="fill:#262626;stroke:#262626;stroke-width:0.5;" x="314.133571" xlink:href="#m86c4a3b078" y="297.1575"/>
      </g>
     </g>
    </g>
    <g id="xtick_36">
     <g id="line2d_36">
      <g>
       <use style="fill:#262626;stroke:#262626;stroke-width:0.5;" x="325.293571" xlink:href="#m86c4a3b078" y="297.1575"/>
      </g>
     </g>
    </g>
    <g id="xtick_37">
     <g id="line2d_37">
      <g>
       <use style="fill:#262626;stroke:#262626;stroke-width:0.5;" x="336.453571" xlink:href="#m86c4a3b078" y="297.1575"/>
      </g>
     </g>
    </g>
    <g id="xtick_38">
     <g id="line2d_38">
      <g>
       <use style="fill:#262626;stroke:#262626;stroke-width:0.5;" x="347.613571" xlink:href="#m86c4a3b078" y="297.1575"/>
      </g>
     </g>
    </g>
    <g id="xtick_39">
     <g id="line2d_39">
      <g>
       <use style="fill:#262626;stroke:#262626;stroke-width:0.5;" x="358.773571" xlink:href="#m86c4a3b078" y="297.1575"/>
      </g>
     </g>
    </g>
    <g id="xtick_40">
     <g id="line2d_40">
      <g>
       <use style="fill:#262626;stroke:#262626;stroke-width:0.5;" x="369.933571" xlink:href="#m86c4a3b078" y="297.1575"/>
      </g>
     </g>
    </g>
    <g id="xtick_41">
     <g id="line2d_41">
      <g>
       <use style="fill:#262626;stroke:#262626;stroke-width:0.5;" x="381.093571" xlink:href="#m86c4a3b078" y="297.1575"/>
      </g>
     </g>
    </g>
    <g id="xtick_42">
     <g id="line2d_42">
      <g>
       <use style="fill:#262626;stroke:#262626;stroke-width:0.5;" x="392.253571" xlink:href="#m86c4a3b078" y="297.1575"/>
      </g>
     </g>
    </g>
    <g id="xtick_43">
     <g id="line2d_43">
      <g>
       <use style="fill:#262626;stroke:#262626;stroke-width:0.5;" x="403.413571" xlink:href="#m86c4a3b078" y="297.1575"/>
      </g>
     </g>
    </g>
    <g id="xtick_44">
     <g id="line2d_44">
      <g>
       <use style="fill:#262626;stroke:#262626;stroke-width:0.5;" x="414.573571" xlink:href="#m86c4a3b078" y="297.1575"/>
      </g>
     </g>
    </g>
    <g id="xtick_45">
     <g id="line2d_45">
      <g>
       <use style="fill:#262626;stroke:#262626;stroke-width:0.5;" x="425.733571" xlink:href="#m86c4a3b078" y="297.1575"/>
      </g>
     </g>
    </g>
    <g id="xtick_46">
     <g id="line2d_46">
      <g>
       <use style="fill:#262626;stroke:#262626;stroke-width:0.5;" x="436.893571" xlink:href="#m86c4a3b078" y="297.1575"/>
      </g>
     </g>
    </g>
    <g id="xtick_47">
     <g id="line2d_47">
      <g>
       <use style="fill:#262626;stroke:#262626;stroke-width:0.5;" x="448.053571" xlink:href="#m86c4a3b078" y="297.1575"/>
      </g>
     </g>
    </g>
    <g id="xtick_48">
     <g id="line2d_48">
      <g>
       <use style="fill:#262626;stroke:#262626;stroke-width:0.5;" x="459.213571" xlink:href="#m86c4a3b078" y="297.1575"/>
      </g>
     </g>
    </g>
    <g id="xtick_49">
     <g id="line2d_49">
      <g>
       <use style="fill:#262626;stroke:#262626;stroke-width:0.5;" x="470.373571" xlink:href="#m86c4a3b078" y="297.1575"/>
      </g>
     </g>
    </g>
    <g id="xtick_50">
     <g id="line2d_50">
      <g>
       <use style="fill:#262626;stroke:#262626;stroke-width:0.5;" x="481.533571" xlink:href="#m86c4a3b078" y="297.1575"/>
      </g>
     </g>
    </g>
   </g>
   <g id="matplotlib.axis_2">
    <g id="ytick_1">
     <g id="line2d_51">
      <path clip-path="url(#p2e6acba981)" d="M 43.105 297.1575 
L 489.505 297.1575 
" style="fill:none;stroke:#b0b0b0;stroke-linecap:square;stroke-opacity:0.3;"/>
     </g>
     <g id="line2d_52">
      <defs>
       <path d="M 0 0 
L -6 0 
" id="m2d3e86619b" style="stroke:#262626;"/>
      </defs>
      <g>
       <use style="fill:#262626;stroke:#262626;" x="43.105" xlink:href="#m2d3e86619b" y="297.1575"/>
      </g>
     </g>
     <g id="text_10">
      <!-- 0 -->
      <g style="fill:#262626;" transform="translate(22.47 301.716562)scale(0.12 -0.12)">
       <use xlink:href="#DejaVuSans-48"/>
      </g>
     </g>
    </g>
    <g id="ytick_2">
     <g id="line2d_53">
      <path clip-path="url(#p2e6acba981)" d="M 43.105 254.479382 
L 489.505 254.479382 
" style="fill:none;stroke:#b0b0b0;stroke-linecap:square;stroke-opacity:0.3;"/>
     </g>
     <g id="line2d_54">
      <g>
       <use style="fill:#262626;stroke:#262626;" x="43.105" xlink:href="#m2d3e86619b" y="254.479382"/>
      </g>
     </g>
     <g id="text_11">
      <!-- 100 -->
      <defs>
       <path d="M 12.40625 8.296875 
L 28.515625 8.296875 
L 28.515625 63.921875 
L 10.984375 60.40625 
L 10.984375 69.390625 
L 28.421875 72.90625 
L 38.28125 72.90625 
L 38.28125 8.296875 
L 54.390625 8.296875 
L 54.390625 0 
L 12.40625 0 
z
" id="DejaVuSans-49"/>
      </defs>
      <g style="fill:#262626;" transform="translate(7.2 259.038445)scale(0.12 -0.12)">
       <use xlink:href="#DejaVuSans-49"/>
       <use x="63.623047" xlink:href="#DejaVuSans-48"/>
       <use x="127.246094" xlink:href="#DejaVuSans-48"/>
      </g>
     </g>
    </g>
    <g id="ytick_3">
     <g id="line2d_55">
      <path clip-path="url(#p2e6acba981)" d="M 43.105 211.801264 
L 489.505 211.801264 
" style="fill:none;stroke:#b0b0b0;stroke-linecap:square;stroke-opacity:0.3;"/>
     </g>
     <g id="line2d_56">
      <g>
       <use style="fill:#262626;stroke:#262626;" x="43.105" xlink:href="#m2d3e86619b" y="211.801264"/>
      </g>
     </g>
     <g id="text_12">
      <!-- 200 -->
      <g style="fill:#262626;" transform="translate(7.2 216.360327)scale(0.12 -0.12)">
       <use xlink:href="#DejaVuSans-50"/>
       <use x="63.623047" xlink:href="#DejaVuSans-48"/>
       <use x="127.246094" xlink:href="#DejaVuSans-48"/>
      </g>
     </g>
    </g>
    <g id="ytick_4">
     <g id="line2d_57">
      <path clip-path="url(#p2e6acba981)" d="M 43.105 169.123146 
L 489.505 169.123146 
" style="fill:none;stroke:#b0b0b0;stroke-linecap:square;stroke-opacity:0.3;"/>
     </g>
     <g id="line2d_58">
      <g>
       <use style="fill:#262626;stroke:#262626;" x="43.105" xlink:href="#m2d3e86619b" y="169.123146"/>
      </g>
     </g>
     <g id="text_13">
      <!-- 300 -->
      <defs>
       <path d="M 40.578125 39.3125 
Q 47.65625 37.796875 51.625 33 
Q 55.609375 28.21875 55.609375 21.1875 
Q 55.609375 10.40625 48.1875 4.484375 
Q 40.765625 -1.421875 27.09375 -1.421875 
Q 22.515625 -1.421875 17.65625 -0.515625 
Q 12.796875 0.390625 7.625 2.203125 
L 7.625 11.71875 
Q 11.71875 9.328125 16.59375 8.109375 
Q 21.484375 6.890625 26.8125 6.890625 
Q 36.078125 6.890625 40.9375 10.546875 
Q 45.796875 14.203125 45.796875 21.1875 
Q 45.796875 27.640625 41.28125 31.265625 
Q 36.765625 34.90625 28.71875 34.90625 
L 20.21875 34.90625 
L 20.21875 43.015625 
L 29.109375 43.015625 
Q 36.375 43.015625 40.234375 45.921875 
Q 44.09375 48.828125 44.09375 54.296875 
Q 44.09375 59.90625 40.109375 62.90625 
Q 36.140625 65.921875 28.71875 65.921875 
Q 24.65625 65.921875 20.015625 65.03125 
Q 15.375 64.15625 9.8125 62.3125 
L 9.8125 71.09375 
Q 15.4375 72.65625 20.34375 73.4375 
Q 25.25 74.21875 29.59375 74.21875 
Q 40.828125 74.21875 47.359375 69.109375 
Q 53.90625 64.015625 53.90625 55.328125 
Q 53.90625 49.265625 50.4375 45.09375 
Q 46.96875 40.921875 40.578125 39.3125 
z
" id="DejaVuSans-51"/>
      </defs>
      <g style="fill:#262626;" transform="translate(7.2 173.682209)scale(0.12 -0.12)">
       <use xlink:href="#DejaVuSans-51"/>
       <use x="63.623047" xlink:href="#DejaVuSans-48"/>
       <use x="127.246094" xlink:href="#DejaVuSans-48"/>
      </g>
     </g>
    </g>
    <g id="ytick_5">
     <g id="line2d_59">
      <path clip-path="url(#p2e6acba981)" d="M 43.105 126.445028 
L 489.505 126.445028 
" style="fill:none;stroke:#b0b0b0;stroke-linecap:square;stroke-opacity:0.3;"/>
     </g>
     <g id="line2d_60">
      <g>
       <use style="fill:#262626;stroke:#262626;" x="43.105" xlink:href="#m2d3e86619b" y="126.445028"/>
      </g>
     </g>
     <g id="text_14">
      <!-- 400 -->
      <defs>
       <path d="M 37.796875 64.3125 
L 12.890625 25.390625 
L 37.796875 25.390625 
z
M 35.203125 72.90625 
L 47.609375 72.90625 
L 47.609375 25.390625 
L 58.015625 25.390625 
L 58.015625 17.1875 
L 47.609375 17.1875 
L 47.609375 0 
L 37.796875 0 
L 37.796875 17.1875 
L 4.890625 17.1875 
L 4.890625 26.703125 
z
" id="DejaVuSans-52"/>
      </defs>
      <g style="fill:#262626;" transform="translate(7.2 131.004091)scale(0.12 -0.12)">
       <use xlink:href="#DejaVuSans-52"/>
       <use x="63.623047" xlink:href="#DejaVuSans-48"/>
       <use x="127.246094" xlink:href="#DejaVuSans-48"/>
      </g>
     </g>
    </g>
    <g id="ytick_6">
     <g id="line2d_61">
      <path clip-path="url(#p2e6acba981)" d="M 43.105 83.76691 
L 489.505 83.76691 
" style="fill:none;stroke:#b0b0b0;stroke-linecap:square;stroke-opacity:0.3;"/>
     </g>
     <g id="line2d_62">
      <g>
       <use style="fill:#262626;stroke:#262626;" x="43.105" xlink:href="#m2d3e86619b" y="83.76691"/>
      </g>
     </g>
     <g id="text_15">
      <!-- 500 -->
      <defs>
       <path d="M 10.796875 72.90625 
L 49.515625 72.90625 
L 49.515625 64.59375 
L 19.828125 64.59375 
L 19.828125 46.734375 
Q 21.96875 47.46875 24.109375 47.828125 
Q 26.265625 48.1875 28.421875 48.1875 
Q 40.625 48.1875 47.75 41.5 
Q 54.890625 34.8125 54.890625 23.390625 
Q 54.890625 11.625 47.5625 5.09375 
Q 40.234375 -1.421875 26.90625 -1.421875 
Q 22.3125 -1.421875 17.546875 -0.640625 
Q 12.796875 0.140625 7.71875 1.703125 
L 7.71875 11.625 
Q 12.109375 9.234375 16.796875 8.0625 
Q 21.484375 6.890625 26.703125 6.890625 
Q 35.15625 6.890625 40.078125 11.328125 
Q 45.015625 15.765625 45.015625 23.390625 
Q 45.015625 31 40.078125 35.4375 
Q 35.15625 39.890625 26.703125 39.890625 
Q 22.75 39.890625 18.8125 39.015625 
Q 14.890625 38.140625 10.796875 36.28125 
z
" id="DejaVuSans-53"/>
      </defs>
      <g style="fill:#262626;" transform="translate(7.2 88.325973)scale(0.12 -0.12)">
       <use xlink:href="#DejaVuSans-53"/>
       <use x="63.623047" xlink:href="#DejaVuSans-48"/>
       <use x="127.246094" xlink:href="#DejaVuSans-48"/>
      </g>
     </g>
    </g>
    <g id="ytick_7">
     <g id="line2d_63">
      <path clip-path="url(#p2e6acba981)" d="M 43.105 41.088792 
L 489.505 41.088792 
" style="fill:none;stroke:#b0b0b0;stroke-linecap:square;stroke-opacity:0.3;"/>
     </g>
     <g id="line2d_64">
      <g>
       <use style="fill:#262626;stroke:#262626;" x="43.105" xlink:href="#m2d3e86619b" y="41.088792"/>
      </g>
     </g>
     <g id="text_16">
      <!-- 600 -->
      <defs>
       <path d="M 33.015625 40.375 
Q 26.375 40.375 22.484375 35.828125 
Q 18.609375 31.296875 18.609375 23.390625 
Q 18.609375 15.53125 22.484375 10.953125 
Q 26.375 6.390625 33.015625 6.390625 
Q 39.65625 6.390625 43.53125 10.953125 
Q 47.40625 15.53125 47.40625 23.390625 
Q 47.40625 31.296875 43.53125 35.828125 
Q 39.65625 40.375 33.015625 40.375 
z
M 52.59375 71.296875 
L 52.59375 62.3125 
Q 48.875 64.0625 45.09375 64.984375 
Q 41.3125 65.921875 37.59375 65.921875 
Q 27.828125 65.921875 22.671875 59.328125 
Q 17.53125 52.734375 16.796875 39.40625 
Q 19.671875 43.65625 24.015625 45.921875 
Q 28.375 48.1875 33.59375 48.1875 
Q 44.578125 48.1875 50.953125 41.515625 
Q 57.328125 34.859375 57.328125 23.390625 
Q 57.328125 12.15625 50.6875 5.359375 
Q 44.046875 -1.421875 33.015625 -1.421875 
Q 20.359375 -1.421875 13.671875 8.265625 
Q 6.984375 17.96875 6.984375 36.375 
Q 6.984375 53.65625 15.1875 63.9375 
Q 23.390625 74.21875 37.203125 74.21875 
Q 40.921875 74.21875 44.703125 73.484375 
Q 48.484375 72.75 52.59375 71.296875 
z
" id="DejaVuSans-54"/>
      </defs>
      <g style="fill:#262626;" transform="translate(7.2 45.647855)scale(0.12 -0.12)">
       <use xlink:href="#DejaVuSans-54"/>
       <use x="63.623047" xlink:href="#DejaVuSans-48"/>
       <use x="127.246094" xlink:href="#DejaVuSans-48"/>
      </g>
     </g>
    </g>
   </g>
   <g id="line2d_65">
    <path clip-path="url(#p2e6acba981)" d="M -1 297.1575 
L 79.773571 297.071345 
L 87.745 296.817328 
L 92.527857 296.433616 
L 94.122143 296.156624 
L 95.716429 295.656186 
L 98.905 293.924386 
L 100.499286 292.748607 
L 102.093571 291.333818 
L 103.687857 289.416368 
L 105.282143 288.115155 
L 106.876429 286.081721 
L 108.470714 283.865416 
L 111.659286 279.015374 
L 114.847857 275.261627 
L 116.442143 272.258443 
L 118.036429 269.82388 
L 119.630714 267.596459 
L 122.819286 262.404392 
L 124.413571 261.1004 
L 126.007857 259.439191 
L 130.790714 256.30483 
L 132.385 255.730096 
L 133.979286 256.81972 
L 135.573571 256.408031 
L 137.167857 257.434104 
L 140.356429 258.706228 
L 141.950714 259.120141 
L 143.545 259.98984 
L 145.139286 259.150341 
L 146.733571 259.709698 
L 148.327857 259.14608 
L 149.922143 257.225295 
L 151.516429 259.552396 
L 153.110714 260.501765 
L 154.705 262.258393 
L 156.299286 259.366747 
L 157.893571 258.948758 
L 159.487857 259.972238 
L 161.082143 262.409951 
L 162.676429 260.605706 
L 164.270714 259.980576 
L 165.865 257.645507 
L 167.459286 261.210456 
L 169.053571 261.559706 
L 172.242143 261.603988 
L 173.836429 262.19651 
L 175.430714 262.483321 
L 177.025 263.779902 
L 178.619286 264.460987 
L 181.807857 266.163698 
L 183.402143 266.495903 
L 184.996429 267.115846 
L 191.373571 268.076516 
L 192.967857 267.386538 
L 194.562143 267.771547 
L 196.156429 267.307795 
L 199.345 267.876601 
L 200.939286 268.478942 
L 202.533571 268.164894 
L 204.127857 268.679413 
L 205.722143 268.875809 
L 207.316429 269.721421 
L 208.910714 270.391574 
L 210.505 270.171093 
L 212.099286 269.789233 
L 213.693571 269.93023 
L 216.882143 269.252851 
L 218.476429 269.071649 
L 223.259286 269.425531 
L 224.853571 268.96326 
L 228.042143 269.73087 
L 229.636429 269.56134 
L 231.230714 269.238399 
L 232.825 269.152986 
L 234.419286 268.538416 
L 236.013571 269.0496 
L 237.607857 268.839309 
L 242.390714 266.085325 
L 243.985 265.294185 
L 245.579286 263.697453 
L 247.173571 262.539461 
L 250.362143 258.380323 
L 251.956429 256.753575 
L 253.550714 254.310304 
L 255.145 251.416621 
L 256.739286 249.873619 
L 258.333571 247.487229 
L 259.927857 245.603685 
L 261.522143 243.906531 
L 263.116429 240.62543 
L 264.710714 238.318709 
L 266.305 236.666949 
L 267.899286 236.160212 
L 269.493571 234.229607 
L 271.087857 232.666966 
L 272.682143 230.148472 
L 274.276429 228.87783 
L 275.870714 227.098228 
L 277.465 224.840976 
L 279.059286 221.537456 
L 282.247857 218.51945 
L 283.842143 216.473047 
L 285.436429 214.840555 
L 287.030714 212.260363 
L 288.625 211.358241 
L 290.219286 211.228917 
L 291.813571 210.388121 
L 293.407857 210.640842 
L 295.002143 209.986808 
L 296.596429 209.777257 
L 298.190714 212.321876 
L 299.785 211.037338 
L 301.379286 210.713286 
L 302.973571 211.788458 
L 304.567857 211.882395 
L 306.162143 213.79336 
L 307.756429 212.656304 
L 309.350714 211.760296 
L 310.945 213.873215 
L 312.539286 215.187027 
L 314.133571 216.758561 
L 315.727857 218.729186 
L 317.322143 219.509024 
L 318.916429 223.618692 
L 322.105 226.796223 
L 323.699286 227.201243 
L 325.293571 227.324268 
L 326.887857 226.597419 
L 328.482143 228.582125 
L 330.076429 228.000906 
L 331.670714 229.605605 
L 333.265 228.366461 
L 334.859286 229.873889 
L 336.453571 230.752666 
L 338.047857 233.434391 
L 339.642143 233.938719 
L 341.236429 235.516368 
L 342.830714 236.829809 
L 344.425 239.601209 
L 346.019286 240.288037 
L 347.613571 241.695785 
L 349.207857 241.095112 
L 350.802143 242.201596 
L 352.396429 243.049802 
L 353.990714 242.697032 
L 357.179286 242.782445 
L 358.773571 242.583271 
L 360.367857 243.40739 
L 361.962143 242.199373 
L 363.556429 242.957904 
L 365.150714 244.747697 
L 366.745 244.485157 
L 368.339286 244.485713 
L 369.933571 245.416924 
L 371.527857 247.1956 
L 373.122143 250.441128 
L 374.716429 251.706026 
L 376.310714 251.472945 
L 379.499286 252.64576 
L 381.093571 252.031376 
L 382.687857 250.069088 
L 384.282143 245.557365 
L 385.876429 246.915273 
L 387.470714 245.792484 
L 389.065 245.394505 
L 390.659286 245.491777 
L 392.253571 244.383624 
L 393.847857 240.9908 
L 395.442143 243.43018 
L 397.036429 240.960043 
L 398.630714 240.840353 
L 401.819286 239.010355 
L 403.413571 239.6781 
L 405.007857 243.412393 
L 408.196429 241.788981 
L 409.790714 241.685595 
L 411.385 241.786016 
L 412.979286 240.805706 
L 414.573571 241.055277 
L 416.167857 239.627333 
L 417.762143 239.618996 
L 419.356429 238.470267 
L 420.950714 236.241549 
L 424.139286 234.903281 
L 425.733571 233.292097 
L 427.327857 233.116452 
L 428.922143 231.364642 
L 430.516429 229.288778 
L 432.110714 227.994606 
L 433.705 225.739023 
L 435.299286 225.30547 
L 436.893571 224.518777 
L 438.487857 221.089823 
L 440.082143 219.972221 
L 441.676429 219.3067 
L 443.270714 217.773889 
L 444.865 214.981182 
L 446.459286 210.081485 
L 448.053571 207.932807 
L 449.647857 206.413707 
L 452.836429 200.489789 
L 456.025 194.557904 
L 457.619286 195.321623 
L 459.213571 191.326828 
L 460.807857 188.45056 
L 462.402143 185.188728 
L 463.996429 180.71684 
L 465.590714 174.360667 
L 467.185 168.922735 
L 468.779286 161.052278 
L 470.373571 155.550982 
L 473.562143 135.252211 
L 475.156429 127.693023 
L 476.750714 121.906211 
L 478.345 111.865955 
L 479.939286 103.738888 
L 481.533571 99.759656 
L 481.533571 99.759656 
" style="fill:none;stroke:#4c72b0;stroke-linecap:square;stroke-width:2;"/>
   </g>
   <g id="line2d_66">
    <path clip-path="url(#p2e6acba981)" d="M -1 297.1575 
L 55.859286 297.080733 
L 62.236429 296.756493 
L 67.019286 296.097913 
L 68.613571 295.584786 
L 70.207857 295.332262 
L 71.802143 294.955498 
L 76.585 293.371672 
L 79.773571 291.414113 
L 81.367857 289.949478 
L 82.962143 289.433321 
L 86.150714 285.788906 
L 87.745 284.002052 
L 89.339286 281.729343 
L 90.933571 280.38491 
L 92.527857 278.159676 
L 94.122143 275.584949 
L 95.716429 273.671833 
L 97.310714 270.973876 
L 98.905 267.500167 
L 100.499286 264.409283 
L 102.093571 261.644659 
L 103.687857 260.847696 
L 105.282143 259.107306 
L 106.876429 258.094183 
L 108.470714 257.254796 
L 110.065 257.282068 
L 111.659286 257.870953 
L 113.253571 258.217414 
L 114.847857 258.963873 
L 116.442143 260.171944 
L 118.036429 260.604264 
L 121.225 263.492119 
L 122.819286 264.672917 
L 124.413571 265.583011 
L 126.007857 266.038563 
L 129.196429 268.018344 
L 130.790714 268.487027 
L 132.385 269.127426 
L 133.979286 269.239546 
L 135.573571 269.465807 
L 137.167857 269.916309 
L 138.762143 269.983985 
L 140.356429 271.164783 
L 143.545 272.049624 
L 145.139286 273.264766 
L 146.733571 274.320313 
L 148.327857 275.226366 
L 149.922143 275.471819 
L 151.516429 274.761724 
L 153.110714 275.913229 
L 154.705 276.389993 
L 156.299286 277.535438 
L 157.893571 278.265735 
L 159.487857 278.787953 
L 161.082143 279.432392 
L 162.676429 280.729351 
L 164.270714 281.511163 
L 165.865 282.577821 
L 167.459286 283.039434 
L 169.053571 283.98387 
L 170.647857 284.507098 
L 172.242143 285.533353 
L 173.836429 286.181832 
L 175.430714 286.657586 
L 177.025 287.302025 
L 178.619286 288.127271 
L 181.807857 289.202009 
L 183.402143 288.871709 
L 184.996429 289.433321 
L 186.590714 289.846449 
L 188.185 290.389879 
L 192.967857 291.024217 
L 194.562143 291.619161 
L 196.156429 291.844412 
L 197.750714 292.197945 
L 204.127857 292.842384 
L 205.722143 293.262582 
L 210.505 293.531267 
L 213.693571 293.964597 
L 218.476429 294.43328 
L 220.070714 294.853478 
L 221.665 294.851458 
L 224.853571 295.158526 
L 226.447857 295.055497 
L 229.636429 295.211051 
L 231.230714 295.007013 
L 232.825 295.365595 
L 237.607857 295.125193 
L 239.202143 295.19893 
L 240.796429 295.071658 
L 242.390714 295.120143 
L 243.985 295.434282 
L 250.362143 295.811046 
L 251.956429 295.559533 
L 253.550714 295.594887 
L 255.145 295.187819 
L 259.927857 295.424181 
L 261.522143 295.394888 
L 263.116429 295.793875 
L 266.305 295.922157 
L 272.682143 295.765592 
L 287.030714 295.770643 
L 290.219286 295.754481 
L 295.002143 295.735289 
L 298.190714 295.539331 
L 309.350714 295.319131 
L 312.539286 295.169637 
L 317.322143 295.207011 
L 326.887857 294.535299 
L 328.482143 294.311059 
L 333.265 294.073687 
L 334.859286 293.788841 
L 339.642143 293.724195 
L 341.236429 293.556519 
L 344.425 292.858545 
L 346.019286 292.412084 
L 349.207857 291.033308 
L 350.802143 290.553514 
L 352.396429 289.822206 
L 355.585 288.729286 
L 357.179286 288.352521 
L 358.773571 288.194947 
L 365.150714 288.104039 
L 368.339286 287.57677 
L 369.933571 287.646467 
L 371.527857 287.490912 
L 373.122143 287.092936 
L 376.310714 286.785868 
L 379.499286 287.097986 
L 381.093571 286.936371 
L 384.282143 287.221218 
L 387.470714 287.213137 
L 389.065 286.9192 
L 392.253571 286.649505 
L 393.847857 286.304053 
L 406.602143 284.921236 
L 408.196429 284.709117 
L 409.790714 283.939426 
L 411.385 283.346502 
L 412.979286 282.362671 
L 416.167857 280.771775 
L 417.762143 279.73138 
L 420.950714 275.956663 
L 425.733571 267.237543 
L 427.327857 264.851704 
L 428.922143 261.598195 
L 430.516429 257.906306 
L 433.705 248.833653 
L 435.299286 243.58016 
L 436.893571 237.268091 
L 440.082143 227.479282 
L 441.676429 219.532882 
L 443.270714 212.184457 
L 448.053571 184.490744 
L 449.647857 176.743333 
L 451.242143 165.513122 
L 452.836429 155.625324 
L 454.430714 144.765817 
L 457.619286 120.471066 
L 459.213571 111.751945 
L 460.807857 106.452999 
L 462.402143 100.137899 
L 463.996429 94.521783 
L 465.590714 86.771341 
L 467.185 79.980488 
L 468.779286 71.846211 
L 470.373571 69.10987 
L 471.967857 66.06343 
L 473.562143 59.145305 
L 475.156429 56.707951 
L 476.750714 53.197878 
L 478.345 50.066591 
L 479.939286 52.652428 
L 481.533571 51.275672 
L 481.533571 51.275672 
" style="fill:none;stroke:#55a868;stroke-linecap:square;stroke-width:2;"/>
   </g>
   <g id="line2d_67">
    <path clip-path="url(#p2e6acba981)" d="M -1 297.1575 
L 70.207857 297.053216 
L 74.990714 296.898259 
L 76.585 296.697036 
L 84.556429 296.199117 
L 86.150714 295.71148 
L 87.745 295.411113 
L 89.339286 294.992509 
L 94.122143 292.853956 
L 95.716429 292.287739 
L 97.310714 288.514427 
L 98.905 286.049804 
L 100.499286 284.182242 
L 102.093571 282.516639 
L 103.687857 280.119579 
L 105.282143 279.239776 
L 106.876429 276.36683 
L 108.470714 276.484333 
L 110.065 274.835621 
L 111.659286 274.329624 
L 113.253571 273.272098 
L 114.847857 273.14211 
L 116.442143 270.857413 
L 118.036429 269.974673 
L 119.630714 269.685322 
L 121.225 269.841013 
L 122.819286 268.393524 
L 124.413571 269.182262 
L 126.007857 269.755823 
L 127.602143 270.820693 
L 129.196429 271.688746 
L 130.790714 272.313715 
L 132.385 273.745047 
L 133.979286 276.032682 
L 135.573571 276.86989 
L 137.167857 278.156546 
L 138.762143 279.270621 
L 141.950714 282.245647 
L 143.545 282.630469 
L 145.139286 282.897054 
L 146.733571 283.456662 
L 149.922143 283.85764 
L 151.516429 284.235118 
L 153.110714 285.00109 
L 154.705 286.142337 
L 159.487857 287.698516 
L 162.676429 289.025565 
L 164.270714 289.538171 
L 167.459286 291.046615 
L 175.430714 292.3531 
L 177.025 292.128376 
L 178.619286 292.220909 
L 180.213571 292.457384 
L 181.807857 292.275254 
L 183.402143 292.384679 
L 186.590714 292.859831 
L 188.185 293.323233 
L 191.373571 293.395938 
L 192.967857 293.704383 
L 194.562143 293.705118 
L 196.156429 293.843184 
L 197.750714 294.175864 
L 199.345 294.162645 
L 202.533571 294.313195 
L 204.127857 294.372681 
L 207.316429 294.980024 
L 208.910714 294.77366 
L 210.505 294.700221 
L 212.099286 294.806708 
L 213.693571 294.774394 
L 215.287857 294.935226 
L 218.476429 294.919804 
L 223.259286 295.32372 
L 224.853571 295.411113 
L 226.447857 295.310501 
L 228.042143 295.328127 
L 229.636429 295.209889 
L 231.230714 295.392753 
L 237.607857 295.471333 
L 240.796429 295.433145 
L 242.390714 295.057136 
L 243.985 294.871334 
L 247.173571 294.294836 
L 251.956429 293.988594 
L 253.550714 294.203771 
L 255.145 294.140613 
L 256.739286 294.457136 
L 258.333571 294.659095 
L 261.522143 294.751628 
L 267.899286 295.074761 
L 285.436429 295.338408 
L 288.625 295.089449 
L 291.813571 295.057136 
L 298.190714 294.704627 
L 301.379286 294.443917 
L 304.567857 294.29557 
L 310.945 293.713931 
L 312.539286 293.761666 
L 322.105 292.983944 
L 323.699286 292.75261 
L 325.293571 292.806221 
L 326.887857 292.742328 
L 330.076429 292.092391 
L 333.265 291.655427 
L 336.453571 291.51222 
L 339.642143 290.99227 
L 341.236429 290.799859 
L 342.830714 290.816015 
L 344.425 290.361426 
L 347.613571 290.135967 
L 349.207857 290.218219 
L 350.802143 290.169749 
L 352.396429 290.316628 
L 353.990714 290.210875 
L 355.585 290.618464 
L 358.773571 290.690434 
L 360.367857 290.734498 
L 363.556429 291.113445 
L 366.745 291.274277 
L 371.527857 290.769014 
L 373.122143 290.827766 
L 374.716429 290.401083 
L 376.310714 290.378317 
L 377.905 290.19325 
L 379.499286 290.222626 
L 381.093571 290.139639 
L 382.687857 290.207203 
L 384.282143 289.674768 
L 387.470714 289.135724 
L 389.065 288.645884 
L 390.659286 288.35433 
L 392.253571 288.358001 
L 393.847857 288.053963 
L 397.036429 288.188357 
L 400.225 287.860083 
L 401.819286 287.812347 
L 405.007857 287.417244 
L 406.602143 287.395946 
L 408.196429 287.131565 
L 409.790714 286.749681 
L 411.385 286.708555 
L 412.979286 286.070367 
L 414.573571 285.930832 
L 416.167857 285.526916 
L 417.762143 284.770491 
L 419.356429 283.62851 
L 420.950714 282.275023 
L 422.545 280.690203 
L 427.327857 277.920072 
L 428.922143 276.22803 
L 430.516429 274.333296 
L 432.110714 272.263776 
L 433.705 269.980548 
L 435.299286 268.435385 
L 436.893571 267.070882 
L 438.487857 265.054239 
L 440.082143 263.245428 
L 441.676429 259.831235 
L 443.270714 256.961226 
L 444.865 251.905664 
L 446.459286 247.801141 
L 449.647857 241.264307 
L 451.242143 235.852564 
L 452.836429 231.822949 
L 454.430714 226.359799 
L 456.025 223.168861 
L 457.619286 220.964947 
L 459.213571 218.459198 
L 460.807857 215.563485 
L 462.402143 213.911101 
L 463.996429 211.549293 
L 465.590714 209.474632 
L 467.185 206.287366 
L 468.779286 204.936082 
L 470.373571 204.006341 
L 471.967857 204.021029 
L 473.562143 203.086146 
L 476.750714 200.2132 
L 478.345 200.902061 
L 479.939286 200.219075 
L 481.533571 202.083699 
L 481.533571 202.083699 
" style="fill:none;stroke:#c44e52;stroke-linecap:square;stroke-width:2;"/>
   </g>
   <g id="line2d_68">
    <path clip-path="url(#p2e6acba981)" d="M -1 297.1575 
L 71.802143 297.069679 
L 82.962143 296.692782 
L 84.556429 296.506163 
L 87.745 295.789875 
L 95.716429 293.909047 
L 98.905 292.844221 
L 102.093571 291.367734 
L 103.687857 290.511482 
L 110.065 284.054828 
L 111.659286 282.278287 
L 114.847857 279.43875 
L 116.442143 277.668613 
L 119.630714 273.680087 
L 122.819286 270.482863 
L 124.413571 269.386934 
L 126.007857 268.715471 
L 129.196429 266.936186 
L 130.790714 266.73676 
L 132.385 266.745908 
L 133.979286 267.292958 
L 135.573571 267.696384 
L 137.167857 267.790609 
L 140.356429 269.828782 
L 141.950714 269.889159 
L 143.545 269.492136 
L 145.139286 268.90392 
L 146.733571 267.859219 
L 148.327857 267.526232 
L 149.922143 266.907827 
L 153.110714 266.124759 
L 154.705 266.247342 
L 156.299286 266.234535 
L 157.893571 267.124635 
L 159.487857 267.472259 
L 162.676429 267.636008 
L 164.270714 267.677174 
L 167.459286 268.065963 
L 170.647857 268.989911 
L 172.242143 270.194702 
L 173.836429 271.152497 
L 175.430714 272.629898 
L 177.025 273.726742 
L 178.619286 275.258117 
L 180.213571 276.238781 
L 181.807857 276.836146 
L 183.402143 276.65593 
L 184.996429 276.912074 
L 186.590714 277.38777 
L 188.185 278.429726 
L 189.779286 278.920973 
L 191.373571 278.992328 
L 192.967857 279.441494 
L 194.562143 280.353549 
L 196.156429 280.673729 
L 197.750714 281.212546 
L 199.345 281.261945 
L 204.127857 282.624996 
L 205.722143 283.507778 
L 207.316429 284.770201 
L 210.505 286.322616 
L 212.099286 286.812033 
L 215.287857 287.4405 
L 218.476429 287.779891 
L 223.259286 289.063355 
L 231.230714 290.441957 
L 232.825 290.648702 
L 234.419286 290.710908 
L 237.607857 290.537097 
L 240.796429 290.639554 
L 242.390714 290.809707 
L 245.579286 290.860936 
L 255.145 292.041027 
L 256.739286 292.329189 
L 258.333571 292.363951 
L 266.305 293.163486 
L 267.899286 293.247647 
L 269.493571 293.474518 
L 271.087857 293.374804 
L 275.870714 293.378464 
L 277.465 293.275091 
L 280.653571 293.250392 
L 282.247857 293.427863 
L 285.436429 293.327235 
L 288.625 293.265028 
L 293.407857 293.167145 
L 301.379286 292.930212 
L 304.567857 293.034499 
L 306.162143 293.695899 
L 309.350714 293.618141 
L 312.539286 293.386697 
L 314.133571 293.092131 
L 317.322143 292.033708 
L 320.510714 291.821475 
L 323.699286 291.841601 
L 325.293571 291.54978 
L 326.887857 291.652237 
L 328.482143 291.214963 
L 331.670714 290.943267 
L 333.265 290.422747 
L 334.859286 290.130926 
L 339.642143 290.299249 
L 341.236429 290.479464 
L 342.830714 290.43098 
L 344.425 290.803303 
L 346.019286 290.61028 
L 347.613571 290.609366 
L 349.207857 290.372433 
L 350.802143 290.285527 
L 355.585 289.536306 
L 357.179286 289.70097 
L 358.773571 289.084395 
L 360.367857 288.687372 
L 361.962143 288.585829 
L 363.556429 288.165022 
L 365.150714 287.970169 
L 368.339286 286.717809 
L 369.933571 285.553269 
L 371.527857 284.142649 
L 376.310714 280.940851 
L 379.499286 277.937564 
L 381.093571 277.624703 
L 382.687857 277.923842 
L 384.282143 277.335626 
L 385.876429 276.117113 
L 387.470714 275.681669 
L 389.065 274.965381 
L 390.659286 274.119191 
L 392.253571 273.59867 
L 395.442143 270.332836 
L 397.036429 268.33217 
L 398.630714 265.369135 
L 400.225 263.035481 
L 401.819286 261.554421 
L 403.413571 259.914186 
L 405.007857 260.210581 
L 406.602143 258.18247 
L 408.196429 257.331707 
L 409.790714 257.075563 
L 411.385 256.988657 
L 412.979286 250.740577 
L 414.573571 234.942906 
L 416.167857 227.122285 
L 419.356429 213.900689 
L 420.950714 204.180031 
L 422.545 197.871574 
L 424.139286 195.773024 
L 425.733571 205.002435 
L 427.327857 203.740927 
L 428.922143 201.280116 
L 430.516429 196.192002 
L 432.110714 194.87652 
L 433.705 193.256411 
L 435.299286 192.336122 
L 436.893571 188.577212 
L 438.487857 184.157816 
L 440.082143 180.408967 
L 441.676429 174.039219 
L 443.270714 171.971772 
L 444.865 167.492914 
L 446.459286 161.234771 
L 448.053571 158.6651 
L 449.647857 156.755913 
L 451.242143 155.3334 
L 452.836429 157.151107 
L 454.430714 155.479768 
L 456.025 151.935835 
L 457.619286 152.93937 
L 459.213571 149.770505 
L 460.807857 151.545216 
L 462.402143 154.167946 
L 463.996429 153.731587 
L 465.590714 152.750007 
L 467.185 153.772753 
L 468.779286 150.989933 
L 470.373571 153.443425 
L 471.967857 151.247906 
L 473.562143 150.887475 
L 475.156429 152.924733 
L 476.750714 144.387825 
L 478.345 140.71582 
L 479.939286 138.974957 
L 481.533571 134.958987 
L 481.533571 134.958987 
" style="fill:none;stroke:#8172b2;stroke-linecap:square;stroke-width:2;"/>
   </g>
   <g id="patch_3">
    <path d="M 43.105 297.1575 
L 43.105 25.3575 
" style="fill:none;stroke:#000000;stroke-linecap:square;stroke-linejoin:miter;stroke-width:0.8;"/>
   </g>
   <g id="patch_4">
    <path d="M 43.105 297.1575 
L 489.505 297.1575 
" style="fill:none;stroke:#000000;stroke-linecap:square;stroke-linejoin:miter;stroke-width:0.8;"/>
   </g>
   <g id="text_17">
    <!-- USA -->
    <defs>
     <path d="M 8.6875 72.90625 
L 18.609375 72.90625 
L 18.609375 28.609375 
Q 18.609375 16.890625 22.84375 11.734375 
Q 27.09375 6.59375 36.625 6.59375 
Q 46.09375 6.59375 50.34375 11.734375 
Q 54.59375 16.890625 54.59375 28.609375 
L 54.59375 72.90625 
L 64.5 72.90625 
L 64.5 27.390625 
Q 64.5 13.140625 57.4375 5.859375 
Q 50.390625 -1.421875 36.625 -1.421875 
Q 22.796875 -1.421875 15.734375 5.859375 
Q 8.6875 13.140625 8.6875 27.390625 
z
" id="DejaVuSans-85"/>
    </defs>
    <g style="fill:#4c72b0;" transform="translate(486.533571 103.759656)scale(0.14 -0.14)">
     <use xlink:href="#DejaVuSans-85"/>
     <use x="73.193359" xlink:href="#DejaVuSans-83"/>
     <use x="138.544922" xlink:href="#DejaVuSans-65"/>
    </g>
   </g>
   <g id="text_18">
    <!-- Italy -->
    <defs>
     <path d="M 9.8125 72.90625 
L 19.671875 72.90625 
L 19.671875 0 
L 9.8125 0 
z
" id="DejaVuSans-73"/>
    </defs>
    <g style="fill:#55a868;" transform="translate(486.533571 55.275672)scale(0.14 -0.14)">
     <use xlink:href="#DejaVuSans-73"/>
     <use x="29.492188" xlink:href="#DejaVuSans-116"/>
     <use x="68.701172" xlink:href="#DejaVuSans-97"/>
     <use x="129.980469" xlink:href="#DejaVuSans-108"/>
     <use x="157.763672" xlink:href="#DejaVuSans-121"/>
    </g>
   </g>
   <g id="text_19">
    <!-- Germany -->
    <defs>
     <path d="M 59.515625 10.40625 
L 59.515625 29.984375 
L 43.40625 29.984375 
L 43.40625 38.09375 
L 69.28125 38.09375 
L 69.28125 6.78125 
Q 63.578125 2.734375 56.6875 0.65625 
Q 49.8125 -1.421875 42 -1.421875 
Q 24.90625 -1.421875 15.25 8.5625 
Q 5.609375 18.5625 5.609375 36.375 
Q 5.609375 54.25 15.25 64.234375 
Q 24.90625 74.21875 42 74.21875 
Q 49.125 74.21875 55.546875 72.453125 
Q 61.96875 70.703125 67.390625 67.28125 
L 67.390625 56.78125 
Q 61.921875 61.421875 55.765625 63.765625 
Q 49.609375 66.109375 42.828125 66.109375 
Q 29.4375 66.109375 22.71875 58.640625 
Q 16.015625 51.171875 16.015625 36.375 
Q 16.015625 21.625 22.71875 14.15625 
Q 29.4375 6.6875 42.828125 6.6875 
Q 48.046875 6.6875 52.140625 7.59375 
Q 56.25 8.5 59.515625 10.40625 
z
" id="DejaVuSans-71"/>
     <path d="M 52 44.1875 
Q 55.375 50.25 60.0625 53.125 
Q 64.75 56 71.09375 56 
Q 79.640625 56 84.28125 50.015625 
Q 88.921875 44.046875 88.921875 33.015625 
L 88.921875 0 
L 79.890625 0 
L 79.890625 32.71875 
Q 79.890625 40.578125 77.09375 44.375 
Q 74.3125 48.1875 68.609375 48.1875 
Q 61.625 48.1875 57.5625 43.546875 
Q 53.515625 38.921875 53.515625 30.90625 
L 53.515625 0 
L 44.484375 0 
L 44.484375 32.71875 
Q 44.484375 40.625 41.703125 44.40625 
Q 38.921875 48.1875 33.109375 48.1875 
Q 26.21875 48.1875 22.15625 43.53125 
Q 18.109375 38.875 18.109375 30.90625 
L 18.109375 0 
L 9.078125 0 
L 9.078125 54.6875 
L 18.109375 54.6875 
L 18.109375 46.1875 
Q 21.1875 51.21875 25.484375 53.609375 
Q 29.78125 56 35.6875 56 
Q 41.65625 56 45.828125 52.96875 
Q 50 49.953125 52 44.1875 
z
" id="DejaVuSans-109"/>
    </defs>
    <g style="fill:#c44e52;" transform="translate(486.533571 206.083699)scale(0.14 -0.14)">
     <use xlink:href="#DejaVuSans-71"/>
     <use x="77.490234" xlink:href="#DejaVuSans-101"/>
     <use x="139.013672" xlink:href="#DejaVuSans-114"/>
     <use x="178.376953" xlink:href="#DejaVuSans-109"/>
     <use x="275.789062" xlink:href="#DejaVuSans-97"/>
     <use x="337.068359" xlink:href="#DejaVuSans-110"/>
     <use x="400.447266" xlink:href="#DejaVuSans-121"/>
    </g>
   </g>
   <g id="text_20">
    <!-- UK -->
    <defs>
     <path d="M 9.8125 72.90625 
L 19.671875 72.90625 
L 19.671875 42.09375 
L 52.390625 72.90625 
L 65.09375 72.90625 
L 28.90625 38.921875 
L 67.671875 0 
L 54.6875 0 
L 19.671875 35.109375 
L 19.671875 0 
L 9.8125 0 
z
" id="DejaVuSans-75"/>
    </defs>
    <g style="fill:#8172b2;" transform="translate(486.533571 138.958987)scale(0.14 -0.14)">
     <use xlink:href="#DejaVuSans-85"/>
     <use x="73.193359" xlink:href="#DejaVuSans-75"/>
    </g>
   </g>
   <g id="text_21">
    <!-- Cases per million people -->
    <defs>
     <path d="M 64.40625 67.28125 
L 64.40625 56.890625 
Q 59.421875 61.53125 53.78125 63.8125 
Q 48.140625 66.109375 41.796875 66.109375 
Q 29.296875 66.109375 22.65625 58.46875 
Q 16.015625 50.828125 16.015625 36.375 
Q 16.015625 21.96875 22.65625 14.328125 
Q 29.296875 6.6875 41.796875 6.6875 
Q 48.140625 6.6875 53.78125 8.984375 
Q 59.421875 11.28125 64.40625 15.921875 
L 64.40625 5.609375 
Q 59.234375 2.09375 53.4375 0.328125 
Q 47.65625 -1.421875 41.21875 -1.421875 
Q 24.65625 -1.421875 15.125 8.703125 
Q 5.609375 18.84375 5.609375 36.375 
Q 5.609375 53.953125 15.125 64.078125 
Q 24.65625 74.21875 41.21875 74.21875 
Q 47.75 74.21875 53.53125 72.484375 
Q 59.328125 70.75 64.40625 67.28125 
z
" id="DejaVuSans-67"/>
     <path d="M 44.28125 53.078125 
L 44.28125 44.578125 
Q 40.484375 46.53125 36.375 47.5 
Q 32.28125 48.484375 27.875 48.484375 
Q 21.1875 48.484375 17.84375 46.4375 
Q 14.5 44.390625 14.5 40.28125 
Q 14.5 37.15625 16.890625 35.375 
Q 19.28125 33.59375 26.515625 31.984375 
L 29.59375 31.296875 
Q 39.15625 29.25 43.1875 25.515625 
Q 47.21875 21.78125 47.21875 15.09375 
Q 47.21875 7.46875 41.1875 3.015625 
Q 35.15625 -1.421875 24.609375 -1.421875 
Q 20.21875 -1.421875 15.453125 -0.5625 
Q 10.6875 0.296875 5.421875 2 
L 5.421875 11.28125 
Q 10.40625 8.6875 15.234375 7.390625 
Q 20.0625 6.109375 24.8125 6.109375 
Q 31.15625 6.109375 34.5625 8.28125 
Q 37.984375 10.453125 37.984375 14.40625 
Q 37.984375 18.0625 35.515625 20.015625 
Q 33.0625 21.96875 24.703125 23.78125 
L 21.578125 24.515625 
Q 13.234375 26.265625 9.515625 29.90625 
Q 5.8125 33.546875 5.8125 39.890625 
Q 5.8125 47.609375 11.28125 51.796875 
Q 16.75 56 26.8125 56 
Q 31.78125 56 36.171875 55.265625 
Q 40.578125 54.546875 44.28125 53.078125 
z
" id="DejaVuSans-115"/>
     <path id="DejaVuSans-32"/>
     <path d="M 9.421875 54.6875 
L 18.40625 54.6875 
L 18.40625 0 
L 9.421875 0 
z
M 9.421875 75.984375 
L 18.40625 75.984375 
L 18.40625 64.59375 
L 9.421875 64.59375 
z
" id="DejaVuSans-105"/>
    </defs>
    <g style="fill:#262626;" transform="translate(167.87375 19.3575)scale(0.16 -0.16)">
     <use xlink:href="#DejaVuSans-67"/>
     <use x="69.824219" xlink:href="#DejaVuSans-97"/>
     <use x="131.103516" xlink:href="#DejaVuSans-115"/>
     <use x="183.203125" xlink:href="#DejaVuSans-101"/>
     <use x="244.726562" xlink:href="#DejaVuSans-115"/>
     <use x="296.826172" xlink:href="#DejaVuSans-32"/>
     <use x="328.613281" xlink:href="#DejaVuSans-112"/>
     <use x="392.089844" xlink:href="#DejaVuSans-101"/>
     <use x="453.613281" xlink:href="#DejaVuSans-114"/>
     <use x="494.726562" xlink:href="#DejaVuSans-32"/>
     <use x="526.513672" xlink:href="#DejaVuSans-109"/>
     <use x="623.925781" xlink:href="#DejaVuSans-105"/>
     <use x="651.708984" xlink:href="#DejaVuSans-108"/>
     <use x="679.492188" xlink:href="#DejaVuSans-108"/>
     <use x="707.275391" xlink:href="#DejaVuSans-105"/>
     <use x="735.058594" xlink:href="#DejaVuSans-111"/>
     <use x="796.240234" xlink:href="#DejaVuSans-110"/>
     <use x="859.619141" xlink:href="#DejaVuSans-32"/>
     <use x="891.40625" xlink:href="#DejaVuSans-112"/>
     <use x="954.882812" xlink:href="#DejaVuSans-101"/>
     <use x="1016.40625" xlink:href="#DejaVuSans-111"/>
     <use x="1077.587891" xlink:href="#DejaVuSans-112"/>
     <use x="1141.064453" xlink:href="#DejaVuSans-108"/>
     <use x="1168.847656" xlink:href="#DejaVuSans-101"/>
    </g>
   </g>
   <g id="legend_1"/>
   <g id="PathCollection_1">
    <defs>
     <path d="M 0 2.236068 
C 0.593012 2.236068 1.161816 2.000462 1.581139 1.581139 
C 2.000462 1.161816 2.236068 0.593012 2.236068 0 
C 2.236068 -0.593012 2.000462 -1.161816 1.581139 -1.581139 
C 1.161816 -2.000462 0.593012 -2.236068 0 -2.236068 
C -0.593012 -2.236068 -1.161816 -2.000462 -1.581139 -1.581139 
C -2.000462 -1.161816 -2.236068 -0.593012 -2.236068 0 
C -2.236068 0.593012 -2.000462 1.161816 -1.581139 1.581139 
C -1.161816 2.000462 -0.593012 2.236068 0 2.236068 
z
" id="C0_0_57f3a7a4fd"/>
    </defs>
    <g clip-path="url(#p2e6acba981)">
     <use style="fill:#4c72b0;stroke:#4c72b0;" x="481.533571" xlink:href="#C0_0_57f3a7a4fd" y="99.759656"/>
    </g>
    <g clip-path="url(#p2e6acba981)">
     <use style="fill:#55a868;stroke:#55a868;" x="481.533571" xlink:href="#C0_0_57f3a7a4fd" y="51.275672"/>
    </g>
    <g clip-path="url(#p2e6acba981)">
     <use style="fill:#c44e52;stroke:#c44e52;" x="481.533571" xlink:href="#C0_0_57f3a7a4fd" y="202.083699"/>
    </g>
    <g clip-path="url(#p2e6acba981)">
     <use style="fill:#8172b2;stroke:#8172b2;" x="481.533571" xlink:href="#C0_0_57f3a7a4fd" y="134.958987"/>
    </g>
   </g>
  </g>
 </g>
 <defs>
  <clipPath id="p2e6acba981">
   <rect height="271.8" width="446.4" x="43.105" y="25.3575"/>
  </clipPath>
 </defs>
</svg>
