<?xml version="1.0" encoding="utf-8" standalone="no"?>
<!DOCTYPE svg PUBLIC "-//W3C//DTD SVG 1.1//EN"
  "http://www.w3.org/Graphics/SVG/1.1/DTD/svg11.dtd">
<!-- Created with matplotlib (https://matplotlib.org/) -->
<svg height="342.408625pt" version="1.1" viewBox="0 0 596.045875 342.408625" width="596.045875pt" xmlns="http://www.w3.org/2000/svg" xmlns:xlink="http://www.w3.org/1999/xlink">
 <defs>
  <style type="text/css">
*{stroke-linecap:butt;stroke-linejoin:round;}
  </style>
 </defs>
 <g id="figure_1">
  <g id="patch_1">
   <path d="M 0 342.408625 
L 596.045875 342.408625 
L 596.045875 0 
L 0 0 
z
" style="fill:#ffffff;"/>
  </g>
  <g id="axes_1">
   <g id="patch_2">
    <path d="M 43.105 297.1575 
L 489.505 297.1575 
L 489.505 25.3575 
L 43.105 25.3575 
z
" style="fill:#ffffff;"/>
   </g>
   <g id="matplotlib.axis_1">
    <g id="xtick_1">
     <g id="line2d_1">
      <defs>
       <path d="M 0 0 
L 0 6 
" id="m9000397884" style="stroke:#262626;"/>
      </defs>
      <g>
       <use style="fill:#262626;stroke:#262626;" x="43.105" xlink:href="#m9000397884" y="297.1575"/>
      </g>
     </g>
    </g>
    <g id="xtick_2">
     <g id="line2d_2">
      <g>
       <use style="fill:#262626;stroke:#262626;" x="96.673" xlink:href="#m9000397884" y="297.1575"/>
      </g>
     </g>
     <g id="text_1">
      <!-- Mar -->
      <defs>
       <path d="M 9.8125 72.90625 
L 24.515625 72.90625 
L 43.109375 23.296875 
L 61.8125 72.90625 
L 76.515625 72.90625 
L 76.515625 0 
L 66.890625 0 
L 66.890625 64.015625 
L 48.09375 14.015625 
L 38.1875 14.015625 
L 19.390625 64.015625 
L 19.390625 0 
L 9.8125 0 
z
" id="DejaVuSans-77"/>
       <path d="M 34.28125 27.484375 
Q 23.390625 27.484375 19.1875 25 
Q 14.984375 22.515625 14.984375 16.5 
Q 14.984375 11.71875 18.140625 8.90625 
Q 21.296875 6.109375 26.703125 6.109375 
Q 34.1875 6.109375 38.703125 11.40625 
Q 43.21875 16.703125 43.21875 25.484375 
L 43.21875 27.484375 
z
M 52.203125 31.203125 
L 52.203125 0 
L 43.21875 0 
L 43.21875 8.296875 
Q 40.140625 3.328125 35.546875 0.953125 
Q 30.953125 -1.421875 24.3125 -1.421875 
Q 15.921875 -1.421875 10.953125 3.296875 
Q 6 8.015625 6 15.921875 
Q 6 25.140625 12.171875 29.828125 
Q 18.359375 34.515625 30.609375 34.515625 
L 43.21875 34.515625 
L 43.21875 35.40625 
Q 43.21875 41.609375 39.140625 45 
Q 35.0625 48.390625 27.6875 48.390625 
Q 23 48.390625 18.546875 47.265625 
Q 14.109375 46.140625 10.015625 43.890625 
L 10.015625 52.203125 
Q 14.9375 54.109375 19.578125 55.046875 
Q 24.21875 56 28.609375 56 
Q 40.484375 56 46.34375 49.84375 
Q 52.203125 43.703125 52.203125 31.203125 
z
" id="DejaVuSans-97"/>
       <path d="M 41.109375 46.296875 
Q 39.59375 47.171875 37.8125 47.578125 
Q 36.03125 48 33.890625 48 
Q 26.265625 48 22.1875 43.046875 
Q 18.109375 38.09375 18.109375 28.8125 
L 18.109375 0 
L 9.078125 0 
L 9.078125 54.6875 
L 18.109375 54.6875 
L 18.109375 46.1875 
Q 20.953125 51.171875 25.484375 53.578125 
Q 30.03125 56 36.53125 56 
Q 37.453125 56 38.578125 55.875 
Q 39.703125 55.765625 41.0625 55.515625 
z
" id="DejaVuSans-114"/>
      </defs>
      <g style="fill:#262626;" transform="translate(85.352688 319.275625)scale(0.12 -0.12)">
       <use xlink:href="#DejaVuSans-77"/>
       <use x="86.279297" xlink:href="#DejaVuSans-97"/>
       <use x="147.558594" xlink:href="#DejaVuSans-114"/>
      </g>
      <!-- 2020 -->
      <defs>
       <path d="M 19.1875 8.296875 
L 53.609375 8.296875 
L 53.609375 0 
L 7.328125 0 
L 7.328125 8.296875 
Q 12.9375 14.109375 22.625 23.890625 
Q 32.328125 33.6875 34.8125 36.53125 
Q 39.546875 41.84375 41.421875 45.53125 
Q 43.3125 49.21875 43.3125 52.78125 
Q 43.3125 58.59375 39.234375 62.25 
Q 35.15625 65.921875 28.609375 65.921875 
Q 23.96875 65.921875 18.8125 64.3125 
Q 13.671875 62.703125 7.8125 59.421875 
L 7.8125 69.390625 
Q 13.765625 71.78125 18.9375 73 
Q 24.125 74.21875 28.421875 74.21875 
Q 39.75 74.21875 46.484375 68.546875 
Q 53.21875 62.890625 53.21875 53.421875 
Q 53.21875 48.921875 51.53125 44.890625 
Q 49.859375 40.875 45.40625 35.40625 
Q 44.1875 33.984375 37.640625 27.21875 
Q 31.109375 20.453125 19.1875 8.296875 
z
" id="DejaVuSans-50"/>
       <path d="M 31.78125 66.40625 
Q 24.171875 66.40625 20.328125 58.90625 
Q 16.5 51.421875 16.5 36.375 
Q 16.5 21.390625 20.328125 13.890625 
Q 24.171875 6.390625 31.78125 6.390625 
Q 39.453125 6.390625 43.28125 13.890625 
Q 47.125 21.390625 47.125 36.375 
Q 47.125 51.421875 43.28125 58.90625 
Q 39.453125 66.40625 31.78125 66.40625 
z
M 31.78125 74.21875 
Q 44.046875 74.21875 50.515625 64.515625 
Q 56.984375 54.828125 56.984375 36.375 
Q 56.984375 17.96875 50.515625 8.265625 
Q 44.046875 -1.421875 31.78125 -1.421875 
Q 19.53125 -1.421875 13.0625 8.265625 
Q 6.59375 17.96875 6.59375 36.375 
Q 6.59375 54.828125 13.0625 64.515625 
Q 19.53125 74.21875 31.78125 74.21875 
z
" id="DejaVuSans-48"/>
      </defs>
      <g style="fill:#262626;" transform="translate(81.403 332.713)scale(0.12 -0.12)">
       <use xlink:href="#DejaVuSans-50"/>
       <use x="63.623047" xlink:href="#DejaVuSans-48"/>
       <use x="127.246094" xlink:href="#DejaVuSans-50"/>
       <use x="190.869141" xlink:href="#DejaVuSans-48"/>
      </g>
     </g>
    </g>
    <g id="xtick_3">
     <g id="line2d_3">
      <g>
       <use style="fill:#262626;stroke:#262626;" x="207.3802" xlink:href="#m9000397884" y="297.1575"/>
      </g>
     </g>
     <g id="text_2">
      <!-- Apr -->
      <defs>
       <path d="M 34.1875 63.1875 
L 20.796875 26.90625 
L 47.609375 26.90625 
z
M 28.609375 72.90625 
L 39.796875 72.90625 
L 67.578125 0 
L 57.328125 0 
L 50.6875 18.703125 
L 17.828125 18.703125 
L 11.1875 0 
L 0.78125 0 
z
" id="DejaVuSans-65"/>
       <path d="M 18.109375 8.203125 
L 18.109375 -20.796875 
L 9.078125 -20.796875 
L 9.078125 54.6875 
L 18.109375 54.6875 
L 18.109375 46.390625 
Q 20.953125 51.265625 25.265625 53.625 
Q 29.59375 56 35.59375 56 
Q 45.5625 56 51.78125 48.09375 
Q 58.015625 40.1875 58.015625 27.296875 
Q 58.015625 14.40625 51.78125 6.484375 
Q 45.5625 -1.421875 35.59375 -1.421875 
Q 29.59375 -1.421875 25.265625 0.953125 
Q 20.953125 3.328125 18.109375 8.203125 
z
M 48.6875 27.296875 
Q 48.6875 37.203125 44.609375 42.84375 
Q 40.53125 48.484375 33.40625 48.484375 
Q 26.265625 48.484375 22.1875 42.84375 
Q 18.109375 37.203125 18.109375 27.296875 
Q 18.109375 17.390625 22.1875 11.75 
Q 26.265625 6.109375 33.40625 6.109375 
Q 40.53125 6.109375 44.609375 11.75 
Q 48.6875 17.390625 48.6875 27.296875 
z
" id="DejaVuSans-112"/>
      </defs>
      <g style="fill:#262626;" transform="translate(197.0002 319.275625)scale(0.12 -0.12)">
       <use xlink:href="#DejaVuSans-65"/>
       <use x="68.408203" xlink:href="#DejaVuSans-112"/>
       <use x="131.884766" xlink:href="#DejaVuSans-114"/>
      </g>
     </g>
    </g>
    <g id="xtick_4">
     <g id="line2d_4">
      <g>
       <use style="fill:#262626;stroke:#262626;" x="314.5162" xlink:href="#m9000397884" y="297.1575"/>
      </g>
     </g>
     <g id="text_3">
      <!-- May -->
      <defs>
       <path d="M 32.171875 -5.078125 
Q 28.375 -14.84375 24.75 -17.8125 
Q 21.140625 -20.796875 15.09375 -20.796875 
L 7.90625 -20.796875 
L 7.90625 -13.28125 
L 13.1875 -13.28125 
Q 16.890625 -13.28125 18.9375 -11.515625 
Q 21 -9.765625 23.484375 -3.21875 
L 25.09375 0.875 
L 2.984375 54.6875 
L 12.5 54.6875 
L 29.59375 11.921875 
L 46.6875 54.6875 
L 56.203125 54.6875 
z
" id="DejaVuSans-121"/>
      </defs>
      <g style="fill:#262626;" transform="translate(302.1112 319.275625)scale(0.12 -0.12)">
       <use xlink:href="#DejaVuSans-77"/>
       <use x="86.279297" xlink:href="#DejaVuSans-97"/>
       <use x="147.558594" xlink:href="#DejaVuSans-121"/>
      </g>
     </g>
    </g>
    <g id="xtick_5">
     <g id="line2d_5">
      <g>
       <use style="fill:#262626;stroke:#262626;" x="425.2234" xlink:href="#m9000397884" y="297.1575"/>
      </g>
     </g>
     <g id="text_4">
      <!-- Jun -->
      <defs>
       <path d="M 9.8125 72.90625 
L 19.671875 72.90625 
L 19.671875 5.078125 
Q 19.671875 -8.109375 14.671875 -14.0625 
Q 9.671875 -20.015625 -1.421875 -20.015625 
L -5.171875 -20.015625 
L -5.171875 -11.71875 
L -2.09375 -11.71875 
Q 4.4375 -11.71875 7.125 -8.046875 
Q 9.8125 -4.390625 9.8125 5.078125 
z
" id="DejaVuSans-74"/>
       <path d="M 8.5 21.578125 
L 8.5 54.6875 
L 17.484375 54.6875 
L 17.484375 21.921875 
Q 17.484375 14.15625 20.5 10.265625 
Q 23.53125 6.390625 29.59375 6.390625 
Q 36.859375 6.390625 41.078125 11.03125 
Q 45.3125 15.671875 45.3125 23.6875 
L 45.3125 54.6875 
L 54.296875 54.6875 
L 54.296875 0 
L 45.3125 0 
L 45.3125 8.40625 
Q 42.046875 3.421875 37.71875 1 
Q 33.40625 -1.421875 27.6875 -1.421875 
Q 18.265625 -1.421875 13.375 4.4375 
Q 8.5 10.296875 8.5 21.578125 
z
M 31.109375 56 
z
" id="DejaVuSans-117"/>
       <path d="M 54.890625 33.015625 
L 54.890625 0 
L 45.90625 0 
L 45.90625 32.71875 
Q 45.90625 40.484375 42.875 44.328125 
Q 39.84375 48.1875 33.796875 48.1875 
Q 26.515625 48.1875 22.3125 43.546875 
Q 18.109375 38.921875 18.109375 30.90625 
L 18.109375 0 
L 9.078125 0 
L 9.078125 54.6875 
L 18.109375 54.6875 
L 18.109375 46.1875 
Q 21.34375 51.125 25.703125 53.5625 
Q 30.078125 56 35.796875 56 
Q 45.21875 56 50.046875 50.171875 
Q 54.890625 44.34375 54.890625 33.015625 
z
" id="DejaVuSans-110"/>
      </defs>
      <g style="fill:#262626;" transform="translate(415.8484 319.275625)scale(0.12 -0.12)">
       <use xlink:href="#DejaVuSans-74"/>
       <use x="29.492188" xlink:href="#DejaVuSans-117"/>
       <use x="92.871094" xlink:href="#DejaVuSans-110"/>
      </g>
     </g>
    </g>
    <g id="xtick_6">
     <g id="line2d_6">
      <g>
       <use style="fill:#262626;stroke:#262626;" x="489.505" xlink:href="#m9000397884" y="297.1575"/>
      </g>
     </g>
    </g>
    <g id="xtick_7">
     <g id="line2d_7">
      <defs>
       <path d="M 0 0 
L 0 3 
" id="m640aef117b" style="stroke:#262626;stroke-width:0.5;"/>
      </defs>
      <g>
       <use style="fill:#262626;stroke:#262626;stroke-width:0.5;" x="50.2474" xlink:href="#m640aef117b" y="297.1575"/>
      </g>
     </g>
    </g>
    <g id="xtick_8">
     <g id="line2d_8">
      <g>
       <use style="fill:#262626;stroke:#262626;stroke-width:0.5;" x="75.2458" xlink:href="#m640aef117b" y="297.1575"/>
      </g>
     </g>
    </g>
    <g id="xtick_9">
     <g id="line2d_9">
      <g>
       <use style="fill:#262626;stroke:#262626;stroke-width:0.5;" x="100.2442" xlink:href="#m640aef117b" y="297.1575"/>
      </g>
     </g>
    </g>
    <g id="xtick_10">
     <g id="line2d_10">
      <g>
       <use style="fill:#262626;stroke:#262626;stroke-width:0.5;" x="125.2426" xlink:href="#m640aef117b" y="297.1575"/>
      </g>
     </g>
    </g>
    <g id="xtick_11">
     <g id="line2d_11">
      <g>
       <use style="fill:#262626;stroke:#262626;stroke-width:0.5;" x="150.241" xlink:href="#m640aef117b" y="297.1575"/>
      </g>
     </g>
    </g>
    <g id="xtick_12">
     <g id="line2d_12">
      <g>
       <use style="fill:#262626;stroke:#262626;stroke-width:0.5;" x="175.2394" xlink:href="#m640aef117b" y="297.1575"/>
      </g>
     </g>
    </g>
    <g id="xtick_13">
     <g id="line2d_13">
      <g>
       <use style="fill:#262626;stroke:#262626;stroke-width:0.5;" x="200.2378" xlink:href="#m640aef117b" y="297.1575"/>
      </g>
     </g>
    </g>
    <g id="xtick_14">
     <g id="line2d_14">
      <g>
       <use style="fill:#262626;stroke:#262626;stroke-width:0.5;" x="225.2362" xlink:href="#m640aef117b" y="297.1575"/>
      </g>
     </g>
    </g>
    <g id="xtick_15">
     <g id="line2d_15">
      <g>
       <use style="fill:#262626;stroke:#262626;stroke-width:0.5;" x="250.2346" xlink:href="#m640aef117b" y="297.1575"/>
      </g>
     </g>
    </g>
    <g id="xtick_16">
     <g id="line2d_16">
      <g>
       <use style="fill:#262626;stroke:#262626;stroke-width:0.5;" x="275.233" xlink:href="#m640aef117b" y="297.1575"/>
      </g>
     </g>
    </g>
    <g id="xtick_17">
     <g id="line2d_17">
      <g>
       <use style="fill:#262626;stroke:#262626;stroke-width:0.5;" x="300.2314" xlink:href="#m640aef117b" y="297.1575"/>
      </g>
     </g>
    </g>
    <g id="xtick_18">
     <g id="line2d_18">
      <g>
       <use style="fill:#262626;stroke:#262626;stroke-width:0.5;" x="325.2298" xlink:href="#m640aef117b" y="297.1575"/>
      </g>
     </g>
    </g>
    <g id="xtick_19">
     <g id="line2d_19">
      <g>
       <use style="fill:#262626;stroke:#262626;stroke-width:0.5;" x="350.2282" xlink:href="#m640aef117b" y="297.1575"/>
      </g>
     </g>
    </g>
    <g id="xtick_20">
     <g id="line2d_20">
      <g>
       <use style="fill:#262626;stroke:#262626;stroke-width:0.5;" x="375.2266" xlink:href="#m640aef117b" y="297.1575"/>
      </g>
     </g>
    </g>
    <g id="xtick_21">
     <g id="line2d_21">
      <g>
       <use style="fill:#262626;stroke:#262626;stroke-width:0.5;" x="400.225" xlink:href="#m640aef117b" y="297.1575"/>
      </g>
     </g>
    </g>
    <g id="xtick_22">
     <g id="line2d_22">
      <g>
       <use style="fill:#262626;stroke:#262626;stroke-width:0.5;" x="450.2218" xlink:href="#m640aef117b" y="297.1575"/>
      </g>
     </g>
    </g>
    <g id="xtick_23">
     <g id="line2d_23">
      <g>
       <use style="fill:#262626;stroke:#262626;stroke-width:0.5;" x="475.2202" xlink:href="#m640aef117b" y="297.1575"/>
      </g>
     </g>
    </g>
   </g>
   <g id="matplotlib.axis_2">
    <g id="ytick_1">
     <g id="line2d_24">
      <path clip-path="url(#p8a7291cc9b)" d="M 43.105 297.1575 
L 489.505 297.1575 
" style="fill:none;stroke:#b0b0b0;stroke-linecap:square;stroke-opacity:0.3;"/>
     </g>
     <g id="line2d_25">
      <defs>
       <path d="M 0 0 
L -6 0 
" id="mab37019dd6" style="stroke:#262626;"/>
      </defs>
      <g>
       <use style="fill:#262626;stroke:#262626;" x="43.105" xlink:href="#mab37019dd6" y="297.1575"/>
      </g>
     </g>
     <g id="text_5">
      <!-- 0 -->
      <g style="fill:#262626;" transform="translate(22.47 301.716562)scale(0.12 -0.12)">
       <use xlink:href="#DejaVuSans-48"/>
      </g>
     </g>
    </g>
    <g id="ytick_2">
     <g id="line2d_26">
      <path clip-path="url(#p8a7291cc9b)" d="M 43.105 257.077923 
L 489.505 257.077923 
" style="fill:none;stroke:#b0b0b0;stroke-linecap:square;stroke-opacity:0.3;"/>
     </g>
     <g id="line2d_27">
      <g>
       <use style="fill:#262626;stroke:#262626;" x="43.105" xlink:href="#mab37019dd6" y="257.077923"/>
      </g>
     </g>
     <g id="text_6">
      <!-- 50 -->
      <defs>
       <path d="M 10.796875 72.90625 
L 49.515625 72.90625 
L 49.515625 64.59375 
L 19.828125 64.59375 
L 19.828125 46.734375 
Q 21.96875 47.46875 24.109375 47.828125 
Q 26.265625 48.1875 28.421875 48.1875 
Q 40.625 48.1875 47.75 41.5 
Q 54.890625 34.8125 54.890625 23.390625 
Q 54.890625 11.625 47.5625 5.09375 
Q 40.234375 -1.421875 26.90625 -1.421875 
Q 22.3125 -1.421875 17.546875 -0.640625 
Q 12.796875 0.140625 7.71875 1.703125 
L 7.71875 11.625 
Q 12.109375 9.234375 16.796875 8.0625 
Q 21.484375 6.890625 26.703125 6.890625 
Q 35.15625 6.890625 40.078125 11.328125 
Q 45.015625 15.765625 45.015625 23.390625 
Q 45.015625 31 40.078125 35.4375 
Q 35.15625 39.890625 26.703125 39.890625 
Q 22.75 39.890625 18.8125 39.015625 
Q 14.890625 38.140625 10.796875 36.28125 
z
" id="DejaVuSans-53"/>
      </defs>
      <g style="fill:#262626;" transform="translate(14.835 261.636985)scale(0.12 -0.12)">
       <use xlink:href="#DejaVuSans-53"/>
       <use x="63.623047" xlink:href="#DejaVuSans-48"/>
      </g>
     </g>
    </g>
    <g id="ytick_3">
     <g id="line2d_28">
      <path clip-path="url(#p8a7291cc9b)" d="M 43.105 216.998346 
L 489.505 216.998346 
" style="fill:none;stroke:#b0b0b0;stroke-linecap:square;stroke-opacity:0.3;"/>
     </g>
     <g id="line2d_29">
      <g>
       <use style="fill:#262626;stroke:#262626;" x="43.105" xlink:href="#mab37019dd6" y="216.998346"/>
      </g>
     </g>
     <g id="text_7">
      <!-- 100 -->
      <defs>
       <path d="M 12.40625 8.296875 
L 28.515625 8.296875 
L 28.515625 63.921875 
L 10.984375 60.40625 
L 10.984375 69.390625 
L 28.421875 72.90625 
L 38.28125 72.90625 
L 38.28125 8.296875 
L 54.390625 8.296875 
L 54.390625 0 
L 12.40625 0 
z
" id="DejaVuSans-49"/>
      </defs>
      <g style="fill:#262626;" transform="translate(7.2 221.557408)scale(0.12 -0.12)">
       <use xlink:href="#DejaVuSans-49"/>
       <use x="63.623047" xlink:href="#DejaVuSans-48"/>
       <use x="127.246094" xlink:href="#DejaVuSans-48"/>
      </g>
     </g>
    </g>
    <g id="ytick_4">
     <g id="line2d_30">
      <path clip-path="url(#p8a7291cc9b)" d="M 43.105 176.918768 
L 489.505 176.918768 
" style="fill:none;stroke:#b0b0b0;stroke-linecap:square;stroke-opacity:0.3;"/>
     </g>
     <g id="line2d_31">
      <g>
       <use style="fill:#262626;stroke:#262626;" x="43.105" xlink:href="#mab37019dd6" y="176.918768"/>
      </g>
     </g>
     <g id="text_8">
      <!-- 150 -->
      <g style="fill:#262626;" transform="translate(7.2 181.477831)scale(0.12 -0.12)">
       <use xlink:href="#DejaVuSans-49"/>
       <use x="63.623047" xlink:href="#DejaVuSans-53"/>
       <use x="127.246094" xlink:href="#DejaVuSans-48"/>
      </g>
     </g>
    </g>
    <g id="ytick_5">
     <g id="line2d_32">
      <path clip-path="url(#p8a7291cc9b)" d="M 43.105 136.839191 
L 489.505 136.839191 
" style="fill:none;stroke:#b0b0b0;stroke-linecap:square;stroke-opacity:0.3;"/>
     </g>
     <g id="line2d_33">
      <g>
       <use style="fill:#262626;stroke:#262626;" x="43.105" xlink:href="#mab37019dd6" y="136.839191"/>
      </g>
     </g>
     <g id="text_9">
      <!-- 200 -->
      <g style="fill:#262626;" transform="translate(7.2 141.398254)scale(0.12 -0.12)">
       <use xlink:href="#DejaVuSans-50"/>
       <use x="63.623047" xlink:href="#DejaVuSans-48"/>
       <use x="127.246094" xlink:href="#DejaVuSans-48"/>
      </g>
     </g>
    </g>
    <g id="ytick_6">
     <g id="line2d_34">
      <path clip-path="url(#p8a7291cc9b)" d="M 43.105 96.759614 
L 489.505 96.759614 
" style="fill:none;stroke:#b0b0b0;stroke-linecap:square;stroke-opacity:0.3;"/>
     </g>
     <g id="line2d_35">
      <g>
       <use style="fill:#262626;stroke:#262626;" x="43.105" xlink:href="#mab37019dd6" y="96.759614"/>
      </g>
     </g>
     <g id="text_10">
      <!-- 250 -->
      <g style="fill:#262626;" transform="translate(7.2 101.318676)scale(0.12 -0.12)">
       <use xlink:href="#DejaVuSans-50"/>
       <use x="63.623047" xlink:href="#DejaVuSans-53"/>
       <use x="127.246094" xlink:href="#DejaVuSans-48"/>
      </g>
     </g>
    </g>
    <g id="ytick_7">
     <g id="line2d_36">
      <path clip-path="url(#p8a7291cc9b)" d="M 43.105 56.680037 
L 489.505 56.680037 
" style="fill:none;stroke:#b0b0b0;stroke-linecap:square;stroke-opacity:0.3;"/>
     </g>
     <g id="line2d_37">
      <g>
       <use style="fill:#262626;stroke:#262626;" x="43.105" xlink:href="#mab37019dd6" y="56.680037"/>
      </g>
     </g>
     <g id="text_11">
      <!-- 300 -->
      <defs>
       <path d="M 40.578125 39.3125 
Q 47.65625 37.796875 51.625 33 
Q 55.609375 28.21875 55.609375 21.1875 
Q 55.609375 10.40625 48.1875 4.484375 
Q 40.765625 -1.421875 27.09375 -1.421875 
Q 22.515625 -1.421875 17.65625 -0.515625 
Q 12.796875 0.390625 7.625 2.203125 
L 7.625 11.71875 
Q 11.71875 9.328125 16.59375 8.109375 
Q 21.484375 6.890625 26.8125 6.890625 
Q 36.078125 6.890625 40.9375 10.546875 
Q 45.796875 14.203125 45.796875 21.1875 
Q 45.796875 27.640625 41.28125 31.265625 
Q 36.765625 34.90625 28.71875 34.90625 
L 20.21875 34.90625 
L 20.21875 43.015625 
L 29.109375 43.015625 
Q 36.375 43.015625 40.234375 45.921875 
Q 44.09375 48.828125 44.09375 54.296875 
Q 44.09375 59.90625 40.109375 62.90625 
Q 36.140625 65.921875 28.71875 65.921875 
Q 24.65625 65.921875 20.015625 65.03125 
Q 15.375 64.15625 9.8125 62.3125 
L 9.8125 71.09375 
Q 15.4375 72.65625 20.34375 73.4375 
Q 25.25 74.21875 29.59375 74.21875 
Q 40.828125 74.21875 47.359375 69.109375 
Q 53.90625 64.015625 53.90625 55.328125 
Q 53.90625 49.265625 50.4375 45.09375 
Q 46.96875 40.921875 40.578125 39.3125 
z
" id="DejaVuSans-51"/>
      </defs>
      <g style="fill:#262626;" transform="translate(7.2 61.239099)scale(0.12 -0.12)">
       <use xlink:href="#DejaVuSans-51"/>
       <use x="63.623047" xlink:href="#DejaVuSans-48"/>
       <use x="127.246094" xlink:href="#DejaVuSans-48"/>
      </g>
     </g>
    </g>
   </g>
   <g id="line2d_38">
    <path clip-path="url(#p8a7291cc9b)" d="M -1 297.1575 
L 107.3866 297.089296 
L 125.2426 296.952889 
L 139.5274 296.850583 
L 146.6698 296.532299 
L 150.241 296.304953 
L 153.8122 295.747955 
L 160.9546 294.895408 
L 171.6682 293.156212 
L 175.2394 292.133155 
L 178.8106 291.26924 
L 182.3818 290.234816 
L 185.953 285.960713 
L 189.5242 283.823661 
L 193.0954 280.640818 
L 196.6666 277.662586 
L 200.2378 275.127679 
L 203.809 270.45572 
L 207.3802 266.24982 
L 210.9514 264.999418 
L 214.5226 261.907513 
L 218.0938 257.678879 
L 221.665 253.916304 
L 225.2362 252.984185 
L 228.8074 252.83641 
L 232.3786 251.551906 
L 235.9498 252.71137 
L 239.521 253.234266 
L 243.0922 256.280701 
L 246.6634 260.191051 
L 250.2346 262.373572 
L 253.8058 261.49829 
L 257.377 263.442098 
L 260.9482 264.203707 
L 264.5194 263.498935 
L 268.0906 261.37325 
L 271.6618 261.361883 
L 275.233 247.186864 
L 278.8042 239.263858 
L 282.3754 229.647125 
L 285.9466 221.519508 
L 289.5178 215.83586 
L 293.089 216.608836 
L 296.6602 215.460739 
L 300.2314 222.121975 
L 303.8026 230.817957 
L 307.3738 228.385355 
L 310.945 232.659459 
L 314.5162 232.704928 
L 318.0874 231.374954 
L 321.6586 227.430502 
L 325.2298 231.227179 
L 328.801 219.416558 
L 332.3722 227.14632 
L 335.9434 226.168732 
L 339.5146 228.032969 
L 343.0858 225.509429 
L 346.657 228.783211 
L 350.2282 228.487661 
L 353.7994 236.171954 
L 357.3706 231.409056 
L 360.9418 230.067715 
L 364.513 229.37431 
L 368.0842 227.748787 
L 371.6554 225.577633 
L 375.2266 226.759832 
L 378.7978 224.486373 
L 382.369 224.07715 
L 385.9402 220.905674 
L 389.5114 219.939454 
L 393.0826 220.405513 
L 396.6538 217.427281 
L 400.225 211.141166 
L 403.7962 203.38867 
L 407.3674 208.003792 
L 410.9386 209.208726 
L 414.5098 200.421806 
L 418.081 188.076921 
L 421.6522 183.393595 
L 425.2234 184.052898 
L 428.7946 191.48711 
L 432.3658 188.781694 
L 435.937 184.894078 
L 439.5082 189.361426 
L 443.0794 198.409794 
L 446.6506 196.579659 
L 450.2218 198.534834 
L 453.793 198.21655 
L 457.3642 196.784271 
L 460.9354 192.294189 
L 464.5066 189.952525 
L 468.0778 187.065232 
L 471.649 192.873921 
L 471.649 192.873921 
" style="fill:none;stroke:#4c72b0;stroke-linecap:square;stroke-width:2;"/>
   </g>
   <g id="line2d_39">
    <path clip-path="url(#p8a7291cc9b)" d="M -1 297.1575 
L 143.0986 297.1575 
L 150.241 296.781209 
L 153.8122 296.310844 
L 157.3834 296.122699 
L 160.9546 295.558262 
L 164.5258 294.617533 
L 168.097 294.335315 
L 175.2394 293.112368 
L 178.8106 292.642004 
L 182.3818 290.007964 
L 185.953 286.339124 
L 189.5242 284.928031 
L 193.0954 279.471807 
L 196.6666 275.991112 
L 200.2378 274.391873 
L 203.809 272.040052 
L 207.3802 271.94598 
L 210.9514 270.252668 
L 214.5226 267.242338 
L 218.0938 265.831245 
L 221.665 265.172735 
L 228.8074 262.914987 
L 232.3786 262.914987 
L 235.9498 265.172735 
L 243.0922 270.440814 
L 246.6634 273.451145 
L 250.2346 275.144456 
L 253.8058 277.966641 
L 257.377 279.848098 
L 260.9482 281.541409 
L 264.5194 282.199919 
L 268.0906 280.882899 
L 271.6618 280.412535 
L 275.233 281.541409 
L 278.8042 281.541409 
L 282.3754 279.848098 
L 285.9466 276.085184 
L 289.5178 275.520747 
L 293.089 279.377734 
L 296.6602 280.600681 
L 300.2314 280.036244 
L 303.8026 280.600681 
L 307.3738 279.754025 
L 310.945 283.987303 
L 314.5162 283.799157 
L 318.0874 284.457667 
L 321.6586 284.55174 
L 325.2298 283.89323 
L 328.801 283.987303 
L 332.3722 285.774687 
L 335.9434 283.046574 
L 339.5146 284.363594 
L 343.0858 282.764356 
L 346.657 282.293992 
L 350.2282 283.422866 
L 353.7994 282.952502 
L 357.3706 282.952502 
L 360.9418 286.621342 
L 364.513 285.21025 
L 368.0842 286.903561 
L 371.6554 287.750216 
L 375.2266 284.928031 
L 378.7978 284.739885 
L 382.369 283.799157 
L 385.9402 281.447336 
L 389.5114 282.388064 
L 393.0826 282.293992 
L 396.6538 280.788826 
L 400.225 281.729555 
L 403.7962 282.293992 
L 407.3674 283.89323 
L 410.9386 284.645813 
L 414.5098 284.833958 
L 418.081 283.611011 
L 421.6522 284.55174 
L 425.2234 286.433197 
L 428.7946 286.621342 
L 432.3658 285.492468 
L 439.5082 287.467998 
L 443.0794 288.502799 
L 446.6506 288.502799 
L 450.2218 288.785017 
L 453.793 287.844289 
L 457.3642 289.443527 
L 460.9354 288.690945 
L 464.5066 288.502799 
L 468.0778 288.973163 
L 471.649 290.007964 
L 471.649 290.007964 
" style="fill:none;stroke:#55a868;stroke-linecap:square;stroke-width:2;"/>
   </g>
   <g id="line2d_40">
    <path clip-path="url(#p8a7291cc9b)" d="M -1 297.1575 
L 146.6698 297.1575 
L 150.241 296.783973 
L 153.8122 296.659464 
L 157.3834 296.659464 
L 160.9546 294.044774 
L 164.5258 293.671247 
L 168.097 292.799684 
L 171.6682 290.807539 
L 175.2394 287.072268 
L 178.8106 284.706596 
L 182.3818 282.838961 
L 185.953 283.959542 
L 189.5242 273.749801 
L 193.0954 257.812644 
L 196.6666 256.567554 
L 200.2378 252.832283 
L 203.809 255.945009 
L 207.3802 243.494105 
L 210.9514 222.452078 
L 214.5226 224.568732 
L 218.0938 223.572659 
L 221.665 212.615864 
L 225.2362 207.510993 
L 228.8074 206.888448 
L 232.3786 215.977608 
L 235.9498 218.965825 
L 239.521 221.580515 
L 243.0922 231.541238 
L 246.6634 233.408873 
L 250.2346 239.758834 
L 253.8058 234.280436 
L 257.377 229.175566 
L 260.9482 236.39709 
L 264.5194 232.412801 
L 268.0906 231.790256 
L 271.6618 235.027491 
L 275.233 236.770617 
L 278.8042 237.517671 
L 282.3754 237.144144 
L 285.9466 222.452078 
L 289.5178 213.238409 
L 293.089 200.538487 
L 296.6602 187.091511 
L 300.2314 183.605258 
L 303.8026 179.869987 
L 307.3738 177.255298 
L 310.945 188.959147 
L 314.5162 187.838566 
L 318.0874 194.437545 
L 321.6586 203.028668 
L 325.2298 199.915942 
L 328.801 197.301252 
L 332.3722 196.056162 
L 335.9434 195.433617 
L 339.5146 200.787505 
L 343.0858 205.145322 
L 346.657 204.647286 
L 350.2282 212.366846 
L 357.3706 222.701096 
L 360.9418 230.545165 
L 364.513 231.541238 
L 368.0842 231.16771 
L 371.6554 234.778473 
L 375.2266 233.657891 
L 378.7978 234.031418 
L 382.369 231.790256 
L 385.9402 222.576587 
L 389.5114 220.584442 
L 393.0826 211.86881 
L 396.6538 213.487427 
L 400.225 209.129611 
L 403.7962 208.00903 
L 407.3674 212.615864 
L 410.9386 220.459933 
L 418.081 239.634325 
L 421.6522 241.875488 
L 425.2234 244.490177 
L 428.7946 244.863705 
L 432.3658 244.365668 
L 435.937 244.614686 
L 439.5082 244.365668 
L 443.0794 245.48625 
L 446.6506 245.361741 
L 450.2218 246.357813 
L 453.793 244.614686 
L 457.3642 249.595048 
L 460.9354 253.454828 
L 464.5066 252.583265 
L 468.0778 256.816572 
L 471.649 259.929298 
L 471.649 259.929298 
" style="fill:none;stroke:#c44e52;stroke-linecap:square;stroke-width:2;"/>
   </g>
   <g id="line2d_41">
    <path clip-path="url(#p8a7291cc9b)" d="M -1 297.1575 
L 89.5306 297.1575 
L 93.1018 297.003333 
L 96.673 296.643611 
L 100.2442 296.438056 
L 103.8154 296.078334 
L 107.3866 295.513057 
L 110.9578 294.536668 
L 114.529 294.176946 
L 121.6714 293.046391 
L 125.2426 291.915837 
L 128.8138 288.472783 
L 132.385 286.776951 
L 135.9562 285.90334 
L 139.5274 283.282509 
L 143.0986 280.867232 
L 146.6698 280.199177 
L 150.241 278.040845 
L 153.8122 280.353344 
L 157.3834 280.301955 
L 160.9546 275.471403 
L 164.5258 273.261682 
L 168.097 269.099184 
L 171.6682 265.553353 
L 175.2394 262.367244 
L 178.8106 258.101969 
L 182.3818 256.200581 
L 185.953 251.626973 
L 189.5242 243.918645 
L 193.0954 238.368648 
L 196.6666 239.242259 
L 200.2378 237.238093 
L 203.809 242.993645 
L 207.3802 238.676981 
L 210.9514 241.708924 
L 214.5226 247.875587 
L 218.0938 254.967249 
L 221.665 245.46031 
L 225.2362 245.717255 
L 228.8074 237.751982 
L 235.9498 233.949207 
L 239.521 228.810321 
L 243.0922 227.0631 
L 246.6634 232.45893 
L 250.2346 234.565873 
L 253.8058 238.882537 
L 257.377 245.306144 
L 260.9482 249.725585 
L 264.5194 256.817248 
L 268.0906 255.995026 
L 271.6618 258.821413 
L 275.233 258.924191 
L 278.8042 258.153358 
L 282.3754 258.51308 
L 285.9466 258.101969 
L 289.5178 256.71447 
L 293.089 258.718635 
L 296.6602 259.129746 
L 300.2314 261.339467 
L 303.8026 262.470022 
L 307.3738 259.489468 
L 310.945 259.181135 
L 314.5162 260.260301 
L 318.0874 261.493634 
L 321.6586 260.876967 
L 325.2298 266.735297 
L 328.801 266.375575 
L 332.3722 266.940852 
L 335.9434 268.636685 
L 339.5146 269.767239 
L 343.0858 271.720016 
L 346.657 275.163069 
L 350.2282 269.767239 
L 353.7994 270.126961 
L 357.3706 273.981126 
L 360.9418 274.340848 
L 364.513 275.57418 
L 368.0842 274.546403 
L 371.6554 274.854736 
L 375.2266 275.882513 
L 378.7978 276.447791 
L 382.369 276.807513 
L 385.9402 279.788067 
L 389.5114 279.839455 
L 393.0826 280.50751 
L 396.6538 279.736678 
L 400.225 279.1714 
L 403.7962 281.021399 
L 407.3674 281.021399 
L 410.9386 279.6339 
L 414.5098 281.278343 
L 418.081 282.254732 
L 421.6522 279.685289 
L 425.2234 281.072788 
L 428.7946 279.736678 
L 432.3658 279.376956 
L 435.937 279.325567 
L 439.5082 277.115846 
L 443.0794 278.503345 
L 446.6506 281.43251 
L 450.2218 280.97001 
L 453.793 281.689454 
L 457.3642 282.665842 
L 460.9354 284.258897 
L 464.5066 284.413064 
L 468.0778 282.614454 
L 471.649 282.460287 
L 471.649 282.460287 
" style="fill:none;stroke:#8172b2;stroke-linecap:square;stroke-width:2;"/>
   </g>
   <g id="line2d_42">
    <path clip-path="url(#p8a7291cc9b)" d="M -1 297.1575 
L 135.9562 297.1575 
L 153.8122 296.50669 
L 157.3834 296.000504 
L 160.9546 294.843508 
L 164.5258 294.337323 
L 168.097 292.457205 
L 171.6682 291.155584 
L 175.2394 288.480032 
L 178.8106 285.081357 
L 182.3818 279.802563 
L 185.953 270.474285 
L 189.5242 261.869129 
L 193.0954 250.877669 
L 196.6666 241.18783 
L 200.2378 228.89475 
L 203.809 214.866176 
L 207.3802 208.86426 
L 210.9514 192.304758 
L 214.5226 170.321839 
L 218.0938 159.69194 
L 221.665 133.008725 
L 225.2362 113.556734 
L 228.8074 102.131401 
L 232.3786 81.811662 
L 235.9498 67.421527 
L 239.521 63.082793 
L 243.0922 50.428152 
L 246.6634 64.529038 
L 250.2346 65.830658 
L 253.8058 71.687949 
L 257.377 81.305477 
L 260.9482 79.063797 
L 264.5194 77.183679 
L 268.0906 80.799291 
L 271.6618 90.199882 
L 275.233 98.805038 
L 278.8042 87.596641 
L 282.3754 65.613722 
L 285.9466 67.132279 
L 289.5178 57.514751 
L 293.089 57.442439 
L 296.6602 54.766886 
L 300.2314 57.442439 
L 303.8026 50.066591 
L 307.3738 94.538616 
L 310.945 62.721232 
L 314.5162 61.419612 
L 318.0874 65.902971 
L 321.6586 59.394869 
L 325.2298 67.783089 
L 328.801 82.751721 
L 332.3722 61.99811 
L 335.9434 110.664244 
L 339.5146 125.054379 
L 343.0858 126.934497 
L 346.657 126.717561 
L 350.2282 132.791788 
L 353.7994 143.349375 
L 357.3706 146.603425 
L 360.9418 149.206666 
L 364.513 164.681484 
L 368.0842 172.418894 
L 371.6554 196.281931 
L 375.2266 178.78237 
L 378.7978 182.036421 
L 382.369 182.904168 
L 385.9402 180.951737 
L 389.5114 177.119189 
L 393.0826 179.43318 
L 396.6538 179.43318 
L 400.225 174.87751 
L 403.7962 180.807113 
L 407.3674 180.300927 
L 410.9386 192.304758 
L 414.5098 196.209619 
L 421.6522 196.281931 
L 425.2234 207.490328 
L 428.7946 203.440843 
L 432.3658 211.467501 
L 435.937 215.372362 
L 439.5082 224.70064 
L 443.0794 232.076488 
L 446.6506 232.076488 
L 450.2218 238.584589 
L 453.793 240.175458 
L 457.3642 239.958522 
L 460.9354 237.427593 
L 464.5066 237.789155 
L 468.0778 238.656901 
L 471.649 238.656901 
L 471.649 238.656901 
" style="fill:none;stroke:#ccb974;stroke-linecap:square;stroke-width:2;"/>
   </g>
   <g id="patch_3">
    <path d="M 43.105 297.1575 
L 43.105 25.3575 
" style="fill:none;stroke:#000000;stroke-linecap:square;stroke-linejoin:miter;stroke-width:0.8;"/>
   </g>
   <g id="patch_4">
    <path d="M 43.105 297.1575 
L 489.505 297.1575 
" style="fill:none;stroke:#000000;stroke-linecap:square;stroke-linejoin:miter;stroke-width:0.8;"/>
   </g>
   <g id="text_12">
    <!-- Los Angeles, CA -->
    <defs>
     <path d="M 9.8125 72.90625 
L 19.671875 72.90625 
L 19.671875 8.296875 
L 55.171875 8.296875 
L 55.171875 0 
L 9.8125 0 
z
" id="DejaVuSans-76"/>
     <path d="M 30.609375 48.390625 
Q 23.390625 48.390625 19.1875 42.75 
Q 14.984375 37.109375 14.984375 27.296875 
Q 14.984375 17.484375 19.15625 11.84375 
Q 23.34375 6.203125 30.609375 6.203125 
Q 37.796875 6.203125 41.984375 11.859375 
Q 46.1875 17.53125 46.1875 27.296875 
Q 46.1875 37.015625 41.984375 42.703125 
Q 37.796875 48.390625 30.609375 48.390625 
z
M 30.609375 56 
Q 42.328125 56 49.015625 48.375 
Q 55.71875 40.765625 55.71875 27.296875 
Q 55.71875 13.875 49.015625 6.21875 
Q 42.328125 -1.421875 30.609375 -1.421875 
Q 18.84375 -1.421875 12.171875 6.21875 
Q 5.515625 13.875 5.515625 27.296875 
Q 5.515625 40.765625 12.171875 48.375 
Q 18.84375 56 30.609375 56 
z
" id="DejaVuSans-111"/>
     <path d="M 44.28125 53.078125 
L 44.28125 44.578125 
Q 40.484375 46.53125 36.375 47.5 
Q 32.28125 48.484375 27.875 48.484375 
Q 21.1875 48.484375 17.84375 46.4375 
Q 14.5 44.390625 14.5 40.28125 
Q 14.5 37.15625 16.890625 35.375 
Q 19.28125 33.59375 26.515625 31.984375 
L 29.59375 31.296875 
Q 39.15625 29.25 43.1875 25.515625 
Q 47.21875 21.78125 47.21875 15.09375 
Q 47.21875 7.46875 41.1875 3.015625 
Q 35.15625 -1.421875 24.609375 -1.421875 
Q 20.21875 -1.421875 15.453125 -0.5625 
Q 10.6875 0.296875 5.421875 2 
L 5.421875 11.28125 
Q 10.40625 8.6875 15.234375 7.390625 
Q 20.0625 6.109375 24.8125 6.109375 
Q 31.15625 6.109375 34.5625 8.28125 
Q 37.984375 10.453125 37.984375 14.40625 
Q 37.984375 18.0625 35.515625 20.015625 
Q 33.0625 21.96875 24.703125 23.78125 
L 21.578125 24.515625 
Q 13.234375 26.265625 9.515625 29.90625 
Q 5.8125 33.546875 5.8125 39.890625 
Q 5.8125 47.609375 11.28125 51.796875 
Q 16.75 56 26.8125 56 
Q 31.78125 56 36.171875 55.265625 
Q 40.578125 54.546875 44.28125 53.078125 
z
" id="DejaVuSans-115"/>
     <path id="DejaVuSans-32"/>
     <path d="M 45.40625 27.984375 
Q 45.40625 37.75 41.375 43.109375 
Q 37.359375 48.484375 30.078125 48.484375 
Q 22.859375 48.484375 18.828125 43.109375 
Q 14.796875 37.75 14.796875 27.984375 
Q 14.796875 18.265625 18.828125 12.890625 
Q 22.859375 7.515625 30.078125 7.515625 
Q 37.359375 7.515625 41.375 12.890625 
Q 45.40625 18.265625 45.40625 27.984375 
z
M 54.390625 6.78125 
Q 54.390625 -7.171875 48.1875 -13.984375 
Q 42 -20.796875 29.203125 -20.796875 
Q 24.46875 -20.796875 20.265625 -20.09375 
Q 16.0625 -19.390625 12.109375 -17.921875 
L 12.109375 -9.1875 
Q 16.0625 -11.328125 19.921875 -12.34375 
Q 23.78125 -13.375 27.78125 -13.375 
Q 36.625 -13.375 41.015625 -8.765625 
Q 45.40625 -4.15625 45.40625 5.171875 
L 45.40625 9.625 
Q 42.625 4.78125 38.28125 2.390625 
Q 33.9375 0 27.875 0 
Q 17.828125 0 11.671875 7.65625 
Q 5.515625 15.328125 5.515625 27.984375 
Q 5.515625 40.671875 11.671875 48.328125 
Q 17.828125 56 27.875 56 
Q 33.9375 56 38.28125 53.609375 
Q 42.625 51.21875 45.40625 46.390625 
L 45.40625 54.6875 
L 54.390625 54.6875 
z
" id="DejaVuSans-103"/>
     <path d="M 56.203125 29.59375 
L 56.203125 25.203125 
L 14.890625 25.203125 
Q 15.484375 15.921875 20.484375 11.0625 
Q 25.484375 6.203125 34.421875 6.203125 
Q 39.59375 6.203125 44.453125 7.46875 
Q 49.3125 8.734375 54.109375 11.28125 
L 54.109375 2.78125 
Q 49.265625 0.734375 44.1875 -0.34375 
Q 39.109375 -1.421875 33.890625 -1.421875 
Q 20.796875 -1.421875 13.15625 6.1875 
Q 5.515625 13.8125 5.515625 26.8125 
Q 5.515625 40.234375 12.765625 48.109375 
Q 20.015625 56 32.328125 56 
Q 43.359375 56 49.78125 48.890625 
Q 56.203125 41.796875 56.203125 29.59375 
z
M 47.21875 32.234375 
Q 47.125 39.59375 43.09375 43.984375 
Q 39.0625 48.390625 32.421875 48.390625 
Q 24.90625 48.390625 20.390625 44.140625 
Q 15.875 39.890625 15.1875 32.171875 
z
" id="DejaVuSans-101"/>
     <path d="M 9.421875 75.984375 
L 18.40625 75.984375 
L 18.40625 0 
L 9.421875 0 
z
" id="DejaVuSans-108"/>
     <path d="M 11.71875 12.40625 
L 22.015625 12.40625 
L 22.015625 4 
L 14.015625 -11.625 
L 7.71875 -11.625 
L 11.71875 4 
z
" id="DejaVuSans-44"/>
     <path d="M 64.40625 67.28125 
L 64.40625 56.890625 
Q 59.421875 61.53125 53.78125 63.8125 
Q 48.140625 66.109375 41.796875 66.109375 
Q 29.296875 66.109375 22.65625 58.46875 
Q 16.015625 50.828125 16.015625 36.375 
Q 16.015625 21.96875 22.65625 14.328125 
Q 29.296875 6.6875 41.796875 6.6875 
Q 48.140625 6.6875 53.78125 8.984375 
Q 59.421875 11.28125 64.40625 15.921875 
L 64.40625 5.609375 
Q 59.234375 2.09375 53.4375 0.328125 
Q 47.65625 -1.421875 41.21875 -1.421875 
Q 24.65625 -1.421875 15.125 8.703125 
Q 5.609375 18.84375 5.609375 36.375 
Q 5.609375 53.953125 15.125 64.078125 
Q 24.65625 74.21875 41.21875 74.21875 
Q 47.75 74.21875 53.53125 72.484375 
Q 59.328125 70.75 64.40625 67.28125 
z
" id="DejaVuSans-67"/>
    </defs>
    <g style="fill:#4c72b0;" transform="translate(476.649 196.873921)scale(0.14 -0.14)">
     <use xlink:href="#DejaVuSans-76"/>
     <use x="55.697266" xlink:href="#DejaVuSans-111"/>
     <use x="116.878906" xlink:href="#DejaVuSans-115"/>
     <use x="168.978516" xlink:href="#DejaVuSans-32"/>
     <use x="200.765625" xlink:href="#DejaVuSans-65"/>
     <use x="269.173828" xlink:href="#DejaVuSans-110"/>
     <use x="332.552734" xlink:href="#DejaVuSans-103"/>
     <use x="396.029297" xlink:href="#DejaVuSans-101"/>
     <use x="457.552734" xlink:href="#DejaVuSans-108"/>
     <use x="485.335938" xlink:href="#DejaVuSans-101"/>
     <use x="546.859375" xlink:href="#DejaVuSans-115"/>
     <use x="598.958984" xlink:href="#DejaVuSans-44"/>
     <use x="630.746094" xlink:href="#DejaVuSans-32"/>
     <use x="662.533203" xlink:href="#DejaVuSans-67"/>
     <use x="732.357422" xlink:href="#DejaVuSans-65"/>
    </g>
   </g>
   <g id="text_13">
    <!-- Allegheny, PA -->
    <defs>
     <path d="M 54.890625 33.015625 
L 54.890625 0 
L 45.90625 0 
L 45.90625 32.71875 
Q 45.90625 40.484375 42.875 44.328125 
Q 39.84375 48.1875 33.796875 48.1875 
Q 26.515625 48.1875 22.3125 43.546875 
Q 18.109375 38.921875 18.109375 30.90625 
L 18.109375 0 
L 9.078125 0 
L 9.078125 75.984375 
L 18.109375 75.984375 
L 18.109375 46.1875 
Q 21.34375 51.125 25.703125 53.5625 
Q 30.078125 56 35.796875 56 
Q 45.21875 56 50.046875 50.171875 
Q 54.890625 44.34375 54.890625 33.015625 
z
" id="DejaVuSans-104"/>
     <path d="M 19.671875 64.796875 
L 19.671875 37.40625 
L 32.078125 37.40625 
Q 38.96875 37.40625 42.71875 40.96875 
Q 46.484375 44.53125 46.484375 51.125 
Q 46.484375 57.671875 42.71875 61.234375 
Q 38.96875 64.796875 32.078125 64.796875 
z
M 9.8125 72.90625 
L 32.078125 72.90625 
Q 44.34375 72.90625 50.609375 67.359375 
Q 56.890625 61.8125 56.890625 51.125 
Q 56.890625 40.328125 50.609375 34.8125 
Q 44.34375 29.296875 32.078125 29.296875 
L 19.671875 29.296875 
L 19.671875 0 
L 9.8125 0 
z
" id="DejaVuSans-80"/>
    </defs>
    <g style="fill:#55a868;" transform="translate(476.649 294.007964)scale(0.14 -0.14)">
     <use xlink:href="#DejaVuSans-65"/>
     <use x="68.408203" xlink:href="#DejaVuSans-108"/>
     <use x="96.191406" xlink:href="#DejaVuSans-108"/>
     <use x="123.974609" xlink:href="#DejaVuSans-101"/>
     <use x="185.498047" xlink:href="#DejaVuSans-103"/>
     <use x="248.974609" xlink:href="#DejaVuSans-104"/>
     <use x="312.353516" xlink:href="#DejaVuSans-101"/>
     <use x="373.876953" xlink:href="#DejaVuSans-110"/>
     <use x="437.255859" xlink:href="#DejaVuSans-121"/>
     <use x="496.435547" xlink:href="#DejaVuSans-44"/>
     <use x="528.222656" xlink:href="#DejaVuSans-32"/>
     <use x="560.009766" xlink:href="#DejaVuSans-80"/>
     <use x="620.21875" xlink:href="#DejaVuSans-65"/>
    </g>
   </g>
   <g id="text_14">
    <!-- Erie, NY -->
    <defs>
     <path d="M 9.8125 72.90625 
L 55.90625 72.90625 
L 55.90625 64.59375 
L 19.671875 64.59375 
L 19.671875 43.015625 
L 54.390625 43.015625 
L 54.390625 34.71875 
L 19.671875 34.71875 
L 19.671875 8.296875 
L 56.78125 8.296875 
L 56.78125 0 
L 9.8125 0 
z
" id="DejaVuSans-69"/>
     <path d="M 9.421875 54.6875 
L 18.40625 54.6875 
L 18.40625 0 
L 9.421875 0 
z
M 9.421875 75.984375 
L 18.40625 75.984375 
L 18.40625 64.59375 
L 9.421875 64.59375 
z
" id="DejaVuSans-105"/>
     <path d="M 9.8125 72.90625 
L 23.09375 72.90625 
L 55.421875 11.921875 
L 55.421875 72.90625 
L 64.984375 72.90625 
L 64.984375 0 
L 51.703125 0 
L 19.390625 60.984375 
L 19.390625 0 
L 9.8125 0 
z
" id="DejaVuSans-78"/>
     <path d="M -0.203125 72.90625 
L 10.40625 72.90625 
L 30.609375 42.921875 
L 50.6875 72.90625 
L 61.28125 72.90625 
L 35.5 34.71875 
L 35.5 0 
L 25.59375 0 
L 25.59375 34.71875 
z
" id="DejaVuSans-89"/>
    </defs>
    <g style="fill:#c44e52;" transform="translate(476.649 263.929298)scale(0.14 -0.14)">
     <use xlink:href="#DejaVuSans-69"/>
     <use x="63.183594" xlink:href="#DejaVuSans-114"/>
     <use x="104.296875" xlink:href="#DejaVuSans-105"/>
     <use x="132.080078" xlink:href="#DejaVuSans-101"/>
     <use x="193.603516" xlink:href="#DejaVuSans-44"/>
     <use x="225.390625" xlink:href="#DejaVuSans-32"/>
     <use x="257.177734" xlink:href="#DejaVuSans-78"/>
     <use x="331.982422" xlink:href="#DejaVuSans-89"/>
    </g>
   </g>
   <g id="text_15">
    <!-- King, WA -->
    <defs>
     <path d="M 9.8125 72.90625 
L 19.671875 72.90625 
L 19.671875 42.09375 
L 52.390625 72.90625 
L 65.09375 72.90625 
L 28.90625 38.921875 
L 67.671875 0 
L 54.6875 0 
L 19.671875 35.109375 
L 19.671875 0 
L 9.8125 0 
z
" id="DejaVuSans-75"/>
     <path d="M 3.328125 72.90625 
L 13.28125 72.90625 
L 28.609375 11.28125 
L 43.890625 72.90625 
L 54.984375 72.90625 
L 70.3125 11.28125 
L 85.59375 72.90625 
L 95.609375 72.90625 
L 77.296875 0 
L 64.890625 0 
L 49.515625 63.28125 
L 33.984375 0 
L 21.578125 0 
z
" id="DejaVuSans-87"/>
    </defs>
    <g style="fill:#8172b2;" transform="translate(476.649 286.460287)scale(0.14 -0.14)">
     <use xlink:href="#DejaVuSans-75"/>
     <use x="65.576172" xlink:href="#DejaVuSans-105"/>
     <use x="93.359375" xlink:href="#DejaVuSans-110"/>
     <use x="156.738281" xlink:href="#DejaVuSans-103"/>
     <use x="220.214844" xlink:href="#DejaVuSans-44"/>
     <use x="252.001953" xlink:href="#DejaVuSans-32"/>
     <use x="283.789062" xlink:href="#DejaVuSans-87"/>
     <use x="382.587891" xlink:href="#DejaVuSans-65"/>
    </g>
   </g>
   <g id="text_16">
    <!-- Philadelphia, PA -->
    <defs>
     <path d="M 45.40625 46.390625 
L 45.40625 75.984375 
L 54.390625 75.984375 
L 54.390625 0 
L 45.40625 0 
L 45.40625 8.203125 
Q 42.578125 3.328125 38.25 0.953125 
Q 33.9375 -1.421875 27.875 -1.421875 
Q 17.96875 -1.421875 11.734375 6.484375 
Q 5.515625 14.40625 5.515625 27.296875 
Q 5.515625 40.1875 11.734375 48.09375 
Q 17.96875 56 27.875 56 
Q 33.9375 56 38.25 53.625 
Q 42.578125 51.265625 45.40625 46.390625 
z
M 14.796875 27.296875 
Q 14.796875 17.390625 18.875 11.75 
Q 22.953125 6.109375 30.078125 6.109375 
Q 37.203125 6.109375 41.296875 11.75 
Q 45.40625 17.390625 45.40625 27.296875 
Q 45.40625 37.203125 41.296875 42.84375 
Q 37.203125 48.484375 30.078125 48.484375 
Q 22.953125 48.484375 18.875 42.84375 
Q 14.796875 37.203125 14.796875 27.296875 
z
" id="DejaVuSans-100"/>
    </defs>
    <g style="fill:#ccb974;" transform="translate(476.649 242.656901)scale(0.14 -0.14)">
     <use xlink:href="#DejaVuSans-80"/>
     <use x="60.302734" xlink:href="#DejaVuSans-104"/>
     <use x="123.681641" xlink:href="#DejaVuSans-105"/>
     <use x="151.464844" xlink:href="#DejaVuSans-108"/>
     <use x="179.248047" xlink:href="#DejaVuSans-97"/>
     <use x="240.527344" xlink:href="#DejaVuSans-100"/>
     <use x="304.003906" xlink:href="#DejaVuSans-101"/>
     <use x="365.527344" xlink:href="#DejaVuSans-108"/>
     <use x="393.310547" xlink:href="#DejaVuSans-112"/>
     <use x="456.787109" xlink:href="#DejaVuSans-104"/>
     <use x="520.166016" xlink:href="#DejaVuSans-105"/>
     <use x="547.949219" xlink:href="#DejaVuSans-97"/>
     <use x="609.228516" xlink:href="#DejaVuSans-44"/>
     <use x="641.015625" xlink:href="#DejaVuSans-32"/>
     <use x="672.802734" xlink:href="#DejaVuSans-80"/>
     <use x="733.011719" xlink:href="#DejaVuSans-65"/>
    </g>
   </g>
   <g id="text_17">
    <!-- Cases per million people -->
    <defs>
     <path d="M 52 44.1875 
Q 55.375 50.25 60.0625 53.125 
Q 64.75 56 71.09375 56 
Q 79.640625 56 84.28125 50.015625 
Q 88.921875 44.046875 88.921875 33.015625 
L 88.921875 0 
L 79.890625 0 
L 79.890625 32.71875 
Q 79.890625 40.578125 77.09375 44.375 
Q 74.3125 48.1875 68.609375 48.1875 
Q 61.625 48.1875 57.5625 43.546875 
Q 53.515625 38.921875 53.515625 30.90625 
L 53.515625 0 
L 44.484375 0 
L 44.484375 32.71875 
Q 44.484375 40.625 41.703125 44.40625 
Q 38.921875 48.1875 33.109375 48.1875 
Q 26.21875 48.1875 22.15625 43.53125 
Q 18.109375 38.875 18.109375 30.90625 
L 18.109375 0 
L 9.078125 0 
L 9.078125 54.6875 
L 18.109375 54.6875 
L 18.109375 46.1875 
Q 21.1875 51.21875 25.484375 53.609375 
Q 29.78125 56 35.6875 56 
Q 41.65625 56 45.828125 52.96875 
Q 50 49.953125 52 44.1875 
z
" id="DejaVuSans-109"/>
    </defs>
    <g style="fill:#262626;" transform="translate(167.87375 19.3575)scale(0.16 -0.16)">
     <use xlink:href="#DejaVuSans-67"/>
     <use x="69.824219" xlink:href="#DejaVuSans-97"/>
     <use x="131.103516" xlink:href="#DejaVuSans-115"/>
     <use x="183.203125" xlink:href="#DejaVuSans-101"/>
     <use x="244.726562" xlink:href="#DejaVuSans-115"/>
     <use x="296.826172" xlink:href="#DejaVuSans-32"/>
     <use x="328.613281" xlink:href="#DejaVuSans-112"/>
     <use x="392.089844" xlink:href="#DejaVuSans-101"/>
     <use x="453.613281" xlink:href="#DejaVuSans-114"/>
     <use x="494.726562" xlink:href="#DejaVuSans-32"/>
     <use x="526.513672" xlink:href="#DejaVuSans-109"/>
     <use x="623.925781" xlink:href="#DejaVuSans-105"/>
     <use x="651.708984" xlink:href="#DejaVuSans-108"/>
     <use x="679.492188" xlink:href="#DejaVuSans-108"/>
     <use x="707.275391" xlink:href="#DejaVuSans-105"/>
     <use x="735.058594" xlink:href="#DejaVuSans-111"/>
     <use x="796.240234" xlink:href="#DejaVuSans-110"/>
     <use x="859.619141" xlink:href="#DejaVuSans-32"/>
     <use x="891.40625" xlink:href="#DejaVuSans-112"/>
     <use x="954.882812" xlink:href="#DejaVuSans-101"/>
     <use x="1016.40625" xlink:href="#DejaVuSans-111"/>
     <use x="1077.587891" xlink:href="#DejaVuSans-112"/>
     <use x="1141.064453" xlink:href="#DejaVuSans-108"/>
     <use x="1168.847656" xlink:href="#DejaVuSans-101"/>
    </g>
   </g>
   <g id="legend_1"/>
   <g id="PathCollection_1">
    <defs>
     <path d="M 0 2.236068 
C 0.593012 2.236068 1.161816 2.000462 1.581139 1.581139 
C 2.000462 1.161816 2.236068 0.593012 2.236068 0 
C 2.236068 -0.593012 2.000462 -1.161816 1.581139 -1.581139 
C 1.161816 -2.000462 0.593012 -2.236068 0 -2.236068 
C -0.593012 -2.236068 -1.161816 -2.000462 -1.581139 -1.581139 
C -2.000462 -1.161816 -2.236068 -0.593012 -2.236068 0 
C -2.236068 0.593012 -2.000462 1.161816 -1.581139 1.581139 
C -1.161816 2.000462 -0.593012 2.236068 0 2.236068 
z
" id="C0_0_c47a03b806"/>
    </defs>
    <g clip-path="url(#p8a7291cc9b)">
     <use style="fill:#4c72b0;stroke:#4c72b0;" x="471.649" xlink:href="#C0_0_c47a03b806" y="192.873921"/>
    </g>
    <g clip-path="url(#p8a7291cc9b)">
     <use style="fill:#55a868;stroke:#55a868;" x="471.649" xlink:href="#C0_0_c47a03b806" y="290.007964"/>
    </g>
    <g clip-path="url(#p8a7291cc9b)">
     <use style="fill:#c44e52;stroke:#c44e52;" x="471.649" xlink:href="#C0_0_c47a03b806" y="259.929298"/>
    </g>
    <g clip-path="url(#p8a7291cc9b)">
     <use style="fill:#8172b2;stroke:#8172b2;" x="471.649" xlink:href="#C0_0_c47a03b806" y="282.460287"/>
    </g>
    <g clip-path="url(#p8a7291cc9b)">
     <use style="fill:#ccb974;stroke:#ccb974;" x="471.649" xlink:href="#C0_0_c47a03b806" y="238.656901"/>
    </g>
   </g>
  </g>
 </g>
 <defs>
  <clipPath id="p8a7291cc9b">
   <rect height="271.8" width="446.4" x="43.105" y="25.3575"/>
  </clipPath>
 </defs>
</svg>
