<?xml version="1.0" encoding="utf-8" standalone="no"?>
<!DOCTYPE svg PUBLIC "-//W3C//DTD SVG 1.1//EN"
  "http://www.w3.org/Graphics/SVG/1.1/DTD/svg11.dtd">
<svg height="342.408625pt" version="1.1" viewBox="0 0 561.579554 342.408625" width="561.579554pt" xmlns="http://www.w3.org/2000/svg" xmlns:xlink="http://www.w3.org/1999/xlink">
 <metadata>
  <rdf:RDF xmlns:cc="http://creativecommons.org/ns#" xmlns:dc="http://purl.org/dc/elements/1.1/" xmlns:rdf="http://www.w3.org/1999/02/22-rdf-syntax-ns#">
   <cc:Work>
    <dc:type rdf:resource="http://purl.org/dc/dcmitype/StillImage"/>
    <dc:date>2021-06-07T21:55:39.248908</dc:date>
    <dc:format>image/svg+xml</dc:format>
    <dc:creator>
     <cc:Agent>
      <dc:title>Matplotlib v3.4.2, https://matplotlib.org/</dc:title>
     </cc:Agent>
    </dc:creator>
   </cc:Work>
  </rdf:RDF>
 </metadata>
 <defs>
  <style type="text/css">*{stroke-linecap:butt;stroke-linejoin:round;}</style>
 </defs>
 <g id="figure_1">
  <g id="patch_1">
   <path d="M 0 342.408625 
L 561.579554 342.408625 
L 561.579554 0 
L 0 0 
z
" style="fill:none;"/>
  </g>
  <g id="axes_1">
   <g id="patch_2">
    <path d="M 43.105 297.1575 
L 489.505 297.1575 
L 489.505 25.3575 
L 43.105 25.3575 
z
" style="fill:#ffffff;"/>
   </g>
   <g id="matplotlib.axis_1">
    <g id="xtick_1">
     <g id="line2d_1">
      <defs>
       <path d="M 0 0 
L 0 6 
" id="m40e4a56084" style="stroke:#262626;"/>
      </defs>
      <g>
       <use style="fill:#262626;stroke:#262626;" x="43.105" xlink:href="#m40e4a56084" y="297.1575"/>
      </g>
     </g>
    </g>
    <g id="xtick_2">
     <g id="line2d_2">
      <g>
       <use style="fill:#262626;stroke:#262626;" x="99.464118" xlink:href="#m40e4a56084" y="297.1575"/>
      </g>
     </g>
     <g id="text_1">
      <!-- Apr -->
      <g style="fill:#262626;" transform="translate(89.084118 319.275625)scale(0.12 -0.12)">
       <defs>
        <path d="M 2188 4044 
L 1331 1722 
L 3047 1722 
L 2188 4044 
z
M 1831 4666 
L 2547 4666 
L 4325 0 
L 3669 0 
L 3244 1197 
L 1141 1197 
L 716 0 
L 50 0 
L 1831 4666 
z
" id="DejaVuSans-41" transform="scale(0.015625)"/>
        <path d="M 1159 525 
L 1159 -1331 
L 581 -1331 
L 581 3500 
L 1159 3500 
L 1159 2969 
Q 1341 3281 1617 3432 
Q 1894 3584 2278 3584 
Q 2916 3584 3314 3078 
Q 3713 2572 3713 1747 
Q 3713 922 3314 415 
Q 2916 -91 2278 -91 
Q 1894 -91 1617 61 
Q 1341 213 1159 525 
z
M 3116 1747 
Q 3116 2381 2855 2742 
Q 2594 3103 2138 3103 
Q 1681 3103 1420 2742 
Q 1159 2381 1159 1747 
Q 1159 1113 1420 752 
Q 1681 391 2138 391 
Q 2594 391 2855 752 
Q 3116 1113 3116 1747 
z
" id="DejaVuSans-70" transform="scale(0.015625)"/>
        <path d="M 2631 2963 
Q 2534 3019 2420 3045 
Q 2306 3072 2169 3072 
Q 1681 3072 1420 2755 
Q 1159 2438 1159 1844 
L 1159 0 
L 581 0 
L 581 3500 
L 1159 3500 
L 1159 2956 
Q 1341 3275 1631 3429 
Q 1922 3584 2338 3584 
Q 2397 3584 2469 3576 
Q 2541 3569 2628 3553 
L 2631 2963 
z
" id="DejaVuSans-72" transform="scale(0.015625)"/>
       </defs>
       <use xlink:href="#DejaVuSans-41"/>
       <use x="68.408203" xlink:href="#DejaVuSans-70"/>
       <use x="131.884766" xlink:href="#DejaVuSans-72"/>
      </g>
     </g>
    </g>
    <g id="xtick_3">
     <g id="line2d_3">
      <g>
       <use style="fill:#262626;stroke:#262626;" x="180.871733" xlink:href="#m40e4a56084" y="297.1575"/>
      </g>
     </g>
     <g id="text_2">
      <!-- Jul -->
      <g style="fill:#262626;" transform="translate(173.632358 319.275625)scale(0.12 -0.12)">
       <defs>
        <path d="M 628 4666 
L 1259 4666 
L 1259 325 
Q 1259 -519 939 -900 
Q 619 -1281 -91 -1281 
L -331 -1281 
L -331 -750 
L -134 -750 
Q 284 -750 456 -515 
Q 628 -281 628 325 
L 628 4666 
z
" id="DejaVuSans-4a" transform="scale(0.015625)"/>
        <path d="M 544 1381 
L 544 3500 
L 1119 3500 
L 1119 1403 
Q 1119 906 1312 657 
Q 1506 409 1894 409 
Q 2359 409 2629 706 
Q 2900 1003 2900 1516 
L 2900 3500 
L 3475 3500 
L 3475 0 
L 2900 0 
L 2900 538 
Q 2691 219 2414 64 
Q 2138 -91 1772 -91 
Q 1169 -91 856 284 
Q 544 659 544 1381 
z
M 1991 3584 
L 1991 3584 
z
" id="DejaVuSans-75" transform="scale(0.015625)"/>
        <path d="M 603 4863 
L 1178 4863 
L 1178 0 
L 603 0 
L 603 4863 
z
" id="DejaVuSans-6c" transform="scale(0.015625)"/>
       </defs>
       <use xlink:href="#DejaVuSans-4a"/>
       <use x="29.492188" xlink:href="#DejaVuSans-75"/>
       <use x="92.871094" xlink:href="#DejaVuSans-6c"/>
      </g>
     </g>
    </g>
    <g id="xtick_4">
     <g id="line2d_4">
      <g>
       <use style="fill:#262626;stroke:#262626;" x="263.173938" xlink:href="#m40e4a56084" y="297.1575"/>
      </g>
     </g>
     <g id="text_3">
      <!-- Oct -->
      <g style="fill:#262626;" transform="translate(252.799563 319.275625)scale(0.12 -0.12)">
       <defs>
        <path d="M 2522 4238 
Q 1834 4238 1429 3725 
Q 1025 3213 1025 2328 
Q 1025 1447 1429 934 
Q 1834 422 2522 422 
Q 3209 422 3611 934 
Q 4013 1447 4013 2328 
Q 4013 3213 3611 3725 
Q 3209 4238 2522 4238 
z
M 2522 4750 
Q 3503 4750 4090 4092 
Q 4678 3434 4678 2328 
Q 4678 1225 4090 567 
Q 3503 -91 2522 -91 
Q 1538 -91 948 565 
Q 359 1222 359 2328 
Q 359 3434 948 4092 
Q 1538 4750 2522 4750 
z
" id="DejaVuSans-4f" transform="scale(0.015625)"/>
        <path d="M 3122 3366 
L 3122 2828 
Q 2878 2963 2633 3030 
Q 2388 3097 2138 3097 
Q 1578 3097 1268 2742 
Q 959 2388 959 1747 
Q 959 1106 1268 751 
Q 1578 397 2138 397 
Q 2388 397 2633 464 
Q 2878 531 3122 666 
L 3122 134 
Q 2881 22 2623 -34 
Q 2366 -91 2075 -91 
Q 1284 -91 818 406 
Q 353 903 353 1747 
Q 353 2603 823 3093 
Q 1294 3584 2113 3584 
Q 2378 3584 2631 3529 
Q 2884 3475 3122 3366 
z
" id="DejaVuSans-63" transform="scale(0.015625)"/>
        <path d="M 1172 4494 
L 1172 3500 
L 2356 3500 
L 2356 3053 
L 1172 3053 
L 1172 1153 
Q 1172 725 1289 603 
Q 1406 481 1766 481 
L 2356 481 
L 2356 0 
L 1766 0 
Q 1100 0 847 248 
Q 594 497 594 1153 
L 594 3053 
L 172 3053 
L 172 3500 
L 594 3500 
L 594 4494 
L 1172 4494 
z
" id="DejaVuSans-74" transform="scale(0.015625)"/>
       </defs>
       <use xlink:href="#DejaVuSans-4f"/>
       <use x="78.710938" xlink:href="#DejaVuSans-63"/>
       <use x="133.691406" xlink:href="#DejaVuSans-74"/>
      </g>
     </g>
    </g>
    <g id="xtick_5">
     <g id="line2d_5">
      <g>
       <use style="fill:#262626;stroke:#262626;" x="345.476142" xlink:href="#m40e4a56084" y="297.1575"/>
      </g>
     </g>
     <g id="text_4">
      <!-- Jan -->
      <g style="fill:#262626;" transform="translate(336.226767 319.275625)scale(0.12 -0.12)">
       <defs>
        <path d="M 2194 1759 
Q 1497 1759 1228 1600 
Q 959 1441 959 1056 
Q 959 750 1161 570 
Q 1363 391 1709 391 
Q 2188 391 2477 730 
Q 2766 1069 2766 1631 
L 2766 1759 
L 2194 1759 
z
M 3341 1997 
L 3341 0 
L 2766 0 
L 2766 531 
Q 2569 213 2275 61 
Q 1981 -91 1556 -91 
Q 1019 -91 701 211 
Q 384 513 384 1019 
Q 384 1609 779 1909 
Q 1175 2209 1959 2209 
L 2766 2209 
L 2766 2266 
Q 2766 2663 2505 2880 
Q 2244 3097 1772 3097 
Q 1472 3097 1187 3025 
Q 903 2953 641 2809 
L 641 3341 
Q 956 3463 1253 3523 
Q 1550 3584 1831 3584 
Q 2591 3584 2966 3190 
Q 3341 2797 3341 1997 
z
" id="DejaVuSans-61" transform="scale(0.015625)"/>
        <path d="M 3513 2113 
L 3513 0 
L 2938 0 
L 2938 2094 
Q 2938 2591 2744 2837 
Q 2550 3084 2163 3084 
Q 1697 3084 1428 2787 
Q 1159 2491 1159 1978 
L 1159 0 
L 581 0 
L 581 3500 
L 1159 3500 
L 1159 2956 
Q 1366 3272 1645 3428 
Q 1925 3584 2291 3584 
Q 2894 3584 3203 3211 
Q 3513 2838 3513 2113 
z
" id="DejaVuSans-6e" transform="scale(0.015625)"/>
       </defs>
       <use xlink:href="#DejaVuSans-4a"/>
       <use x="29.492188" xlink:href="#DejaVuSans-61"/>
       <use x="90.771484" xlink:href="#DejaVuSans-6e"/>
      </g>
      <!-- 2021 -->
      <g style="fill:#262626;" transform="translate(330.206142 332.713)scale(0.12 -0.12)">
       <defs>
        <path d="M 1228 531 
L 3431 531 
L 3431 0 
L 469 0 
L 469 531 
Q 828 903 1448 1529 
Q 2069 2156 2228 2338 
Q 2531 2678 2651 2914 
Q 2772 3150 2772 3378 
Q 2772 3750 2511 3984 
Q 2250 4219 1831 4219 
Q 1534 4219 1204 4116 
Q 875 4013 500 3803 
L 500 4441 
Q 881 4594 1212 4672 
Q 1544 4750 1819 4750 
Q 2544 4750 2975 4387 
Q 3406 4025 3406 3419 
Q 3406 3131 3298 2873 
Q 3191 2616 2906 2266 
Q 2828 2175 2409 1742 
Q 1991 1309 1228 531 
z
" id="DejaVuSans-32" transform="scale(0.015625)"/>
        <path d="M 2034 4250 
Q 1547 4250 1301 3770 
Q 1056 3291 1056 2328 
Q 1056 1369 1301 889 
Q 1547 409 2034 409 
Q 2525 409 2770 889 
Q 3016 1369 3016 2328 
Q 3016 3291 2770 3770 
Q 2525 4250 2034 4250 
z
M 2034 4750 
Q 2819 4750 3233 4129 
Q 3647 3509 3647 2328 
Q 3647 1150 3233 529 
Q 2819 -91 2034 -91 
Q 1250 -91 836 529 
Q 422 1150 422 2328 
Q 422 3509 836 4129 
Q 1250 4750 2034 4750 
z
" id="DejaVuSans-30" transform="scale(0.015625)"/>
        <path d="M 794 531 
L 1825 531 
L 1825 4091 
L 703 3866 
L 703 4441 
L 1819 4666 
L 2450 4666 
L 2450 531 
L 3481 531 
L 3481 0 
L 794 0 
L 794 531 
z
" id="DejaVuSans-31" transform="scale(0.015625)"/>
       </defs>
       <use xlink:href="#DejaVuSans-32"/>
       <use x="63.623047" xlink:href="#DejaVuSans-30"/>
       <use x="127.246094" xlink:href="#DejaVuSans-32"/>
       <use x="190.869141" xlink:href="#DejaVuSans-31"/>
      </g>
     </g>
    </g>
    <g id="xtick_6">
     <g id="line2d_6">
      <g>
       <use style="fill:#262626;stroke:#262626;" x="425.989168" xlink:href="#m40e4a56084" y="297.1575"/>
      </g>
     </g>
     <g id="text_5">
      <!-- Apr -->
      <g style="fill:#262626;" transform="translate(415.609168 319.275625)scale(0.12 -0.12)">
       <use xlink:href="#DejaVuSans-41"/>
       <use x="68.408203" xlink:href="#DejaVuSans-70"/>
       <use x="131.884766" xlink:href="#DejaVuSans-72"/>
      </g>
     </g>
    </g>
    <g id="xtick_7">
     <g id="line2d_7">
      <g>
       <use style="fill:#262626;stroke:#262626;" x="489.505" xlink:href="#m40e4a56084" y="297.1575"/>
      </g>
     </g>
    </g>
    <g id="xtick_8">
     <g id="line2d_8">
      <defs>
       <path d="M 0 0 
L 0 3 
" id="m9355d12aa9" style="stroke:#262626;stroke-width:0.5;"/>
      </defs>
      <g>
       <use style="fill:#262626;stroke:#262626;stroke-width:0.5;" x="45.788768" xlink:href="#m9355d12aa9" y="297.1575"/>
      </g>
     </g>
    </g>
    <g id="xtick_9">
     <g id="line2d_9">
      <g>
       <use style="fill:#262626;stroke:#262626;stroke-width:0.5;" x="71.731854" xlink:href="#m9355d12aa9" y="297.1575"/>
      </g>
     </g>
    </g>
    <g id="xtick_10">
     <g id="line2d_10">
      <g>
       <use style="fill:#262626;stroke:#262626;stroke-width:0.5;" x="126.301794" xlink:href="#m9355d12aa9" y="297.1575"/>
      </g>
     </g>
    </g>
    <g id="xtick_11">
     <g id="line2d_11">
      <g>
       <use style="fill:#262626;stroke:#262626;stroke-width:0.5;" x="154.034058" xlink:href="#m9355d12aa9" y="297.1575"/>
      </g>
     </g>
    </g>
    <g id="xtick_12">
     <g id="line2d_12">
      <g>
       <use style="fill:#262626;stroke:#262626;stroke-width:0.5;" x="208.603998" xlink:href="#m9355d12aa9" y="297.1575"/>
      </g>
     </g>
    </g>
    <g id="xtick_13">
     <g id="line2d_13">
      <g>
       <use style="fill:#262626;stroke:#262626;stroke-width:0.5;" x="236.336263" xlink:href="#m9355d12aa9" y="297.1575"/>
      </g>
     </g>
    </g>
    <g id="xtick_14">
     <g id="line2d_14">
      <g>
       <use style="fill:#262626;stroke:#262626;stroke-width:0.5;" x="290.906202" xlink:href="#m9355d12aa9" y="297.1575"/>
      </g>
     </g>
    </g>
    <g id="xtick_15">
     <g id="line2d_15">
      <g>
       <use style="fill:#262626;stroke:#262626;stroke-width:0.5;" x="317.743878" xlink:href="#m9355d12aa9" y="297.1575"/>
      </g>
     </g>
    </g>
    <g id="xtick_16">
     <g id="line2d_16">
      <g>
       <use style="fill:#262626;stroke:#262626;stroke-width:0.5;" x="373.208407" xlink:href="#m9355d12aa9" y="297.1575"/>
      </g>
     </g>
    </g>
    <g id="xtick_17">
     <g id="line2d_17">
      <g>
       <use style="fill:#262626;stroke:#262626;stroke-width:0.5;" x="398.256904" xlink:href="#m9355d12aa9" y="297.1575"/>
      </g>
     </g>
    </g>
    <g id="xtick_18">
     <g id="line2d_18">
      <g>
       <use style="fill:#262626;stroke:#262626;stroke-width:0.5;" x="452.826844" xlink:href="#m9355d12aa9" y="297.1575"/>
      </g>
     </g>
    </g>
    <g id="xtick_19">
     <g id="line2d_19">
      <g>
       <use style="fill:#262626;stroke:#262626;stroke-width:0.5;" x="480.559108" xlink:href="#m9355d12aa9" y="297.1575"/>
      </g>
     </g>
    </g>
   </g>
   <g id="matplotlib.axis_2">
    <g id="ytick_1">
     <g id="line2d_20">
      <path clip-path="url(#pebfb8b8b7e)" d="M 43.105 297.1575 
L 489.505 297.1575 
" style="fill:none;stroke:#b0b0b0;stroke-linecap:square;stroke-opacity:0.3;"/>
     </g>
     <g id="line2d_21">
      <defs>
       <path d="M 0 0 
L -6 0 
" id="me271680632" style="stroke:#262626;"/>
      </defs>
      <g>
       <use style="fill:#262626;stroke:#262626;" x="43.105" xlink:href="#me271680632" y="297.1575"/>
      </g>
     </g>
     <g id="text_6">
      <!-- 0 -->
      <g style="fill:#262626;" transform="translate(22.47 301.716562)scale(0.12 -0.12)">
       <use xlink:href="#DejaVuSans-30"/>
      </g>
     </g>
    </g>
    <g id="ytick_2">
     <g id="line2d_22">
      <path clip-path="url(#pebfb8b8b7e)" d="M 43.105 269.477021 
L 489.505 269.477021 
" style="fill:none;stroke:#b0b0b0;stroke-linecap:square;stroke-opacity:0.3;"/>
     </g>
     <g id="line2d_23">
      <g>
       <use style="fill:#262626;stroke:#262626;" x="43.105" xlink:href="#me271680632" y="269.477021"/>
      </g>
     </g>
     <g id="text_7">
      <!-- 100 -->
      <g style="fill:#262626;" transform="translate(7.2 274.036083)scale(0.12 -0.12)">
       <use xlink:href="#DejaVuSans-31"/>
       <use x="63.623047" xlink:href="#DejaVuSans-30"/>
       <use x="127.246094" xlink:href="#DejaVuSans-30"/>
      </g>
     </g>
    </g>
    <g id="ytick_3">
     <g id="line2d_24">
      <path clip-path="url(#pebfb8b8b7e)" d="M 43.105 241.796542 
L 489.505 241.796542 
" style="fill:none;stroke:#b0b0b0;stroke-linecap:square;stroke-opacity:0.3;"/>
     </g>
     <g id="line2d_25">
      <g>
       <use style="fill:#262626;stroke:#262626;" x="43.105" xlink:href="#me271680632" y="241.796542"/>
      </g>
     </g>
     <g id="text_8">
      <!-- 200 -->
      <g style="fill:#262626;" transform="translate(7.2 246.355604)scale(0.12 -0.12)">
       <use xlink:href="#DejaVuSans-32"/>
       <use x="63.623047" xlink:href="#DejaVuSans-30"/>
       <use x="127.246094" xlink:href="#DejaVuSans-30"/>
      </g>
     </g>
    </g>
    <g id="ytick_4">
     <g id="line2d_26">
      <path clip-path="url(#pebfb8b8b7e)" d="M 43.105 214.116062 
L 489.505 214.116062 
" style="fill:none;stroke:#b0b0b0;stroke-linecap:square;stroke-opacity:0.3;"/>
     </g>
     <g id="line2d_27">
      <g>
       <use style="fill:#262626;stroke:#262626;" x="43.105" xlink:href="#me271680632" y="214.116062"/>
      </g>
     </g>
     <g id="text_9">
      <!-- 300 -->
      <g style="fill:#262626;" transform="translate(7.2 218.675125)scale(0.12 -0.12)">
       <defs>
        <path d="M 2597 2516 
Q 3050 2419 3304 2112 
Q 3559 1806 3559 1356 
Q 3559 666 3084 287 
Q 2609 -91 1734 -91 
Q 1441 -91 1130 -33 
Q 819 25 488 141 
L 488 750 
Q 750 597 1062 519 
Q 1375 441 1716 441 
Q 2309 441 2620 675 
Q 2931 909 2931 1356 
Q 2931 1769 2642 2001 
Q 2353 2234 1838 2234 
L 1294 2234 
L 1294 2753 
L 1863 2753 
Q 2328 2753 2575 2939 
Q 2822 3125 2822 3475 
Q 2822 3834 2567 4026 
Q 2313 4219 1838 4219 
Q 1578 4219 1281 4162 
Q 984 4106 628 3988 
L 628 4550 
Q 988 4650 1302 4700 
Q 1616 4750 1894 4750 
Q 2613 4750 3031 4423 
Q 3450 4097 3450 3541 
Q 3450 3153 3228 2886 
Q 3006 2619 2597 2516 
z
" id="DejaVuSans-33" transform="scale(0.015625)"/>
       </defs>
       <use xlink:href="#DejaVuSans-33"/>
       <use x="63.623047" xlink:href="#DejaVuSans-30"/>
       <use x="127.246094" xlink:href="#DejaVuSans-30"/>
      </g>
     </g>
    </g>
    <g id="ytick_5">
     <g id="line2d_28">
      <path clip-path="url(#pebfb8b8b7e)" d="M 43.105 186.435583 
L 489.505 186.435583 
" style="fill:none;stroke:#b0b0b0;stroke-linecap:square;stroke-opacity:0.3;"/>
     </g>
     <g id="line2d_29">
      <g>
       <use style="fill:#262626;stroke:#262626;" x="43.105" xlink:href="#me271680632" y="186.435583"/>
      </g>
     </g>
     <g id="text_10">
      <!-- 400 -->
      <g style="fill:#262626;" transform="translate(7.2 190.994646)scale(0.12 -0.12)">
       <defs>
        <path d="M 2419 4116 
L 825 1625 
L 2419 1625 
L 2419 4116 
z
M 2253 4666 
L 3047 4666 
L 3047 1625 
L 3713 1625 
L 3713 1100 
L 3047 1100 
L 3047 0 
L 2419 0 
L 2419 1100 
L 313 1100 
L 313 1709 
L 2253 4666 
z
" id="DejaVuSans-34" transform="scale(0.015625)"/>
       </defs>
       <use xlink:href="#DejaVuSans-34"/>
       <use x="63.623047" xlink:href="#DejaVuSans-30"/>
       <use x="127.246094" xlink:href="#DejaVuSans-30"/>
      </g>
     </g>
    </g>
    <g id="ytick_6">
     <g id="line2d_30">
      <path clip-path="url(#pebfb8b8b7e)" d="M 43.105 158.755104 
L 489.505 158.755104 
" style="fill:none;stroke:#b0b0b0;stroke-linecap:square;stroke-opacity:0.3;"/>
     </g>
     <g id="line2d_31">
      <g>
       <use style="fill:#262626;stroke:#262626;" x="43.105" xlink:href="#me271680632" y="158.755104"/>
      </g>
     </g>
     <g id="text_11">
      <!-- 500 -->
      <g style="fill:#262626;" transform="translate(7.2 163.314167)scale(0.12 -0.12)">
       <defs>
        <path d="M 691 4666 
L 3169 4666 
L 3169 4134 
L 1269 4134 
L 1269 2991 
Q 1406 3038 1543 3061 
Q 1681 3084 1819 3084 
Q 2600 3084 3056 2656 
Q 3513 2228 3513 1497 
Q 3513 744 3044 326 
Q 2575 -91 1722 -91 
Q 1428 -91 1123 -41 
Q 819 9 494 109 
L 494 744 
Q 775 591 1075 516 
Q 1375 441 1709 441 
Q 2250 441 2565 725 
Q 2881 1009 2881 1497 
Q 2881 1984 2565 2268 
Q 2250 2553 1709 2553 
Q 1456 2553 1204 2497 
Q 953 2441 691 2322 
L 691 4666 
z
" id="DejaVuSans-35" transform="scale(0.015625)"/>
       </defs>
       <use xlink:href="#DejaVuSans-35"/>
       <use x="63.623047" xlink:href="#DejaVuSans-30"/>
       <use x="127.246094" xlink:href="#DejaVuSans-30"/>
      </g>
     </g>
    </g>
    <g id="ytick_7">
     <g id="line2d_32">
      <path clip-path="url(#pebfb8b8b7e)" d="M 43.105 131.074625 
L 489.505 131.074625 
" style="fill:none;stroke:#b0b0b0;stroke-linecap:square;stroke-opacity:0.3;"/>
     </g>
     <g id="line2d_33">
      <g>
       <use style="fill:#262626;stroke:#262626;" x="43.105" xlink:href="#me271680632" y="131.074625"/>
      </g>
     </g>
     <g id="text_12">
      <!-- 600 -->
      <g style="fill:#262626;" transform="translate(7.2 135.633687)scale(0.12 -0.12)">
       <defs>
        <path d="M 2113 2584 
Q 1688 2584 1439 2293 
Q 1191 2003 1191 1497 
Q 1191 994 1439 701 
Q 1688 409 2113 409 
Q 2538 409 2786 701 
Q 3034 994 3034 1497 
Q 3034 2003 2786 2293 
Q 2538 2584 2113 2584 
z
M 3366 4563 
L 3366 3988 
Q 3128 4100 2886 4159 
Q 2644 4219 2406 4219 
Q 1781 4219 1451 3797 
Q 1122 3375 1075 2522 
Q 1259 2794 1537 2939 
Q 1816 3084 2150 3084 
Q 2853 3084 3261 2657 
Q 3669 2231 3669 1497 
Q 3669 778 3244 343 
Q 2819 -91 2113 -91 
Q 1303 -91 875 529 
Q 447 1150 447 2328 
Q 447 3434 972 4092 
Q 1497 4750 2381 4750 
Q 2619 4750 2861 4703 
Q 3103 4656 3366 4563 
z
" id="DejaVuSans-36" transform="scale(0.015625)"/>
       </defs>
       <use xlink:href="#DejaVuSans-36"/>
       <use x="63.623047" xlink:href="#DejaVuSans-30"/>
       <use x="127.246094" xlink:href="#DejaVuSans-30"/>
      </g>
     </g>
    </g>
    <g id="ytick_8">
     <g id="line2d_34">
      <path clip-path="url(#pebfb8b8b7e)" d="M 43.105 103.394146 
L 489.505 103.394146 
" style="fill:none;stroke:#b0b0b0;stroke-linecap:square;stroke-opacity:0.3;"/>
     </g>
     <g id="line2d_35">
      <g>
       <use style="fill:#262626;stroke:#262626;" x="43.105" xlink:href="#me271680632" y="103.394146"/>
      </g>
     </g>
     <g id="text_13">
      <!-- 700 -->
      <g style="fill:#262626;" transform="translate(7.2 107.953208)scale(0.12 -0.12)">
       <defs>
        <path d="M 525 4666 
L 3525 4666 
L 3525 4397 
L 1831 0 
L 1172 0 
L 2766 4134 
L 525 4134 
L 525 4666 
z
" id="DejaVuSans-37" transform="scale(0.015625)"/>
       </defs>
       <use xlink:href="#DejaVuSans-37"/>
       <use x="63.623047" xlink:href="#DejaVuSans-30"/>
       <use x="127.246094" xlink:href="#DejaVuSans-30"/>
      </g>
     </g>
    </g>
    <g id="ytick_9">
     <g id="line2d_36">
      <path clip-path="url(#pebfb8b8b7e)" d="M 43.105 75.713666 
L 489.505 75.713666 
" style="fill:none;stroke:#b0b0b0;stroke-linecap:square;stroke-opacity:0.3;"/>
     </g>
     <g id="line2d_37">
      <g>
       <use style="fill:#262626;stroke:#262626;" x="43.105" xlink:href="#me271680632" y="75.713666"/>
      </g>
     </g>
     <g id="text_14">
      <!-- 800 -->
      <g style="fill:#262626;" transform="translate(7.2 80.272729)scale(0.12 -0.12)">
       <defs>
        <path d="M 2034 2216 
Q 1584 2216 1326 1975 
Q 1069 1734 1069 1313 
Q 1069 891 1326 650 
Q 1584 409 2034 409 
Q 2484 409 2743 651 
Q 3003 894 3003 1313 
Q 3003 1734 2745 1975 
Q 2488 2216 2034 2216 
z
M 1403 2484 
Q 997 2584 770 2862 
Q 544 3141 544 3541 
Q 544 4100 942 4425 
Q 1341 4750 2034 4750 
Q 2731 4750 3128 4425 
Q 3525 4100 3525 3541 
Q 3525 3141 3298 2862 
Q 3072 2584 2669 2484 
Q 3125 2378 3379 2068 
Q 3634 1759 3634 1313 
Q 3634 634 3220 271 
Q 2806 -91 2034 -91 
Q 1263 -91 848 271 
Q 434 634 434 1313 
Q 434 1759 690 2068 
Q 947 2378 1403 2484 
z
M 1172 3481 
Q 1172 3119 1398 2916 
Q 1625 2713 2034 2713 
Q 2441 2713 2670 2916 
Q 2900 3119 2900 3481 
Q 2900 3844 2670 4047 
Q 2441 4250 2034 4250 
Q 1625 4250 1398 4047 
Q 1172 3844 1172 3481 
z
" id="DejaVuSans-38" transform="scale(0.015625)"/>
       </defs>
       <use xlink:href="#DejaVuSans-38"/>
       <use x="63.623047" xlink:href="#DejaVuSans-30"/>
       <use x="127.246094" xlink:href="#DejaVuSans-30"/>
      </g>
     </g>
    </g>
    <g id="ytick_10">
     <g id="line2d_38">
      <path clip-path="url(#pebfb8b8b7e)" d="M 43.105 48.033187 
L 489.505 48.033187 
" style="fill:none;stroke:#b0b0b0;stroke-linecap:square;stroke-opacity:0.3;"/>
     </g>
     <g id="line2d_39">
      <g>
       <use style="fill:#262626;stroke:#262626;" x="43.105" xlink:href="#me271680632" y="48.033187"/>
      </g>
     </g>
     <g id="text_15">
      <!-- 900 -->
      <g style="fill:#262626;" transform="translate(7.2 52.59225)scale(0.12 -0.12)">
       <defs>
        <path d="M 703 97 
L 703 672 
Q 941 559 1184 500 
Q 1428 441 1663 441 
Q 2288 441 2617 861 
Q 2947 1281 2994 2138 
Q 2813 1869 2534 1725 
Q 2256 1581 1919 1581 
Q 1219 1581 811 2004 
Q 403 2428 403 3163 
Q 403 3881 828 4315 
Q 1253 4750 1959 4750 
Q 2769 4750 3195 4129 
Q 3622 3509 3622 2328 
Q 3622 1225 3098 567 
Q 2575 -91 1691 -91 
Q 1453 -91 1209 -44 
Q 966 3 703 97 
z
M 1959 2075 
Q 2384 2075 2632 2365 
Q 2881 2656 2881 3163 
Q 2881 3666 2632 3958 
Q 2384 4250 1959 4250 
Q 1534 4250 1286 3958 
Q 1038 3666 1038 3163 
Q 1038 2656 1286 2365 
Q 1534 2075 1959 2075 
z
" id="DejaVuSans-39" transform="scale(0.015625)"/>
       </defs>
       <use xlink:href="#DejaVuSans-39"/>
       <use x="63.623047" xlink:href="#DejaVuSans-30"/>
       <use x="127.246094" xlink:href="#DejaVuSans-30"/>
      </g>
     </g>
    </g>
   </g>
   <g id="line2d_40">
    <path clip-path="url(#pebfb8b8b7e)" d="M 43.105 297.156898 
L 79.783156 297.072206 
L 84.256102 296.83307 
L 86.045281 296.467198 
L 86.93987 296.191077 
L 87.834459 295.702564 
L 89.623637 294.380991 
L 92.307405 291.104645 
L 93.201994 289.9692 
L 95.885762 285.232257 
L 97.67494 282.718858 
L 98.569529 280.828056 
L 99.464118 278.394048 
L 101.253297 275.022891 
L 103.042475 272.161449 
L 103.937064 271.039256 
L 104.831653 270.501351 
L 105.726242 270.627966 
L 106.620832 270.179812 
L 107.515421 269.927303 
L 111.093778 271.41561 
L 112.882956 272.833199 
L 115.566723 273.279787 
L 116.461313 272.932709 
L 117.355902 273.281112 
L 119.14508 272.424198 
L 120.039669 272.513226 
L 120.934259 272.2153 
L 121.828848 272.163979 
L 122.723437 272.899458 
L 123.618026 273.062215 
L 124.512615 273.357612 
L 125.407204 273.88853 
L 126.301794 273.577713 
L 128.090972 274.204045 
L 129.88015 274.167181 
L 131.669329 274.60883 
L 132.563918 275.581879 
L 133.458507 275.843543 
L 135.247685 277.082714 
L 136.142275 277.275589 
L 137.036864 277.77386 
L 137.931453 277.847589 
L 138.826042 278.100217 
L 140.61522 278.275865 
L 141.50981 277.903487 
L 142.404399 278.138166 
L 143.298988 277.862045 
L 145.088166 278.118891 
L 145.982756 278.484642 
L 146.877345 278.281166 
L 147.771934 278.730164 
L 148.666523 278.888704 
L 150.455701 279.807059 
L 151.350291 279.707188 
L 152.24488 279.402034 
L 154.034058 279.684178 
L 155.823236 279.305295 
L 156.717826 279.385047 
L 157.612415 279.273611 
L 158.507004 279.573585 
L 159.401593 279.700683 
L 160.296182 279.676347 
L 161.190772 280.052098 
L 162.97995 279.719356 
L 163.874539 279.788627 
L 164.769128 279.298308 
L 165.663717 279.17627 
L 166.558307 278.909907 
L 169.242074 276.908151 
L 171.925842 274.499562 
L 173.71502 271.400792 
L 174.609609 270.339919 
L 175.504198 268.919679 
L 176.398788 267.178262 
L 177.293377 266.087994 
L 178.187966 264.210564 
L 179.977144 261.981478 
L 181.766323 258.096028 
L 183.555501 256.925647 
L 184.45009 255.719364 
L 185.344679 255.501672 
L 186.239269 253.786036 
L 187.133858 252.786242 
L 188.028447 252.078713 
L 188.923036 250.066114 
L 189.817625 248.340479 
L 190.712214 247.415618 
L 191.606804 245.509276 
L 193.395982 243.658711 
L 194.290571 242.049572 
L 195.18516 241.546121 
L 197.868928 240.615117 
L 198.763517 241.04761 
L 199.658106 240.747756 
L 200.552695 241.641776 
L 201.447285 241.511305 
L 202.341874 241.220125 
L 204.131052 242.540976 
L 205.92023 242.150045 
L 206.81482 242.267987 
L 207.709409 242.823 
L 209.498587 244.991489 
L 210.393176 246.350649 
L 211.287766 247.270811 
L 212.182355 249.36786 
L 213.971533 251.479246 
L 214.866122 251.728261 
L 215.760711 251.704046 
L 216.655301 251.450453 
L 217.54989 252.748053 
L 218.444479 252.55843 
L 219.339068 253.526179 
L 220.233657 252.799374 
L 222.022836 254.454653 
L 222.917425 255.774299 
L 223.812014 256.1321 
L 224.706603 257.182612 
L 225.601192 258.059043 
L 226.495782 260.045982 
L 227.390371 260.514255 
L 228.28496 261.112396 
L 229.179549 261.132876 
L 230.074138 261.696563 
L 230.968727 261.955336 
L 231.863317 261.792458 
L 232.757906 262.034727 
L 235.441673 262.188087 
L 236.336263 262.008344 
L 237.230852 262.508783 
L 238.125441 262.646361 
L 239.02003 262.218687 
L 239.914619 262.170016 
L 240.809208 262.553839 
L 241.703798 263.96926 
L 242.598387 265.730555 
L 244.387565 267.557386 
L 246.176743 268.119988 
L 247.071333 267.740021 
L 248.860511 264.960018 
L 249.7551 264.359949 
L 250.649689 263.26679 
L 252.438868 262.951877 
L 253.333457 262.460955 
L 254.228046 260.358123 
L 256.017224 260.308369 
L 256.911814 260.070678 
L 257.806403 260.189584 
L 258.700992 259.891898 
L 259.595581 260.002612 
L 260.49017 262.241456 
L 261.38476 261.823179 
L 262.279349 261.778122 
L 263.173938 261.953168 
L 264.068527 261.151429 
L 264.963116 260.681108 
L 265.857705 260.896752 
L 266.752295 260.164044 
L 267.646884 259.929004 
L 269.436062 256.96998 
L 270.330651 256.797224 
L 271.22524 256.029097 
L 272.11983 254.795106 
L 273.014419 254.506215 
L 273.909008 253.669901 
L 274.803597 252.619148 
L 275.698186 251.862466 
L 276.592776 250.324887 
L 277.487365 250.107315 
L 278.381954 249.699398 
L 279.276543 246.574004 
L 280.171132 245.402417 
L 281.065721 244.977996 
L 282.8549 242.060655 
L 283.749489 238.92743 
L 284.644078 237.380936 
L 285.538667 237.429968 
L 288.222435 231.922488 
L 289.117024 229.834595 
L 290.011613 228.99286 
L 290.906202 223.849204 
L 291.800792 221.692642 
L 292.695381 215.625692 
L 293.58997 212.600048 
L 294.484559 207.980202 
L 295.379148 204.514355 
L 296.273737 199.965829 
L 297.168327 198.728586 
L 298.062916 194.485214 
L 298.957505 192.882219 
L 299.852094 187.797233 
L 300.746683 183.534587 
L 301.641273 177.226091 
L 302.535862 172.357111 
L 303.430451 169.804799 
L 304.32504 164.722102 
L 306.114218 158.703943 
L 307.008808 155.480123 
L 307.903397 153.319465 
L 311.481754 147.879931 
L 312.376343 146.656903 
L 313.270932 156.172233 
L 314.165521 155.015705 
L 315.06011 157.879918 
L 315.954699 158.677319 
L 316.849289 160.335972 
L 317.743878 158.794538 
L 318.638467 156.446426 
L 319.533056 143.086728 
L 320.427645 140.109754 
L 321.322234 132.863387 
L 322.216824 127.933086 
L 324.006002 119.475859 
L 324.900591 117.096063 
L 326.68977 115.234536 
L 327.584359 114.995279 
L 328.478948 114.185951 
L 329.373537 114.197396 
L 330.268126 116.059887 
L 331.162715 113.16905 
L 332.057305 112.148415 
L 332.951894 110.733717 
L 333.846483 113.829235 
L 334.741072 113.823934 
L 335.635661 113.295184 
L 336.530251 114.606518 
L 337.42484 116.656944 
L 338.319429 122.167918 
L 339.214018 140.714762 
L 340.108607 136.5809 
L 341.003196 140.456471 
L 341.897786 143.414169 
L 342.792375 143.136964 
L 343.686964 142.645801 
L 344.581553 137.652856 
L 345.476142 130.902109 
L 346.370731 121.981669 
L 347.265321 115.59571 
L 348.15991 114.408703 
L 349.054499 110.23629 
L 349.949088 107.593625 
L 350.843677 102.44503 
L 351.738267 85.417453 
L 352.632856 90.175479 
L 353.527445 89.625887 
L 354.422034 85.932348 
L 355.316623 86.905157 
L 356.211212 89.957425 
L 357.105802 95.086022 
L 358.000391 101.40801 
L 358.89498 108.528966 
L 359.789569 112.803781 
L 360.684158 121.365216 
L 362.473337 133.146254 
L 363.367926 138.195219 
L 364.262515 144.462152 
L 365.157104 148.208698 
L 366.051693 153.838698 
L 366.946283 152.865408 
L 369.63005 162.857563 
L 370.524639 165.766591 
L 371.419228 169.175938 
L 373.208407 173.482556 
L 374.997585 181.264179 
L 375.892174 186.661066 
L 376.786764 190.539167 
L 377.681353 195.151181 
L 378.575942 197.850468 
L 379.470531 203.215912 
L 380.36512 205.629922 
L 381.259709 208.815312 
L 382.154299 211.012955 
L 383.048888 215.199584 
L 383.943477 217.242421 
L 384.838066 220.207347 
L 386.627244 228.510973 
L 387.521834 231.536136 
L 388.416423 235.855404 
L 389.311012 238.311579 
L 390.205601 240.192261 
L 391.10019 241.152902 
L 391.99478 240.927379 
L 392.889369 239.749167 
L 393.783958 239.195359 
L 394.678547 238.279413 
L 395.573136 238.514212 
L 397.362315 240.044925 
L 398.256904 239.810246 
L 399.151493 241.639969 
L 400.046082 242.547722 
L 401.835261 245.000644 
L 402.72985 245.771301 
L 403.624439 247.01746 
L 404.519028 248.605275 
L 405.413617 248.537329 
L 406.308206 249.656872 
L 408.991974 251.552131 
L 409.886563 251.888608 
L 410.781152 250.487885 
L 411.675741 250.928932 
L 412.570331 250.763765 
L 413.46492 251.015189 
L 414.359509 250.996516 
L 415.254098 250.699313 
L 417.043277 251.850419 
L 417.937866 251.889572 
L 418.832455 248.55552 
L 419.727044 247.691137 
L 420.621633 245.799251 
L 421.516222 244.913543 
L 422.410812 243.78352 
L 423.305401 241.633222 
L 424.19999 240.698603 
L 425.094579 243.130323 
L 425.989168 241.736948 
L 426.883758 242.638558 
L 427.778347 242.589164 
L 428.672936 243.564261 
L 429.567525 242.586393 
L 430.462114 242.675061 
L 431.356703 241.682856 
L 432.251293 241.590455 
L 433.145882 240.045165 
L 434.040471 239.630984 
L 434.93506 238.260017 
L 435.829649 239.140183 
L 436.724238 237.06 
L 437.618828 237.010847 
L 438.513417 237.682838 
L 439.408006 238.003533 
L 440.302595 239.708206 
L 441.197184 240.237318 
L 442.091774 240.474647 
L 442.986363 242.524592 
L 443.880952 244.036992 
L 444.775541 244.88451 
L 445.67013 247.010352 
L 446.564719 246.896386 
L 447.459309 248.094958 
L 448.353898 250.571492 
L 449.248487 251.788255 
L 451.037665 253.803986 
L 451.932255 254.344301 
L 452.826844 255.321206 
L 453.721433 255.653828 
L 454.616022 255.301328 
L 458.194379 260.245362 
L 459.088968 261.655723 
L 459.983557 262.616364 
L 460.878146 264.265379 
L 461.772735 265.117354 
L 463.561914 267.328008 
L 465.351092 268.617054 
L 466.245681 269.164357 
L 467.140271 270.150055 
L 468.929449 271.643903 
L 469.824038 272.591774 
L 470.718627 274.315361 
L 471.613216 275.406231 
L 472.507806 275.890648 
L 473.402395 276.22833 
L 475.191573 277.477861 
L 476.086162 277.80964 
L 476.980752 278.543794 
L 477.875341 279.483472 
L 478.76993 280.222325 
L 479.664519 282.636937 
L 480.559108 282.612361 
L 481.453697 283.46277 
L 482.348287 284.472322 
L 483.242876 285.074439 
L 484.137465 284.844459 
L 485.032054 285.00565 
L 485.032054 285.00565 
" style="fill:none;stroke:#4c72b0;stroke-linecap:square;stroke-width:2;"/>
   </g>
   <g id="line2d_41">
    <path clip-path="url(#pebfb8b8b7e)" d="M 43.105 297.1575 
L 65.469729 297.057817 
L 68.153497 296.862386 
L 70.837265 296.458408 
L 71.731854 296.148211 
L 73.521032 295.727838 
L 75.31021 295.056946 
L 76.2048 294.69953 
L 77.993978 293.431852 
L 78.888567 292.477651 
L 79.783156 292.142533 
L 82.466924 288.616251 
L 84.256102 285.764796 
L 85.150691 284.823055 
L 86.045281 283.151399 
L 86.93987 281.909298 
L 87.834459 280.157633 
L 89.623637 275.895534 
L 90.518226 274.603592 
L 92.307405 272.453196 
L 94.096583 271.217653 
L 94.991172 271.26815 
L 95.885762 271.650486 
L 96.780351 271.875429 
L 97.67494 272.360071 
L 98.569529 273.144418 
L 99.464118 273.425104 
L 101.253297 275.30006 
L 102.147886 276.0667 
L 103.042475 276.657584 
L 103.937064 276.953353 
L 105.726242 278.238738 
L 107.515421 278.958816 
L 109.304599 279.178511 
L 110.199188 279.471002 
L 111.093778 279.514941 
L 111.988367 280.281581 
L 113.777545 280.856069 
L 115.566723 282.330327 
L 116.461313 282.918587 
L 117.355902 283.077948 
L 118.250491 282.616915 
L 119.14508 283.364537 
L 120.039669 283.674078 
L 120.934259 284.417765 
L 121.828848 284.891915 
L 123.618026 285.649373 
L 124.512615 286.491431 
L 125.407204 286.999027 
L 126.301794 287.691561 
L 127.196383 287.991265 
L 128.090972 288.604446 
L 128.985561 288.944155 
L 129.88015 289.610456 
L 134.353096 291.679532 
L 135.247685 291.992353 
L 136.142275 291.777903 
L 138.826042 292.763583 
L 141.50981 293.175431 
L 142.404399 293.561702 
L 149.561112 294.681823 
L 151.350291 294.803148 
L 153.139469 295.098917 
L 155.823236 295.388785 
L 156.717826 295.661601 
L 158.507004 295.756037 
L 159.401593 295.845227 
L 161.190772 295.815716 
L 162.085361 295.893757 
L 162.97995 295.761284 
L 163.874539 295.994096 
L 168.347485 295.803256 
L 169.242074 295.834734 
L 170.136663 296.038691 
L 173.71502 296.283307 
L 174.609609 296.120011 
L 175.504198 296.142964 
L 176.398788 295.878674 
L 184.45009 296.304293 
L 187.133858 296.246582 
L 194.290571 296.257075 
L 196.974339 296.257075 
L 204.131052 296.067546 
L 209.498587 295.877362 
L 213.076944 295.815716 
L 217.54989 295.309432 
L 224.706603 294.819543 
L 226.495782 294.366379 
L 227.390371 294.076512 
L 229.179549 293.181333 
L 230.074138 292.869824 
L 231.863317 292.021864 
L 233.652495 291.440818 
L 236.336263 291.245387 
L 238.125441 291.279489 
L 239.914619 290.937157 
L 240.809208 290.982408 
L 241.703798 290.881413 
L 242.598387 290.623025 
L 245.282154 290.499733 
L 246.176743 290.626304 
L 247.071333 290.521374 
L 249.7551 290.691885 
L 250.649689 290.701066 
L 252.438868 290.421036 
L 253.333457 290.335125 
L 254.228046 290.110838 
L 262.279349 289.075317 
L 266.752295 286.518975 
L 267.646884 285.843493 
L 269.436062 283.392736 
L 272.11983 277.731798 
L 273.014419 276.182778 
L 274.803597 271.67344 
L 276.592776 265.782968 
L 277.487365 262.372108 
L 278.381954 258.273961 
L 280.171132 251.918522 
L 282.8549 235.998116 
L 285.538667 218.977919 
L 287.327846 205.266932 
L 289.117024 190.388606 
L 290.011613 182.44283 
L 290.906202 176.781892 
L 291.800792 173.341521 
L 294.484559 160.563093 
L 295.379148 156.154093 
L 296.273737 150.872868 
L 298.062916 147.118364 
L 298.957505 142.626732 
L 299.852094 141.044266 
L 301.641273 136.732326 
L 302.535862 138.411195 
L 303.430451 137.517328 
L 304.32504 136.151279 
L 305.219629 138.052468 
L 306.114218 137.187457 
L 307.008808 138.368568 
L 307.903397 140.770794 
L 308.797986 142.400478 
L 309.692575 146.099238 
L 310.587164 149.00119 
L 312.376343 160.407011 
L 313.270932 165.112436 
L 315.06011 176.48809 
L 315.954699 181.531912 
L 316.849289 185.828114 
L 317.743878 188.37265 
L 321.322234 201.764259 
L 322.216824 202.917826 
L 323.111413 204.686541 
L 324.006002 207.644237 
L 324.900591 212.860538 
L 325.79518 216.940322 
L 326.68977 220.471195 
L 328.478948 221.848393 
L 329.373537 222.9331 
L 330.268126 222.931788 
L 331.162715 219.775382 
L 332.057305 218.965459 
L 334.741072 225.364182 
L 335.635661 226.122296 
L 336.530251 227.121093 
L 337.42484 229.521351 
L 338.319429 229.648578 
L 339.214018 227.264059 
L 341.003196 235.176388 
L 342.792375 238.05801 
L 343.686964 236.553585 
L 344.581553 232.987299 
L 345.476142 230.906419 
L 346.370731 229.975171 
L 347.265321 226.49414 
L 348.15991 225.040212 
L 349.949088 219.604216 
L 351.738267 225.993102 
L 352.632856 220.647607 
L 353.527445 217.775166 
L 354.422034 216.639306 
L 355.316623 217.382337 
L 356.211212 220.368233 
L 358.000391 222.045791 
L 358.89498 224.449985 
L 359.789569 228.437956 
L 361.578747 233.324385 
L 362.473337 234.770442 
L 363.367926 236.86116 
L 364.262515 238.507895 
L 365.157104 240.461548 
L 366.051693 241.062269 
L 366.946283 241.236714 
L 367.840872 241.179002 
L 368.735461 240.114625 
L 369.63005 239.914604 
L 370.524639 239.96051 
L 371.419228 240.3658 
L 372.313818 240.614351 
L 373.208407 241.030134 
L 374.102996 241.642003 
L 374.997585 242.959522 
L 375.892174 243.421212 
L 378.575942 242.262398 
L 379.470531 242.233542 
L 380.36512 241.603311 
L 381.259709 241.757426 
L 382.154299 240.786173 
L 383.048888 240.996032 
L 383.943477 240.940944 
L 385.732655 241.731193 
L 386.627244 241.89121 
L 387.521834 242.468978 
L 388.416423 243.375305 
L 390.205601 241.428865 
L 391.99478 238.370831 
L 392.889369 236.448656 
L 393.783958 233.605071 
L 394.678547 229.594146 
L 395.573136 226.303299 
L 398.256904 218.783144 
L 399.151493 216.314681 
L 400.046082 213.404203 
L 400.940671 211.453829 
L 401.835261 209.144071 
L 402.72985 206.041442 
L 403.624439 203.887767 
L 404.519028 203.378859 
L 405.413617 201.633097 
L 406.308206 200.692012 
L 408.097385 197.029978 
L 408.991974 195.457349 
L 409.886563 195.07698 
L 410.781152 194.178523 
L 412.570331 193.249898 
L 413.46492 193.740443 
L 414.359509 194.450683 
L 415.254098 195.839685 
L 416.148687 196.665348 
L 417.043277 190.599776 
L 419.727044 193.649941 
L 420.621633 194.719565 
L 421.516222 194.771373 
L 422.410812 195.060585 
L 423.305401 202.668619 
L 424.19999 204.428809 
L 425.094579 202.696819 
L 425.989168 203.678564 
L 426.883758 205.094454 
L 427.778347 206.791031 
L 428.672936 207.831799 
L 429.567525 209.287693 
L 430.462114 214.725657 
L 431.356703 221.415559 
L 432.251293 224.678206 
L 433.145882 226.641041 
L 434.040471 229.064909 
L 434.93506 230.560152 
L 435.829649 231.15038 
L 436.724238 227.428011 
L 437.618828 225.805541 
L 438.513417 225.96687 
L 439.408006 227.934951 
L 440.302595 229.369204 
L 441.197184 231.368764 
L 442.091774 231.97014 
L 442.986363 232.868598 
L 443.880952 234.392697 
L 444.775541 234.994073 
L 445.67013 235.75809 
L 446.564719 236.774593 
L 447.459309 236.467019 
L 448.353898 236.744426 
L 449.248487 237.840282 
L 450.143076 238.138019 
L 451.037665 239.273879 
L 451.932255 240.134955 
L 452.826844 240.692393 
L 453.721433 243.323496 
L 454.616022 244.959082 
L 455.510611 245.801796 
L 459.088968 253.018968 
L 460.878146 254.150238 
L 461.772735 255.573342 
L 462.667325 257.364355 
L 463.561914 259.801339 
L 464.456503 261.760239 
L 465.351092 264.069996 
L 466.245681 265.736406 
L 467.140271 266.800783 
L 469.824038 271.514734 
L 470.718627 273.053916 
L 472.507806 275.475817 
L 473.402395 276.108672 
L 474.296984 276.914661 
L 476.980752 279.954989 
L 477.875341 280.850823 
L 478.76993 281.536143 
L 480.559108 282.459521 
L 481.453697 283.140906 
L 482.348287 284.570568 
L 483.242876 285.345078 
L 484.137465 285.944487 
L 485.032054 286.385846 
L 485.032054 286.385846 
" style="fill:none;stroke:#55a868;stroke-linecap:square;stroke-width:2;"/>
   </g>
   <g id="line2d_42">
    <path clip-path="url(#pebfb8b8b7e)" d="M 43.105 297.155597 
L 74.415621 297.045718 
L 80.677745 296.374552 
L 81.572335 296.398335 
L 82.466924 295.72812 
L 84.256102 294.895703 
L 85.150691 294.257833 
L 86.045281 293.447296 
L 87.834459 290.858716 
L 88.729048 289.464535 
L 90.518226 288.082722 
L 91.412816 286.795567 
L 92.307405 285.870394 
L 93.201994 285.267724 
L 94.096583 283.544857 
L 94.991172 282.400878 
L 95.885762 280.279878 
L 96.780351 279.452217 
L 97.67494 279.163487 
L 98.569529 278.69115 
L 99.464118 277.869673 
L 100.358707 277.723643 
L 101.253297 277.993822 
L 102.147886 278.893308 
L 103.042475 279.06883 
L 103.937064 279.800881 
L 105.726242 280.307467 
L 107.515421 282.40611 
L 108.41001 283.450675 
L 110.199188 284.458138 
L 111.093778 285.886091 
L 112.882956 287.873904 
L 113.777545 288.012323 
L 114.672134 288.389052 
L 115.566723 288.914188 
L 116.461313 289.074488 
L 117.355902 289.103504 
L 118.250491 289.596771 
L 119.14508 289.81748 
L 120.039669 290.687475 
L 121.828848 291.170753 
L 122.723437 291.595524 
L 123.618026 291.629772 
L 124.512615 291.977009 
L 126.301794 292.839394 
L 128.985561 293.640417 
L 131.669329 294.103241 
L 132.563918 294.060431 
L 134.353096 294.201229 
L 135.247685 294.101814 
L 137.036864 294.33394 
L 137.931453 294.756332 
L 139.720631 295.051246 
L 140.61522 295.021754 
L 141.50981 295.266723 
L 142.404399 294.966101 
L 143.298988 295.076456 
L 145.088166 295.027938 
L 146.877345 295.274334 
L 147.771934 295.231524 
L 148.666523 295.529767 
L 149.561112 295.70624 
L 152.24488 295.633938 
L 155.823236 295.922192 
L 157.612415 296.205214 
L 159.401593 296.044439 
L 161.190772 295.907922 
L 162.97995 296.101995 
L 163.874539 296.062514 
L 164.769128 296.293213 
L 167.452896 296.326985 
L 168.347485 296.167161 
L 169.242074 295.670564 
L 170.136663 295.695775 
L 173.71502 295.146379 
L 174.609609 295.127828 
L 175.504198 295.466979 
L 177.293377 295.355673 
L 179.082555 295.600166 
L 179.977144 295.75999 
L 181.766323 295.730974 
L 182.660912 295.852269 
L 184.45009 295.811362 
L 185.344679 295.720034 
L 193.395982 296.115313 
L 195.18516 295.867015 
L 196.974339 295.818021 
L 198.763517 295.606349 
L 205.92023 295.126401 
L 206.81482 294.943745 
L 208.603998 294.909021 
L 209.498587 294.991787 
L 210.393176 294.77964 
L 211.287766 294.721609 
L 212.182355 294.509461 
L 213.076944 294.539428 
L 214.866122 294.352015 
L 216.655301 294.114657 
L 217.54989 293.964822 
L 218.444479 293.948649 
L 220.233657 293.544808 
L 222.022836 293.485825 
L 223.812014 293.076276 
L 226.495782 292.763287 
L 229.179549 292.675764 
L 230.968727 292.731893 
L 232.757906 292.830356 
L 239.914619 293.246089 
L 247.071333 292.396547 
L 247.965922 292.592998 
L 253.333457 291.341042 
L 255.122635 291.260179 
L 256.017224 291.37529 
L 257.806403 291.228309 
L 258.700992 291.404781 
L 259.595581 291.271595 
L 260.49017 290.940055 
L 261.38476 290.945763 
L 262.279349 290.551435 
L 265.857705 289.911187 
L 267.646884 289.234788 
L 268.541473 288.488942 
L 269.436062 287.452939 
L 270.330651 286.635267 
L 272.11983 285.391397 
L 273.014419 283.754627 
L 273.909008 282.798536 
L 276.592776 278.460451 
L 277.487365 277.559538 
L 278.381954 277.007288 
L 279.276543 276.12445 
L 280.171132 274.193717 
L 281.065721 271.740226 
L 281.960311 272.533639 
L 284.644078 264.323624 
L 287.327846 258.295969 
L 288.222435 252.216468 
L 289.117024 249.407177 
L 290.011613 247.696678 
L 290.906202 246.42855 
L 291.800792 240.391382 
L 292.695381 243.068437 
L 293.58997 235.801194 
L 295.379148 232.344997 
L 296.273737 232.312651 
L 297.168327 231.383198 
L 298.062916 240.292443 
L 298.957505 231.248108 
L 299.852094 235.56669 
L 300.746683 234.531163 
L 301.641273 234.797061 
L 302.535862 234.550665 
L 303.430451 239.924277 
L 304.32504 236.091351 
L 305.219629 236.241662 
L 306.114218 235.610927 
L 307.008808 235.942467 
L 307.903397 235.784546 
L 308.797986 236.149858 
L 309.692575 235.596182 
L 310.587164 235.65564 
L 311.481754 240.346194 
L 312.376343 236.084216 
L 314.165521 237.922194 
L 315.06011 237.935037 
L 315.954699 238.496324 
L 316.849289 238.60763 
L 317.743878 234.613929 
L 318.638467 239.090908 
L 319.533056 238.310814 
L 320.427645 240.617324 
L 321.322234 234.775656 
L 322.216824 231.106835 
L 323.111413 235.276058 
L 324.006002 233.136982 
L 324.900591 232.274122 
L 325.79518 227.925097 
L 326.68977 222.575269 
L 327.584359 224.63681 
L 328.478948 222.829751 
L 329.373537 222.356462 
L 330.268126 220.186469 
L 331.162715 216.545236 
L 332.057305 217.760566 
L 332.951894 215.090646 
L 333.846483 215.144397 
L 334.741072 219.075786 
L 335.635661 212.984868 
L 336.530251 211.877515 
L 337.42484 211.395188 
L 338.319429 213.160865 
L 339.214018 227.75909 
L 340.108607 231.647669 
L 341.003196 228.815071 
L 341.897786 231.313275 
L 342.792375 239.250732 
L 343.686964 231.979684 
L 344.581553 235.356921 
L 345.476142 235.367861 
L 346.370731 236.605072 
L 347.265321 237.57686 
L 348.15991 238.377883 
L 349.054499 238.909203 
L 349.949088 249.55511 
L 350.843677 237.203937 
L 351.738267 229.136622 
L 352.632856 223.466194 
L 353.527445 227.94127 
L 354.422034 228.23333 
L 355.316623 224.018443 
L 356.211212 224.54025 
L 357.105802 235.951505 
L 358.000391 240.938399 
L 358.89498 244.747066 
L 359.789569 239.735437 
L 360.684158 240.902249 
L 361.578747 248.026316 
L 362.473337 246.391448 
L 363.367926 252.606515 
L 364.262515 248.909154 
L 365.157104 250.044571 
L 366.051693 250.713359 
L 366.946283 251.838788 
L 367.840872 253.192537 
L 368.735461 259.550779 
L 369.63005 256.408522 
L 370.524639 258.090005 
L 371.419228 255.669811 
L 372.313818 260.107786 
L 373.208407 260.211957 
L 374.102996 261.019164 
L 374.997585 262.51704 
L 376.786764 264.346931 
L 377.681353 268.57371 
L 378.575942 265.756809 
L 380.36512 267.649964 
L 382.154299 270.668072 
L 383.048888 271.447215 
L 384.838066 273.34037 
L 385.732655 273.111098 
L 388.416423 272.906086 
L 389.311012 272.976009 
L 390.205601 272.653507 
L 391.10019 272.056069 
L 392.889369 272.186402 
L 394.678547 271.0624 
L 396.467725 270.636202 
L 397.362315 270.624786 
L 398.256904 270.486843 
L 399.151493 270.140557 
L 400.046082 270.103455 
L 403.624439 269.397565 
L 404.519028 269.466537 
L 405.413617 269.303859 
L 406.308206 264.399255 
L 407.202796 267.56149 
L 408.097385 266.044587 
L 409.886563 263.77185 
L 410.781152 263.099256 
L 411.675741 257.940646 
L 412.570331 264.342175 
L 413.46492 253.047934 
L 414.359509 251.760778 
L 415.254098 249.890931 
L 416.148687 253.796158 
L 417.043277 252.978962 
L 417.937866 251.414017 
L 418.832455 243.778608 
L 419.727044 247.045966 
L 420.621633 244.566313 
L 421.516222 243.07795 
L 422.410812 242.621785 
L 423.305401 241.653327 
L 424.19999 240.363318 
L 425.989168 239.261673 
L 426.883758 241.476379 
L 427.778347 248.114314 
L 428.672936 244.03642 
L 429.567525 246.089875 
L 430.462114 253.742408 
L 431.356703 251.191405 
L 432.251293 249.369124 
L 433.145882 245.610402 
L 434.040471 238.449233 
L 434.93506 242.061449 
L 435.829649 238.985786 
L 436.724238 228.602923 
L 437.618828 228.250929 
L 438.513417 228.916863 
L 439.408006 228.954441 
L 440.302595 228.255686 
L 441.197184 228.963954 
L 442.091774 229.359234 
L 442.986363 228.419316 
L 443.880952 231.636253 
L 444.775541 228.491617 
L 445.67013 229.24983 
L 446.564719 231.996808 
L 447.459309 225.250897 
L 449.248487 230.549829 
L 450.143076 228.690446 
L 451.932255 236.037125 
L 452.826844 234.080706 
L 453.721433 237.23105 
L 454.616022 237.445575 
L 455.510611 238.301776 
L 457.29979 244.057349 
L 458.194379 243.693939 
L 459.088968 246.267298 
L 459.983557 250.441753 
L 460.878146 249.58032 
L 461.772735 251.680391 
L 462.667325 259.228277 
L 464.456503 263.508806 
L 465.351092 266.24627 
L 466.245681 262.88473 
L 467.140271 263.807525 
L 468.03486 269.572611 
L 468.929449 267.055856 
L 469.824038 268.437193 
L 470.718627 269.52219 
L 471.613216 269.974549 
L 472.507806 271.127566 
L 473.402395 272.579778 
L 474.296984 274.957163 
L 475.191573 278.480905 
L 476.086162 280.277975 
L 477.875341 282.101208 
L 478.76993 282.862275 
L 479.664519 282.920306 
L 481.453697 282.429418 
L 483.242876 285.491287 
L 484.137465 286.568198 
L 485.032054 287.081443 
L 485.032054 287.081443 
" style="fill:none;stroke:#c44e52;stroke-linecap:square;stroke-width:2;"/>
   </g>
   <g id="line2d_43">
    <path clip-path="url(#pebfb8b8b7e)" d="M 43.105 297.1575 
L 73.521032 297.065792 
L 79.783156 296.744518 
L 84.256102 295.625089 
L 86.93987 294.700318 
L 87.834459 294.365435 
L 89.623637 293.414039 
L 90.518226 292.861424 
L 94.096583 288.690782 
L 94.991172 287.538811 
L 97.67494 284.554455 
L 100.358707 280.918086 
L 101.253297 279.903973 
L 102.147886 279.195159 
L 103.042475 278.759102 
L 104.831653 277.613048 
L 105.726242 277.48584 
L 106.620832 277.493532 
L 108.41001 278.110638 
L 109.304599 278.169213 
L 111.093778 279.480933 
L 111.988367 279.518799 
L 112.882956 279.254917 
L 113.777545 278.870335 
L 114.672134 278.196429 
L 115.566723 277.985205 
L 116.461313 277.585832 
L 118.250491 277.077 
L 120.039669 277.163975 
L 120.934259 277.736706 
L 121.828848 277.963905 
L 123.618026 278.07928 
L 125.407204 278.222462 
L 126.301794 278.368012 
L 128.090972 278.972101 
L 128.985561 279.755465 
L 129.88015 280.369021 
L 130.774739 281.318051 
L 131.669329 282.02154 
L 132.563918 283.014353 
L 133.458507 283.648026 
L 134.353096 284.034382 
L 135.247685 283.913091 
L 136.142275 284.087632 
L 137.036864 284.402989 
L 137.931453 285.088137 
L 138.826042 285.402902 
L 139.720631 285.453194 
L 140.61522 285.746068 
L 141.50981 286.343057 
L 142.404399 286.548956 
L 143.298988 286.899222 
L 144.193577 286.938863 
L 146.877345 287.839968 
L 147.771934 288.412108 
L 148.666523 289.235113 
L 150.455701 290.248043 
L 152.24488 290.800657 
L 154.034058 291.068089 
L 154.928647 291.176364 
L 158.507004 292.162669 
L 161.190772 292.762616 
L 163.874539 293.025907 
L 166.558307 292.951357 
L 171.031253 293.26849 
L 175.504198 293.895654 
L 176.398788 294.098003 
L 177.293377 294.117528 
L 179.082555 294.422235 
L 179.977144 294.705643 
L 181.766323 295.538114 
L 183.555501 295.623906 
L 184.45009 295.552314 
L 185.344679 295.701414 
L 186.239269 295.596098 
L 188.028447 294.881367 
L 189.817625 294.759484 
L 191.606804 294.574885 
L 192.501393 294.184978 
L 194.290571 294.240003 
L 196.079749 294.13232 
L 197.868928 294.05777 
L 198.763517 294.528143 
L 204.131052 294.353602 
L 216.655301 293.596863 
L 217.54989 293.314048 
L 219.339068 293.138323 
L 220.233657 292.801666 
L 221.128246 292.651384 
L 222.917425 292.686883 
L 225.601192 292.806991 
L 226.495782 293.047799 
L 227.390371 292.884499 
L 228.28496 292.922366 
L 232.757906 292.228343 
L 233.652495 292.334843 
L 234.547084 291.936061 
L 235.441673 291.679279 
L 236.336263 291.613604 
L 237.230852 291.341438 
L 238.125441 291.215414 
L 239.914619 290.405425 
L 240.809208 289.652236 
L 241.703798 288.73989 
L 244.387565 286.669064 
L 246.176743 284.72663 
L 247.071333 284.524281 
L 247.965922 284.717755 
L 248.860511 284.337315 
L 249.7551 283.549218 
L 250.649689 283.267585 
L 253.333457 281.920365 
L 255.122635 279.808123 
L 256.017224 278.514153 
L 256.911814 276.597752 
L 257.806403 275.088416 
L 259.595581 273.069657 
L 260.49017 273.261356 
L 261.38476 271.949636 
L 262.279349 271.399388 
L 264.068527 271.177514 
L 264.963116 267.136446 
L 265.857705 256.918992 
L 266.752295 251.860853 
L 268.541473 243.309526 
L 269.436062 237.0225 
L 270.330651 232.942382 
L 271.22524 231.585104 
L 272.11983 237.554406 
L 273.014419 236.738501 
L 273.909008 235.146924 
L 274.803597 231.856086 
L 275.698186 231.005272 
L 276.592776 229.957435 
L 277.487365 229.36222 
L 278.381954 226.931071 
L 279.276543 224.07274 
L 280.171132 221.648099 
L 281.065721 217.52834 
L 281.960311 216.191178 
L 282.8549 213.294389 
L 283.749489 209.246812 
L 284.644078 207.584827 
L 285.538667 206.350023 
L 286.433257 205.429985 
L 287.327846 206.605622 
L 288.222435 205.524651 
L 289.117024 203.232543 
L 290.011613 203.881599 
L 290.906202 201.832073 
L 291.800792 202.979902 
L 292.695381 204.676204 
L 293.58997 204.39398 
L 294.484559 203.759124 
L 295.379148 204.420605 
L 296.273737 202.620762 
L 297.168327 204.207606 
L 298.062916 202.787611 
L 298.957505 202.554496 
L 299.852094 203.872132 
L 300.746683 198.35072 
L 301.641273 195.975778 
L 302.535862 194.849841 
L 303.430451 192.252434 
L 304.32504 192.244742 
L 305.219629 192.458333 
L 306.114218 194.435084 
L 307.008808 200.680103 
L 309.692575 212.711008 
L 310.587164 216.209519 
L 311.481754 221.387767 
L 312.376343 222.21373 
L 314.165521 228.646898 
L 315.06011 231.015922 
L 315.954699 234.865883 
L 316.849289 236.711876 
L 317.743878 235.451631 
L 318.638467 236.660401 
L 319.533056 238.244287 
L 320.427645 237.321882 
L 321.322234 237.518315 
L 322.216824 234.491359 
L 323.111413 233.078465 
L 324.006002 233.757695 
L 324.900591 233.516296 
L 326.68977 226.735822 
L 327.584359 223.208318 
L 328.478948 222.512521 
L 330.268126 215.581763 
L 331.162715 210.503507 
L 332.057305 201.972298 
L 332.951894 197.928271 
L 333.846483 194.643942 
L 334.741072 184.301055 
L 335.635661 176.549659 
L 336.530251 165.690842 
L 337.42484 157.362573 
L 338.319429 155.201223 
L 339.214018 152.705582 
L 340.108607 148.184674 
L 341.003196 150.307566 
L 341.897786 145.561825 
L 342.792375 135.898762 
L 343.686964 129.517069 
L 344.581553 119.543973 
L 346.370731 93.752728 
L 347.265321 80.351528 
L 348.15991 70.057158 
L 349.054499 65.453417 
L 349.949088 58.176536 
L 350.843677 60.113645 
L 351.738267 51.375944 
L 352.632856 50.066591 
L 353.527445 50.096174 
L 354.422034 57.560021 
L 356.211212 75.416454 
L 357.105802 77.745246 
L 358.000391 85.017985 
L 359.789569 105.688966 
L 360.684158 110.797397 
L 361.578747 118.002687 
L 362.473337 123.102834 
L 363.367926 129.486894 
L 364.262515 138.657693 
L 366.051693 148.351523 
L 366.946283 157.427656 
L 368.735461 173.32213 
L 369.63005 178.772543 
L 371.419228 191.46907 
L 372.313818 196.744351 
L 374.102996 200.788969 
L 374.997585 204.401672 
L 375.892174 209.162204 
L 376.786764 215.05814 
L 379.470531 223.790516 
L 380.36512 226.438806 
L 381.259709 230.100617 
L 382.154299 234.325102 
L 383.048888 236.67401 
L 384.838066 242.488888 
L 385.732655 245.05612 
L 386.627244 246.085024 
L 387.521834 246.260157 
L 388.416423 247.110379 
L 390.205601 250.671016 
L 391.10019 251.34433 
L 391.99478 250.826032 
L 392.889369 252.089827 
L 393.783958 253.734062 
L 394.678547 254.959991 
L 395.573136 257.033183 
L 396.467725 258.79161 
L 397.362315 261.039343 
L 398.256904 264.107715 
L 399.151493 265.349027 
L 400.940671 269.46997 
L 401.835261 270.99469 
L 402.72985 271.820061 
L 404.519028 272.767316 
L 406.308206 273.40868 
L 407.202796 273.302181 
L 408.097385 272.909907 
L 409.886563 273.539438 
L 410.781152 273.316381 
L 411.675741 273.595646 
L 412.570331 273.695046 
L 413.46492 273.961295 
L 414.359509 275.030433 
L 415.254098 274.999075 
L 416.148687 274.588459 
L 417.937866 274.388477 
L 419.727044 274.528701 
L 420.621633 273.709246 
L 422.410812 275.586006 
L 423.305401 275.993071 
L 425.094579 277.703573 
L 425.989168 278.734252 
L 426.883758 280.382038 
L 427.778347 280.643553 
L 428.672936 281.569508 
L 430.462114 283.671692 
L 432.251293 285.291669 
L 433.145882 290.180001 
L 434.040471 290.676408 
L 434.93506 291.011881 
L 435.829649 290.535 
L 436.724238 290.480567 
L 438.513417 290.853315 
L 439.408006 286.347199 
L 440.302595 286.570848 
L 441.197184 286.480915 
L 442.091774 286.838872 
L 444.775541 286.829997 
L 447.459309 287.062521 
L 448.353898 287.594427 
L 449.248487 287.499169 
L 454.616022 288.339333 
L 455.510611 288.776573 
L 456.4052 288.78959 
L 459.983557 288.484291 
L 461.772735 287.752994 
L 463.561914 287.644719 
L 464.456503 287.820443 
L 467.140271 287.963626 
L 468.03486 290.826099 
L 469.824038 290.891773 
L 471.613216 290.297151 
L 472.507806 290.198934 
L 473.402395 289.972327 
L 474.296984 287.147721 
L 476.086162 286.237741 
L 476.980752 285.453194 
L 477.875341 285.02897 
L 479.664519 283.881141 
L 480.559108 283.473485 
L 481.453697 282.719704 
L 482.348287 281.6553 
L 485.032054 277.729606 
L 485.032054 277.729606 
" style="fill:none;stroke:#8172b2;stroke-linecap:square;stroke-width:2;"/>
   </g>
   <g id="patch_3">
    <path d="M 43.105 297.1575 
L 43.105 25.3575 
" style="fill:none;stroke:#000000;stroke-linecap:square;stroke-linejoin:miter;stroke-width:0.8;"/>
   </g>
   <g id="patch_4">
    <path d="M 43.105 297.1575 
L 489.505 297.1575 
" style="fill:none;stroke:#000000;stroke-linecap:square;stroke-linejoin:miter;stroke-width:0.8;"/>
   </g>
   <g id="text_16">
    <!-- USA -->
    <g style="fill:#4c72b0;" transform="translate(490.032054 289.00565)scale(0.14 -0.14)">
     <defs>
      <path d="M 556 4666 
L 1191 4666 
L 1191 1831 
Q 1191 1081 1462 751 
Q 1734 422 2344 422 
Q 2950 422 3222 751 
Q 3494 1081 3494 1831 
L 3494 4666 
L 4128 4666 
L 4128 1753 
Q 4128 841 3676 375 
Q 3225 -91 2344 -91 
Q 1459 -91 1007 375 
Q 556 841 556 1753 
L 556 4666 
z
" id="DejaVuSans-55" transform="scale(0.015625)"/>
      <path d="M 3425 4513 
L 3425 3897 
Q 3066 4069 2747 4153 
Q 2428 4238 2131 4238 
Q 1616 4238 1336 4038 
Q 1056 3838 1056 3469 
Q 1056 3159 1242 3001 
Q 1428 2844 1947 2747 
L 2328 2669 
Q 3034 2534 3370 2195 
Q 3706 1856 3706 1288 
Q 3706 609 3251 259 
Q 2797 -91 1919 -91 
Q 1588 -91 1214 -16 
Q 841 59 441 206 
L 441 856 
Q 825 641 1194 531 
Q 1563 422 1919 422 
Q 2459 422 2753 634 
Q 3047 847 3047 1241 
Q 3047 1584 2836 1778 
Q 2625 1972 2144 2069 
L 1759 2144 
Q 1053 2284 737 2584 
Q 422 2884 422 3419 
Q 422 4038 858 4394 
Q 1294 4750 2059 4750 
Q 2388 4750 2728 4690 
Q 3069 4631 3425 4513 
z
" id="DejaVuSans-53" transform="scale(0.015625)"/>
     </defs>
     <use xlink:href="#DejaVuSans-55"/>
     <use x="73.193359" xlink:href="#DejaVuSans-53"/>
     <use x="138.544922" xlink:href="#DejaVuSans-41"/>
    </g>
   </g>
   <g id="text_17">
    <!-- Italy -->
    <g style="fill:#55a868;" transform="translate(490.032054 290.385846)scale(0.14 -0.14)">
     <defs>
      <path d="M 628 4666 
L 1259 4666 
L 1259 0 
L 628 0 
L 628 4666 
z
" id="DejaVuSans-49" transform="scale(0.015625)"/>
      <path d="M 2059 -325 
Q 1816 -950 1584 -1140 
Q 1353 -1331 966 -1331 
L 506 -1331 
L 506 -850 
L 844 -850 
Q 1081 -850 1212 -737 
Q 1344 -625 1503 -206 
L 1606 56 
L 191 3500 
L 800 3500 
L 1894 763 
L 2988 3500 
L 3597 3500 
L 2059 -325 
z
" id="DejaVuSans-79" transform="scale(0.015625)"/>
     </defs>
     <use xlink:href="#DejaVuSans-49"/>
     <use x="29.492188" xlink:href="#DejaVuSans-74"/>
     <use x="68.701172" xlink:href="#DejaVuSans-61"/>
     <use x="129.980469" xlink:href="#DejaVuSans-6c"/>
     <use x="157.763672" xlink:href="#DejaVuSans-79"/>
    </g>
   </g>
   <g id="text_18">
    <!-- Germany -->
    <g style="fill:#c44e52;" transform="translate(490.032054 291.081443)scale(0.14 -0.14)">
     <defs>
      <path d="M 3809 666 
L 3809 1919 
L 2778 1919 
L 2778 2438 
L 4434 2438 
L 4434 434 
Q 4069 175 3628 42 
Q 3188 -91 2688 -91 
Q 1594 -91 976 548 
Q 359 1188 359 2328 
Q 359 3472 976 4111 
Q 1594 4750 2688 4750 
Q 3144 4750 3555 4637 
Q 3966 4525 4313 4306 
L 4313 3634 
Q 3963 3931 3569 4081 
Q 3175 4231 2741 4231 
Q 1884 4231 1454 3753 
Q 1025 3275 1025 2328 
Q 1025 1384 1454 906 
Q 1884 428 2741 428 
Q 3075 428 3337 486 
Q 3600 544 3809 666 
z
" id="DejaVuSans-47" transform="scale(0.015625)"/>
      <path d="M 3597 1894 
L 3597 1613 
L 953 1613 
Q 991 1019 1311 708 
Q 1631 397 2203 397 
Q 2534 397 2845 478 
Q 3156 559 3463 722 
L 3463 178 
Q 3153 47 2828 -22 
Q 2503 -91 2169 -91 
Q 1331 -91 842 396 
Q 353 884 353 1716 
Q 353 2575 817 3079 
Q 1281 3584 2069 3584 
Q 2775 3584 3186 3129 
Q 3597 2675 3597 1894 
z
M 3022 2063 
Q 3016 2534 2758 2815 
Q 2500 3097 2075 3097 
Q 1594 3097 1305 2825 
Q 1016 2553 972 2059 
L 3022 2063 
z
" id="DejaVuSans-65" transform="scale(0.015625)"/>
      <path d="M 3328 2828 
Q 3544 3216 3844 3400 
Q 4144 3584 4550 3584 
Q 5097 3584 5394 3201 
Q 5691 2819 5691 2113 
L 5691 0 
L 5113 0 
L 5113 2094 
Q 5113 2597 4934 2840 
Q 4756 3084 4391 3084 
Q 3944 3084 3684 2787 
Q 3425 2491 3425 1978 
L 3425 0 
L 2847 0 
L 2847 2094 
Q 2847 2600 2669 2842 
Q 2491 3084 2119 3084 
Q 1678 3084 1418 2786 
Q 1159 2488 1159 1978 
L 1159 0 
L 581 0 
L 581 3500 
L 1159 3500 
L 1159 2956 
Q 1356 3278 1631 3431 
Q 1906 3584 2284 3584 
Q 2666 3584 2933 3390 
Q 3200 3197 3328 2828 
z
" id="DejaVuSans-6d" transform="scale(0.015625)"/>
     </defs>
     <use xlink:href="#DejaVuSans-47"/>
     <use x="77.490234" xlink:href="#DejaVuSans-65"/>
     <use x="139.013672" xlink:href="#DejaVuSans-72"/>
     <use x="178.376953" xlink:href="#DejaVuSans-6d"/>
     <use x="275.789062" xlink:href="#DejaVuSans-61"/>
     <use x="337.068359" xlink:href="#DejaVuSans-6e"/>
     <use x="400.447266" xlink:href="#DejaVuSans-79"/>
    </g>
   </g>
   <g id="text_19">
    <!-- UK -->
    <g style="fill:#8172b2;" transform="translate(490.032054 281.729606)scale(0.14 -0.14)">
     <defs>
      <path d="M 628 4666 
L 1259 4666 
L 1259 2694 
L 3353 4666 
L 4166 4666 
L 1850 2491 
L 4331 0 
L 3500 0 
L 1259 2247 
L 1259 0 
L 628 0 
L 628 4666 
z
" id="DejaVuSans-4b" transform="scale(0.015625)"/>
     </defs>
     <use xlink:href="#DejaVuSans-55"/>
     <use x="73.193359" xlink:href="#DejaVuSans-4b"/>
    </g>
   </g>
   <g id="text_20">
    <!-- Cases per million people -->
    <g style="fill:#262626;" transform="translate(167.87375 19.3575)scale(0.16 -0.16)">
     <defs>
      <path d="M 4122 4306 
L 4122 3641 
Q 3803 3938 3442 4084 
Q 3081 4231 2675 4231 
Q 1875 4231 1450 3742 
Q 1025 3253 1025 2328 
Q 1025 1406 1450 917 
Q 1875 428 2675 428 
Q 3081 428 3442 575 
Q 3803 722 4122 1019 
L 4122 359 
Q 3791 134 3420 21 
Q 3050 -91 2638 -91 
Q 1578 -91 968 557 
Q 359 1206 359 2328 
Q 359 3453 968 4101 
Q 1578 4750 2638 4750 
Q 3056 4750 3426 4639 
Q 3797 4528 4122 4306 
z
" id="DejaVuSans-43" transform="scale(0.015625)"/>
      <path d="M 2834 3397 
L 2834 2853 
Q 2591 2978 2328 3040 
Q 2066 3103 1784 3103 
Q 1356 3103 1142 2972 
Q 928 2841 928 2578 
Q 928 2378 1081 2264 
Q 1234 2150 1697 2047 
L 1894 2003 
Q 2506 1872 2764 1633 
Q 3022 1394 3022 966 
Q 3022 478 2636 193 
Q 2250 -91 1575 -91 
Q 1294 -91 989 -36 
Q 684 19 347 128 
L 347 722 
Q 666 556 975 473 
Q 1284 391 1588 391 
Q 1994 391 2212 530 
Q 2431 669 2431 922 
Q 2431 1156 2273 1281 
Q 2116 1406 1581 1522 
L 1381 1569 
Q 847 1681 609 1914 
Q 372 2147 372 2553 
Q 372 3047 722 3315 
Q 1072 3584 1716 3584 
Q 2034 3584 2315 3537 
Q 2597 3491 2834 3397 
z
" id="DejaVuSans-73" transform="scale(0.015625)"/>
      <path id="DejaVuSans-20" transform="scale(0.015625)"/>
      <path d="M 603 3500 
L 1178 3500 
L 1178 0 
L 603 0 
L 603 3500 
z
M 603 4863 
L 1178 4863 
L 1178 4134 
L 603 4134 
L 603 4863 
z
" id="DejaVuSans-69" transform="scale(0.015625)"/>
      <path d="M 1959 3097 
Q 1497 3097 1228 2736 
Q 959 2375 959 1747 
Q 959 1119 1226 758 
Q 1494 397 1959 397 
Q 2419 397 2687 759 
Q 2956 1122 2956 1747 
Q 2956 2369 2687 2733 
Q 2419 3097 1959 3097 
z
M 1959 3584 
Q 2709 3584 3137 3096 
Q 3566 2609 3566 1747 
Q 3566 888 3137 398 
Q 2709 -91 1959 -91 
Q 1206 -91 779 398 
Q 353 888 353 1747 
Q 353 2609 779 3096 
Q 1206 3584 1959 3584 
z
" id="DejaVuSans-6f" transform="scale(0.015625)"/>
     </defs>
     <use xlink:href="#DejaVuSans-43"/>
     <use x="69.824219" xlink:href="#DejaVuSans-61"/>
     <use x="131.103516" xlink:href="#DejaVuSans-73"/>
     <use x="183.203125" xlink:href="#DejaVuSans-65"/>
     <use x="244.726562" xlink:href="#DejaVuSans-73"/>
     <use x="296.826172" xlink:href="#DejaVuSans-20"/>
     <use x="328.613281" xlink:href="#DejaVuSans-70"/>
     <use x="392.089844" xlink:href="#DejaVuSans-65"/>
     <use x="453.613281" xlink:href="#DejaVuSans-72"/>
     <use x="494.726562" xlink:href="#DejaVuSans-20"/>
     <use x="526.513672" xlink:href="#DejaVuSans-6d"/>
     <use x="623.925781" xlink:href="#DejaVuSans-69"/>
     <use x="651.708984" xlink:href="#DejaVuSans-6c"/>
     <use x="679.492188" xlink:href="#DejaVuSans-6c"/>
     <use x="707.275391" xlink:href="#DejaVuSans-69"/>
     <use x="735.058594" xlink:href="#DejaVuSans-6f"/>
     <use x="796.240234" xlink:href="#DejaVuSans-6e"/>
     <use x="859.619141" xlink:href="#DejaVuSans-20"/>
     <use x="891.40625" xlink:href="#DejaVuSans-70"/>
     <use x="954.882812" xlink:href="#DejaVuSans-65"/>
     <use x="1016.40625" xlink:href="#DejaVuSans-6f"/>
     <use x="1077.587891" xlink:href="#DejaVuSans-70"/>
     <use x="1141.064453" xlink:href="#DejaVuSans-6c"/>
     <use x="1168.847656" xlink:href="#DejaVuSans-65"/>
    </g>
   </g>
   <g id="legend_1"/>
   <g id="PathCollection_1">
    <defs>
     <path d="M 0 2.236068 
C 0.593012 2.236068 1.161816 2.000462 1.581139 1.581139 
C 2.000462 1.161816 2.236068 0.593012 2.236068 -0 
C 2.236068 -0.593012 2.000462 -1.161816 1.581139 -1.581139 
C 1.161816 -2.000462 0.593012 -2.236068 0 -2.236068 
C -0.593012 -2.236068 -1.161816 -2.000462 -1.581139 -1.581139 
C -2.000462 -1.161816 -2.236068 -0.593012 -2.236068 0 
C -2.236068 0.593012 -2.000462 1.161816 -1.581139 1.581139 
C -1.161816 2.000462 -0.593012 2.236068 0 2.236068 
z
" id="C0_0_f2deaa1305"/>
    </defs>
    <g clip-path="url(#pebfb8b8b7e)">
     <use style="fill:#4c72b0;stroke:#4c72b0;" x="485.032054" xlink:href="#C0_0_f2deaa1305" y="285.00565"/>
    </g>
    <g clip-path="url(#pebfb8b8b7e)">
     <use style="fill:#55a868;stroke:#55a868;" x="485.032054" xlink:href="#C0_0_f2deaa1305" y="286.385846"/>
    </g>
    <g clip-path="url(#pebfb8b8b7e)">
     <use style="fill:#c44e52;stroke:#c44e52;" x="485.032054" xlink:href="#C0_0_f2deaa1305" y="287.081443"/>
    </g>
    <g clip-path="url(#pebfb8b8b7e)">
     <use style="fill:#8172b2;stroke:#8172b2;" x="485.032054" xlink:href="#C0_0_f2deaa1305" y="277.729606"/>
    </g>
   </g>
  </g>
 </g>
 <defs>
  <clipPath id="pebfb8b8b7e">
   <rect height="271.8" width="446.4" x="43.105" y="25.3575"/>
  </clipPath>
 </defs>
</svg>
