<?xml version="1.0" encoding="utf-8" standalone="no"?>
<!DOCTYPE svg PUBLIC "-//W3C//DTD SVG 1.1//EN"
  "http://www.w3.org/Graphics/SVG/1.1/DTD/svg11.dtd">
<!-- Created with matplotlib (https://matplotlib.org/) -->
<svg height="342.408625pt" version="1.1" viewBox="0 0 588.410875 342.408625" width="588.410875pt" xmlns="http://www.w3.org/2000/svg" xmlns:xlink="http://www.w3.org/1999/xlink">
 <defs>
  <style type="text/css">
*{stroke-linecap:butt;stroke-linejoin:round;}
  </style>
 </defs>
 <g id="figure_1">
  <g id="patch_1">
   <path d="M 0 342.408625 
L 588.410875 342.408625 
L 588.410875 0 
L 0 0 
z
" style="fill:#ffffff;"/>
  </g>
  <g id="axes_1">
   <g id="patch_2">
    <path d="M 35.47 297.1575 
L 481.87 297.1575 
L 481.87 25.3575 
L 35.47 25.3575 
z
" style="fill:#ffffff;"/>
   </g>
   <g id="matplotlib.axis_1">
    <g id="xtick_1">
     <g id="line2d_1">
      <defs>
       <path d="M 0 0 
L 0 6 
" id="mc06c0fcb03" style="stroke:#262626;"/>
      </defs>
      <g>
       <use style="fill:#262626;stroke:#262626;" x="35.47" xlink:href="#mc06c0fcb03" y="297.1575"/>
      </g>
     </g>
    </g>
    <g id="xtick_2">
     <g id="line2d_2">
      <g>
       <use style="fill:#262626;stroke:#262626;" x="89.038" xlink:href="#mc06c0fcb03" y="297.1575"/>
      </g>
     </g>
     <g id="text_1">
      <!-- Mar -->
      <defs>
       <path d="M 9.8125 72.90625 
L 24.515625 72.90625 
L 43.109375 23.296875 
L 61.8125 72.90625 
L 76.515625 72.90625 
L 76.515625 0 
L 66.890625 0 
L 66.890625 64.015625 
L 48.09375 14.015625 
L 38.1875 14.015625 
L 19.390625 64.015625 
L 19.390625 0 
L 9.8125 0 
z
" id="DejaVuSans-77"/>
       <path d="M 34.28125 27.484375 
Q 23.390625 27.484375 19.1875 25 
Q 14.984375 22.515625 14.984375 16.5 
Q 14.984375 11.71875 18.140625 8.90625 
Q 21.296875 6.109375 26.703125 6.109375 
Q 34.1875 6.109375 38.703125 11.40625 
Q 43.21875 16.703125 43.21875 25.484375 
L 43.21875 27.484375 
z
M 52.203125 31.203125 
L 52.203125 0 
L 43.21875 0 
L 43.21875 8.296875 
Q 40.140625 3.328125 35.546875 0.953125 
Q 30.953125 -1.421875 24.3125 -1.421875 
Q 15.921875 -1.421875 10.953125 3.296875 
Q 6 8.015625 6 15.921875 
Q 6 25.140625 12.171875 29.828125 
Q 18.359375 34.515625 30.609375 34.515625 
L 43.21875 34.515625 
L 43.21875 35.40625 
Q 43.21875 41.609375 39.140625 45 
Q 35.0625 48.390625 27.6875 48.390625 
Q 23 48.390625 18.546875 47.265625 
Q 14.109375 46.140625 10.015625 43.890625 
L 10.015625 52.203125 
Q 14.9375 54.109375 19.578125 55.046875 
Q 24.21875 56 28.609375 56 
Q 40.484375 56 46.34375 49.84375 
Q 52.203125 43.703125 52.203125 31.203125 
z
" id="DejaVuSans-97"/>
       <path d="M 41.109375 46.296875 
Q 39.59375 47.171875 37.8125 47.578125 
Q 36.03125 48 33.890625 48 
Q 26.265625 48 22.1875 43.046875 
Q 18.109375 38.09375 18.109375 28.8125 
L 18.109375 0 
L 9.078125 0 
L 9.078125 54.6875 
L 18.109375 54.6875 
L 18.109375 46.1875 
Q 20.953125 51.171875 25.484375 53.578125 
Q 30.03125 56 36.53125 56 
Q 37.453125 56 38.578125 55.875 
Q 39.703125 55.765625 41.0625 55.515625 
z
" id="DejaVuSans-114"/>
      </defs>
      <g style="fill:#262626;" transform="translate(77.717688 319.275625)scale(0.12 -0.12)">
       <use xlink:href="#DejaVuSans-77"/>
       <use x="86.279297" xlink:href="#DejaVuSans-97"/>
       <use x="147.558594" xlink:href="#DejaVuSans-114"/>
      </g>
      <!-- 2020 -->
      <defs>
       <path d="M 19.1875 8.296875 
L 53.609375 8.296875 
L 53.609375 0 
L 7.328125 0 
L 7.328125 8.296875 
Q 12.9375 14.109375 22.625 23.890625 
Q 32.328125 33.6875 34.8125 36.53125 
Q 39.546875 41.84375 41.421875 45.53125 
Q 43.3125 49.21875 43.3125 52.78125 
Q 43.3125 58.59375 39.234375 62.25 
Q 35.15625 65.921875 28.609375 65.921875 
Q 23.96875 65.921875 18.8125 64.3125 
Q 13.671875 62.703125 7.8125 59.421875 
L 7.8125 69.390625 
Q 13.765625 71.78125 18.9375 73 
Q 24.125 74.21875 28.421875 74.21875 
Q 39.75 74.21875 46.484375 68.546875 
Q 53.21875 62.890625 53.21875 53.421875 
Q 53.21875 48.921875 51.53125 44.890625 
Q 49.859375 40.875 45.40625 35.40625 
Q 44.1875 33.984375 37.640625 27.21875 
Q 31.109375 20.453125 19.1875 8.296875 
z
" id="DejaVuSans-50"/>
       <path d="M 31.78125 66.40625 
Q 24.171875 66.40625 20.328125 58.90625 
Q 16.5 51.421875 16.5 36.375 
Q 16.5 21.390625 20.328125 13.890625 
Q 24.171875 6.390625 31.78125 6.390625 
Q 39.453125 6.390625 43.28125 13.890625 
Q 47.125 21.390625 47.125 36.375 
Q 47.125 51.421875 43.28125 58.90625 
Q 39.453125 66.40625 31.78125 66.40625 
z
M 31.78125 74.21875 
Q 44.046875 74.21875 50.515625 64.515625 
Q 56.984375 54.828125 56.984375 36.375 
Q 56.984375 17.96875 50.515625 8.265625 
Q 44.046875 -1.421875 31.78125 -1.421875 
Q 19.53125 -1.421875 13.0625 8.265625 
Q 6.59375 17.96875 6.59375 36.375 
Q 6.59375 54.828125 13.0625 64.515625 
Q 19.53125 74.21875 31.78125 74.21875 
z
" id="DejaVuSans-48"/>
      </defs>
      <g style="fill:#262626;" transform="translate(73.768 332.713)scale(0.12 -0.12)">
       <use xlink:href="#DejaVuSans-50"/>
       <use x="63.623047" xlink:href="#DejaVuSans-48"/>
       <use x="127.246094" xlink:href="#DejaVuSans-50"/>
       <use x="190.869141" xlink:href="#DejaVuSans-48"/>
      </g>
     </g>
    </g>
    <g id="xtick_3">
     <g id="line2d_3">
      <g>
       <use style="fill:#262626;stroke:#262626;" x="199.7452" xlink:href="#mc06c0fcb03" y="297.1575"/>
      </g>
     </g>
     <g id="text_2">
      <!-- Apr -->
      <defs>
       <path d="M 34.1875 63.1875 
L 20.796875 26.90625 
L 47.609375 26.90625 
z
M 28.609375 72.90625 
L 39.796875 72.90625 
L 67.578125 0 
L 57.328125 0 
L 50.6875 18.703125 
L 17.828125 18.703125 
L 11.1875 0 
L 0.78125 0 
z
" id="DejaVuSans-65"/>
       <path d="M 18.109375 8.203125 
L 18.109375 -20.796875 
L 9.078125 -20.796875 
L 9.078125 54.6875 
L 18.109375 54.6875 
L 18.109375 46.390625 
Q 20.953125 51.265625 25.265625 53.625 
Q 29.59375 56 35.59375 56 
Q 45.5625 56 51.78125 48.09375 
Q 58.015625 40.1875 58.015625 27.296875 
Q 58.015625 14.40625 51.78125 6.484375 
Q 45.5625 -1.421875 35.59375 -1.421875 
Q 29.59375 -1.421875 25.265625 0.953125 
Q 20.953125 3.328125 18.109375 8.203125 
z
M 48.6875 27.296875 
Q 48.6875 37.203125 44.609375 42.84375 
Q 40.53125 48.484375 33.40625 48.484375 
Q 26.265625 48.484375 22.1875 42.84375 
Q 18.109375 37.203125 18.109375 27.296875 
Q 18.109375 17.390625 22.1875 11.75 
Q 26.265625 6.109375 33.40625 6.109375 
Q 40.53125 6.109375 44.609375 11.75 
Q 48.6875 17.390625 48.6875 27.296875 
z
" id="DejaVuSans-112"/>
      </defs>
      <g style="fill:#262626;" transform="translate(189.3652 319.275625)scale(0.12 -0.12)">
       <use xlink:href="#DejaVuSans-65"/>
       <use x="68.408203" xlink:href="#DejaVuSans-112"/>
       <use x="131.884766" xlink:href="#DejaVuSans-114"/>
      </g>
     </g>
    </g>
    <g id="xtick_4">
     <g id="line2d_4">
      <g>
       <use style="fill:#262626;stroke:#262626;" x="306.8812" xlink:href="#mc06c0fcb03" y="297.1575"/>
      </g>
     </g>
     <g id="text_3">
      <!-- May -->
      <defs>
       <path d="M 32.171875 -5.078125 
Q 28.375 -14.84375 24.75 -17.8125 
Q 21.140625 -20.796875 15.09375 -20.796875 
L 7.90625 -20.796875 
L 7.90625 -13.28125 
L 13.1875 -13.28125 
Q 16.890625 -13.28125 18.9375 -11.515625 
Q 21 -9.765625 23.484375 -3.21875 
L 25.09375 0.875 
L 2.984375 54.6875 
L 12.5 54.6875 
L 29.59375 11.921875 
L 46.6875 54.6875 
L 56.203125 54.6875 
z
" id="DejaVuSans-121"/>
      </defs>
      <g style="fill:#262626;" transform="translate(294.4762 319.275625)scale(0.12 -0.12)">
       <use xlink:href="#DejaVuSans-77"/>
       <use x="86.279297" xlink:href="#DejaVuSans-97"/>
       <use x="147.558594" xlink:href="#DejaVuSans-121"/>
      </g>
     </g>
    </g>
    <g id="xtick_5">
     <g id="line2d_5">
      <g>
       <use style="fill:#262626;stroke:#262626;" x="417.5884" xlink:href="#mc06c0fcb03" y="297.1575"/>
      </g>
     </g>
     <g id="text_4">
      <!-- Jun -->
      <defs>
       <path d="M 9.8125 72.90625 
L 19.671875 72.90625 
L 19.671875 5.078125 
Q 19.671875 -8.109375 14.671875 -14.0625 
Q 9.671875 -20.015625 -1.421875 -20.015625 
L -5.171875 -20.015625 
L -5.171875 -11.71875 
L -2.09375 -11.71875 
Q 4.4375 -11.71875 7.125 -8.046875 
Q 9.8125 -4.390625 9.8125 5.078125 
z
" id="DejaVuSans-74"/>
       <path d="M 8.5 21.578125 
L 8.5 54.6875 
L 17.484375 54.6875 
L 17.484375 21.921875 
Q 17.484375 14.15625 20.5 10.265625 
Q 23.53125 6.390625 29.59375 6.390625 
Q 36.859375 6.390625 41.078125 11.03125 
Q 45.3125 15.671875 45.3125 23.6875 
L 45.3125 54.6875 
L 54.296875 54.6875 
L 54.296875 0 
L 45.3125 0 
L 45.3125 8.40625 
Q 42.046875 3.421875 37.71875 1 
Q 33.40625 -1.421875 27.6875 -1.421875 
Q 18.265625 -1.421875 13.375 4.4375 
Q 8.5 10.296875 8.5 21.578125 
z
M 31.109375 56 
z
" id="DejaVuSans-117"/>
       <path d="M 54.890625 33.015625 
L 54.890625 0 
L 45.90625 0 
L 45.90625 32.71875 
Q 45.90625 40.484375 42.875 44.328125 
Q 39.84375 48.1875 33.796875 48.1875 
Q 26.515625 48.1875 22.3125 43.546875 
Q 18.109375 38.921875 18.109375 30.90625 
L 18.109375 0 
L 9.078125 0 
L 9.078125 54.6875 
L 18.109375 54.6875 
L 18.109375 46.1875 
Q 21.34375 51.125 25.703125 53.5625 
Q 30.078125 56 35.796875 56 
Q 45.21875 56 50.046875 50.171875 
Q 54.890625 44.34375 54.890625 33.015625 
z
" id="DejaVuSans-110"/>
      </defs>
      <g style="fill:#262626;" transform="translate(408.2134 319.275625)scale(0.12 -0.12)">
       <use xlink:href="#DejaVuSans-74"/>
       <use x="29.492188" xlink:href="#DejaVuSans-117"/>
       <use x="92.871094" xlink:href="#DejaVuSans-110"/>
      </g>
     </g>
    </g>
    <g id="xtick_6">
     <g id="line2d_6">
      <g>
       <use style="fill:#262626;stroke:#262626;" x="481.87" xlink:href="#mc06c0fcb03" y="297.1575"/>
      </g>
     </g>
    </g>
    <g id="xtick_7">
     <g id="line2d_7">
      <defs>
       <path d="M 0 0 
L 0 3 
" id="m58170b0a21" style="stroke:#262626;stroke-width:0.5;"/>
      </defs>
      <g>
       <use style="fill:#262626;stroke:#262626;stroke-width:0.5;" x="42.6124" xlink:href="#m58170b0a21" y="297.1575"/>
      </g>
     </g>
    </g>
    <g id="xtick_8">
     <g id="line2d_8">
      <g>
       <use style="fill:#262626;stroke:#262626;stroke-width:0.5;" x="67.6108" xlink:href="#m58170b0a21" y="297.1575"/>
      </g>
     </g>
    </g>
    <g id="xtick_9">
     <g id="line2d_9">
      <g>
       <use style="fill:#262626;stroke:#262626;stroke-width:0.5;" x="92.6092" xlink:href="#m58170b0a21" y="297.1575"/>
      </g>
     </g>
    </g>
    <g id="xtick_10">
     <g id="line2d_10">
      <g>
       <use style="fill:#262626;stroke:#262626;stroke-width:0.5;" x="117.6076" xlink:href="#m58170b0a21" y="297.1575"/>
      </g>
     </g>
    </g>
    <g id="xtick_11">
     <g id="line2d_11">
      <g>
       <use style="fill:#262626;stroke:#262626;stroke-width:0.5;" x="142.606" xlink:href="#m58170b0a21" y="297.1575"/>
      </g>
     </g>
    </g>
    <g id="xtick_12">
     <g id="line2d_12">
      <g>
       <use style="fill:#262626;stroke:#262626;stroke-width:0.5;" x="167.6044" xlink:href="#m58170b0a21" y="297.1575"/>
      </g>
     </g>
    </g>
    <g id="xtick_13">
     <g id="line2d_13">
      <g>
       <use style="fill:#262626;stroke:#262626;stroke-width:0.5;" x="192.6028" xlink:href="#m58170b0a21" y="297.1575"/>
      </g>
     </g>
    </g>
    <g id="xtick_14">
     <g id="line2d_14">
      <g>
       <use style="fill:#262626;stroke:#262626;stroke-width:0.5;" x="217.6012" xlink:href="#m58170b0a21" y="297.1575"/>
      </g>
     </g>
    </g>
    <g id="xtick_15">
     <g id="line2d_15">
      <g>
       <use style="fill:#262626;stroke:#262626;stroke-width:0.5;" x="242.5996" xlink:href="#m58170b0a21" y="297.1575"/>
      </g>
     </g>
    </g>
    <g id="xtick_16">
     <g id="line2d_16">
      <g>
       <use style="fill:#262626;stroke:#262626;stroke-width:0.5;" x="267.598" xlink:href="#m58170b0a21" y="297.1575"/>
      </g>
     </g>
    </g>
    <g id="xtick_17">
     <g id="line2d_17">
      <g>
       <use style="fill:#262626;stroke:#262626;stroke-width:0.5;" x="292.5964" xlink:href="#m58170b0a21" y="297.1575"/>
      </g>
     </g>
    </g>
    <g id="xtick_18">
     <g id="line2d_18">
      <g>
       <use style="fill:#262626;stroke:#262626;stroke-width:0.5;" x="317.5948" xlink:href="#m58170b0a21" y="297.1575"/>
      </g>
     </g>
    </g>
    <g id="xtick_19">
     <g id="line2d_19">
      <g>
       <use style="fill:#262626;stroke:#262626;stroke-width:0.5;" x="342.5932" xlink:href="#m58170b0a21" y="297.1575"/>
      </g>
     </g>
    </g>
    <g id="xtick_20">
     <g id="line2d_20">
      <g>
       <use style="fill:#262626;stroke:#262626;stroke-width:0.5;" x="367.5916" xlink:href="#m58170b0a21" y="297.1575"/>
      </g>
     </g>
    </g>
    <g id="xtick_21">
     <g id="line2d_21">
      <g>
       <use style="fill:#262626;stroke:#262626;stroke-width:0.5;" x="392.59" xlink:href="#m58170b0a21" y="297.1575"/>
      </g>
     </g>
    </g>
    <g id="xtick_22">
     <g id="line2d_22">
      <g>
       <use style="fill:#262626;stroke:#262626;stroke-width:0.5;" x="442.5868" xlink:href="#m58170b0a21" y="297.1575"/>
      </g>
     </g>
    </g>
    <g id="xtick_23">
     <g id="line2d_23">
      <g>
       <use style="fill:#262626;stroke:#262626;stroke-width:0.5;" x="467.5852" xlink:href="#m58170b0a21" y="297.1575"/>
      </g>
     </g>
    </g>
   </g>
   <g id="matplotlib.axis_2">
    <g id="ytick_1">
     <g id="line2d_24">
      <path clip-path="url(#pbfc25a2d65)" d="M 35.47 297.1575 
L 481.87 297.1575 
" style="fill:none;stroke:#b0b0b0;stroke-linecap:square;stroke-opacity:0.3;"/>
     </g>
     <g id="line2d_25">
      <defs>
       <path d="M 0 0 
L -6 0 
" id="m8a286c6104" style="stroke:#262626;"/>
      </defs>
      <g>
       <use style="fill:#262626;stroke:#262626;" x="35.47" xlink:href="#m8a286c6104" y="297.1575"/>
      </g>
     </g>
     <g id="text_5">
      <!-- 0 -->
      <g style="fill:#262626;" transform="translate(14.835 301.716562)scale(0.12 -0.12)">
       <use xlink:href="#DejaVuSans-48"/>
      </g>
     </g>
    </g>
    <g id="ytick_2">
     <g id="line2d_26">
      <path clip-path="url(#pbfc25a2d65)" d="M 35.47 249.439063 
L 481.87 249.439063 
" style="fill:none;stroke:#b0b0b0;stroke-linecap:square;stroke-opacity:0.3;"/>
     </g>
     <g id="line2d_27">
      <g>
       <use style="fill:#262626;stroke:#262626;" x="35.47" xlink:href="#m8a286c6104" y="249.439063"/>
      </g>
     </g>
     <g id="text_6">
      <!-- 5 -->
      <defs>
       <path d="M 10.796875 72.90625 
L 49.515625 72.90625 
L 49.515625 64.59375 
L 19.828125 64.59375 
L 19.828125 46.734375 
Q 21.96875 47.46875 24.109375 47.828125 
Q 26.265625 48.1875 28.421875 48.1875 
Q 40.625 48.1875 47.75 41.5 
Q 54.890625 34.8125 54.890625 23.390625 
Q 54.890625 11.625 47.5625 5.09375 
Q 40.234375 -1.421875 26.90625 -1.421875 
Q 22.3125 -1.421875 17.546875 -0.640625 
Q 12.796875 0.140625 7.71875 1.703125 
L 7.71875 11.625 
Q 12.109375 9.234375 16.796875 8.0625 
Q 21.484375 6.890625 26.703125 6.890625 
Q 35.15625 6.890625 40.078125 11.328125 
Q 45.015625 15.765625 45.015625 23.390625 
Q 45.015625 31 40.078125 35.4375 
Q 35.15625 39.890625 26.703125 39.890625 
Q 22.75 39.890625 18.8125 39.015625 
Q 14.890625 38.140625 10.796875 36.28125 
z
" id="DejaVuSans-53"/>
      </defs>
      <g style="fill:#262626;" transform="translate(14.835 253.998125)scale(0.12 -0.12)">
       <use xlink:href="#DejaVuSans-53"/>
      </g>
     </g>
    </g>
    <g id="ytick_3">
     <g id="line2d_28">
      <path clip-path="url(#pbfc25a2d65)" d="M 35.47 201.720625 
L 481.87 201.720625 
" style="fill:none;stroke:#b0b0b0;stroke-linecap:square;stroke-opacity:0.3;"/>
     </g>
     <g id="line2d_29">
      <g>
       <use style="fill:#262626;stroke:#262626;" x="35.47" xlink:href="#m8a286c6104" y="201.720625"/>
      </g>
     </g>
     <g id="text_7">
      <!-- 10 -->
      <defs>
       <path d="M 12.40625 8.296875 
L 28.515625 8.296875 
L 28.515625 63.921875 
L 10.984375 60.40625 
L 10.984375 69.390625 
L 28.421875 72.90625 
L 38.28125 72.90625 
L 38.28125 8.296875 
L 54.390625 8.296875 
L 54.390625 0 
L 12.40625 0 
z
" id="DejaVuSans-49"/>
      </defs>
      <g style="fill:#262626;" transform="translate(7.2 206.279688)scale(0.12 -0.12)">
       <use xlink:href="#DejaVuSans-49"/>
       <use x="63.623047" xlink:href="#DejaVuSans-48"/>
      </g>
     </g>
    </g>
    <g id="ytick_4">
     <g id="line2d_30">
      <path clip-path="url(#pbfc25a2d65)" d="M 35.47 154.002188 
L 481.87 154.002188 
" style="fill:none;stroke:#b0b0b0;stroke-linecap:square;stroke-opacity:0.3;"/>
     </g>
     <g id="line2d_31">
      <g>
       <use style="fill:#262626;stroke:#262626;" x="35.47" xlink:href="#m8a286c6104" y="154.002188"/>
      </g>
     </g>
     <g id="text_8">
      <!-- 15 -->
      <g style="fill:#262626;" transform="translate(7.2 158.56125)scale(0.12 -0.12)">
       <use xlink:href="#DejaVuSans-49"/>
       <use x="63.623047" xlink:href="#DejaVuSans-53"/>
      </g>
     </g>
    </g>
    <g id="ytick_5">
     <g id="line2d_32">
      <path clip-path="url(#pbfc25a2d65)" d="M 35.47 106.28375 
L 481.87 106.28375 
" style="fill:none;stroke:#b0b0b0;stroke-linecap:square;stroke-opacity:0.3;"/>
     </g>
     <g id="line2d_33">
      <g>
       <use style="fill:#262626;stroke:#262626;" x="35.47" xlink:href="#m8a286c6104" y="106.28375"/>
      </g>
     </g>
     <g id="text_9">
      <!-- 20 -->
      <g style="fill:#262626;" transform="translate(7.2 110.842813)scale(0.12 -0.12)">
       <use xlink:href="#DejaVuSans-50"/>
       <use x="63.623047" xlink:href="#DejaVuSans-48"/>
      </g>
     </g>
    </g>
    <g id="ytick_6">
     <g id="line2d_34">
      <path clip-path="url(#pbfc25a2d65)" d="M 35.47 58.565313 
L 481.87 58.565313 
" style="fill:none;stroke:#b0b0b0;stroke-linecap:square;stroke-opacity:0.3;"/>
     </g>
     <g id="line2d_35">
      <g>
       <use style="fill:#262626;stroke:#262626;" x="35.47" xlink:href="#m8a286c6104" y="58.565313"/>
      </g>
     </g>
     <g id="text_10">
      <!-- 25 -->
      <g style="fill:#262626;" transform="translate(7.2 63.124375)scale(0.12 -0.12)">
       <use xlink:href="#DejaVuSans-50"/>
       <use x="63.623047" xlink:href="#DejaVuSans-53"/>
      </g>
     </g>
    </g>
   </g>
   <g id="line2d_36">
    <path clip-path="url(#pbfc25a2d65)" d="M -1 297.1575 
L 121.1788 297.1575 
L 124.75 297.022162 
L 146.1772 297.022162 
L 149.7484 297.1575 
L 153.3196 297.022162 
L 156.8908 297.022162 
L 160.462 296.751486 
L 164.0332 296.616147 
L 167.6044 296.345471 
L 171.1756 295.804118 
L 174.7468 295.533442 
L 178.318 294.586075 
L 181.8892 293.774046 
L 185.4604 293.232693 
L 189.0316 292.826679 
L 192.6028 292.149988 
L 196.174 291.337959 
L 199.7452 290.119916 
L 206.8876 288.766534 
L 210.4588 285.789094 
L 214.03 284.300375 
L 217.6012 283.217669 
L 221.1724 281.593611 
L 224.7436 279.157524 
L 228.3148 277.533466 
L 231.886 276.586099 
L 235.4572 277.127452 
L 239.0284 274.962041 
L 242.5996 273.743998 
L 246.1708 271.307911 
L 249.742 269.548515 
L 253.3132 265.759046 
L 256.8844 262.781607 
L 260.4556 255.067331 
L 267.598 256.962066 
L 271.1692 256.150037 
L 274.7404 252.901921 
L 278.3116 250.871848 
L 281.8828 249.112452 
L 285.454 253.984626 
L 289.0252 254.796655 
L 296.1676 251.548539 
L 299.7388 252.901921 
L 303.31 254.661317 
L 306.8812 253.578612 
L 310.4524 254.661317 
L 314.0236 254.390641 
L 317.5948 254.661317 
L 321.166 254.796655 
L 324.7372 255.067331 
L 328.3084 255.608684 
L 331.8796 257.097404 
L 335.4508 256.150037 
L 339.022 256.420713 
L 342.5932 254.796655 
L 346.1644 256.556051 
L 349.7356 257.638757 
L 353.3068 264.541003 
L 356.878 258.315447 
L 360.4492 259.127476 
L 364.0204 257.774095 
L 367.5916 260.616196 
L 371.1628 256.556051 
L 374.734 255.067331 
L 378.3052 248.841776 
L 381.8764 257.36808 
L 385.4476 256.962066 
L 389.0188 258.8568 
L 392.59 259.668829 
L 396.1612 266.029723 
L 399.7324 266.706413 
L 403.3036 266.706413 
L 406.8748 264.541003 
L 410.446 263.593636 
L 417.5884 260.886872 
L 421.1596 256.556051 
L 424.7308 257.36808 
L 428.302 257.909433 
L 431.8732 259.939505 
L 435.4444 258.992138 
L 439.0156 258.8568 
L 442.5868 260.480858 
L 446.158 261.428225 
L 449.7292 259.398153 
L 453.3004 258.992138 
L 456.8716 261.022211 
L 460.4428 260.616196 
L 464.014 261.698901 
L 464.014 261.698901 
" style="fill:none;stroke:#4c72b0;stroke-linecap:square;stroke-width:2;"/>
   </g>
   <g id="line2d_37">
    <path clip-path="url(#pbfc25a2d65)" d="M -1 297.1575 
L 156.8908 297.1575 
L 160.462 296.037476 
L 167.6044 296.037476 
L 171.1756 294.917452 
L 181.8892 294.917452 
L 185.4604 296.037476 
L 192.6028 296.037476 
L 196.174 297.1575 
L 206.8876 297.1575 
L 214.03 294.917452 
L 217.6012 294.917452 
L 221.1724 292.677404 
L 224.7436 288.197308 
L 228.3148 285.95726 
L 231.886 279.237116 
L 235.4572 279.237116 
L 239.0284 280.35714 
L 242.5996 278.117092 
L 246.1708 276.997068 
L 249.742 279.237116 
L 253.3132 268.036876 
L 256.8844 269.1569 
L 267.598 259.076684 
L 271.1692 248.996468 
L 274.7404 243.396348 
L 278.3116 262.436756 
L 281.8828 265.796828 
L 285.454 268.036876 
L 289.0252 271.396948 
L 292.5964 270.276924 
L 296.1676 274.75702 
L 299.7388 283.717212 
L 303.31 269.1569 
L 306.8812 265.796828 
L 310.4524 264.676804 
L 314.0236 264.676804 
L 317.5948 271.396948 
L 321.166 272.516972 
L 324.7372 269.1569 
L 328.3084 271.396948 
L 331.8796 274.75702 
L 335.4508 276.997068 
L 339.022 274.75702 
L 342.5932 273.636996 
L 346.1644 276.997068 
L 349.7356 265.796828 
L 353.3068 272.516972 
L 356.878 272.516972 
L 360.4492 271.396948 
L 364.0204 273.636996 
L 367.5916 274.75702 
L 371.1628 276.997068 
L 374.734 288.197308 
L 378.3052 287.077284 
L 381.8764 282.597188 
L 385.4476 280.35714 
L 392.59 278.117092 
L 399.7324 282.597188 
L 403.3036 282.597188 
L 406.8748 288.197308 
L 410.446 291.55738 
L 414.0172 292.677404 
L 417.5884 292.677404 
L 424.7308 290.437356 
L 428.302 291.55738 
L 431.8732 290.437356 
L 435.4444 291.55738 
L 442.5868 291.55738 
L 446.158 292.677404 
L 449.7292 292.677404 
L 453.3004 291.55738 
L 456.8716 293.797428 
L 460.4428 292.677404 
L 464.014 292.677404 
L 464.014 292.677404 
" style="fill:none;stroke:#55a868;stroke-linecap:square;stroke-width:2;"/>
   </g>
   <g id="line2d_38">
    <path clip-path="url(#pbfc25a2d65)" d="M -1 297.1575 
L 174.7468 297.1575 
L 178.318 294.19271 
L 181.8892 288.26313 
L 189.0316 288.26313 
L 192.6028 285.29834 
L 196.174 285.29834 
L 199.7452 279.368759 
L 203.3164 271.956784 
L 206.8876 273.439179 
L 210.4588 267.509599 
L 217.6012 264.544809 
L 221.1724 255.650439 
L 224.7436 258.615229 
L 228.3148 257.132834 
L 231.886 243.791278 
L 235.4572 243.791278 
L 239.0284 226.002538 
L 242.5996 214.143377 
L 246.1708 203.766612 
L 249.742 190.425057 
L 253.3132 194.872242 
L 256.8844 212.660982 
L 260.4556 218.590562 
L 264.0268 191.907452 
L 267.598 197.837032 
L 271.1692 205.249007 
L 274.7404 202.284217 
L 278.3116 202.284217 
L 281.8828 194.872242 
L 285.454 172.636316 
L 289.0252 209.696192 
L 292.5964 215.625772 
L 296.1676 215.625772 
L 299.7388 228.967328 
L 303.31 226.002538 
L 306.8812 224.520143 
L 310.4524 231.932118 
L 317.5948 228.967328 
L 321.166 226.002538 
L 324.7372 122.234884 
L 328.3084 114.822909 
L 331.8796 114.822909 
L 335.4508 111.858119 
L 339.022 110.375724 
L 342.5932 99.998959 
L 346.1644 102.963749 
L 349.7356 202.284217 
L 353.3068 206.731402 
L 356.878 206.731402 
L 360.4492 208.213797 
L 364.0204 205.249007 
L 367.5916 212.660982 
L 374.734 218.590562 
L 378.3052 220.072957 
L 381.8764 214.143377 
L 389.0188 228.967328 
L 392.59 228.967328 
L 396.1612 226.002538 
L 399.7324 224.520143 
L 403.3036 221.555353 
L 406.8748 231.932118 
L 410.446 234.896908 
L 414.0172 242.308883 
L 417.5884 240.826488 
L 421.1596 246.756068 
L 424.7308 249.720858 
L 428.302 257.132834 
L 431.8732 258.615229 
L 435.4444 258.615229 
L 439.0156 254.168044 
L 442.5868 258.615229 
L 446.158 255.650439 
L 449.7292 257.132834 
L 453.3004 260.097624 
L 456.8716 260.097624 
L 464.014 257.132834 
L 464.014 257.132834 
" style="fill:none;stroke:#c44e52;stroke-linecap:square;stroke-width:2;"/>
   </g>
   <g id="line2d_39">
    <path clip-path="url(#pbfc25a2d65)" d="M -1 297.1575 
L 81.8956 297.1575 
L 85.4668 296.545668 
L 89.038 295.322005 
L 92.6092 293.486509 
L 96.1804 291.039182 
L 99.7516 290.42735 
L 103.3228 290.42735 
L 106.894 289.815519 
L 110.4652 287.980023 
L 117.6076 287.980023 
L 121.1788 289.203687 
L 124.75 287.368191 
L 128.3212 286.75636 
L 131.8924 284.309032 
L 135.4636 284.920864 
L 139.0348 284.920864 
L 142.606 283.085369 
L 146.1772 282.473537 
L 149.7484 278.802546 
L 153.3196 276.967051 
L 156.8908 275.743387 
L 160.462 272.684229 
L 164.0332 273.29606 
L 167.6044 270.236901 
L 171.1756 267.789574 
L 174.7468 270.236901 
L 178.318 266.565911 
L 181.8892 261.059425 
L 185.4604 259.223929 
L 189.0316 254.941107 
L 192.6028 258.000266 
L 196.174 262.283088 
L 199.7452 257.388434 
L 203.3164 256.776602 
L 206.8876 259.835761 
L 210.4588 256.776602 
L 214.03 258.000266 
L 221.1724 248.210957 
L 224.7436 248.210957 
L 228.3148 246.375462 
L 231.886 241.480807 
L 235.4572 246.987294 
L 239.0284 245.76363 
L 242.5996 251.881948 
L 246.1708 252.49378 
L 249.742 255.552939 
L 253.3132 259.223929 
L 256.8844 264.118584 
L 260.4556 262.89492 
L 264.0268 264.118584 
L 267.598 258.000266 
L 271.1692 254.941107 
L 274.7404 256.16477 
L 278.3116 258.000266 
L 281.8828 260.447593 
L 285.454 261.059425 
L 289.0252 259.223929 
L 292.5964 262.89492 
L 296.1676 263.506752 
L 299.7388 262.283088 
L 303.31 259.223929 
L 306.8812 261.671256 
L 310.4524 263.506752 
L 317.5948 268.401406 
L 321.166 271.460565 
L 328.3084 276.355219 
L 331.8796 275.131556 
L 335.4508 275.131556 
L 339.022 272.072397 
L 342.5932 271.460565 
L 346.1644 271.460565 
L 349.7356 272.684229 
L 353.3068 276.355219 
L 356.878 275.131556 
L 360.4492 275.131556 
L 364.0204 280.638042 
L 367.5916 283.085369 
L 371.1628 283.085369 
L 374.734 284.920864 
L 378.3052 281.861705 
L 381.8764 284.309032 
L 385.4476 287.368191 
L 389.0188 284.920864 
L 392.59 283.697201 
L 396.1612 286.144528 
L 399.7324 281.861705 
L 403.3036 283.085369 
L 406.8748 283.697201 
L 410.446 281.861705 
L 414.0172 284.920864 
L 421.1596 286.144528 
L 424.7308 288.591855 
L 428.302 289.815519 
L 431.8732 289.815519 
L 435.4444 291.651014 
L 439.0156 290.42735 
L 442.5868 291.039182 
L 446.158 291.039182 
L 449.7292 292.874677 
L 453.3004 291.651014 
L 456.8716 291.039182 
L 460.4428 287.980023 
L 464.014 289.203687 
L 464.014 289.203687 
" style="fill:none;stroke:#8172b2;stroke-linecap:square;stroke-width:2;"/>
   </g>
   <g id="line2d_40">
    <path clip-path="url(#pbfc25a2d65)" d="M -1 297.1575 
L 171.1756 297.1575 
L 174.7468 296.296556 
L 178.318 296.296556 
L 181.8892 295.435612 
L 185.4604 292.85278 
L 189.0316 292.85278 
L 192.6028 291.130892 
L 196.174 285.104285 
L 199.7452 285.965229 
L 203.3164 285.965229 
L 206.8876 286.826173 
L 210.4588 280.799565 
L 214.03 277.35579 
L 217.6012 279.077677 
L 221.1724 259.275967 
L 224.7436 235.169537 
L 228.3148 235.169537 
L 231.886 214.506882 
L 235.4572 205.897443 
L 239.0284 211.063107 
L 242.5996 211.924051 
L 246.1708 169.737798 
L 249.742 180.069125 
L 253.3132 143.90948 
L 256.8844 135.30004 
L 260.4556 114.637386 
L 264.0268 93.113788 
L 267.598 87.948124 
L 271.1692 135.30004 
L 274.7404 127.551545 
L 278.3116 143.048536 
L 281.8828 167.154966 
L 285.454 190.400452 
L 289.0252 205.036499 
L 292.5964 199.009892 
L 296.1676 192.12234 
L 299.7388 213.645938 
L 303.31 155.962695 
L 306.8812 134.439096 
L 310.4524 91.3919 
L 314.0236 77.616797 
L 317.5948 88.809068 
L 321.166 101.723227 
L 324.7372 50.066591 
L 328.3084 117.220218 
L 331.8796 93.113788 
L 335.4508 137.021928 
L 339.022 153.379863 
L 342.5932 153.379863 
L 346.1644 155.101751 
L 349.7356 139.60476 
L 353.3068 131.856265 
L 356.878 171.459686 
L 360.4492 176.625349 
L 364.0204 179.208181 
L 367.5916 136.160984 
L 371.1628 124.107769 
L 374.734 154.240807 
L 378.3052 150.797031 
L 381.8764 124.968713 
L 385.4476 123.246825 
L 389.0188 123.246825 
L 392.59 163.71119 
L 396.1612 181.791013 
L 399.7324 202.453667 
L 403.3036 207.619331 
L 406.8748 229.142929 
L 410.446 232.586705 
L 414.0172 225.699153 
L 417.5884 223.977266 
L 421.1596 208.480275 
L 424.7308 213.645938 
L 428.302 200.731779 
L 431.8732 201.592723 
L 435.4444 205.897443 
L 439.0156 207.619331 
L 442.5868 210.202163 
L 446.158 219.672546 
L 449.7292 215.367826 
L 453.3004 230.864817 
L 456.8716 231.725761 
L 460.4428 221.394434 
L 464.014 223.977266 
L 464.014 223.977266 
" style="fill:none;stroke:#ccb974;stroke-linecap:square;stroke-width:2;"/>
   </g>
   <g id="patch_3">
    <path d="M 35.47 297.1575 
L 35.47 25.3575 
" style="fill:none;stroke:#000000;stroke-linecap:square;stroke-linejoin:miter;stroke-width:0.8;"/>
   </g>
   <g id="patch_4">
    <path d="M 35.47 297.1575 
L 481.87 297.1575 
" style="fill:none;stroke:#000000;stroke-linecap:square;stroke-linejoin:miter;stroke-width:0.8;"/>
   </g>
   <g id="text_11">
    <!-- Los Angeles, CA -->
    <defs>
     <path d="M 9.8125 72.90625 
L 19.671875 72.90625 
L 19.671875 8.296875 
L 55.171875 8.296875 
L 55.171875 0 
L 9.8125 0 
z
" id="DejaVuSans-76"/>
     <path d="M 30.609375 48.390625 
Q 23.390625 48.390625 19.1875 42.75 
Q 14.984375 37.109375 14.984375 27.296875 
Q 14.984375 17.484375 19.15625 11.84375 
Q 23.34375 6.203125 30.609375 6.203125 
Q 37.796875 6.203125 41.984375 11.859375 
Q 46.1875 17.53125 46.1875 27.296875 
Q 46.1875 37.015625 41.984375 42.703125 
Q 37.796875 48.390625 30.609375 48.390625 
z
M 30.609375 56 
Q 42.328125 56 49.015625 48.375 
Q 55.71875 40.765625 55.71875 27.296875 
Q 55.71875 13.875 49.015625 6.21875 
Q 42.328125 -1.421875 30.609375 -1.421875 
Q 18.84375 -1.421875 12.171875 6.21875 
Q 5.515625 13.875 5.515625 27.296875 
Q 5.515625 40.765625 12.171875 48.375 
Q 18.84375 56 30.609375 56 
z
" id="DejaVuSans-111"/>
     <path d="M 44.28125 53.078125 
L 44.28125 44.578125 
Q 40.484375 46.53125 36.375 47.5 
Q 32.28125 48.484375 27.875 48.484375 
Q 21.1875 48.484375 17.84375 46.4375 
Q 14.5 44.390625 14.5 40.28125 
Q 14.5 37.15625 16.890625 35.375 
Q 19.28125 33.59375 26.515625 31.984375 
L 29.59375 31.296875 
Q 39.15625 29.25 43.1875 25.515625 
Q 47.21875 21.78125 47.21875 15.09375 
Q 47.21875 7.46875 41.1875 3.015625 
Q 35.15625 -1.421875 24.609375 -1.421875 
Q 20.21875 -1.421875 15.453125 -0.5625 
Q 10.6875 0.296875 5.421875 2 
L 5.421875 11.28125 
Q 10.40625 8.6875 15.234375 7.390625 
Q 20.0625 6.109375 24.8125 6.109375 
Q 31.15625 6.109375 34.5625 8.28125 
Q 37.984375 10.453125 37.984375 14.40625 
Q 37.984375 18.0625 35.515625 20.015625 
Q 33.0625 21.96875 24.703125 23.78125 
L 21.578125 24.515625 
Q 13.234375 26.265625 9.515625 29.90625 
Q 5.8125 33.546875 5.8125 39.890625 
Q 5.8125 47.609375 11.28125 51.796875 
Q 16.75 56 26.8125 56 
Q 31.78125 56 36.171875 55.265625 
Q 40.578125 54.546875 44.28125 53.078125 
z
" id="DejaVuSans-115"/>
     <path id="DejaVuSans-32"/>
     <path d="M 45.40625 27.984375 
Q 45.40625 37.75 41.375 43.109375 
Q 37.359375 48.484375 30.078125 48.484375 
Q 22.859375 48.484375 18.828125 43.109375 
Q 14.796875 37.75 14.796875 27.984375 
Q 14.796875 18.265625 18.828125 12.890625 
Q 22.859375 7.515625 30.078125 7.515625 
Q 37.359375 7.515625 41.375 12.890625 
Q 45.40625 18.265625 45.40625 27.984375 
z
M 54.390625 6.78125 
Q 54.390625 -7.171875 48.1875 -13.984375 
Q 42 -20.796875 29.203125 -20.796875 
Q 24.46875 -20.796875 20.265625 -20.09375 
Q 16.0625 -19.390625 12.109375 -17.921875 
L 12.109375 -9.1875 
Q 16.0625 -11.328125 19.921875 -12.34375 
Q 23.78125 -13.375 27.78125 -13.375 
Q 36.625 -13.375 41.015625 -8.765625 
Q 45.40625 -4.15625 45.40625 5.171875 
L 45.40625 9.625 
Q 42.625 4.78125 38.28125 2.390625 
Q 33.9375 0 27.875 0 
Q 17.828125 0 11.671875 7.65625 
Q 5.515625 15.328125 5.515625 27.984375 
Q 5.515625 40.671875 11.671875 48.328125 
Q 17.828125 56 27.875 56 
Q 33.9375 56 38.28125 53.609375 
Q 42.625 51.21875 45.40625 46.390625 
L 45.40625 54.6875 
L 54.390625 54.6875 
z
" id="DejaVuSans-103"/>
     <path d="M 56.203125 29.59375 
L 56.203125 25.203125 
L 14.890625 25.203125 
Q 15.484375 15.921875 20.484375 11.0625 
Q 25.484375 6.203125 34.421875 6.203125 
Q 39.59375 6.203125 44.453125 7.46875 
Q 49.3125 8.734375 54.109375 11.28125 
L 54.109375 2.78125 
Q 49.265625 0.734375 44.1875 -0.34375 
Q 39.109375 -1.421875 33.890625 -1.421875 
Q 20.796875 -1.421875 13.15625 6.1875 
Q 5.515625 13.8125 5.515625 26.8125 
Q 5.515625 40.234375 12.765625 48.109375 
Q 20.015625 56 32.328125 56 
Q 43.359375 56 49.78125 48.890625 
Q 56.203125 41.796875 56.203125 29.59375 
z
M 47.21875 32.234375 
Q 47.125 39.59375 43.09375 43.984375 
Q 39.0625 48.390625 32.421875 48.390625 
Q 24.90625 48.390625 20.390625 44.140625 
Q 15.875 39.890625 15.1875 32.171875 
z
" id="DejaVuSans-101"/>
     <path d="M 9.421875 75.984375 
L 18.40625 75.984375 
L 18.40625 0 
L 9.421875 0 
z
" id="DejaVuSans-108"/>
     <path d="M 11.71875 12.40625 
L 22.015625 12.40625 
L 22.015625 4 
L 14.015625 -11.625 
L 7.71875 -11.625 
L 11.71875 4 
z
" id="DejaVuSans-44"/>
     <path d="M 64.40625 67.28125 
L 64.40625 56.890625 
Q 59.421875 61.53125 53.78125 63.8125 
Q 48.140625 66.109375 41.796875 66.109375 
Q 29.296875 66.109375 22.65625 58.46875 
Q 16.015625 50.828125 16.015625 36.375 
Q 16.015625 21.96875 22.65625 14.328125 
Q 29.296875 6.6875 41.796875 6.6875 
Q 48.140625 6.6875 53.78125 8.984375 
Q 59.421875 11.28125 64.40625 15.921875 
L 64.40625 5.609375 
Q 59.234375 2.09375 53.4375 0.328125 
Q 47.65625 -1.421875 41.21875 -1.421875 
Q 24.65625 -1.421875 15.125 8.703125 
Q 5.609375 18.84375 5.609375 36.375 
Q 5.609375 53.953125 15.125 64.078125 
Q 24.65625 74.21875 41.21875 74.21875 
Q 47.75 74.21875 53.53125 72.484375 
Q 59.328125 70.75 64.40625 67.28125 
z
" id="DejaVuSans-67"/>
    </defs>
    <g style="fill:#4c72b0;" transform="translate(469.014 265.698901)scale(0.14 -0.14)">
     <use xlink:href="#DejaVuSans-76"/>
     <use x="55.697266" xlink:href="#DejaVuSans-111"/>
     <use x="116.878906" xlink:href="#DejaVuSans-115"/>
     <use x="168.978516" xlink:href="#DejaVuSans-32"/>
     <use x="200.765625" xlink:href="#DejaVuSans-65"/>
     <use x="269.173828" xlink:href="#DejaVuSans-110"/>
     <use x="332.552734" xlink:href="#DejaVuSans-103"/>
     <use x="396.029297" xlink:href="#DejaVuSans-101"/>
     <use x="457.552734" xlink:href="#DejaVuSans-108"/>
     <use x="485.335938" xlink:href="#DejaVuSans-101"/>
     <use x="546.859375" xlink:href="#DejaVuSans-115"/>
     <use x="598.958984" xlink:href="#DejaVuSans-44"/>
     <use x="630.746094" xlink:href="#DejaVuSans-32"/>
     <use x="662.533203" xlink:href="#DejaVuSans-67"/>
     <use x="732.357422" xlink:href="#DejaVuSans-65"/>
    </g>
   </g>
   <g id="text_12">
    <!-- Allegheny, PA -->
    <defs>
     <path d="M 54.890625 33.015625 
L 54.890625 0 
L 45.90625 0 
L 45.90625 32.71875 
Q 45.90625 40.484375 42.875 44.328125 
Q 39.84375 48.1875 33.796875 48.1875 
Q 26.515625 48.1875 22.3125 43.546875 
Q 18.109375 38.921875 18.109375 30.90625 
L 18.109375 0 
L 9.078125 0 
L 9.078125 75.984375 
L 18.109375 75.984375 
L 18.109375 46.1875 
Q 21.34375 51.125 25.703125 53.5625 
Q 30.078125 56 35.796875 56 
Q 45.21875 56 50.046875 50.171875 
Q 54.890625 44.34375 54.890625 33.015625 
z
" id="DejaVuSans-104"/>
     <path d="M 19.671875 64.796875 
L 19.671875 37.40625 
L 32.078125 37.40625 
Q 38.96875 37.40625 42.71875 40.96875 
Q 46.484375 44.53125 46.484375 51.125 
Q 46.484375 57.671875 42.71875 61.234375 
Q 38.96875 64.796875 32.078125 64.796875 
z
M 9.8125 72.90625 
L 32.078125 72.90625 
Q 44.34375 72.90625 50.609375 67.359375 
Q 56.890625 61.8125 56.890625 51.125 
Q 56.890625 40.328125 50.609375 34.8125 
Q 44.34375 29.296875 32.078125 29.296875 
L 19.671875 29.296875 
L 19.671875 0 
L 9.8125 0 
z
" id="DejaVuSans-80"/>
    </defs>
    <g style="fill:#55a868;" transform="translate(469.014 296.677404)scale(0.14 -0.14)">
     <use xlink:href="#DejaVuSans-65"/>
     <use x="68.408203" xlink:href="#DejaVuSans-108"/>
     <use x="96.191406" xlink:href="#DejaVuSans-108"/>
     <use x="123.974609" xlink:href="#DejaVuSans-101"/>
     <use x="185.498047" xlink:href="#DejaVuSans-103"/>
     <use x="248.974609" xlink:href="#DejaVuSans-104"/>
     <use x="312.353516" xlink:href="#DejaVuSans-101"/>
     <use x="373.876953" xlink:href="#DejaVuSans-110"/>
     <use x="437.255859" xlink:href="#DejaVuSans-121"/>
     <use x="496.435547" xlink:href="#DejaVuSans-44"/>
     <use x="528.222656" xlink:href="#DejaVuSans-32"/>
     <use x="560.009766" xlink:href="#DejaVuSans-80"/>
     <use x="620.21875" xlink:href="#DejaVuSans-65"/>
    </g>
   </g>
   <g id="text_13">
    <!-- Erie, NY -->
    <defs>
     <path d="M 9.8125 72.90625 
L 55.90625 72.90625 
L 55.90625 64.59375 
L 19.671875 64.59375 
L 19.671875 43.015625 
L 54.390625 43.015625 
L 54.390625 34.71875 
L 19.671875 34.71875 
L 19.671875 8.296875 
L 56.78125 8.296875 
L 56.78125 0 
L 9.8125 0 
z
" id="DejaVuSans-69"/>
     <path d="M 9.421875 54.6875 
L 18.40625 54.6875 
L 18.40625 0 
L 9.421875 0 
z
M 9.421875 75.984375 
L 18.40625 75.984375 
L 18.40625 64.59375 
L 9.421875 64.59375 
z
" id="DejaVuSans-105"/>
     <path d="M 9.8125 72.90625 
L 23.09375 72.90625 
L 55.421875 11.921875 
L 55.421875 72.90625 
L 64.984375 72.90625 
L 64.984375 0 
L 51.703125 0 
L 19.390625 60.984375 
L 19.390625 0 
L 9.8125 0 
z
" id="DejaVuSans-78"/>
     <path d="M -0.203125 72.90625 
L 10.40625 72.90625 
L 30.609375 42.921875 
L 50.6875 72.90625 
L 61.28125 72.90625 
L 35.5 34.71875 
L 35.5 0 
L 25.59375 0 
L 25.59375 34.71875 
z
" id="DejaVuSans-89"/>
    </defs>
    <g style="fill:#c44e52;" transform="translate(469.014 261.132834)scale(0.14 -0.14)">
     <use xlink:href="#DejaVuSans-69"/>
     <use x="63.183594" xlink:href="#DejaVuSans-114"/>
     <use x="104.296875" xlink:href="#DejaVuSans-105"/>
     <use x="132.080078" xlink:href="#DejaVuSans-101"/>
     <use x="193.603516" xlink:href="#DejaVuSans-44"/>
     <use x="225.390625" xlink:href="#DejaVuSans-32"/>
     <use x="257.177734" xlink:href="#DejaVuSans-78"/>
     <use x="331.982422" xlink:href="#DejaVuSans-89"/>
    </g>
   </g>
   <g id="text_14">
    <!-- King, WA -->
    <defs>
     <path d="M 9.8125 72.90625 
L 19.671875 72.90625 
L 19.671875 42.09375 
L 52.390625 72.90625 
L 65.09375 72.90625 
L 28.90625 38.921875 
L 67.671875 0 
L 54.6875 0 
L 19.671875 35.109375 
L 19.671875 0 
L 9.8125 0 
z
" id="DejaVuSans-75"/>
     <path d="M 3.328125 72.90625 
L 13.28125 72.90625 
L 28.609375 11.28125 
L 43.890625 72.90625 
L 54.984375 72.90625 
L 70.3125 11.28125 
L 85.59375 72.90625 
L 95.609375 72.90625 
L 77.296875 0 
L 64.890625 0 
L 49.515625 63.28125 
L 33.984375 0 
L 21.578125 0 
z
" id="DejaVuSans-87"/>
    </defs>
    <g style="fill:#8172b2;" transform="translate(469.014 293.203687)scale(0.14 -0.14)">
     <use xlink:href="#DejaVuSans-75"/>
     <use x="65.576172" xlink:href="#DejaVuSans-105"/>
     <use x="93.359375" xlink:href="#DejaVuSans-110"/>
     <use x="156.738281" xlink:href="#DejaVuSans-103"/>
     <use x="220.214844" xlink:href="#DejaVuSans-44"/>
     <use x="252.001953" xlink:href="#DejaVuSans-32"/>
     <use x="283.789062" xlink:href="#DejaVuSans-87"/>
     <use x="382.587891" xlink:href="#DejaVuSans-65"/>
    </g>
   </g>
   <g id="text_15">
    <!-- Philadelphia, PA -->
    <defs>
     <path d="M 45.40625 46.390625 
L 45.40625 75.984375 
L 54.390625 75.984375 
L 54.390625 0 
L 45.40625 0 
L 45.40625 8.203125 
Q 42.578125 3.328125 38.25 0.953125 
Q 33.9375 -1.421875 27.875 -1.421875 
Q 17.96875 -1.421875 11.734375 6.484375 
Q 5.515625 14.40625 5.515625 27.296875 
Q 5.515625 40.1875 11.734375 48.09375 
Q 17.96875 56 27.875 56 
Q 33.9375 56 38.25 53.625 
Q 42.578125 51.265625 45.40625 46.390625 
z
M 14.796875 27.296875 
Q 14.796875 17.390625 18.875 11.75 
Q 22.953125 6.109375 30.078125 6.109375 
Q 37.203125 6.109375 41.296875 11.75 
Q 45.40625 17.390625 45.40625 27.296875 
Q 45.40625 37.203125 41.296875 42.84375 
Q 37.203125 48.484375 30.078125 48.484375 
Q 22.953125 48.484375 18.875 42.84375 
Q 14.796875 37.203125 14.796875 27.296875 
z
" id="DejaVuSans-100"/>
    </defs>
    <g style="fill:#ccb974;" transform="translate(469.014 227.977266)scale(0.14 -0.14)">
     <use xlink:href="#DejaVuSans-80"/>
     <use x="60.302734" xlink:href="#DejaVuSans-104"/>
     <use x="123.681641" xlink:href="#DejaVuSans-105"/>
     <use x="151.464844" xlink:href="#DejaVuSans-108"/>
     <use x="179.248047" xlink:href="#DejaVuSans-97"/>
     <use x="240.527344" xlink:href="#DejaVuSans-100"/>
     <use x="304.003906" xlink:href="#DejaVuSans-101"/>
     <use x="365.527344" xlink:href="#DejaVuSans-108"/>
     <use x="393.310547" xlink:href="#DejaVuSans-112"/>
     <use x="456.787109" xlink:href="#DejaVuSans-104"/>
     <use x="520.166016" xlink:href="#DejaVuSans-105"/>
     <use x="547.949219" xlink:href="#DejaVuSans-97"/>
     <use x="609.228516" xlink:href="#DejaVuSans-44"/>
     <use x="641.015625" xlink:href="#DejaVuSans-32"/>
     <use x="672.802734" xlink:href="#DejaVuSans-80"/>
     <use x="733.011719" xlink:href="#DejaVuSans-65"/>
    </g>
   </g>
   <g id="text_16">
    <!-- Deaths per million people -->
    <defs>
     <path d="M 19.671875 64.796875 
L 19.671875 8.109375 
L 31.59375 8.109375 
Q 46.6875 8.109375 53.6875 14.9375 
Q 60.6875 21.78125 60.6875 36.53125 
Q 60.6875 51.171875 53.6875 57.984375 
Q 46.6875 64.796875 31.59375 64.796875 
z
M 9.8125 72.90625 
L 30.078125 72.90625 
Q 51.265625 72.90625 61.171875 64.09375 
Q 71.09375 55.28125 71.09375 36.53125 
Q 71.09375 17.671875 61.125 8.828125 
Q 51.171875 0 30.078125 0 
L 9.8125 0 
z
" id="DejaVuSans-68"/>
     <path d="M 18.3125 70.21875 
L 18.3125 54.6875 
L 36.8125 54.6875 
L 36.8125 47.703125 
L 18.3125 47.703125 
L 18.3125 18.015625 
Q 18.3125 11.328125 20.140625 9.421875 
Q 21.96875 7.515625 27.59375 7.515625 
L 36.8125 7.515625 
L 36.8125 0 
L 27.59375 0 
Q 17.1875 0 13.234375 3.875 
Q 9.28125 7.765625 9.28125 18.015625 
L 9.28125 47.703125 
L 2.6875 47.703125 
L 2.6875 54.6875 
L 9.28125 54.6875 
L 9.28125 70.21875 
z
" id="DejaVuSans-116"/>
     <path d="M 52 44.1875 
Q 55.375 50.25 60.0625 53.125 
Q 64.75 56 71.09375 56 
Q 79.640625 56 84.28125 50.015625 
Q 88.921875 44.046875 88.921875 33.015625 
L 88.921875 0 
L 79.890625 0 
L 79.890625 32.71875 
Q 79.890625 40.578125 77.09375 44.375 
Q 74.3125 48.1875 68.609375 48.1875 
Q 61.625 48.1875 57.5625 43.546875 
Q 53.515625 38.921875 53.515625 30.90625 
L 53.515625 0 
L 44.484375 0 
L 44.484375 32.71875 
Q 44.484375 40.625 41.703125 44.40625 
Q 38.921875 48.1875 33.109375 48.1875 
Q 26.21875 48.1875 22.15625 43.53125 
Q 18.109375 38.875 18.109375 30.90625 
L 18.109375 0 
L 9.078125 0 
L 9.078125 54.6875 
L 18.109375 54.6875 
L 18.109375 46.1875 
Q 21.1875 51.21875 25.484375 53.609375 
Q 29.78125 56 35.6875 56 
Q 41.65625 56 45.828125 52.96875 
Q 50 49.953125 52 44.1875 
z
" id="DejaVuSans-109"/>
    </defs>
    <g style="fill:#262626;" transform="translate(155.62625 19.3575)scale(0.16 -0.16)">
     <use xlink:href="#DejaVuSans-68"/>
     <use x="77.001953" xlink:href="#DejaVuSans-101"/>
     <use x="138.525391" xlink:href="#DejaVuSans-97"/>
     <use x="199.804688" xlink:href="#DejaVuSans-116"/>
     <use x="239.013672" xlink:href="#DejaVuSans-104"/>
     <use x="302.392578" xlink:href="#DejaVuSans-115"/>
     <use x="354.492188" xlink:href="#DejaVuSans-32"/>
     <use x="386.279297" xlink:href="#DejaVuSans-112"/>
     <use x="449.755859" xlink:href="#DejaVuSans-101"/>
     <use x="511.279297" xlink:href="#DejaVuSans-114"/>
     <use x="552.392578" xlink:href="#DejaVuSans-32"/>
     <use x="584.179688" xlink:href="#DejaVuSans-109"/>
     <use x="681.591797" xlink:href="#DejaVuSans-105"/>
     <use x="709.375" xlink:href="#DejaVuSans-108"/>
     <use x="737.158203" xlink:href="#DejaVuSans-108"/>
     <use x="764.941406" xlink:href="#DejaVuSans-105"/>
     <use x="792.724609" xlink:href="#DejaVuSans-111"/>
     <use x="853.90625" xlink:href="#DejaVuSans-110"/>
     <use x="917.285156" xlink:href="#DejaVuSans-32"/>
     <use x="949.072266" xlink:href="#DejaVuSans-112"/>
     <use x="1012.548828" xlink:href="#DejaVuSans-101"/>
     <use x="1074.072266" xlink:href="#DejaVuSans-111"/>
     <use x="1135.253906" xlink:href="#DejaVuSans-112"/>
     <use x="1198.730469" xlink:href="#DejaVuSans-108"/>
     <use x="1226.513672" xlink:href="#DejaVuSans-101"/>
    </g>
   </g>
   <g id="legend_1"/>
   <g id="PathCollection_1">
    <defs>
     <path d="M 0 2.236068 
C 0.593012 2.236068 1.161816 2.000462 1.581139 1.581139 
C 2.000462 1.161816 2.236068 0.593012 2.236068 0 
C 2.236068 -0.593012 2.000462 -1.161816 1.581139 -1.581139 
C 1.161816 -2.000462 0.593012 -2.236068 0 -2.236068 
C -0.593012 -2.236068 -1.161816 -2.000462 -1.581139 -1.581139 
C -2.000462 -1.161816 -2.236068 -0.593012 -2.236068 0 
C -2.236068 0.593012 -2.000462 1.161816 -1.581139 1.581139 
C -1.161816 2.000462 -0.593012 2.236068 0 2.236068 
z
" id="C0_0_25cc155bae"/>
    </defs>
    <g clip-path="url(#pbfc25a2d65)">
     <use style="fill:#4c72b0;stroke:#4c72b0;" x="464.014" xlink:href="#C0_0_25cc155bae" y="261.698901"/>
    </g>
    <g clip-path="url(#pbfc25a2d65)">
     <use style="fill:#55a868;stroke:#55a868;" x="464.014" xlink:href="#C0_0_25cc155bae" y="292.677404"/>
    </g>
    <g clip-path="url(#pbfc25a2d65)">
     <use style="fill:#c44e52;stroke:#c44e52;" x="464.014" xlink:href="#C0_0_25cc155bae" y="257.132834"/>
    </g>
    <g clip-path="url(#pbfc25a2d65)">
     <use style="fill:#8172b2;stroke:#8172b2;" x="464.014" xlink:href="#C0_0_25cc155bae" y="289.203687"/>
    </g>
    <g clip-path="url(#pbfc25a2d65)">
     <use style="fill:#ccb974;stroke:#ccb974;" x="464.014" xlink:href="#C0_0_25cc155bae" y="223.977266"/>
    </g>
   </g>
  </g>
 </g>
 <defs>
  <clipPath id="pbfc25a2d65">
   <rect height="271.8" width="446.4" x="35.47" y="25.3575"/>
  </clipPath>
 </defs>
</svg>
