<?xml version="1.0" encoding="utf-8" standalone="no"?>
<!DOCTYPE svg PUBLIC "-//W3C//DTD SVG 1.1//EN"
  "http://www.w3.org/Graphics/SVG/1.1/DTD/svg11.dtd">
<svg height="342.408625pt" version="1.1" viewBox="0 0 601.470375 342.408625" width="601.470375pt" xmlns="http://www.w3.org/2000/svg" xmlns:xlink="http://www.w3.org/1999/xlink">
 <metadata>
  <rdf:RDF xmlns:cc="http://creativecommons.org/ns#" xmlns:dc="http://purl.org/dc/elements/1.1/" xmlns:rdf="http://www.w3.org/1999/02/22-rdf-syntax-ns#">
   <cc:Work>
    <dc:type rdf:resource="http://purl.org/dc/dcmitype/StillImage"/>
    <dc:date>2021-06-07T21:55:40.145613</dc:date>
    <dc:format>image/svg+xml</dc:format>
    <dc:creator>
     <cc:Agent>
      <dc:title>Matplotlib v3.4.2, https://matplotlib.org/</dc:title>
     </cc:Agent>
    </dc:creator>
   </cc:Work>
  </rdf:RDF>
 </metadata>
 <defs>
  <style type="text/css">*{stroke-linecap:butt;stroke-linejoin:round;}</style>
 </defs>
 <g id="figure_1">
  <g id="patch_1">
   <path d="M 0 342.408625 
L 601.470375 342.408625 
L 601.470375 0 
L 0 0 
z
" style="fill:none;"/>
  </g>
  <g id="axes_1">
   <g id="patch_2">
    <path d="M 35.47 297.1575 
L 481.87 297.1575 
L 481.87 25.3575 
L 35.47 25.3575 
z
" style="fill:#ffffff;"/>
   </g>
   <g id="matplotlib.axis_1">
    <g id="xtick_1">
     <g id="line2d_1">
      <defs>
       <path d="M 0 0 
L 0 6 
" id="mcf7b598dd3" style="stroke:#262626;"/>
      </defs>
      <g>
       <use style="fill:#262626;stroke:#262626;" x="35.47" xlink:href="#mcf7b598dd3" y="297.1575"/>
      </g>
     </g>
    </g>
    <g id="xtick_2">
     <g id="line2d_2">
      <g>
       <use style="fill:#262626;stroke:#262626;" x="92.6092" xlink:href="#mcf7b598dd3" y="297.1575"/>
      </g>
     </g>
     <g id="text_1">
      <!-- Apr -->
      <g style="fill:#262626;" transform="translate(82.2292 319.275625)scale(0.12 -0.12)">
       <defs>
        <path d="M 2188 4044 
L 1331 1722 
L 3047 1722 
L 2188 4044 
z
M 1831 4666 
L 2547 4666 
L 4325 0 
L 3669 0 
L 3244 1197 
L 1141 1197 
L 716 0 
L 50 0 
L 1831 4666 
z
" id="DejaVuSans-41" transform="scale(0.015625)"/>
        <path d="M 1159 525 
L 1159 -1331 
L 581 -1331 
L 581 3500 
L 1159 3500 
L 1159 2969 
Q 1341 3281 1617 3432 
Q 1894 3584 2278 3584 
Q 2916 3584 3314 3078 
Q 3713 2572 3713 1747 
Q 3713 922 3314 415 
Q 2916 -91 2278 -91 
Q 1894 -91 1617 61 
Q 1341 213 1159 525 
z
M 3116 1747 
Q 3116 2381 2855 2742 
Q 2594 3103 2138 3103 
Q 1681 3103 1420 2742 
Q 1159 2381 1159 1747 
Q 1159 1113 1420 752 
Q 1681 391 2138 391 
Q 2594 391 2855 752 
Q 3116 1113 3116 1747 
z
" id="DejaVuSans-70" transform="scale(0.015625)"/>
        <path d="M 2631 2963 
Q 2534 3019 2420 3045 
Q 2306 3072 2169 3072 
Q 1681 3072 1420 2755 
Q 1159 2438 1159 1844 
L 1159 0 
L 581 0 
L 581 3500 
L 1159 3500 
L 1159 2956 
Q 1341 3275 1631 3429 
Q 1922 3584 2338 3584 
Q 2397 3584 2469 3576 
Q 2541 3569 2628 3553 
L 2631 2963 
z
" id="DejaVuSans-72" transform="scale(0.015625)"/>
       </defs>
       <use xlink:href="#DejaVuSans-41"/>
       <use x="68.408203" xlink:href="#DejaVuSans-70"/>
       <use x="131.884766" xlink:href="#DejaVuSans-72"/>
      </g>
     </g>
    </g>
    <g id="xtick_3">
     <g id="line2d_3">
      <g>
       <use style="fill:#262626;stroke:#262626;" x="173.854" xlink:href="#mcf7b598dd3" y="297.1575"/>
      </g>
     </g>
     <g id="text_2">
      <!-- Jul -->
      <g style="fill:#262626;" transform="translate(166.614625 319.275625)scale(0.12 -0.12)">
       <defs>
        <path d="M 628 4666 
L 1259 4666 
L 1259 325 
Q 1259 -519 939 -900 
Q 619 -1281 -91 -1281 
L -331 -1281 
L -331 -750 
L -134 -750 
Q 284 -750 456 -515 
Q 628 -281 628 325 
L 628 4666 
z
" id="DejaVuSans-4a" transform="scale(0.015625)"/>
        <path d="M 544 1381 
L 544 3500 
L 1119 3500 
L 1119 1403 
Q 1119 906 1312 657 
Q 1506 409 1894 409 
Q 2359 409 2629 706 
Q 2900 1003 2900 1516 
L 2900 3500 
L 3475 3500 
L 3475 0 
L 2900 0 
L 2900 538 
Q 2691 219 2414 64 
Q 2138 -91 1772 -91 
Q 1169 -91 856 284 
Q 544 659 544 1381 
z
M 1991 3584 
L 1991 3584 
z
" id="DejaVuSans-75" transform="scale(0.015625)"/>
        <path d="M 603 4863 
L 1178 4863 
L 1178 0 
L 603 0 
L 603 4863 
z
" id="DejaVuSans-6c" transform="scale(0.015625)"/>
       </defs>
       <use xlink:href="#DejaVuSans-4a"/>
       <use x="29.492188" xlink:href="#DejaVuSans-75"/>
       <use x="92.871094" xlink:href="#DejaVuSans-6c"/>
      </g>
     </g>
    </g>
    <g id="xtick_4">
     <g id="line2d_4">
      <g>
       <use style="fill:#262626;stroke:#262626;" x="255.9916" xlink:href="#mcf7b598dd3" y="297.1575"/>
      </g>
     </g>
     <g id="text_3">
      <!-- Oct -->
      <g style="fill:#262626;" transform="translate(245.617225 319.275625)scale(0.12 -0.12)">
       <defs>
        <path d="M 2522 4238 
Q 1834 4238 1429 3725 
Q 1025 3213 1025 2328 
Q 1025 1447 1429 934 
Q 1834 422 2522 422 
Q 3209 422 3611 934 
Q 4013 1447 4013 2328 
Q 4013 3213 3611 3725 
Q 3209 4238 2522 4238 
z
M 2522 4750 
Q 3503 4750 4090 4092 
Q 4678 3434 4678 2328 
Q 4678 1225 4090 567 
Q 3503 -91 2522 -91 
Q 1538 -91 948 565 
Q 359 1222 359 2328 
Q 359 3434 948 4092 
Q 1538 4750 2522 4750 
z
" id="DejaVuSans-4f" transform="scale(0.015625)"/>
        <path d="M 3122 3366 
L 3122 2828 
Q 2878 2963 2633 3030 
Q 2388 3097 2138 3097 
Q 1578 3097 1268 2742 
Q 959 2388 959 1747 
Q 959 1106 1268 751 
Q 1578 397 2138 397 
Q 2388 397 2633 464 
Q 2878 531 3122 666 
L 3122 134 
Q 2881 22 2623 -34 
Q 2366 -91 2075 -91 
Q 1284 -91 818 406 
Q 353 903 353 1747 
Q 353 2603 823 3093 
Q 1294 3584 2113 3584 
Q 2378 3584 2631 3529 
Q 2884 3475 3122 3366 
z
" id="DejaVuSans-63" transform="scale(0.015625)"/>
        <path d="M 1172 4494 
L 1172 3500 
L 2356 3500 
L 2356 3053 
L 1172 3053 
L 1172 1153 
Q 1172 725 1289 603 
Q 1406 481 1766 481 
L 2356 481 
L 2356 0 
L 1766 0 
Q 1100 0 847 248 
Q 594 497 594 1153 
L 594 3053 
L 172 3053 
L 172 3500 
L 594 3500 
L 594 4494 
L 1172 4494 
z
" id="DejaVuSans-74" transform="scale(0.015625)"/>
       </defs>
       <use xlink:href="#DejaVuSans-4f"/>
       <use x="78.710938" xlink:href="#DejaVuSans-63"/>
       <use x="133.691406" xlink:href="#DejaVuSans-74"/>
      </g>
     </g>
    </g>
    <g id="xtick_5">
     <g id="line2d_5">
      <g>
       <use style="fill:#262626;stroke:#262626;" x="338.1292" xlink:href="#mcf7b598dd3" y="297.1575"/>
      </g>
     </g>
     <g id="text_4">
      <!-- Jan -->
      <g style="fill:#262626;" transform="translate(328.879825 319.275625)scale(0.12 -0.12)">
       <defs>
        <path d="M 2194 1759 
Q 1497 1759 1228 1600 
Q 959 1441 959 1056 
Q 959 750 1161 570 
Q 1363 391 1709 391 
Q 2188 391 2477 730 
Q 2766 1069 2766 1631 
L 2766 1759 
L 2194 1759 
z
M 3341 1997 
L 3341 0 
L 2766 0 
L 2766 531 
Q 2569 213 2275 61 
Q 1981 -91 1556 -91 
Q 1019 -91 701 211 
Q 384 513 384 1019 
Q 384 1609 779 1909 
Q 1175 2209 1959 2209 
L 2766 2209 
L 2766 2266 
Q 2766 2663 2505 2880 
Q 2244 3097 1772 3097 
Q 1472 3097 1187 3025 
Q 903 2953 641 2809 
L 641 3341 
Q 956 3463 1253 3523 
Q 1550 3584 1831 3584 
Q 2591 3584 2966 3190 
Q 3341 2797 3341 1997 
z
" id="DejaVuSans-61" transform="scale(0.015625)"/>
        <path d="M 3513 2113 
L 3513 0 
L 2938 0 
L 2938 2094 
Q 2938 2591 2744 2837 
Q 2550 3084 2163 3084 
Q 1697 3084 1428 2787 
Q 1159 2491 1159 1978 
L 1159 0 
L 581 0 
L 581 3500 
L 1159 3500 
L 1159 2956 
Q 1366 3272 1645 3428 
Q 1925 3584 2291 3584 
Q 2894 3584 3203 3211 
Q 3513 2838 3513 2113 
z
" id="DejaVuSans-6e" transform="scale(0.015625)"/>
       </defs>
       <use xlink:href="#DejaVuSans-4a"/>
       <use x="29.492188" xlink:href="#DejaVuSans-61"/>
       <use x="90.771484" xlink:href="#DejaVuSans-6e"/>
      </g>
      <!-- 2021 -->
      <g style="fill:#262626;" transform="translate(322.8592 332.713)scale(0.12 -0.12)">
       <defs>
        <path d="M 1228 531 
L 3431 531 
L 3431 0 
L 469 0 
L 469 531 
Q 828 903 1448 1529 
Q 2069 2156 2228 2338 
Q 2531 2678 2651 2914 
Q 2772 3150 2772 3378 
Q 2772 3750 2511 3984 
Q 2250 4219 1831 4219 
Q 1534 4219 1204 4116 
Q 875 4013 500 3803 
L 500 4441 
Q 881 4594 1212 4672 
Q 1544 4750 1819 4750 
Q 2544 4750 2975 4387 
Q 3406 4025 3406 3419 
Q 3406 3131 3298 2873 
Q 3191 2616 2906 2266 
Q 2828 2175 2409 1742 
Q 1991 1309 1228 531 
z
" id="DejaVuSans-32" transform="scale(0.015625)"/>
        <path d="M 2034 4250 
Q 1547 4250 1301 3770 
Q 1056 3291 1056 2328 
Q 1056 1369 1301 889 
Q 1547 409 2034 409 
Q 2525 409 2770 889 
Q 3016 1369 3016 2328 
Q 3016 3291 2770 3770 
Q 2525 4250 2034 4250 
z
M 2034 4750 
Q 2819 4750 3233 4129 
Q 3647 3509 3647 2328 
Q 3647 1150 3233 529 
Q 2819 -91 2034 -91 
Q 1250 -91 836 529 
Q 422 1150 422 2328 
Q 422 3509 836 4129 
Q 1250 4750 2034 4750 
z
" id="DejaVuSans-30" transform="scale(0.015625)"/>
        <path d="M 794 531 
L 1825 531 
L 1825 4091 
L 703 3866 
L 703 4441 
L 1819 4666 
L 2450 4666 
L 2450 531 
L 3481 531 
L 3481 0 
L 794 0 
L 794 531 
z
" id="DejaVuSans-31" transform="scale(0.015625)"/>
       </defs>
       <use xlink:href="#DejaVuSans-32"/>
       <use x="63.623047" xlink:href="#DejaVuSans-30"/>
       <use x="127.246094" xlink:href="#DejaVuSans-32"/>
       <use x="190.869141" xlink:href="#DejaVuSans-31"/>
      </g>
     </g>
    </g>
    <g id="xtick_6">
     <g id="line2d_6">
      <g>
       <use style="fill:#262626;stroke:#262626;" x="418.4812" xlink:href="#mcf7b598dd3" y="297.1575"/>
      </g>
     </g>
     <g id="text_5">
      <!-- Apr -->
      <g style="fill:#262626;" transform="translate(408.1012 319.275625)scale(0.12 -0.12)">
       <use xlink:href="#DejaVuSans-41"/>
       <use x="68.408203" xlink:href="#DejaVuSans-70"/>
       <use x="131.884766" xlink:href="#DejaVuSans-72"/>
      </g>
     </g>
    </g>
    <g id="xtick_7">
     <g id="line2d_7">
      <g>
       <use style="fill:#262626;stroke:#262626;" x="481.87" xlink:href="#mcf7b598dd3" y="297.1575"/>
      </g>
     </g>
    </g>
    <g id="xtick_8">
     <g id="line2d_8">
      <defs>
       <path d="M 0 0 
L 0 3 
" id="m1e3a733940" style="stroke:#262626;stroke-width:0.5;"/>
      </defs>
      <g>
       <use style="fill:#262626;stroke:#262626;stroke-width:0.5;" x="39.0412" xlink:href="#m1e3a733940" y="297.1575"/>
      </g>
     </g>
    </g>
    <g id="xtick_9">
     <g id="line2d_9">
      <g>
       <use style="fill:#262626;stroke:#262626;stroke-width:0.5;" x="64.9324" xlink:href="#m1e3a733940" y="297.1575"/>
      </g>
     </g>
    </g>
    <g id="xtick_10">
     <g id="line2d_10">
      <g>
       <use style="fill:#262626;stroke:#262626;stroke-width:0.5;" x="119.3932" xlink:href="#m1e3a733940" y="297.1575"/>
      </g>
     </g>
    </g>
    <g id="xtick_11">
     <g id="line2d_11">
      <g>
       <use style="fill:#262626;stroke:#262626;stroke-width:0.5;" x="147.07" xlink:href="#m1e3a733940" y="297.1575"/>
      </g>
     </g>
    </g>
    <g id="xtick_12">
     <g id="line2d_12">
      <g>
       <use style="fill:#262626;stroke:#262626;stroke-width:0.5;" x="201.5308" xlink:href="#m1e3a733940" y="297.1575"/>
      </g>
     </g>
    </g>
    <g id="xtick_13">
     <g id="line2d_13">
      <g>
       <use style="fill:#262626;stroke:#262626;stroke-width:0.5;" x="229.2076" xlink:href="#m1e3a733940" y="297.1575"/>
      </g>
     </g>
    </g>
    <g id="xtick_14">
     <g id="line2d_14">
      <g>
       <use style="fill:#262626;stroke:#262626;stroke-width:0.5;" x="283.6684" xlink:href="#m1e3a733940" y="297.1575"/>
      </g>
     </g>
    </g>
    <g id="xtick_15">
     <g id="line2d_15">
      <g>
       <use style="fill:#262626;stroke:#262626;stroke-width:0.5;" x="310.4524" xlink:href="#m1e3a733940" y="297.1575"/>
      </g>
     </g>
    </g>
    <g id="xtick_16">
     <g id="line2d_16">
      <g>
       <use style="fill:#262626;stroke:#262626;stroke-width:0.5;" x="365.806" xlink:href="#m1e3a733940" y="297.1575"/>
      </g>
     </g>
    </g>
    <g id="xtick_17">
     <g id="line2d_17">
      <g>
       <use style="fill:#262626;stroke:#262626;stroke-width:0.5;" x="390.8044" xlink:href="#m1e3a733940" y="297.1575"/>
      </g>
     </g>
    </g>
    <g id="xtick_18">
     <g id="line2d_18">
      <g>
       <use style="fill:#262626;stroke:#262626;stroke-width:0.5;" x="445.2652" xlink:href="#m1e3a733940" y="297.1575"/>
      </g>
     </g>
    </g>
    <g id="xtick_19">
     <g id="line2d_19">
      <g>
       <use style="fill:#262626;stroke:#262626;stroke-width:0.5;" x="472.942" xlink:href="#m1e3a733940" y="297.1575"/>
      </g>
     </g>
    </g>
   </g>
   <g id="matplotlib.axis_2">
    <g id="ytick_1">
     <g id="line2d_20">
      <path clip-path="url(#p35ffe210ea)" d="M 35.47 297.1575 
L 481.87 297.1575 
" style="fill:none;stroke:#b0b0b0;stroke-linecap:square;stroke-opacity:0.3;"/>
     </g>
     <g id="line2d_21">
      <defs>
       <path d="M 0 0 
L -6 0 
" id="mfd8e0f61fc" style="stroke:#262626;"/>
      </defs>
      <g>
       <use style="fill:#262626;stroke:#262626;" x="35.47" xlink:href="#mfd8e0f61fc" y="297.1575"/>
      </g>
     </g>
     <g id="text_6">
      <!-- 0 -->
      <g style="fill:#262626;" transform="translate(14.835 301.716562)scale(0.12 -0.12)">
       <use xlink:href="#DejaVuSans-30"/>
      </g>
     </g>
    </g>
    <g id="ytick_2">
     <g id="line2d_22">
      <path clip-path="url(#p35ffe210ea)" d="M 35.47 249.439063 
L 481.87 249.439063 
" style="fill:none;stroke:#b0b0b0;stroke-linecap:square;stroke-opacity:0.3;"/>
     </g>
     <g id="line2d_23">
      <g>
       <use style="fill:#262626;stroke:#262626;" x="35.47" xlink:href="#mfd8e0f61fc" y="249.439063"/>
      </g>
     </g>
     <g id="text_7">
      <!-- 5 -->
      <g style="fill:#262626;" transform="translate(14.835 253.998125)scale(0.12 -0.12)">
       <defs>
        <path d="M 691 4666 
L 3169 4666 
L 3169 4134 
L 1269 4134 
L 1269 2991 
Q 1406 3038 1543 3061 
Q 1681 3084 1819 3084 
Q 2600 3084 3056 2656 
Q 3513 2228 3513 1497 
Q 3513 744 3044 326 
Q 2575 -91 1722 -91 
Q 1428 -91 1123 -41 
Q 819 9 494 109 
L 494 744 
Q 775 591 1075 516 
Q 1375 441 1709 441 
Q 2250 441 2565 725 
Q 2881 1009 2881 1497 
Q 2881 1984 2565 2268 
Q 2250 2553 1709 2553 
Q 1456 2553 1204 2497 
Q 953 2441 691 2322 
L 691 4666 
z
" id="DejaVuSans-35" transform="scale(0.015625)"/>
       </defs>
       <use xlink:href="#DejaVuSans-35"/>
      </g>
     </g>
    </g>
    <g id="ytick_3">
     <g id="line2d_24">
      <path clip-path="url(#p35ffe210ea)" d="M 35.47 201.720625 
L 481.87 201.720625 
" style="fill:none;stroke:#b0b0b0;stroke-linecap:square;stroke-opacity:0.3;"/>
     </g>
     <g id="line2d_25">
      <g>
       <use style="fill:#262626;stroke:#262626;" x="35.47" xlink:href="#mfd8e0f61fc" y="201.720625"/>
      </g>
     </g>
     <g id="text_8">
      <!-- 10 -->
      <g style="fill:#262626;" transform="translate(7.2 206.279688)scale(0.12 -0.12)">
       <use xlink:href="#DejaVuSans-31"/>
       <use x="63.623047" xlink:href="#DejaVuSans-30"/>
      </g>
     </g>
    </g>
    <g id="ytick_4">
     <g id="line2d_26">
      <path clip-path="url(#p35ffe210ea)" d="M 35.47 154.002188 
L 481.87 154.002188 
" style="fill:none;stroke:#b0b0b0;stroke-linecap:square;stroke-opacity:0.3;"/>
     </g>
     <g id="line2d_27">
      <g>
       <use style="fill:#262626;stroke:#262626;" x="35.47" xlink:href="#mfd8e0f61fc" y="154.002188"/>
      </g>
     </g>
     <g id="text_9">
      <!-- 15 -->
      <g style="fill:#262626;" transform="translate(7.2 158.56125)scale(0.12 -0.12)">
       <use xlink:href="#DejaVuSans-31"/>
       <use x="63.623047" xlink:href="#DejaVuSans-35"/>
      </g>
     </g>
    </g>
    <g id="ytick_5">
     <g id="line2d_28">
      <path clip-path="url(#p35ffe210ea)" d="M 35.47 106.28375 
L 481.87 106.28375 
" style="fill:none;stroke:#b0b0b0;stroke-linecap:square;stroke-opacity:0.3;"/>
     </g>
     <g id="line2d_29">
      <g>
       <use style="fill:#262626;stroke:#262626;" x="35.47" xlink:href="#mfd8e0f61fc" y="106.28375"/>
      </g>
     </g>
     <g id="text_10">
      <!-- 20 -->
      <g style="fill:#262626;" transform="translate(7.2 110.842813)scale(0.12 -0.12)">
       <use xlink:href="#DejaVuSans-32"/>
       <use x="63.623047" xlink:href="#DejaVuSans-30"/>
      </g>
     </g>
    </g>
    <g id="ytick_6">
     <g id="line2d_30">
      <path clip-path="url(#p35ffe210ea)" d="M 35.47 58.565313 
L 481.87 58.565313 
" style="fill:none;stroke:#b0b0b0;stroke-linecap:square;stroke-opacity:0.3;"/>
     </g>
     <g id="line2d_31">
      <g>
       <use style="fill:#262626;stroke:#262626;" x="35.47" xlink:href="#mfd8e0f61fc" y="58.565313"/>
      </g>
     </g>
     <g id="text_11">
      <!-- 25 -->
      <g style="fill:#262626;" transform="translate(7.2 63.124375)scale(0.12 -0.12)">
       <use xlink:href="#DejaVuSans-32"/>
       <use x="63.623047" xlink:href="#DejaVuSans-35"/>
      </g>
     </g>
    </g>
   </g>
   <g id="line2d_32">
    <path clip-path="url(#p35ffe210ea)" d="M 34.5772 297.1575 
L 72.9676 297.1575 
L 73.8604 297.022162 
L 79.2172 297.022162 
L 80.11 297.1575 
L 81.0028 297.022162 
L 81.8956 297.022162 
L 82.7884 296.751486 
L 83.6812 296.616147 
L 84.574 296.345471 
L 85.4668 295.804118 
L 86.3596 295.533442 
L 88.1452 293.774046 
L 89.038 293.232693 
L 89.9308 292.826679 
L 91.7164 291.337959 
L 92.6092 290.119916 
L 94.3948 288.766534 
L 95.2876 285.789094 
L 96.1804 284.300375 
L 97.0732 283.217669 
L 97.966 281.593611 
L 98.8588 279.157524 
L 99.7516 277.533466 
L 100.6444 276.586099 
L 101.5372 277.127452 
L 102.43 274.962041 
L 103.3228 273.743998 
L 104.2156 271.307911 
L 105.1084 269.548515 
L 106.0012 265.759046 
L 106.894 262.781607 
L 107.7868 255.067331 
L 109.5724 256.962066 
L 110.4652 256.150037 
L 111.358 252.901921 
L 113.1436 249.112452 
L 114.0364 253.984626 
L 114.9292 254.796655 
L 116.7148 251.548539 
L 117.6076 252.901921 
L 118.5004 254.661317 
L 119.3932 253.578612 
L 120.286 254.661317 
L 121.1788 254.390641 
L 122.0716 254.661317 
L 122.9644 254.796655 
L 123.8572 255.067331 
L 124.75 255.608684 
L 125.6428 257.097404 
L 126.5356 256.150037 
L 127.4284 256.420713 
L 128.3212 254.796655 
L 129.214 256.556051 
L 130.1068 257.638757 
L 130.9996 264.541003 
L 131.8924 258.315447 
L 132.7852 259.127476 
L 133.678 257.774095 
L 134.5708 260.616196 
L 135.4636 256.556051 
L 136.3564 255.067331 
L 137.2492 248.841776 
L 138.142 257.36808 
L 139.0348 256.962066 
L 139.9276 258.8568 
L 140.8204 259.668829 
L 141.7132 266.029723 
L 142.606 266.706413 
L 143.4988 266.706413 
L 144.3916 264.541003 
L 145.2844 263.593636 
L 147.07 260.886872 
L 147.9628 256.556051 
L 148.8556 257.36808 
L 149.7484 257.909433 
L 150.6412 259.939505 
L 151.534 258.992138 
L 152.4268 258.8568 
L 153.3196 260.480858 
L 154.2124 261.428225 
L 155.1052 259.398153 
L 155.998 258.992138 
L 156.8908 261.022211 
L 157.7836 260.616196 
L 158.6764 261.698901 
L 159.5692 260.480858 
L 160.462 263.052283 
L 161.3548 266.97709 
L 162.2476 268.195133 
L 163.1404 265.894384 
L 164.0332 267.383104 
L 164.926 268.330471 
L 165.8188 268.601148 
L 166.7116 268.46581 
L 167.6044 268.195133 
L 168.4972 267.518442 
L 169.39 269.548515 
L 170.2828 273.473322 
L 171.1756 272.11994 
L 172.0684 271.578587 
L 172.9612 270.360544 
L 173.854 270.495882 
L 174.7468 269.007162 
L 175.6396 271.849264 
L 176.5324 274.285351 
L 177.4252 272.525954 
L 178.318 269.007162 
L 179.2108 268.736486 
L 180.1036 264.676341 
L 180.9964 265.353032 
L 182.782 251.277863 
L 183.6748 253.578612 
L 184.5676 258.180109 
L 185.4604 254.525979 
L 186.3532 257.36808 
L 187.246 256.691389 
L 188.1388 255.338008 
L 189.0316 257.774095 
L 190.8172 258.992138 
L 191.71 261.969578 
L 192.6028 259.668829 
L 193.4956 260.074843 
L 194.3884 262.916945 
L 195.2812 261.022211 
L 196.174 261.292887 
L 197.0668 260.480858 
L 197.9596 260.34552 
L 198.8524 256.150037 
L 199.7452 257.909433 
L 200.638 253.71395 
L 201.5308 254.119964 
L 202.4236 252.22523 
L 203.3164 253.037259 
L 204.2092 252.22523 
L 205.102 255.338008 
L 205.9948 254.255303 
L 206.8876 256.962066 
L 207.7804 256.826728 
L 208.6732 258.586124 
L 209.566 257.232742 
L 210.4588 256.691389 
L 211.3516 258.721462 
L 212.2444 256.285375 
L 213.1372 257.097404 
L 214.03 259.533491 
L 214.9228 259.668829 
L 215.8156 259.668829 
L 216.7084 259.533491 
L 217.6012 258.8568 
L 218.494 259.939505 
L 219.3868 259.668829 
L 220.2796 257.638757 
L 221.1724 257.774095 
L 222.0652 258.586124 
L 222.958 260.616196 
L 223.8508 260.480858 
L 226.5292 267.112428 
L 228.3148 266.571075 
L 229.2076 266.841752 
L 230.1004 268.059795 
L 231.886 263.99965 
L 232.7788 264.541003 
L 233.6716 265.217694 
L 234.5644 263.864312 
L 235.4572 269.1425 
L 236.35 268.46581 
L 237.2428 270.63122 
L 238.1356 270.901896 
L 239.0284 270.495882 
L 239.9212 269.683853 
L 240.814 269.954529 
L 241.7068 265.082356 
L 242.5996 268.330471 
L 243.4924 270.63122 
L 244.3852 275.638732 
L 245.278 279.157524 
L 246.1708 277.533466 
L 247.0636 278.886848 
L 248.8492 280.916921 
L 249.742 279.428201 
L 250.6348 275.77407 
L 251.5276 273.60866 
L 253.3132 276.992114 
L 254.206 276.856776 
L 255.0988 276.450761 
L 255.9916 276.180085 
L 256.8844 278.480834 
L 257.7772 278.480834 
L 258.67 279.157524 
L 259.5628 278.345495 
L 260.4556 279.563539 
L 261.3484 279.157524 
L 262.2412 281.458273 
L 263.134 281.593611 
L 264.0268 280.104892 
L 264.9196 280.375568 
L 265.8124 281.052259 
L 266.7052 282.40564 
L 267.598 283.217669 
L 269.3836 281.728949 
L 270.2764 284.300375 
L 271.1692 282.946993 
L 272.062 283.082331 
L 272.9548 280.646244 
L 273.8476 279.292863 
L 274.7404 280.646244 
L 275.6332 281.052259 
L 276.526 280.104892 
L 277.4188 281.322935 
L 278.3116 280.510906 
L 279.2044 281.593611 
L 280.0972 284.165036 
L 280.99 285.247742 
L 281.8828 286.059771 
L 282.7756 286.059771 
L 283.6684 286.195109 
L 285.454 287.683829 
L 286.3468 286.736461 
L 287.2396 284.165036 
L 288.1324 283.488346 
L 289.0252 283.759022 
L 289.918 283.89436 
L 290.8108 283.488346 
L 291.7036 283.217669 
L 292.5964 283.759022 
L 293.4892 286.195109 
L 295.2748 284.165036 
L 297.9532 283.759022 
L 298.846 281.052259 
L 299.7388 277.939481 
L 300.6316 276.856776 
L 301.5244 275.09738 
L 302.4172 274.285351 
L 303.31 274.014674 
L 304.2028 270.360544 
L 305.9884 267.789119 
L 306.8812 269.007162 
L 307.774 270.901896 
L 309.5596 268.871824 
L 311.3452 270.495882 
L 312.238 269.819191 
L 313.1308 264.947017 
L 314.0236 261.563563 
L 314.9164 260.616196 
L 315.8092 259.127476 
L 316.702 256.556051 
L 318.4876 247.488394 
L 319.3804 248.841776 
L 320.2732 245.322984 
L 321.166 244.510955 
L 322.9516 238.826752 
L 323.8444 230.435786 
L 324.7372 227.458346 
L 325.63 221.638805 
L 326.5228 222.992187 
L 327.4156 219.06738 
L 328.3084 217.849337 
L 329.2012 217.984675 
L 330.094 217.984675 
L 330.9868 211.217767 
L 331.8796 223.804216 
L 332.7724 213.112501 
L 333.6652 215.007235 
L 334.558 212.706487 
L 337.2364 155.593782 
L 338.1292 127.578782 
L 339.022 128.796826 
L 339.9148 122.435932 
L 340.8076 121.89458 
L 341.7004 122.706609 
L 342.5932 125.007357 
L 343.486 134.751705 
L 344.3788 119.729169 
L 345.2716 107.413396 
L 346.1644 97.263034 
L 347.95 80.210426 
L 348.8428 76.96231 
L 349.7356 68.571344 
L 350.6284 77.097648 
L 351.5212 72.902165 
L 352.414 80.887116 
L 353.3068 87.518686 
L 354.1996 101.187841 
L 355.0924 103.759266 
L 355.9852 106.736705 
L 356.878 107.007382 
L 357.7708 104.841971 
L 358.6636 106.060015 
L 359.5564 112.150232 
L 360.4492 98.210401 
L 361.342 92.39086 
L 362.2348 98.751754 
L 363.1276 102.541222 
L 364.0204 96.180329 
L 364.9132 92.796875 
L 365.806 87.24801 
L 366.6988 98.887092 
L 367.5916 106.195353 
L 368.4844 103.353251 
L 369.3772 103.353251 
L 370.27 120.135184 
L 371.1628 124.736681 
L 372.0556 123.789314 
L 372.9484 120.811874 
L 373.8412 135.83441 
L 374.734 145.714096 
L 375.6268 158.435884 
L 376.5196 157.894531 
L 377.4124 158.841898 
L 378.3052 167.232864 
L 379.198 181.443371 
L 380.0908 179.683975 
L 380.9836 181.308033 
L 381.8764 179.007284 
L 382.7692 187.668927 
L 383.662 186.315545 
L 384.5548 187.668927 
L 385.4476 183.202767 
L 386.3404 78.045015 
L 387.2332 82.240498 
L 388.126 83.458542 
L 389.0188 89.413421 
L 390.8044 85.623952 
L 391.6972 94.556271 
L 392.59 204.856873 
L 394.3756 206.616269 
L 395.2684 205.12755 
L 396.1612 216.766632 
L 397.054 219.473395 
L 397.9468 223.398201 
L 398.8396 223.53354 
L 399.7324 225.969627 
L 400.6252 243.834264 
L 401.518 237.879385 
L 402.4108 236.932018 
L 403.3036 238.285399 
L 404.1964 240.315472 
L 405.0892 247.488394 
L 405.982 248.435762 
L 406.8748 240.586148 
L 407.7676 252.360568 
L 408.6604 251.683877 
L 409.5532 248.706438 
L 410.446 249.518467 
L 411.3388 245.728998 
L 413.1244 252.089892 
L 414.0172 256.150037 
L 414.91 257.503418 
L 416.6956 264.811679 
L 417.5884 272.390616 
L 418.4812 274.285351 
L 419.374 272.796631 
L 420.2668 270.901896 
L 421.1596 270.360544 
L 422.0524 270.089868 
L 422.9452 271.172573 
L 423.838 270.495882 
L 424.7308 270.225206 
L 426.5164 271.037235 
L 427.4092 271.172573 
L 428.302 269.819191 
L 429.1948 269.683853 
L 430.0876 268.330471 
L 431.8732 274.150012 
L 432.766 275.503394 
L 433.6588 275.503394 
L 434.5516 277.533466 
L 435.4444 275.09738 
L 436.3372 276.992114 
L 437.23 275.909408 
L 438.1228 275.368056 
L 439.0156 275.77407 
L 439.9084 276.992114 
L 440.8012 276.721437 
L 441.694 279.022186 
L 442.5868 279.698877 
L 443.4796 280.646244 
L 444.3724 278.616172 
L 445.2652 279.022186 
L 446.158 277.668805 
L 447.0508 277.668805 
L 447.9436 278.210157 
L 448.8364 280.104892 
L 449.7292 281.052259 
L 450.622 284.706389 
L 451.5148 285.112404 
L 452.4076 286.8718 
L 453.3004 285.924433 
L 454.1932 285.247742 
L 455.086 284.841727 
L 455.9788 284.977065 
L 456.8716 284.706389 
L 457.7644 284.571051 
L 458.6572 284.571051 
L 459.55 284.435713 
L 460.4428 284.571051 
L 462.2284 286.8718 
L 463.1212 285.653756 
L 464.014 286.465785 
L 464.9068 286.736461 
L 465.7996 286.736461 
L 467.5852 286.465785 
L 468.478 273.067307 
L 469.3708 272.796631 
L 470.2636 273.202645 
L 471.1564 274.556027 
L 472.0492 275.09738 
L 472.942 275.09738 
L 473.8348 276.180085 
L 474.7276 289.849239 
L 475.6204 292.01465 
L 476.5132 291.337959 
L 477.406 290.119916 
L 477.406 290.119916 
" style="fill:none;stroke:#4c72b0;stroke-linecap:square;stroke-width:2;"/>
   </g>
   <g id="line2d_33">
    <path clip-path="url(#p35ffe210ea)" d="M 34.5772 297.1575 
L 81.8956 297.1575 
L 82.7884 296.037476 
L 84.574 296.037476 
L 85.4668 294.917452 
L 88.1452 294.917452 
L 89.038 296.037476 
L 90.8236 296.037476 
L 91.7164 297.1575 
L 94.3948 297.1575 
L 96.1804 294.917452 
L 97.0732 294.917452 
L 97.966 292.677404 
L 98.8588 288.197308 
L 99.7516 285.95726 
L 100.6444 279.237116 
L 101.5372 279.237116 
L 102.43 280.35714 
L 103.3228 278.117092 
L 104.2156 276.997068 
L 105.1084 279.237116 
L 106.0012 268.036876 
L 106.894 269.1569 
L 109.5724 259.076684 
L 110.4652 248.996468 
L 111.358 243.396348 
L 112.2508 262.436756 
L 113.1436 265.796828 
L 114.0364 268.036876 
L 114.9292 271.396948 
L 115.822 270.276924 
L 116.7148 274.75702 
L 117.6076 283.717212 
L 118.5004 269.1569 
L 119.3932 265.796828 
L 120.286 264.676804 
L 121.1788 264.676804 
L 122.0716 271.396948 
L 122.9644 272.516972 
L 123.8572 269.1569 
L 124.75 271.396948 
L 125.6428 274.75702 
L 126.5356 276.997068 
L 127.4284 274.75702 
L 128.3212 273.636996 
L 129.214 276.997068 
L 130.1068 265.796828 
L 130.9996 272.516972 
L 131.8924 272.516972 
L 132.7852 271.396948 
L 133.678 273.636996 
L 134.5708 274.75702 
L 135.4636 276.997068 
L 136.3564 288.197308 
L 137.2492 287.077284 
L 138.142 282.597188 
L 139.0348 280.35714 
L 140.8204 278.117092 
L 142.606 282.597188 
L 143.4988 282.597188 
L 144.3916 288.197308 
L 145.2844 291.55738 
L 146.1772 292.677404 
L 147.07 292.677404 
L 148.8556 290.437356 
L 149.7484 291.55738 
L 150.6412 290.437356 
L 151.534 291.55738 
L 153.3196 291.55738 
L 154.2124 292.677404 
L 155.1052 292.677404 
L 155.998 291.55738 
L 156.8908 293.797428 
L 157.7836 292.677404 
L 158.6764 292.677404 
L 159.5692 291.55738 
L 160.462 288.197308 
L 162.2476 290.437356 
L 163.1404 289.317332 
L 164.926 289.317332 
L 165.8188 291.55738 
L 166.7116 294.917452 
L 167.6044 293.797428 
L 168.4972 291.55738 
L 169.39 291.55738 
L 170.2828 289.317332 
L 173.854 289.317332 
L 174.7468 290.437356 
L 175.6396 289.317332 
L 176.5324 292.677404 
L 178.318 292.677404 
L 179.2108 288.197308 
L 180.1036 287.077284 
L 181.8892 289.317332 
L 182.782 288.197308 
L 184.5676 288.197308 
L 185.4604 291.55738 
L 186.3532 288.197308 
L 187.246 287.077284 
L 189.0316 287.077284 
L 189.9244 285.95726 
L 190.8172 285.95726 
L 191.71 283.717212 
L 194.3884 280.35714 
L 195.2812 280.35714 
L 196.174 281.477164 
L 197.0668 281.477164 
L 197.9596 276.997068 
L 199.7452 279.237116 
L 200.638 276.997068 
L 201.5308 276.997068 
L 202.4236 274.75702 
L 203.3164 274.75702 
L 204.2092 281.477164 
L 205.102 281.477164 
L 206.8876 276.997068 
L 207.7804 276.997068 
L 208.6732 278.117092 
L 210.4588 278.117092 
L 211.3516 269.1569 
L 212.2444 266.916852 
L 214.03 269.1569 
L 214.9228 264.676804 
L 215.8156 262.436756 
L 216.7084 262.436756 
L 217.6012 270.276924 
L 218.494 274.75702 
L 219.3868 273.636996 
L 220.2796 271.396948 
L 221.1724 276.997068 
L 222.0652 279.237116 
L 223.8508 274.75702 
L 224.7436 274.75702 
L 225.6364 273.636996 
L 226.5292 270.276924 
L 228.3148 270.276924 
L 230.1004 268.036876 
L 230.9932 268.036876 
L 231.886 270.276924 
L 232.7788 275.877044 
L 234.5644 275.877044 
L 235.4572 280.35714 
L 236.35 280.35714 
L 237.2428 281.477164 
L 238.1356 283.717212 
L 239.0284 282.597188 
L 240.814 282.597188 
L 241.7068 281.477164 
L 242.5996 291.55738 
L 243.4924 288.197308 
L 244.3852 287.077284 
L 245.278 284.837236 
L 247.0636 284.837236 
L 247.9564 285.95726 
L 248.8492 282.597188 
L 249.742 285.95726 
L 250.6348 285.95726 
L 251.5276 289.317332 
L 254.206 289.317332 
L 255.0988 290.437356 
L 259.5628 290.437356 
L 260.4556 285.95726 
L 261.3484 284.837236 
L 265.8124 284.837236 
L 266.7052 289.317332 
L 267.598 292.677404 
L 268.4908 292.677404 
L 270.2764 288.197308 
L 272.062 288.197308 
L 272.9548 287.077284 
L 273.8476 275.877044 
L 274.7404 274.75702 
L 276.526 279.237116 
L 279.2044 279.237116 
L 280.0972 285.95726 
L 280.99 284.837236 
L 281.8828 281.477164 
L 282.7756 282.597188 
L 284.5612 282.597188 
L 285.454 280.35714 
L 286.3468 279.237116 
L 287.2396 281.477164 
L 288.1324 284.837236 
L 289.0252 282.597188 
L 290.8108 282.597188 
L 291.7036 284.837236 
L 292.5964 284.837236 
L 293.4892 281.477164 
L 294.382 283.717212 
L 295.2748 284.837236 
L 296.1676 284.837236 
L 297.0604 283.717212 
L 297.9532 281.477164 
L 298.846 283.717212 
L 299.7388 287.077284 
L 300.6316 285.95726 
L 301.5244 270.276924 
L 302.4172 270.276924 
L 303.31 271.396948 
L 304.2028 270.276924 
L 305.0956 260.196708 
L 305.9884 260.196708 
L 306.8812 256.836636 
L 307.774 271.396948 
L 308.6668 271.396948 
L 309.5596 265.796828 
L 310.4524 261.316732 
L 311.3452 254.596588 
L 312.238 237.796228 
L 313.1308 223.235916 
L 314.0236 218.75582 
L 314.9164 218.75582 
L 315.8092 224.35594 
L 316.702 218.75582 
L 317.5948 204.195509 
L 318.4876 203.075485 
L 319.3804 198.595389 
L 320.2732 178.434957 
L 321.166 167.234717 
L 322.0588 161.634597 
L 322.9516 152.674405 
L 323.8444 160.514573 
L 324.7372 149.314333 
L 326.5228 147.074285 
L 327.4156 149.314333 
L 328.3084 147.074285 
L 329.2012 153.794429 
L 330.094 156.034477 
L 330.9868 161.634597 
L 331.8796 176.194909 
L 332.7724 195.235317 
L 334.558 190.755221 
L 335.4508 177.314933 
L 336.3436 173.954861 
L 337.2364 161.634597 
L 338.1292 143.714213 
L 339.022 145.954261 
L 339.9148 150.434357 
L 340.8076 151.554381 
L 341.7004 164.994669 
L 342.5932 160.514573 
L 343.486 175.074885 
L 344.3788 177.314933 
L 345.2716 149.314333 
L 346.1644 148.194309 
L 347.0572 143.714213 
L 347.95 142.594189 
L 348.8428 124.673805 
L 349.7356 119.073685 
L 350.6284 119.073685 
L 351.5212 130.273925 
L 352.414 124.673805 
L 353.3068 135.874045 
L 355.0924 166.114693 
L 355.9852 166.114693 
L 356.878 172.834837 
L 357.7708 185.155101 
L 358.6636 189.635197 
L 359.5564 186.275125 
L 360.4492 167.234717 
L 361.342 184.035077 
L 362.2348 195.235317 
L 363.1276 199.715413 
L 364.0204 191.875245 
L 366.6988 205.315533 
L 367.5916 203.075485 
L 368.4844 204.195509 
L 369.3772 212.035677 
L 370.27 218.75582 
L 371.1628 217.635796 
L 372.0556 218.75582 
L 372.9484 225.475964 
L 373.8412 237.796228 
L 374.734 238.916252 
L 375.6268 236.676204 
L 376.5196 233.316132 
L 377.4124 237.796228 
L 378.3052 235.55618 
L 379.198 244.516372 
L 380.0908 241.1563 
L 380.9836 245.636396 
L 381.8764 246.75642 
L 382.7692 250.116492 
L 383.662 251.236516 
L 384.5548 248.996468 
L 385.4476 241.1563 
L 387.2332 250.116492 
L 388.126 252.35654 
L 389.0188 263.55678 
L 389.9116 257.95666 
L 390.8044 262.436756 
L 391.6972 260.196708 
L 392.59 263.55678 
L 393.4828 263.55678 
L 394.3756 266.916852 
L 395.2684 260.196708 
L 396.1612 257.95666 
L 397.054 257.95666 
L 397.9468 263.55678 
L 399.7324 268.036876 
L 400.6252 269.1569 
L 401.518 275.877044 
L 402.4108 283.717212 
L 403.3036 281.477164 
L 404.1964 285.95726 
L 405.0892 283.717212 
L 405.982 285.95726 
L 406.8748 285.95726 
L 407.7676 283.717212 
L 408.6604 282.597188 
L 409.5532 284.837236 
L 410.446 282.597188 
L 412.2316 275.877044 
L 414.0172 273.636996 
L 414.91 273.636996 
L 415.8028 272.516972 
L 416.6956 270.276924 
L 418.4812 270.276924 
L 419.374 271.396948 
L 420.2668 273.636996 
L 421.1596 274.75702 
L 422.0524 273.636996 
L 422.9452 278.117092 
L 423.838 283.717212 
L 425.6236 276.997068 
L 427.4092 274.75702 
L 428.302 275.877044 
L 429.1948 264.676804 
L 430.0876 259.076684 
L 430.9804 265.796828 
L 431.8732 265.796828 
L 432.766 264.676804 
L 433.6588 264.676804 
L 434.5516 265.796828 
L 435.4444 269.1569 
L 436.3372 275.877044 
L 437.23 275.877044 
L 438.1228 279.237116 
L 439.0156 281.477164 
L 439.9084 280.35714 
L 440.8012 280.35714 
L 441.694 288.197308 
L 442.5868 283.717212 
L 443.4796 280.35714 
L 444.3724 280.35714 
L 445.2652 279.237116 
L 447.0508 279.237116 
L 447.9436 271.396948 
L 449.7292 273.636996 
L 451.5148 271.396948 
L 452.4076 273.636996 
L 453.3004 272.516972 
L 454.1932 276.997068 
L 455.086 276.997068 
L 455.9788 275.877044 
L 456.8716 275.877044 
L 457.7644 276.997068 
L 458.6572 272.516972 
L 459.55 270.276924 
L 460.4428 272.516972 
L 461.3356 269.1569 
L 462.2284 271.396948 
L 463.1212 274.75702 
L 464.014 270.276924 
L 464.9068 274.75702 
L 465.7996 278.117092 
L 466.6924 279.237116 
L 467.5852 282.597188 
L 468.478 281.477164 
L 469.3708 276.997068 
L 470.2636 280.35714 
L 471.1564 280.35714 
L 472.0492 279.237116 
L 472.942 280.35714 
L 473.8348 280.35714 
L 474.7276 281.477164 
L 475.6204 285.95726 
L 476.5132 287.077284 
L 477.406 285.95726 
L 477.406 285.95726 
" style="fill:none;stroke:#55a868;stroke-linecap:square;stroke-width:2;"/>
   </g>
   <g id="line2d_34">
    <path clip-path="url(#p35ffe210ea)" d="M 34.5772 297.1575 
L 86.3596 297.1575 
L 87.2524 294.19271 
L 88.1452 288.26313 
L 89.9308 288.26313 
L 90.8236 285.29834 
L 91.7164 285.29834 
L 92.6092 279.368759 
L 93.502 271.956784 
L 94.3948 273.439179 
L 95.2876 267.509599 
L 97.0732 264.544809 
L 97.966 255.650439 
L 98.8588 258.615229 
L 99.7516 257.132834 
L 100.6444 243.791278 
L 101.5372 243.791278 
L 102.43 226.002538 
L 103.3228 214.143377 
L 104.2156 203.766612 
L 105.1084 190.425057 
L 106.0012 194.872242 
L 106.894 212.660982 
L 107.7868 218.590562 
L 108.6796 191.907452 
L 109.5724 197.837032 
L 110.4652 205.249007 
L 111.358 202.284217 
L 112.2508 202.284217 
L 113.1436 194.872242 
L 114.0364 172.636316 
L 114.9292 209.696192 
L 115.822 215.625772 
L 116.7148 215.625772 
L 117.6076 228.967328 
L 118.5004 226.002538 
L 119.3932 224.520143 
L 120.286 231.932118 
L 122.0716 228.967328 
L 122.9644 226.002538 
L 123.8572 122.234884 
L 124.75 114.822909 
L 125.6428 114.822909 
L 126.5356 111.858119 
L 127.4284 110.375724 
L 128.3212 99.998959 
L 129.214 102.963749 
L 130.1068 202.284217 
L 130.9996 206.731402 
L 131.8924 206.731402 
L 132.7852 208.213797 
L 133.678 205.249007 
L 134.5708 212.660982 
L 136.3564 218.590562 
L 137.2492 220.072957 
L 138.142 214.143377 
L 139.9276 228.967328 
L 140.8204 228.967328 
L 141.7132 226.002538 
L 142.606 224.520143 
L 143.4988 221.555353 
L 144.3916 231.932118 
L 145.2844 234.896908 
L 146.1772 242.308883 
L 147.07 240.826488 
L 147.9628 246.756068 
L 148.8556 249.720858 
L 149.7484 257.132834 
L 150.6412 258.615229 
L 151.534 258.615229 
L 152.4268 254.168044 
L 153.3196 258.615229 
L 154.2124 255.650439 
L 155.1052 257.132834 
L 155.998 260.097624 
L 156.8908 260.097624 
L 158.6764 257.132834 
L 159.5692 260.097624 
L 160.462 264.544809 
L 161.3548 267.509599 
L 163.1404 270.474389 
L 164.0332 274.921574 
L 164.926 277.886364 
L 165.8188 277.886364 
L 166.7116 280.851154 
L 169.39 285.29834 
L 172.0684 294.19271 
L 173.854 291.22792 
L 176.5324 291.22792 
L 177.4252 289.745525 
L 179.2108 289.745525 
L 180.9964 292.710315 
L 181.8892 292.710315 
L 182.782 291.22792 
L 183.6748 292.710315 
L 184.5676 291.22792 
L 185.4604 292.710315 
L 186.3532 289.745525 
L 189.0316 285.29834 
L 189.9244 285.29834 
L 190.8172 282.33355 
L 193.4956 286.780735 
L 195.2812 283.815945 
L 196.174 283.815945 
L 197.0668 288.26313 
L 198.8524 288.26313 
L 199.7452 286.780735 
L 200.638 289.745525 
L 201.5308 294.19271 
L 202.4236 294.19271 
L 204.2092 291.22792 
L 205.102 292.710315 
L 205.9948 334.217376 
L 206.8876 332.734981 
L 207.7804 332.734981 
L 208.6732 331.252586 
L 209.566 332.734981 
L 210.4588 332.734981 
L 211.3516 329.770191 
L 212.2444 289.745525 
L 213.1372 291.22792 
L 214.9228 291.22792 
L 215.8156 289.745525 
L 217.6012 292.710315 
L 221.1724 292.710315 
L 222.0652 294.19271 
L 222.958 294.19271 
L 223.8508 295.675105 
L 228.3148 295.675105 
L 229.2076 294.19271 
L 232.7788 294.19271 
L 233.6716 292.710315 
L 235.4572 292.710315 
L 236.35 291.22792 
L 237.2428 286.780735 
L 238.1356 285.29834 
L 239.0284 285.29834 
L 239.9212 288.26313 
L 240.814 286.780735 
L 241.7068 283.815945 
L 242.5996 285.29834 
L 243.4924 289.745525 
L 245.278 286.780735 
L 246.1708 286.780735 
L 247.0636 288.26313 
L 247.9564 291.22792 
L 249.742 291.22792 
L 250.6348 294.19271 
L 252.4204 294.19271 
L 253.3132 292.710315 
L 254.206 294.19271 
L 255.0988 294.19271 
L 255.9916 291.22792 
L 256.8844 291.22792 
L 257.7772 289.745525 
L 258.67 285.29834 
L 259.5628 285.29834 
L 261.3484 282.33355 
L 262.2412 283.815945 
L 263.134 283.815945 
L 264.0268 285.29834 
L 264.9196 288.26313 
L 265.8124 288.26313 
L 267.598 291.22792 
L 269.3836 291.22792 
L 270.2764 292.710315 
L 271.1692 292.710315 
L 272.062 294.19271 
L 272.9548 291.22792 
L 273.8476 291.22792 
L 274.7404 288.26313 
L 275.6332 286.780735 
L 276.526 286.780735 
L 277.4188 288.26313 
L 278.3116 285.29834 
L 279.2044 288.26313 
L 280.0972 283.815945 
L 280.99 288.26313 
L 281.8828 288.26313 
L 282.7756 286.780735 
L 283.6684 286.780735 
L 284.5612 288.26313 
L 285.454 286.780735 
L 286.3468 289.745525 
L 287.2396 288.26313 
L 288.1324 289.745525 
L 289.0252 286.780735 
L 289.918 280.851154 
L 290.8108 277.886364 
L 291.7036 270.474389 
L 292.5964 268.991994 
L 294.382 257.132834 
L 296.1676 254.168044 
L 297.0604 245.273673 
L 297.9532 237.861698 
L 298.846 234.896908 
L 299.7388 234.896908 
L 300.6316 236.379303 
L 301.5244 228.967328 
L 302.4172 233.414513 
L 303.31 231.932118 
L 304.2028 236.379303 
L 305.0956 228.967328 
L 305.9884 214.143377 
L 306.8812 209.696192 
L 307.774 214.143377 
L 308.6668 196.354637 
L 309.5596 194.872242 
L 310.4524 191.907452 
L 311.3452 181.530686 
L 312.238 187.460266 
L 313.1308 187.460266 
L 314.0236 180.048291 
L 314.9164 197.837032 
L 315.8092 197.837032 
L 316.702 200.801822 
L 317.5948 206.731402 
L 318.4876 199.319427 
L 319.3804 184.495476 
L 320.2732 181.530686 
L 321.166 159.294761 
L 322.0588 163.741946 
L 322.9516 160.777156 
L 323.8444 160.777156 
L 324.7372 156.32997 
L 325.63 157.812365 
L 326.5228 154.847575 
L 327.4156 160.777156 
L 329.2012 148.917995 
L 330.094 138.54123 
L 330.9868 148.917995 
L 331.8796 150.40039 
L 332.7724 159.294761 
L 333.6652 163.741946 
L 334.558 169.671526 
L 335.4508 178.565896 
L 336.3436 177.083501 
L 337.2364 178.565896 
L 339.022 175.601106 
L 339.9148 175.601106 
L 340.8076 171.153921 
L 341.7004 169.671526 
L 342.5932 187.460266 
L 343.486 194.872242 
L 344.3788 188.942661 
L 345.2716 199.319427 
L 346.1644 202.284217 
L 347.0572 206.731402 
L 347.95 203.766612 
L 348.8428 203.766612 
L 349.7356 193.389847 
L 350.6284 212.660982 
L 351.5212 200.801822 
L 352.414 197.837032 
L 353.3068 193.389847 
L 354.1996 194.872242 
L 355.0924 193.389847 
L 355.9852 196.354637 
L 356.878 196.354637 
L 357.7708 209.696192 
L 358.6636 220.072957 
L 359.5564 228.967328 
L 360.4492 236.379303 
L 361.342 233.414513 
L 362.2348 233.414513 
L 363.1276 231.932118 
L 364.0204 226.002538 
L 366.6988 221.555353 
L 367.5916 227.484933 
L 368.4844 237.861698 
L 369.3772 243.791278 
L 370.27 240.826488 
L 371.1628 234.896908 
L 372.0556 239.344093 
L 372.9484 233.414513 
L 373.8412 237.861698 
L 374.734 234.896908 
L 375.6268 226.002538 
L 376.5196 231.932118 
L 377.4124 233.414513 
L 378.3052 231.932118 
L 379.198 240.826488 
L 380.0908 240.826488 
L 380.9836 243.791278 
L 381.8764 248.238463 
L 382.7692 246.756068 
L 383.662 255.650439 
L 384.5548 254.168044 
L 386.3404 257.132834 
L 387.2332 249.720858 
L 388.126 255.650439 
L 389.0188 260.097624 
L 389.9116 257.132834 
L 390.8044 261.580019 
L 391.6972 260.097624 
L 392.59 261.580019 
L 393.4828 273.439179 
L 395.2684 270.474389 
L 396.1612 271.956784 
L 397.054 270.474389 
L 397.9468 274.921574 
L 398.8396 271.956784 
L 399.7324 271.956784 
L 400.6252 276.403969 
L 401.518 279.368759 
L 402.4108 279.368759 
L 403.3036 282.33355 
L 404.1964 282.33355 
L 405.0892 286.780735 
L 405.982 286.780735 
L 406.8748 283.815945 
L 407.7676 283.815945 
L 408.6604 282.33355 
L 410.446 285.29834 
L 412.2316 282.33355 
L 413.1244 283.815945 
L 414.0172 282.33355 
L 414.91 285.29834 
L 415.8028 280.851154 
L 416.6956 279.368759 
L 417.5884 279.368759 
L 418.4812 277.886364 
L 419.374 274.921574 
L 420.2668 273.439179 
L 421.1596 270.474389 
L 422.0524 274.921574 
L 422.9452 276.403969 
L 423.838 274.921574 
L 425.6236 280.851154 
L 426.5164 282.33355 
L 427.4092 280.851154 
L 428.302 274.921574 
L 429.1948 271.956784 
L 430.0876 267.509599 
L 430.9804 261.580019 
L 431.8732 258.615229 
L 432.766 252.685649 
L 433.6588 254.168044 
L 436.3372 254.168044 
L 437.23 257.132834 
L 438.1228 258.615229 
L 439.0156 266.027204 
L 439.9084 263.062414 
L 440.8012 264.544809 
L 441.694 263.062414 
L 442.5868 263.062414 
L 443.4796 261.580019 
L 444.3724 258.615229 
L 445.2652 258.615229 
L 446.158 263.062414 
L 447.0508 263.062414 
L 447.9436 260.097624 
L 448.8364 267.509599 
L 450.622 273.439179 
L 451.5148 271.956784 
L 452.4076 271.956784 
L 454.1932 277.886364 
L 455.086 276.403969 
L 456.8716 282.33355 
L 457.7644 283.815945 
L 458.6572 283.815945 
L 459.55 285.29834 
L 460.4428 288.26313 
L 461.3356 289.745525 
L 462.2284 288.26313 
L 464.014 288.26313 
L 464.9068 289.745525 
L 465.7996 285.29834 
L 466.6924 283.815945 
L 468.478 286.780735 
L 469.3708 285.29834 
L 471.1564 288.26313 
L 472.0492 286.780735 
L 472.942 288.26313 
L 475.6204 283.815945 
L 477.406 283.815945 
L 477.406 283.815945 
" style="fill:none;stroke:#c44e52;stroke-linecap:square;stroke-width:2;"/>
   </g>
   <g id="line2d_35">
    <path clip-path="url(#p35ffe210ea)" d="M 34.5772 297.1575 
L 63.1468 297.1575 
L 64.0396 296.545668 
L 64.9324 295.322005 
L 65.8252 293.486509 
L 66.718 291.039182 
L 67.6108 290.42735 
L 68.5036 290.42735 
L 69.3964 289.815519 
L 70.2892 287.980023 
L 72.0748 287.980023 
L 72.9676 289.203687 
L 73.8604 287.368191 
L 74.7532 286.75636 
L 75.646 284.309032 
L 76.5388 284.920864 
L 77.4316 284.920864 
L 78.3244 283.085369 
L 79.2172 282.473537 
L 80.11 278.802546 
L 81.0028 276.967051 
L 81.8956 275.743387 
L 82.7884 272.684229 
L 83.6812 273.29606 
L 84.574 270.236901 
L 85.4668 267.789574 
L 86.3596 270.236901 
L 87.2524 266.565911 
L 88.1452 261.059425 
L 89.038 259.223929 
L 89.9308 254.941107 
L 90.8236 258.000266 
L 91.7164 262.283088 
L 92.6092 257.388434 
L 93.502 256.776602 
L 94.3948 259.835761 
L 95.2876 256.776602 
L 96.1804 258.000266 
L 97.966 248.210957 
L 98.8588 248.210957 
L 99.7516 246.375462 
L 100.6444 241.480807 
L 101.5372 246.987294 
L 102.43 245.76363 
L 103.3228 251.881948 
L 104.2156 252.49378 
L 105.1084 255.552939 
L 106.0012 259.223929 
L 106.894 264.118584 
L 107.7868 262.89492 
L 108.6796 264.118584 
L 109.5724 258.000266 
L 110.4652 254.941107 
L 111.358 256.16477 
L 112.2508 258.000266 
L 113.1436 260.447593 
L 114.0364 261.059425 
L 114.9292 259.223929 
L 115.822 262.89492 
L 116.7148 263.506752 
L 117.6076 262.283088 
L 118.5004 259.223929 
L 119.3932 261.671256 
L 120.286 263.506752 
L 122.0716 268.401406 
L 122.9644 271.460565 
L 124.75 276.355219 
L 125.6428 275.131556 
L 126.5356 275.131556 
L 127.4284 272.072397 
L 128.3212 271.460565 
L 129.214 271.460565 
L 130.1068 272.684229 
L 130.9996 276.355219 
L 131.8924 275.131556 
L 132.7852 275.131556 
L 133.678 280.638042 
L 134.5708 283.085369 
L 135.4636 283.085369 
L 136.3564 284.920864 
L 137.2492 281.861705 
L 138.142 284.309032 
L 139.0348 287.368191 
L 139.9276 284.920864 
L 140.8204 283.697201 
L 141.7132 286.144528 
L 142.606 281.861705 
L 143.4988 283.085369 
L 144.3916 283.697201 
L 145.2844 281.861705 
L 146.1772 284.920864 
L 147.9628 286.144528 
L 148.8556 288.591855 
L 149.7484 289.815519 
L 150.6412 289.815519 
L 151.534 291.651014 
L 152.4268 290.42735 
L 153.3196 291.039182 
L 154.2124 291.039182 
L 155.1052 292.874677 
L 155.998 291.651014 
L 156.8908 291.039182 
L 157.7836 287.980023 
L 158.6764 289.203687 
L 159.5692 289.203687 
L 160.462 287.980023 
L 161.3548 290.42735 
L 162.2476 288.591855 
L 163.1404 288.591855 
L 164.0332 291.039182 
L 164.926 291.651014 
L 165.8188 291.039182 
L 166.7116 291.651014 
L 167.6044 289.203687 
L 168.4972 291.651014 
L 169.39 292.874677 
L 170.2828 291.651014 
L 171.1756 291.039182 
L 172.9612 293.486509 
L 173.854 292.262846 
L 174.7468 291.651014 
L 175.6396 290.42735 
L 176.5324 291.651014 
L 177.4252 291.039182 
L 178.318 289.815519 
L 179.2108 287.368191 
L 180.1036 287.368191 
L 180.9964 286.75636 
L 181.8892 287.980023 
L 182.782 288.591855 
L 183.6748 286.75636 
L 184.5676 287.980023 
L 185.4604 286.75636 
L 186.3532 284.309032 
L 187.246 286.144528 
L 188.1388 286.75636 
L 189.0316 283.085369 
L 189.9244 286.75636 
L 190.8172 286.144528 
L 191.71 288.591855 
L 192.6028 292.262846 
L 193.4956 292.874677 
L 194.3884 291.039182 
L 195.2812 294.098341 
L 196.174 292.874677 
L 197.0668 292.874677 
L 197.9596 292.262846 
L 198.8524 292.262846 
L 199.7452 291.651014 
L 200.638 293.486509 
L 201.5308 290.42735 
L 202.4236 289.203687 
L 203.3164 289.203687 
L 204.2092 290.42735 
L 205.102 290.42735 
L 205.9948 288.591855 
L 206.8876 284.309032 
L 207.7804 284.920864 
L 208.6732 286.75636 
L 209.566 286.144528 
L 210.4588 284.920864 
L 211.3516 284.309032 
L 212.2444 283.085369 
L 213.1372 287.368191 
L 214.03 288.591855 
L 214.9228 284.920864 
L 215.8156 286.144528 
L 216.7084 285.532696 
L 217.6012 284.309032 
L 218.494 284.309032 
L 219.3868 282.473537 
L 220.2796 283.085369 
L 221.1724 285.532696 
L 222.0652 283.697201 
L 222.958 286.75636 
L 223.8508 286.144528 
L 224.7436 287.980023 
L 226.5292 290.42735 
L 227.422 291.039182 
L 228.3148 292.874677 
L 229.2076 289.203687 
L 230.1004 289.815519 
L 230.9932 291.039182 
L 231.886 289.815519 
L 232.7788 289.815519 
L 233.6716 289.203687 
L 234.5644 289.203687 
L 235.4572 292.262846 
L 236.35 289.815519 
L 237.2428 289.815519 
L 238.1356 291.651014 
L 239.0284 291.651014 
L 239.9212 292.262846 
L 240.814 290.42735 
L 241.7068 289.815519 
L 242.5996 293.486509 
L 243.4924 293.486509 
L 244.3852 292.874677 
L 246.1708 292.874677 
L 247.0636 293.486509 
L 247.9564 291.651014 
L 248.8492 291.039182 
L 249.742 291.651014 
L 250.6348 286.75636 
L 252.4204 286.75636 
L 253.3132 287.980023 
L 254.206 294.710173 
L 255.9916 297.1575 
L 256.8844 297.769332 
L 258.67 297.769332 
L 259.5628 295.322005 
L 260.4556 288.591855 
L 261.3484 285.532696 
L 262.2412 283.085369 
L 263.134 286.75636 
L 264.9196 286.75636 
L 265.8124 289.203687 
L 266.7052 289.203687 
L 267.598 291.039182 
L 269.3836 292.262846 
L 270.2764 291.651014 
L 271.1692 291.651014 
L 272.062 291.039182 
L 272.9548 289.815519 
L 273.8476 291.039182 
L 274.7404 292.874677 
L 276.526 294.098341 
L 277.4188 294.098341 
L 278.3116 287.980023 
L 279.2044 291.651014 
L 280.0972 288.591855 
L 280.99 287.368191 
L 281.8828 286.75636 
L 283.6684 286.75636 
L 284.5612 292.262846 
L 285.454 289.815519 
L 286.3468 292.262846 
L 287.2396 292.262846 
L 288.1324 292.874677 
L 289.918 292.874677 
L 290.8108 291.651014 
L 292.5964 292.874677 
L 293.4892 287.368191 
L 294.382 288.591855 
L 296.1676 288.591855 
L 297.0604 289.815519 
L 297.9532 287.368191 
L 298.846 287.368191 
L 299.7388 292.262846 
L 300.6316 290.42735 
L 302.4172 290.42735 
L 303.31 284.309032 
L 304.2028 285.532696 
L 305.0956 284.309032 
L 306.8812 285.532696 
L 308.6668 285.532696 
L 309.5596 283.697201 
L 310.4524 283.085369 
L 313.1308 267.789574 
L 314.9164 267.789574 
L 315.8092 268.401406 
L 316.702 271.460565 
L 317.5948 268.401406 
L 318.4876 303.88765 
L 319.3804 298.381164 
L 321.166 298.381164 
L 322.0588 303.275818 
L 322.9516 297.769332 
L 323.8444 306.946809 
L 324.7372 262.283088 
L 325.63 280.638042 
L 327.4156 280.638042 
L 328.3084 284.309032 
L 329.2012 285.532696 
L 330.094 279.414378 
L 330.9868 292.262846 
L 331.8796 284.920864 
L 333.6652 284.920864 
L 334.558 284.309032 
L 335.4508 261.671256 
L 336.3436 258.612097 
L 337.2364 251.881948 
L 339.022 251.881948 
L 339.9148 252.49378 
L 340.8076 251.270116 
L 341.7004 269.013238 
L 342.5932 267.789574 
L 343.486 270.848733 
L 344.3788 263.506752 
L 345.2716 263.506752 
L 346.1644 262.89492 
L 347.0572 264.730415 
L 347.95 264.118584 
L 348.8428 266.565911 
L 349.7356 265.954079 
L 350.6284 268.401406 
L 353.3068 268.401406 
L 354.1996 270.236901 
L 355.0924 278.190715 
L 355.9852 268.401406 
L 356.878 265.954079 
L 358.6636 265.954079 
L 359.5564 256.16477 
L 360.4492 264.118584 
L 361.342 258.000266 
L 362.2348 271.460565 
L 363.1276 273.29606 
L 364.9132 273.29606 
L 365.806 276.967051 
L 366.6988 278.802546 
L 367.5916 276.355219 
L 368.4844 275.743387 
L 371.1628 275.743387 
L 372.0556 282.473537 
L 372.9484 272.684229 
L 373.8412 278.190715 
L 374.734 274.519724 
L 375.6268 276.355219 
L 377.4124 276.355219 
L 378.3052 275.743387 
L 379.198 278.190715 
L 380.0908 276.355219 
L 380.9836 270.848733 
L 381.8764 269.013238 
L 383.662 269.013238 
L 384.5548 261.059425 
L 385.4476 266.565911 
L 386.3404 265.954079 
L 387.2332 271.460565 
L 388.126 274.519724 
L 389.9116 274.519724 
L 390.8044 282.473537 
L 391.6972 281.249874 
L 392.59 281.249874 
L 393.4828 283.085369 
L 394.3756 284.309032 
L 396.1612 284.309032 
L 397.054 278.190715 
L 397.9468 278.802546 
L 398.8396 280.638042 
L 399.7324 283.697201 
L 400.6252 282.473537 
L 402.4108 282.473537 
L 403.3036 287.980023 
L 404.1964 287.368191 
L 405.0892 291.651014 
L 405.982 288.591855 
L 406.8748 291.039182 
L 408.6604 291.039182 
L 409.5532 290.42735 
L 410.446 291.651014 
L 411.3388 287.368191 
L 412.2316 290.42735 
L 413.1244 291.651014 
L 414.91 291.651014 
L 415.8028 291.039182 
L 416.6956 289.815519 
L 417.5884 292.874677 
L 418.4812 292.262846 
L 419.374 289.815519 
L 422.0524 289.815519 
L 422.9452 290.42735 
L 423.838 289.203687 
L 424.7308 289.203687 
L 425.6236 289.815519 
L 427.4092 289.815519 
L 428.302 291.039182 
L 429.1948 289.815519 
L 430.0876 289.815519 
L 430.9804 291.039182 
L 431.8732 289.815519 
L 433.6588 289.815519 
L 434.5516 287.980023 
L 436.3372 289.203687 
L 437.23 289.203687 
L 438.1228 291.039182 
L 439.9084 291.039182 
L 440.8012 292.874677 
L 441.694 293.486509 
L 442.5868 291.651014 
L 443.4796 291.651014 
L 444.3724 290.42735 
L 446.158 290.42735 
L 447.0508 289.815519 
L 447.9436 286.75636 
L 448.8364 289.815519 
L 449.7292 288.591855 
L 450.622 286.75636 
L 452.4076 286.75636 
L 453.3004 286.144528 
L 454.1932 288.591855 
L 455.086 286.75636 
L 455.9788 286.75636 
L 456.8716 292.262846 
L 458.6572 292.262846 
L 459.55 290.42735 
L 461.3356 289.203687 
L 462.2284 290.42735 
L 463.1212 285.532696 
L 464.9068 285.532696 
L 465.7996 287.368191 
L 466.6924 287.980023 
L 467.5852 287.980023 
L 468.478 285.532696 
L 469.3708 286.144528 
L 471.1564 286.144528 
L 472.0492 287.980023 
L 472.942 284.920864 
L 473.8348 285.532696 
L 474.7276 286.75636 
L 475.6204 287.368191 
L 477.406 287.368191 
L 477.406 287.368191 
" style="fill:none;stroke:#8172b2;stroke-linecap:square;stroke-width:2;"/>
   </g>
   <g id="line2d_36">
    <path clip-path="url(#p35ffe210ea)" d="M 34.5772 297.1575 
L 85.4668 297.1575 
L 86.3596 296.296556 
L 87.2524 296.296556 
L 88.1452 295.435612 
L 89.038 292.85278 
L 89.9308 292.85278 
L 90.8236 291.130892 
L 91.7164 285.104285 
L 92.6092 285.965229 
L 93.502 285.965229 
L 94.3948 286.826173 
L 95.2876 280.799565 
L 96.1804 277.35579 
L 97.0732 279.077677 
L 97.966 259.275967 
L 98.8588 235.169537 
L 99.7516 235.169537 
L 100.6444 214.506882 
L 101.5372 205.897443 
L 102.43 211.063107 
L 103.3228 211.924051 
L 104.2156 169.737798 
L 105.1084 180.069125 
L 106.0012 143.90948 
L 106.894 135.30004 
L 108.6796 93.113788 
L 109.5724 87.948124 
L 110.4652 135.30004 
L 111.358 127.551545 
L 112.2508 143.048536 
L 114.0364 190.400452 
L 114.9292 205.036499 
L 115.822 199.009892 
L 116.7148 192.12234 
L 117.6076 213.645938 
L 118.5004 155.962695 
L 119.3932 134.439096 
L 120.286 91.3919 
L 121.1788 77.616797 
L 122.0716 88.809068 
L 122.9644 101.723227 
L 123.8572 50.066591 
L 124.75 117.220218 
L 125.6428 93.113788 
L 126.5356 137.021928 
L 127.4284 153.379863 
L 128.3212 153.379863 
L 129.214 155.101751 
L 130.1068 139.60476 
L 130.9996 131.856265 
L 131.8924 171.459686 
L 132.7852 176.625349 
L 133.678 179.208181 
L 134.5708 136.160984 
L 135.4636 124.107769 
L 136.3564 154.240807 
L 137.2492 150.797031 
L 138.142 124.968713 
L 139.0348 123.246825 
L 139.9276 123.246825 
L 140.8204 163.71119 
L 141.7132 181.791013 
L 142.606 202.453667 
L 143.4988 207.619331 
L 144.3916 229.142929 
L 145.2844 232.586705 
L 146.1772 225.699153 
L 147.07 223.977266 
L 147.9628 208.480275 
L 148.8556 213.645938 
L 149.7484 200.731779 
L 150.6412 201.592723 
L 151.534 205.897443 
L 152.4268 207.619331 
L 153.3196 210.202163 
L 154.2124 219.672546 
L 155.1052 215.367826 
L 155.998 230.864817 
L 156.8908 231.725761 
L 157.7836 221.394434 
L 158.6764 223.977266 
L 159.5692 221.394434 
L 160.462 226.560097 
L 161.3548 233.447649 
L 162.2476 237.752369 
L 163.1404 242.918032 
L 164.0332 254.110303 
L 164.926 255.832191 
L 165.8188 259.275967 
L 167.6044 255.832191 
L 168.4972 260.136911 
L 169.39 265.302574 
L 170.2828 263.580687 
L 171.1756 263.580687 
L 172.0684 260.997855 
L 172.9612 260.997855 
L 173.854 268.74635 
L 174.7468 269.607294 
L 175.6396 269.607294 
L 176.5324 273.05107 
L 177.4252 273.912014 
L 178.318 276.494846 
L 179.2108 284.243341 
L 180.1036 280.799565 
L 180.9964 281.660509 
L 181.8892 283.382397 
L 183.6748 281.660509 
L 184.5676 279.077677 
L 185.4604 275.633902 
L 186.3532 275.633902 
L 187.246 270.468238 
L 189.9244 273.05107 
L 190.8172 275.633902 
L 191.71 279.938621 
L 192.6028 279.938621 
L 193.4956 287.687117 
L 196.174 287.687117 
L 197.0668 285.965229 
L 197.9596 286.826173 
L 198.8524 291.130892 
L 199.7452 283.382397 
L 200.638 285.104285 
L 203.3164 285.104285 
L 204.2092 282.521453 
L 205.102 284.243341 
L 205.9948 291.130892 
L 206.8876 286.826173 
L 207.7804 285.965229 
L 208.6732 285.965229 
L 209.566 286.826173 
L 210.4588 284.243341 
L 212.2444 273.912014 
L 213.1372 274.772958 
L 214.03 272.190126 
L 214.9228 271.329182 
L 215.8156 272.190126 
L 216.7084 268.74635 
L 217.6012 267.024462 
L 218.494 272.190126 
L 219.3868 271.329182 
L 220.2796 274.772958 
L 221.1724 275.633902 
L 222.0652 275.633902 
L 222.958 283.382397 
L 223.8508 287.687117 
L 224.7436 287.687117 
L 225.6364 290.269949 
L 226.5292 289.409005 
L 229.2076 289.409005 
L 230.1004 291.130892 
L 231.886 292.85278 
L 232.7788 291.991836 
L 233.6716 291.991836 
L 234.5644 289.409005 
L 235.4572 287.687117 
L 236.35 288.548061 
L 237.2428 288.548061 
L 238.1356 285.965229 
L 239.0284 287.687117 
L 239.9212 287.687117 
L 240.814 285.104285 
L 241.7068 285.965229 
L 242.5996 281.660509 
L 243.4924 282.521453 
L 245.278 279.077677 
L 246.1708 275.633902 
L 247.0636 280.799565 
L 247.9564 279.938621 
L 249.742 279.938621 
L 250.6348 284.243341 
L 251.5276 283.382397 
L 252.4204 286.826173 
L 254.206 286.826173 
L 255.0988 289.409005 
L 255.9916 285.104285 
L 256.8844 282.521453 
L 257.7772 284.243341 
L 258.67 282.521453 
L 259.5628 281.660509 
L 260.4556 282.521453 
L 261.3484 281.660509 
L 262.2412 282.521453 
L 263.134 284.243341 
L 264.0268 281.660509 
L 264.9196 283.382397 
L 265.8124 283.382397 
L 266.7052 284.243341 
L 267.598 285.965229 
L 268.4908 286.826173 
L 269.3836 284.243341 
L 270.2764 286.826173 
L 271.1692 285.104285 
L 272.062 286.826173 
L 272.9548 287.687117 
L 273.8476 287.687117 
L 274.7404 288.548061 
L 275.6332 290.269949 
L 276.526 290.269949 
L 277.4188 291.130892 
L 278.3116 289.409005 
L 279.2044 285.965229 
L 280.0972 285.104285 
L 280.99 280.799565 
L 281.8828 282.521453 
L 283.6684 280.799565 
L 285.454 282.521453 
L 286.3468 281.660509 
L 287.2396 286.826173 
L 288.1324 284.243341 
L 289.0252 284.243341 
L 289.918 285.104285 
L 290.8108 284.243341 
L 291.7036 284.243341 
L 292.5964 285.104285 
L 293.4892 281.660509 
L 294.382 277.35579 
L 295.2748 273.912014 
L 296.1676 274.772958 
L 297.0604 274.772958 
L 297.9532 273.912014 
L 298.846 265.302574 
L 299.7388 261.858799 
L 300.6316 262.719743 
L 301.5244 259.275967 
L 302.4172 258.415023 
L 303.31 258.415023 
L 304.2028 254.110303 
L 305.0956 256.693135 
L 305.9884 253.249359 
L 306.8812 258.415023 
L 307.774 265.302574 
L 308.6668 256.693135 
L 309.5596 257.554079 
L 310.4524 251.527471 
L 311.3452 239.474256 
L 312.238 236.030481 
L 313.1308 223.116322 
L 314.0236 218.811602 
L 314.9164 225.699153 
L 315.8092 223.977266 
L 316.702 223.977266 
L 318.4876 225.699153 
L 319.3804 223.116322 
L 320.2732 218.811602 
L 321.166 213.645938 
L 322.0588 214.506882 
L 322.9516 203.314611 
L 323.8444 206.758387 
L 324.7372 207.619331 
L 325.63 212.784994 
L 326.5228 213.645938 
L 327.4156 207.619331 
L 328.3084 202.453667 
L 329.2012 218.811602 
L 330.094 216.22877 
L 330.9868 211.924051 
L 331.8796 215.367826 
L 332.7724 224.83821 
L 333.6652 230.003873 
L 334.558 234.308593 
L 336.3436 217.950658 
L 338.1292 198.148948 
L 339.022 198.148948 
L 339.9148 202.453667 
L 340.8076 200.731779 
L 341.7004 198.148948 
L 342.5932 199.870835 
L 343.486 208.480275 
L 344.3788 205.897443 
L 345.2716 199.009892 
L 346.1644 194.705172 
L 347.0572 194.705172 
L 347.95 192.983284 
L 348.8428 195.566116 
L 349.7356 196.42706 
L 350.6284 191.261396 
L 351.5212 197.288004 
L 352.414 202.453667 
L 353.3068 202.453667 
L 354.1996 222.255378 
L 355.0924 222.255378 
L 355.9852 223.116322 
L 356.878 231.725761 
L 357.7708 216.22877 
L 358.6636 215.367826 
L 359.5564 215.367826 
L 360.4492 202.453667 
L 361.342 212.784994 
L 362.2348 211.063107 
L 364.0204 221.394434 
L 364.9132 223.116322 
L 365.806 225.699153 
L 366.6988 230.003873 
L 367.5916 229.142929 
L 368.4844 236.891425 
L 369.3772 241.196144 
L 370.27 246.361808 
L 371.1628 242.918032 
L 372.0556 250.666528 
L 372.9484 247.222752 
L 373.8412 251.527471 
L 374.734 252.388415 
L 375.6268 251.527471 
L 376.5196 243.778976 
L 377.4124 248.083696 
L 378.3052 240.3352 
L 379.198 253.249359 
L 380.0908 242.918032 
L 380.9836 242.057088 
L 381.8764 244.63992 
L 382.7692 246.361808 
L 383.662 246.361808 
L 384.5548 245.500864 
L 385.4476 236.030481 
L 386.3404 245.500864 
L 387.2332 251.527471 
L 388.126 247.222752 
L 389.0188 259.275967 
L 389.9116 252.388415 
L 390.8044 254.110303 
L 391.6972 256.693135 
L 392.59 258.415023 
L 393.4828 259.275967 
L 394.3756 261.858799 
L 395.2684 259.275967 
L 396.1612 264.441631 
L 397.054 264.441631 
L 397.9468 263.580687 
L 398.8396 270.468238 
L 399.7324 268.74635 
L 400.6252 267.885406 
L 401.518 270.468238 
L 402.4108 273.912014 
L 403.3036 270.468238 
L 404.1964 255.832191 
L 405.0892 251.527471 
L 405.982 254.971247 
L 406.8748 260.997855 
L 408.6604 260.997855 
L 409.5532 277.35579 
L 410.446 296.296556 
L 411.3388 293.713724 
L 412.2316 290.269949 
L 413.1244 283.382397 
L 414.91 278.216733 
L 415.8028 264.441631 
L 416.6956 265.302574 
L 417.5884 264.441631 
L 418.4812 267.885406 
L 419.374 273.05107 
L 420.2668 267.885406 
L 421.1596 270.468238 
L 422.0524 270.468238 
L 422.9452 267.885406 
L 423.838 268.74635 
L 424.7308 266.163518 
L 425.6236 260.136911 
L 426.5164 263.580687 
L 427.4092 263.580687 
L 428.302 264.441631 
L 429.1948 255.832191 
L 430.0876 255.832191 
L 430.9804 254.971247 
L 431.8732 258.415023 
L 432.766 257.554079 
L 433.6588 252.388415 
L 434.5516 252.388415 
L 435.4444 254.971247 
L 437.23 249.805584 
L 438.1228 245.500864 
L 439.0156 244.63992 
L 439.9084 248.94464 
L 440.8012 248.94464 
L 441.694 243.778976 
L 442.5868 250.666528 
L 443.4796 255.832191 
L 444.3724 256.693135 
L 445.2652 256.693135 
L 446.158 254.110303 
L 447.0508 254.110303 
L 447.9436 265.302574 
L 448.8364 261.858799 
L 449.7292 253.249359 
L 451.5148 254.971247 
L 452.4076 256.693135 
L 453.3004 254.971247 
L 454.1932 254.110303 
L 455.086 246.361808 
L 455.9788 253.249359 
L 456.8716 257.554079 
L 457.7644 258.415023 
L 458.6572 250.666528 
L 459.55 252.388415 
L 460.4428 252.388415 
L 461.3356 257.554079 
L 462.2284 254.110303 
L 463.1212 252.388415 
L 464.014 254.971247 
L 464.9068 262.719743 
L 465.7996 262.719743 
L 466.6924 261.858799 
L 467.5852 267.885406 
L 470.2636 267.885406 
L 471.1564 269.607294 
L 472.0492 269.607294 
L 472.942 276.494846 
L 473.8348 268.74635 
L 474.7276 269.607294 
L 476.5132 266.163518 
L 477.406 266.163518 
L 477.406 266.163518 
" style="fill:none;stroke:#ccb974;stroke-linecap:square;stroke-width:2;"/>
   </g>
   <g id="patch_3">
    <path d="M 35.47 297.1575 
L 35.47 25.3575 
" style="fill:none;stroke:#000000;stroke-linecap:square;stroke-linejoin:miter;stroke-width:0.8;"/>
   </g>
   <g id="patch_4">
    <path d="M 35.47 297.1575 
L 481.87 297.1575 
" style="fill:none;stroke:#000000;stroke-linecap:square;stroke-linejoin:miter;stroke-width:0.8;"/>
   </g>
   <g id="text_12">
    <!-- Los Angeles, CA -->
    <g style="fill:#4c72b0;" transform="translate(482.406 294.119916)scale(0.14 -0.14)">
     <defs>
      <path d="M 628 4666 
L 1259 4666 
L 1259 531 
L 3531 531 
L 3531 0 
L 628 0 
L 628 4666 
z
" id="DejaVuSans-4c" transform="scale(0.015625)"/>
      <path d="M 1959 3097 
Q 1497 3097 1228 2736 
Q 959 2375 959 1747 
Q 959 1119 1226 758 
Q 1494 397 1959 397 
Q 2419 397 2687 759 
Q 2956 1122 2956 1747 
Q 2956 2369 2687 2733 
Q 2419 3097 1959 3097 
z
M 1959 3584 
Q 2709 3584 3137 3096 
Q 3566 2609 3566 1747 
Q 3566 888 3137 398 
Q 2709 -91 1959 -91 
Q 1206 -91 779 398 
Q 353 888 353 1747 
Q 353 2609 779 3096 
Q 1206 3584 1959 3584 
z
" id="DejaVuSans-6f" transform="scale(0.015625)"/>
      <path d="M 2834 3397 
L 2834 2853 
Q 2591 2978 2328 3040 
Q 2066 3103 1784 3103 
Q 1356 3103 1142 2972 
Q 928 2841 928 2578 
Q 928 2378 1081 2264 
Q 1234 2150 1697 2047 
L 1894 2003 
Q 2506 1872 2764 1633 
Q 3022 1394 3022 966 
Q 3022 478 2636 193 
Q 2250 -91 1575 -91 
Q 1294 -91 989 -36 
Q 684 19 347 128 
L 347 722 
Q 666 556 975 473 
Q 1284 391 1588 391 
Q 1994 391 2212 530 
Q 2431 669 2431 922 
Q 2431 1156 2273 1281 
Q 2116 1406 1581 1522 
L 1381 1569 
Q 847 1681 609 1914 
Q 372 2147 372 2553 
Q 372 3047 722 3315 
Q 1072 3584 1716 3584 
Q 2034 3584 2315 3537 
Q 2597 3491 2834 3397 
z
" id="DejaVuSans-73" transform="scale(0.015625)"/>
      <path id="DejaVuSans-20" transform="scale(0.015625)"/>
      <path d="M 2906 1791 
Q 2906 2416 2648 2759 
Q 2391 3103 1925 3103 
Q 1463 3103 1205 2759 
Q 947 2416 947 1791 
Q 947 1169 1205 825 
Q 1463 481 1925 481 
Q 2391 481 2648 825 
Q 2906 1169 2906 1791 
z
M 3481 434 
Q 3481 -459 3084 -895 
Q 2688 -1331 1869 -1331 
Q 1566 -1331 1297 -1286 
Q 1028 -1241 775 -1147 
L 775 -588 
Q 1028 -725 1275 -790 
Q 1522 -856 1778 -856 
Q 2344 -856 2625 -561 
Q 2906 -266 2906 331 
L 2906 616 
Q 2728 306 2450 153 
Q 2172 0 1784 0 
Q 1141 0 747 490 
Q 353 981 353 1791 
Q 353 2603 747 3093 
Q 1141 3584 1784 3584 
Q 2172 3584 2450 3431 
Q 2728 3278 2906 2969 
L 2906 3500 
L 3481 3500 
L 3481 434 
z
" id="DejaVuSans-67" transform="scale(0.015625)"/>
      <path d="M 3597 1894 
L 3597 1613 
L 953 1613 
Q 991 1019 1311 708 
Q 1631 397 2203 397 
Q 2534 397 2845 478 
Q 3156 559 3463 722 
L 3463 178 
Q 3153 47 2828 -22 
Q 2503 -91 2169 -91 
Q 1331 -91 842 396 
Q 353 884 353 1716 
Q 353 2575 817 3079 
Q 1281 3584 2069 3584 
Q 2775 3584 3186 3129 
Q 3597 2675 3597 1894 
z
M 3022 2063 
Q 3016 2534 2758 2815 
Q 2500 3097 2075 3097 
Q 1594 3097 1305 2825 
Q 1016 2553 972 2059 
L 3022 2063 
z
" id="DejaVuSans-65" transform="scale(0.015625)"/>
      <path d="M 750 794 
L 1409 794 
L 1409 256 
L 897 -744 
L 494 -744 
L 750 256 
L 750 794 
z
" id="DejaVuSans-2c" transform="scale(0.015625)"/>
      <path d="M 4122 4306 
L 4122 3641 
Q 3803 3938 3442 4084 
Q 3081 4231 2675 4231 
Q 1875 4231 1450 3742 
Q 1025 3253 1025 2328 
Q 1025 1406 1450 917 
Q 1875 428 2675 428 
Q 3081 428 3442 575 
Q 3803 722 4122 1019 
L 4122 359 
Q 3791 134 3420 21 
Q 3050 -91 2638 -91 
Q 1578 -91 968 557 
Q 359 1206 359 2328 
Q 359 3453 968 4101 
Q 1578 4750 2638 4750 
Q 3056 4750 3426 4639 
Q 3797 4528 4122 4306 
z
" id="DejaVuSans-43" transform="scale(0.015625)"/>
     </defs>
     <use xlink:href="#DejaVuSans-4c"/>
     <use x="53.962891" xlink:href="#DejaVuSans-6f"/>
     <use x="115.144531" xlink:href="#DejaVuSans-73"/>
     <use x="167.244141" xlink:href="#DejaVuSans-20"/>
     <use x="199.03125" xlink:href="#DejaVuSans-41"/>
     <use x="267.439453" xlink:href="#DejaVuSans-6e"/>
     <use x="330.818359" xlink:href="#DejaVuSans-67"/>
     <use x="394.294922" xlink:href="#DejaVuSans-65"/>
     <use x="455.818359" xlink:href="#DejaVuSans-6c"/>
     <use x="483.601562" xlink:href="#DejaVuSans-65"/>
     <use x="545.125" xlink:href="#DejaVuSans-73"/>
     <use x="597.224609" xlink:href="#DejaVuSans-2c"/>
     <use x="629.011719" xlink:href="#DejaVuSans-20"/>
     <use x="660.798828" xlink:href="#DejaVuSans-43"/>
     <use x="730.623047" xlink:href="#DejaVuSans-41"/>
    </g>
   </g>
   <g id="text_13">
    <!-- Allegheny, PA -->
    <g style="fill:#55a868;" transform="translate(482.406 289.95726)scale(0.14 -0.14)">
     <defs>
      <path d="M 3513 2113 
L 3513 0 
L 2938 0 
L 2938 2094 
Q 2938 2591 2744 2837 
Q 2550 3084 2163 3084 
Q 1697 3084 1428 2787 
Q 1159 2491 1159 1978 
L 1159 0 
L 581 0 
L 581 4863 
L 1159 4863 
L 1159 2956 
Q 1366 3272 1645 3428 
Q 1925 3584 2291 3584 
Q 2894 3584 3203 3211 
Q 3513 2838 3513 2113 
z
" id="DejaVuSans-68" transform="scale(0.015625)"/>
      <path d="M 2059 -325 
Q 1816 -950 1584 -1140 
Q 1353 -1331 966 -1331 
L 506 -1331 
L 506 -850 
L 844 -850 
Q 1081 -850 1212 -737 
Q 1344 -625 1503 -206 
L 1606 56 
L 191 3500 
L 800 3500 
L 1894 763 
L 2988 3500 
L 3597 3500 
L 2059 -325 
z
" id="DejaVuSans-79" transform="scale(0.015625)"/>
      <path d="M 1259 4147 
L 1259 2394 
L 2053 2394 
Q 2494 2394 2734 2622 
Q 2975 2850 2975 3272 
Q 2975 3691 2734 3919 
Q 2494 4147 2053 4147 
L 1259 4147 
z
M 628 4666 
L 2053 4666 
Q 2838 4666 3239 4311 
Q 3641 3956 3641 3272 
Q 3641 2581 3239 2228 
Q 2838 1875 2053 1875 
L 1259 1875 
L 1259 0 
L 628 0 
L 628 4666 
z
" id="DejaVuSans-50" transform="scale(0.015625)"/>
     </defs>
     <use xlink:href="#DejaVuSans-41"/>
     <use x="68.408203" xlink:href="#DejaVuSans-6c"/>
     <use x="96.191406" xlink:href="#DejaVuSans-6c"/>
     <use x="123.974609" xlink:href="#DejaVuSans-65"/>
     <use x="185.498047" xlink:href="#DejaVuSans-67"/>
     <use x="248.974609" xlink:href="#DejaVuSans-68"/>
     <use x="312.353516" xlink:href="#DejaVuSans-65"/>
     <use x="373.876953" xlink:href="#DejaVuSans-6e"/>
     <use x="437.255859" xlink:href="#DejaVuSans-79"/>
     <use x="496.435547" xlink:href="#DejaVuSans-2c"/>
     <use x="528.222656" xlink:href="#DejaVuSans-20"/>
     <use x="560.009766" xlink:href="#DejaVuSans-50"/>
     <use x="613.9375" xlink:href="#DejaVuSans-41"/>
    </g>
   </g>
   <g id="text_14">
    <!-- Erie, NY -->
    <g style="fill:#c44e52;" transform="translate(482.406 287.815945)scale(0.14 -0.14)">
     <defs>
      <path d="M 628 4666 
L 3578 4666 
L 3578 4134 
L 1259 4134 
L 1259 2753 
L 3481 2753 
L 3481 2222 
L 1259 2222 
L 1259 531 
L 3634 531 
L 3634 0 
L 628 0 
L 628 4666 
z
" id="DejaVuSans-45" transform="scale(0.015625)"/>
      <path d="M 603 3500 
L 1178 3500 
L 1178 0 
L 603 0 
L 603 3500 
z
M 603 4863 
L 1178 4863 
L 1178 4134 
L 603 4134 
L 603 4863 
z
" id="DejaVuSans-69" transform="scale(0.015625)"/>
      <path d="M 628 4666 
L 1478 4666 
L 3547 763 
L 3547 4666 
L 4159 4666 
L 4159 0 
L 3309 0 
L 1241 3903 
L 1241 0 
L 628 0 
L 628 4666 
z
" id="DejaVuSans-4e" transform="scale(0.015625)"/>
      <path d="M -13 4666 
L 666 4666 
L 1959 2747 
L 3244 4666 
L 3922 4666 
L 2272 2222 
L 2272 0 
L 1638 0 
L 1638 2222 
L -13 4666 
z
" id="DejaVuSans-59" transform="scale(0.015625)"/>
     </defs>
     <use xlink:href="#DejaVuSans-45"/>
     <use x="63.183594" xlink:href="#DejaVuSans-72"/>
     <use x="104.296875" xlink:href="#DejaVuSans-69"/>
     <use x="132.080078" xlink:href="#DejaVuSans-65"/>
     <use x="193.603516" xlink:href="#DejaVuSans-2c"/>
     <use x="225.390625" xlink:href="#DejaVuSans-20"/>
     <use x="257.177734" xlink:href="#DejaVuSans-4e"/>
     <use x="331.982422" xlink:href="#DejaVuSans-59"/>
    </g>
   </g>
   <g id="text_15">
    <!-- King, WA -->
    <g style="fill:#8172b2;" transform="translate(482.406 291.368191)scale(0.14 -0.14)">
     <defs>
      <path d="M 628 4666 
L 1259 4666 
L 1259 2694 
L 3353 4666 
L 4166 4666 
L 1850 2491 
L 4331 0 
L 3500 0 
L 1259 2247 
L 1259 0 
L 628 0 
L 628 4666 
z
" id="DejaVuSans-4b" transform="scale(0.015625)"/>
      <path d="M 213 4666 
L 850 4666 
L 1831 722 
L 2809 4666 
L 3519 4666 
L 4500 722 
L 5478 4666 
L 6119 4666 
L 4947 0 
L 4153 0 
L 3169 4050 
L 2175 0 
L 1381 0 
L 213 4666 
z
" id="DejaVuSans-57" transform="scale(0.015625)"/>
     </defs>
     <use xlink:href="#DejaVuSans-4b"/>
     <use x="65.576172" xlink:href="#DejaVuSans-69"/>
     <use x="93.359375" xlink:href="#DejaVuSans-6e"/>
     <use x="156.738281" xlink:href="#DejaVuSans-67"/>
     <use x="220.214844" xlink:href="#DejaVuSans-2c"/>
     <use x="252.001953" xlink:href="#DejaVuSans-20"/>
     <use x="283.789062" xlink:href="#DejaVuSans-57"/>
     <use x="377.166016" xlink:href="#DejaVuSans-41"/>
    </g>
   </g>
   <g id="text_16">
    <!-- Philadelphia, PA -->
    <g style="fill:#ccb974;" transform="translate(482.406 270.163518)scale(0.14 -0.14)">
     <defs>
      <path d="M 2906 2969 
L 2906 4863 
L 3481 4863 
L 3481 0 
L 2906 0 
L 2906 525 
Q 2725 213 2448 61 
Q 2172 -91 1784 -91 
Q 1150 -91 751 415 
Q 353 922 353 1747 
Q 353 2572 751 3078 
Q 1150 3584 1784 3584 
Q 2172 3584 2448 3432 
Q 2725 3281 2906 2969 
z
M 947 1747 
Q 947 1113 1208 752 
Q 1469 391 1925 391 
Q 2381 391 2643 752 
Q 2906 1113 2906 1747 
Q 2906 2381 2643 2742 
Q 2381 3103 1925 3103 
Q 1469 3103 1208 2742 
Q 947 2381 947 1747 
z
" id="DejaVuSans-64" transform="scale(0.015625)"/>
     </defs>
     <use xlink:href="#DejaVuSans-50"/>
     <use x="60.302734" xlink:href="#DejaVuSans-68"/>
     <use x="123.681641" xlink:href="#DejaVuSans-69"/>
     <use x="151.464844" xlink:href="#DejaVuSans-6c"/>
     <use x="179.248047" xlink:href="#DejaVuSans-61"/>
     <use x="240.527344" xlink:href="#DejaVuSans-64"/>
     <use x="304.003906" xlink:href="#DejaVuSans-65"/>
     <use x="365.527344" xlink:href="#DejaVuSans-6c"/>
     <use x="393.310547" xlink:href="#DejaVuSans-70"/>
     <use x="456.787109" xlink:href="#DejaVuSans-68"/>
     <use x="520.166016" xlink:href="#DejaVuSans-69"/>
     <use x="547.949219" xlink:href="#DejaVuSans-61"/>
     <use x="609.228516" xlink:href="#DejaVuSans-2c"/>
     <use x="641.015625" xlink:href="#DejaVuSans-20"/>
     <use x="672.802734" xlink:href="#DejaVuSans-50"/>
     <use x="726.730469" xlink:href="#DejaVuSans-41"/>
    </g>
   </g>
   <g id="text_17">
    <!-- Deaths per million people -->
    <g style="fill:#262626;" transform="translate(155.62625 19.3575)scale(0.16 -0.16)">
     <defs>
      <path d="M 1259 4147 
L 1259 519 
L 2022 519 
Q 2988 519 3436 956 
Q 3884 1394 3884 2338 
Q 3884 3275 3436 3711 
Q 2988 4147 2022 4147 
L 1259 4147 
z
M 628 4666 
L 1925 4666 
Q 3281 4666 3915 4102 
Q 4550 3538 4550 2338 
Q 4550 1131 3912 565 
Q 3275 0 1925 0 
L 628 0 
L 628 4666 
z
" id="DejaVuSans-44" transform="scale(0.015625)"/>
      <path d="M 3328 2828 
Q 3544 3216 3844 3400 
Q 4144 3584 4550 3584 
Q 5097 3584 5394 3201 
Q 5691 2819 5691 2113 
L 5691 0 
L 5113 0 
L 5113 2094 
Q 5113 2597 4934 2840 
Q 4756 3084 4391 3084 
Q 3944 3084 3684 2787 
Q 3425 2491 3425 1978 
L 3425 0 
L 2847 0 
L 2847 2094 
Q 2847 2600 2669 2842 
Q 2491 3084 2119 3084 
Q 1678 3084 1418 2786 
Q 1159 2488 1159 1978 
L 1159 0 
L 581 0 
L 581 3500 
L 1159 3500 
L 1159 2956 
Q 1356 3278 1631 3431 
Q 1906 3584 2284 3584 
Q 2666 3584 2933 3390 
Q 3200 3197 3328 2828 
z
" id="DejaVuSans-6d" transform="scale(0.015625)"/>
     </defs>
     <use xlink:href="#DejaVuSans-44"/>
     <use x="77.001953" xlink:href="#DejaVuSans-65"/>
     <use x="138.525391" xlink:href="#DejaVuSans-61"/>
     <use x="199.804688" xlink:href="#DejaVuSans-74"/>
     <use x="239.013672" xlink:href="#DejaVuSans-68"/>
     <use x="302.392578" xlink:href="#DejaVuSans-73"/>
     <use x="354.492188" xlink:href="#DejaVuSans-20"/>
     <use x="386.279297" xlink:href="#DejaVuSans-70"/>
     <use x="449.755859" xlink:href="#DejaVuSans-65"/>
     <use x="511.279297" xlink:href="#DejaVuSans-72"/>
     <use x="552.392578" xlink:href="#DejaVuSans-20"/>
     <use x="584.179688" xlink:href="#DejaVuSans-6d"/>
     <use x="681.591797" xlink:href="#DejaVuSans-69"/>
     <use x="709.375" xlink:href="#DejaVuSans-6c"/>
     <use x="737.158203" xlink:href="#DejaVuSans-6c"/>
     <use x="764.941406" xlink:href="#DejaVuSans-69"/>
     <use x="792.724609" xlink:href="#DejaVuSans-6f"/>
     <use x="853.90625" xlink:href="#DejaVuSans-6e"/>
     <use x="917.285156" xlink:href="#DejaVuSans-20"/>
     <use x="949.072266" xlink:href="#DejaVuSans-70"/>
     <use x="1012.548828" xlink:href="#DejaVuSans-65"/>
     <use x="1074.072266" xlink:href="#DejaVuSans-6f"/>
     <use x="1135.253906" xlink:href="#DejaVuSans-70"/>
     <use x="1198.730469" xlink:href="#DejaVuSans-6c"/>
     <use x="1226.513672" xlink:href="#DejaVuSans-65"/>
    </g>
   </g>
   <g id="legend_1"/>
   <g id="PathCollection_1">
    <defs>
     <path d="M 0 2.236068 
C 0.593012 2.236068 1.161816 2.000462 1.581139 1.581139 
C 2.000462 1.161816 2.236068 0.593012 2.236068 -0 
C 2.236068 -0.593012 2.000462 -1.161816 1.581139 -1.581139 
C 1.161816 -2.000462 0.593012 -2.236068 0 -2.236068 
C -0.593012 -2.236068 -1.161816 -2.000462 -1.581139 -1.581139 
C -2.000462 -1.161816 -2.236068 -0.593012 -2.236068 0 
C -2.236068 0.593012 -2.000462 1.161816 -1.581139 1.581139 
C -1.161816 2.000462 -0.593012 2.236068 0 2.236068 
z
" id="C0_0_88ffcea551"/>
    </defs>
    <g clip-path="url(#p35ffe210ea)">
     <use style="fill:#4c72b0;stroke:#4c72b0;" x="477.406" xlink:href="#C0_0_88ffcea551" y="290.119916"/>
    </g>
    <g clip-path="url(#p35ffe210ea)">
     <use style="fill:#55a868;stroke:#55a868;" x="477.406" xlink:href="#C0_0_88ffcea551" y="285.95726"/>
    </g>
    <g clip-path="url(#p35ffe210ea)">
     <use style="fill:#c44e52;stroke:#c44e52;" x="477.406" xlink:href="#C0_0_88ffcea551" y="283.815945"/>
    </g>
    <g clip-path="url(#p35ffe210ea)">
     <use style="fill:#8172b2;stroke:#8172b2;" x="477.406" xlink:href="#C0_0_88ffcea551" y="287.368191"/>
    </g>
    <g clip-path="url(#p35ffe210ea)">
     <use style="fill:#ccb974;stroke:#ccb974;" x="477.406" xlink:href="#C0_0_88ffcea551" y="266.163518"/>
    </g>
   </g>
  </g>
 </g>
 <defs>
  <clipPath id="p35ffe210ea">
   <rect height="271.8" width="446.4" x="35.47" y="25.3575"/>
  </clipPath>
 </defs>
</svg>
