<?xml version="1.0" encoding="utf-8" standalone="no"?>
<!DOCTYPE svg PUBLIC "-//W3C//DTD SVG 1.1//EN"
  "http://www.w3.org/Graphics/SVG/1.1/DTD/svg11.dtd">
<svg height="342.408625pt" version="1.1" viewBox="0 0 553.944554 342.408625" width="553.944554pt" xmlns="http://www.w3.org/2000/svg" xmlns:xlink="http://www.w3.org/1999/xlink">
 <metadata>
  <rdf:RDF xmlns:cc="http://creativecommons.org/ns#" xmlns:dc="http://purl.org/dc/elements/1.1/" xmlns:rdf="http://www.w3.org/1999/02/22-rdf-syntax-ns#">
   <cc:Work>
    <dc:type rdf:resource="http://purl.org/dc/dcmitype/StillImage"/>
    <dc:date>2021-06-07T21:55:38.946165</dc:date>
    <dc:format>image/svg+xml</dc:format>
    <dc:creator>
     <cc:Agent>
      <dc:title>Matplotlib v3.4.2, https://matplotlib.org/</dc:title>
     </cc:Agent>
    </dc:creator>
   </cc:Work>
  </rdf:RDF>
 </metadata>
 <defs>
  <style type="text/css">*{stroke-linecap:butt;stroke-linejoin:round;}</style>
 </defs>
 <g id="figure_1">
  <g id="patch_1">
   <path d="M 0 342.408625 
L 553.944554 342.408625 
L 553.944554 0 
L 0 0 
z
" style="fill:none;"/>
  </g>
  <g id="axes_1">
   <g id="patch_2">
    <path d="M 35.47 297.1575 
L 481.87 297.1575 
L 481.87 25.3575 
L 35.47 25.3575 
z
" style="fill:#ffffff;"/>
   </g>
   <g id="matplotlib.axis_1">
    <g id="xtick_1">
     <g id="line2d_1">
      <defs>
       <path d="M 0 0 
L 0 6 
" id="m495bd60e34" style="stroke:#262626;"/>
      </defs>
      <g>
       <use style="fill:#262626;stroke:#262626;" x="35.47" xlink:href="#m495bd60e34" y="297.1575"/>
      </g>
     </g>
    </g>
    <g id="xtick_2">
     <g id="line2d_2">
      <g>
       <use style="fill:#262626;stroke:#262626;" x="91.829118" xlink:href="#m495bd60e34" y="297.1575"/>
      </g>
     </g>
     <g id="text_1">
      <!-- Apr -->
      <g style="fill:#262626;" transform="translate(81.449118 319.275625)scale(0.12 -0.12)">
       <defs>
        <path d="M 2188 4044 
L 1331 1722 
L 3047 1722 
L 2188 4044 
z
M 1831 4666 
L 2547 4666 
L 4325 0 
L 3669 0 
L 3244 1197 
L 1141 1197 
L 716 0 
L 50 0 
L 1831 4666 
z
" id="DejaVuSans-41" transform="scale(0.015625)"/>
        <path d="M 1159 525 
L 1159 -1331 
L 581 -1331 
L 581 3500 
L 1159 3500 
L 1159 2969 
Q 1341 3281 1617 3432 
Q 1894 3584 2278 3584 
Q 2916 3584 3314 3078 
Q 3713 2572 3713 1747 
Q 3713 922 3314 415 
Q 2916 -91 2278 -91 
Q 1894 -91 1617 61 
Q 1341 213 1159 525 
z
M 3116 1747 
Q 3116 2381 2855 2742 
Q 2594 3103 2138 3103 
Q 1681 3103 1420 2742 
Q 1159 2381 1159 1747 
Q 1159 1113 1420 752 
Q 1681 391 2138 391 
Q 2594 391 2855 752 
Q 3116 1113 3116 1747 
z
" id="DejaVuSans-70" transform="scale(0.015625)"/>
        <path d="M 2631 2963 
Q 2534 3019 2420 3045 
Q 2306 3072 2169 3072 
Q 1681 3072 1420 2755 
Q 1159 2438 1159 1844 
L 1159 0 
L 581 0 
L 581 3500 
L 1159 3500 
L 1159 2956 
Q 1341 3275 1631 3429 
Q 1922 3584 2338 3584 
Q 2397 3584 2469 3576 
Q 2541 3569 2628 3553 
L 2631 2963 
z
" id="DejaVuSans-72" transform="scale(0.015625)"/>
       </defs>
       <use xlink:href="#DejaVuSans-41"/>
       <use x="68.408203" xlink:href="#DejaVuSans-70"/>
       <use x="131.884766" xlink:href="#DejaVuSans-72"/>
      </g>
     </g>
    </g>
    <g id="xtick_3">
     <g id="line2d_3">
      <g>
       <use style="fill:#262626;stroke:#262626;" x="173.236733" xlink:href="#m495bd60e34" y="297.1575"/>
      </g>
     </g>
     <g id="text_2">
      <!-- Jul -->
      <g style="fill:#262626;" transform="translate(165.997358 319.275625)scale(0.12 -0.12)">
       <defs>
        <path d="M 628 4666 
L 1259 4666 
L 1259 325 
Q 1259 -519 939 -900 
Q 619 -1281 -91 -1281 
L -331 -1281 
L -331 -750 
L -134 -750 
Q 284 -750 456 -515 
Q 628 -281 628 325 
L 628 4666 
z
" id="DejaVuSans-4a" transform="scale(0.015625)"/>
        <path d="M 544 1381 
L 544 3500 
L 1119 3500 
L 1119 1403 
Q 1119 906 1312 657 
Q 1506 409 1894 409 
Q 2359 409 2629 706 
Q 2900 1003 2900 1516 
L 2900 3500 
L 3475 3500 
L 3475 0 
L 2900 0 
L 2900 538 
Q 2691 219 2414 64 
Q 2138 -91 1772 -91 
Q 1169 -91 856 284 
Q 544 659 544 1381 
z
M 1991 3584 
L 1991 3584 
z
" id="DejaVuSans-75" transform="scale(0.015625)"/>
        <path d="M 603 4863 
L 1178 4863 
L 1178 0 
L 603 0 
L 603 4863 
z
" id="DejaVuSans-6c" transform="scale(0.015625)"/>
       </defs>
       <use xlink:href="#DejaVuSans-4a"/>
       <use x="29.492188" xlink:href="#DejaVuSans-75"/>
       <use x="92.871094" xlink:href="#DejaVuSans-6c"/>
      </g>
     </g>
    </g>
    <g id="xtick_4">
     <g id="line2d_4">
      <g>
       <use style="fill:#262626;stroke:#262626;" x="255.538938" xlink:href="#m495bd60e34" y="297.1575"/>
      </g>
     </g>
     <g id="text_3">
      <!-- Oct -->
      <g style="fill:#262626;" transform="translate(245.164563 319.275625)scale(0.12 -0.12)">
       <defs>
        <path d="M 2522 4238 
Q 1834 4238 1429 3725 
Q 1025 3213 1025 2328 
Q 1025 1447 1429 934 
Q 1834 422 2522 422 
Q 3209 422 3611 934 
Q 4013 1447 4013 2328 
Q 4013 3213 3611 3725 
Q 3209 4238 2522 4238 
z
M 2522 4750 
Q 3503 4750 4090 4092 
Q 4678 3434 4678 2328 
Q 4678 1225 4090 567 
Q 3503 -91 2522 -91 
Q 1538 -91 948 565 
Q 359 1222 359 2328 
Q 359 3434 948 4092 
Q 1538 4750 2522 4750 
z
" id="DejaVuSans-4f" transform="scale(0.015625)"/>
        <path d="M 3122 3366 
L 3122 2828 
Q 2878 2963 2633 3030 
Q 2388 3097 2138 3097 
Q 1578 3097 1268 2742 
Q 959 2388 959 1747 
Q 959 1106 1268 751 
Q 1578 397 2138 397 
Q 2388 397 2633 464 
Q 2878 531 3122 666 
L 3122 134 
Q 2881 22 2623 -34 
Q 2366 -91 2075 -91 
Q 1284 -91 818 406 
Q 353 903 353 1747 
Q 353 2603 823 3093 
Q 1294 3584 2113 3584 
Q 2378 3584 2631 3529 
Q 2884 3475 3122 3366 
z
" id="DejaVuSans-63" transform="scale(0.015625)"/>
        <path d="M 1172 4494 
L 1172 3500 
L 2356 3500 
L 2356 3053 
L 1172 3053 
L 1172 1153 
Q 1172 725 1289 603 
Q 1406 481 1766 481 
L 2356 481 
L 2356 0 
L 1766 0 
Q 1100 0 847 248 
Q 594 497 594 1153 
L 594 3053 
L 172 3053 
L 172 3500 
L 594 3500 
L 594 4494 
L 1172 4494 
z
" id="DejaVuSans-74" transform="scale(0.015625)"/>
       </defs>
       <use xlink:href="#DejaVuSans-4f"/>
       <use x="78.710938" xlink:href="#DejaVuSans-63"/>
       <use x="133.691406" xlink:href="#DejaVuSans-74"/>
      </g>
     </g>
    </g>
    <g id="xtick_5">
     <g id="line2d_5">
      <g>
       <use style="fill:#262626;stroke:#262626;" x="337.841142" xlink:href="#m495bd60e34" y="297.1575"/>
      </g>
     </g>
     <g id="text_4">
      <!-- Jan -->
      <g style="fill:#262626;" transform="translate(328.591767 319.275625)scale(0.12 -0.12)">
       <defs>
        <path d="M 2194 1759 
Q 1497 1759 1228 1600 
Q 959 1441 959 1056 
Q 959 750 1161 570 
Q 1363 391 1709 391 
Q 2188 391 2477 730 
Q 2766 1069 2766 1631 
L 2766 1759 
L 2194 1759 
z
M 3341 1997 
L 3341 0 
L 2766 0 
L 2766 531 
Q 2569 213 2275 61 
Q 1981 -91 1556 -91 
Q 1019 -91 701 211 
Q 384 513 384 1019 
Q 384 1609 779 1909 
Q 1175 2209 1959 2209 
L 2766 2209 
L 2766 2266 
Q 2766 2663 2505 2880 
Q 2244 3097 1772 3097 
Q 1472 3097 1187 3025 
Q 903 2953 641 2809 
L 641 3341 
Q 956 3463 1253 3523 
Q 1550 3584 1831 3584 
Q 2591 3584 2966 3190 
Q 3341 2797 3341 1997 
z
" id="DejaVuSans-61" transform="scale(0.015625)"/>
        <path d="M 3513 2113 
L 3513 0 
L 2938 0 
L 2938 2094 
Q 2938 2591 2744 2837 
Q 2550 3084 2163 3084 
Q 1697 3084 1428 2787 
Q 1159 2491 1159 1978 
L 1159 0 
L 581 0 
L 581 3500 
L 1159 3500 
L 1159 2956 
Q 1366 3272 1645 3428 
Q 1925 3584 2291 3584 
Q 2894 3584 3203 3211 
Q 3513 2838 3513 2113 
z
" id="DejaVuSans-6e" transform="scale(0.015625)"/>
       </defs>
       <use xlink:href="#DejaVuSans-4a"/>
       <use x="29.492188" xlink:href="#DejaVuSans-61"/>
       <use x="90.771484" xlink:href="#DejaVuSans-6e"/>
      </g>
      <!-- 2021 -->
      <g style="fill:#262626;" transform="translate(322.571142 332.713)scale(0.12 -0.12)">
       <defs>
        <path d="M 1228 531 
L 3431 531 
L 3431 0 
L 469 0 
L 469 531 
Q 828 903 1448 1529 
Q 2069 2156 2228 2338 
Q 2531 2678 2651 2914 
Q 2772 3150 2772 3378 
Q 2772 3750 2511 3984 
Q 2250 4219 1831 4219 
Q 1534 4219 1204 4116 
Q 875 4013 500 3803 
L 500 4441 
Q 881 4594 1212 4672 
Q 1544 4750 1819 4750 
Q 2544 4750 2975 4387 
Q 3406 4025 3406 3419 
Q 3406 3131 3298 2873 
Q 3191 2616 2906 2266 
Q 2828 2175 2409 1742 
Q 1991 1309 1228 531 
z
" id="DejaVuSans-32" transform="scale(0.015625)"/>
        <path d="M 2034 4250 
Q 1547 4250 1301 3770 
Q 1056 3291 1056 2328 
Q 1056 1369 1301 889 
Q 1547 409 2034 409 
Q 2525 409 2770 889 
Q 3016 1369 3016 2328 
Q 3016 3291 2770 3770 
Q 2525 4250 2034 4250 
z
M 2034 4750 
Q 2819 4750 3233 4129 
Q 3647 3509 3647 2328 
Q 3647 1150 3233 529 
Q 2819 -91 2034 -91 
Q 1250 -91 836 529 
Q 422 1150 422 2328 
Q 422 3509 836 4129 
Q 1250 4750 2034 4750 
z
" id="DejaVuSans-30" transform="scale(0.015625)"/>
        <path d="M 794 531 
L 1825 531 
L 1825 4091 
L 703 3866 
L 703 4441 
L 1819 4666 
L 2450 4666 
L 2450 531 
L 3481 531 
L 3481 0 
L 794 0 
L 794 531 
z
" id="DejaVuSans-31" transform="scale(0.015625)"/>
       </defs>
       <use xlink:href="#DejaVuSans-32"/>
       <use x="63.623047" xlink:href="#DejaVuSans-30"/>
       <use x="127.246094" xlink:href="#DejaVuSans-32"/>
       <use x="190.869141" xlink:href="#DejaVuSans-31"/>
      </g>
     </g>
    </g>
    <g id="xtick_6">
     <g id="line2d_6">
      <g>
       <use style="fill:#262626;stroke:#262626;" x="418.354168" xlink:href="#m495bd60e34" y="297.1575"/>
      </g>
     </g>
     <g id="text_5">
      <!-- Apr -->
      <g style="fill:#262626;" transform="translate(407.974168 319.275625)scale(0.12 -0.12)">
       <use xlink:href="#DejaVuSans-41"/>
       <use x="68.408203" xlink:href="#DejaVuSans-70"/>
       <use x="131.884766" xlink:href="#DejaVuSans-72"/>
      </g>
     </g>
    </g>
    <g id="xtick_7">
     <g id="line2d_7">
      <g>
       <use style="fill:#262626;stroke:#262626;" x="481.87" xlink:href="#m495bd60e34" y="297.1575"/>
      </g>
     </g>
    </g>
    <g id="xtick_8">
     <g id="line2d_8">
      <defs>
       <path d="M 0 0 
L 0 3 
" id="m33b9e03190" style="stroke:#262626;stroke-width:0.5;"/>
      </defs>
      <g>
       <use style="fill:#262626;stroke:#262626;stroke-width:0.5;" x="38.153768" xlink:href="#m33b9e03190" y="297.1575"/>
      </g>
     </g>
    </g>
    <g id="xtick_9">
     <g id="line2d_9">
      <g>
       <use style="fill:#262626;stroke:#262626;stroke-width:0.5;" x="64.096854" xlink:href="#m33b9e03190" y="297.1575"/>
      </g>
     </g>
    </g>
    <g id="xtick_10">
     <g id="line2d_10">
      <g>
       <use style="fill:#262626;stroke:#262626;stroke-width:0.5;" x="118.666794" xlink:href="#m33b9e03190" y="297.1575"/>
      </g>
     </g>
    </g>
    <g id="xtick_11">
     <g id="line2d_11">
      <g>
       <use style="fill:#262626;stroke:#262626;stroke-width:0.5;" x="146.399058" xlink:href="#m33b9e03190" y="297.1575"/>
      </g>
     </g>
    </g>
    <g id="xtick_12">
     <g id="line2d_12">
      <g>
       <use style="fill:#262626;stroke:#262626;stroke-width:0.5;" x="200.968998" xlink:href="#m33b9e03190" y="297.1575"/>
      </g>
     </g>
    </g>
    <g id="xtick_13">
     <g id="line2d_13">
      <g>
       <use style="fill:#262626;stroke:#262626;stroke-width:0.5;" x="228.701263" xlink:href="#m33b9e03190" y="297.1575"/>
      </g>
     </g>
    </g>
    <g id="xtick_14">
     <g id="line2d_14">
      <g>
       <use style="fill:#262626;stroke:#262626;stroke-width:0.5;" x="283.271202" xlink:href="#m33b9e03190" y="297.1575"/>
      </g>
     </g>
    </g>
    <g id="xtick_15">
     <g id="line2d_15">
      <g>
       <use style="fill:#262626;stroke:#262626;stroke-width:0.5;" x="310.108878" xlink:href="#m33b9e03190" y="297.1575"/>
      </g>
     </g>
    </g>
    <g id="xtick_16">
     <g id="line2d_16">
      <g>
       <use style="fill:#262626;stroke:#262626;stroke-width:0.5;" x="365.573407" xlink:href="#m33b9e03190" y="297.1575"/>
      </g>
     </g>
    </g>
    <g id="xtick_17">
     <g id="line2d_17">
      <g>
       <use style="fill:#262626;stroke:#262626;stroke-width:0.5;" x="390.621904" xlink:href="#m33b9e03190" y="297.1575"/>
      </g>
     </g>
    </g>
    <g id="xtick_18">
     <g id="line2d_18">
      <g>
       <use style="fill:#262626;stroke:#262626;stroke-width:0.5;" x="445.191844" xlink:href="#m33b9e03190" y="297.1575"/>
      </g>
     </g>
    </g>
    <g id="xtick_19">
     <g id="line2d_19">
      <g>
       <use style="fill:#262626;stroke:#262626;stroke-width:0.5;" x="472.924108" xlink:href="#m33b9e03190" y="297.1575"/>
      </g>
     </g>
    </g>
   </g>
   <g id="matplotlib.axis_2">
    <g id="ytick_1">
     <g id="line2d_20">
      <path clip-path="url(#p809aff1fb4)" d="M 35.47 297.1575 
L 481.87 297.1575 
" style="fill:none;stroke:#b0b0b0;stroke-linecap:square;stroke-opacity:0.3;"/>
     </g>
     <g id="line2d_21">
      <defs>
       <path d="M 0 0 
L -6 0 
" id="mbb2dfe1308" style="stroke:#262626;"/>
      </defs>
      <g>
       <use style="fill:#262626;stroke:#262626;" x="35.47" xlink:href="#mbb2dfe1308" y="297.1575"/>
      </g>
     </g>
     <g id="text_6">
      <!-- 0 -->
      <g style="fill:#262626;" transform="translate(14.835 301.716562)scale(0.12 -0.12)">
       <use xlink:href="#DejaVuSans-30"/>
      </g>
     </g>
    </g>
    <g id="ytick_2">
     <g id="line2d_22">
      <path clip-path="url(#p809aff1fb4)" d="M 35.47 270.701563 
L 481.87 270.701563 
" style="fill:none;stroke:#b0b0b0;stroke-linecap:square;stroke-opacity:0.3;"/>
     </g>
     <g id="line2d_23">
      <g>
       <use style="fill:#262626;stroke:#262626;" x="35.47" xlink:href="#mbb2dfe1308" y="270.701563"/>
      </g>
     </g>
     <g id="text_7">
      <!-- 2 -->
      <g style="fill:#262626;" transform="translate(14.835 275.260625)scale(0.12 -0.12)">
       <use xlink:href="#DejaVuSans-32"/>
      </g>
     </g>
    </g>
    <g id="ytick_3">
     <g id="line2d_24">
      <path clip-path="url(#p809aff1fb4)" d="M 35.47 244.245626 
L 481.87 244.245626 
" style="fill:none;stroke:#b0b0b0;stroke-linecap:square;stroke-opacity:0.3;"/>
     </g>
     <g id="line2d_25">
      <g>
       <use style="fill:#262626;stroke:#262626;" x="35.47" xlink:href="#mbb2dfe1308" y="244.245626"/>
      </g>
     </g>
     <g id="text_8">
      <!-- 4 -->
      <g style="fill:#262626;" transform="translate(14.835 248.804688)scale(0.12 -0.12)">
       <defs>
        <path d="M 2419 4116 
L 825 1625 
L 2419 1625 
L 2419 4116 
z
M 2253 4666 
L 3047 4666 
L 3047 1625 
L 3713 1625 
L 3713 1100 
L 3047 1100 
L 3047 0 
L 2419 0 
L 2419 1100 
L 313 1100 
L 313 1709 
L 2253 4666 
z
" id="DejaVuSans-34" transform="scale(0.015625)"/>
       </defs>
       <use xlink:href="#DejaVuSans-34"/>
      </g>
     </g>
    </g>
    <g id="ytick_4">
     <g id="line2d_26">
      <path clip-path="url(#p809aff1fb4)" d="M 35.47 217.789689 
L 481.87 217.789689 
" style="fill:none;stroke:#b0b0b0;stroke-linecap:square;stroke-opacity:0.3;"/>
     </g>
     <g id="line2d_27">
      <g>
       <use style="fill:#262626;stroke:#262626;" x="35.47" xlink:href="#mbb2dfe1308" y="217.789689"/>
      </g>
     </g>
     <g id="text_9">
      <!-- 6 -->
      <g style="fill:#262626;" transform="translate(14.835 222.348751)scale(0.12 -0.12)">
       <defs>
        <path d="M 2113 2584 
Q 1688 2584 1439 2293 
Q 1191 2003 1191 1497 
Q 1191 994 1439 701 
Q 1688 409 2113 409 
Q 2538 409 2786 701 
Q 3034 994 3034 1497 
Q 3034 2003 2786 2293 
Q 2538 2584 2113 2584 
z
M 3366 4563 
L 3366 3988 
Q 3128 4100 2886 4159 
Q 2644 4219 2406 4219 
Q 1781 4219 1451 3797 
Q 1122 3375 1075 2522 
Q 1259 2794 1537 2939 
Q 1816 3084 2150 3084 
Q 2853 3084 3261 2657 
Q 3669 2231 3669 1497 
Q 3669 778 3244 343 
Q 2819 -91 2113 -91 
Q 1303 -91 875 529 
Q 447 1150 447 2328 
Q 447 3434 972 4092 
Q 1497 4750 2381 4750 
Q 2619 4750 2861 4703 
Q 3103 4656 3366 4563 
z
" id="DejaVuSans-36" transform="scale(0.015625)"/>
       </defs>
       <use xlink:href="#DejaVuSans-36"/>
      </g>
     </g>
    </g>
    <g id="ytick_5">
     <g id="line2d_28">
      <path clip-path="url(#p809aff1fb4)" d="M 35.47 191.333752 
L 481.87 191.333752 
" style="fill:none;stroke:#b0b0b0;stroke-linecap:square;stroke-opacity:0.3;"/>
     </g>
     <g id="line2d_29">
      <g>
       <use style="fill:#262626;stroke:#262626;" x="35.47" xlink:href="#mbb2dfe1308" y="191.333752"/>
      </g>
     </g>
     <g id="text_10">
      <!-- 8 -->
      <g style="fill:#262626;" transform="translate(14.835 195.892814)scale(0.12 -0.12)">
       <defs>
        <path d="M 2034 2216 
Q 1584 2216 1326 1975 
Q 1069 1734 1069 1313 
Q 1069 891 1326 650 
Q 1584 409 2034 409 
Q 2484 409 2743 651 
Q 3003 894 3003 1313 
Q 3003 1734 2745 1975 
Q 2488 2216 2034 2216 
z
M 1403 2484 
Q 997 2584 770 2862 
Q 544 3141 544 3541 
Q 544 4100 942 4425 
Q 1341 4750 2034 4750 
Q 2731 4750 3128 4425 
Q 3525 4100 3525 3541 
Q 3525 3141 3298 2862 
Q 3072 2584 2669 2484 
Q 3125 2378 3379 2068 
Q 3634 1759 3634 1313 
Q 3634 634 3220 271 
Q 2806 -91 2034 -91 
Q 1263 -91 848 271 
Q 434 634 434 1313 
Q 434 1759 690 2068 
Q 947 2378 1403 2484 
z
M 1172 3481 
Q 1172 3119 1398 2916 
Q 1625 2713 2034 2713 
Q 2441 2713 2670 2916 
Q 2900 3119 2900 3481 
Q 2900 3844 2670 4047 
Q 2441 4250 2034 4250 
Q 1625 4250 1398 4047 
Q 1172 3844 1172 3481 
z
" id="DejaVuSans-38" transform="scale(0.015625)"/>
       </defs>
       <use xlink:href="#DejaVuSans-38"/>
      </g>
     </g>
    </g>
    <g id="ytick_6">
     <g id="line2d_30">
      <path clip-path="url(#p809aff1fb4)" d="M 35.47 164.877814 
L 481.87 164.877814 
" style="fill:none;stroke:#b0b0b0;stroke-linecap:square;stroke-opacity:0.3;"/>
     </g>
     <g id="line2d_31">
      <g>
       <use style="fill:#262626;stroke:#262626;" x="35.47" xlink:href="#mbb2dfe1308" y="164.877814"/>
      </g>
     </g>
     <g id="text_11">
      <!-- 10 -->
      <g style="fill:#262626;" transform="translate(7.2 169.436877)scale(0.12 -0.12)">
       <use xlink:href="#DejaVuSans-31"/>
       <use x="63.623047" xlink:href="#DejaVuSans-30"/>
      </g>
     </g>
    </g>
    <g id="ytick_7">
     <g id="line2d_32">
      <path clip-path="url(#p809aff1fb4)" d="M 35.47 138.421877 
L 481.87 138.421877 
" style="fill:none;stroke:#b0b0b0;stroke-linecap:square;stroke-opacity:0.3;"/>
     </g>
     <g id="line2d_33">
      <g>
       <use style="fill:#262626;stroke:#262626;" x="35.47" xlink:href="#mbb2dfe1308" y="138.421877"/>
      </g>
     </g>
     <g id="text_12">
      <!-- 12 -->
      <g style="fill:#262626;" transform="translate(7.2 142.98094)scale(0.12 -0.12)">
       <use xlink:href="#DejaVuSans-31"/>
       <use x="63.623047" xlink:href="#DejaVuSans-32"/>
      </g>
     </g>
    </g>
    <g id="ytick_8">
     <g id="line2d_34">
      <path clip-path="url(#p809aff1fb4)" d="M 35.47 111.96594 
L 481.87 111.96594 
" style="fill:none;stroke:#b0b0b0;stroke-linecap:square;stroke-opacity:0.3;"/>
     </g>
     <g id="line2d_35">
      <g>
       <use style="fill:#262626;stroke:#262626;" x="35.47" xlink:href="#mbb2dfe1308" y="111.96594"/>
      </g>
     </g>
     <g id="text_13">
      <!-- 14 -->
      <g style="fill:#262626;" transform="translate(7.2 116.525003)scale(0.12 -0.12)">
       <use xlink:href="#DejaVuSans-31"/>
       <use x="63.623047" xlink:href="#DejaVuSans-34"/>
      </g>
     </g>
    </g>
    <g id="ytick_9">
     <g id="line2d_36">
      <path clip-path="url(#p809aff1fb4)" d="M 35.47 85.510003 
L 481.87 85.510003 
" style="fill:none;stroke:#b0b0b0;stroke-linecap:square;stroke-opacity:0.3;"/>
     </g>
     <g id="line2d_37">
      <g>
       <use style="fill:#262626;stroke:#262626;" x="35.47" xlink:href="#mbb2dfe1308" y="85.510003"/>
      </g>
     </g>
     <g id="text_14">
      <!-- 16 -->
      <g style="fill:#262626;" transform="translate(7.2 90.069066)scale(0.12 -0.12)">
       <use xlink:href="#DejaVuSans-31"/>
       <use x="63.623047" xlink:href="#DejaVuSans-36"/>
      </g>
     </g>
    </g>
    <g id="ytick_10">
     <g id="line2d_38">
      <path clip-path="url(#p809aff1fb4)" d="M 35.47 59.054066 
L 481.87 59.054066 
" style="fill:none;stroke:#b0b0b0;stroke-linecap:square;stroke-opacity:0.3;"/>
     </g>
     <g id="line2d_39">
      <g>
       <use style="fill:#262626;stroke:#262626;" x="35.47" xlink:href="#mbb2dfe1308" y="59.054066"/>
      </g>
     </g>
     <g id="text_15">
      <!-- 18 -->
      <g style="fill:#262626;" transform="translate(7.2 63.613128)scale(0.12 -0.12)">
       <use xlink:href="#DejaVuSans-31"/>
       <use x="63.623047" xlink:href="#DejaVuSans-38"/>
      </g>
     </g>
    </g>
    <g id="ytick_11">
     <g id="line2d_40">
      <path clip-path="url(#p809aff1fb4)" d="M 35.47 32.598129 
L 481.87 32.598129 
" style="fill:none;stroke:#b0b0b0;stroke-linecap:square;stroke-opacity:0.3;"/>
     </g>
     <g id="line2d_41">
      <g>
       <use style="fill:#262626;stroke:#262626;" x="35.47" xlink:href="#mbb2dfe1308" y="32.598129"/>
      </g>
     </g>
     <g id="text_16">
      <!-- 20 -->
      <g style="fill:#262626;" transform="translate(7.2 37.157191)scale(0.12 -0.12)">
       <use xlink:href="#DejaVuSans-32"/>
       <use x="63.623047" xlink:href="#DejaVuSans-30"/>
      </g>
     </g>
    </g>
   </g>
   <g id="line2d_42">
    <path clip-path="url(#p809aff1fb4)" d="M 35.47 297.1575 
L 69.464389 297.065386 
L 76.621102 296.875402 
L 78.410281 296.547247 
L 80.199459 295.873665 
L 82.883226 294.117748 
L 83.777816 293.167825 
L 84.672405 291.981862 
L 85.566994 290.410172 
L 86.461583 288.412456 
L 87.356172 286.017499 
L 90.03994 277.030657 
L 90.934529 272.183173 
L 91.829118 266.713922 
L 92.723707 260.415648 
L 95.407475 244.146066 
L 96.302064 238.049291 
L 97.196653 229.476959 
L 98.091242 224.42222 
L 100.77501 212.798623 
L 102.564188 209.902798 
L 103.458778 210.674251 
L 104.353367 208.077796 
L 105.247956 208.388679 
L 106.142545 208.872276 
L 107.037134 209.747357 
L 107.931723 209.165889 
L 108.826313 207.899325 
L 109.720902 207.542385 
L 110.615491 208.388679 
L 111.51008 206.627005 
L 112.404669 206.206736 
L 113.299259 207.674798 
L 114.193848 210.967863 
L 115.088437 215.089951 
L 115.983026 216.678912 
L 116.877615 217.018582 
L 118.666794 220.138933 
L 119.561383 220.069848 
L 120.455972 221.261569 
L 121.350561 222.009993 
L 122.24515 222.067564 
L 123.139739 222.626003 
L 124.034329 224.157393 
L 124.928918 225.049745 
L 125.823507 226.586892 
L 126.718096 227.795884 
L 127.612685 229.782086 
L 129.401864 236.713642 
L 130.296453 237.531151 
L 131.191042 238.060805 
L 132.085631 239.569167 
L 132.98022 240.501818 
L 133.87481 239.477053 
L 134.769399 240.277291 
L 135.663988 241.561125 
L 136.558577 244.992361 
L 137.453166 247.565787 
L 138.347756 248.21634 
L 139.242345 249.281405 
L 140.136934 252.879596 
L 141.031523 257.375896 
L 141.926112 257.623452 
L 143.715291 258.688516 
L 144.60988 259.459969 
L 145.504469 259.598139 
L 146.399058 258.556103 
L 147.293647 256.817457 
L 148.188236 259.402398 
L 149.082826 259.903266 
L 149.977415 261.279214 
L 150.872004 263.075431 
L 151.766593 263.97354 
L 152.661182 265.527959 
L 153.555772 265.94247 
L 154.450361 266.690894 
L 155.34495 267.698388 
L 156.239539 268.055328 
L 157.134128 267.508403 
L 160.712485 270.150915 
L 161.607074 270.974181 
L 163.396253 273.156124 
L 164.290842 273.328837 
L 165.185431 273.259752 
L 166.08002 273.62245 
L 166.974609 273.639721 
L 167.869198 274.509044 
L 168.763788 274.509044 
L 169.658377 274.825685 
L 170.552966 274.819928 
L 171.447555 274.946584 
L 172.342144 276.063463 
L 173.236733 276.259204 
L 174.131323 275.263225 
L 175.025912 275.021427 
L 175.920501 276.103763 
L 177.709679 276.115277 
L 178.604269 272.62647 
L 179.498858 271.929861 
L 180.393447 270.145158 
L 181.288036 269.30462 
L 182.182625 266.921178 
L 183.077214 266.080641 
L 183.971804 265.671886 
L 184.866393 267.007535 
L 185.760982 266.138212 
L 186.655571 266.512424 
L 188.444749 265.142232 
L 189.339339 265.06739 
L 190.233928 264.405323 
L 191.128517 263.507214 
L 192.023106 262.062181 
L 192.917695 261.400113 
L 193.812285 260.358077 
L 194.706874 259.937808 
L 195.601463 259.672982 
L 196.496052 256.425974 
L 197.390641 255.009725 
L 199.17982 253.01201 
L 200.074409 252.269343 
L 200.968998 251.336692 
L 201.863587 251.87786 
L 202.758176 255.015483 
L 203.652766 255.297581 
L 205.441944 255.055782 
L 207.231122 255.130625 
L 208.125711 254.629756 
L 209.020301 254.32463 
L 209.91489 255.832992 
L 210.809479 255.493322 
L 211.704068 256.51233 
L 212.598657 255.93662 
L 213.493246 256.385674 
L 214.387836 255.844506 
L 215.282425 256.662015 
L 216.177014 255.470294 
L 217.071603 256.391431 
L 217.966192 256.184175 
L 218.860782 257.600423 
L 220.64996 258.544589 
L 221.544549 258.648217 
L 222.439138 258.60216 
L 223.333727 259.603896 
L 224.228317 259.540568 
L 225.122906 260.196878 
L 226.017495 260.237178 
L 226.912084 260.761075 
L 227.806673 260.381106 
L 228.701263 261.572827 
L 230.490441 262.516992 
L 231.38503 262.632134 
L 232.279619 263.438129 
L 233.174208 263.346015 
L 234.068798 264.756506 
L 234.963387 268.078357 
L 235.857976 267.606274 
L 236.752565 268.302884 
L 237.647154 267.047835 
L 238.541743 267.393261 
L 239.436333 267.589003 
L 240.330922 266.806036 
L 241.225511 262.488206 
L 242.1201 263.662656 
L 243.014689 263.979297 
L 243.909279 265.597044 
L 244.803868 265.412816 
L 245.698457 266.391524 
L 246.593046 266.431824 
L 247.487635 267.399018 
L 248.382224 266.829065 
L 251.960581 265.844599 
L 252.85517 266.230325 
L 253.74976 267.37599 
L 254.644349 267.945943 
L 255.538938 268.089871 
L 257.328116 269.051308 
L 258.222705 268.671339 
L 259.117295 267.968972 
L 260.011884 268.821023 
L 260.906473 268.993736 
L 262.695651 267.73293 
L 263.59024 267.876858 
L 264.48483 267.358718 
L 265.379419 267.848072 
L 266.274008 267.214791 
L 267.168597 266.852093 
L 268.063186 267.652331 
L 268.957776 267.807773 
L 269.852365 267.209034 
L 270.746954 267.082377 
L 271.641543 266.59878 
L 273.430721 265.10769 
L 274.325311 264.739235 
L 275.2199 264.583793 
L 276.114489 263.501457 
L 277.009078 263.679927 
L 278.798257 263.086945 
L 279.692846 263.582057 
L 281.482024 262.522749 
L 282.376613 262.75879 
L 284.165792 262.327007 
L 285.060381 258.843958 
L 285.95497 258.371876 
L 287.744148 256.47203 
L 288.638737 255.487565 
L 289.533327 255.050025 
L 290.427916 253.869818 
L 291.322505 254.785198 
L 292.217094 252.942924 
L 293.111683 252.649312 
L 294.006273 252.862325 
L 294.900862 251.325178 
L 295.795451 250.139214 
L 296.69004 249.822573 
L 297.584629 248.095441 
L 298.479218 245.314759 
L 300.268397 236.063089 
L 302.952164 231.48619 
L 303.846754 229.114262 
L 304.741343 227.156846 
L 305.635932 231.00835 
L 306.530521 233.345735 
L 307.42511 234.813797 
L 308.319699 234.796526 
L 309.214289 233.363006 
L 310.108878 230.950779 
L 311.003467 227.732556 
L 311.898056 218.780256 
L 312.792645 212.165341 
L 313.687234 206.448535 
L 314.581824 204.64656 
L 315.476413 203.15547 
L 316.371002 202.740958 
L 317.265591 200.674157 
L 318.16018 200.369031 
L 319.05477 196.281485 
L 319.949359 195.636689 
L 320.843948 194.013185 
L 321.738537 193.731087 
L 324.422305 185.124213 
L 325.316894 187.680368 
L 326.211483 186.569247 
L 327.106072 186.056864 
L 328.895251 182.861671 
L 329.78984 184.208833 
L 330.684429 187.674611 
L 331.579018 196.500255 
L 332.473607 200.956255 
L 333.368196 202.608545 
L 334.262786 202.119191 
L 335.157375 200.835356 
L 336.051964 199.131253 
L 336.946553 195.728803 
L 337.841142 191.560658 
L 338.735731 187.973981 
L 339.630321 187.870353 
L 341.419499 186.937702 
L 342.314088 185.930208 
L 343.208677 183.02287 
L 344.103267 171.767727 
L 344.997856 167.092957 
L 345.892445 163.932305 
L 346.787034 163.834435 
L 347.681623 159.436005 
L 348.576212 158.831509 
L 349.470802 158.848781 
L 350.365391 160.109587 
L 351.25998 159.614476 
L 352.154569 160.201701 
L 353.049158 163.494765 
L 353.943747 173.59273 
L 354.838337 171.312916 
L 355.732926 170.052109 
L 357.522104 170.691148 
L 358.416693 170.696905 
L 359.311283 168.146507 
L 360.205872 160.737111 
L 361.100461 163.293267 
L 362.889639 165.745794 
L 363.784228 168.958259 
L 364.678818 169.205815 
L 365.573407 168.664647 
L 366.467996 171.992254 
L 367.362585 172.331923 
L 368.257174 173.823014 
L 369.151764 173.494859 
L 370.046353 174.34691 
L 372.73012 181.445422 
L 373.624709 184.922715 
L 374.519299 187.945195 
L 375.413888 192.366653 
L 376.308477 194.917051 
L 377.203066 196.500255 
L 378.097655 200.299945 
L 378.992244 207.893568 
L 379.886834 213.034664 
L 380.781423 217.024339 
L 381.676012 218.739956 
L 382.570601 220.9219 
L 383.46519 220.421031 
L 384.35978 218.319688 
L 385.254369 215.308721 
L 386.148958 210.887264 
L 387.043547 211.319047 
L 387.938136 214.491212 
L 388.832725 216.235615 
L 389.727315 217.133724 
L 390.621904 215.999574 
L 391.516493 217.87639 
L 392.411082 221.854551 
L 393.305671 224.750375 
L 394.200261 226.414179 
L 395.09485 226.460236 
L 395.989439 228.734293 
L 396.884028 233.219079 
L 397.778617 234.025073 
L 398.673206 239.269797 
L 399.567796 241.457497 
L 400.462385 242.689518 
L 401.356974 245.614128 
L 402.251563 246.293467 
L 403.146152 246.20711 
L 404.040741 249.822573 
L 404.935331 251.762718 
L 405.82992 251.175493 
L 406.724509 253.58772 
L 407.619098 255.050025 
L 408.513687 255.861777 
L 409.408277 256.080547 
L 410.302866 257.82495 
L 411.197455 256.25326 
L 412.092044 257.709808 
L 412.986633 257.692537 
L 413.881222 257.450739 
L 414.775812 256.972899 
L 416.56499 256.944113 
L 417.459579 259.339069 
L 418.354168 261.2677 
L 419.248758 262.413364 
L 420.143347 262.701219 
L 421.932525 265.142232 
L 422.827114 265.280403 
L 423.721703 256.650501 
L 425.510882 257.312568 
L 426.405471 257.421953 
L 427.30006 257.381653 
L 429.089238 257.773136 
L 429.983828 267.088134 
L 430.878417 267.77323 
L 432.667595 268.020786 
L 434.456774 267.681116 
L 435.351363 267.652331 
L 436.245952 268.320155 
L 437.140541 267.974729 
L 438.03513 268.475597 
L 438.929719 268.176227 
L 439.824309 268.435297 
L 440.718898 268.481354 
L 441.613487 269.546419 
L 442.508076 268.924651 
L 443.402665 269.460062 
L 445.191844 269.799731 
L 446.086433 269.500362 
L 446.981022 269.465819 
L 447.875611 268.124413 
L 448.7702 269.120393 
L 449.66479 269.52339 
L 450.559379 269.477333 
L 453.243146 271.129623 
L 454.137735 272.30983 
L 455.032325 271.935618 
L 455.926914 271.860775 
L 456.821503 272.419215 
L 457.716092 273.213695 
L 458.610681 273.046739 
L 459.505271 273.133096 
L 460.39986 272.637985 
L 461.294449 273.772135 
L 462.189038 274.572372 
L 463.083627 274.842956 
L 463.978216 274.848713 
L 464.872806 275.326553 
L 465.767395 275.102026 
L 466.661984 275.942564 
L 467.556573 274.192403 
L 468.451162 270.358171 
L 469.345752 270.611483 
L 470.240341 271.428992 
L 471.13493 271.803204 
L 472.029519 273.501551 
L 472.924108 273.415194 
L 473.818697 275.815907 
L 474.713287 280.076166 
L 475.607876 280.410078 
L 476.502465 280.225851 
L 477.397054 279.506212 
L 477.397054 279.506212 
" style="fill:none;stroke:#4c72b0;stroke-linecap:square;stroke-width:2;"/>
   </g>
   <g id="line2d_43">
    <path clip-path="url(#p809aff1fb4)" d="M 35.47 297.1575 
L 57.834729 297.063481 
L 64.096854 296.185965 
L 64.991443 295.747208 
L 66.780621 294.180217 
L 67.67521 293.051983 
L 68.5698 291.641691 
L 69.464389 290.764176 
L 70.358978 286.752678 
L 71.253567 284.276832 
L 72.148156 279.857917 
L 75.726513 259.298992 
L 77.515691 244.036498 
L 78.410281 238.489349 
L 79.30487 229.745538 
L 80.199459 222.28666 
L 81.094048 210.471546 
L 81.988637 191.103535 
L 83.777816 174.336729 
L 84.672405 161.863479 
L 85.566994 155.344795 
L 87.356172 137.261717 
L 89.145351 130.962412 
L 90.03994 124.349709 
L 90.934529 121.403766 
L 92.723707 118.520502 
L 93.618297 123.315495 
L 98.091242 155.689533 
L 98.985832 160.390507 
L 99.880421 166.533112 
L 100.77501 168.476182 
L 101.669599 171.422125 
L 102.564188 173.615913 
L 103.458778 173.678592 
L 104.353367 172.550359 
L 105.247956 175.214244 
L 106.142545 175.057545 
L 107.037134 179.351101 
L 107.931723 179.288421 
L 108.826313 182.798481 
L 109.720902 184.929589 
L 110.615491 189.348505 
L 111.51008 191.260234 
L 112.404669 196.117907 
L 113.299259 198.217675 
L 114.193848 203.639464 
L 115.088437 207.431583 
L 115.983026 212.195236 
L 116.877615 215.767976 
L 117.772204 221.377805 
L 118.666794 226.110118 
L 119.561383 224.261069 
L 120.455972 226.956294 
L 122.24515 235.856804 
L 123.139739 234.415172 
L 124.034329 234.75991 
L 124.928918 235.574745 
L 125.823507 244.349896 
L 126.718096 244.631955 
L 127.612685 245.133392 
L 128.507275 247.13914 
L 129.401864 252.59227 
L 130.296453 252.968348 
L 131.191042 252.999688 
L 132.085631 254.28462 
L 132.98022 254.911417 
L 133.87481 257.418603 
L 134.769399 257.732001 
L 135.663988 258.797555 
L 137.453166 265.629637 
L 138.347756 266.695191 
L 139.242345 269.672474 
L 140.136934 269.891853 
L 141.031523 272.524398 
L 141.926112 273.90335 
L 142.820701 276.598575 
L 143.715291 277.946188 
L 144.60988 278.196906 
L 145.504469 277.413411 
L 146.399058 278.416285 
L 147.293647 279.137101 
L 148.188236 280.578733 
L 149.082826 280.014616 
L 149.977415 280.077296 
L 150.872004 281.299549 
L 151.766593 281.989025 
L 152.661182 281.832326 
L 153.555772 281.08017 
L 154.450361 281.08017 
L 155.34495 282.177064 
L 156.239539 283.085919 
L 157.134128 282.89788 
L 158.028717 283.179938 
L 160.712485 286.689999 
L 161.607074 286.282581 
L 162.501663 286.564639 
L 163.396253 287.473494 
L 164.290842 288.100291 
L 165.185431 288.19431 
L 166.08002 288.695747 
L 166.974609 291.014894 
L 167.869198 292.017769 
L 168.763788 292.550546 
L 169.658377 293.835479 
L 170.552966 293.898158 
L 171.447555 294.430935 
L 172.342144 294.274236 
L 173.236733 292.644565 
L 174.131323 292.769925 
L 175.025912 293.240022 
L 175.920501 292.832604 
L 176.81509 293.302702 
L 177.709679 293.240022 
L 178.604269 293.020643 
L 179.498858 293.208682 
L 180.393447 293.772799 
L 181.288036 293.866818 
L 182.182625 294.305576 
L 183.971804 294.086197 
L 184.866393 294.493615 
L 185.760982 294.556295 
L 186.655571 294.305576 
L 187.55016 294.336916 
L 188.444749 294.117537 
L 189.339339 294.305576 
L 191.128517 294.368256 
L 192.023106 294.493615 
L 192.917695 294.807013 
L 194.706874 295.277111 
L 195.601463 295.214431 
L 196.496052 295.465149 
L 199.17982 295.903907 
L 200.074409 295.778548 
L 201.863587 295.684528 
L 202.758176 295.465149 
L 203.652766 295.653188 
L 205.441944 295.43381 
L 206.336533 295.621849 
L 207.231122 295.37113 
L 209.020301 295.809888 
L 212.598657 295.778548 
L 213.493246 291.234273 
L 215.282425 291.171594 
L 217.966192 291.296953 
L 218.860782 291.108914 
L 219.755371 295.966587 
L 221.544549 295.872567 
L 222.439138 295.903907 
L 223.333727 295.715868 
L 227.806673 295.841227 
L 228.701263 295.715868 
L 229.595852 295.935247 
L 231.38503 295.715868 
L 232.279619 295.245771 
L 234.963387 294.901033 
L 235.857976 294.650314 
L 237.647154 294.681654 
L 238.541743 294.995052 
L 243.909279 294.932372 
L 244.803868 294.368256 
L 245.698457 294.117537 
L 247.487635 293.866818 
L 249.276814 293.302702 
L 250.171403 292.989303 
L 251.065992 293.208682 
L 252.85517 293.177342 
L 253.74976 292.863944 
L 255.538938 292.863944 
L 256.433527 292.769925 
L 257.328116 292.456526 
L 260.011884 292.299827 
L 260.906473 291.923749 
L 261.801062 291.986429 
L 264.48483 291.516332 
L 265.379419 290.795516 
L 267.168597 290.01202 
L 268.063186 288.100291 
L 268.957776 287.254116 
L 269.852365 286.689999 
L 270.746954 285.342386 
L 271.641543 284.276832 
L 272.536132 282.772521 
L 273.430721 280.139975 
L 274.325311 278.478965 
L 275.2199 277.350731 
L 276.114489 274.091389 
L 277.009078 272.24234 
L 277.903667 270.111232 
L 278.798257 265.974375 
L 280.587435 260.991343 
L 281.482024 257.606642 
L 282.376613 253.031027 
L 283.271202 250.523841 
L 284.165792 247.640578 
L 285.95497 238.896767 
L 286.849559 232.284064 
L 287.744148 224.543127 
L 290.427916 212.822033 
L 291.322505 205.707893 
L 292.217094 197.2148 
L 293.111683 190.696117 
L 294.006273 187.436775 
L 294.900862 183.707336 
L 295.795451 176.969274 
L 298.479218 163.524489 
L 299.373808 162.991712 
L 301.162986 153.683785 
L 302.057575 153.182347 
L 303.846754 145.410071 
L 304.741343 146.381605 
L 305.635932 141.085175 
L 306.530521 137.073678 
L 307.42511 137.261717 
L 308.319699 137.919853 
L 309.214289 136.60358 
L 310.108878 138.734688 
L 311.003467 139.925602 
L 311.898056 134.566492 
L 312.792645 134.973909 
L 313.687234 135.726065 
L 314.581824 135.005249 
L 316.371002 144.250497 
L 317.265591 150.048365 
L 318.16018 153.370386 
L 319.05477 155.031397 
L 319.949359 155.438815 
L 320.843948 157.946001 
L 321.738537 159.105574 
L 322.633126 152.461531 
L 323.527715 146.789023 
L 324.422305 153.182347 
L 326.211483 158.917535 
L 327.106072 163.054392 
L 328.000661 165.436219 
L 328.895251 172.2683 
L 329.78984 176.248458 
L 330.684429 181.826947 
L 331.579018 188.565009 
L 332.473607 197.716238 
L 333.368196 199.189209 
L 335.157375 197.27748 
L 336.051964 196.588004 
L 336.946553 195.021013 
L 337.841142 194.926993 
L 338.735731 191.698991 
L 339.630321 190.382719 
L 340.52491 193.422682 
L 341.419499 193.73608 
L 342.314088 194.582255 
L 343.208677 199.00117 
L 344.103267 194.049478 
L 344.997856 190.320039 
L 345.892445 189.881282 
L 346.787034 186.747299 
L 347.681623 187.781513 
L 348.576212 189.066446 
L 349.470802 185.681745 
L 350.365391 190.16334 
L 351.25998 190.414059 
L 352.154569 189.912621 
L 353.049158 192.137749 
L 353.943747 192.545167 
L 354.838337 192.01239 
L 355.732926 192.043729 
L 356.627515 192.200429 
L 357.522104 191.793011 
L 358.416693 194.237517 
L 359.311283 192.889905 
L 361.100461 196.619344 
L 361.99505 197.528199 
L 362.889639 197.3715 
L 364.678818 201.414337 
L 365.573407 204.266261 
L 366.467996 205.582534 
L 367.362585 205.300475 
L 368.257174 207.525603 
L 369.151764 210.659585 
L 370.046353 211.787819 
L 370.940942 210.753605 
L 371.835531 211.443081 
L 372.73012 213.856247 
L 373.624709 218.243823 
L 374.519299 219.184017 
L 375.413888 221.095747 
L 376.308477 223.414894 
L 378.097655 226.486196 
L 378.992244 229.181421 
L 379.886834 228.147207 
L 380.781423 229.526159 
L 381.676012 228.523285 
L 382.570601 230.403674 
L 383.46519 230.058936 
L 385.254369 228.930703 
L 386.148958 230.529034 
L 387.043547 231.751287 
L 387.938136 234.72857 
L 388.832725 233.819715 
L 389.727315 235.073308 
L 390.621904 235.950823 
L 391.516493 236.358241 
L 393.305671 234.477851 
L 394.200261 233.098899 
L 395.09485 232.252724 
L 395.989439 231.782627 
L 396.884028 229.526159 
L 397.778617 228.491945 
L 398.673206 228.962042 
L 399.567796 227.896488 
L 400.462385 225.295283 
L 401.356974 224.981885 
L 402.251563 223.195515 
L 403.146152 222.067281 
L 404.040741 218.118463 
L 404.935331 215.015821 
L 405.82992 213.448829 
L 406.724509 213.26079 
L 407.619098 210.628245 
L 409.408277 208.497137 
L 410.302866 206.961486 
L 411.197455 206.052631 
L 412.092044 204.893057 
L 412.986633 202.66793 
L 413.881222 203.326066 
L 414.775812 203.420086 
L 415.670401 202.448551 
L 416.56499 203.138027 
L 417.459579 202.918648 
L 418.354168 201.633716 
L 419.248758 200.88156 
L 420.143347 201.006919 
L 421.037936 200.098064 
L 422.827114 207.274884 
L 423.721703 202.260512 
L 424.616293 202.69927 
L 425.510882 195.271731 
L 426.405471 196.274606 
L 427.30006 196.117907 
L 429.089238 192.451147 
L 429.983828 197.402839 
L 430.878417 200.756201 
L 431.773006 209.81341 
L 432.667595 210.878964 
L 433.562184 213.38615 
L 434.456774 214.702422 
L 435.351363 217.397647 
L 436.245952 220.688329 
L 437.140541 221.315125 
L 438.03513 224.04169 
L 438.929719 223.665612 
L 439.824309 224.731166 
L 441.613487 225.734041 
L 442.508076 226.360837 
L 444.297255 231.09315 
L 445.191844 234.101774 
L 446.086433 236.389581 
L 446.981022 237.799873 
L 448.7702 242.344147 
L 449.66479 243.284342 
L 450.559379 245.039372 
L 452.348557 245.258751 
L 454.137735 248.768811 
L 455.032325 248.92551 
L 455.926914 250.71188 
L 456.821503 251.495376 
L 457.716092 254.253281 
L 458.610681 255.694913 
L 460.39986 259.079614 
L 461.294449 262.621014 
L 462.189038 263.780587 
L 463.083627 262.652353 
L 463.978216 262.997092 
L 464.872806 263.655228 
L 467.556573 266.569832 
L 468.451162 266.350453 
L 469.345752 269.233717 
L 470.240341 270.549989 
L 472.029519 272.305019 
L 472.924108 274.592827 
L 473.818697 276.441876 
L 474.713287 279.951936 
L 475.607876 281.612947 
L 476.502465 282.427783 
L 477.397054 282.208404 
L 477.397054 282.208404 
" style="fill:none;stroke:#55a868;stroke-linecap:square;stroke-width:2;"/>
   </g>
   <g id="line2d_44">
    <path clip-path="url(#p809aff1fb4)" d="M 35.47 297.1575 
L 73.937335 297.089306 
L 79.30487 296.58922 
L 81.988637 295.452659 
L 82.883226 295.270809 
L 84.672405 294.134248 
L 87.356172 290.906415 
L 88.250762 289.224305 
L 91.829118 280.92741 
L 92.723707 278.063277 
L 93.618297 275.949273 
L 94.512886 274.176238 
L 95.407475 273.26699 
L 96.302064 270.675631 
L 97.196653 268.948058 
L 98.091242 264.674589 
L 98.985832 263.060673 
L 99.880421 263.242522 
L 100.77501 267.788766 
L 101.669599 264.470008 
L 102.564188 265.697494 
L 103.458778 268.107003 
L 104.353367 264.083578 
L 105.247956 264.31089 
L 107.037134 257.991611 
L 107.931723 261.605875 
L 108.826313 259.241828 
L 109.720902 257.627912 
L 110.615491 263.628953 
L 111.51008 262.537855 
L 112.404669 265.151945 
L 113.299259 264.924633 
L 114.193848 265.561107 
L 115.088437 268.42524 
L 115.983026 268.038809 
L 116.877615 270.152813 
L 117.772204 273.335183 
L 118.666794 274.971831 
L 120.455972 276.926716 
L 121.350561 277.449534 
L 122.24515 281.723003 
L 123.139739 278.790676 
L 124.034329 279.677193 
L 124.928918 279.563537 
L 127.612685 281.973046 
L 128.507275 280.222742 
L 129.401864 283.837006 
L 131.191042 288.360519 
L 132.98022 288.224131 
L 133.87481 289.383423 
L 134.769399 289.360692 
L 135.663988 290.724565 
L 136.558577 289.906241 
L 137.453166 289.633467 
L 138.347756 289.815317 
L 139.242345 289.860779 
L 141.031523 290.542716 
L 141.926112 290.701834 
L 142.820701 291.088265 
L 143.715291 290.883684 
L 144.60988 291.042802 
L 146.399058 291.56562 
L 147.293647 292.815837 
L 148.188236 293.202268 
L 150.872004 293.906936 
L 151.766593 293.861473 
L 152.661182 293.975129 
L 153.555772 293.224999 
L 154.450361 293.747817 
L 156.239539 294.316098 
L 158.923307 294.611604 
L 159.817896 295.248078 
L 160.712485 294.907109 
L 162.501663 294.793453 
L 163.396253 294.838916 
L 164.290842 295.020765 
L 166.08002 295.020765 
L 167.869198 295.679971 
L 168.763788 295.384465 
L 169.658377 295.498121 
L 172.342144 295.429927 
L 173.236733 295.634508 
L 174.131323 295.65724 
L 175.025912 296.134595 
L 176.81509 295.907283 
L 178.604269 296.202789 
L 179.498858 295.998208 
L 183.971804 295.975477 
L 184.866393 296.111864 
L 185.760982 296.384639 
L 189.339339 296.680144 
L 192.023106 296.657413 
L 192.917695 296.634682 
L 193.812285 296.430101 
L 199.17982 296.384639 
L 200.074409 296.543757 
L 201.863587 296.475563 
L 203.652766 296.430101 
L 204.547355 296.157326 
L 205.441944 296.316445 
L 206.336533 296.066402 
L 209.91489 296.134595 
L 210.809479 296.384639 
L 212.598657 296.361907 
L 216.177014 296.40737 
L 217.071603 296.339176 
L 217.966192 296.111864 
L 218.860782 296.339176 
L 222.439138 296.248251 
L 223.333727 296.339176 
L 224.228317 296.543757 
L 225.122906 296.611951 
L 226.017495 296.543757 
L 227.806673 296.543757 
L 228.701263 296.566488 
L 229.595852 296.316445 
L 230.490441 296.430101 
L 231.38503 296.316445 
L 232.279619 296.475563 
L 234.963387 296.498295 
L 235.857976 296.702876 
L 236.752565 296.634682 
L 238.541743 296.634682 
L 240.330922 296.58922 
L 241.225511 296.452832 
L 243.014689 296.452832 
L 243.909279 296.293714 
L 246.593046 296.384639 
L 247.487635 296.293714 
L 249.276814 295.793627 
L 252.85517 295.384465 
L 253.74976 295.384465 
L 254.644349 295.520852 
L 255.538938 295.498121 
L 256.433527 295.634508 
L 257.328116 295.520852 
L 258.222705 295.589046 
L 259.117295 295.202615 
L 260.011884 295.270809 
L 260.906473 295.179884 
L 262.695651 295.316271 
L 264.48483 295.043497 
L 265.379419 295.202615 
L 266.274008 294.520679 
L 267.168597 294.111517 
L 268.063186 293.861473 
L 268.957776 293.202268 
L 269.852365 293.406849 
L 270.746954 293.24773 
L 271.641543 292.565794 
L 273.430721 292.724912 
L 274.325311 292.133901 
L 275.2199 292.4976 
L 276.114489 291.474695 
L 277.009078 291.156458 
L 278.798257 291.724739 
L 279.692846 290.179016 
L 280.587435 289.31523 
L 281.482024 287.769507 
L 282.376613 286.973914 
L 283.271202 286.905721 
L 284.165792 284.018856 
L 285.060381 283.609694 
L 285.95497 280.540979 
L 286.849559 278.858869 
L 287.744148 277.858696 
L 288.638737 278.449707 
L 289.533327 277.631384 
L 290.427916 280.35913 
L 291.322505 272.971484 
L 292.217094 273.403377 
L 294.006273 270.698362 
L 294.900862 269.766382 
L 295.795451 269.857307 
L 296.69004 264.765514 
L 297.584629 266.311237 
L 298.479218 265.424719 
L 299.373808 264.288158 
L 300.268397 262.742436 
L 302.952164 260.173808 
L 303.846754 258.650816 
L 304.741343 255.786683 
L 305.635932 252.19515 
L 306.530521 249.58106 
L 308.319699 248.353575 
L 309.214289 246.375959 
L 311.003467 241.488747 
L 311.898056 241.306897 
L 312.792645 238.829194 
L 313.687234 236.737922 
L 314.581824 236.169642 
L 315.476413 234.873962 
L 316.371002 232.941809 
L 317.265591 233.487358 
L 318.16018 229.713976 
L 319.05477 229.191158 
L 319.949359 227.577241 
L 320.843948 226.304293 
L 321.738537 224.417602 
L 322.633126 216.643525 
L 323.527715 210.483365 
L 324.422305 207.073682 
L 325.316894 201.981889 
L 326.211483 200.072467 
L 327.106072 199.549649 
L 328.000661 195.412567 
L 329.78984 191.775572 
L 330.684429 199.345068 
L 331.579018 210.187859 
L 332.473607 211.347151 
L 333.368196 208.573943 
L 336.946553 195.753536 
L 337.841142 193.389489 
L 338.735731 194.094157 
L 339.630321 195.003405 
L 340.52491 192.525703 
L 341.419499 195.09433 
L 342.314088 192.48024 
L 343.208677 179.04609 
L 344.103267 163.566131 
L 344.997856 158.110638 
L 345.892445 157.474164 
L 346.787034 159.610899 
L 347.681623 157.76967 
L 348.576212 154.837343 
L 349.470802 155.769323 
L 350.365391 167.975987 
L 351.25998 163.793443 
L 352.154569 161.565783 
L 353.049158 172.954124 
L 353.943747 158.315219 
L 354.838337 162.725076 
L 355.732926 168.294224 
L 356.627515 160.588341 
L 357.522104 174.204341 
L 358.416693 174.522578 
L 359.311283 163.861636 
L 360.205872 192.093809 
L 361.100461 195.139793 
L 361.99505 183.34229 
L 362.889639 193.207639 
L 363.784228 178.227766 
L 364.678818 186.524661 
L 365.573407 185.047132 
L 366.467996 175.022665 
L 367.362585 177.18213 
L 368.257174 189.161482 
L 369.151764 182.637623 
L 370.046353 196.094504 
L 370.940942 193.844113 
L 371.835531 203.232106 
L 373.624709 208.596674 
L 374.519299 215.552427 
L 375.413888 218.802991 
L 376.308477 218.984841 
L 377.203066 219.894089 
L 378.992244 232.987271 
L 379.886834 227.599972 
L 380.781423 228.48649 
L 381.676012 229.645782 
L 382.570601 231.396086 
L 383.46519 232.623572 
L 384.35978 227.259004 
L 385.254369 229.964019 
L 386.148958 241.73879 
L 387.043547 249.467404 
L 387.938136 247.194282 
L 388.832725 246.944239 
L 389.727315 247.012433 
L 390.621904 248.26265 
L 391.516493 248.489962 
L 392.411082 249.080973 
L 393.305671 246.898777 
L 394.200261 253.67268 
L 395.09485 254.900165 
L 395.989439 255.513908 
L 397.778617 260.605701 
L 398.673206 261.401294 
L 399.567796 261.560412 
L 401.356974 264.924633 
L 402.251563 263.538028 
L 403.146152 263.856265 
L 404.040741 264.924633 
L 404.935331 270.221006 
L 405.82992 268.016078 
L 406.724509 268.516165 
L 407.619098 266.765861 
L 408.513687 267.766035 
L 409.408277 267.425067 
L 410.302866 267.538723 
L 411.197455 264.401815 
L 412.092044 268.357047 
L 412.986633 269.425414 
L 414.775812 269.811844 
L 415.670401 271.471223 
L 416.56499 271.380299 
L 417.459579 272.039504 
L 418.354168 270.925674 
L 419.248758 271.880385 
L 420.143347 272.266816 
L 421.037936 272.130429 
L 421.932525 274.494475 
L 422.827114 277.699577 
L 423.721703 270.6529 
L 424.616293 269.289026 
L 425.510882 266.356699 
L 426.405471 265.515644 
L 427.30006 264.424546 
L 429.089238 254.150035 
L 429.983828 259.150903 
L 430.878417 260.264733 
L 431.773006 260.810282 
L 432.667595 261.492219 
L 433.562184 261.878649 
L 434.456774 261.764993 
L 435.351363 262.08323 
L 436.245952 262.810629 
L 437.140541 262.356005 
L 438.03513 260.833013 
L 438.929719 259.901033 
L 439.824309 260.355658 
L 440.718898 259.514603 
L 441.613487 259.764646 
L 442.508076 259.65099 
L 443.402665 259.378215 
L 444.297255 260.673895 
L 445.191844 260.855745 
L 446.086433 260.310195 
L 446.981022 260.878476 
L 447.875611 261.583144 
L 448.7702 261.855918 
L 449.66479 261.6968 
L 450.559379 261.651337 
L 451.453968 261.196713 
L 452.348557 261.878649 
L 453.243146 262.765167 
L 454.137735 263.174329 
L 455.032325 267.379604 
L 455.926914 264.69732 
L 457.716092 267.356873 
L 458.610681 267.10683 
L 459.505271 268.334315 
L 460.39986 267.925153 
L 461.294449 264.038115 
L 462.189038 268.016078 
L 463.083627 268.220659 
L 463.978216 267.947885 
L 464.872806 268.447971 
L 465.767395 272.72144 
L 466.661984 273.016946 
L 467.556573 272.33501 
L 468.451162 273.130602 
L 469.345752 273.130602 
L 471.13493 274.380819 
L 472.029519 271.243911 
L 473.818697 275.676499 
L 474.713287 278.086008 
L 475.607876 279.154375 
L 476.502465 278.631557 
L 477.397054 278.563364 
L 477.397054 278.563364 
" style="fill:none;stroke:#c44e52;stroke-linecap:square;stroke-width:2;"/>
   </g>
   <g id="line2d_45">
    <path clip-path="url(#p809aff1fb4)" d="M 35.47 297.1575 
L 71.253567 297.072676 
L 72.148156 296.959578 
L 74.831924 296.903029 
L 77.515691 295.404481 
L 78.410281 295.036912 
L 79.30487 294.075579 
L 80.199459 292.831501 
L 81.094048 291.954991 
L 81.988637 290.852285 
L 82.883226 290.230246 
L 83.777816 288.703423 
L 84.672405 284.999462 
L 85.566994 280.560365 
L 86.461583 276.743307 
L 88.250762 262.888799 
L 89.145351 257.912485 
L 90.03994 249.486683 
L 90.934529 242.276684 
L 94.512886 189.431632 
L 95.407475 178.489398 
L 96.302064 173.032418 
L 97.196653 153.183715 
L 98.091242 143.061442 
L 98.985832 130.083443 
L 99.880421 119.169484 
L 100.77501 116.709602 
L 101.669599 115.069681 
L 102.564188 110.630583 
L 103.458778 111.450544 
L 104.353367 115.69172 
L 105.247956 117.95368 
L 106.142545 123.863052 
L 107.037134 116.455131 
L 107.931723 122.816895 
L 108.826313 127.171169 
L 109.720902 122.986542 
L 110.615491 123.919601 
L 111.51008 133.928776 
L 112.404669 131.186149 
L 113.299259 139.385756 
L 114.193848 141.308422 
L 115.983026 155.587048 
L 116.877615 157.792459 
L 117.772204 159.149636 
L 118.666794 167.971281 
L 119.561383 174.502692 
L 120.455972 177.641163 
L 121.350561 178.998339 
L 122.24515 185.869044 
L 123.139739 189.318534 
L 124.034329 194.294847 
L 124.928918 197.659513 
L 125.823507 206.396335 
L 126.718096 207.414218 
L 127.612685 209.817551 
L 128.507275 212.984295 
L 129.401864 218.639196 
L 130.296453 221.636294 
L 131.191042 228.111156 
L 132.085631 224.265823 
L 132.98022 228.506999 
L 133.87481 229.666254 
L 135.663988 236.254214 
L 136.558577 238.4879 
L 137.453166 240.156096 
L 138.347756 245.556526 
L 139.242345 236.73488 
L 140.136934 237.92241 
L 141.031523 248.355702 
L 141.926112 245.697899 
L 142.820701 243.718683 
L 143.715291 244.19935 
L 144.60988 246.065467 
L 145.504469 255.085035 
L 146.399058 255.593976 
L 147.293647 252.257584 
L 148.188236 257.007701 
L 149.082826 263.030171 
L 149.977415 263.482563 
L 150.872004 263.793583 
L 151.766593 263.96323 
L 152.661182 265.065936 
L 153.555772 266.592759 
L 154.450361 269.137464 
L 155.34495 270.664288 
L 156.239539 274.25515 
L 157.134128 275.273032 
L 158.028717 276.036444 
L 158.923307 276.545385 
L 159.817896 278.665973 
L 160.712485 280.192796 
L 161.607074 280.447267 
L 162.501663 281.776169 
L 163.396253 282.794051 
L 164.290842 282.680953 
L 165.185431 283.10507 
L 166.974609 284.490521 
L 167.869198 283.585737 
L 168.763788 283.783659 
L 169.658377 284.660168 
L 170.552966 284.660168 
L 171.447555 284.462247 
L 172.342144 285.621501 
L 173.236733 285.338756 
L 174.131323 286.978678 
L 175.025912 287.770364 
L 176.81509 288.335854 
L 177.709679 288.618599 
L 178.604269 288.590325 
L 179.498858 289.721305 
L 180.393447 290.00405 
L 182.182625 290.852285 
L 183.077214 291.13503 
L 183.971804 291.163305 
L 184.866393 291.44605 
L 185.760982 292.322559 
L 188.444749 292.972873 
L 190.233928 292.916324 
L 191.128517 293.45354 
L 192.023106 293.70801 
L 192.917695 294.132128 
L 194.706874 293.792834 
L 195.601463 293.877657 
L 197.390641 294.188677 
L 198.28523 293.70801 
L 200.968998 294.358324 
L 203.652766 294.58452 
L 204.547355 295.15001 
L 205.441944 294.641069 
L 207.231122 295.15001 
L 208.125711 295.15001 
L 209.020301 294.669343 
L 209.91489 294.810716 
L 210.809479 294.641069 
L 214.387836 294.669343 
L 215.282425 295.093461 
L 217.071603 295.234834 
L 218.860782 295.828598 
L 219.755371 295.404481 
L 223.333727 295.234834 
L 225.122906 294.867265 
L 226.912084 295.178285 
L 227.806673 295.234834 
L 228.701263 295.602402 
L 229.595852 295.772049 
L 234.068798 295.658951 
L 234.963387 294.83899 
L 238.541743 295.065187 
L 240.330922 294.810716 
L 241.225511 294.952089 
L 242.1201 294.612794 
L 243.014689 294.414873 
L 244.803868 293.312167 
L 245.698457 292.944599 
L 246.593046 292.88805 
L 247.487635 292.605305 
L 249.276814 291.587422 
L 251.065992 291.163305 
L 252.85517 291.13503 
L 254.644349 289.212364 
L 255.538938 288.675148 
L 256.433527 287.770364 
L 258.222705 286.922129 
L 260.011884 286.611109 
L 260.906473 286.639384 
L 262.695651 285.536678 
L 265.379419 282.8506 
L 268.063186 277.337071 
L 268.957776 275.95162 
L 269.852365 274.000679 
L 270.746954 273.94413 
L 271.641543 273.095895 
L 272.536132 270.324994 
L 274.325311 267.356171 
L 275.2199 264.868014 
L 276.114489 264.189426 
L 277.009078 261.814367 
L 277.903667 261.192328 
L 279.692846 254.265074 
L 280.587435 251.692094 
L 281.482024 250.278369 
L 282.376613 245.980644 
L 283.271202 245.669624 
L 285.060381 243.860056 
L 285.95497 238.714096 
L 286.849559 235.943194 
L 288.638737 231.193077 
L 289.533327 231.362724 
L 290.427916 229.722803 
L 291.322505 225.905745 
L 292.217094 222.99347 
L 293.111683 217.762687 
L 294.006273 217.168922 
L 294.900862 215.783471 
L 295.795451 215.444177 
L 296.69004 214.906962 
L 297.584629 213.040844 
L 299.373808 216.659981 
L 300.268397 212.842923 
L 301.162986 216.292412 
L 302.057575 209.789276 
L 302.952164 209.987198 
L 303.846754 209.704453 
L 304.741343 205.010885 
L 305.635932 205.095708 
L 306.530521 204.841237 
L 307.42511 200.911081 
L 308.319699 206.085316 
L 310.108878 206.311512 
L 311.003467 207.640414 
L 311.898056 210.015472 
L 312.792645 210.467864 
L 313.687234 212.786374 
L 314.581824 212.333982 
L 315.476413 212.729825 
L 316.371002 212.842923 
L 317.265591 216.094491 
L 318.16018 213.210491 
L 319.05477 215.472452 
L 319.949359 211.994688 
L 320.843948 214.45457 
L 321.738537 213.238766 
L 322.633126 215.868295 
L 323.527715 213.634609 
L 324.422305 213.182217 
L 325.316894 211.344374 
L 326.211483 210.948531 
L 327.106072 205.802571 
L 328.000661 206.283237 
L 328.895251 201.052454 
L 329.78984 197.320219 
L 330.684429 196.13269 
L 331.579018 193.842455 
L 332.473607 203.003395 
L 333.368196 202.40963 
L 334.262786 198.39465 
L 335.157375 204.98261 
L 336.051964 198.281552 
L 336.946553 187.254495 
L 337.841142 186.038691 
L 338.735731 179.394182 
L 339.630321 176.36881 
L 340.52491 174.955084 
L 341.419499 163.19289 
L 342.314088 161.49642 
L 343.208677 155.898067 
L 344.103267 135.766619 
L 344.997856 119.08466 
L 346.787034 112.553249 
L 347.681623 102.119957 
L 348.576212 87.33239 
L 349.470802 84.900782 
L 350.365391 86.173135 
L 351.25998 78.821764 
L 352.154569 75.768117 
L 353.049158 73.788902 
L 353.943747 63.412158 
L 354.838337 56.173884 
L 355.732926 54.986355 
L 356.627515 51.56514 
L 357.522104 50.066591 
L 358.416693 51.791336 
L 359.311283 51.989257 
L 360.205872 51.395493 
L 361.100461 54.081571 
L 361.99505 55.523571 
L 363.784228 64.11902 
L 364.678818 64.769334 
L 366.467996 75.174352 
L 367.362585 86.568978 
L 368.257174 95.729918 
L 369.151764 102.261329 
L 370.046353 112.779446 
L 370.940942 118.83019 
L 371.835531 120.894229 
L 372.73012 132.119208 
L 373.624709 141.195324 
L 376.308477 160.987478 
L 378.097655 167.151321 
L 380.781423 188.074455 
L 381.676012 194.436219 
L 382.570601 199.412532 
L 383.46519 200.628336 
L 384.35978 202.126885 
L 385.254369 209.223786 
L 386.148958 217.59304 
L 387.043547 221.297 
L 387.938136 226.612607 
L 388.832725 230.995156 
L 390.621904 235.066685 
L 391.516493 240.862958 
L 392.411082 239.590606 
L 393.305671 241.880841 
L 394.200261 244.962762 
L 395.09485 248.694996 
L 395.989439 250.448016 
L 396.884028 251.550722 
L 397.778617 254.717466 
L 398.673206 263.114995 
L 400.462385 266.564484 
L 401.356974 267.610641 
L 402.251563 268.458876 
L 403.146152 268.487151 
L 404.040741 271.908366 
L 404.935331 273.293817 
L 406.724509 277.846012 
L 407.619098 278.552875 
L 408.513687 279.090091 
L 409.408277 280.418992 
L 410.302866 280.362443 
L 411.197455 281.578247 
L 413.881222 284.405698 
L 414.775812 284.801541 
L 415.670401 284.631894 
L 417.459579 287.798638 
L 418.354168 288.137933 
L 419.248758 288.646874 
L 420.143347 290.00405 
L 421.037936 290.258521 
L 421.932525 290.173697 
L 422.827114 291.163305 
L 424.616293 291.050207 
L 425.510882 290.824011 
L 426.405471 289.975775 
L 427.30006 290.060599 
L 428.194649 290.428168 
L 429.089238 290.343344 
L 429.983828 290.541266 
L 431.773006 291.926716 
L 432.667595 292.068089 
L 433.562184 291.983265 
L 434.456774 292.237736 
L 435.351363 291.954991 
L 436.245952 292.463932 
L 437.140541 292.803226 
L 438.03513 292.633579 
L 438.929719 292.718403 
L 440.718898 292.633579 
L 441.613487 293.085971 
L 442.508076 292.831501 
L 443.402665 292.718403 
L 445.191844 294.132128 
L 446.086433 294.047304 
L 446.981022 294.188677 
L 447.875611 294.556245 
L 448.7702 294.612794 
L 449.66479 294.867265 
L 451.453968 294.923814 
L 452.348557 295.263108 
L 453.243146 295.178285 
L 454.137735 294.725892 
L 455.032325 295.178285 
L 455.926914 295.234834 
L 459.505271 295.036912 
L 460.39986 295.404481 
L 463.083627 295.969971 
L 465.767395 296.02652 
L 467.556573 295.630677 
L 469.345752 295.517579 
L 472.029519 295.517579 
L 472.924108 295.941696 
L 473.818697 295.856873 
L 474.713287 295.630677 
L 475.607876 295.602402 
L 476.502465 295.432755 
L 477.397054 295.489304 
L 477.397054 295.489304 
" style="fill:none;stroke:#8172b2;stroke-linecap:square;stroke-width:2;"/>
   </g>
   <g id="patch_3">
    <path d="M 35.47 297.1575 
L 35.47 25.3575 
" style="fill:none;stroke:#000000;stroke-linecap:square;stroke-linejoin:miter;stroke-width:0.8;"/>
   </g>
   <g id="patch_4">
    <path d="M 35.47 297.1575 
L 481.87 297.1575 
" style="fill:none;stroke:#000000;stroke-linecap:square;stroke-linejoin:miter;stroke-width:0.8;"/>
   </g>
   <g id="text_17">
    <!-- USA -->
    <g style="fill:#4c72b0;" transform="translate(482.397054 283.506212)scale(0.14 -0.14)">
     <defs>
      <path d="M 556 4666 
L 1191 4666 
L 1191 1831 
Q 1191 1081 1462 751 
Q 1734 422 2344 422 
Q 2950 422 3222 751 
Q 3494 1081 3494 1831 
L 3494 4666 
L 4128 4666 
L 4128 1753 
Q 4128 841 3676 375 
Q 3225 -91 2344 -91 
Q 1459 -91 1007 375 
Q 556 841 556 1753 
L 556 4666 
z
" id="DejaVuSans-55" transform="scale(0.015625)"/>
      <path d="M 3425 4513 
L 3425 3897 
Q 3066 4069 2747 4153 
Q 2428 4238 2131 4238 
Q 1616 4238 1336 4038 
Q 1056 3838 1056 3469 
Q 1056 3159 1242 3001 
Q 1428 2844 1947 2747 
L 2328 2669 
Q 3034 2534 3370 2195 
Q 3706 1856 3706 1288 
Q 3706 609 3251 259 
Q 2797 -91 1919 -91 
Q 1588 -91 1214 -16 
Q 841 59 441 206 
L 441 856 
Q 825 641 1194 531 
Q 1563 422 1919 422 
Q 2459 422 2753 634 
Q 3047 847 3047 1241 
Q 3047 1584 2836 1778 
Q 2625 1972 2144 2069 
L 1759 2144 
Q 1053 2284 737 2584 
Q 422 2884 422 3419 
Q 422 4038 858 4394 
Q 1294 4750 2059 4750 
Q 2388 4750 2728 4690 
Q 3069 4631 3425 4513 
z
" id="DejaVuSans-53" transform="scale(0.015625)"/>
     </defs>
     <use xlink:href="#DejaVuSans-55"/>
     <use x="73.193359" xlink:href="#DejaVuSans-53"/>
     <use x="138.544922" xlink:href="#DejaVuSans-41"/>
    </g>
   </g>
   <g id="text_18">
    <!-- Italy -->
    <g style="fill:#55a868;" transform="translate(482.397054 286.208404)scale(0.14 -0.14)">
     <defs>
      <path d="M 628 4666 
L 1259 4666 
L 1259 0 
L 628 0 
L 628 4666 
z
" id="DejaVuSans-49" transform="scale(0.015625)"/>
      <path d="M 2059 -325 
Q 1816 -950 1584 -1140 
Q 1353 -1331 966 -1331 
L 506 -1331 
L 506 -850 
L 844 -850 
Q 1081 -850 1212 -737 
Q 1344 -625 1503 -206 
L 1606 56 
L 191 3500 
L 800 3500 
L 1894 763 
L 2988 3500 
L 3597 3500 
L 2059 -325 
z
" id="DejaVuSans-79" transform="scale(0.015625)"/>
     </defs>
     <use xlink:href="#DejaVuSans-49"/>
     <use x="29.492188" xlink:href="#DejaVuSans-74"/>
     <use x="68.701172" xlink:href="#DejaVuSans-61"/>
     <use x="129.980469" xlink:href="#DejaVuSans-6c"/>
     <use x="157.763672" xlink:href="#DejaVuSans-79"/>
    </g>
   </g>
   <g id="text_19">
    <!-- Germany -->
    <g style="fill:#c44e52;" transform="translate(482.397054 282.563364)scale(0.14 -0.14)">
     <defs>
      <path d="M 3809 666 
L 3809 1919 
L 2778 1919 
L 2778 2438 
L 4434 2438 
L 4434 434 
Q 4069 175 3628 42 
Q 3188 -91 2688 -91 
Q 1594 -91 976 548 
Q 359 1188 359 2328 
Q 359 3472 976 4111 
Q 1594 4750 2688 4750 
Q 3144 4750 3555 4637 
Q 3966 4525 4313 4306 
L 4313 3634 
Q 3963 3931 3569 4081 
Q 3175 4231 2741 4231 
Q 1884 4231 1454 3753 
Q 1025 3275 1025 2328 
Q 1025 1384 1454 906 
Q 1884 428 2741 428 
Q 3075 428 3337 486 
Q 3600 544 3809 666 
z
" id="DejaVuSans-47" transform="scale(0.015625)"/>
      <path d="M 3597 1894 
L 3597 1613 
L 953 1613 
Q 991 1019 1311 708 
Q 1631 397 2203 397 
Q 2534 397 2845 478 
Q 3156 559 3463 722 
L 3463 178 
Q 3153 47 2828 -22 
Q 2503 -91 2169 -91 
Q 1331 -91 842 396 
Q 353 884 353 1716 
Q 353 2575 817 3079 
Q 1281 3584 2069 3584 
Q 2775 3584 3186 3129 
Q 3597 2675 3597 1894 
z
M 3022 2063 
Q 3016 2534 2758 2815 
Q 2500 3097 2075 3097 
Q 1594 3097 1305 2825 
Q 1016 2553 972 2059 
L 3022 2063 
z
" id="DejaVuSans-65" transform="scale(0.015625)"/>
      <path d="M 3328 2828 
Q 3544 3216 3844 3400 
Q 4144 3584 4550 3584 
Q 5097 3584 5394 3201 
Q 5691 2819 5691 2113 
L 5691 0 
L 5113 0 
L 5113 2094 
Q 5113 2597 4934 2840 
Q 4756 3084 4391 3084 
Q 3944 3084 3684 2787 
Q 3425 2491 3425 1978 
L 3425 0 
L 2847 0 
L 2847 2094 
Q 2847 2600 2669 2842 
Q 2491 3084 2119 3084 
Q 1678 3084 1418 2786 
Q 1159 2488 1159 1978 
L 1159 0 
L 581 0 
L 581 3500 
L 1159 3500 
L 1159 2956 
Q 1356 3278 1631 3431 
Q 1906 3584 2284 3584 
Q 2666 3584 2933 3390 
Q 3200 3197 3328 2828 
z
" id="DejaVuSans-6d" transform="scale(0.015625)"/>
     </defs>
     <use xlink:href="#DejaVuSans-47"/>
     <use x="77.490234" xlink:href="#DejaVuSans-65"/>
     <use x="139.013672" xlink:href="#DejaVuSans-72"/>
     <use x="178.376953" xlink:href="#DejaVuSans-6d"/>
     <use x="275.789062" xlink:href="#DejaVuSans-61"/>
     <use x="337.068359" xlink:href="#DejaVuSans-6e"/>
     <use x="400.447266" xlink:href="#DejaVuSans-79"/>
    </g>
   </g>
   <g id="text_20">
    <!-- UK -->
    <g style="fill:#8172b2;" transform="translate(482.397054 299.489304)scale(0.14 -0.14)">
     <defs>
      <path d="M 628 4666 
L 1259 4666 
L 1259 2694 
L 3353 4666 
L 4166 4666 
L 1850 2491 
L 4331 0 
L 3500 0 
L 1259 2247 
L 1259 0 
L 628 0 
L 628 4666 
z
" id="DejaVuSans-4b" transform="scale(0.015625)"/>
     </defs>
     <use xlink:href="#DejaVuSans-55"/>
     <use x="73.193359" xlink:href="#DejaVuSans-4b"/>
    </g>
   </g>
   <g id="text_21">
    <!-- Deaths per million people -->
    <g style="fill:#262626;" transform="translate(155.62625 19.3575)scale(0.16 -0.16)">
     <defs>
      <path d="M 1259 4147 
L 1259 519 
L 2022 519 
Q 2988 519 3436 956 
Q 3884 1394 3884 2338 
Q 3884 3275 3436 3711 
Q 2988 4147 2022 4147 
L 1259 4147 
z
M 628 4666 
L 1925 4666 
Q 3281 4666 3915 4102 
Q 4550 3538 4550 2338 
Q 4550 1131 3912 565 
Q 3275 0 1925 0 
L 628 0 
L 628 4666 
z
" id="DejaVuSans-44" transform="scale(0.015625)"/>
      <path d="M 3513 2113 
L 3513 0 
L 2938 0 
L 2938 2094 
Q 2938 2591 2744 2837 
Q 2550 3084 2163 3084 
Q 1697 3084 1428 2787 
Q 1159 2491 1159 1978 
L 1159 0 
L 581 0 
L 581 4863 
L 1159 4863 
L 1159 2956 
Q 1366 3272 1645 3428 
Q 1925 3584 2291 3584 
Q 2894 3584 3203 3211 
Q 3513 2838 3513 2113 
z
" id="DejaVuSans-68" transform="scale(0.015625)"/>
      <path d="M 2834 3397 
L 2834 2853 
Q 2591 2978 2328 3040 
Q 2066 3103 1784 3103 
Q 1356 3103 1142 2972 
Q 928 2841 928 2578 
Q 928 2378 1081 2264 
Q 1234 2150 1697 2047 
L 1894 2003 
Q 2506 1872 2764 1633 
Q 3022 1394 3022 966 
Q 3022 478 2636 193 
Q 2250 -91 1575 -91 
Q 1294 -91 989 -36 
Q 684 19 347 128 
L 347 722 
Q 666 556 975 473 
Q 1284 391 1588 391 
Q 1994 391 2212 530 
Q 2431 669 2431 922 
Q 2431 1156 2273 1281 
Q 2116 1406 1581 1522 
L 1381 1569 
Q 847 1681 609 1914 
Q 372 2147 372 2553 
Q 372 3047 722 3315 
Q 1072 3584 1716 3584 
Q 2034 3584 2315 3537 
Q 2597 3491 2834 3397 
z
" id="DejaVuSans-73" transform="scale(0.015625)"/>
      <path id="DejaVuSans-20" transform="scale(0.015625)"/>
      <path d="M 603 3500 
L 1178 3500 
L 1178 0 
L 603 0 
L 603 3500 
z
M 603 4863 
L 1178 4863 
L 1178 4134 
L 603 4134 
L 603 4863 
z
" id="DejaVuSans-69" transform="scale(0.015625)"/>
      <path d="M 1959 3097 
Q 1497 3097 1228 2736 
Q 959 2375 959 1747 
Q 959 1119 1226 758 
Q 1494 397 1959 397 
Q 2419 397 2687 759 
Q 2956 1122 2956 1747 
Q 2956 2369 2687 2733 
Q 2419 3097 1959 3097 
z
M 1959 3584 
Q 2709 3584 3137 3096 
Q 3566 2609 3566 1747 
Q 3566 888 3137 398 
Q 2709 -91 1959 -91 
Q 1206 -91 779 398 
Q 353 888 353 1747 
Q 353 2609 779 3096 
Q 1206 3584 1959 3584 
z
" id="DejaVuSans-6f" transform="scale(0.015625)"/>
     </defs>
     <use xlink:href="#DejaVuSans-44"/>
     <use x="77.001953" xlink:href="#DejaVuSans-65"/>
     <use x="138.525391" xlink:href="#DejaVuSans-61"/>
     <use x="199.804688" xlink:href="#DejaVuSans-74"/>
     <use x="239.013672" xlink:href="#DejaVuSans-68"/>
     <use x="302.392578" xlink:href="#DejaVuSans-73"/>
     <use x="354.492188" xlink:href="#DejaVuSans-20"/>
     <use x="386.279297" xlink:href="#DejaVuSans-70"/>
     <use x="449.755859" xlink:href="#DejaVuSans-65"/>
     <use x="511.279297" xlink:href="#DejaVuSans-72"/>
     <use x="552.392578" xlink:href="#DejaVuSans-20"/>
     <use x="584.179688" xlink:href="#DejaVuSans-6d"/>
     <use x="681.591797" xlink:href="#DejaVuSans-69"/>
     <use x="709.375" xlink:href="#DejaVuSans-6c"/>
     <use x="737.158203" xlink:href="#DejaVuSans-6c"/>
     <use x="764.941406" xlink:href="#DejaVuSans-69"/>
     <use x="792.724609" xlink:href="#DejaVuSans-6f"/>
     <use x="853.90625" xlink:href="#DejaVuSans-6e"/>
     <use x="917.285156" xlink:href="#DejaVuSans-20"/>
     <use x="949.072266" xlink:href="#DejaVuSans-70"/>
     <use x="1012.548828" xlink:href="#DejaVuSans-65"/>
     <use x="1074.072266" xlink:href="#DejaVuSans-6f"/>
     <use x="1135.253906" xlink:href="#DejaVuSans-70"/>
     <use x="1198.730469" xlink:href="#DejaVuSans-6c"/>
     <use x="1226.513672" xlink:href="#DejaVuSans-65"/>
    </g>
   </g>
   <g id="legend_1"/>
   <g id="PathCollection_1">
    <defs>
     <path d="M 0 2.236068 
C 0.593012 2.236068 1.161816 2.000462 1.581139 1.581139 
C 2.000462 1.161816 2.236068 0.593012 2.236068 -0 
C 2.236068 -0.593012 2.000462 -1.161816 1.581139 -1.581139 
C 1.161816 -2.000462 0.593012 -2.236068 0 -2.236068 
C -0.593012 -2.236068 -1.161816 -2.000462 -1.581139 -1.581139 
C -2.000462 -1.161816 -2.236068 -0.593012 -2.236068 0 
C -2.236068 0.593012 -2.000462 1.161816 -1.581139 1.581139 
C -1.161816 2.000462 -0.593012 2.236068 0 2.236068 
z
" id="C0_0_8e33369a8a"/>
    </defs>
    <g clip-path="url(#p809aff1fb4)">
     <use style="fill:#4c72b0;stroke:#4c72b0;" x="477.397054" xlink:href="#C0_0_8e33369a8a" y="279.506212"/>
    </g>
    <g clip-path="url(#p809aff1fb4)">
     <use style="fill:#55a868;stroke:#55a868;" x="477.397054" xlink:href="#C0_0_8e33369a8a" y="282.208404"/>
    </g>
    <g clip-path="url(#p809aff1fb4)">
     <use style="fill:#c44e52;stroke:#c44e52;" x="477.397054" xlink:href="#C0_0_8e33369a8a" y="278.563364"/>
    </g>
    <g clip-path="url(#p809aff1fb4)">
     <use style="fill:#8172b2;stroke:#8172b2;" x="477.397054" xlink:href="#C0_0_8e33369a8a" y="295.489304"/>
    </g>
   </g>
  </g>
 </g>
 <defs>
  <clipPath id="p809aff1fb4">
   <rect height="271.8" width="446.4" x="35.47" y="25.3575"/>
  </clipPath>
 </defs>
</svg>
