<?xml version="1.0" encoding="utf-8" standalone="no"?>
<!DOCTYPE svg PUBLIC "-//W3C//DTD SVG 1.1//EN"
  "http://www.w3.org/Graphics/SVG/1.1/DTD/svg11.dtd">
<!-- Created with matplotlib (https://matplotlib.org/) -->
<svg height="342.408625pt" version="1.1" viewBox="0 0 505.479752 342.408625" width="505.479752pt" xmlns="http://www.w3.org/2000/svg" xmlns:xlink="http://www.w3.org/1999/xlink">
 <defs>
  <style type="text/css">
*{stroke-linecap:butt;stroke-linejoin:round;}
  </style>
 </defs>
 <g id="figure_1">
  <g id="patch_1">
   <path d="M 0 342.408625 
L 505.479752 342.408625 
L 505.479752 0 
L 0 0 
z
" style="fill:#ffffff;"/>
  </g>
  <g id="axes_1">
   <g id="patch_2">
    <path d="M 35.47 297.1575 
L 481.87 297.1575 
L 481.87 25.3575 
L 35.47 25.3575 
z
" style="fill:#ffffff;"/>
   </g>
   <g id="matplotlib.axis_1">
    <g id="xtick_1">
     <g id="line2d_1">
      <defs>
       <path d="M 0 0 
L 0 6 
" id="mad1c63b838" style="stroke:#262626;"/>
      </defs>
      <g>
       <use style="fill:#262626;stroke:#262626;" x="35.47" xlink:href="#mad1c63b838" y="297.1575"/>
      </g>
     </g>
    </g>
    <g id="xtick_2">
     <g id="line2d_2">
      <g>
       <use style="fill:#262626;stroke:#262626;" x="59.299181" xlink:href="#mad1c63b838" y="297.1575"/>
      </g>
     </g>
     <g id="text_1">
      <!-- Mar -->
      <defs>
       <path d="M 9.8125 72.90625 
L 24.515625 72.90625 
L 43.109375 23.296875 
L 61.8125 72.90625 
L 76.515625 72.90625 
L 76.515625 0 
L 66.890625 0 
L 66.890625 64.015625 
L 48.09375 14.015625 
L 38.1875 14.015625 
L 19.390625 64.015625 
L 19.390625 0 
L 9.8125 0 
z
" id="DejaVuSans-77"/>
       <path d="M 34.28125 27.484375 
Q 23.390625 27.484375 19.1875 25 
Q 14.984375 22.515625 14.984375 16.5 
Q 14.984375 11.71875 18.140625 8.90625 
Q 21.296875 6.109375 26.703125 6.109375 
Q 34.1875 6.109375 38.703125 11.40625 
Q 43.21875 16.703125 43.21875 25.484375 
L 43.21875 27.484375 
z
M 52.203125 31.203125 
L 52.203125 0 
L 43.21875 0 
L 43.21875 8.296875 
Q 40.140625 3.328125 35.546875 0.953125 
Q 30.953125 -1.421875 24.3125 -1.421875 
Q 15.921875 -1.421875 10.953125 3.296875 
Q 6 8.015625 6 15.921875 
Q 6 25.140625 12.171875 29.828125 
Q 18.359375 34.515625 30.609375 34.515625 
L 43.21875 34.515625 
L 43.21875 35.40625 
Q 43.21875 41.609375 39.140625 45 
Q 35.0625 48.390625 27.6875 48.390625 
Q 23 48.390625 18.546875 47.265625 
Q 14.109375 46.140625 10.015625 43.890625 
L 10.015625 52.203125 
Q 14.9375 54.109375 19.578125 55.046875 
Q 24.21875 56 28.609375 56 
Q 40.484375 56 46.34375 49.84375 
Q 52.203125 43.703125 52.203125 31.203125 
z
" id="DejaVuSans-97"/>
       <path d="M 41.109375 46.296875 
Q 39.59375 47.171875 37.8125 47.578125 
Q 36.03125 48 33.890625 48 
Q 26.265625 48 22.1875 43.046875 
Q 18.109375 38.09375 18.109375 28.8125 
L 18.109375 0 
L 9.078125 0 
L 9.078125 54.6875 
L 18.109375 54.6875 
L 18.109375 46.1875 
Q 20.953125 51.171875 25.484375 53.578125 
Q 30.03125 56 36.53125 56 
Q 37.453125 56 38.578125 55.875 
Q 39.703125 55.765625 41.0625 55.515625 
z
" id="DejaVuSans-114"/>
      </defs>
      <g style="fill:#262626;" transform="translate(47.978869 319.275625)scale(0.12 -0.12)">
       <use xlink:href="#DejaVuSans-77"/>
       <use x="86.279297" xlink:href="#DejaVuSans-97"/>
       <use x="147.558594" xlink:href="#DejaVuSans-114"/>
      </g>
      <!-- 2020 -->
      <defs>
       <path d="M 19.1875 8.296875 
L 53.609375 8.296875 
L 53.609375 0 
L 7.328125 0 
L 7.328125 8.296875 
Q 12.9375 14.109375 22.625 23.890625 
Q 32.328125 33.6875 34.8125 36.53125 
Q 39.546875 41.84375 41.421875 45.53125 
Q 43.3125 49.21875 43.3125 52.78125 
Q 43.3125 58.59375 39.234375 62.25 
Q 35.15625 65.921875 28.609375 65.921875 
Q 23.96875 65.921875 18.8125 64.3125 
Q 13.671875 62.703125 7.8125 59.421875 
L 7.8125 69.390625 
Q 13.765625 71.78125 18.9375 73 
Q 24.125 74.21875 28.421875 74.21875 
Q 39.75 74.21875 46.484375 68.546875 
Q 53.21875 62.890625 53.21875 53.421875 
Q 53.21875 48.921875 51.53125 44.890625 
Q 49.859375 40.875 45.40625 35.40625 
Q 44.1875 33.984375 37.640625 27.21875 
Q 31.109375 20.453125 19.1875 8.296875 
z
" id="DejaVuSans-50"/>
       <path d="M 31.78125 66.40625 
Q 24.171875 66.40625 20.328125 58.90625 
Q 16.5 51.421875 16.5 36.375 
Q 16.5 21.390625 20.328125 13.890625 
Q 24.171875 6.390625 31.78125 6.390625 
Q 39.453125 6.390625 43.28125 13.890625 
Q 47.125 21.390625 47.125 36.375 
Q 47.125 51.421875 43.28125 58.90625 
Q 39.453125 66.40625 31.78125 66.40625 
z
M 31.78125 74.21875 
Q 44.046875 74.21875 50.515625 64.515625 
Q 56.984375 54.828125 56.984375 36.375 
Q 56.984375 17.96875 50.515625 8.265625 
Q 44.046875 -1.421875 31.78125 -1.421875 
Q 19.53125 -1.421875 13.0625 8.265625 
Q 6.59375 17.96875 6.59375 36.375 
Q 6.59375 54.828125 13.0625 64.515625 
Q 19.53125 74.21875 31.78125 74.21875 
z
" id="DejaVuSans-48"/>
      </defs>
      <g style="fill:#262626;" transform="translate(44.029181 332.713)scale(0.12 -0.12)">
       <use xlink:href="#DejaVuSans-50"/>
       <use x="63.623047" xlink:href="#DejaVuSans-48"/>
       <use x="127.246094" xlink:href="#DejaVuSans-50"/>
       <use x="190.869141" xlink:href="#DejaVuSans-48"/>
      </g>
     </g>
    </g>
    <g id="xtick_3">
     <g id="line2d_3">
      <g>
       <use style="fill:#262626;stroke:#262626;" x="108.546157" xlink:href="#mad1c63b838" y="297.1575"/>
      </g>
     </g>
     <g id="text_2">
      <!-- Apr -->
      <defs>
       <path d="M 34.1875 63.1875 
L 20.796875 26.90625 
L 47.609375 26.90625 
z
M 28.609375 72.90625 
L 39.796875 72.90625 
L 67.578125 0 
L 57.328125 0 
L 50.6875 18.703125 
L 17.828125 18.703125 
L 11.1875 0 
L 0.78125 0 
z
" id="DejaVuSans-65"/>
       <path d="M 18.109375 8.203125 
L 18.109375 -20.796875 
L 9.078125 -20.796875 
L 9.078125 54.6875 
L 18.109375 54.6875 
L 18.109375 46.390625 
Q 20.953125 51.265625 25.265625 53.625 
Q 29.59375 56 35.59375 56 
Q 45.5625 56 51.78125 48.09375 
Q 58.015625 40.1875 58.015625 27.296875 
Q 58.015625 14.40625 51.78125 6.484375 
Q 45.5625 -1.421875 35.59375 -1.421875 
Q 29.59375 -1.421875 25.265625 0.953125 
Q 20.953125 3.328125 18.109375 8.203125 
z
M 48.6875 27.296875 
Q 48.6875 37.203125 44.609375 42.84375 
Q 40.53125 48.484375 33.40625 48.484375 
Q 26.265625 48.484375 22.1875 42.84375 
Q 18.109375 37.203125 18.109375 27.296875 
Q 18.109375 17.390625 22.1875 11.75 
Q 26.265625 6.109375 33.40625 6.109375 
Q 40.53125 6.109375 44.609375 11.75 
Q 48.6875 17.390625 48.6875 27.296875 
z
" id="DejaVuSans-112"/>
      </defs>
      <g style="fill:#262626;" transform="translate(98.166157 319.275625)scale(0.12 -0.12)">
       <use xlink:href="#DejaVuSans-65"/>
       <use x="68.408203" xlink:href="#DejaVuSans-112"/>
       <use x="131.884766" xlink:href="#DejaVuSans-114"/>
      </g>
     </g>
    </g>
    <g id="xtick_4">
     <g id="line2d_4">
      <g>
       <use style="fill:#262626;stroke:#262626;" x="156.20452" xlink:href="#mad1c63b838" y="297.1575"/>
      </g>
     </g>
     <g id="text_3">
      <!-- May -->
      <defs>
       <path d="M 32.171875 -5.078125 
Q 28.375 -14.84375 24.75 -17.8125 
Q 21.140625 -20.796875 15.09375 -20.796875 
L 7.90625 -20.796875 
L 7.90625 -13.28125 
L 13.1875 -13.28125 
Q 16.890625 -13.28125 18.9375 -11.515625 
Q 21 -9.765625 23.484375 -3.21875 
L 25.09375 0.875 
L 2.984375 54.6875 
L 12.5 54.6875 
L 29.59375 11.921875 
L 46.6875 54.6875 
L 56.203125 54.6875 
z
" id="DejaVuSans-121"/>
      </defs>
      <g style="fill:#262626;" transform="translate(143.79952 319.275625)scale(0.12 -0.12)">
       <use xlink:href="#DejaVuSans-77"/>
       <use x="86.279297" xlink:href="#DejaVuSans-97"/>
       <use x="147.558594" xlink:href="#DejaVuSans-121"/>
      </g>
     </g>
    </g>
    <g id="xtick_5">
     <g id="line2d_5">
      <g>
       <use style="fill:#262626;stroke:#262626;" x="205.451495" xlink:href="#mad1c63b838" y="297.1575"/>
      </g>
     </g>
     <g id="text_4">
      <!-- Jun -->
      <defs>
       <path d="M 9.8125 72.90625 
L 19.671875 72.90625 
L 19.671875 5.078125 
Q 19.671875 -8.109375 14.671875 -14.0625 
Q 9.671875 -20.015625 -1.421875 -20.015625 
L -5.171875 -20.015625 
L -5.171875 -11.71875 
L -2.09375 -11.71875 
Q 4.4375 -11.71875 7.125 -8.046875 
Q 9.8125 -4.390625 9.8125 5.078125 
z
" id="DejaVuSans-74"/>
       <path d="M 8.5 21.578125 
L 8.5 54.6875 
L 17.484375 54.6875 
L 17.484375 21.921875 
Q 17.484375 14.15625 20.5 10.265625 
Q 23.53125 6.390625 29.59375 6.390625 
Q 36.859375 6.390625 41.078125 11.03125 
Q 45.3125 15.671875 45.3125 23.6875 
L 45.3125 54.6875 
L 54.296875 54.6875 
L 54.296875 0 
L 45.3125 0 
L 45.3125 8.40625 
Q 42.046875 3.421875 37.71875 1 
Q 33.40625 -1.421875 27.6875 -1.421875 
Q 18.265625 -1.421875 13.375 4.4375 
Q 8.5 10.296875 8.5 21.578125 
z
M 31.109375 56 
z
" id="DejaVuSans-117"/>
       <path d="M 54.890625 33.015625 
L 54.890625 0 
L 45.90625 0 
L 45.90625 32.71875 
Q 45.90625 40.484375 42.875 44.328125 
Q 39.84375 48.1875 33.796875 48.1875 
Q 26.515625 48.1875 22.3125 43.546875 
Q 18.109375 38.921875 18.109375 30.90625 
L 18.109375 0 
L 9.078125 0 
L 9.078125 54.6875 
L 18.109375 54.6875 
L 18.109375 46.1875 
Q 21.34375 51.125 25.703125 53.5625 
Q 30.078125 56 35.796875 56 
Q 45.21875 56 50.046875 50.171875 
Q 54.890625 44.34375 54.890625 33.015625 
z
" id="DejaVuSans-110"/>
      </defs>
      <g style="fill:#262626;" transform="translate(196.076495 319.275625)scale(0.12 -0.12)">
       <use xlink:href="#DejaVuSans-74"/>
       <use x="29.492188" xlink:href="#DejaVuSans-117"/>
       <use x="92.871094" xlink:href="#DejaVuSans-110"/>
      </g>
     </g>
    </g>
    <g id="xtick_6">
     <g id="line2d_6">
      <g>
       <use style="fill:#262626;stroke:#262626;" x="253.109858" xlink:href="#mad1c63b838" y="297.1575"/>
      </g>
     </g>
     <g id="text_5">
      <!-- Jul -->
      <defs>
       <path d="M 9.421875 75.984375 
L 18.40625 75.984375 
L 18.40625 0 
L 9.421875 0 
z
" id="DejaVuSans-108"/>
      </defs>
      <g style="fill:#262626;" transform="translate(245.870483 319.275625)scale(0.12 -0.12)">
       <use xlink:href="#DejaVuSans-74"/>
       <use x="29.492188" xlink:href="#DejaVuSans-117"/>
       <use x="92.871094" xlink:href="#DejaVuSans-108"/>
      </g>
     </g>
    </g>
    <g id="xtick_7">
     <g id="line2d_7">
      <g>
       <use style="fill:#262626;stroke:#262626;" x="302.356833" xlink:href="#mad1c63b838" y="297.1575"/>
      </g>
     </g>
     <g id="text_6">
      <!-- Aug -->
      <defs>
       <path d="M 45.40625 27.984375 
Q 45.40625 37.75 41.375 43.109375 
Q 37.359375 48.484375 30.078125 48.484375 
Q 22.859375 48.484375 18.828125 43.109375 
Q 14.796875 37.75 14.796875 27.984375 
Q 14.796875 18.265625 18.828125 12.890625 
Q 22.859375 7.515625 30.078125 7.515625 
Q 37.359375 7.515625 41.375 12.890625 
Q 45.40625 18.265625 45.40625 27.984375 
z
M 54.390625 6.78125 
Q 54.390625 -7.171875 48.1875 -13.984375 
Q 42 -20.796875 29.203125 -20.796875 
Q 24.46875 -20.796875 20.265625 -20.09375 
Q 16.0625 -19.390625 12.109375 -17.921875 
L 12.109375 -9.1875 
Q 16.0625 -11.328125 19.921875 -12.34375 
Q 23.78125 -13.375 27.78125 -13.375 
Q 36.625 -13.375 41.015625 -8.765625 
Q 45.40625 -4.15625 45.40625 5.171875 
L 45.40625 9.625 
Q 42.625 4.78125 38.28125 2.390625 
Q 33.9375 0 27.875 0 
Q 17.828125 0 11.671875 7.65625 
Q 5.515625 15.328125 5.515625 27.984375 
Q 5.515625 40.671875 11.671875 48.328125 
Q 17.828125 56 27.875 56 
Q 33.9375 56 38.28125 53.609375 
Q 42.625 51.21875 45.40625 46.390625 
L 45.40625 54.6875 
L 54.390625 54.6875 
z
" id="DejaVuSans-103"/>
      </defs>
      <g style="fill:#262626;" transform="translate(290.640895 319.275625)scale(0.12 -0.12)">
       <use xlink:href="#DejaVuSans-65"/>
       <use x="68.408203" xlink:href="#DejaVuSans-117"/>
       <use x="131.787109" xlink:href="#DejaVuSans-103"/>
      </g>
     </g>
    </g>
    <g id="xtick_8">
     <g id="line2d_8">
      <g>
       <use style="fill:#262626;stroke:#262626;" x="351.603808" xlink:href="#mad1c63b838" y="297.1575"/>
      </g>
     </g>
     <g id="text_7">
      <!-- Sep -->
      <defs>
       <path d="M 53.515625 70.515625 
L 53.515625 60.890625 
Q 47.90625 63.578125 42.921875 64.890625 
Q 37.9375 66.21875 33.296875 66.21875 
Q 25.25 66.21875 20.875 63.09375 
Q 16.5 59.96875 16.5 54.203125 
Q 16.5 49.359375 19.40625 46.890625 
Q 22.3125 44.4375 30.421875 42.921875 
L 36.375 41.703125 
Q 47.40625 39.59375 52.65625 34.296875 
Q 57.90625 29 57.90625 20.125 
Q 57.90625 9.515625 50.796875 4.046875 
Q 43.703125 -1.421875 29.984375 -1.421875 
Q 24.8125 -1.421875 18.96875 -0.25 
Q 13.140625 0.921875 6.890625 3.21875 
L 6.890625 13.375 
Q 12.890625 10.015625 18.65625 8.296875 
Q 24.421875 6.59375 29.984375 6.59375 
Q 38.421875 6.59375 43.015625 9.90625 
Q 47.609375 13.234375 47.609375 19.390625 
Q 47.609375 24.75 44.3125 27.78125 
Q 41.015625 30.8125 33.5 32.328125 
L 27.484375 33.5 
Q 16.453125 35.6875 11.515625 40.375 
Q 6.59375 45.0625 6.59375 53.421875 
Q 6.59375 63.09375 13.40625 68.65625 
Q 20.21875 74.21875 32.171875 74.21875 
Q 37.3125 74.21875 42.625 73.28125 
Q 47.953125 72.359375 53.515625 70.515625 
z
" id="DejaVuSans-83"/>
       <path d="M 56.203125 29.59375 
L 56.203125 25.203125 
L 14.890625 25.203125 
Q 15.484375 15.921875 20.484375 11.0625 
Q 25.484375 6.203125 34.421875 6.203125 
Q 39.59375 6.203125 44.453125 7.46875 
Q 49.3125 8.734375 54.109375 11.28125 
L 54.109375 2.78125 
Q 49.265625 0.734375 44.1875 -0.34375 
Q 39.109375 -1.421875 33.890625 -1.421875 
Q 20.796875 -1.421875 13.15625 6.1875 
Q 5.515625 13.8125 5.515625 26.8125 
Q 5.515625 40.234375 12.765625 48.109375 
Q 20.015625 56 32.328125 56 
Q 43.359375 56 49.78125 48.890625 
Q 56.203125 41.796875 56.203125 29.59375 
z
M 47.21875 32.234375 
Q 47.125 39.59375 43.09375 43.984375 
Q 39.0625 48.390625 32.421875 48.390625 
Q 24.90625 48.390625 20.390625 44.140625 
Q 15.875 39.890625 15.1875 32.171875 
z
" id="DejaVuSans-101"/>
      </defs>
      <g style="fill:#262626;" transform="translate(340.293808 319.275625)scale(0.12 -0.12)">
       <use xlink:href="#DejaVuSans-83"/>
       <use x="63.476562" xlink:href="#DejaVuSans-101"/>
       <use x="125" xlink:href="#DejaVuSans-112"/>
      </g>
     </g>
    </g>
    <g id="xtick_9">
     <g id="line2d_9">
      <g>
       <use style="fill:#262626;stroke:#262626;" x="399.262171" xlink:href="#mad1c63b838" y="297.1575"/>
      </g>
     </g>
     <g id="text_8">
      <!-- Oct -->
      <defs>
       <path d="M 39.40625 66.21875 
Q 28.65625 66.21875 22.328125 58.203125 
Q 16.015625 50.203125 16.015625 36.375 
Q 16.015625 22.609375 22.328125 14.59375 
Q 28.65625 6.59375 39.40625 6.59375 
Q 50.140625 6.59375 56.421875 14.59375 
Q 62.703125 22.609375 62.703125 36.375 
Q 62.703125 50.203125 56.421875 58.203125 
Q 50.140625 66.21875 39.40625 66.21875 
z
M 39.40625 74.21875 
Q 54.734375 74.21875 63.90625 63.9375 
Q 73.09375 53.65625 73.09375 36.375 
Q 73.09375 19.140625 63.90625 8.859375 
Q 54.734375 -1.421875 39.40625 -1.421875 
Q 24.03125 -1.421875 14.8125 8.828125 
Q 5.609375 19.09375 5.609375 36.375 
Q 5.609375 53.65625 14.8125 63.9375 
Q 24.03125 74.21875 39.40625 74.21875 
z
" id="DejaVuSans-79"/>
       <path d="M 48.78125 52.59375 
L 48.78125 44.1875 
Q 44.96875 46.296875 41.140625 47.34375 
Q 37.3125 48.390625 33.40625 48.390625 
Q 24.65625 48.390625 19.8125 42.84375 
Q 14.984375 37.3125 14.984375 27.296875 
Q 14.984375 17.28125 19.8125 11.734375 
Q 24.65625 6.203125 33.40625 6.203125 
Q 37.3125 6.203125 41.140625 7.25 
Q 44.96875 8.296875 48.78125 10.40625 
L 48.78125 2.09375 
Q 45.015625 0.34375 40.984375 -0.53125 
Q 36.96875 -1.421875 32.421875 -1.421875 
Q 20.0625 -1.421875 12.78125 6.34375 
Q 5.515625 14.109375 5.515625 27.296875 
Q 5.515625 40.671875 12.859375 48.328125 
Q 20.21875 56 33.015625 56 
Q 37.15625 56 41.109375 55.140625 
Q 45.0625 54.296875 48.78125 52.59375 
z
" id="DejaVuSans-99"/>
       <path d="M 18.3125 70.21875 
L 18.3125 54.6875 
L 36.8125 54.6875 
L 36.8125 47.703125 
L 18.3125 47.703125 
L 18.3125 18.015625 
Q 18.3125 11.328125 20.140625 9.421875 
Q 21.96875 7.515625 27.59375 7.515625 
L 36.8125 7.515625 
L 36.8125 0 
L 27.59375 0 
Q 17.1875 0 13.234375 3.875 
Q 9.28125 7.765625 9.28125 18.015625 
L 9.28125 47.703125 
L 2.6875 47.703125 
L 2.6875 54.6875 
L 9.28125 54.6875 
L 9.28125 70.21875 
z
" id="DejaVuSans-116"/>
      </defs>
      <g style="fill:#262626;" transform="translate(388.887796 319.275625)scale(0.12 -0.12)">
       <use xlink:href="#DejaVuSans-79"/>
       <use x="78.710938" xlink:href="#DejaVuSans-99"/>
       <use x="133.691406" xlink:href="#DejaVuSans-116"/>
      </g>
     </g>
    </g>
    <g id="xtick_10">
     <g id="line2d_10">
      <g>
       <use style="fill:#262626;stroke:#262626;" x="448.509146" xlink:href="#mad1c63b838" y="297.1575"/>
      </g>
     </g>
     <g id="text_9">
      <!-- Nov -->
      <defs>
       <path d="M 9.8125 72.90625 
L 23.09375 72.90625 
L 55.421875 11.921875 
L 55.421875 72.90625 
L 64.984375 72.90625 
L 64.984375 0 
L 51.703125 0 
L 19.390625 60.984375 
L 19.390625 0 
L 9.8125 0 
z
" id="DejaVuSans-78"/>
       <path d="M 30.609375 48.390625 
Q 23.390625 48.390625 19.1875 42.75 
Q 14.984375 37.109375 14.984375 27.296875 
Q 14.984375 17.484375 19.15625 11.84375 
Q 23.34375 6.203125 30.609375 6.203125 
Q 37.796875 6.203125 41.984375 11.859375 
Q 46.1875 17.53125 46.1875 27.296875 
Q 46.1875 37.015625 41.984375 42.703125 
Q 37.796875 48.390625 30.609375 48.390625 
z
M 30.609375 56 
Q 42.328125 56 49.015625 48.375 
Q 55.71875 40.765625 55.71875 27.296875 
Q 55.71875 13.875 49.015625 6.21875 
Q 42.328125 -1.421875 30.609375 -1.421875 
Q 18.84375 -1.421875 12.171875 6.21875 
Q 5.515625 13.875 5.515625 27.296875 
Q 5.515625 40.765625 12.171875 48.375 
Q 18.84375 56 30.609375 56 
z
" id="DejaVuSans-111"/>
       <path d="M 2.984375 54.6875 
L 12.5 54.6875 
L 29.59375 8.796875 
L 46.6875 54.6875 
L 56.203125 54.6875 
L 35.6875 0 
L 23.484375 0 
z
" id="DejaVuSans-118"/>
      </defs>
      <g style="fill:#262626;" transform="translate(436.797896 319.275625)scale(0.12 -0.12)">
       <use xlink:href="#DejaVuSans-78"/>
       <use x="74.804688" xlink:href="#DejaVuSans-111"/>
       <use x="135.986328" xlink:href="#DejaVuSans-118"/>
      </g>
     </g>
    </g>
    <g id="xtick_11">
     <g id="line2d_11">
      <g>
       <use style="fill:#262626;stroke:#262626;" x="481.87" xlink:href="#mad1c63b838" y="297.1575"/>
      </g>
     </g>
    </g>
    <g id="xtick_12">
     <g id="line2d_12">
      <defs>
       <path d="M 0 0 
L 0 3 
" id="m751c4bc556" style="stroke:#262626;stroke-width:0.5;"/>
      </defs>
      <g>
       <use style="fill:#262626;stroke:#262626;stroke-width:0.5;" x="38.647224" xlink:href="#m751c4bc556" y="297.1575"/>
      </g>
     </g>
    </g>
    <g id="xtick_13">
     <g id="line2d_13">
      <g>
       <use style="fill:#262626;stroke:#262626;stroke-width:0.5;" x="49.767509" xlink:href="#m751c4bc556" y="297.1575"/>
      </g>
     </g>
    </g>
    <g id="xtick_14">
     <g id="line2d_14">
      <g>
       <use style="fill:#262626;stroke:#262626;stroke-width:0.5;" x="60.887794" xlink:href="#m751c4bc556" y="297.1575"/>
      </g>
     </g>
    </g>
    <g id="xtick_15">
     <g id="line2d_15">
      <g>
       <use style="fill:#262626;stroke:#262626;stroke-width:0.5;" x="72.008078" xlink:href="#m751c4bc556" y="297.1575"/>
      </g>
     </g>
    </g>
    <g id="xtick_16">
     <g id="line2d_16">
      <g>
       <use style="fill:#262626;stroke:#262626;stroke-width:0.5;" x="83.128363" xlink:href="#m751c4bc556" y="297.1575"/>
      </g>
     </g>
    </g>
    <g id="xtick_17">
     <g id="line2d_17">
      <g>
       <use style="fill:#262626;stroke:#262626;stroke-width:0.5;" x="94.248648" xlink:href="#m751c4bc556" y="297.1575"/>
      </g>
     </g>
    </g>
    <g id="xtick_18">
     <g id="line2d_18">
      <g>
       <use style="fill:#262626;stroke:#262626;stroke-width:0.5;" x="105.368932" xlink:href="#m751c4bc556" y="297.1575"/>
      </g>
     </g>
    </g>
    <g id="xtick_19">
     <g id="line2d_19">
      <g>
       <use style="fill:#262626;stroke:#262626;stroke-width:0.5;" x="116.489217" xlink:href="#m751c4bc556" y="297.1575"/>
      </g>
     </g>
    </g>
    <g id="xtick_20">
     <g id="line2d_20">
      <g>
       <use style="fill:#262626;stroke:#262626;stroke-width:0.5;" x="127.609502" xlink:href="#m751c4bc556" y="297.1575"/>
      </g>
     </g>
    </g>
    <g id="xtick_21">
     <g id="line2d_21">
      <g>
       <use style="fill:#262626;stroke:#262626;stroke-width:0.5;" x="138.729786" xlink:href="#m751c4bc556" y="297.1575"/>
      </g>
     </g>
    </g>
    <g id="xtick_22">
     <g id="line2d_22">
      <g>
       <use style="fill:#262626;stroke:#262626;stroke-width:0.5;" x="149.850071" xlink:href="#m751c4bc556" y="297.1575"/>
      </g>
     </g>
    </g>
    <g id="xtick_23">
     <g id="line2d_23">
      <g>
       <use style="fill:#262626;stroke:#262626;stroke-width:0.5;" x="160.970356" xlink:href="#m751c4bc556" y="297.1575"/>
      </g>
     </g>
    </g>
    <g id="xtick_24">
     <g id="line2d_24">
      <g>
       <use style="fill:#262626;stroke:#262626;stroke-width:0.5;" x="172.090641" xlink:href="#m751c4bc556" y="297.1575"/>
      </g>
     </g>
    </g>
    <g id="xtick_25">
     <g id="line2d_25">
      <g>
       <use style="fill:#262626;stroke:#262626;stroke-width:0.5;" x="183.210925" xlink:href="#m751c4bc556" y="297.1575"/>
      </g>
     </g>
    </g>
    <g id="xtick_26">
     <g id="line2d_26">
      <g>
       <use style="fill:#262626;stroke:#262626;stroke-width:0.5;" x="194.33121" xlink:href="#m751c4bc556" y="297.1575"/>
      </g>
     </g>
    </g>
    <g id="xtick_27">
     <g id="line2d_27">
      <g>
       <use style="fill:#262626;stroke:#262626;stroke-width:0.5;" x="216.571779" xlink:href="#m751c4bc556" y="297.1575"/>
      </g>
     </g>
    </g>
    <g id="xtick_28">
     <g id="line2d_28">
      <g>
       <use style="fill:#262626;stroke:#262626;stroke-width:0.5;" x="227.692064" xlink:href="#m751c4bc556" y="297.1575"/>
      </g>
     </g>
    </g>
    <g id="xtick_29">
     <g id="line2d_29">
      <g>
       <use style="fill:#262626;stroke:#262626;stroke-width:0.5;" x="238.812349" xlink:href="#m751c4bc556" y="297.1575"/>
      </g>
     </g>
    </g>
    <g id="xtick_30">
     <g id="line2d_30">
      <g>
       <use style="fill:#262626;stroke:#262626;stroke-width:0.5;" x="249.932633" xlink:href="#m751c4bc556" y="297.1575"/>
      </g>
     </g>
    </g>
    <g id="xtick_31">
     <g id="line2d_31">
      <g>
       <use style="fill:#262626;stroke:#262626;stroke-width:0.5;" x="261.052918" xlink:href="#m751c4bc556" y="297.1575"/>
      </g>
     </g>
    </g>
    <g id="xtick_32">
     <g id="line2d_32">
      <g>
       <use style="fill:#262626;stroke:#262626;stroke-width:0.5;" x="272.173203" xlink:href="#m751c4bc556" y="297.1575"/>
      </g>
     </g>
    </g>
    <g id="xtick_33">
     <g id="line2d_33">
      <g>
       <use style="fill:#262626;stroke:#262626;stroke-width:0.5;" x="283.293488" xlink:href="#m751c4bc556" y="297.1575"/>
      </g>
     </g>
    </g>
    <g id="xtick_34">
     <g id="line2d_34">
      <g>
       <use style="fill:#262626;stroke:#262626;stroke-width:0.5;" x="294.413772" xlink:href="#m751c4bc556" y="297.1575"/>
      </g>
     </g>
    </g>
    <g id="xtick_35">
     <g id="line2d_35">
      <g>
       <use style="fill:#262626;stroke:#262626;stroke-width:0.5;" x="305.534057" xlink:href="#m751c4bc556" y="297.1575"/>
      </g>
     </g>
    </g>
    <g id="xtick_36">
     <g id="line2d_36">
      <g>
       <use style="fill:#262626;stroke:#262626;stroke-width:0.5;" x="316.654342" xlink:href="#m751c4bc556" y="297.1575"/>
      </g>
     </g>
    </g>
    <g id="xtick_37">
     <g id="line2d_37">
      <g>
       <use style="fill:#262626;stroke:#262626;stroke-width:0.5;" x="327.774626" xlink:href="#m751c4bc556" y="297.1575"/>
      </g>
     </g>
    </g>
    <g id="xtick_38">
     <g id="line2d_38">
      <g>
       <use style="fill:#262626;stroke:#262626;stroke-width:0.5;" x="338.894911" xlink:href="#m751c4bc556" y="297.1575"/>
      </g>
     </g>
    </g>
    <g id="xtick_39">
     <g id="line2d_39">
      <g>
       <use style="fill:#262626;stroke:#262626;stroke-width:0.5;" x="350.015196" xlink:href="#m751c4bc556" y="297.1575"/>
      </g>
     </g>
    </g>
    <g id="xtick_40">
     <g id="line2d_40">
      <g>
       <use style="fill:#262626;stroke:#262626;stroke-width:0.5;" x="361.13548" xlink:href="#m751c4bc556" y="297.1575"/>
      </g>
     </g>
    </g>
    <g id="xtick_41">
     <g id="line2d_41">
      <g>
       <use style="fill:#262626;stroke:#262626;stroke-width:0.5;" x="372.255765" xlink:href="#m751c4bc556" y="297.1575"/>
      </g>
     </g>
    </g>
    <g id="xtick_42">
     <g id="line2d_42">
      <g>
       <use style="fill:#262626;stroke:#262626;stroke-width:0.5;" x="383.37605" xlink:href="#m751c4bc556" y="297.1575"/>
      </g>
     </g>
    </g>
    <g id="xtick_43">
     <g id="line2d_43">
      <g>
       <use style="fill:#262626;stroke:#262626;stroke-width:0.5;" x="394.496335" xlink:href="#m751c4bc556" y="297.1575"/>
      </g>
     </g>
    </g>
    <g id="xtick_44">
     <g id="line2d_44">
      <g>
       <use style="fill:#262626;stroke:#262626;stroke-width:0.5;" x="405.616619" xlink:href="#m751c4bc556" y="297.1575"/>
      </g>
     </g>
    </g>
    <g id="xtick_45">
     <g id="line2d_45">
      <g>
       <use style="fill:#262626;stroke:#262626;stroke-width:0.5;" x="416.736904" xlink:href="#m751c4bc556" y="297.1575"/>
      </g>
     </g>
    </g>
    <g id="xtick_46">
     <g id="line2d_46">
      <g>
       <use style="fill:#262626;stroke:#262626;stroke-width:0.5;" x="427.857189" xlink:href="#m751c4bc556" y="297.1575"/>
      </g>
     </g>
    </g>
    <g id="xtick_47">
     <g id="line2d_47">
      <g>
       <use style="fill:#262626;stroke:#262626;stroke-width:0.5;" x="438.977473" xlink:href="#m751c4bc556" y="297.1575"/>
      </g>
     </g>
    </g>
    <g id="xtick_48">
     <g id="line2d_48">
      <g>
       <use style="fill:#262626;stroke:#262626;stroke-width:0.5;" x="450.097758" xlink:href="#m751c4bc556" y="297.1575"/>
      </g>
     </g>
    </g>
    <g id="xtick_49">
     <g id="line2d_49">
      <g>
       <use style="fill:#262626;stroke:#262626;stroke-width:0.5;" x="461.218043" xlink:href="#m751c4bc556" y="297.1575"/>
      </g>
     </g>
    </g>
    <g id="xtick_50">
     <g id="line2d_50">
      <g>
       <use style="fill:#262626;stroke:#262626;stroke-width:0.5;" x="472.338327" xlink:href="#m751c4bc556" y="297.1575"/>
      </g>
     </g>
    </g>
   </g>
   <g id="matplotlib.axis_2">
    <g id="ytick_1">
     <g id="line2d_51">
      <path clip-path="url(#p0807957284)" d="M 35.47 297.1575 
L 481.87 297.1575 
" style="fill:none;stroke:#b0b0b0;stroke-linecap:square;stroke-opacity:0.3;"/>
     </g>
     <g id="line2d_52">
      <defs>
       <path d="M 0 0 
L -6 0 
" id="m7e077dd334" style="stroke:#262626;"/>
      </defs>
      <g>
       <use style="fill:#262626;stroke:#262626;" x="35.47" xlink:href="#m7e077dd334" y="297.1575"/>
      </g>
     </g>
     <g id="text_10">
      <!-- 0 -->
      <g style="fill:#262626;" transform="translate(14.835 301.716562)scale(0.12 -0.12)">
       <use xlink:href="#DejaVuSans-48"/>
      </g>
     </g>
    </g>
    <g id="ytick_2">
     <g id="line2d_53">
      <path clip-path="url(#p0807957284)" d="M 35.47 257.407159 
L 481.87 257.407159 
" style="fill:none;stroke:#b0b0b0;stroke-linecap:square;stroke-opacity:0.3;"/>
     </g>
     <g id="line2d_54">
      <g>
       <use style="fill:#262626;stroke:#262626;" x="35.47" xlink:href="#m7e077dd334" y="257.407159"/>
      </g>
     </g>
     <g id="text_11">
      <!-- 2 -->
      <g style="fill:#262626;" transform="translate(14.835 261.966221)scale(0.12 -0.12)">
       <use xlink:href="#DejaVuSans-50"/>
      </g>
     </g>
    </g>
    <g id="ytick_3">
     <g id="line2d_55">
      <path clip-path="url(#p0807957284)" d="M 35.47 217.656817 
L 481.87 217.656817 
" style="fill:none;stroke:#b0b0b0;stroke-linecap:square;stroke-opacity:0.3;"/>
     </g>
     <g id="line2d_56">
      <g>
       <use style="fill:#262626;stroke:#262626;" x="35.47" xlink:href="#m7e077dd334" y="217.656817"/>
      </g>
     </g>
     <g id="text_12">
      <!-- 4 -->
      <defs>
       <path d="M 37.796875 64.3125 
L 12.890625 25.390625 
L 37.796875 25.390625 
z
M 35.203125 72.90625 
L 47.609375 72.90625 
L 47.609375 25.390625 
L 58.015625 25.390625 
L 58.015625 17.1875 
L 47.609375 17.1875 
L 47.609375 0 
L 37.796875 0 
L 37.796875 17.1875 
L 4.890625 17.1875 
L 4.890625 26.703125 
z
" id="DejaVuSans-52"/>
      </defs>
      <g style="fill:#262626;" transform="translate(14.835 222.21588)scale(0.12 -0.12)">
       <use xlink:href="#DejaVuSans-52"/>
      </g>
     </g>
    </g>
    <g id="ytick_4">
     <g id="line2d_57">
      <path clip-path="url(#p0807957284)" d="M 35.47 177.906476 
L 481.87 177.906476 
" style="fill:none;stroke:#b0b0b0;stroke-linecap:square;stroke-opacity:0.3;"/>
     </g>
     <g id="line2d_58">
      <g>
       <use style="fill:#262626;stroke:#262626;" x="35.47" xlink:href="#m7e077dd334" y="177.906476"/>
      </g>
     </g>
     <g id="text_13">
      <!-- 6 -->
      <defs>
       <path d="M 33.015625 40.375 
Q 26.375 40.375 22.484375 35.828125 
Q 18.609375 31.296875 18.609375 23.390625 
Q 18.609375 15.53125 22.484375 10.953125 
Q 26.375 6.390625 33.015625 6.390625 
Q 39.65625 6.390625 43.53125 10.953125 
Q 47.40625 15.53125 47.40625 23.390625 
Q 47.40625 31.296875 43.53125 35.828125 
Q 39.65625 40.375 33.015625 40.375 
z
M 52.59375 71.296875 
L 52.59375 62.3125 
Q 48.875 64.0625 45.09375 64.984375 
Q 41.3125 65.921875 37.59375 65.921875 
Q 27.828125 65.921875 22.671875 59.328125 
Q 17.53125 52.734375 16.796875 39.40625 
Q 19.671875 43.65625 24.015625 45.921875 
Q 28.375 48.1875 33.59375 48.1875 
Q 44.578125 48.1875 50.953125 41.515625 
Q 57.328125 34.859375 57.328125 23.390625 
Q 57.328125 12.15625 50.6875 5.359375 
Q 44.046875 -1.421875 33.015625 -1.421875 
Q 20.359375 -1.421875 13.671875 8.265625 
Q 6.984375 17.96875 6.984375 36.375 
Q 6.984375 53.65625 15.1875 63.9375 
Q 23.390625 74.21875 37.203125 74.21875 
Q 40.921875 74.21875 44.703125 73.484375 
Q 48.484375 72.75 52.59375 71.296875 
z
" id="DejaVuSans-54"/>
      </defs>
      <g style="fill:#262626;" transform="translate(14.835 182.465538)scale(0.12 -0.12)">
       <use xlink:href="#DejaVuSans-54"/>
      </g>
     </g>
    </g>
    <g id="ytick_5">
     <g id="line2d_59">
      <path clip-path="url(#p0807957284)" d="M 35.47 138.156134 
L 481.87 138.156134 
" style="fill:none;stroke:#b0b0b0;stroke-linecap:square;stroke-opacity:0.3;"/>
     </g>
     <g id="line2d_60">
      <g>
       <use style="fill:#262626;stroke:#262626;" x="35.47" xlink:href="#m7e077dd334" y="138.156134"/>
      </g>
     </g>
     <g id="text_14">
      <!-- 8 -->
      <defs>
       <path d="M 31.78125 34.625 
Q 24.75 34.625 20.71875 30.859375 
Q 16.703125 27.09375 16.703125 20.515625 
Q 16.703125 13.921875 20.71875 10.15625 
Q 24.75 6.390625 31.78125 6.390625 
Q 38.8125 6.390625 42.859375 10.171875 
Q 46.921875 13.96875 46.921875 20.515625 
Q 46.921875 27.09375 42.890625 30.859375 
Q 38.875 34.625 31.78125 34.625 
z
M 21.921875 38.8125 
Q 15.578125 40.375 12.03125 44.71875 
Q 8.5 49.078125 8.5 55.328125 
Q 8.5 64.0625 14.71875 69.140625 
Q 20.953125 74.21875 31.78125 74.21875 
Q 42.671875 74.21875 48.875 69.140625 
Q 55.078125 64.0625 55.078125 55.328125 
Q 55.078125 49.078125 51.53125 44.71875 
Q 48 40.375 41.703125 38.8125 
Q 48.828125 37.15625 52.796875 32.3125 
Q 56.78125 27.484375 56.78125 20.515625 
Q 56.78125 9.90625 50.3125 4.234375 
Q 43.84375 -1.421875 31.78125 -1.421875 
Q 19.734375 -1.421875 13.25 4.234375 
Q 6.78125 9.90625 6.78125 20.515625 
Q 6.78125 27.484375 10.78125 32.3125 
Q 14.796875 37.15625 21.921875 38.8125 
z
M 18.3125 54.390625 
Q 18.3125 48.734375 21.84375 45.5625 
Q 25.390625 42.390625 31.78125 42.390625 
Q 38.140625 42.390625 41.71875 45.5625 
Q 45.3125 48.734375 45.3125 54.390625 
Q 45.3125 60.0625 41.71875 63.234375 
Q 38.140625 66.40625 31.78125 66.40625 
Q 25.390625 66.40625 21.84375 63.234375 
Q 18.3125 60.0625 18.3125 54.390625 
z
" id="DejaVuSans-56"/>
      </defs>
      <g style="fill:#262626;" transform="translate(14.835 142.715197)scale(0.12 -0.12)">
       <use xlink:href="#DejaVuSans-56"/>
      </g>
     </g>
    </g>
    <g id="ytick_6">
     <g id="line2d_61">
      <path clip-path="url(#p0807957284)" d="M 35.47 98.405793 
L 481.87 98.405793 
" style="fill:none;stroke:#b0b0b0;stroke-linecap:square;stroke-opacity:0.3;"/>
     </g>
     <g id="line2d_62">
      <g>
       <use style="fill:#262626;stroke:#262626;" x="35.47" xlink:href="#m7e077dd334" y="98.405793"/>
      </g>
     </g>
     <g id="text_15">
      <!-- 10 -->
      <defs>
       <path d="M 12.40625 8.296875 
L 28.515625 8.296875 
L 28.515625 63.921875 
L 10.984375 60.40625 
L 10.984375 69.390625 
L 28.421875 72.90625 
L 38.28125 72.90625 
L 38.28125 8.296875 
L 54.390625 8.296875 
L 54.390625 0 
L 12.40625 0 
z
" id="DejaVuSans-49"/>
      </defs>
      <g style="fill:#262626;" transform="translate(7.2 102.964855)scale(0.12 -0.12)">
       <use xlink:href="#DejaVuSans-49"/>
       <use x="63.623047" xlink:href="#DejaVuSans-48"/>
      </g>
     </g>
    </g>
    <g id="ytick_7">
     <g id="line2d_63">
      <path clip-path="url(#p0807957284)" d="M 35.47 58.655451 
L 481.87 58.655451 
" style="fill:none;stroke:#b0b0b0;stroke-linecap:square;stroke-opacity:0.3;"/>
     </g>
     <g id="line2d_64">
      <g>
       <use style="fill:#262626;stroke:#262626;" x="35.47" xlink:href="#m7e077dd334" y="58.655451"/>
      </g>
     </g>
     <g id="text_16">
      <!-- 12 -->
      <g style="fill:#262626;" transform="translate(7.2 63.214514)scale(0.12 -0.12)">
       <use xlink:href="#DejaVuSans-49"/>
       <use x="63.623047" xlink:href="#DejaVuSans-50"/>
      </g>
     </g>
    </g>
   </g>
   <g id="line2d_65">
    <path clip-path="url(#p0807957284)" d="M 5.28637 297.1575 
L 70.419466 297.085549 
L 75.185302 296.941646 
L 79.951139 296.869695 
L 81.539751 296.797744 
L 83.128363 296.509939 
L 87.894199 296.078231 
L 91.071423 295.502622 
L 92.660036 295.070914 
L 94.248648 295.142865 
L 95.83726 294.423353 
L 99.014484 292.552621 
L 100.603096 291.401401 
L 102.191708 290.394084 
L 103.78032 290.17823 
L 105.368932 289.386766 
L 106.957544 287.659937 
L 108.546157 286.796522 
L 110.134769 285.357497 
L 111.723381 284.35018 
L 113.311993 282.695301 
L 114.900605 281.400179 
L 116.489217 279.961154 
L 118.077829 278.234324 
L 119.666441 276.003836 
L 121.255053 275.500177 
L 122.843665 274.708714 
L 124.432278 274.924568 
L 126.02089 273.773348 
L 127.609502 272.76603 
L 129.198114 273.34164 
L 130.786726 269.887981 
L 132.375338 266.722126 
L 133.96395 264.347736 
L 135.552562 260.174564 
L 137.141174 261.181881 
L 138.729786 261.325784 
L 140.318399 258.447734 
L 141.907011 258.303832 
L 143.495623 255.641636 
L 145.084235 256.217246 
L 146.672847 257.872124 
L 148.261459 258.303832 
L 149.850071 255.641636 
L 151.438683 256.289197 
L 153.027295 258.591637 
L 154.615907 260.53432 
L 156.20452 259.167246 
L 157.793132 259.670905 
L 159.381744 259.814808 
L 160.970356 261.397735 
L 162.558968 261.037979 
L 164.14758 259.95871 
L 165.736192 260.894076 
L 167.324804 260.966027 
L 170.502028 258.735539 
L 172.090641 259.527003 
L 173.679253 260.030661 
L 175.267865 258.591637 
L 176.856477 262.764808 
L 178.445089 258.159929 
L 180.033701 259.598954 
L 181.622313 259.670905 
L 183.210925 261.037979 
L 184.799537 259.742856 
L 186.388149 261.181881 
L 187.976762 255.066026 
L 189.565374 261.325784 
L 191.153986 260.174564 
L 194.33121 262.189198 
L 195.919822 265.714809 
L 197.508434 264.995297 
L 199.097046 267.081883 
L 200.685658 264.491638 
L 202.27427 265.067248 
L 203.862883 264.635541 
L 205.451495 262.692857 
L 207.040107 261.10993 
L 208.628719 263.987979 
L 210.217331 265.355053 
L 211.805943 267.945297 
L 213.394555 267.51359 
L 214.983167 267.585541 
L 216.571779 268.952615 
L 218.160391 267.297736 
L 219.749004 264.995297 
L 221.337616 264.275784 
L 222.926228 265.78676 
L 224.51484 266.002614 
L 226.103452 265.78676 
L 227.692064 265.427004 
L 230.869288 267.369688 
L 232.4579 267.081883 
L 234.046512 265.570907 
L 235.635125 265.78676 
L 237.223737 266.36237 
L 238.812349 265.427004 
L 240.400961 265.858712 
L 241.989573 265.139199 
L 243.578185 264.707492 
L 245.166797 264.995297 
L 246.755409 267.873346 
L 248.344021 266.93798 
L 249.932633 267.081883 
L 251.521246 265.067248 
L 253.109858 265.498955 
L 254.69847 264.563589 
L 256.287082 265.283102 
L 257.875694 266.434321 
L 259.464306 266.074565 
L 261.052918 263.124565 
L 262.64153 262.620906 
L 264.230142 258.303832 
L 265.818754 256.720904 
L 268.995979 248.014805 
L 270.584591 248.734317 
L 272.173203 251.540415 
L 273.761815 249.381878 
L 275.350427 249.669683 
L 278.527651 248.878219 
L 280.116263 247.870902 
L 281.704875 249.094073 
L 283.293488 248.374561 
L 284.8821 249.957488 
L 286.470712 248.950171 
L 288.059324 246.791634 
L 289.647936 245.496511 
L 291.236548 244.561145 
L 292.82516 243.841633 
L 294.413772 241.035535 
L 296.002384 237.222119 
L 297.590996 236.286753 
L 299.179609 238.229436 
L 300.768221 232.61724 
L 302.356833 229.73919 
L 303.945445 228.947727 
L 305.534057 228.372117 
L 307.122669 226.645287 
L 308.711281 226.501384 
L 310.299893 224.846506 
L 311.888505 227.005043 
L 313.477117 229.955044 
L 315.06573 227.652604 
L 316.654342 228.084312 
L 318.242954 228.228214 
L 319.831566 229.379434 
L 321.420178 226.573336 
L 323.00879 228.875775 
L 324.597402 230.242849 
L 326.186014 233.840411 
L 329.363238 234.631874 
L 330.951851 233.984313 
L 332.540463 239.164802 
L 334.129075 236.862363 
L 335.717687 231.825776 
L 337.306299 231.897727 
L 338.894911 231.250166 
L 340.483523 233.408703 
L 342.072135 235.207484 
L 343.660747 232.761142 
L 345.249359 235.855045 
L 346.837972 241.826998 
L 348.426584 240.531876 
L 350.015196 241.755047 
L 351.603808 243.913584 
L 353.19242 240.819681 
L 354.781032 239.524559 
L 356.369644 239.0209 
L 357.958256 239.452607 
L 359.546868 240.244071 
L 362.724093 247.223341 
L 364.312705 249.669683 
L 365.901317 254.202611 
L 367.489929 252.475781 
L 369.078541 252.187976 
L 370.667153 249.957488 
L 372.255765 247.15139 
L 373.844377 242.258706 
L 375.432989 244.920901 
L 377.021601 245.856267 
L 378.610214 250.605049 
L 380.198826 247.511146 
L 381.787438 251.684318 
L 383.37605 253.195294 
L 384.964662 253.770904 
L 386.553274 254.202611 
L 388.141886 255.28188 
L 389.730498 252.475781 
L 391.31911 256.505051 
L 392.907722 254.70627 
L 394.496335 256.001392 
L 396.084947 255.28188 
L 397.673559 255.066026 
L 399.262171 253.986757 
L 400.850783 258.23188 
L 402.439395 258.735539 
L 404.028007 258.159929 
L 405.616619 258.447734 
L 407.205231 264.059931 
L 408.793843 264.059931 
L 410.382456 265.78676 
L 411.971068 266.36237 
L 413.55968 265.067248 
L 416.736904 267.297736 
L 418.325516 268.448956 
L 419.914128 268.808712 
L 421.50274 267.369688 
L 423.091352 268.448956 
L 424.679964 270.39164 
L 426.268577 268.520907 
L 427.857189 268.880664 
L 429.445801 267.153834 
L 431.034413 265.714809 
L 432.623025 266.434321 
L 434.211637 267.297736 
L 435.800249 268.017249 
L 437.388861 269.887981 
L 438.977473 267.585541 
L 440.566085 267.585541 
L 442.154698 271.830664 
L 443.74331 275.500177 
L 445.331922 274.780665 
L 446.920534 274.420909 
L 448.509146 274.636763 
L 450.097758 275.428226 
L 451.68637 277.514812 
L 453.274982 277.227007 
L 454.863594 275.64408 
L 456.452206 274.708714 
L 458.040819 275.356275 
L 459.629431 275.284324 
L 461.218043 273.053835 
L 462.806655 273.989201 
L 464.395267 276.21969 
L 465.983879 277.37091 
L 467.572491 277.083105 
L 469.161103 276.291641 
L 470.749715 276.291641 
L 472.338327 277.802617 
L 473.92694 278.234324 
L 473.92694 278.234324 
" style="fill:none;stroke:#4c72b0;stroke-linecap:square;stroke-width:2;"/>
   </g>
   <g id="line2d_66">
    <path clip-path="url(#p0807957284)" d="M 5.28637 297.1575 
L 84.716975 297.1575 
L 86.305587 296.935695 
L 89.482811 296.935695 
L 92.660036 296.492085 
L 94.248648 295.826669 
L 95.83726 295.383059 
L 97.425872 294.717644 
L 99.014484 293.830423 
L 100.603096 292.277787 
L 102.191708 289.837931 
L 103.78032 288.95071 
L 105.368932 287.841685 
L 106.957544 282.961972 
L 108.546157 282.518362 
L 110.134769 280.522116 
L 111.723381 279.634895 
L 113.311993 273.867962 
L 114.900605 270.76269 
L 116.489217 270.097275 
L 118.077829 259.672434 
L 119.666441 245.033296 
L 121.255053 241.040803 
L 122.843665 223.296393 
L 124.432278 213.980578 
L 126.02089 215.976824 
L 127.609502 209.988086 
L 129.198114 185.145912 
L 130.786726 181.818835 
L 132.375338 164.961646 
L 133.96395 165.848866 
L 135.552562 156.311246 
L 137.141174 128.585605 
L 138.729786 119.047985 
L 140.318399 103.299821 
L 141.907011 100.416354 
L 143.495623 123.484087 
L 145.084235 128.80741 
L 146.672847 143.668354 
L 148.261459 167.179697 
L 149.850071 168.510528 
L 151.438683 192.465481 
L 153.027295 148.104456 
L 154.615907 107.070508 
L 156.20452 100.859965 
L 157.793132 85.999021 
L 159.381744 81.562919 
L 160.970356 89.991513 
L 162.558968 50.066591 
L 164.14758 82.450139 
L 165.736192 71.138078 
L 167.324804 63.596704 
L 168.913416 75.57418 
L 170.502028 80.675698 
L 172.090641 82.893749 
L 173.679253 137.90142 
L 175.267865 132.134487 
L 176.856477 142.115718 
L 178.445089 140.119472 
L 180.033701 142.559328 
L 181.622313 145.220989 
L 183.210925 138.788641 
L 184.799537 130.581851 
L 186.388149 144.111964 
L 187.976762 166.514281 
L 189.565374 164.074425 
L 191.153986 157.198466 
L 192.742598 154.980415 
L 194.33121 164.29623 
L 195.919822 186.254938 
L 197.508434 187.142158 
L 199.097046 184.036886 
L 200.685658 200.672271 
L 202.27427 204.886568 
L 203.862883 206.217399 
L 205.451495 205.108373 
L 207.040107 187.363963 
L 208.628719 196.901584 
L 210.217331 194.018117 
L 211.805943 189.582014 
L 213.394555 197.566999 
L 214.983167 199.119635 
L 216.571779 201.115881 
L 218.160391 208.43545 
L 219.749004 208.213645 
L 221.337616 225.070834 
L 222.926228 235.71748 
L 224.51484 235.495675 
L 226.103452 235.495675 
L 227.692064 230.615963 
L 230.869288 245.476906 
L 232.4579 246.142321 
L 235.635125 252.13106 
L 237.223737 253.46189 
L 238.812349 259.894239 
L 240.400961 258.563408 
L 241.989573 254.570916 
L 243.578185 256.123552 
L 245.166797 257.454383 
L 246.755409 256.123552 
L 248.344021 256.567162 
L 249.932633 255.458137 
L 251.521246 256.345357 
L 253.109858 266.992003 
L 254.69847 262.555901 
L 256.287082 260.559654 
L 257.875694 265.882977 
L 259.464306 265.661172 
L 261.052918 267.213808 
L 262.64153 266.104783 
L 264.230142 261.66868 
L 265.818754 266.770198 
L 267.407367 266.326588 
L 268.995979 263.443121 
L 270.584591 263.221316 
L 272.173203 262.334095 
L 273.761815 266.548393 
L 275.350427 264.552147 
L 276.939039 265.217562 
L 278.527651 268.766444 
L 280.116263 269.87547 
L 281.704875 269.653665 
L 283.293488 270.31908 
L 284.8821 270.31908 
L 286.470712 271.871716 
L 288.059324 274.311572 
L 289.647936 273.867962 
L 291.236548 275.198793 
L 292.82516 275.864208 
L 294.413772 275.420598 
L 296.002384 274.311572 
L 297.590996 276.307818 
L 299.179609 273.646157 
L 300.768221 275.198793 
L 302.356833 274.311572 
L 303.945445 274.089767 
L 305.534057 274.533377 
L 307.122669 275.198793 
L 308.711281 276.973234 
L 310.299893 276.751429 
L 311.888505 275.198793 
L 313.477117 274.533377 
L 315.06573 274.976988 
L 316.654342 274.533377 
L 318.242954 273.202547 
L 319.831566 266.770198 
L 321.420178 267.435613 
L 323.00879 263.221316 
L 324.597402 263.221316 
L 326.186014 262.11229 
L 327.774626 262.334095 
L 329.363238 262.334095 
L 330.951851 264.773952 
L 332.540463 267.879224 
L 334.129075 271.428106 
L 335.717687 270.984495 
L 337.306299 272.537131 
L 338.894911 273.424352 
L 340.483523 273.867962 
L 342.072135 275.420598 
L 343.660747 275.864208 
L 345.249359 276.529623 
L 346.837972 275.642403 
L 350.015196 274.755182 
L 351.603808 275.420598 
L 353.19242 274.755182 
L 354.781032 274.311572 
L 356.369644 275.198793 
L 359.546868 276.086013 
L 361.13548 272.315326 
L 362.724093 275.420598 
L 364.312705 277.195039 
L 365.901317 277.416844 
L 367.489929 276.529623 
L 369.078541 279.8567 
L 370.667153 279.8567 
L 372.255765 278.304064 
L 375.432989 279.191285 
L 377.021601 278.52587 
L 378.610214 276.751429 
L 381.787438 267.435613 
L 383.37605 266.104783 
L 384.964662 262.999511 
L 386.553274 258.563408 
L 388.141886 259.007019 
L 389.730498 263.664926 
L 391.31911 264.108536 
L 392.907722 268.101029 
L 394.496335 274.755182 
L 396.084947 275.642403 
L 397.673559 279.634895 
L 399.262171 278.52587 
L 400.850783 275.642403 
L 402.439395 276.307818 
L 405.616619 270.76269 
L 407.205231 270.097275 
L 408.793843 268.101029 
L 410.382456 266.548393 
L 411.971068 267.657418 
L 413.55968 263.886731 
L 415.148292 266.326588 
L 416.736904 265.217562 
L 418.325516 266.104783 
L 419.914128 267.435613 
L 421.50274 269.653665 
L 423.091352 266.770198 
L 424.679964 271.871716 
L 426.268577 268.544639 
L 427.857189 270.984495 
L 432.623025 260.78146 
L 434.211637 259.228824 
L 435.800249 255.901747 
L 437.388861 258.341603 
L 438.977473 258.341603 
L 440.566085 259.672434 
L 442.154698 261.66868 
L 443.74331 259.894239 
L 446.920534 261.22507 
L 448.509146 262.11229 
L 450.097758 262.555901 
L 451.68637 260.337849 
L 453.274982 257.676188 
L 454.863594 257.010772 
L 456.452206 254.570916 
L 458.040819 251.465644 
L 459.629431 251.687449 
L 461.218043 251.687449 
L 462.806655 246.142321 
L 464.395267 241.706219 
L 465.983879 238.822752 
L 467.572491 240.818998 
L 469.161103 238.600947 
L 470.749715 232.390404 
L 472.338327 230.394157 
L 473.92694 235.71748 
L 473.92694 235.71748 
" style="fill:none;stroke:#55a868;stroke-linecap:square;stroke-width:2;"/>
   </g>
   <g id="line2d_67">
    <path clip-path="url(#p0807957284)" d="M 5.28637 297.1575 
L 83.128363 297.1575 
L 84.716975 296.934338 
L 86.305587 296.934338 
L 87.894199 296.264851 
L 91.071423 295.818526 
L 95.83726 293.810065 
L 97.425872 292.694254 
L 99.014484 292.247929 
L 100.603096 290.016306 
L 102.191708 287.338358 
L 103.78032 283.321436 
L 105.368932 281.089813 
L 106.957544 276.849728 
L 108.546157 269.262209 
L 110.134769 266.137937 
L 111.723381 258.104093 
L 113.311993 252.97136 
L 116.489217 246.945977 
L 118.077829 235.341536 
L 119.666441 226.191881 
L 121.255053 214.810602 
L 122.843665 209.008382 
L 124.432278 200.305051 
L 126.02089 198.073428 
L 127.609502 187.584799 
L 129.198114 186.915312 
L 130.786726 186.915312 
L 132.375338 175.087708 
L 133.96395 177.765656 
L 135.552562 165.491728 
L 138.729786 172.40976 
L 140.318399 163.036943 
L 141.907011 159.020021 
L 143.495623 159.91267 
L 145.084235 149.424041 
L 146.672847 160.582157 
L 148.261459 154.11045 
L 149.850071 155.895748 
L 151.438683 151.432502 
L 153.027295 153.440963 
L 154.615907 148.754554 
L 156.20452 149.870366 
L 157.793132 142.729171 
L 159.381744 143.398658 
L 160.970356 145.183957 
L 162.558968 138.489087 
L 164.14758 128.446782 
L 165.736192 123.537211 
L 167.324804 119.073965 
L 168.913416 121.751913 
L 170.502028 119.966614 
L 172.090641 117.065504 
L 173.679253 124.429861 
L 175.267865 110.147472 
L 176.856477 117.288666 
L 178.445089 115.72653 
L 180.033701 121.52875 
L 181.622313 124.876185 
L 184.799537 122.644562 
L 186.388149 133.802678 
L 187.976762 143.398658 
L 189.565374 148.754554 
L 191.153986 148.085067 
L 192.742598 144.068145 
L 194.33121 150.986177 
L 195.919822 171.963436 
L 197.508434 169.731813 
L 199.097046 165.268566 
L 200.685658 170.4013 
L 202.27427 174.195059 
L 203.862883 176.20352 
L 205.451495 175.310871 
L 207.040107 161.697969 
L 208.628719 175.087708 
L 210.217331 175.087708 
L 211.805943 179.774117 
L 213.394555 178.881468 
L 214.983167 182.675227 
L 216.571779 144.51447 
L 218.160391 147.638742 
L 219.749004 155.003099 
L 221.337616 159.689508 
L 222.926228 155.449424 
L 224.51484 164.822241 
L 226.103452 169.285488 
L 227.692064 207.669408 
L 229.280676 214.364278 
L 230.869288 211.240005 
L 232.4579 219.273849 
L 234.046512 223.067608 
L 235.635125 217.934875 
L 237.223737 218.381199 
L 238.812349 219.943336 
L 240.400961 226.415043 
L 241.989573 230.431965 
L 243.578185 233.109913 
L 245.166797 239.58162 
L 246.755409 244.268029 
L 248.344021 245.160678 
L 249.932633 246.722815 
L 251.521246 250.070249 
L 253.109858 258.327255 
L 254.69847 258.550418 
L 256.287082 260.782041 
L 257.875694 263.459989 
L 261.052918 267.030586 
L 264.230142 262.56734 
L 265.818754 266.807424 
L 267.407367 268.815885 
L 268.995979 266.361099 
L 270.584591 263.683151 
L 272.173203 264.129476 
L 273.761815 265.022125 
L 275.350427 270.378021 
L 276.939039 269.485372 
L 280.116263 271.716995 
L 281.704875 274.841268 
L 283.293488 274.394943 
L 284.8821 275.733917 
L 286.470712 272.832807 
L 288.059324 273.502294 
L 289.647936 272.16332 
L 291.236548 273.279131 
L 292.82516 273.948618 
L 294.413772 270.601183 
L 296.002384 269.485372 
L 297.590996 271.047508 
L 299.179609 271.716995 
L 300.768221 269.708534 
L 302.356833 271.716995 
L 303.945445 269.708534 
L 305.534057 272.832807 
L 307.122669 274.394943 
L 308.711281 271.493833 
L 310.299893 270.601183 
L 311.888505 268.146398 
L 313.477117 266.137937 
L 315.06573 267.253748 
L 316.654342 269.039047 
L 318.242954 267.700073 
L 319.831566 267.923235 
L 321.420178 266.361099 
L 323.00879 270.378021 
L 324.597402 271.940157 
L 326.186014 270.154859 
L 327.774626 266.807424 
L 329.363238 266.361099 
L 330.951851 268.146398 
L 332.540463 268.146398 
L 334.129075 267.476911 
L 335.717687 264.129476 
L 337.306299 265.691612 
L 338.894911 267.476911 
L 340.483523 266.361099 
L 342.072135 263.906314 
L 343.660747 265.46845 
L 345.249359 265.245288 
L 346.837972 268.36956 
L 348.426584 267.253748 
L 350.015196 267.030586 
L 351.603808 265.022125 
L 353.19242 266.807424 
L 354.781032 265.691612 
L 356.369644 262.121015 
L 357.958256 259.443067 
L 359.546868 261.228366 
L 361.13548 261.67469 
L 362.724093 267.700073 
L 364.312705 267.030586 
L 365.901317 267.476911 
L 367.489929 266.807424 
L 369.078541 265.691612 
L 370.667153 263.013664 
L 372.255765 262.790502 
L 373.844377 261.897853 
L 375.432989 260.335716 
L 377.021601 260.782041 
L 378.610214 265.022125 
L 380.198826 265.46845 
L 381.787438 266.361099 
L 383.37605 264.575801 
L 384.964662 263.236827 
L 386.553274 265.914775 
L 389.730498 261.451528 
L 391.31911 261.67469 
L 392.907722 261.67469 
L 394.496335 261.451528 
L 396.084947 261.451528 
L 397.673559 258.550418 
L 399.262171 260.782041 
L 400.850783 256.765119 
L 404.028007 254.533496 
L 405.616619 253.864009 
L 407.205231 252.748197 
L 408.793843 251.855548 
L 410.382456 248.731276 
L 411.971068 252.525035 
L 413.55968 252.07871 
L 415.148292 253.640847 
L 416.736904 255.426145 
L 418.325516 255.202983 
L 419.914128 253.194522 
L 423.091352 243.598542 
L 424.679964 243.821704 
L 426.268577 242.259568 
L 427.857189 238.688971 
L 429.445801 236.011023 
L 431.034413 233.109913 
L 432.623025 236.68051 
L 434.211637 239.804783 
L 435.800249 232.217263 
L 437.388861 230.87829 
L 438.977473 232.217263 
L 440.566085 230.655127 
L 442.154698 232.440426 
L 443.74331 230.208803 
L 445.331922 228.423504 
L 446.920534 238.019484 
L 448.509146 229.539316 
L 450.097758 229.316153 
L 451.68637 226.415043 
L 453.274982 224.18342 
L 454.863594 214.364278 
L 456.452206 207.89257 
L 458.040819 192.717532 
L 459.629431 195.172318 
L 461.218043 194.056506 
L 462.806655 189.816422 
L 464.395267 170.847624 
L 465.983879 180.889929 
L 467.572491 186.692149 
L 469.161103 163.260105 
L 470.749715 158.350534 
L 472.338327 154.333612 
L 473.92694 147.861905 
L 473.92694 147.861905 
" style="fill:none;stroke:#c44e52;stroke-linecap:square;stroke-width:2;"/>
   </g>
   <g id="line2d_68">
    <path clip-path="url(#p0807957284)" d="M 5.28637 297.1575 
L 86.305587 297.1575 
L 87.894199 296.179676 
L 91.071423 295.201852 
L 92.660036 295.201852 
L 94.248648 294.71294 
L 95.83726 294.71294 
L 97.425872 293.735116 
L 99.014484 293.246205 
L 100.603096 290.801645 
L 103.78032 290.801645 
L 105.368932 289.823821 
L 106.957544 287.379261 
L 108.546157 284.44579 
L 110.134769 283.956878 
L 111.723381 280.534494 
L 113.311993 276.134287 
L 114.900605 269.778432 
L 116.489217 266.356048 
L 118.077829 263.422577 
L 121.255053 258.533457 
L 122.843665 257.555633 
L 124.432278 257.555633 
L 126.02089 261.955841 
L 127.609502 261.955841 
L 129.198114 259.022369 
L 130.786726 259.511281 
L 132.375338 257.555633 
L 133.96395 260.978017 
L 135.552562 262.444753 
L 137.141174 259.511281 
L 138.729786 260.000193 
L 140.318399 262.444753 
L 141.907011 266.356048 
L 146.672847 270.756256 
L 149.850071 272.711903 
L 151.438683 269.28952 
L 153.027295 267.333872 
L 154.615907 268.311696 
L 156.20452 265.378224 
L 157.793132 263.911488 
L 159.381744 265.378224 
L 162.558968 271.245167 
L 164.14758 270.756256 
L 165.736192 268.800608 
L 167.324804 269.28952 
L 168.913416 265.867136 
L 170.502028 267.333872 
L 172.090641 263.422577 
L 173.679253 265.378224 
L 175.267865 268.311696 
L 178.445089 267.333872 
L 180.033701 270.267344 
L 181.622313 271.245167 
L 183.210925 272.711903 
L 184.799537 273.200815 
L 186.388149 267.822784 
L 187.976762 271.245167 
L 189.565374 272.222991 
L 192.742598 269.28952 
L 194.33121 270.267344 
L 195.919822 272.711903 
L 197.508434 268.800608 
L 199.097046 266.356048 
L 200.685658 261.466929 
L 202.27427 257.555633 
L 203.862883 256.088897 
L 205.451495 256.577809 
L 207.040107 251.68869 
L 208.628719 258.533457 
L 210.217331 259.511281 
L 211.805943 265.378224 
L 213.394555 268.800608 
L 214.983167 270.756256 
L 218.160391 271.734079 
L 219.749004 267.333872 
L 221.337616 265.867136 
L 222.926228 265.867136 
L 224.51484 270.756256 
L 226.103452 270.756256 
L 227.692064 271.245167 
L 229.280676 273.689727 
L 230.869288 277.601023 
L 232.4579 280.534494 
L 234.046512 278.578846 
L 235.635125 272.222991 
L 237.223737 273.200815 
L 238.812349 273.689727 
L 240.400961 273.689727 
L 241.989573 272.711903 
L 243.578185 272.711903 
L 245.166797 278.089935 
L 246.755409 280.045582 
L 251.521246 280.045582 
L 253.109858 284.934702 
L 254.69847 284.44579 
L 256.287082 282.979054 
L 257.875694 288.357085 
L 259.464306 288.357085 
L 261.052918 287.868173 
L 262.64153 285.423614 
L 264.230142 285.423614 
L 265.818754 287.379261 
L 267.407367 286.890349 
L 268.995979 284.934702 
L 272.173203 285.912526 
L 273.761815 288.845997 
L 275.350427 288.845997 
L 276.939039 288.357085 
L 278.527651 288.845997 
L 280.116263 285.912526 
L 283.293488 283.956878 
L 284.8821 280.534494 
L 286.470712 278.089935 
L 288.059324 273.689727 
L 289.647936 275.156463 
L 291.236548 273.689727 
L 292.82516 273.689727 
L 294.413772 272.711903 
L 297.590996 274.667551 
L 299.179609 277.112111 
L 300.768221 269.778432 
L 302.356833 270.267344 
L 305.534057 270.267344 
L 307.122669 270.756256 
L 308.711281 268.311696 
L 310.299893 267.822784 
L 311.888505 268.800608 
L 313.477117 271.734079 
L 315.06573 271.245167 
L 316.654342 273.200815 
L 318.242954 274.178639 
L 319.831566 276.134287 
L 321.420178 277.112111 
L 323.00879 280.534494 
L 324.597402 277.601023 
L 326.186014 278.089935 
L 327.774626 277.112111 
L 329.363238 274.667551 
L 330.951851 273.200815 
L 332.540463 273.689727 
L 334.129075 275.645375 
L 335.717687 275.156463 
L 338.894911 276.134287 
L 340.483523 276.134287 
L 342.072135 277.112111 
L 343.660747 275.645375 
L 345.249359 275.645375 
L 346.837972 279.067758 
L 348.426584 277.601023 
L 350.015196 278.089935 
L 351.603808 280.045582 
L 353.19242 278.089935 
L 354.781032 280.534494 
L 357.958256 273.689727 
L 359.546868 275.156463 
L 361.13548 275.156463 
L 362.724093 278.578846 
L 364.312705 276.623199 
L 365.901317 274.178639 
L 367.489929 276.623199 
L 369.078541 277.112111 
L 370.667153 276.623199 
L 372.255765 276.623199 
L 373.844377 272.222991 
L 375.432989 275.156463 
L 377.021601 278.578846 
L 378.610214 277.112111 
L 380.198826 282.00123 
L 381.787438 282.00123 
L 383.37605 280.534494 
L 384.964662 282.979054 
L 386.553274 282.00123 
L 388.141886 280.045582 
L 389.730498 278.578846 
L 391.31911 276.623199 
L 394.496335 277.601023 
L 396.084947 271.245167 
L 397.673559 263.422577 
L 399.262171 256.577809 
L 400.850783 258.533457 
L 402.439395 252.177602 
L 404.028007 249.733042 
L 405.616619 248.266307 
L 407.205231 249.24413 
L 408.793843 253.644338 
L 410.382456 259.022369 
L 411.971068 253.644338 
L 413.55968 254.622162 
L 415.148292 253.644338 
L 416.736904 250.710866 
L 418.325516 242.888275 
L 419.914128 237.510244 
L 421.50274 232.621125 
L 423.091352 231.154389 
L 424.679964 239.465892 
L 426.268577 242.888275 
L 427.857189 230.665477 
L 429.445801 229.198741 
L 431.034413 219.909414 
L 432.623025 217.953767 
L 434.211637 205.242056 
L 435.800249 191.552522 
L 437.388861 186.663403 
L 438.977473 198.886201 
L 440.566085 181.774283 
L 442.154698 176.885164 
L 443.74331 161.239982 
L 445.331922 171.018221 
L 446.920534 156.350863 
L 448.509146 152.439567 
L 450.097758 154.395215 
L 451.68637 158.795423 
L 453.274982 158.306511 
L 454.863594 167.595837 
L 456.452206 147.550448 
L 458.040819 153.906303 
L 459.629431 157.328687 
L 461.218043 148.528272 
L 462.806655 141.683505 
L 464.395267 138.261121 
L 465.983879 124.571587 
L 467.572491 124.082675 
L 469.161103 119.682468 
L 470.749715 119.682468 
L 472.338327 124.082675 
L 473.92694 111.859877 
L 473.92694 111.859877 
" style="fill:none;stroke:#8172b2;stroke-linecap:square;stroke-width:2;"/>
   </g>
   <g id="line2d_69">
    <path clip-path="url(#p0807957284)" d="M 5.28637 297.1575 
L 87.894199 297.1575 
L 89.482811 296.760839 
L 91.071423 296.760839 
L 92.660036 296.364178 
L 94.248648 296.364178 
L 95.83726 294.777533 
L 97.425872 294.777533 
L 99.014484 293.984211 
L 100.603096 291.604244 
L 102.191708 291.604244 
L 105.368932 290.017599 
L 106.957544 290.017599 
L 108.546157 288.034293 
L 110.134769 286.447649 
L 111.723381 286.84431 
L 113.311993 282.084376 
L 114.900605 278.911087 
L 116.489217 278.514425 
L 118.077829 276.134459 
L 119.666441 276.927781 
L 121.255053 275.737797 
L 122.843665 274.944475 
L 124.432278 273.754492 
L 126.02089 276.134459 
L 127.609502 275.341136 
L 129.198114 275.737797 
L 130.786726 272.564508 
L 132.375338 272.167847 
L 133.96395 266.614591 
L 135.552562 269.78788 
L 137.141174 268.994558 
L 138.729786 269.78788 
L 140.318399 264.631285 
L 141.907011 259.871351 
L 143.495623 255.508078 
L 145.084235 259.871351 
L 146.672847 259.871351 
L 148.261459 261.854657 
L 149.850071 263.04464 
L 151.438683 263.837963 
L 153.027295 268.597896 
L 154.615907 272.167847 
L 156.20452 272.564508 
L 157.793132 266.21793 
L 159.381744 263.441301 
L 160.970356 263.441301 
L 162.558968 258.284706 
L 164.14758 250.351483 
L 165.736192 245.591549 
L 167.324804 222.981863 
L 168.913416 226.155152 
L 170.502028 228.138458 
L 172.090641 225.758491 
L 173.679253 230.915086 
L 175.267865 230.518425 
L 176.856477 228.138458 
L 178.445089 244.004905 
L 180.033701 238.848309 
L 181.622313 240.038293 
L 183.210925 240.038293 
L 184.799537 240.831615 
L 186.388149 236.468343 
L 189.565374 247.971516 
L 191.153986 249.558161 
L 194.33121 249.558161 
L 195.919822 256.301401 
L 197.508434 263.837963 
L 199.097046 259.871351 
L 200.685658 253.524772 
L 202.27427 255.904739 
L 203.862883 255.111417 
L 205.451495 252.73145 
L 207.040107 243.211582 
L 208.628719 236.865004 
L 210.217331 240.434954 
L 211.805943 245.194888 
L 213.394555 240.434954 
L 214.983167 240.831615 
L 216.571779 244.004905 
L 218.160391 245.194888 
L 219.749004 250.748144 
L 221.337616 245.591549 
L 222.926228 241.228276 
L 224.51484 240.038293 
L 226.103452 239.244971 
L 227.692064 236.865004 
L 229.280676 236.071681 
L 230.869288 236.865004 
L 232.4579 234.881698 
L 234.046512 231.708409 
L 235.635125 234.881698 
L 237.223737 235.278359 
L 238.812349 237.658326 
L 240.400961 229.725103 
L 241.989573 211.875351 
L 243.578185 214.651979 
L 245.166797 211.875351 
L 246.755409 204.338789 
L 248.344021 200.372177 
L 249.932633 200.372177 
L 251.521246 199.182194 
L 254.69847 189.662326 
L 256.287082 192.042293 
L 257.875694 201.958822 
L 259.464306 203.942127 
L 261.052918 204.338789 
L 262.64153 182.919086 
L 264.230142 199.182194 
L 265.818754 185.695714 
L 267.407367 181.729102 
L 268.995979 163.482689 
L 270.584591 134.526424 
L 272.173203 131.353135 
L 273.761815 135.319747 
L 275.350427 111.123416 
L 276.939039 115.090028 
L 278.527651 97.240275 
L 280.116263 69.077333 
L 281.704875 87.323746 
L 283.293488 80.977168 
L 284.8821 68.284011 
L 286.470712 85.340441 
L 288.059324 74.630589 
L 289.647936 75.423912 
L 291.236548 77.010556 
L 292.82516 80.977168 
L 296.002384 96.446953 
L 297.590996 101.206887 
L 299.179609 74.630589 
L 300.768221 83.357135 
L 302.356833 112.710061 
L 303.945445 116.280011 
L 305.534057 112.710061 
L 307.122669 128.179846 
L 308.711281 113.503383 
L 310.299893 147.616243 
L 311.888505 142.459648 
L 313.477117 143.649631 
L 315.06573 145.236276 
L 316.654342 149.599549 
L 318.242954 156.342788 
L 319.831566 132.543119 
L 321.420178 146.426259 
L 323.00879 161.896044 
L 324.597402 155.549466 
L 326.186014 155.549466 
L 327.774626 157.532772 
L 329.363238 166.259317 
L 330.951851 180.142458 
L 332.540463 176.969169 
L 334.129075 189.265665 
L 335.717687 192.835615 
L 337.306299 191.645631 
L 338.894911 191.645631 
L 342.072135 195.612243 
L 343.660747 200.372177 
L 345.249359 185.299053 
L 346.837972 197.99221 
L 348.426584 194.818921 
L 350.015196 195.612243 
L 351.603808 197.198888 
L 353.19242 229.328442 
L 354.781032 217.428607 
L 356.369644 220.205235 
L 357.958256 219.015251 
L 359.546868 222.585202 
L 361.13548 222.585202 
L 362.724093 228.535119 
L 364.312705 224.568508 
L 365.901317 240.831615 
L 367.489929 251.144805 
L 369.078541 253.921434 
L 370.667153 257.094723 
L 372.255765 256.301401 
L 373.844377 247.574855 
L 375.432989 248.368177 
L 377.021601 243.211582 
L 378.610214 231.708409 
L 380.198826 235.67502 
L 381.787438 234.485037 
L 383.37605 233.691714 
L 386.553274 237.658326 
L 388.141886 238.054987 
L 389.730498 244.401566 
L 391.31911 236.865004 
L 392.907722 240.434954 
L 394.496335 240.831615 
L 396.084947 245.194888 
L 397.673559 246.384872 
L 399.262171 251.938128 
L 400.850783 255.508078 
L 402.439395 264.631285 
L 404.028007 264.234624 
L 405.616619 264.234624 
L 408.793843 265.821268 
L 410.382456 269.78788 
L 411.971068 276.134459 
L 413.55968 275.737797 
L 416.736904 276.53112 
L 418.325516 275.737797 
L 419.914128 281.687715 
L 421.50274 278.911087 
L 423.091352 273.35783 
L 424.679964 271.374525 
L 427.857189 268.994558 
L 429.445801 269.391219 
L 431.034413 264.631285 
L 432.623025 269.391219 
L 434.211637 273.754492 
L 435.800249 278.911087 
L 437.388861 278.514425 
L 438.977473 279.307748 
L 440.566085 275.737797 
L 442.154698 276.53112 
L 443.74331 272.961169 
L 445.331922 269.78788 
L 446.920534 253.921434 
L 448.509146 254.714756 
L 450.097758 254.714756 
L 451.68637 245.194888 
L 453.274982 236.468343 
L 454.863594 230.915086 
L 456.452206 226.948475 
L 458.040819 230.518425 
L 459.629431 224.568508 
L 461.218043 224.965169 
L 462.806655 227.345136 
L 464.395267 230.121764 
L 465.983879 236.468343 
L 467.572491 239.244971 
L 469.161103 236.468343 
L 470.749715 242.41826 
L 472.338327 242.41826 
L 473.92694 248.764838 
L 473.92694 248.764838 
" style="fill:none;stroke:#ccb974;stroke-linecap:square;stroke-width:2;"/>
   </g>
   <g id="patch_3">
    <path d="M 35.47 297.1575 
L 35.47 25.3575 
" style="fill:none;stroke:#000000;stroke-linecap:square;stroke-linejoin:miter;stroke-width:0.8;"/>
   </g>
   <g id="patch_4">
    <path d="M 35.47 297.1575 
L 481.87 297.1575 
" style="fill:none;stroke:#000000;stroke-linecap:square;stroke-linejoin:miter;stroke-width:0.8;"/>
   </g>
   <g id="text_17">
    <!-- CA -->
    <defs>
     <path d="M 64.40625 67.28125 
L 64.40625 56.890625 
Q 59.421875 61.53125 53.78125 63.8125 
Q 48.140625 66.109375 41.796875 66.109375 
Q 29.296875 66.109375 22.65625 58.46875 
Q 16.015625 50.828125 16.015625 36.375 
Q 16.015625 21.96875 22.65625 14.328125 
Q 29.296875 6.6875 41.796875 6.6875 
Q 48.140625 6.6875 53.78125 8.984375 
Q 59.421875 11.28125 64.40625 15.921875 
L 64.40625 5.609375 
Q 59.234375 2.09375 53.4375 0.328125 
Q 47.65625 -1.421875 41.21875 -1.421875 
Q 24.65625 -1.421875 15.125 8.703125 
Q 5.609375 18.84375 5.609375 36.375 
Q 5.609375 53.953125 15.125 64.078125 
Q 24.65625 74.21875 41.21875 74.21875 
Q 47.75 74.21875 53.53125 72.484375 
Q 59.328125 70.75 64.40625 67.28125 
z
" id="DejaVuSans-67"/>
    </defs>
    <g style="fill:#4c72b0;" transform="translate(478.92694 282.234324)scale(0.14 -0.14)">
     <use xlink:href="#DejaVuSans-67"/>
     <use x="69.824219" xlink:href="#DejaVuSans-65"/>
    </g>
   </g>
   <g id="text_18">
    <!-- PA -->
    <defs>
     <path d="M 19.671875 64.796875 
L 19.671875 37.40625 
L 32.078125 37.40625 
Q 38.96875 37.40625 42.71875 40.96875 
Q 46.484375 44.53125 46.484375 51.125 
Q 46.484375 57.671875 42.71875 61.234375 
Q 38.96875 64.796875 32.078125 64.796875 
z
M 9.8125 72.90625 
L 32.078125 72.90625 
Q 44.34375 72.90625 50.609375 67.359375 
Q 56.890625 61.8125 56.890625 51.125 
Q 56.890625 40.328125 50.609375 34.8125 
Q 44.34375 29.296875 32.078125 29.296875 
L 19.671875 29.296875 
L 19.671875 0 
L 9.8125 0 
z
" id="DejaVuSans-80"/>
    </defs>
    <g style="fill:#55a868;" transform="translate(478.92694 239.71748)scale(0.14 -0.14)">
     <use xlink:href="#DejaVuSans-80"/>
     <use x="53.927734" xlink:href="#DejaVuSans-65"/>
    </g>
   </g>
   <g id="text_19">
    <!-- IL -->
    <defs>
     <path d="M 9.8125 72.90625 
L 19.671875 72.90625 
L 19.671875 0 
L 9.8125 0 
z
" id="DejaVuSans-73"/>
     <path d="M 9.8125 72.90625 
L 19.671875 72.90625 
L 19.671875 8.296875 
L 55.171875 8.296875 
L 55.171875 0 
L 9.8125 0 
z
" id="DejaVuSans-76"/>
    </defs>
    <g style="fill:#c44e52;" transform="translate(478.92694 151.861905)scale(0.14 -0.14)">
     <use xlink:href="#DejaVuSans-73"/>
     <use x="29.492188" xlink:href="#DejaVuSans-76"/>
    </g>
   </g>
   <g id="text_20">
    <!-- WI -->
    <defs>
     <path d="M 3.328125 72.90625 
L 13.28125 72.90625 
L 28.609375 11.28125 
L 43.890625 72.90625 
L 54.984375 72.90625 
L 70.3125 11.28125 
L 85.59375 72.90625 
L 95.609375 72.90625 
L 77.296875 0 
L 64.890625 0 
L 49.515625 63.28125 
L 33.984375 0 
L 21.578125 0 
z
" id="DejaVuSans-87"/>
    </defs>
    <g style="fill:#8172b2;" transform="translate(478.92694 115.859877)scale(0.14 -0.14)">
     <use xlink:href="#DejaVuSans-87"/>
     <use x="98.876953" xlink:href="#DejaVuSans-73"/>
    </g>
   </g>
   <g id="text_21">
    <!-- AZ -->
    <defs>
     <path d="M 5.609375 72.90625 
L 62.890625 72.90625 
L 62.890625 65.375 
L 16.796875 8.296875 
L 64.015625 8.296875 
L 64.015625 0 
L 4.5 0 
L 4.5 7.515625 
L 50.59375 64.59375 
L 5.609375 64.59375 
z
" id="DejaVuSans-90"/>
    </defs>
    <g style="fill:#ccb974;" transform="translate(478.92694 252.764838)scale(0.14 -0.14)">
     <use xlink:href="#DejaVuSans-65"/>
     <use x="68.408203" xlink:href="#DejaVuSans-90"/>
    </g>
   </g>
   <g id="text_22">
    <!-- Deaths per million people -->
    <defs>
     <path d="M 19.671875 64.796875 
L 19.671875 8.109375 
L 31.59375 8.109375 
Q 46.6875 8.109375 53.6875 14.9375 
Q 60.6875 21.78125 60.6875 36.53125 
Q 60.6875 51.171875 53.6875 57.984375 
Q 46.6875 64.796875 31.59375 64.796875 
z
M 9.8125 72.90625 
L 30.078125 72.90625 
Q 51.265625 72.90625 61.171875 64.09375 
Q 71.09375 55.28125 71.09375 36.53125 
Q 71.09375 17.671875 61.125 8.828125 
Q 51.171875 0 30.078125 0 
L 9.8125 0 
z
" id="DejaVuSans-68"/>
     <path d="M 54.890625 33.015625 
L 54.890625 0 
L 45.90625 0 
L 45.90625 32.71875 
Q 45.90625 40.484375 42.875 44.328125 
Q 39.84375 48.1875 33.796875 48.1875 
Q 26.515625 48.1875 22.3125 43.546875 
Q 18.109375 38.921875 18.109375 30.90625 
L 18.109375 0 
L 9.078125 0 
L 9.078125 75.984375 
L 18.109375 75.984375 
L 18.109375 46.1875 
Q 21.34375 51.125 25.703125 53.5625 
Q 30.078125 56 35.796875 56 
Q 45.21875 56 50.046875 50.171875 
Q 54.890625 44.34375 54.890625 33.015625 
z
" id="DejaVuSans-104"/>
     <path d="M 44.28125 53.078125 
L 44.28125 44.578125 
Q 40.484375 46.53125 36.375 47.5 
Q 32.28125 48.484375 27.875 48.484375 
Q 21.1875 48.484375 17.84375 46.4375 
Q 14.5 44.390625 14.5 40.28125 
Q 14.5 37.15625 16.890625 35.375 
Q 19.28125 33.59375 26.515625 31.984375 
L 29.59375 31.296875 
Q 39.15625 29.25 43.1875 25.515625 
Q 47.21875 21.78125 47.21875 15.09375 
Q 47.21875 7.46875 41.1875 3.015625 
Q 35.15625 -1.421875 24.609375 -1.421875 
Q 20.21875 -1.421875 15.453125 -0.5625 
Q 10.6875 0.296875 5.421875 2 
L 5.421875 11.28125 
Q 10.40625 8.6875 15.234375 7.390625 
Q 20.0625 6.109375 24.8125 6.109375 
Q 31.15625 6.109375 34.5625 8.28125 
Q 37.984375 10.453125 37.984375 14.40625 
Q 37.984375 18.0625 35.515625 20.015625 
Q 33.0625 21.96875 24.703125 23.78125 
L 21.578125 24.515625 
Q 13.234375 26.265625 9.515625 29.90625 
Q 5.8125 33.546875 5.8125 39.890625 
Q 5.8125 47.609375 11.28125 51.796875 
Q 16.75 56 26.8125 56 
Q 31.78125 56 36.171875 55.265625 
Q 40.578125 54.546875 44.28125 53.078125 
z
" id="DejaVuSans-115"/>
     <path id="DejaVuSans-32"/>
     <path d="M 52 44.1875 
Q 55.375 50.25 60.0625 53.125 
Q 64.75 56 71.09375 56 
Q 79.640625 56 84.28125 50.015625 
Q 88.921875 44.046875 88.921875 33.015625 
L 88.921875 0 
L 79.890625 0 
L 79.890625 32.71875 
Q 79.890625 40.578125 77.09375 44.375 
Q 74.3125 48.1875 68.609375 48.1875 
Q 61.625 48.1875 57.5625 43.546875 
Q 53.515625 38.921875 53.515625 30.90625 
L 53.515625 0 
L 44.484375 0 
L 44.484375 32.71875 
Q 44.484375 40.625 41.703125 44.40625 
Q 38.921875 48.1875 33.109375 48.1875 
Q 26.21875 48.1875 22.15625 43.53125 
Q 18.109375 38.875 18.109375 30.90625 
L 18.109375 0 
L 9.078125 0 
L 9.078125 54.6875 
L 18.109375 54.6875 
L 18.109375 46.1875 
Q 21.1875 51.21875 25.484375 53.609375 
Q 29.78125 56 35.6875 56 
Q 41.65625 56 45.828125 52.96875 
Q 50 49.953125 52 44.1875 
z
" id="DejaVuSans-109"/>
     <path d="M 9.421875 54.6875 
L 18.40625 54.6875 
L 18.40625 0 
L 9.421875 0 
z
M 9.421875 75.984375 
L 18.40625 75.984375 
L 18.40625 64.59375 
L 9.421875 64.59375 
z
" id="DejaVuSans-105"/>
    </defs>
    <g style="fill:#262626;" transform="translate(155.62625 19.3575)scale(0.16 -0.16)">
     <use xlink:href="#DejaVuSans-68"/>
     <use x="77.001953" xlink:href="#DejaVuSans-101"/>
     <use x="138.525391" xlink:href="#DejaVuSans-97"/>
     <use x="199.804688" xlink:href="#DejaVuSans-116"/>
     <use x="239.013672" xlink:href="#DejaVuSans-104"/>
     <use x="302.392578" xlink:href="#DejaVuSans-115"/>
     <use x="354.492188" xlink:href="#DejaVuSans-32"/>
     <use x="386.279297" xlink:href="#DejaVuSans-112"/>
     <use x="449.755859" xlink:href="#DejaVuSans-101"/>
     <use x="511.279297" xlink:href="#DejaVuSans-114"/>
     <use x="552.392578" xlink:href="#DejaVuSans-32"/>
     <use x="584.179688" xlink:href="#DejaVuSans-109"/>
     <use x="681.591797" xlink:href="#DejaVuSans-105"/>
     <use x="709.375" xlink:href="#DejaVuSans-108"/>
     <use x="737.158203" xlink:href="#DejaVuSans-108"/>
     <use x="764.941406" xlink:href="#DejaVuSans-105"/>
     <use x="792.724609" xlink:href="#DejaVuSans-111"/>
     <use x="853.90625" xlink:href="#DejaVuSans-110"/>
     <use x="917.285156" xlink:href="#DejaVuSans-32"/>
     <use x="949.072266" xlink:href="#DejaVuSans-112"/>
     <use x="1012.548828" xlink:href="#DejaVuSans-101"/>
     <use x="1074.072266" xlink:href="#DejaVuSans-111"/>
     <use x="1135.253906" xlink:href="#DejaVuSans-112"/>
     <use x="1198.730469" xlink:href="#DejaVuSans-108"/>
     <use x="1226.513672" xlink:href="#DejaVuSans-101"/>
    </g>
   </g>
   <g id="legend_1"/>
   <g id="PathCollection_1">
    <defs>
     <path d="M 0 2.236068 
C 0.593012 2.236068 1.161816 2.000462 1.581139 1.581139 
C 2.000462 1.161816 2.236068 0.593012 2.236068 0 
C 2.236068 -0.593012 2.000462 -1.161816 1.581139 -1.581139 
C 1.161816 -2.000462 0.593012 -2.236068 0 -2.236068 
C -0.593012 -2.236068 -1.161816 -2.000462 -1.581139 -1.581139 
C -2.000462 -1.161816 -2.236068 -0.593012 -2.236068 0 
C -2.236068 0.593012 -2.000462 1.161816 -1.581139 1.581139 
C -1.161816 2.000462 -0.593012 2.236068 0 2.236068 
z
" id="C0_0_269a1df3a5"/>
    </defs>
    <g clip-path="url(#p0807957284)">
     <use style="fill:#4c72b0;stroke:#4c72b0;" x="473.92694" xlink:href="#C0_0_269a1df3a5" y="278.234324"/>
    </g>
    <g clip-path="url(#p0807957284)">
     <use style="fill:#55a868;stroke:#55a868;" x="473.92694" xlink:href="#C0_0_269a1df3a5" y="235.71748"/>
    </g>
    <g clip-path="url(#p0807957284)">
     <use style="fill:#c44e52;stroke:#c44e52;" x="473.92694" xlink:href="#C0_0_269a1df3a5" y="147.861905"/>
    </g>
    <g clip-path="url(#p0807957284)">
     <use style="fill:#8172b2;stroke:#8172b2;" x="473.92694" xlink:href="#C0_0_269a1df3a5" y="111.859877"/>
    </g>
    <g clip-path="url(#p0807957284)">
     <use style="fill:#ccb974;stroke:#ccb974;" x="473.92694" xlink:href="#C0_0_269a1df3a5" y="248.764838"/>
    </g>
   </g>
  </g>
 </g>
 <defs>
  <clipPath id="p0807957284">
   <rect height="271.8" width="446.4" x="35.47" y="25.3575"/>
  </clipPath>
 </defs>
</svg>
