<?xml version="1.0" encoding="utf-8" standalone="no"?>
<!DOCTYPE svg PUBLIC "-//W3C//DTD SVG 1.1//EN"
  "http://www.w3.org/Graphics/SVG/1.1/DTD/svg11.dtd">
<!-- Created with matplotlib (https://matplotlib.org/) -->
<svg height="337.520625pt" version="1.1" viewBox="0 0 529.524375 337.520625" width="529.524375pt" xmlns="http://www.w3.org/2000/svg" xmlns:xlink="http://www.w3.org/1999/xlink">
 <defs>
  <style type="text/css">
*{stroke-linecap:butt;stroke-linejoin:round;}
  </style>
 </defs>
 <g id="figure_1">
  <g id="patch_1">
   <path d="M 0 337.520625 
L 529.524375 337.520625 
L 529.524375 0 
L 0 0 
z
" style="fill:#ffffff;"/>
  </g>
  <g id="axes_1">
   <g id="patch_2">
    <path d="M 75.924375 288.1575 
L 522.324375 288.1575 
L 522.324375 25.3575 
L 75.924375 25.3575 
z
" style="fill:#ffffff;"/>
   </g>
   <g id="matplotlib.axis_1">
    <g id="xtick_1">
     <g id="line2d_1">
      <defs>
       <path d="M 0 0 
L 0 6 
" id="m9370147df9" style="stroke:#262626;"/>
      </defs>
      <g>
       <use style="fill:#262626;stroke:#262626;" x="75.924375" xlink:href="#m9370147df9" y="288.1575"/>
      </g>
     </g>
     <g id="text_1">
      <!-- 0 -->
      <defs>
       <path d="M 31.78125 66.40625 
Q 24.171875 66.40625 20.328125 58.90625 
Q 16.5 51.421875 16.5 36.375 
Q 16.5 21.390625 20.328125 13.890625 
Q 24.171875 6.390625 31.78125 6.390625 
Q 39.453125 6.390625 43.28125 13.890625 
Q 47.125 21.390625 47.125 36.375 
Q 47.125 51.421875 43.28125 58.90625 
Q 39.453125 66.40625 31.78125 66.40625 
z
M 31.78125 74.21875 
Q 44.046875 74.21875 50.515625 64.515625 
Q 56.984375 54.828125 56.984375 36.375 
Q 56.984375 17.96875 50.515625 8.265625 
Q 44.046875 -1.421875 31.78125 -1.421875 
Q 19.53125 -1.421875 13.0625 8.265625 
Q 6.59375 17.96875 6.59375 36.375 
Q 6.59375 54.828125 13.0625 64.515625 
Q 19.53125 74.21875 31.78125 74.21875 
z
" id="DejaVuSans-48"/>
      </defs>
      <g style="fill:#262626;" transform="translate(72.106875 310.275625)scale(0.12 -0.12)">
       <use xlink:href="#DejaVuSans-48"/>
      </g>
     </g>
    </g>
    <g id="xtick_2">
     <g id="line2d_2">
      <g>
       <use style="fill:#262626;stroke:#262626;" x="155.638661" xlink:href="#m9370147df9" y="288.1575"/>
      </g>
     </g>
     <g id="text_2">
      <!-- 10 -->
      <defs>
       <path d="M 12.40625 8.296875 
L 28.515625 8.296875 
L 28.515625 63.921875 
L 10.984375 60.40625 
L 10.984375 69.390625 
L 28.421875 72.90625 
L 38.28125 72.90625 
L 38.28125 8.296875 
L 54.390625 8.296875 
L 54.390625 0 
L 12.40625 0 
z
" id="DejaVuSans-49"/>
      </defs>
      <g style="fill:#262626;" transform="translate(148.003661 310.275625)scale(0.12 -0.12)">
       <use xlink:href="#DejaVuSans-49"/>
       <use x="63.623047" xlink:href="#DejaVuSans-48"/>
      </g>
     </g>
    </g>
    <g id="xtick_3">
     <g id="line2d_3">
      <g>
       <use style="fill:#262626;stroke:#262626;" x="235.352946" xlink:href="#m9370147df9" y="288.1575"/>
      </g>
     </g>
     <g id="text_3">
      <!-- 20 -->
      <defs>
       <path d="M 19.1875 8.296875 
L 53.609375 8.296875 
L 53.609375 0 
L 7.328125 0 
L 7.328125 8.296875 
Q 12.9375 14.109375 22.625 23.890625 
Q 32.328125 33.6875 34.8125 36.53125 
Q 39.546875 41.84375 41.421875 45.53125 
Q 43.3125 49.21875 43.3125 52.78125 
Q 43.3125 58.59375 39.234375 62.25 
Q 35.15625 65.921875 28.609375 65.921875 
Q 23.96875 65.921875 18.8125 64.3125 
Q 13.671875 62.703125 7.8125 59.421875 
L 7.8125 69.390625 
Q 13.765625 71.78125 18.9375 73 
Q 24.125 74.21875 28.421875 74.21875 
Q 39.75 74.21875 46.484375 68.546875 
Q 53.21875 62.890625 53.21875 53.421875 
Q 53.21875 48.921875 51.53125 44.890625 
Q 49.859375 40.875 45.40625 35.40625 
Q 44.1875 33.984375 37.640625 27.21875 
Q 31.109375 20.453125 19.1875 8.296875 
z
" id="DejaVuSans-50"/>
      </defs>
      <g style="fill:#262626;" transform="translate(227.717946 310.275625)scale(0.12 -0.12)">
       <use xlink:href="#DejaVuSans-50"/>
       <use x="63.623047" xlink:href="#DejaVuSans-48"/>
      </g>
     </g>
    </g>
    <g id="xtick_4">
     <g id="line2d_4">
      <g>
       <use style="fill:#262626;stroke:#262626;" x="315.067232" xlink:href="#m9370147df9" y="288.1575"/>
      </g>
     </g>
     <g id="text_4">
      <!-- 30 -->
      <defs>
       <path d="M 40.578125 39.3125 
Q 47.65625 37.796875 51.625 33 
Q 55.609375 28.21875 55.609375 21.1875 
Q 55.609375 10.40625 48.1875 4.484375 
Q 40.765625 -1.421875 27.09375 -1.421875 
Q 22.515625 -1.421875 17.65625 -0.515625 
Q 12.796875 0.390625 7.625 2.203125 
L 7.625 11.71875 
Q 11.71875 9.328125 16.59375 8.109375 
Q 21.484375 6.890625 26.8125 6.890625 
Q 36.078125 6.890625 40.9375 10.546875 
Q 45.796875 14.203125 45.796875 21.1875 
Q 45.796875 27.640625 41.28125 31.265625 
Q 36.765625 34.90625 28.71875 34.90625 
L 20.21875 34.90625 
L 20.21875 43.015625 
L 29.109375 43.015625 
Q 36.375 43.015625 40.234375 45.921875 
Q 44.09375 48.828125 44.09375 54.296875 
Q 44.09375 59.90625 40.109375 62.90625 
Q 36.140625 65.921875 28.71875 65.921875 
Q 24.65625 65.921875 20.015625 65.03125 
Q 15.375 64.15625 9.8125 62.3125 
L 9.8125 71.09375 
Q 15.4375 72.65625 20.34375 73.4375 
Q 25.25 74.21875 29.59375 74.21875 
Q 40.828125 74.21875 47.359375 69.109375 
Q 53.90625 64.015625 53.90625 55.328125 
Q 53.90625 49.265625 50.4375 45.09375 
Q 46.96875 40.921875 40.578125 39.3125 
z
" id="DejaVuSans-51"/>
      </defs>
      <g style="fill:#262626;" transform="translate(307.432232 310.275625)scale(0.12 -0.12)">
       <use xlink:href="#DejaVuSans-51"/>
       <use x="63.623047" xlink:href="#DejaVuSans-48"/>
      </g>
     </g>
    </g>
    <g id="xtick_5">
     <g id="line2d_5">
      <g>
       <use style="fill:#262626;stroke:#262626;" x="394.781518" xlink:href="#m9370147df9" y="288.1575"/>
      </g>
     </g>
     <g id="text_5">
      <!-- 40 -->
      <defs>
       <path d="M 37.796875 64.3125 
L 12.890625 25.390625 
L 37.796875 25.390625 
z
M 35.203125 72.90625 
L 47.609375 72.90625 
L 47.609375 25.390625 
L 58.015625 25.390625 
L 58.015625 17.1875 
L 47.609375 17.1875 
L 47.609375 0 
L 37.796875 0 
L 37.796875 17.1875 
L 4.890625 17.1875 
L 4.890625 26.703125 
z
" id="DejaVuSans-52"/>
      </defs>
      <g style="fill:#262626;" transform="translate(387.146518 310.275625)scale(0.12 -0.12)">
       <use xlink:href="#DejaVuSans-52"/>
       <use x="63.623047" xlink:href="#DejaVuSans-48"/>
      </g>
     </g>
    </g>
    <g id="xtick_6">
     <g id="line2d_6">
      <g>
       <use style="fill:#262626;stroke:#262626;" x="474.495804" xlink:href="#m9370147df9" y="288.1575"/>
      </g>
     </g>
     <g id="text_6">
      <!-- 50 -->
      <defs>
       <path d="M 10.796875 72.90625 
L 49.515625 72.90625 
L 49.515625 64.59375 
L 19.828125 64.59375 
L 19.828125 46.734375 
Q 21.96875 47.46875 24.109375 47.828125 
Q 26.265625 48.1875 28.421875 48.1875 
Q 40.625 48.1875 47.75 41.5 
Q 54.890625 34.8125 54.890625 23.390625 
Q 54.890625 11.625 47.5625 5.09375 
Q 40.234375 -1.421875 26.90625 -1.421875 
Q 22.3125 -1.421875 17.546875 -0.640625 
Q 12.796875 0.140625 7.71875 1.703125 
L 7.71875 11.625 
Q 12.109375 9.234375 16.796875 8.0625 
Q 21.484375 6.890625 26.703125 6.890625 
Q 35.15625 6.890625 40.078125 11.328125 
Q 45.015625 15.765625 45.015625 23.390625 
Q 45.015625 31 40.078125 35.4375 
Q 35.15625 39.890625 26.703125 39.890625 
Q 22.75 39.890625 18.8125 39.015625 
Q 14.890625 38.140625 10.796875 36.28125 
z
" id="DejaVuSans-53"/>
      </defs>
      <g style="fill:#262626;" transform="translate(466.860804 310.275625)scale(0.12 -0.12)">
       <use xlink:href="#DejaVuSans-53"/>
       <use x="63.623047" xlink:href="#DejaVuSans-48"/>
      </g>
     </g>
    </g>
    <g id="text_7">
     <!-- Days since 10 cases per million people -->
     <defs>
      <path d="M 19.671875 64.796875 
L 19.671875 8.109375 
L 31.59375 8.109375 
Q 46.6875 8.109375 53.6875 14.9375 
Q 60.6875 21.78125 60.6875 36.53125 
Q 60.6875 51.171875 53.6875 57.984375 
Q 46.6875 64.796875 31.59375 64.796875 
z
M 9.8125 72.90625 
L 30.078125 72.90625 
Q 51.265625 72.90625 61.171875 64.09375 
Q 71.09375 55.28125 71.09375 36.53125 
Q 71.09375 17.671875 61.125 8.828125 
Q 51.171875 0 30.078125 0 
L 9.8125 0 
z
" id="DejaVuSans-68"/>
      <path d="M 34.28125 27.484375 
Q 23.390625 27.484375 19.1875 25 
Q 14.984375 22.515625 14.984375 16.5 
Q 14.984375 11.71875 18.140625 8.90625 
Q 21.296875 6.109375 26.703125 6.109375 
Q 34.1875 6.109375 38.703125 11.40625 
Q 43.21875 16.703125 43.21875 25.484375 
L 43.21875 27.484375 
z
M 52.203125 31.203125 
L 52.203125 0 
L 43.21875 0 
L 43.21875 8.296875 
Q 40.140625 3.328125 35.546875 0.953125 
Q 30.953125 -1.421875 24.3125 -1.421875 
Q 15.921875 -1.421875 10.953125 3.296875 
Q 6 8.015625 6 15.921875 
Q 6 25.140625 12.171875 29.828125 
Q 18.359375 34.515625 30.609375 34.515625 
L 43.21875 34.515625 
L 43.21875 35.40625 
Q 43.21875 41.609375 39.140625 45 
Q 35.0625 48.390625 27.6875 48.390625 
Q 23 48.390625 18.546875 47.265625 
Q 14.109375 46.140625 10.015625 43.890625 
L 10.015625 52.203125 
Q 14.9375 54.109375 19.578125 55.046875 
Q 24.21875 56 28.609375 56 
Q 40.484375 56 46.34375 49.84375 
Q 52.203125 43.703125 52.203125 31.203125 
z
" id="DejaVuSans-97"/>
      <path d="M 32.171875 -5.078125 
Q 28.375 -14.84375 24.75 -17.8125 
Q 21.140625 -20.796875 15.09375 -20.796875 
L 7.90625 -20.796875 
L 7.90625 -13.28125 
L 13.1875 -13.28125 
Q 16.890625 -13.28125 18.9375 -11.515625 
Q 21 -9.765625 23.484375 -3.21875 
L 25.09375 0.875 
L 2.984375 54.6875 
L 12.5 54.6875 
L 29.59375 11.921875 
L 46.6875 54.6875 
L 56.203125 54.6875 
z
" id="DejaVuSans-121"/>
      <path d="M 44.28125 53.078125 
L 44.28125 44.578125 
Q 40.484375 46.53125 36.375 47.5 
Q 32.28125 48.484375 27.875 48.484375 
Q 21.1875 48.484375 17.84375 46.4375 
Q 14.5 44.390625 14.5 40.28125 
Q 14.5 37.15625 16.890625 35.375 
Q 19.28125 33.59375 26.515625 31.984375 
L 29.59375 31.296875 
Q 39.15625 29.25 43.1875 25.515625 
Q 47.21875 21.78125 47.21875 15.09375 
Q 47.21875 7.46875 41.1875 3.015625 
Q 35.15625 -1.421875 24.609375 -1.421875 
Q 20.21875 -1.421875 15.453125 -0.5625 
Q 10.6875 0.296875 5.421875 2 
L 5.421875 11.28125 
Q 10.40625 8.6875 15.234375 7.390625 
Q 20.0625 6.109375 24.8125 6.109375 
Q 31.15625 6.109375 34.5625 8.28125 
Q 37.984375 10.453125 37.984375 14.40625 
Q 37.984375 18.0625 35.515625 20.015625 
Q 33.0625 21.96875 24.703125 23.78125 
L 21.578125 24.515625 
Q 13.234375 26.265625 9.515625 29.90625 
Q 5.8125 33.546875 5.8125 39.890625 
Q 5.8125 47.609375 11.28125 51.796875 
Q 16.75 56 26.8125 56 
Q 31.78125 56 36.171875 55.265625 
Q 40.578125 54.546875 44.28125 53.078125 
z
" id="DejaVuSans-115"/>
      <path id="DejaVuSans-32"/>
      <path d="M 9.421875 54.6875 
L 18.40625 54.6875 
L 18.40625 0 
L 9.421875 0 
z
M 9.421875 75.984375 
L 18.40625 75.984375 
L 18.40625 64.59375 
L 9.421875 64.59375 
z
" id="DejaVuSans-105"/>
      <path d="M 54.890625 33.015625 
L 54.890625 0 
L 45.90625 0 
L 45.90625 32.71875 
Q 45.90625 40.484375 42.875 44.328125 
Q 39.84375 48.1875 33.796875 48.1875 
Q 26.515625 48.1875 22.3125 43.546875 
Q 18.109375 38.921875 18.109375 30.90625 
L 18.109375 0 
L 9.078125 0 
L 9.078125 54.6875 
L 18.109375 54.6875 
L 18.109375 46.1875 
Q 21.34375 51.125 25.703125 53.5625 
Q 30.078125 56 35.796875 56 
Q 45.21875 56 50.046875 50.171875 
Q 54.890625 44.34375 54.890625 33.015625 
z
" id="DejaVuSans-110"/>
      <path d="M 48.78125 52.59375 
L 48.78125 44.1875 
Q 44.96875 46.296875 41.140625 47.34375 
Q 37.3125 48.390625 33.40625 48.390625 
Q 24.65625 48.390625 19.8125 42.84375 
Q 14.984375 37.3125 14.984375 27.296875 
Q 14.984375 17.28125 19.8125 11.734375 
Q 24.65625 6.203125 33.40625 6.203125 
Q 37.3125 6.203125 41.140625 7.25 
Q 44.96875 8.296875 48.78125 10.40625 
L 48.78125 2.09375 
Q 45.015625 0.34375 40.984375 -0.53125 
Q 36.96875 -1.421875 32.421875 -1.421875 
Q 20.0625 -1.421875 12.78125 6.34375 
Q 5.515625 14.109375 5.515625 27.296875 
Q 5.515625 40.671875 12.859375 48.328125 
Q 20.21875 56 33.015625 56 
Q 37.15625 56 41.109375 55.140625 
Q 45.0625 54.296875 48.78125 52.59375 
z
" id="DejaVuSans-99"/>
      <path d="M 56.203125 29.59375 
L 56.203125 25.203125 
L 14.890625 25.203125 
Q 15.484375 15.921875 20.484375 11.0625 
Q 25.484375 6.203125 34.421875 6.203125 
Q 39.59375 6.203125 44.453125 7.46875 
Q 49.3125 8.734375 54.109375 11.28125 
L 54.109375 2.78125 
Q 49.265625 0.734375 44.1875 -0.34375 
Q 39.109375 -1.421875 33.890625 -1.421875 
Q 20.796875 -1.421875 13.15625 6.1875 
Q 5.515625 13.8125 5.515625 26.8125 
Q 5.515625 40.234375 12.765625 48.109375 
Q 20.015625 56 32.328125 56 
Q 43.359375 56 49.78125 48.890625 
Q 56.203125 41.796875 56.203125 29.59375 
z
M 47.21875 32.234375 
Q 47.125 39.59375 43.09375 43.984375 
Q 39.0625 48.390625 32.421875 48.390625 
Q 24.90625 48.390625 20.390625 44.140625 
Q 15.875 39.890625 15.1875 32.171875 
z
" id="DejaVuSans-101"/>
      <path d="M 18.109375 8.203125 
L 18.109375 -20.796875 
L 9.078125 -20.796875 
L 9.078125 54.6875 
L 18.109375 54.6875 
L 18.109375 46.390625 
Q 20.953125 51.265625 25.265625 53.625 
Q 29.59375 56 35.59375 56 
Q 45.5625 56 51.78125 48.09375 
Q 58.015625 40.1875 58.015625 27.296875 
Q 58.015625 14.40625 51.78125 6.484375 
Q 45.5625 -1.421875 35.59375 -1.421875 
Q 29.59375 -1.421875 25.265625 0.953125 
Q 20.953125 3.328125 18.109375 8.203125 
z
M 48.6875 27.296875 
Q 48.6875 37.203125 44.609375 42.84375 
Q 40.53125 48.484375 33.40625 48.484375 
Q 26.265625 48.484375 22.1875 42.84375 
Q 18.109375 37.203125 18.109375 27.296875 
Q 18.109375 17.390625 22.1875 11.75 
Q 26.265625 6.109375 33.40625 6.109375 
Q 40.53125 6.109375 44.609375 11.75 
Q 48.6875 17.390625 48.6875 27.296875 
z
" id="DejaVuSans-112"/>
      <path d="M 41.109375 46.296875 
Q 39.59375 47.171875 37.8125 47.578125 
Q 36.03125 48 33.890625 48 
Q 26.265625 48 22.1875 43.046875 
Q 18.109375 38.09375 18.109375 28.8125 
L 18.109375 0 
L 9.078125 0 
L 9.078125 54.6875 
L 18.109375 54.6875 
L 18.109375 46.1875 
Q 20.953125 51.171875 25.484375 53.578125 
Q 30.03125 56 36.53125 56 
Q 37.453125 56 38.578125 55.875 
Q 39.703125 55.765625 41.0625 55.515625 
z
" id="DejaVuSans-114"/>
      <path d="M 52 44.1875 
Q 55.375 50.25 60.0625 53.125 
Q 64.75 56 71.09375 56 
Q 79.640625 56 84.28125 50.015625 
Q 88.921875 44.046875 88.921875 33.015625 
L 88.921875 0 
L 79.890625 0 
L 79.890625 32.71875 
Q 79.890625 40.578125 77.09375 44.375 
Q 74.3125 48.1875 68.609375 48.1875 
Q 61.625 48.1875 57.5625 43.546875 
Q 53.515625 38.921875 53.515625 30.90625 
L 53.515625 0 
L 44.484375 0 
L 44.484375 32.71875 
Q 44.484375 40.625 41.703125 44.40625 
Q 38.921875 48.1875 33.109375 48.1875 
Q 26.21875 48.1875 22.15625 43.53125 
Q 18.109375 38.875 18.109375 30.90625 
L 18.109375 0 
L 9.078125 0 
L 9.078125 54.6875 
L 18.109375 54.6875 
L 18.109375 46.1875 
Q 21.1875 51.21875 25.484375 53.609375 
Q 29.78125 56 35.6875 56 
Q 41.65625 56 45.828125 52.96875 
Q 50 49.953125 52 44.1875 
z
" id="DejaVuSans-109"/>
      <path d="M 9.421875 75.984375 
L 18.40625 75.984375 
L 18.40625 0 
L 9.421875 0 
z
" id="DejaVuSans-108"/>
      <path d="M 30.609375 48.390625 
Q 23.390625 48.390625 19.1875 42.75 
Q 14.984375 37.109375 14.984375 27.296875 
Q 14.984375 17.484375 19.15625 11.84375 
Q 23.34375 6.203125 30.609375 6.203125 
Q 37.796875 6.203125 41.984375 11.859375 
Q 46.1875 17.53125 46.1875 27.296875 
Q 46.1875 37.015625 41.984375 42.703125 
Q 37.796875 48.390625 30.609375 48.390625 
z
M 30.609375 56 
Q 42.328125 56 49.015625 48.375 
Q 55.71875 40.765625 55.71875 27.296875 
Q 55.71875 13.875 49.015625 6.21875 
Q 42.328125 -1.421875 30.609375 -1.421875 
Q 18.84375 -1.421875 12.171875 6.21875 
Q 5.515625 13.875 5.515625 27.296875 
Q 5.515625 40.765625 12.171875 48.375 
Q 18.84375 56 30.609375 56 
z
" id="DejaVuSans-111"/>
     </defs>
     <g style="fill:#262626;" transform="translate(162.801562 327.409063)scale(0.14 -0.14)">
      <use xlink:href="#DejaVuSans-68"/>
      <use x="77.001953" xlink:href="#DejaVuSans-97"/>
      <use x="138.28125" xlink:href="#DejaVuSans-121"/>
      <use x="197.460938" xlink:href="#DejaVuSans-115"/>
      <use x="249.560547" xlink:href="#DejaVuSans-32"/>
      <use x="281.347656" xlink:href="#DejaVuSans-115"/>
      <use x="333.447266" xlink:href="#DejaVuSans-105"/>
      <use x="361.230469" xlink:href="#DejaVuSans-110"/>
      <use x="424.609375" xlink:href="#DejaVuSans-99"/>
      <use x="479.589844" xlink:href="#DejaVuSans-101"/>
      <use x="541.113281" xlink:href="#DejaVuSans-32"/>
      <use x="572.900391" xlink:href="#DejaVuSans-49"/>
      <use x="636.523438" xlink:href="#DejaVuSans-48"/>
      <use x="700.146484" xlink:href="#DejaVuSans-32"/>
      <use x="731.933594" xlink:href="#DejaVuSans-99"/>
      <use x="786.914062" xlink:href="#DejaVuSans-97"/>
      <use x="848.193359" xlink:href="#DejaVuSans-115"/>
      <use x="900.292969" xlink:href="#DejaVuSans-101"/>
      <use x="961.816406" xlink:href="#DejaVuSans-115"/>
      <use x="1013.916016" xlink:href="#DejaVuSans-32"/>
      <use x="1045.703125" xlink:href="#DejaVuSans-112"/>
      <use x="1109.179688" xlink:href="#DejaVuSans-101"/>
      <use x="1170.703125" xlink:href="#DejaVuSans-114"/>
      <use x="1211.816406" xlink:href="#DejaVuSans-32"/>
      <use x="1243.603516" xlink:href="#DejaVuSans-109"/>
      <use x="1341.015625" xlink:href="#DejaVuSans-105"/>
      <use x="1368.798828" xlink:href="#DejaVuSans-108"/>
      <use x="1396.582031" xlink:href="#DejaVuSans-108"/>
      <use x="1424.365234" xlink:href="#DejaVuSans-105"/>
      <use x="1452.148438" xlink:href="#DejaVuSans-111"/>
      <use x="1513.330078" xlink:href="#DejaVuSans-110"/>
      <use x="1576.708984" xlink:href="#DejaVuSans-32"/>
      <use x="1608.496094" xlink:href="#DejaVuSans-112"/>
      <use x="1671.972656" xlink:href="#DejaVuSans-101"/>
      <use x="1733.496094" xlink:href="#DejaVuSans-111"/>
      <use x="1794.677734" xlink:href="#DejaVuSans-112"/>
      <use x="1858.154297" xlink:href="#DejaVuSans-108"/>
      <use x="1885.9375" xlink:href="#DejaVuSans-101"/>
     </g>
    </g>
   </g>
   <g id="matplotlib.axis_2">
    <g id="ytick_1">
     <g id="line2d_7">
      <path clip-path="url(#p25fbf40087)" d="M 75.924375 279.648289 
L 522.324375 279.648289 
" style="fill:none;stroke:#b0b0b0;stroke-linecap:square;stroke-opacity:0.3;"/>
     </g>
     <g id="line2d_8">
      <defs>
       <path d="M 0 0 
L -6 0 
" id="m9d97b02c8f" style="stroke:#262626;"/>
      </defs>
      <g>
       <use style="fill:#262626;stroke:#262626;" x="75.924375" xlink:href="#m9d97b02c8f" y="279.648289"/>
      </g>
     </g>
     <g id="text_8">
      <!-- 10 -->
      <g style="fill:#262626;" transform="translate(47.654375 284.207351)scale(0.12 -0.12)">
       <use xlink:href="#DejaVuSans-49"/>
       <use x="63.623047" xlink:href="#DejaVuSans-48"/>
      </g>
     </g>
    </g>
    <g id="ytick_2">
     <g id="line2d_9">
      <path clip-path="url(#p25fbf40087)" d="M 75.924375 258.146047 
L 522.324375 258.146047 
" style="fill:none;stroke:#b0b0b0;stroke-linecap:square;stroke-opacity:0.3;"/>
     </g>
     <g id="line2d_10">
      <g>
       <use style="fill:#262626;stroke:#262626;" x="75.924375" xlink:href="#m9d97b02c8f" y="258.146047"/>
      </g>
     </g>
     <g id="text_9">
      <!-- 20 -->
      <g style="fill:#262626;" transform="translate(47.654375 262.70511)scale(0.12 -0.12)">
       <use xlink:href="#DejaVuSans-50"/>
       <use x="63.623047" xlink:href="#DejaVuSans-48"/>
      </g>
     </g>
    </g>
    <g id="ytick_3">
     <g id="line2d_11">
      <path clip-path="url(#p25fbf40087)" d="M 75.924375 229.721631 
L 522.324375 229.721631 
" style="fill:none;stroke:#b0b0b0;stroke-linecap:square;stroke-opacity:0.3;"/>
     </g>
     <g id="line2d_12">
      <g>
       <use style="fill:#262626;stroke:#262626;" x="75.924375" xlink:href="#m9d97b02c8f" y="229.721631"/>
      </g>
     </g>
     <g id="text_10">
      <!-- 50 -->
      <g style="fill:#262626;" transform="translate(47.654375 234.280693)scale(0.12 -0.12)">
       <use xlink:href="#DejaVuSans-53"/>
       <use x="63.623047" xlink:href="#DejaVuSans-48"/>
      </g>
     </g>
    </g>
    <g id="ytick_4">
     <g id="line2d_13">
      <path clip-path="url(#p25fbf40087)" d="M 75.924375 208.219389 
L 522.324375 208.219389 
" style="fill:none;stroke:#b0b0b0;stroke-linecap:square;stroke-opacity:0.3;"/>
     </g>
     <g id="line2d_14">
      <g>
       <use style="fill:#262626;stroke:#262626;" x="75.924375" xlink:href="#m9d97b02c8f" y="208.219389"/>
      </g>
     </g>
     <g id="text_11">
      <!-- 100 -->
      <g style="fill:#262626;" transform="translate(40.019375 212.778452)scale(0.12 -0.12)">
       <use xlink:href="#DejaVuSans-49"/>
       <use x="63.623047" xlink:href="#DejaVuSans-48"/>
       <use x="127.246094" xlink:href="#DejaVuSans-48"/>
      </g>
     </g>
    </g>
    <g id="ytick_5">
     <g id="line2d_15">
      <path clip-path="url(#p25fbf40087)" d="M 75.924375 186.717148 
L 522.324375 186.717148 
" style="fill:none;stroke:#b0b0b0;stroke-linecap:square;stroke-opacity:0.3;"/>
     </g>
     <g id="line2d_16">
      <g>
       <use style="fill:#262626;stroke:#262626;" x="75.924375" xlink:href="#m9d97b02c8f" y="186.717148"/>
      </g>
     </g>
     <g id="text_12">
      <!-- 200 -->
      <g style="fill:#262626;" transform="translate(40.019375 191.276211)scale(0.12 -0.12)">
       <use xlink:href="#DejaVuSans-50"/>
       <use x="63.623047" xlink:href="#DejaVuSans-48"/>
       <use x="127.246094" xlink:href="#DejaVuSans-48"/>
      </g>
     </g>
    </g>
    <g id="ytick_6">
     <g id="line2d_17">
      <path clip-path="url(#p25fbf40087)" d="M 75.924375 158.292731 
L 522.324375 158.292731 
" style="fill:none;stroke:#b0b0b0;stroke-linecap:square;stroke-opacity:0.3;"/>
     </g>
     <g id="line2d_18">
      <g>
       <use style="fill:#262626;stroke:#262626;" x="75.924375" xlink:href="#m9d97b02c8f" y="158.292731"/>
      </g>
     </g>
     <g id="text_13">
      <!-- 500 -->
      <g style="fill:#262626;" transform="translate(40.019375 162.851794)scale(0.12 -0.12)">
       <use xlink:href="#DejaVuSans-53"/>
       <use x="63.623047" xlink:href="#DejaVuSans-48"/>
       <use x="127.246094" xlink:href="#DejaVuSans-48"/>
      </g>
     </g>
    </g>
    <g id="ytick_7">
     <g id="line2d_19">
      <path clip-path="url(#p25fbf40087)" d="M 75.924375 136.79049 
L 522.324375 136.79049 
" style="fill:none;stroke:#b0b0b0;stroke-linecap:square;stroke-opacity:0.3;"/>
     </g>
     <g id="line2d_20">
      <g>
       <use style="fill:#262626;stroke:#262626;" x="75.924375" xlink:href="#m9d97b02c8f" y="136.79049"/>
      </g>
     </g>
     <g id="text_14">
      <!-- 1000 -->
      <g style="fill:#262626;" transform="translate(32.384375 141.349553)scale(0.12 -0.12)">
       <use xlink:href="#DejaVuSans-49"/>
       <use x="63.623047" xlink:href="#DejaVuSans-48"/>
       <use x="127.246094" xlink:href="#DejaVuSans-48"/>
       <use x="190.869141" xlink:href="#DejaVuSans-48"/>
      </g>
     </g>
    </g>
    <g id="ytick_8">
     <g id="line2d_21">
      <path clip-path="url(#p25fbf40087)" d="M 75.924375 115.288249 
L 522.324375 115.288249 
" style="fill:none;stroke:#b0b0b0;stroke-linecap:square;stroke-opacity:0.3;"/>
     </g>
     <g id="line2d_22">
      <g>
       <use style="fill:#262626;stroke:#262626;" x="75.924375" xlink:href="#m9d97b02c8f" y="115.288249"/>
      </g>
     </g>
     <g id="text_15">
      <!-- 2000 -->
      <g style="fill:#262626;" transform="translate(32.384375 119.847311)scale(0.12 -0.12)">
       <use xlink:href="#DejaVuSans-50"/>
       <use x="63.623047" xlink:href="#DejaVuSans-48"/>
       <use x="127.246094" xlink:href="#DejaVuSans-48"/>
       <use x="190.869141" xlink:href="#DejaVuSans-48"/>
      </g>
     </g>
    </g>
    <g id="ytick_9">
     <g id="line2d_23">
      <path clip-path="url(#p25fbf40087)" d="M 75.924375 86.863832 
L 522.324375 86.863832 
" style="fill:none;stroke:#b0b0b0;stroke-linecap:square;stroke-opacity:0.3;"/>
     </g>
     <g id="line2d_24">
      <g>
       <use style="fill:#262626;stroke:#262626;" x="75.924375" xlink:href="#m9d97b02c8f" y="86.863832"/>
      </g>
     </g>
     <g id="text_16">
      <!-- 5000 -->
      <g style="fill:#262626;" transform="translate(32.384375 91.422894)scale(0.12 -0.12)">
       <use xlink:href="#DejaVuSans-53"/>
       <use x="63.623047" xlink:href="#DejaVuSans-48"/>
       <use x="127.246094" xlink:href="#DejaVuSans-48"/>
       <use x="190.869141" xlink:href="#DejaVuSans-48"/>
      </g>
     </g>
    </g>
    <g id="ytick_10">
     <g id="line2d_25">
      <path clip-path="url(#p25fbf40087)" d="M 75.924375 65.361591 
L 522.324375 65.361591 
" style="fill:none;stroke:#b0b0b0;stroke-linecap:square;stroke-opacity:0.3;"/>
     </g>
     <g id="line2d_26">
      <g>
       <use style="fill:#262626;stroke:#262626;" x="75.924375" xlink:href="#m9d97b02c8f" y="65.361591"/>
      </g>
     </g>
     <g id="text_17">
      <!-- 10000 -->
      <g style="fill:#262626;" transform="translate(24.749375 69.920653)scale(0.12 -0.12)">
       <use xlink:href="#DejaVuSans-49"/>
       <use x="63.623047" xlink:href="#DejaVuSans-48"/>
       <use x="127.246094" xlink:href="#DejaVuSans-48"/>
       <use x="190.869141" xlink:href="#DejaVuSans-48"/>
       <use x="254.492188" xlink:href="#DejaVuSans-48"/>
      </g>
     </g>
    </g>
    <g id="ytick_11">
     <g id="line2d_27">
      <path clip-path="url(#p25fbf40087)" d="M 75.924375 43.859349 
L 522.324375 43.859349 
" style="fill:none;stroke:#b0b0b0;stroke-linecap:square;stroke-opacity:0.3;"/>
     </g>
     <g id="line2d_28">
      <g>
       <use style="fill:#262626;stroke:#262626;" x="75.924375" xlink:href="#m9d97b02c8f" y="43.859349"/>
      </g>
     </g>
     <g id="text_18">
      <!-- 20000 -->
      <g style="fill:#262626;" transform="translate(24.749375 48.418412)scale(0.12 -0.12)">
       <use xlink:href="#DejaVuSans-50"/>
       <use x="63.623047" xlink:href="#DejaVuSans-48"/>
       <use x="127.246094" xlink:href="#DejaVuSans-48"/>
       <use x="190.869141" xlink:href="#DejaVuSans-48"/>
       <use x="254.492188" xlink:href="#DejaVuSans-48"/>
      </g>
     </g>
    </g>
    <g id="text_19">
     <!-- Cases per million people -->
     <defs>
      <path d="M 64.40625 67.28125 
L 64.40625 56.890625 
Q 59.421875 61.53125 53.78125 63.8125 
Q 48.140625 66.109375 41.796875 66.109375 
Q 29.296875 66.109375 22.65625 58.46875 
Q 16.015625 50.828125 16.015625 36.375 
Q 16.015625 21.96875 22.65625 14.328125 
Q 29.296875 6.6875 41.796875 6.6875 
Q 48.140625 6.6875 53.78125 8.984375 
Q 59.421875 11.28125 64.40625 15.921875 
L 64.40625 5.609375 
Q 59.234375 2.09375 53.4375 0.328125 
Q 47.65625 -1.421875 41.21875 -1.421875 
Q 24.65625 -1.421875 15.125 8.703125 
Q 5.609375 18.84375 5.609375 36.375 
Q 5.609375 53.953125 15.125 64.078125 
Q 24.65625 74.21875 41.21875 74.21875 
Q 47.75 74.21875 53.53125 72.484375 
Q 59.328125 70.75 64.40625 67.28125 
z
" id="DejaVuSans-67"/>
     </defs>
     <g style="fill:#262626;" transform="translate(17.837812 242.884844)rotate(-90)scale(0.14 -0.14)">
      <use xlink:href="#DejaVuSans-67"/>
      <use x="69.824219" xlink:href="#DejaVuSans-97"/>
      <use x="131.103516" xlink:href="#DejaVuSans-115"/>
      <use x="183.203125" xlink:href="#DejaVuSans-101"/>
      <use x="244.726562" xlink:href="#DejaVuSans-115"/>
      <use x="296.826172" xlink:href="#DejaVuSans-32"/>
      <use x="328.613281" xlink:href="#DejaVuSans-112"/>
      <use x="392.089844" xlink:href="#DejaVuSans-101"/>
      <use x="453.613281" xlink:href="#DejaVuSans-114"/>
      <use x="494.726562" xlink:href="#DejaVuSans-32"/>
      <use x="526.513672" xlink:href="#DejaVuSans-109"/>
      <use x="623.925781" xlink:href="#DejaVuSans-105"/>
      <use x="651.708984" xlink:href="#DejaVuSans-108"/>
      <use x="679.492188" xlink:href="#DejaVuSans-108"/>
      <use x="707.275391" xlink:href="#DejaVuSans-105"/>
      <use x="735.058594" xlink:href="#DejaVuSans-111"/>
      <use x="796.240234" xlink:href="#DejaVuSans-110"/>
      <use x="859.619141" xlink:href="#DejaVuSans-32"/>
      <use x="891.40625" xlink:href="#DejaVuSans-112"/>
      <use x="954.882812" xlink:href="#DejaVuSans-101"/>
      <use x="1016.40625" xlink:href="#DejaVuSans-111"/>
      <use x="1077.587891" xlink:href="#DejaVuSans-112"/>
      <use x="1141.064453" xlink:href="#DejaVuSans-108"/>
      <use x="1168.847656" xlink:href="#DejaVuSans-101"/>
     </g>
    </g>
   </g>
   <g id="line2d_29">
    <path clip-path="url(#p25fbf40087)" d="M 75.924375 276.380439 
L 83.895804 263.754819 
L 91.867232 255.821605 
L 99.838661 244.318142 
L 107.810089 238.662313 
L 115.781518 230.575667 
L 123.752946 219.128248 
L 131.724375 202.059953 
L 139.695804 184.823047 
L 147.667232 168.171304 
L 155.638661 156.470438 
L 163.610089 144.632078 
L 171.581518 134.725021 
L 179.552946 128.316793 
L 187.524375 120.456728 
L 195.495804 115.346837 
L 203.467232 111.14998 
L 211.438661 105.609619 
L 219.410089 102.197262 
L 227.381518 98.469517 
L 235.352946 94.708692 
L 243.324375 91.576356 
L 251.295804 88.585082 
L 259.267232 85.248918 
L 267.238661 81.792189 
L 275.210089 79.727321 
L 283.181518 77.823863 
L 291.152946 75.670982 
L 299.124375 73.672811 
L 307.095804 71.558841 
L 315.067232 69.572689 
L 323.038661 67.814024 
L 331.010089 66.429593 
L 338.981518 65.404905 
L 346.952946 64.283851 
L 354.924375 62.55765 
L 362.895804 61.347418 
L 370.867232 60.337191 
L 378.838661 59.389864 
L 386.810089 58.606628 
L 394.781518 58.008657 
L 402.752946 57.489578 
L 410.724375 56.815938 
L 418.695804 56.075502 
L 426.667232 55.129165 
L 434.638661 53.946756 
L 442.610089 53.304605 
L 450.581518 52.882036 
L 458.552946 52.553417 
L 466.524375 52.075203 
L 474.495804 51.594668 
L 482.467232 51.195321 
" style="fill:none;stroke:#4c72b0;stroke-linecap:square;stroke-width:2;"/>
   </g>
   <g id="line2d_30">
    <path clip-path="url(#p25fbf40087)" d="M 75.924375 273.701594 
L 83.895804 267.276606 
L 91.867232 260.481306 
L 99.838661 254.314108 
L 107.810089 248.791728 
L 115.781518 243.072971 
L 123.752946 237.328613 
L 131.724375 231.702936 
L 139.695804 225.785651 
L 147.667232 220.641811 
L 155.638661 214.886414 
L 163.610089 207.337137 
L 171.581518 201.41503 
L 179.552946 197.555725 
L 187.524375 193.875335 
L 195.495804 188.627308 
L 203.467232 184.118282 
L 211.438661 179.950689 
L 219.410089 175.886703 
L 227.381518 172.281641 
L 235.352946 169.392166 
L 243.324375 166.639801 
L 251.295804 164.248721 
L 259.267232 161.943818 
L 267.238661 159.393393 
L 275.210089 157.577495 
L 283.181518 155.822816 
L 291.152946 154.327683 
L 299.124375 153.104147 
L 307.095804 151.787777 
L 315.067232 150.023581 
L 323.038661 148.440051 
L 331.010089 147.277652 
L 338.981518 145.923159 
L 346.952946 144.448748 
L 354.924375 143.737507 
L 362.895804 141.537794 
L 370.867232 139.773224 
L 378.838661 138.311832 
L 386.810089 136.733618 
L 394.781518 135.326914 
L 402.752946 134.42383 
L 410.724375 133.632088 
L 418.695804 132.573275 
L 426.667232 131.652489 
L 434.638661 130.135472 
L 442.610089 129.157687 
L 450.581518 128.042123 
" style="fill:none;stroke:#55a868;stroke-linecap:square;stroke-width:2;"/>
   </g>
   <g id="line2d_31">
    <path clip-path="url(#p25fbf40087)" d="M 75.924375 277.093023 
L 83.895804 267.891067 
L 91.867232 256.611681 
L 99.838661 245.248811 
L 107.810089 237.134573 
L 115.781518 229.530586 
L 123.752946 220.884568 
L 131.724375 211.516971 
L 139.695804 199.601817 
L 147.667232 191.167862 
L 155.638661 183.773767 
L 163.610089 177.544718 
L 171.581518 171.688201 
L 179.552946 165.971474 
L 187.524375 161.321962 
L 195.495804 155.444266 
L 203.467232 149.78549 
L 211.438661 144.114313 
L 219.410089 139.875882 
L 227.381518 136.135685 
L 235.352946 132.74934 
L 243.324375 129.078085 
L 251.295804 125.570394 
L 259.267232 122.75047 
L 267.238661 120.31206 
L 275.210089 118.673546 
L 283.181518 116.913566 
L 291.152946 115.301391 
L 299.124375 113.864788 
L 307.095804 112.164664 
L 315.067232 110.245501 
L 323.038661 108.61943 
L 331.010089 107.421256 
L 338.981518 106.483099 
L 346.952946 105.24994 
L 354.924375 104.063933 
L 362.895804 102.765842 
L 370.867232 101.215881 
L 378.838661 100.210077 
L 386.810089 99.413308 
L 394.781518 98.681861 
L 402.752946 97.570496 
L 410.724375 96.982013 
L 418.695804 95.645874 
L 426.667232 94.670723 
" style="fill:none;stroke:#c44e52;stroke-linecap:square;stroke-width:2;"/>
   </g>
   <g id="line2d_32">
    <path clip-path="url(#p25fbf40087)" d="M 75.924375 272.733602 
L 83.895804 254.521453 
L 91.867232 242.601166 
L 99.838661 232.428315 
L 107.810089 224.57318 
L 115.781518 214.265508 
L 123.752946 207.911447 
L 131.724375 202.396761 
L 139.695804 196.190097 
L 147.667232 186.797886 
L 155.638661 181.3116 
L 163.610089 176.414298 
L 171.581518 168.26267 
L 179.552946 165.332335 
L 187.524375 160.138827 
L 195.495804 155.414613 
L 203.467232 152.389371 
L 211.438661 147.862455 
L 219.410089 143.173232 
L 227.381518 140.535999 
L 235.352946 137.935541 
L 243.324375 134.839389 
L 251.295804 131.522481 
L 259.267232 128.873732 
L 267.238661 126.222902 
L 275.210089 124.057814 
L 283.181518 121.465008 
L 291.152946 119.767271 
L 299.124375 118.092192 
L 307.095804 116.346142 
L 315.067232 114.939294 
L 323.038661 112.795839 
L 331.010089 111.062117 
L 338.981518 109.814159 
L 346.952946 108.659726 
L 354.924375 107.169085 
L 362.895804 105.303621 
L 370.867232 103.729899 
L 378.838661 101.523267 
L 386.810089 99.908514 
L 394.781518 98.368725 
L 402.752946 97.000318 
L 410.724375 95.535216 
L 418.695804 94.115248 
L 426.667232 92.575182 
L 434.638661 90.788678 
" style="fill:none;stroke:#8172b2;stroke-linecap:square;stroke-width:2;"/>
   </g>
   <g id="line2d_33">
    <path clip-path="url(#p25fbf40087)" d="M 75.924375 272.980379 
L 83.895804 260.982226 
L 91.867232 249.194613 
L 99.838661 238.900133 
L 107.810089 230.739198 
L 115.781518 221.213651 
L 123.752946 218.419858 
L 131.724375 214.064924 
L 139.695804 206.04039 
L 147.667232 200.120127 
L 155.638661 193.612125 
L 163.610089 190.084625 
L 171.581518 187.845308 
L 179.552946 184.019676 
L 187.524375 182.028329 
L 195.495804 177.765713 
L 203.467232 174.357526 
L 211.438661 171.189697 
L 219.410089 168.168368 
L 227.381518 165.971386 
L 235.352946 163.690068 
L 243.324375 161.983411 
L 251.295804 159.912237 
L 259.267232 158.493188 
L 267.238661 156.585355 
L 275.210089 155.152822 
L 283.181518 153.940977 
L 291.152946 153.14352 
L 299.124375 152.01503 
L 307.095804 150.599305 
L 315.067232 149.341296 
L 323.038661 148.009375 
L 331.010089 146.850273 
L 338.981518 145.78285 
L 346.952946 144.70954 
L 354.924375 143.886252 
L 362.895804 142.411116 
L 370.867232 141.113285 
L 378.838661 139.300617 
L 386.810089 137.440419 
L 394.781518 136.242004 
L 402.752946 135.362425 
L 410.724375 134.319093 
L 418.695804 133.200087 
L 426.667232 131.65033 
L 434.638661 129.63526 
" style="fill:none;stroke:#ccb974;stroke-linecap:square;stroke-width:2;"/>
   </g>
   <g id="patch_3">
    <path d="M 75.924375 288.1575 
L 75.924375 25.3575 
" style="fill:none;stroke:#000000;stroke-linecap:square;stroke-linejoin:miter;stroke-width:0.8;"/>
   </g>
   <g id="patch_4">
    <path d="M 75.924375 288.1575 
L 522.324375 288.1575 
" style="fill:none;stroke:#000000;stroke-linecap:square;stroke-linejoin:miter;stroke-width:0.8;"/>
   </g>
   <g id="text_20">
    <!-- NY -->
    <defs>
     <path d="M 9.8125 72.90625 
L 23.09375 72.90625 
L 55.421875 11.921875 
L 55.421875 72.90625 
L 64.984375 72.90625 
L 64.984375 0 
L 51.703125 0 
L 19.390625 60.984375 
L 19.390625 0 
L 9.8125 0 
z
" id="DejaVuSans-78"/>
     <path d="M -0.203125 72.90625 
L 10.40625 72.90625 
L 30.609375 42.921875 
L 50.6875 72.90625 
L 61.28125 72.90625 
L 35.5 34.71875 
L 35.5 0 
L 25.59375 0 
L 25.59375 34.71875 
z
" id="DejaVuSans-89"/>
    </defs>
    <g style="fill:#4c72b0;" transform="translate(488.467232 55.195321)scale(0.12 -0.12)">
     <use xlink:href="#DejaVuSans-78"/>
     <use x="74.804688" xlink:href="#DejaVuSans-89"/>
    </g>
   </g>
   <g id="text_21">
    <!-- CA -->
    <defs>
     <path d="M 34.1875 63.1875 
L 20.796875 26.90625 
L 47.609375 26.90625 
z
M 28.609375 72.90625 
L 39.796875 72.90625 
L 67.578125 0 
L 57.328125 0 
L 50.6875 18.703125 
L 17.828125 18.703125 
L 11.1875 0 
L 0.78125 0 
z
" id="DejaVuSans-65"/>
    </defs>
    <g style="fill:#55a868;" transform="translate(456.581518 132.042123)scale(0.12 -0.12)">
     <use xlink:href="#DejaVuSans-67"/>
     <use x="69.824219" xlink:href="#DejaVuSans-65"/>
    </g>
   </g>
   <g id="text_22">
    <!-- PA -->
    <defs>
     <path d="M 19.671875 64.796875 
L 19.671875 37.40625 
L 32.078125 37.40625 
Q 38.96875 37.40625 42.71875 40.96875 
Q 46.484375 44.53125 46.484375 51.125 
Q 46.484375 57.671875 42.71875 61.234375 
Q 38.96875 64.796875 32.078125 64.796875 
z
M 9.8125 72.90625 
L 32.078125 72.90625 
Q 44.34375 72.90625 50.609375 67.359375 
Q 56.890625 61.8125 56.890625 51.125 
Q 56.890625 40.328125 50.609375 34.8125 
Q 44.34375 29.296875 32.078125 29.296875 
L 19.671875 29.296875 
L 19.671875 0 
L 9.8125 0 
z
" id="DejaVuSans-80"/>
    </defs>
    <g style="fill:#c44e52;" transform="translate(432.667232 98.670723)scale(0.12 -0.12)">
     <use xlink:href="#DejaVuSans-80"/>
     <use x="60.208984" xlink:href="#DejaVuSans-65"/>
    </g>
   </g>
   <g id="text_23">
    <!-- IL -->
    <defs>
     <path d="M 9.8125 72.90625 
L 19.671875 72.90625 
L 19.671875 0 
L 9.8125 0 
z
" id="DejaVuSans-73"/>
     <path d="M 9.8125 72.90625 
L 19.671875 72.90625 
L 19.671875 8.296875 
L 55.171875 8.296875 
L 55.171875 0 
L 9.8125 0 
z
" id="DejaVuSans-76"/>
    </defs>
    <g style="fill:#8172b2;" transform="translate(440.638661 94.788678)scale(0.12 -0.12)">
     <use xlink:href="#DejaVuSans-73"/>
     <use x="29.492188" xlink:href="#DejaVuSans-76"/>
    </g>
   </g>
   <g id="text_24">
    <!-- WI -->
    <defs>
     <path d="M 3.328125 72.90625 
L 13.28125 72.90625 
L 28.609375 11.28125 
L 43.890625 72.90625 
L 54.984375 72.90625 
L 70.3125 11.28125 
L 85.59375 72.90625 
L 95.609375 72.90625 
L 77.296875 0 
L 64.890625 0 
L 49.515625 63.28125 
L 33.984375 0 
L 21.578125 0 
z
" id="DejaVuSans-87"/>
    </defs>
    <g style="fill:#ccb974;" transform="translate(440.638661 133.63526)scale(0.12 -0.12)">
     <use xlink:href="#DejaVuSans-87"/>
     <use x="98.876953" xlink:href="#DejaVuSans-73"/>
    </g>
   </g>
   <g id="text_25">
    <!-- Cumulative COVID-19 Cases -->
    <defs>
     <path d="M 8.5 21.578125 
L 8.5 54.6875 
L 17.484375 54.6875 
L 17.484375 21.921875 
Q 17.484375 14.15625 20.5 10.265625 
Q 23.53125 6.390625 29.59375 6.390625 
Q 36.859375 6.390625 41.078125 11.03125 
Q 45.3125 15.671875 45.3125 23.6875 
L 45.3125 54.6875 
L 54.296875 54.6875 
L 54.296875 0 
L 45.3125 0 
L 45.3125 8.40625 
Q 42.046875 3.421875 37.71875 1 
Q 33.40625 -1.421875 27.6875 -1.421875 
Q 18.265625 -1.421875 13.375 4.4375 
Q 8.5 10.296875 8.5 21.578125 
z
M 31.109375 56 
z
" id="DejaVuSans-117"/>
     <path d="M 18.3125 70.21875 
L 18.3125 54.6875 
L 36.8125 54.6875 
L 36.8125 47.703125 
L 18.3125 47.703125 
L 18.3125 18.015625 
Q 18.3125 11.328125 20.140625 9.421875 
Q 21.96875 7.515625 27.59375 7.515625 
L 36.8125 7.515625 
L 36.8125 0 
L 27.59375 0 
Q 17.1875 0 13.234375 3.875 
Q 9.28125 7.765625 9.28125 18.015625 
L 9.28125 47.703125 
L 2.6875 47.703125 
L 2.6875 54.6875 
L 9.28125 54.6875 
L 9.28125 70.21875 
z
" id="DejaVuSans-116"/>
     <path d="M 2.984375 54.6875 
L 12.5 54.6875 
L 29.59375 8.796875 
L 46.6875 54.6875 
L 56.203125 54.6875 
L 35.6875 0 
L 23.484375 0 
z
" id="DejaVuSans-118"/>
     <path d="M 39.40625 66.21875 
Q 28.65625 66.21875 22.328125 58.203125 
Q 16.015625 50.203125 16.015625 36.375 
Q 16.015625 22.609375 22.328125 14.59375 
Q 28.65625 6.59375 39.40625 6.59375 
Q 50.140625 6.59375 56.421875 14.59375 
Q 62.703125 22.609375 62.703125 36.375 
Q 62.703125 50.203125 56.421875 58.203125 
Q 50.140625 66.21875 39.40625 66.21875 
z
M 39.40625 74.21875 
Q 54.734375 74.21875 63.90625 63.9375 
Q 73.09375 53.65625 73.09375 36.375 
Q 73.09375 19.140625 63.90625 8.859375 
Q 54.734375 -1.421875 39.40625 -1.421875 
Q 24.03125 -1.421875 14.8125 8.828125 
Q 5.609375 19.09375 5.609375 36.375 
Q 5.609375 53.65625 14.8125 63.9375 
Q 24.03125 74.21875 39.40625 74.21875 
z
" id="DejaVuSans-79"/>
     <path d="M 28.609375 0 
L 0.78125 72.90625 
L 11.078125 72.90625 
L 34.1875 11.53125 
L 57.328125 72.90625 
L 67.578125 72.90625 
L 39.796875 0 
z
" id="DejaVuSans-86"/>
     <path d="M 4.890625 31.390625 
L 31.203125 31.390625 
L 31.203125 23.390625 
L 4.890625 23.390625 
z
" id="DejaVuSans-45"/>
     <path d="M 10.984375 1.515625 
L 10.984375 10.5 
Q 14.703125 8.734375 18.5 7.8125 
Q 22.3125 6.890625 25.984375 6.890625 
Q 35.75 6.890625 40.890625 13.453125 
Q 46.046875 20.015625 46.78125 33.40625 
Q 43.953125 29.203125 39.59375 26.953125 
Q 35.25 24.703125 29.984375 24.703125 
Q 19.046875 24.703125 12.671875 31.3125 
Q 6.296875 37.9375 6.296875 49.421875 
Q 6.296875 60.640625 12.9375 67.421875 
Q 19.578125 74.21875 30.609375 74.21875 
Q 43.265625 74.21875 49.921875 64.515625 
Q 56.59375 54.828125 56.59375 36.375 
Q 56.59375 19.140625 48.40625 8.859375 
Q 40.234375 -1.421875 26.421875 -1.421875 
Q 22.703125 -1.421875 18.890625 -0.6875 
Q 15.09375 0.046875 10.984375 1.515625 
z
M 30.609375 32.421875 
Q 37.25 32.421875 41.125 36.953125 
Q 45.015625 41.5 45.015625 49.421875 
Q 45.015625 57.28125 41.125 61.84375 
Q 37.25 66.40625 30.609375 66.40625 
Q 23.96875 66.40625 20.09375 61.84375 
Q 16.21875 57.28125 16.21875 49.421875 
Q 16.21875 41.5 20.09375 36.953125 
Q 23.96875 32.421875 30.609375 32.421875 
z
" id="DejaVuSans-57"/>
    </defs>
    <g style="fill:#262626;" transform="translate(185.691875 19.3575)scale(0.16 -0.16)">
     <use xlink:href="#DejaVuSans-67"/>
     <use x="69.824219" xlink:href="#DejaVuSans-117"/>
     <use x="133.203125" xlink:href="#DejaVuSans-109"/>
     <use x="230.615234" xlink:href="#DejaVuSans-117"/>
     <use x="293.994141" xlink:href="#DejaVuSans-108"/>
     <use x="321.777344" xlink:href="#DejaVuSans-97"/>
     <use x="383.056641" xlink:href="#DejaVuSans-116"/>
     <use x="422.265625" xlink:href="#DejaVuSans-105"/>
     <use x="450.048828" xlink:href="#DejaVuSans-118"/>
     <use x="509.228516" xlink:href="#DejaVuSans-101"/>
     <use x="570.751953" xlink:href="#DejaVuSans-32"/>
     <use x="602.539062" xlink:href="#DejaVuSans-67"/>
     <use x="672.363281" xlink:href="#DejaVuSans-79"/>
     <use x="751.058594" xlink:href="#DejaVuSans-86"/>
     <use x="819.466797" xlink:href="#DejaVuSans-73"/>
     <use x="848.958984" xlink:href="#DejaVuSans-68"/>
     <use x="925.960938" xlink:href="#DejaVuSans-45"/>
     <use x="962.044922" xlink:href="#DejaVuSans-49"/>
     <use x="1025.667969" xlink:href="#DejaVuSans-57"/>
     <use x="1089.291016" xlink:href="#DejaVuSans-32"/>
     <use x="1121.078125" xlink:href="#DejaVuSans-67"/>
     <use x="1190.902344" xlink:href="#DejaVuSans-97"/>
     <use x="1252.181641" xlink:href="#DejaVuSans-115"/>
     <use x="1304.28125" xlink:href="#DejaVuSans-101"/>
     <use x="1365.804688" xlink:href="#DejaVuSans-115"/>
    </g>
   </g>
   <g id="legend_1"/>
   <g id="PathCollection_1">
    <defs>
     <path d="M 0 3 
C 0.795609 3 1.55874 2.683901 2.12132 2.12132 
C 2.683901 1.55874 3 0.795609 3 0 
C 3 -0.795609 2.683901 -1.55874 2.12132 -2.12132 
C 1.55874 -2.683901 0.795609 -3 0 -3 
C -0.795609 -3 -1.55874 -2.683901 -2.12132 -2.12132 
C -2.683901 -1.55874 -3 -0.795609 -3 0 
C -3 0.795609 -2.683901 1.55874 -2.12132 2.12132 
C -1.55874 2.683901 -0.795609 3 0 3 
z
" id="C0_0_0c6b668df8"/>
    </defs>
    <g clip-path="url(#p25fbf40087)">
     <use style="fill:#4c72b0;stroke:#4c72b0;" x="482.467232" xlink:href="#C0_0_0c6b668df8" y="51.195321"/>
    </g>
    <g clip-path="url(#p25fbf40087)">
     <use style="fill:#55a868;stroke:#55a868;" x="450.581518" xlink:href="#C0_0_0c6b668df8" y="128.042123"/>
    </g>
    <g clip-path="url(#p25fbf40087)">
     <use style="fill:#c44e52;stroke:#c44e52;" x="426.667232" xlink:href="#C0_0_0c6b668df8" y="94.670723"/>
    </g>
    <g clip-path="url(#p25fbf40087)">
     <use style="fill:#8172b2;stroke:#8172b2;" x="434.638661" xlink:href="#C0_0_0c6b668df8" y="90.788678"/>
    </g>
    <g clip-path="url(#p25fbf40087)">
     <use style="fill:#ccb974;stroke:#ccb974;" x="434.638661" xlink:href="#C0_0_0c6b668df8" y="129.63526"/>
    </g>
   </g>
  </g>
 </g>
 <defs>
  <clipPath id="p25fbf40087">
   <rect height="262.8" width="446.4" x="75.924375" y="25.3575"/>
  </clipPath>
 </defs>
</svg>
