<?xml version="1.0" encoding="utf-8" standalone="no"?>
<!DOCTYPE svg PUBLIC "-//W3C//DTD SVG 1.1//EN"
  "http://www.w3.org/Graphics/SVG/1.1/DTD/svg11.dtd">
<!-- Created with matplotlib (https://matplotlib.org/) -->
<svg height="342.408625pt" version="1.1" viewBox="0 0 495.566813 342.408625" width="495.566813pt" xmlns="http://www.w3.org/2000/svg" xmlns:xlink="http://www.w3.org/1999/xlink">
 <defs>
  <style type="text/css">
*{stroke-linecap:butt;stroke-linejoin:round;}
  </style>
 </defs>
 <g id="figure_1">
  <g id="patch_1">
   <path d="M 0 342.408625 
L 495.566813 342.408625 
L 495.566813 0 
L 0 0 
z
" style="fill:#ffffff;"/>
  </g>
  <g id="axes_1">
   <g id="patch_2">
    <path d="M 35.47 297.1575 
L 481.87 297.1575 
L 481.87 25.3575 
L 35.47 25.3575 
z
" style="fill:#ffffff;"/>
   </g>
   <g id="matplotlib.axis_1">
    <g id="xtick_1">
     <g id="line2d_1">
      <defs>
       <path d="M 0 0 
L 0 6 
" id="m205227c9ea" style="stroke:#262626;"/>
      </defs>
      <g>
       <use style="fill:#262626;stroke:#262626;" x="35.47" xlink:href="#m205227c9ea" y="297.1575"/>
      </g>
     </g>
    </g>
    <g id="xtick_2">
     <g id="line2d_2">
      <g>
       <use style="fill:#262626;stroke:#262626;" x="89.038" xlink:href="#m205227c9ea" y="297.1575"/>
      </g>
     </g>
     <g id="text_1">
      <!-- Mar -->
      <defs>
       <path d="M 9.8125 72.90625 
L 24.515625 72.90625 
L 43.109375 23.296875 
L 61.8125 72.90625 
L 76.515625 72.90625 
L 76.515625 0 
L 66.890625 0 
L 66.890625 64.015625 
L 48.09375 14.015625 
L 38.1875 14.015625 
L 19.390625 64.015625 
L 19.390625 0 
L 9.8125 0 
z
" id="DejaVuSans-77"/>
       <path d="M 34.28125 27.484375 
Q 23.390625 27.484375 19.1875 25 
Q 14.984375 22.515625 14.984375 16.5 
Q 14.984375 11.71875 18.140625 8.90625 
Q 21.296875 6.109375 26.703125 6.109375 
Q 34.1875 6.109375 38.703125 11.40625 
Q 43.21875 16.703125 43.21875 25.484375 
L 43.21875 27.484375 
z
M 52.203125 31.203125 
L 52.203125 0 
L 43.21875 0 
L 43.21875 8.296875 
Q 40.140625 3.328125 35.546875 0.953125 
Q 30.953125 -1.421875 24.3125 -1.421875 
Q 15.921875 -1.421875 10.953125 3.296875 
Q 6 8.015625 6 15.921875 
Q 6 25.140625 12.171875 29.828125 
Q 18.359375 34.515625 30.609375 34.515625 
L 43.21875 34.515625 
L 43.21875 35.40625 
Q 43.21875 41.609375 39.140625 45 
Q 35.0625 48.390625 27.6875 48.390625 
Q 23 48.390625 18.546875 47.265625 
Q 14.109375 46.140625 10.015625 43.890625 
L 10.015625 52.203125 
Q 14.9375 54.109375 19.578125 55.046875 
Q 24.21875 56 28.609375 56 
Q 40.484375 56 46.34375 49.84375 
Q 52.203125 43.703125 52.203125 31.203125 
z
" id="DejaVuSans-97"/>
       <path d="M 41.109375 46.296875 
Q 39.59375 47.171875 37.8125 47.578125 
Q 36.03125 48 33.890625 48 
Q 26.265625 48 22.1875 43.046875 
Q 18.109375 38.09375 18.109375 28.8125 
L 18.109375 0 
L 9.078125 0 
L 9.078125 54.6875 
L 18.109375 54.6875 
L 18.109375 46.1875 
Q 20.953125 51.171875 25.484375 53.578125 
Q 30.03125 56 36.53125 56 
Q 37.453125 56 38.578125 55.875 
Q 39.703125 55.765625 41.0625 55.515625 
z
" id="DejaVuSans-114"/>
      </defs>
      <g style="fill:#262626;" transform="translate(77.717688 319.275625)scale(0.12 -0.12)">
       <use xlink:href="#DejaVuSans-77"/>
       <use x="86.279297" xlink:href="#DejaVuSans-97"/>
       <use x="147.558594" xlink:href="#DejaVuSans-114"/>
      </g>
      <!-- 2020 -->
      <defs>
       <path d="M 19.1875 8.296875 
L 53.609375 8.296875 
L 53.609375 0 
L 7.328125 0 
L 7.328125 8.296875 
Q 12.9375 14.109375 22.625 23.890625 
Q 32.328125 33.6875 34.8125 36.53125 
Q 39.546875 41.84375 41.421875 45.53125 
Q 43.3125 49.21875 43.3125 52.78125 
Q 43.3125 58.59375 39.234375 62.25 
Q 35.15625 65.921875 28.609375 65.921875 
Q 23.96875 65.921875 18.8125 64.3125 
Q 13.671875 62.703125 7.8125 59.421875 
L 7.8125 69.390625 
Q 13.765625 71.78125 18.9375 73 
Q 24.125 74.21875 28.421875 74.21875 
Q 39.75 74.21875 46.484375 68.546875 
Q 53.21875 62.890625 53.21875 53.421875 
Q 53.21875 48.921875 51.53125 44.890625 
Q 49.859375 40.875 45.40625 35.40625 
Q 44.1875 33.984375 37.640625 27.21875 
Q 31.109375 20.453125 19.1875 8.296875 
z
" id="DejaVuSans-50"/>
       <path d="M 31.78125 66.40625 
Q 24.171875 66.40625 20.328125 58.90625 
Q 16.5 51.421875 16.5 36.375 
Q 16.5 21.390625 20.328125 13.890625 
Q 24.171875 6.390625 31.78125 6.390625 
Q 39.453125 6.390625 43.28125 13.890625 
Q 47.125 21.390625 47.125 36.375 
Q 47.125 51.421875 43.28125 58.90625 
Q 39.453125 66.40625 31.78125 66.40625 
z
M 31.78125 74.21875 
Q 44.046875 74.21875 50.515625 64.515625 
Q 56.984375 54.828125 56.984375 36.375 
Q 56.984375 17.96875 50.515625 8.265625 
Q 44.046875 -1.421875 31.78125 -1.421875 
Q 19.53125 -1.421875 13.0625 8.265625 
Q 6.59375 17.96875 6.59375 36.375 
Q 6.59375 54.828125 13.0625 64.515625 
Q 19.53125 74.21875 31.78125 74.21875 
z
" id="DejaVuSans-48"/>
      </defs>
      <g style="fill:#262626;" transform="translate(73.768 332.713)scale(0.12 -0.12)">
       <use xlink:href="#DejaVuSans-50"/>
       <use x="63.623047" xlink:href="#DejaVuSans-48"/>
       <use x="127.246094" xlink:href="#DejaVuSans-50"/>
       <use x="190.869141" xlink:href="#DejaVuSans-48"/>
      </g>
     </g>
    </g>
    <g id="xtick_3">
     <g id="line2d_3">
      <g>
       <use style="fill:#262626;stroke:#262626;" x="199.7452" xlink:href="#m205227c9ea" y="297.1575"/>
      </g>
     </g>
     <g id="text_2">
      <!-- Apr -->
      <defs>
       <path d="M 34.1875 63.1875 
L 20.796875 26.90625 
L 47.609375 26.90625 
z
M 28.609375 72.90625 
L 39.796875 72.90625 
L 67.578125 0 
L 57.328125 0 
L 50.6875 18.703125 
L 17.828125 18.703125 
L 11.1875 0 
L 0.78125 0 
z
" id="DejaVuSans-65"/>
       <path d="M 18.109375 8.203125 
L 18.109375 -20.796875 
L 9.078125 -20.796875 
L 9.078125 54.6875 
L 18.109375 54.6875 
L 18.109375 46.390625 
Q 20.953125 51.265625 25.265625 53.625 
Q 29.59375 56 35.59375 56 
Q 45.5625 56 51.78125 48.09375 
Q 58.015625 40.1875 58.015625 27.296875 
Q 58.015625 14.40625 51.78125 6.484375 
Q 45.5625 -1.421875 35.59375 -1.421875 
Q 29.59375 -1.421875 25.265625 0.953125 
Q 20.953125 3.328125 18.109375 8.203125 
z
M 48.6875 27.296875 
Q 48.6875 37.203125 44.609375 42.84375 
Q 40.53125 48.484375 33.40625 48.484375 
Q 26.265625 48.484375 22.1875 42.84375 
Q 18.109375 37.203125 18.109375 27.296875 
Q 18.109375 17.390625 22.1875 11.75 
Q 26.265625 6.109375 33.40625 6.109375 
Q 40.53125 6.109375 44.609375 11.75 
Q 48.6875 17.390625 48.6875 27.296875 
z
" id="DejaVuSans-112"/>
      </defs>
      <g style="fill:#262626;" transform="translate(189.3652 319.275625)scale(0.12 -0.12)">
       <use xlink:href="#DejaVuSans-65"/>
       <use x="68.408203" xlink:href="#DejaVuSans-112"/>
       <use x="131.884766" xlink:href="#DejaVuSans-114"/>
      </g>
     </g>
    </g>
    <g id="xtick_4">
     <g id="line2d_4">
      <g>
       <use style="fill:#262626;stroke:#262626;" x="306.8812" xlink:href="#m205227c9ea" y="297.1575"/>
      </g>
     </g>
     <g id="text_3">
      <!-- May -->
      <defs>
       <path d="M 32.171875 -5.078125 
Q 28.375 -14.84375 24.75 -17.8125 
Q 21.140625 -20.796875 15.09375 -20.796875 
L 7.90625 -20.796875 
L 7.90625 -13.28125 
L 13.1875 -13.28125 
Q 16.890625 -13.28125 18.9375 -11.515625 
Q 21 -9.765625 23.484375 -3.21875 
L 25.09375 0.875 
L 2.984375 54.6875 
L 12.5 54.6875 
L 29.59375 11.921875 
L 46.6875 54.6875 
L 56.203125 54.6875 
z
" id="DejaVuSans-121"/>
      </defs>
      <g style="fill:#262626;" transform="translate(294.4762 319.275625)scale(0.12 -0.12)">
       <use xlink:href="#DejaVuSans-77"/>
       <use x="86.279297" xlink:href="#DejaVuSans-97"/>
       <use x="147.558594" xlink:href="#DejaVuSans-121"/>
      </g>
     </g>
    </g>
    <g id="xtick_5">
     <g id="line2d_5">
      <g>
       <use style="fill:#262626;stroke:#262626;" x="417.5884" xlink:href="#m205227c9ea" y="297.1575"/>
      </g>
     </g>
     <g id="text_4">
      <!-- Jun -->
      <defs>
       <path d="M 9.8125 72.90625 
L 19.671875 72.90625 
L 19.671875 5.078125 
Q 19.671875 -8.109375 14.671875 -14.0625 
Q 9.671875 -20.015625 -1.421875 -20.015625 
L -5.171875 -20.015625 
L -5.171875 -11.71875 
L -2.09375 -11.71875 
Q 4.4375 -11.71875 7.125 -8.046875 
Q 9.8125 -4.390625 9.8125 5.078125 
z
" id="DejaVuSans-74"/>
       <path d="M 8.5 21.578125 
L 8.5 54.6875 
L 17.484375 54.6875 
L 17.484375 21.921875 
Q 17.484375 14.15625 20.5 10.265625 
Q 23.53125 6.390625 29.59375 6.390625 
Q 36.859375 6.390625 41.078125 11.03125 
Q 45.3125 15.671875 45.3125 23.6875 
L 45.3125 54.6875 
L 54.296875 54.6875 
L 54.296875 0 
L 45.3125 0 
L 45.3125 8.40625 
Q 42.046875 3.421875 37.71875 1 
Q 33.40625 -1.421875 27.6875 -1.421875 
Q 18.265625 -1.421875 13.375 4.4375 
Q 8.5 10.296875 8.5 21.578125 
z
M 31.109375 56 
z
" id="DejaVuSans-117"/>
       <path d="M 54.890625 33.015625 
L 54.890625 0 
L 45.90625 0 
L 45.90625 32.71875 
Q 45.90625 40.484375 42.875 44.328125 
Q 39.84375 48.1875 33.796875 48.1875 
Q 26.515625 48.1875 22.3125 43.546875 
Q 18.109375 38.921875 18.109375 30.90625 
L 18.109375 0 
L 9.078125 0 
L 9.078125 54.6875 
L 18.109375 54.6875 
L 18.109375 46.1875 
Q 21.34375 51.125 25.703125 53.5625 
Q 30.078125 56 35.796875 56 
Q 45.21875 56 50.046875 50.171875 
Q 54.890625 44.34375 54.890625 33.015625 
z
" id="DejaVuSans-110"/>
      </defs>
      <g style="fill:#262626;" transform="translate(408.2134 319.275625)scale(0.12 -0.12)">
       <use xlink:href="#DejaVuSans-74"/>
       <use x="29.492188" xlink:href="#DejaVuSans-117"/>
       <use x="92.871094" xlink:href="#DejaVuSans-110"/>
      </g>
     </g>
    </g>
    <g id="xtick_6">
     <g id="line2d_6">
      <g>
       <use style="fill:#262626;stroke:#262626;" x="481.87" xlink:href="#m205227c9ea" y="297.1575"/>
      </g>
     </g>
    </g>
    <g id="xtick_7">
     <g id="line2d_7">
      <defs>
       <path d="M 0 0 
L 0 3 
" id="mbaa48c8f1e" style="stroke:#262626;stroke-width:0.5;"/>
      </defs>
      <g>
       <use style="fill:#262626;stroke:#262626;stroke-width:0.5;" x="42.6124" xlink:href="#mbaa48c8f1e" y="297.1575"/>
      </g>
     </g>
    </g>
    <g id="xtick_8">
     <g id="line2d_8">
      <g>
       <use style="fill:#262626;stroke:#262626;stroke-width:0.5;" x="67.6108" xlink:href="#mbaa48c8f1e" y="297.1575"/>
      </g>
     </g>
    </g>
    <g id="xtick_9">
     <g id="line2d_9">
      <g>
       <use style="fill:#262626;stroke:#262626;stroke-width:0.5;" x="92.6092" xlink:href="#mbaa48c8f1e" y="297.1575"/>
      </g>
     </g>
    </g>
    <g id="xtick_10">
     <g id="line2d_10">
      <g>
       <use style="fill:#262626;stroke:#262626;stroke-width:0.5;" x="117.6076" xlink:href="#mbaa48c8f1e" y="297.1575"/>
      </g>
     </g>
    </g>
    <g id="xtick_11">
     <g id="line2d_11">
      <g>
       <use style="fill:#262626;stroke:#262626;stroke-width:0.5;" x="142.606" xlink:href="#mbaa48c8f1e" y="297.1575"/>
      </g>
     </g>
    </g>
    <g id="xtick_12">
     <g id="line2d_12">
      <g>
       <use style="fill:#262626;stroke:#262626;stroke-width:0.5;" x="167.6044" xlink:href="#mbaa48c8f1e" y="297.1575"/>
      </g>
     </g>
    </g>
    <g id="xtick_13">
     <g id="line2d_13">
      <g>
       <use style="fill:#262626;stroke:#262626;stroke-width:0.5;" x="192.6028" xlink:href="#mbaa48c8f1e" y="297.1575"/>
      </g>
     </g>
    </g>
    <g id="xtick_14">
     <g id="line2d_14">
      <g>
       <use style="fill:#262626;stroke:#262626;stroke-width:0.5;" x="217.6012" xlink:href="#mbaa48c8f1e" y="297.1575"/>
      </g>
     </g>
    </g>
    <g id="xtick_15">
     <g id="line2d_15">
      <g>
       <use style="fill:#262626;stroke:#262626;stroke-width:0.5;" x="242.5996" xlink:href="#mbaa48c8f1e" y="297.1575"/>
      </g>
     </g>
    </g>
    <g id="xtick_16">
     <g id="line2d_16">
      <g>
       <use style="fill:#262626;stroke:#262626;stroke-width:0.5;" x="267.598" xlink:href="#mbaa48c8f1e" y="297.1575"/>
      </g>
     </g>
    </g>
    <g id="xtick_17">
     <g id="line2d_17">
      <g>
       <use style="fill:#262626;stroke:#262626;stroke-width:0.5;" x="292.5964" xlink:href="#mbaa48c8f1e" y="297.1575"/>
      </g>
     </g>
    </g>
    <g id="xtick_18">
     <g id="line2d_18">
      <g>
       <use style="fill:#262626;stroke:#262626;stroke-width:0.5;" x="317.5948" xlink:href="#mbaa48c8f1e" y="297.1575"/>
      </g>
     </g>
    </g>
    <g id="xtick_19">
     <g id="line2d_19">
      <g>
       <use style="fill:#262626;stroke:#262626;stroke-width:0.5;" x="342.5932" xlink:href="#mbaa48c8f1e" y="297.1575"/>
      </g>
     </g>
    </g>
    <g id="xtick_20">
     <g id="line2d_20">
      <g>
       <use style="fill:#262626;stroke:#262626;stroke-width:0.5;" x="367.5916" xlink:href="#mbaa48c8f1e" y="297.1575"/>
      </g>
     </g>
    </g>
    <g id="xtick_21">
     <g id="line2d_21">
      <g>
       <use style="fill:#262626;stroke:#262626;stroke-width:0.5;" x="392.59" xlink:href="#mbaa48c8f1e" y="297.1575"/>
      </g>
     </g>
    </g>
    <g id="xtick_22">
     <g id="line2d_22">
      <g>
       <use style="fill:#262626;stroke:#262626;stroke-width:0.5;" x="442.5868" xlink:href="#mbaa48c8f1e" y="297.1575"/>
      </g>
     </g>
    </g>
    <g id="xtick_23">
     <g id="line2d_23">
      <g>
       <use style="fill:#262626;stroke:#262626;stroke-width:0.5;" x="467.5852" xlink:href="#mbaa48c8f1e" y="297.1575"/>
      </g>
     </g>
    </g>
   </g>
   <g id="matplotlib.axis_2">
    <g id="ytick_1">
     <g id="line2d_24">
      <path clip-path="url(#pe4ea8bdf9a)" d="M 35.47 297.1575 
L 481.87 297.1575 
" style="fill:none;stroke:#b0b0b0;stroke-linecap:square;stroke-opacity:0.3;"/>
     </g>
     <g id="line2d_25">
      <defs>
       <path d="M 0 0 
L -6 0 
" id="m61a0e72196" style="stroke:#262626;"/>
      </defs>
      <g>
       <use style="fill:#262626;stroke:#262626;" x="35.47" xlink:href="#m61a0e72196" y="297.1575"/>
      </g>
     </g>
     <g id="text_5">
      <!-- 0 -->
      <g style="fill:#262626;" transform="translate(14.835 301.716562)scale(0.12 -0.12)">
       <use xlink:href="#DejaVuSans-48"/>
      </g>
     </g>
    </g>
    <g id="ytick_2">
     <g id="line2d_26">
      <path clip-path="url(#pe4ea8bdf9a)" d="M 35.47 257.407159 
L 481.87 257.407159 
" style="fill:none;stroke:#b0b0b0;stroke-linecap:square;stroke-opacity:0.3;"/>
     </g>
     <g id="line2d_27">
      <g>
       <use style="fill:#262626;stroke:#262626;" x="35.47" xlink:href="#m61a0e72196" y="257.407159"/>
      </g>
     </g>
     <g id="text_6">
      <!-- 2 -->
      <g style="fill:#262626;" transform="translate(14.835 261.966221)scale(0.12 -0.12)">
       <use xlink:href="#DejaVuSans-50"/>
      </g>
     </g>
    </g>
    <g id="ytick_3">
     <g id="line2d_28">
      <path clip-path="url(#pe4ea8bdf9a)" d="M 35.47 217.656817 
L 481.87 217.656817 
" style="fill:none;stroke:#b0b0b0;stroke-linecap:square;stroke-opacity:0.3;"/>
     </g>
     <g id="line2d_29">
      <g>
       <use style="fill:#262626;stroke:#262626;" x="35.47" xlink:href="#m61a0e72196" y="217.656817"/>
      </g>
     </g>
     <g id="text_7">
      <!-- 4 -->
      <defs>
       <path d="M 37.796875 64.3125 
L 12.890625 25.390625 
L 37.796875 25.390625 
z
M 35.203125 72.90625 
L 47.609375 72.90625 
L 47.609375 25.390625 
L 58.015625 25.390625 
L 58.015625 17.1875 
L 47.609375 17.1875 
L 47.609375 0 
L 37.796875 0 
L 37.796875 17.1875 
L 4.890625 17.1875 
L 4.890625 26.703125 
z
" id="DejaVuSans-52"/>
      </defs>
      <g style="fill:#262626;" transform="translate(14.835 222.21588)scale(0.12 -0.12)">
       <use xlink:href="#DejaVuSans-52"/>
      </g>
     </g>
    </g>
    <g id="ytick_4">
     <g id="line2d_30">
      <path clip-path="url(#pe4ea8bdf9a)" d="M 35.47 177.906476 
L 481.87 177.906476 
" style="fill:none;stroke:#b0b0b0;stroke-linecap:square;stroke-opacity:0.3;"/>
     </g>
     <g id="line2d_31">
      <g>
       <use style="fill:#262626;stroke:#262626;" x="35.47" xlink:href="#m61a0e72196" y="177.906476"/>
      </g>
     </g>
     <g id="text_8">
      <!-- 6 -->
      <defs>
       <path d="M 33.015625 40.375 
Q 26.375 40.375 22.484375 35.828125 
Q 18.609375 31.296875 18.609375 23.390625 
Q 18.609375 15.53125 22.484375 10.953125 
Q 26.375 6.390625 33.015625 6.390625 
Q 39.65625 6.390625 43.53125 10.953125 
Q 47.40625 15.53125 47.40625 23.390625 
Q 47.40625 31.296875 43.53125 35.828125 
Q 39.65625 40.375 33.015625 40.375 
z
M 52.59375 71.296875 
L 52.59375 62.3125 
Q 48.875 64.0625 45.09375 64.984375 
Q 41.3125 65.921875 37.59375 65.921875 
Q 27.828125 65.921875 22.671875 59.328125 
Q 17.53125 52.734375 16.796875 39.40625 
Q 19.671875 43.65625 24.015625 45.921875 
Q 28.375 48.1875 33.59375 48.1875 
Q 44.578125 48.1875 50.953125 41.515625 
Q 57.328125 34.859375 57.328125 23.390625 
Q 57.328125 12.15625 50.6875 5.359375 
Q 44.046875 -1.421875 33.015625 -1.421875 
Q 20.359375 -1.421875 13.671875 8.265625 
Q 6.984375 17.96875 6.984375 36.375 
Q 6.984375 53.65625 15.1875 63.9375 
Q 23.390625 74.21875 37.203125 74.21875 
Q 40.921875 74.21875 44.703125 73.484375 
Q 48.484375 72.75 52.59375 71.296875 
z
" id="DejaVuSans-54"/>
      </defs>
      <g style="fill:#262626;" transform="translate(14.835 182.465538)scale(0.12 -0.12)">
       <use xlink:href="#DejaVuSans-54"/>
      </g>
     </g>
    </g>
    <g id="ytick_5">
     <g id="line2d_32">
      <path clip-path="url(#pe4ea8bdf9a)" d="M 35.47 138.156134 
L 481.87 138.156134 
" style="fill:none;stroke:#b0b0b0;stroke-linecap:square;stroke-opacity:0.3;"/>
     </g>
     <g id="line2d_33">
      <g>
       <use style="fill:#262626;stroke:#262626;" x="35.47" xlink:href="#m61a0e72196" y="138.156134"/>
      </g>
     </g>
     <g id="text_9">
      <!-- 8 -->
      <defs>
       <path d="M 31.78125 34.625 
Q 24.75 34.625 20.71875 30.859375 
Q 16.703125 27.09375 16.703125 20.515625 
Q 16.703125 13.921875 20.71875 10.15625 
Q 24.75 6.390625 31.78125 6.390625 
Q 38.8125 6.390625 42.859375 10.171875 
Q 46.921875 13.96875 46.921875 20.515625 
Q 46.921875 27.09375 42.890625 30.859375 
Q 38.875 34.625 31.78125 34.625 
z
M 21.921875 38.8125 
Q 15.578125 40.375 12.03125 44.71875 
Q 8.5 49.078125 8.5 55.328125 
Q 8.5 64.0625 14.71875 69.140625 
Q 20.953125 74.21875 31.78125 74.21875 
Q 42.671875 74.21875 48.875 69.140625 
Q 55.078125 64.0625 55.078125 55.328125 
Q 55.078125 49.078125 51.53125 44.71875 
Q 48 40.375 41.703125 38.8125 
Q 48.828125 37.15625 52.796875 32.3125 
Q 56.78125 27.484375 56.78125 20.515625 
Q 56.78125 9.90625 50.3125 4.234375 
Q 43.84375 -1.421875 31.78125 -1.421875 
Q 19.734375 -1.421875 13.25 4.234375 
Q 6.78125 9.90625 6.78125 20.515625 
Q 6.78125 27.484375 10.78125 32.3125 
Q 14.796875 37.15625 21.921875 38.8125 
z
M 18.3125 54.390625 
Q 18.3125 48.734375 21.84375 45.5625 
Q 25.390625 42.390625 31.78125 42.390625 
Q 38.140625 42.390625 41.71875 45.5625 
Q 45.3125 48.734375 45.3125 54.390625 
Q 45.3125 60.0625 41.71875 63.234375 
Q 38.140625 66.40625 31.78125 66.40625 
Q 25.390625 66.40625 21.84375 63.234375 
Q 18.3125 60.0625 18.3125 54.390625 
z
" id="DejaVuSans-56"/>
      </defs>
      <g style="fill:#262626;" transform="translate(14.835 142.715197)scale(0.12 -0.12)">
       <use xlink:href="#DejaVuSans-56"/>
      </g>
     </g>
    </g>
    <g id="ytick_6">
     <g id="line2d_34">
      <path clip-path="url(#pe4ea8bdf9a)" d="M 35.47 98.405793 
L 481.87 98.405793 
" style="fill:none;stroke:#b0b0b0;stroke-linecap:square;stroke-opacity:0.3;"/>
     </g>
     <g id="line2d_35">
      <g>
       <use style="fill:#262626;stroke:#262626;" x="35.47" xlink:href="#m61a0e72196" y="98.405793"/>
      </g>
     </g>
     <g id="text_10">
      <!-- 10 -->
      <defs>
       <path d="M 12.40625 8.296875 
L 28.515625 8.296875 
L 28.515625 63.921875 
L 10.984375 60.40625 
L 10.984375 69.390625 
L 28.421875 72.90625 
L 38.28125 72.90625 
L 38.28125 8.296875 
L 54.390625 8.296875 
L 54.390625 0 
L 12.40625 0 
z
" id="DejaVuSans-49"/>
      </defs>
      <g style="fill:#262626;" transform="translate(7.2 102.964855)scale(0.12 -0.12)">
       <use xlink:href="#DejaVuSans-49"/>
       <use x="63.623047" xlink:href="#DejaVuSans-48"/>
      </g>
     </g>
    </g>
    <g id="ytick_7">
     <g id="line2d_36">
      <path clip-path="url(#pe4ea8bdf9a)" d="M 35.47 58.655451 
L 481.87 58.655451 
" style="fill:none;stroke:#b0b0b0;stroke-linecap:square;stroke-opacity:0.3;"/>
     </g>
     <g id="line2d_37">
      <g>
       <use style="fill:#262626;stroke:#262626;" x="35.47" xlink:href="#m61a0e72196" y="58.655451"/>
      </g>
     </g>
     <g id="text_11">
      <!-- 12 -->
      <g style="fill:#262626;" transform="translate(7.2 63.214514)scale(0.12 -0.12)">
       <use xlink:href="#DejaVuSans-49"/>
       <use x="63.623047" xlink:href="#DejaVuSans-50"/>
      </g>
     </g>
    </g>
   </g>
   <g id="line2d_38">
    <path clip-path="url(#pe4ea8bdf9a)" d="M -1 297.1575 
L 114.0364 297.085549 
L 124.75 296.941646 
L 135.4636 296.869695 
L 139.0348 296.797744 
L 142.606 296.509939 
L 153.3196 296.078231 
L 160.462 295.502622 
L 164.0332 295.070914 
L 167.6044 295.142865 
L 171.1756 294.423353 
L 178.318 292.624572 
L 185.4604 290.466035 
L 189.0316 290.322132 
L 192.6028 289.458718 
L 196.174 287.731888 
L 199.7452 286.724571 
L 203.3164 285.285546 
L 206.8876 284.206277 
L 210.4588 282.62335 
L 214.03 281.400179 
L 217.6012 279.889203 
L 221.1724 278.162373 
L 224.7436 276.003836 
L 228.3148 275.500177 
L 231.886 274.708714 
L 235.4572 274.924568 
L 239.0284 273.629445 
L 242.5996 272.76603 
L 246.1708 273.34164 
L 249.742 269.887981 
L 253.3132 266.722126 
L 256.8844 264.347736 
L 260.4556 260.174564 
L 264.0268 261.181881 
L 267.598 261.325784 
L 271.1692 258.447734 
L 274.7404 258.303832 
L 278.3116 255.641636 
L 281.8828 256.217246 
L 285.454 257.872124 
L 289.0252 258.303832 
L 292.5964 255.641636 
L 296.1676 256.289197 
L 299.7388 258.591637 
L 303.31 260.53432 
L 306.8812 259.167246 
L 310.4524 259.670905 
L 314.0236 259.814808 
L 317.5948 261.397735 
L 321.166 261.037979 
L 324.7372 259.95871 
L 328.3084 260.894076 
L 331.8796 260.966027 
L 339.022 258.735539 
L 342.5932 259.527003 
L 346.1644 260.030661 
L 349.7356 258.591637 
L 353.3068 262.764808 
L 356.878 258.159929 
L 360.4492 259.598954 
L 364.0204 259.670905 
L 367.5916 261.037979 
L 371.1628 259.742856 
L 374.734 261.181881 
L 378.3052 255.066026 
L 381.8764 261.325784 
L 385.4476 260.174564 
L 392.59 262.189198 
L 396.1612 265.714809 
L 399.7324 264.995297 
L 403.3036 267.081883 
L 406.8748 264.491638 
L 410.446 265.067248 
L 414.0172 264.635541 
L 417.5884 262.692857 
L 421.1596 261.10993 
L 424.7308 263.987979 
L 428.302 265.355053 
L 431.8732 267.945297 
L 435.4444 267.51359 
L 439.0156 267.585541 
L 442.5868 268.952615 
L 446.158 267.297736 
L 449.7292 264.995297 
L 453.3004 264.275784 
L 456.8716 265.78676 
L 460.4428 266.002614 
L 464.014 265.78676 
L 464.014 265.78676 
" style="fill:none;stroke:#4c72b0;stroke-linecap:square;stroke-width:2;"/>
   </g>
   <g id="line2d_39">
    <path clip-path="url(#pe4ea8bdf9a)" d="M -1 297.1575 
L 146.1772 297.1575 
L 149.7484 296.935695 
L 156.8908 296.935695 
L 164.0332 296.492085 
L 167.6044 295.826669 
L 171.1756 295.604864 
L 174.7468 294.939449 
L 178.318 293.830423 
L 181.8892 292.277787 
L 185.4604 289.837931 
L 189.0316 288.95071 
L 192.6028 287.841685 
L 196.174 282.740167 
L 199.7452 283.183777 
L 203.3164 280.743921 
L 206.8876 279.634895 
L 210.4588 274.089767 
L 214.03 270.76269 
L 217.6012 270.31908 
L 221.1724 259.894239 
L 224.7436 244.146075 
L 228.3148 240.818998 
L 231.886 223.296393 
L 235.4572 213.758773 
L 239.0284 215.976824 
L 242.5996 209.766281 
L 246.1708 184.924107 
L 249.742 181.818835 
L 253.3132 181.818835 
L 256.8844 165.848866 
L 260.4556 156.311246 
L 264.0268 128.585605 
L 267.598 119.047985 
L 271.1692 103.299821 
L 274.7404 100.416354 
L 278.3116 106.626898 
L 281.8828 128.80741 
L 285.454 143.668354 
L 289.0252 167.179697 
L 292.5964 168.510528 
L 296.1676 192.465481 
L 299.7388 148.104456 
L 303.31 107.070508 
L 306.8812 100.859965 
L 310.4524 85.999021 
L 314.0236 81.562919 
L 317.5948 89.991513 
L 321.166 50.066591 
L 324.7372 82.450139 
L 328.3084 71.138078 
L 331.8796 63.596704 
L 335.4508 75.57418 
L 339.022 80.675698 
L 342.5932 82.893749 
L 346.1644 137.90142 
L 349.7356 132.134487 
L 353.3068 142.115718 
L 356.878 140.119472 
L 360.4492 142.559328 
L 364.0204 145.220989 
L 367.5916 138.788641 
L 371.1628 130.581851 
L 374.734 144.111964 
L 378.3052 166.514281 
L 381.8764 164.074425 
L 385.4476 157.198466 
L 389.0188 154.980415 
L 392.59 164.29623 
L 396.1612 186.254938 
L 399.7324 187.142158 
L 403.3036 184.036886 
L 406.8748 200.672271 
L 410.446 204.886568 
L 414.0172 206.217399 
L 417.5884 205.108373 
L 421.1596 187.363963 
L 424.7308 196.901584 
L 428.302 194.018117 
L 431.8732 189.582014 
L 435.4444 197.566999 
L 439.0156 199.119635 
L 442.5868 201.115881 
L 446.158 208.43545 
L 449.7292 208.213645 
L 453.3004 225.070834 
L 456.8716 235.71748 
L 460.4428 235.495675 
L 464.014 235.495675 
L 464.014 235.495675 
" style="fill:none;stroke:#55a868;stroke-linecap:square;stroke-width:2;"/>
   </g>
   <g id="line2d_40">
    <path clip-path="url(#pe4ea8bdf9a)" d="M -1 297.1575 
L 142.606 297.1575 
L 146.1772 296.934338 
L 149.7484 296.934338 
L 153.3196 296.264851 
L 160.462 295.818526 
L 171.1756 293.810065 
L 174.7468 292.694254 
L 178.318 292.247929 
L 181.8892 290.016306 
L 185.4604 287.338358 
L 189.0316 283.544598 
L 192.6028 281.089813 
L 196.174 276.849728 
L 199.7452 269.262209 
L 203.3164 266.137937 
L 206.8876 258.327255 
L 210.4588 252.97136 
L 214.03 249.847087 
L 217.6012 246.945977 
L 221.1724 235.341536 
L 224.7436 226.191881 
L 228.3148 214.810602 
L 231.886 208.785219 
L 235.4572 200.305051 
L 239.0284 197.850265 
L 242.5996 187.584799 
L 246.1708 186.915312 
L 249.742 186.915312 
L 253.3132 175.087708 
L 256.8844 177.765656 
L 260.4556 165.491728 
L 264.0268 168.839163 
L 267.598 172.40976 
L 271.1692 163.036943 
L 274.7404 159.020021 
L 278.3116 159.91267 
L 281.8828 149.424041 
L 285.454 160.582157 
L 289.0252 154.11045 
L 292.5964 155.895748 
L 296.1676 151.432502 
L 299.7388 153.440963 
L 303.31 148.754554 
L 306.8812 149.870366 
L 310.4524 142.729171 
L 314.0236 143.398658 
L 317.5948 145.183957 
L 321.166 138.489087 
L 324.7372 128.446782 
L 328.3084 123.537211 
L 331.8796 119.073965 
L 335.4508 121.751913 
L 339.022 119.966614 
L 342.5932 117.065504 
L 346.1644 124.429861 
L 349.7356 110.147472 
L 353.3068 117.288666 
L 356.878 115.72653 
L 360.4492 121.52875 
L 364.0204 124.876185 
L 371.1628 122.644562 
L 374.734 133.802678 
L 378.3052 143.398658 
L 381.8764 148.754554 
L 385.4476 148.085067 
L 389.0188 144.068145 
L 392.59 150.986177 
L 396.1612 171.963436 
L 399.7324 169.731813 
L 403.3036 165.268566 
L 406.8748 170.4013 
L 410.446 174.195059 
L 414.0172 176.20352 
L 417.5884 175.310871 
L 421.1596 161.697969 
L 424.7308 175.087708 
L 428.302 175.087708 
L 431.8732 179.774117 
L 435.4444 178.881468 
L 439.0156 182.675227 
L 442.5868 144.51447 
L 446.158 147.638742 
L 449.7292 155.003099 
L 453.3004 159.689508 
L 456.8716 155.449424 
L 460.4428 164.822241 
L 464.014 169.285488 
L 464.014 169.285488 
" style="fill:none;stroke:#c44e52;stroke-linecap:square;stroke-width:2;"/>
   </g>
   <g id="line2d_41">
    <path clip-path="url(#pe4ea8bdf9a)" d="M -1 297.1575 
L 149.7484 297.1575 
L 153.3196 296.179676 
L 160.462 295.201852 
L 164.0332 295.201852 
L 167.6044 294.71294 
L 171.1756 294.71294 
L 174.7468 293.735116 
L 178.318 293.246205 
L 181.8892 290.801645 
L 189.0316 290.801645 
L 192.6028 289.823821 
L 196.174 287.379261 
L 199.7452 284.44579 
L 203.3164 283.956878 
L 206.8876 281.023406 
L 210.4588 276.134287 
L 214.03 269.778432 
L 217.6012 266.356048 
L 221.1724 263.422577 
L 228.3148 258.533457 
L 231.886 257.066721 
L 235.4572 257.555633 
L 239.0284 261.955841 
L 242.5996 261.955841 
L 246.1708 259.022369 
L 249.742 259.511281 
L 253.3132 257.555633 
L 256.8844 260.978017 
L 260.4556 262.444753 
L 264.0268 259.511281 
L 267.598 260.000193 
L 271.1692 262.444753 
L 274.7404 266.356048 
L 285.454 270.756256 
L 292.5964 272.711903 
L 296.1676 269.28952 
L 299.7388 267.333872 
L 303.31 268.311696 
L 306.8812 265.378224 
L 310.4524 263.911488 
L 314.0236 265.378224 
L 321.166 271.245167 
L 324.7372 270.756256 
L 328.3084 268.800608 
L 331.8796 269.28952 
L 335.4508 265.867136 
L 339.022 267.333872 
L 342.5932 263.422577 
L 346.1644 265.378224 
L 349.7356 268.311696 
L 356.878 267.333872 
L 360.4492 270.267344 
L 364.0204 271.245167 
L 367.5916 272.711903 
L 371.1628 273.200815 
L 374.734 267.822784 
L 378.3052 271.245167 
L 381.8764 272.222991 
L 389.0188 269.28952 
L 392.59 270.267344 
L 396.1612 272.711903 
L 399.7324 268.800608 
L 403.3036 266.356048 
L 406.8748 261.466929 
L 410.446 257.555633 
L 414.0172 256.088897 
L 417.5884 256.577809 
L 421.1596 251.68869 
L 424.7308 258.533457 
L 428.302 259.511281 
L 431.8732 265.378224 
L 435.4444 268.800608 
L 439.0156 270.756256 
L 446.158 271.734079 
L 453.3004 268.800608 
L 456.8716 268.800608 
L 460.4428 273.689727 
L 464.014 273.689727 
L 464.014 273.689727 
" style="fill:none;stroke:#8172b2;stroke-linecap:square;stroke-width:2;"/>
   </g>
   <g id="line2d_42">
    <path clip-path="url(#pe4ea8bdf9a)" d="M -1 297.1575 
L 153.3196 297.1575 
L 156.8908 296.760839 
L 160.462 296.760839 
L 164.0332 296.364178 
L 167.6044 296.364178 
L 171.1756 294.777533 
L 174.7468 294.777533 
L 178.318 293.984211 
L 181.8892 291.604244 
L 185.4604 291.604244 
L 192.6028 290.017599 
L 196.174 290.017599 
L 199.7452 288.034293 
L 203.3164 286.447649 
L 206.8876 286.84431 
L 210.4588 282.084376 
L 214.03 278.911087 
L 217.6012 278.514425 
L 221.1724 276.134459 
L 224.7436 276.927781 
L 228.3148 275.737797 
L 231.886 274.944475 
L 235.4572 273.754492 
L 239.0284 276.134459 
L 242.5996 275.341136 
L 246.1708 275.737797 
L 249.742 272.564508 
L 253.3132 272.167847 
L 256.8844 266.614591 
L 260.4556 269.78788 
L 264.0268 268.994558 
L 267.598 269.78788 
L 271.1692 264.631285 
L 274.7404 259.871351 
L 278.3116 255.508078 
L 281.8828 259.871351 
L 285.454 259.871351 
L 289.0252 261.854657 
L 292.5964 263.04464 
L 296.1676 263.837963 
L 299.7388 268.597896 
L 303.31 272.167847 
L 306.8812 272.564508 
L 310.4524 266.21793 
L 314.0236 263.441301 
L 317.5948 263.441301 
L 321.166 258.284706 
L 324.7372 250.351483 
L 328.3084 245.591549 
L 331.8796 222.981863 
L 335.4508 226.155152 
L 339.022 228.138458 
L 342.5932 225.758491 
L 346.1644 230.915086 
L 349.7356 230.518425 
L 353.3068 228.138458 
L 356.878 244.004905 
L 360.4492 238.848309 
L 364.0204 240.038293 
L 367.5916 240.038293 
L 371.1628 240.831615 
L 374.734 236.468343 
L 378.3052 242.021599 
L 381.8764 247.971516 
L 385.4476 249.558161 
L 392.59 249.558161 
L 396.1612 256.301401 
L 399.7324 263.837963 
L 403.3036 259.871351 
L 406.8748 253.524772 
L 410.446 255.904739 
L 414.0172 255.111417 
L 417.5884 252.73145 
L 421.1596 243.211582 
L 424.7308 236.865004 
L 428.302 240.434954 
L 431.8732 245.194888 
L 435.4444 240.434954 
L 439.0156 240.831615 
L 442.5868 244.004905 
L 446.158 245.194888 
L 449.7292 250.748144 
L 453.3004 245.591549 
L 456.8716 241.228276 
L 460.4428 240.038293 
L 464.014 239.244971 
L 464.014 239.244971 
" style="fill:none;stroke:#ccb974;stroke-linecap:square;stroke-width:2;"/>
   </g>
   <g id="patch_3">
    <path d="M 35.47 297.1575 
L 35.47 25.3575 
" style="fill:none;stroke:#000000;stroke-linecap:square;stroke-linejoin:miter;stroke-width:0.8;"/>
   </g>
   <g id="patch_4">
    <path d="M 35.47 297.1575 
L 481.87 297.1575 
" style="fill:none;stroke:#000000;stroke-linecap:square;stroke-linejoin:miter;stroke-width:0.8;"/>
   </g>
   <g id="text_12">
    <!-- CA -->
    <defs>
     <path d="M 64.40625 67.28125 
L 64.40625 56.890625 
Q 59.421875 61.53125 53.78125 63.8125 
Q 48.140625 66.109375 41.796875 66.109375 
Q 29.296875 66.109375 22.65625 58.46875 
Q 16.015625 50.828125 16.015625 36.375 
Q 16.015625 21.96875 22.65625 14.328125 
Q 29.296875 6.6875 41.796875 6.6875 
Q 48.140625 6.6875 53.78125 8.984375 
Q 59.421875 11.28125 64.40625 15.921875 
L 64.40625 5.609375 
Q 59.234375 2.09375 53.4375 0.328125 
Q 47.65625 -1.421875 41.21875 -1.421875 
Q 24.65625 -1.421875 15.125 8.703125 
Q 5.609375 18.84375 5.609375 36.375 
Q 5.609375 53.953125 15.125 64.078125 
Q 24.65625 74.21875 41.21875 74.21875 
Q 47.75 74.21875 53.53125 72.484375 
Q 59.328125 70.75 64.40625 67.28125 
z
" id="DejaVuSans-67"/>
    </defs>
    <g style="fill:#4c72b0;" transform="translate(469.014 269.78676)scale(0.14 -0.14)">
     <use xlink:href="#DejaVuSans-67"/>
     <use x="69.824219" xlink:href="#DejaVuSans-65"/>
    </g>
   </g>
   <g id="text_13">
    <!-- PA -->
    <defs>
     <path d="M 19.671875 64.796875 
L 19.671875 37.40625 
L 32.078125 37.40625 
Q 38.96875 37.40625 42.71875 40.96875 
Q 46.484375 44.53125 46.484375 51.125 
Q 46.484375 57.671875 42.71875 61.234375 
Q 38.96875 64.796875 32.078125 64.796875 
z
M 9.8125 72.90625 
L 32.078125 72.90625 
Q 44.34375 72.90625 50.609375 67.359375 
Q 56.890625 61.8125 56.890625 51.125 
Q 56.890625 40.328125 50.609375 34.8125 
Q 44.34375 29.296875 32.078125 29.296875 
L 19.671875 29.296875 
L 19.671875 0 
L 9.8125 0 
z
" id="DejaVuSans-80"/>
    </defs>
    <g style="fill:#55a868;" transform="translate(469.014 239.495675)scale(0.14 -0.14)">
     <use xlink:href="#DejaVuSans-80"/>
     <use x="60.208984" xlink:href="#DejaVuSans-65"/>
    </g>
   </g>
   <g id="text_14">
    <!-- IL -->
    <defs>
     <path d="M 9.8125 72.90625 
L 19.671875 72.90625 
L 19.671875 0 
L 9.8125 0 
z
" id="DejaVuSans-73"/>
     <path d="M 9.8125 72.90625 
L 19.671875 72.90625 
L 19.671875 8.296875 
L 55.171875 8.296875 
L 55.171875 0 
L 9.8125 0 
z
" id="DejaVuSans-76"/>
    </defs>
    <g style="fill:#c44e52;" transform="translate(469.014 173.285488)scale(0.14 -0.14)">
     <use xlink:href="#DejaVuSans-73"/>
     <use x="29.492188" xlink:href="#DejaVuSans-76"/>
    </g>
   </g>
   <g id="text_15">
    <!-- WI -->
    <defs>
     <path d="M 3.328125 72.90625 
L 13.28125 72.90625 
L 28.609375 11.28125 
L 43.890625 72.90625 
L 54.984375 72.90625 
L 70.3125 11.28125 
L 85.59375 72.90625 
L 95.609375 72.90625 
L 77.296875 0 
L 64.890625 0 
L 49.515625 63.28125 
L 33.984375 0 
L 21.578125 0 
z
" id="DejaVuSans-87"/>
    </defs>
    <g style="fill:#8172b2;" transform="translate(469.014 277.689727)scale(0.14 -0.14)">
     <use xlink:href="#DejaVuSans-87"/>
     <use x="98.876953" xlink:href="#DejaVuSans-73"/>
    </g>
   </g>
   <g id="text_16">
    <!-- AZ -->
    <defs>
     <path d="M 5.609375 72.90625 
L 62.890625 72.90625 
L 62.890625 65.375 
L 16.796875 8.296875 
L 64.015625 8.296875 
L 64.015625 0 
L 4.5 0 
L 4.5 7.515625 
L 50.59375 64.59375 
L 5.609375 64.59375 
z
" id="DejaVuSans-90"/>
    </defs>
    <g style="fill:#ccb974;" transform="translate(469.014 243.244971)scale(0.14 -0.14)">
     <use xlink:href="#DejaVuSans-65"/>
     <use x="68.408203" xlink:href="#DejaVuSans-90"/>
    </g>
   </g>
   <g id="text_17">
    <!-- Deaths per million people -->
    <defs>
     <path d="M 19.671875 64.796875 
L 19.671875 8.109375 
L 31.59375 8.109375 
Q 46.6875 8.109375 53.6875 14.9375 
Q 60.6875 21.78125 60.6875 36.53125 
Q 60.6875 51.171875 53.6875 57.984375 
Q 46.6875 64.796875 31.59375 64.796875 
z
M 9.8125 72.90625 
L 30.078125 72.90625 
Q 51.265625 72.90625 61.171875 64.09375 
Q 71.09375 55.28125 71.09375 36.53125 
Q 71.09375 17.671875 61.125 8.828125 
Q 51.171875 0 30.078125 0 
L 9.8125 0 
z
" id="DejaVuSans-68"/>
     <path d="M 56.203125 29.59375 
L 56.203125 25.203125 
L 14.890625 25.203125 
Q 15.484375 15.921875 20.484375 11.0625 
Q 25.484375 6.203125 34.421875 6.203125 
Q 39.59375 6.203125 44.453125 7.46875 
Q 49.3125 8.734375 54.109375 11.28125 
L 54.109375 2.78125 
Q 49.265625 0.734375 44.1875 -0.34375 
Q 39.109375 -1.421875 33.890625 -1.421875 
Q 20.796875 -1.421875 13.15625 6.1875 
Q 5.515625 13.8125 5.515625 26.8125 
Q 5.515625 40.234375 12.765625 48.109375 
Q 20.015625 56 32.328125 56 
Q 43.359375 56 49.78125 48.890625 
Q 56.203125 41.796875 56.203125 29.59375 
z
M 47.21875 32.234375 
Q 47.125 39.59375 43.09375 43.984375 
Q 39.0625 48.390625 32.421875 48.390625 
Q 24.90625 48.390625 20.390625 44.140625 
Q 15.875 39.890625 15.1875 32.171875 
z
" id="DejaVuSans-101"/>
     <path d="M 18.3125 70.21875 
L 18.3125 54.6875 
L 36.8125 54.6875 
L 36.8125 47.703125 
L 18.3125 47.703125 
L 18.3125 18.015625 
Q 18.3125 11.328125 20.140625 9.421875 
Q 21.96875 7.515625 27.59375 7.515625 
L 36.8125 7.515625 
L 36.8125 0 
L 27.59375 0 
Q 17.1875 0 13.234375 3.875 
Q 9.28125 7.765625 9.28125 18.015625 
L 9.28125 47.703125 
L 2.6875 47.703125 
L 2.6875 54.6875 
L 9.28125 54.6875 
L 9.28125 70.21875 
z
" id="DejaVuSans-116"/>
     <path d="M 54.890625 33.015625 
L 54.890625 0 
L 45.90625 0 
L 45.90625 32.71875 
Q 45.90625 40.484375 42.875 44.328125 
Q 39.84375 48.1875 33.796875 48.1875 
Q 26.515625 48.1875 22.3125 43.546875 
Q 18.109375 38.921875 18.109375 30.90625 
L 18.109375 0 
L 9.078125 0 
L 9.078125 75.984375 
L 18.109375 75.984375 
L 18.109375 46.1875 
Q 21.34375 51.125 25.703125 53.5625 
Q 30.078125 56 35.796875 56 
Q 45.21875 56 50.046875 50.171875 
Q 54.890625 44.34375 54.890625 33.015625 
z
" id="DejaVuSans-104"/>
     <path d="M 44.28125 53.078125 
L 44.28125 44.578125 
Q 40.484375 46.53125 36.375 47.5 
Q 32.28125 48.484375 27.875 48.484375 
Q 21.1875 48.484375 17.84375 46.4375 
Q 14.5 44.390625 14.5 40.28125 
Q 14.5 37.15625 16.890625 35.375 
Q 19.28125 33.59375 26.515625 31.984375 
L 29.59375 31.296875 
Q 39.15625 29.25 43.1875 25.515625 
Q 47.21875 21.78125 47.21875 15.09375 
Q 47.21875 7.46875 41.1875 3.015625 
Q 35.15625 -1.421875 24.609375 -1.421875 
Q 20.21875 -1.421875 15.453125 -0.5625 
Q 10.6875 0.296875 5.421875 2 
L 5.421875 11.28125 
Q 10.40625 8.6875 15.234375 7.390625 
Q 20.0625 6.109375 24.8125 6.109375 
Q 31.15625 6.109375 34.5625 8.28125 
Q 37.984375 10.453125 37.984375 14.40625 
Q 37.984375 18.0625 35.515625 20.015625 
Q 33.0625 21.96875 24.703125 23.78125 
L 21.578125 24.515625 
Q 13.234375 26.265625 9.515625 29.90625 
Q 5.8125 33.546875 5.8125 39.890625 
Q 5.8125 47.609375 11.28125 51.796875 
Q 16.75 56 26.8125 56 
Q 31.78125 56 36.171875 55.265625 
Q 40.578125 54.546875 44.28125 53.078125 
z
" id="DejaVuSans-115"/>
     <path id="DejaVuSans-32"/>
     <path d="M 52 44.1875 
Q 55.375 50.25 60.0625 53.125 
Q 64.75 56 71.09375 56 
Q 79.640625 56 84.28125 50.015625 
Q 88.921875 44.046875 88.921875 33.015625 
L 88.921875 0 
L 79.890625 0 
L 79.890625 32.71875 
Q 79.890625 40.578125 77.09375 44.375 
Q 74.3125 48.1875 68.609375 48.1875 
Q 61.625 48.1875 57.5625 43.546875 
Q 53.515625 38.921875 53.515625 30.90625 
L 53.515625 0 
L 44.484375 0 
L 44.484375 32.71875 
Q 44.484375 40.625 41.703125 44.40625 
Q 38.921875 48.1875 33.109375 48.1875 
Q 26.21875 48.1875 22.15625 43.53125 
Q 18.109375 38.875 18.109375 30.90625 
L 18.109375 0 
L 9.078125 0 
L 9.078125 54.6875 
L 18.109375 54.6875 
L 18.109375 46.1875 
Q 21.1875 51.21875 25.484375 53.609375 
Q 29.78125 56 35.6875 56 
Q 41.65625 56 45.828125 52.96875 
Q 50 49.953125 52 44.1875 
z
" id="DejaVuSans-109"/>
     <path d="M 9.421875 54.6875 
L 18.40625 54.6875 
L 18.40625 0 
L 9.421875 0 
z
M 9.421875 75.984375 
L 18.40625 75.984375 
L 18.40625 64.59375 
L 9.421875 64.59375 
z
" id="DejaVuSans-105"/>
     <path d="M 9.421875 75.984375 
L 18.40625 75.984375 
L 18.40625 0 
L 9.421875 0 
z
" id="DejaVuSans-108"/>
     <path d="M 30.609375 48.390625 
Q 23.390625 48.390625 19.1875 42.75 
Q 14.984375 37.109375 14.984375 27.296875 
Q 14.984375 17.484375 19.15625 11.84375 
Q 23.34375 6.203125 30.609375 6.203125 
Q 37.796875 6.203125 41.984375 11.859375 
Q 46.1875 17.53125 46.1875 27.296875 
Q 46.1875 37.015625 41.984375 42.703125 
Q 37.796875 48.390625 30.609375 48.390625 
z
M 30.609375 56 
Q 42.328125 56 49.015625 48.375 
Q 55.71875 40.765625 55.71875 27.296875 
Q 55.71875 13.875 49.015625 6.21875 
Q 42.328125 -1.421875 30.609375 -1.421875 
Q 18.84375 -1.421875 12.171875 6.21875 
Q 5.515625 13.875 5.515625 27.296875 
Q 5.515625 40.765625 12.171875 48.375 
Q 18.84375 56 30.609375 56 
z
" id="DejaVuSans-111"/>
    </defs>
    <g style="fill:#262626;" transform="translate(155.62625 19.3575)scale(0.16 -0.16)">
     <use xlink:href="#DejaVuSans-68"/>
     <use x="77.001953" xlink:href="#DejaVuSans-101"/>
     <use x="138.525391" xlink:href="#DejaVuSans-97"/>
     <use x="199.804688" xlink:href="#DejaVuSans-116"/>
     <use x="239.013672" xlink:href="#DejaVuSans-104"/>
     <use x="302.392578" xlink:href="#DejaVuSans-115"/>
     <use x="354.492188" xlink:href="#DejaVuSans-32"/>
     <use x="386.279297" xlink:href="#DejaVuSans-112"/>
     <use x="449.755859" xlink:href="#DejaVuSans-101"/>
     <use x="511.279297" xlink:href="#DejaVuSans-114"/>
     <use x="552.392578" xlink:href="#DejaVuSans-32"/>
     <use x="584.179688" xlink:href="#DejaVuSans-109"/>
     <use x="681.591797" xlink:href="#DejaVuSans-105"/>
     <use x="709.375" xlink:href="#DejaVuSans-108"/>
     <use x="737.158203" xlink:href="#DejaVuSans-108"/>
     <use x="764.941406" xlink:href="#DejaVuSans-105"/>
     <use x="792.724609" xlink:href="#DejaVuSans-111"/>
     <use x="853.90625" xlink:href="#DejaVuSans-110"/>
     <use x="917.285156" xlink:href="#DejaVuSans-32"/>
     <use x="949.072266" xlink:href="#DejaVuSans-112"/>
     <use x="1012.548828" xlink:href="#DejaVuSans-101"/>
     <use x="1074.072266" xlink:href="#DejaVuSans-111"/>
     <use x="1135.253906" xlink:href="#DejaVuSans-112"/>
     <use x="1198.730469" xlink:href="#DejaVuSans-108"/>
     <use x="1226.513672" xlink:href="#DejaVuSans-101"/>
    </g>
   </g>
   <g id="legend_1"/>
   <g id="PathCollection_1">
    <defs>
     <path d="M 0 2.236068 
C 0.593012 2.236068 1.161816 2.000462 1.581139 1.581139 
C 2.000462 1.161816 2.236068 0.593012 2.236068 0 
C 2.236068 -0.593012 2.000462 -1.161816 1.581139 -1.581139 
C 1.161816 -2.000462 0.593012 -2.236068 0 -2.236068 
C -0.593012 -2.236068 -1.161816 -2.000462 -1.581139 -1.581139 
C -2.000462 -1.161816 -2.236068 -0.593012 -2.236068 0 
C -2.236068 0.593012 -2.000462 1.161816 -1.581139 1.581139 
C -1.161816 2.000462 -0.593012 2.236068 0 2.236068 
z
" id="C0_0_44ef63e4ea"/>
    </defs>
    <g clip-path="url(#pe4ea8bdf9a)">
     <use style="fill:#4c72b0;stroke:#4c72b0;" x="464.014" xlink:href="#C0_0_44ef63e4ea" y="265.78676"/>
    </g>
    <g clip-path="url(#pe4ea8bdf9a)">
     <use style="fill:#55a868;stroke:#55a868;" x="464.014" xlink:href="#C0_0_44ef63e4ea" y="235.495675"/>
    </g>
    <g clip-path="url(#pe4ea8bdf9a)">
     <use style="fill:#c44e52;stroke:#c44e52;" x="464.014" xlink:href="#C0_0_44ef63e4ea" y="169.285488"/>
    </g>
    <g clip-path="url(#pe4ea8bdf9a)">
     <use style="fill:#8172b2;stroke:#8172b2;" x="464.014" xlink:href="#C0_0_44ef63e4ea" y="273.689727"/>
    </g>
    <g clip-path="url(#pe4ea8bdf9a)">
     <use style="fill:#ccb974;stroke:#ccb974;" x="464.014" xlink:href="#C0_0_44ef63e4ea" y="239.244971"/>
    </g>
   </g>
  </g>
 </g>
 <defs>
  <clipPath id="pe4ea8bdf9a">
   <rect height="271.8" width="446.4" x="35.47" y="25.3575"/>
  </clipPath>
 </defs>
</svg>
