<?xml version="1.0" encoding="utf-8" standalone="no"?>
<!DOCTYPE svg PUBLIC "-//W3C//DTD SVG 1.1//EN"
  "http://www.w3.org/Graphics/SVG/1.1/DTD/svg11.dtd">
<!-- Created with matplotlib (https://matplotlib.org/) -->
<svg height="342.408625pt" version="1.1" viewBox="0 0 503.201813 342.408625" width="503.201813pt" xmlns="http://www.w3.org/2000/svg" xmlns:xlink="http://www.w3.org/1999/xlink">
 <defs>
  <style type="text/css">
*{stroke-linecap:butt;stroke-linejoin:round;}
  </style>
 </defs>
 <g id="figure_1">
  <g id="patch_1">
   <path d="M 0 342.408625 
L 503.201813 342.408625 
L 503.201813 0 
L 0 0 
z
" style="fill:#ffffff;"/>
  </g>
  <g id="axes_1">
   <g id="patch_2">
    <path d="M 43.105 297.1575 
L 489.505 297.1575 
L 489.505 25.3575 
L 43.105 25.3575 
z
" style="fill:#ffffff;"/>
   </g>
   <g id="matplotlib.axis_1">
    <g id="xtick_1">
     <g id="line2d_1">
      <defs>
       <path d="M 0 0 
L 0 6 
" id="ma969de4ef3" style="stroke:#262626;"/>
      </defs>
      <g>
       <use style="fill:#262626;stroke:#262626;" x="43.105" xlink:href="#ma969de4ef3" y="297.1575"/>
      </g>
     </g>
    </g>
    <g id="xtick_2">
     <g id="line2d_2">
      <g>
       <use style="fill:#262626;stroke:#262626;" x="96.673" xlink:href="#ma969de4ef3" y="297.1575"/>
      </g>
     </g>
     <g id="text_1">
      <!-- Mar -->
      <defs>
       <path d="M 9.8125 72.90625 
L 24.515625 72.90625 
L 43.109375 23.296875 
L 61.8125 72.90625 
L 76.515625 72.90625 
L 76.515625 0 
L 66.890625 0 
L 66.890625 64.015625 
L 48.09375 14.015625 
L 38.1875 14.015625 
L 19.390625 64.015625 
L 19.390625 0 
L 9.8125 0 
z
" id="DejaVuSans-77"/>
       <path d="M 34.28125 27.484375 
Q 23.390625 27.484375 19.1875 25 
Q 14.984375 22.515625 14.984375 16.5 
Q 14.984375 11.71875 18.140625 8.90625 
Q 21.296875 6.109375 26.703125 6.109375 
Q 34.1875 6.109375 38.703125 11.40625 
Q 43.21875 16.703125 43.21875 25.484375 
L 43.21875 27.484375 
z
M 52.203125 31.203125 
L 52.203125 0 
L 43.21875 0 
L 43.21875 8.296875 
Q 40.140625 3.328125 35.546875 0.953125 
Q 30.953125 -1.421875 24.3125 -1.421875 
Q 15.921875 -1.421875 10.953125 3.296875 
Q 6 8.015625 6 15.921875 
Q 6 25.140625 12.171875 29.828125 
Q 18.359375 34.515625 30.609375 34.515625 
L 43.21875 34.515625 
L 43.21875 35.40625 
Q 43.21875 41.609375 39.140625 45 
Q 35.0625 48.390625 27.6875 48.390625 
Q 23 48.390625 18.546875 47.265625 
Q 14.109375 46.140625 10.015625 43.890625 
L 10.015625 52.203125 
Q 14.9375 54.109375 19.578125 55.046875 
Q 24.21875 56 28.609375 56 
Q 40.484375 56 46.34375 49.84375 
Q 52.203125 43.703125 52.203125 31.203125 
z
" id="DejaVuSans-97"/>
       <path d="M 41.109375 46.296875 
Q 39.59375 47.171875 37.8125 47.578125 
Q 36.03125 48 33.890625 48 
Q 26.265625 48 22.1875 43.046875 
Q 18.109375 38.09375 18.109375 28.8125 
L 18.109375 0 
L 9.078125 0 
L 9.078125 54.6875 
L 18.109375 54.6875 
L 18.109375 46.1875 
Q 20.953125 51.171875 25.484375 53.578125 
Q 30.03125 56 36.53125 56 
Q 37.453125 56 38.578125 55.875 
Q 39.703125 55.765625 41.0625 55.515625 
z
" id="DejaVuSans-114"/>
      </defs>
      <g style="fill:#262626;" transform="translate(85.352688 319.275625)scale(0.12 -0.12)">
       <use xlink:href="#DejaVuSans-77"/>
       <use x="86.279297" xlink:href="#DejaVuSans-97"/>
       <use x="147.558594" xlink:href="#DejaVuSans-114"/>
      </g>
      <!-- 2020 -->
      <defs>
       <path d="M 19.1875 8.296875 
L 53.609375 8.296875 
L 53.609375 0 
L 7.328125 0 
L 7.328125 8.296875 
Q 12.9375 14.109375 22.625 23.890625 
Q 32.328125 33.6875 34.8125 36.53125 
Q 39.546875 41.84375 41.421875 45.53125 
Q 43.3125 49.21875 43.3125 52.78125 
Q 43.3125 58.59375 39.234375 62.25 
Q 35.15625 65.921875 28.609375 65.921875 
Q 23.96875 65.921875 18.8125 64.3125 
Q 13.671875 62.703125 7.8125 59.421875 
L 7.8125 69.390625 
Q 13.765625 71.78125 18.9375 73 
Q 24.125 74.21875 28.421875 74.21875 
Q 39.75 74.21875 46.484375 68.546875 
Q 53.21875 62.890625 53.21875 53.421875 
Q 53.21875 48.921875 51.53125 44.890625 
Q 49.859375 40.875 45.40625 35.40625 
Q 44.1875 33.984375 37.640625 27.21875 
Q 31.109375 20.453125 19.1875 8.296875 
z
" id="DejaVuSans-50"/>
       <path d="M 31.78125 66.40625 
Q 24.171875 66.40625 20.328125 58.90625 
Q 16.5 51.421875 16.5 36.375 
Q 16.5 21.390625 20.328125 13.890625 
Q 24.171875 6.390625 31.78125 6.390625 
Q 39.453125 6.390625 43.28125 13.890625 
Q 47.125 21.390625 47.125 36.375 
Q 47.125 51.421875 43.28125 58.90625 
Q 39.453125 66.40625 31.78125 66.40625 
z
M 31.78125 74.21875 
Q 44.046875 74.21875 50.515625 64.515625 
Q 56.984375 54.828125 56.984375 36.375 
Q 56.984375 17.96875 50.515625 8.265625 
Q 44.046875 -1.421875 31.78125 -1.421875 
Q 19.53125 -1.421875 13.0625 8.265625 
Q 6.59375 17.96875 6.59375 36.375 
Q 6.59375 54.828125 13.0625 64.515625 
Q 19.53125 74.21875 31.78125 74.21875 
z
" id="DejaVuSans-48"/>
      </defs>
      <g style="fill:#262626;" transform="translate(81.403 332.713)scale(0.12 -0.12)">
       <use xlink:href="#DejaVuSans-50"/>
       <use x="63.623047" xlink:href="#DejaVuSans-48"/>
       <use x="127.246094" xlink:href="#DejaVuSans-50"/>
       <use x="190.869141" xlink:href="#DejaVuSans-48"/>
      </g>
     </g>
    </g>
    <g id="xtick_3">
     <g id="line2d_3">
      <g>
       <use style="fill:#262626;stroke:#262626;" x="207.3802" xlink:href="#ma969de4ef3" y="297.1575"/>
      </g>
     </g>
     <g id="text_2">
      <!-- Apr -->
      <defs>
       <path d="M 34.1875 63.1875 
L 20.796875 26.90625 
L 47.609375 26.90625 
z
M 28.609375 72.90625 
L 39.796875 72.90625 
L 67.578125 0 
L 57.328125 0 
L 50.6875 18.703125 
L 17.828125 18.703125 
L 11.1875 0 
L 0.78125 0 
z
" id="DejaVuSans-65"/>
       <path d="M 18.109375 8.203125 
L 18.109375 -20.796875 
L 9.078125 -20.796875 
L 9.078125 54.6875 
L 18.109375 54.6875 
L 18.109375 46.390625 
Q 20.953125 51.265625 25.265625 53.625 
Q 29.59375 56 35.59375 56 
Q 45.5625 56 51.78125 48.09375 
Q 58.015625 40.1875 58.015625 27.296875 
Q 58.015625 14.40625 51.78125 6.484375 
Q 45.5625 -1.421875 35.59375 -1.421875 
Q 29.59375 -1.421875 25.265625 0.953125 
Q 20.953125 3.328125 18.109375 8.203125 
z
M 48.6875 27.296875 
Q 48.6875 37.203125 44.609375 42.84375 
Q 40.53125 48.484375 33.40625 48.484375 
Q 26.265625 48.484375 22.1875 42.84375 
Q 18.109375 37.203125 18.109375 27.296875 
Q 18.109375 17.390625 22.1875 11.75 
Q 26.265625 6.109375 33.40625 6.109375 
Q 40.53125 6.109375 44.609375 11.75 
Q 48.6875 17.390625 48.6875 27.296875 
z
" id="DejaVuSans-112"/>
      </defs>
      <g style="fill:#262626;" transform="translate(197.0002 319.275625)scale(0.12 -0.12)">
       <use xlink:href="#DejaVuSans-65"/>
       <use x="68.408203" xlink:href="#DejaVuSans-112"/>
       <use x="131.884766" xlink:href="#DejaVuSans-114"/>
      </g>
     </g>
    </g>
    <g id="xtick_4">
     <g id="line2d_4">
      <g>
       <use style="fill:#262626;stroke:#262626;" x="314.5162" xlink:href="#ma969de4ef3" y="297.1575"/>
      </g>
     </g>
     <g id="text_3">
      <!-- May -->
      <defs>
       <path d="M 32.171875 -5.078125 
Q 28.375 -14.84375 24.75 -17.8125 
Q 21.140625 -20.796875 15.09375 -20.796875 
L 7.90625 -20.796875 
L 7.90625 -13.28125 
L 13.1875 -13.28125 
Q 16.890625 -13.28125 18.9375 -11.515625 
Q 21 -9.765625 23.484375 -3.21875 
L 25.09375 0.875 
L 2.984375 54.6875 
L 12.5 54.6875 
L 29.59375 11.921875 
L 46.6875 54.6875 
L 56.203125 54.6875 
z
" id="DejaVuSans-121"/>
      </defs>
      <g style="fill:#262626;" transform="translate(302.1112 319.275625)scale(0.12 -0.12)">
       <use xlink:href="#DejaVuSans-77"/>
       <use x="86.279297" xlink:href="#DejaVuSans-97"/>
       <use x="147.558594" xlink:href="#DejaVuSans-121"/>
      </g>
     </g>
    </g>
    <g id="xtick_5">
     <g id="line2d_5">
      <g>
       <use style="fill:#262626;stroke:#262626;" x="425.2234" xlink:href="#ma969de4ef3" y="297.1575"/>
      </g>
     </g>
     <g id="text_4">
      <!-- Jun -->
      <defs>
       <path d="M 9.8125 72.90625 
L 19.671875 72.90625 
L 19.671875 5.078125 
Q 19.671875 -8.109375 14.671875 -14.0625 
Q 9.671875 -20.015625 -1.421875 -20.015625 
L -5.171875 -20.015625 
L -5.171875 -11.71875 
L -2.09375 -11.71875 
Q 4.4375 -11.71875 7.125 -8.046875 
Q 9.8125 -4.390625 9.8125 5.078125 
z
" id="DejaVuSans-74"/>
       <path d="M 8.5 21.578125 
L 8.5 54.6875 
L 17.484375 54.6875 
L 17.484375 21.921875 
Q 17.484375 14.15625 20.5 10.265625 
Q 23.53125 6.390625 29.59375 6.390625 
Q 36.859375 6.390625 41.078125 11.03125 
Q 45.3125 15.671875 45.3125 23.6875 
L 45.3125 54.6875 
L 54.296875 54.6875 
L 54.296875 0 
L 45.3125 0 
L 45.3125 8.40625 
Q 42.046875 3.421875 37.71875 1 
Q 33.40625 -1.421875 27.6875 -1.421875 
Q 18.265625 -1.421875 13.375 4.4375 
Q 8.5 10.296875 8.5 21.578125 
z
M 31.109375 56 
z
" id="DejaVuSans-117"/>
       <path d="M 54.890625 33.015625 
L 54.890625 0 
L 45.90625 0 
L 45.90625 32.71875 
Q 45.90625 40.484375 42.875 44.328125 
Q 39.84375 48.1875 33.796875 48.1875 
Q 26.515625 48.1875 22.3125 43.546875 
Q 18.109375 38.921875 18.109375 30.90625 
L 18.109375 0 
L 9.078125 0 
L 9.078125 54.6875 
L 18.109375 54.6875 
L 18.109375 46.1875 
Q 21.34375 51.125 25.703125 53.5625 
Q 30.078125 56 35.796875 56 
Q 45.21875 56 50.046875 50.171875 
Q 54.890625 44.34375 54.890625 33.015625 
z
" id="DejaVuSans-110"/>
      </defs>
      <g style="fill:#262626;" transform="translate(415.8484 319.275625)scale(0.12 -0.12)">
       <use xlink:href="#DejaVuSans-74"/>
       <use x="29.492188" xlink:href="#DejaVuSans-117"/>
       <use x="92.871094" xlink:href="#DejaVuSans-110"/>
      </g>
     </g>
    </g>
    <g id="xtick_6">
     <g id="line2d_6">
      <g>
       <use style="fill:#262626;stroke:#262626;" x="489.505" xlink:href="#ma969de4ef3" y="297.1575"/>
      </g>
     </g>
    </g>
    <g id="xtick_7">
     <g id="line2d_7">
      <defs>
       <path d="M 0 0 
L 0 3 
" id="mb6b942b6ea" style="stroke:#262626;stroke-width:0.5;"/>
      </defs>
      <g>
       <use style="fill:#262626;stroke:#262626;stroke-width:0.5;" x="50.2474" xlink:href="#mb6b942b6ea" y="297.1575"/>
      </g>
     </g>
    </g>
    <g id="xtick_8">
     <g id="line2d_8">
      <g>
       <use style="fill:#262626;stroke:#262626;stroke-width:0.5;" x="75.2458" xlink:href="#mb6b942b6ea" y="297.1575"/>
      </g>
     </g>
    </g>
    <g id="xtick_9">
     <g id="line2d_9">
      <g>
       <use style="fill:#262626;stroke:#262626;stroke-width:0.5;" x="100.2442" xlink:href="#mb6b942b6ea" y="297.1575"/>
      </g>
     </g>
    </g>
    <g id="xtick_10">
     <g id="line2d_10">
      <g>
       <use style="fill:#262626;stroke:#262626;stroke-width:0.5;" x="125.2426" xlink:href="#mb6b942b6ea" y="297.1575"/>
      </g>
     </g>
    </g>
    <g id="xtick_11">
     <g id="line2d_11">
      <g>
       <use style="fill:#262626;stroke:#262626;stroke-width:0.5;" x="150.241" xlink:href="#mb6b942b6ea" y="297.1575"/>
      </g>
     </g>
    </g>
    <g id="xtick_12">
     <g id="line2d_12">
      <g>
       <use style="fill:#262626;stroke:#262626;stroke-width:0.5;" x="175.2394" xlink:href="#mb6b942b6ea" y="297.1575"/>
      </g>
     </g>
    </g>
    <g id="xtick_13">
     <g id="line2d_13">
      <g>
       <use style="fill:#262626;stroke:#262626;stroke-width:0.5;" x="200.2378" xlink:href="#mb6b942b6ea" y="297.1575"/>
      </g>
     </g>
    </g>
    <g id="xtick_14">
     <g id="line2d_14">
      <g>
       <use style="fill:#262626;stroke:#262626;stroke-width:0.5;" x="225.2362" xlink:href="#mb6b942b6ea" y="297.1575"/>
      </g>
     </g>
    </g>
    <g id="xtick_15">
     <g id="line2d_15">
      <g>
       <use style="fill:#262626;stroke:#262626;stroke-width:0.5;" x="250.2346" xlink:href="#mb6b942b6ea" y="297.1575"/>
      </g>
     </g>
    </g>
    <g id="xtick_16">
     <g id="line2d_16">
      <g>
       <use style="fill:#262626;stroke:#262626;stroke-width:0.5;" x="275.233" xlink:href="#mb6b942b6ea" y="297.1575"/>
      </g>
     </g>
    </g>
    <g id="xtick_17">
     <g id="line2d_17">
      <g>
       <use style="fill:#262626;stroke:#262626;stroke-width:0.5;" x="300.2314" xlink:href="#mb6b942b6ea" y="297.1575"/>
      </g>
     </g>
    </g>
    <g id="xtick_18">
     <g id="line2d_18">
      <g>
       <use style="fill:#262626;stroke:#262626;stroke-width:0.5;" x="325.2298" xlink:href="#mb6b942b6ea" y="297.1575"/>
      </g>
     </g>
    </g>
    <g id="xtick_19">
     <g id="line2d_19">
      <g>
       <use style="fill:#262626;stroke:#262626;stroke-width:0.5;" x="350.2282" xlink:href="#mb6b942b6ea" y="297.1575"/>
      </g>
     </g>
    </g>
    <g id="xtick_20">
     <g id="line2d_20">
      <g>
       <use style="fill:#262626;stroke:#262626;stroke-width:0.5;" x="375.2266" xlink:href="#mb6b942b6ea" y="297.1575"/>
      </g>
     </g>
    </g>
    <g id="xtick_21">
     <g id="line2d_21">
      <g>
       <use style="fill:#262626;stroke:#262626;stroke-width:0.5;" x="400.225" xlink:href="#mb6b942b6ea" y="297.1575"/>
      </g>
     </g>
    </g>
    <g id="xtick_22">
     <g id="line2d_22">
      <g>
       <use style="fill:#262626;stroke:#262626;stroke-width:0.5;" x="450.2218" xlink:href="#mb6b942b6ea" y="297.1575"/>
      </g>
     </g>
    </g>
    <g id="xtick_23">
     <g id="line2d_23">
      <g>
       <use style="fill:#262626;stroke:#262626;stroke-width:0.5;" x="475.2202" xlink:href="#mb6b942b6ea" y="297.1575"/>
      </g>
     </g>
    </g>
   </g>
   <g id="matplotlib.axis_2">
    <g id="ytick_1">
     <g id="line2d_24">
      <path clip-path="url(#pcc4965831f)" d="M 43.105 297.1575 
L 489.505 297.1575 
" style="fill:none;stroke:#b0b0b0;stroke-linecap:square;stroke-opacity:0.3;"/>
     </g>
     <g id="line2d_25">
      <defs>
       <path d="M 0 0 
L -6 0 
" id="mdd69633bbe" style="stroke:#262626;"/>
      </defs>
      <g>
       <use style="fill:#262626;stroke:#262626;" x="43.105" xlink:href="#mdd69633bbe" y="297.1575"/>
      </g>
     </g>
     <g id="text_5">
      <!-- 0 -->
      <g style="fill:#262626;" transform="translate(22.47 301.716562)scale(0.12 -0.12)">
       <use xlink:href="#DejaVuSans-48"/>
      </g>
     </g>
    </g>
    <g id="ytick_2">
     <g id="line2d_26">
      <path clip-path="url(#pcc4965831f)" d="M 43.105 235.882548 
L 489.505 235.882548 
" style="fill:none;stroke:#b0b0b0;stroke-linecap:square;stroke-opacity:0.3;"/>
     </g>
     <g id="line2d_27">
      <g>
       <use style="fill:#262626;stroke:#262626;" x="43.105" xlink:href="#mdd69633bbe" y="235.882548"/>
      </g>
     </g>
     <g id="text_6">
      <!-- 50 -->
      <defs>
       <path d="M 10.796875 72.90625 
L 49.515625 72.90625 
L 49.515625 64.59375 
L 19.828125 64.59375 
L 19.828125 46.734375 
Q 21.96875 47.46875 24.109375 47.828125 
Q 26.265625 48.1875 28.421875 48.1875 
Q 40.625 48.1875 47.75 41.5 
Q 54.890625 34.8125 54.890625 23.390625 
Q 54.890625 11.625 47.5625 5.09375 
Q 40.234375 -1.421875 26.90625 -1.421875 
Q 22.3125 -1.421875 17.546875 -0.640625 
Q 12.796875 0.140625 7.71875 1.703125 
L 7.71875 11.625 
Q 12.109375 9.234375 16.796875 8.0625 
Q 21.484375 6.890625 26.703125 6.890625 
Q 35.15625 6.890625 40.078125 11.328125 
Q 45.015625 15.765625 45.015625 23.390625 
Q 45.015625 31 40.078125 35.4375 
Q 35.15625 39.890625 26.703125 39.890625 
Q 22.75 39.890625 18.8125 39.015625 
Q 14.890625 38.140625 10.796875 36.28125 
z
" id="DejaVuSans-53"/>
      </defs>
      <g style="fill:#262626;" transform="translate(14.835 240.441611)scale(0.12 -0.12)">
       <use xlink:href="#DejaVuSans-53"/>
       <use x="63.623047" xlink:href="#DejaVuSans-48"/>
      </g>
     </g>
    </g>
    <g id="ytick_3">
     <g id="line2d_28">
      <path clip-path="url(#pcc4965831f)" d="M 43.105 174.607596 
L 489.505 174.607596 
" style="fill:none;stroke:#b0b0b0;stroke-linecap:square;stroke-opacity:0.3;"/>
     </g>
     <g id="line2d_29">
      <g>
       <use style="fill:#262626;stroke:#262626;" x="43.105" xlink:href="#mdd69633bbe" y="174.607596"/>
      </g>
     </g>
     <g id="text_7">
      <!-- 100 -->
      <defs>
       <path d="M 12.40625 8.296875 
L 28.515625 8.296875 
L 28.515625 63.921875 
L 10.984375 60.40625 
L 10.984375 69.390625 
L 28.421875 72.90625 
L 38.28125 72.90625 
L 38.28125 8.296875 
L 54.390625 8.296875 
L 54.390625 0 
L 12.40625 0 
z
" id="DejaVuSans-49"/>
      </defs>
      <g style="fill:#262626;" transform="translate(7.2 179.166659)scale(0.12 -0.12)">
       <use xlink:href="#DejaVuSans-49"/>
       <use x="63.623047" xlink:href="#DejaVuSans-48"/>
       <use x="127.246094" xlink:href="#DejaVuSans-48"/>
      </g>
     </g>
    </g>
    <g id="ytick_4">
     <g id="line2d_30">
      <path clip-path="url(#pcc4965831f)" d="M 43.105 113.332644 
L 489.505 113.332644 
" style="fill:none;stroke:#b0b0b0;stroke-linecap:square;stroke-opacity:0.3;"/>
     </g>
     <g id="line2d_31">
      <g>
       <use style="fill:#262626;stroke:#262626;" x="43.105" xlink:href="#mdd69633bbe" y="113.332644"/>
      </g>
     </g>
     <g id="text_8">
      <!-- 150 -->
      <g style="fill:#262626;" transform="translate(7.2 117.891707)scale(0.12 -0.12)">
       <use xlink:href="#DejaVuSans-49"/>
       <use x="63.623047" xlink:href="#DejaVuSans-53"/>
       <use x="127.246094" xlink:href="#DejaVuSans-48"/>
      </g>
     </g>
    </g>
    <g id="ytick_5">
     <g id="line2d_32">
      <path clip-path="url(#pcc4965831f)" d="M 43.105 52.057692 
L 489.505 52.057692 
" style="fill:none;stroke:#b0b0b0;stroke-linecap:square;stroke-opacity:0.3;"/>
     </g>
     <g id="line2d_33">
      <g>
       <use style="fill:#262626;stroke:#262626;" x="43.105" xlink:href="#mdd69633bbe" y="52.057692"/>
      </g>
     </g>
     <g id="text_9">
      <!-- 200 -->
      <g style="fill:#262626;" transform="translate(7.2 56.616755)scale(0.12 -0.12)">
       <use xlink:href="#DejaVuSans-50"/>
       <use x="63.623047" xlink:href="#DejaVuSans-48"/>
       <use x="127.246094" xlink:href="#DejaVuSans-48"/>
      </g>
     </g>
    </g>
   </g>
   <g id="line2d_34">
    <path clip-path="url(#pcc4965831f)" d="M -1 297.139754 
L 100.2442 297.037715 
L 121.6714 296.807017 
L 125.2426 296.563009 
L 132.385 296.505335 
L 143.0986 295.910844 
L 146.6698 295.533741 
L 150.241 295.311916 
L 164.5258 292.885152 
L 171.6682 291.066187 
L 178.8106 288.674914 
L 182.3818 286.997918 
L 185.953 283.879059 
L 189.5242 281.048573 
L 196.6666 277.570357 
L 203.809 270.81357 
L 207.3802 267.730203 
L 214.5226 263.196101 
L 221.665 258.071945 
L 225.2362 257.83681 
L 228.8074 257.415343 
L 232.3786 256.221925 
L 239.521 258.129619 
L 243.0922 258.892697 
L 246.6634 260.569694 
L 250.2346 261.443684 
L 253.8058 260.698352 
L 257.377 261.381573 
L 260.9482 261.882897 
L 264.5194 261.523541 
L 268.0906 259.855417 
L 271.6618 260.685043 
L 275.233 254.886539 
L 278.8042 252.410972 
L 282.3754 250.725103 
L 285.9466 246.616905 
L 289.5178 244.052608 
L 293.089 244.979837 
L 296.6602 243.267348 
L 300.2314 246.820984 
L 303.8026 249.571613 
L 307.3738 246.887531 
L 310.945 248.639948 
L 314.5162 248.577837 
L 321.6586 246.665706 
L 325.2298 247.80145 
L 328.801 242.686167 
L 332.3722 244.438584 
L 335.9434 243.870712 
L 339.5146 242.597437 
L 343.0858 239.168023 
L 346.657 239.576181 
L 350.2282 238.680008 
L 353.7994 242.579691 
L 357.3706 242.007382 
L 360.9418 241.852105 
L 364.513 242.14935 
L 368.0842 243.435935 
L 371.6554 242.522016 
L 375.2266 242.016255 
L 378.7978 240.232783 
L 382.369 239.895609 
L 385.9402 237.082869 
L 389.5114 235.995926 
L 393.0826 235.570022 
L 396.6538 233.373955 
L 400.225 230.281716 
L 403.7962 226.421962 
L 407.3674 227.287079 
L 410.9386 228.023538 
L 414.5098 225.099885 
L 418.081 220.472617 
L 421.6522 215.654579 
L 425.2234 214.523272 
L 428.7946 216.608426 
L 432.3658 214.935866 
L 435.937 213.547242 
L 439.5082 210.792176 
L 443.0794 212.655506 
L 446.6506 213.383091 
L 450.2218 214.443415 
L 453.793 212.202983 
L 457.3642 209.687488 
L 460.9354 204.984799 
L 464.5066 205.06022 
L 468.0778 202.788732 
L 471.649 204.257213 
L 471.649 204.257213 
" style="fill:none;stroke:#4c72b0;stroke-linecap:square;stroke-width:2;"/>
   </g>
   <g id="line2d_35">
    <path clip-path="url(#pcc4965831f)" d="M -1 297.1575 
L 125.2426 297.048088 
L 135.9562 296.883971 
L 139.5274 296.624118 
L 143.0986 296.569412 
L 146.6698 296.30956 
L 150.241 296.186471 
L 153.8122 295.940295 
L 160.9546 294.900884 
L 164.5258 294.039267 
L 168.097 292.493827 
L 171.6682 291.194564 
L 175.2394 289.457653 
L 178.8106 286.900155 
L 182.3818 283.316923 
L 185.953 276.601781 
L 189.5242 270.515757 
L 193.0954 263.964733 
L 196.6666 256.989738 
L 200.2378 249.125774 
L 203.809 240.454899 
L 207.3802 233.507257 
L 210.9514 224.316677 
L 214.5226 212.322422 
L 218.0938 197.401404 
L 221.665 185.721708 
L 225.2362 175.190834 
L 228.8074 166.068636 
L 232.3786 152.063941 
L 235.9498 141.751891 
L 239.521 137.033512 
L 243.0922 137.6216 
L 246.6634 141.710861 
L 250.2346 143.693948 
L 253.8058 146.593357 
L 257.377 155.059086 
L 260.9482 161.281875 
L 264.5194 160.48864 
L 268.0906 160.830552 
L 271.6618 159.886876 
L 275.233 164.359078 
L 278.8042 163.223932 
L 282.3754 160.95364 
L 285.9466 160.119376 
L 289.5178 157.972172 
L 293.089 161.979374 
L 296.6602 164.263343 
L 300.2314 164.181284 
L 303.8026 161.227169 
L 307.3738 168.21584 
L 310.945 161.897315 
L 314.5162 167.696134 
L 318.0874 167.98334 
L 321.6586 169.009074 
L 325.2298 170.458779 
L 328.801 178.938184 
L 332.3722 176.832009 
L 335.9434 188.771558 
L 339.5146 191.342733 
L 343.0858 193.353172 
L 346.657 188.320235 
L 350.2282 193.695084 
L 353.7994 195.404641 
L 357.3706 198.618609 
L 360.9418 201.299195 
L 364.513 205.83978 
L 368.0842 207.34419 
L 371.6554 219.092269 
L 375.2266 213.471244 
L 378.7978 215.139772 
L 382.369 215.686831 
L 385.9402 213.813156 
L 389.5114 213.361833 
L 393.0826 216.821977 
L 396.6538 216.315948 
L 400.225 219.47521 
L 403.7962 222.360943 
L 407.3674 222.005355 
L 410.9386 227.954615 
L 414.5098 231.948141 
L 418.081 233.055934 
L 421.6522 234.765492 
L 425.2234 237.28196 
L 428.7946 236.406667 
L 432.3658 239.374459 
L 435.937 240.865193 
L 439.5082 244.708278 
L 443.0794 246.308424 
L 446.6506 245.419454 
L 450.2218 246.581953 
L 453.793 247.252099 
L 457.3642 248.75651 
L 460.9354 249.071068 
L 464.5066 246.964894 
L 471.649 252.025184 
L 471.649 252.025184 
" style="fill:none;stroke:#55a868;stroke-linecap:square;stroke-width:2;"/>
   </g>
   <g id="line2d_36">
    <path clip-path="url(#pcc4965831f)" d="M -1 297.14374 
L 125.2426 297.061179 
L 139.5274 296.607094 
L 150.241 295.877807 
L 153.8122 295.23108 
L 160.9546 291.818564 
L 168.097 287.731801 
L 171.6682 284.044083 
L 175.2394 280.90677 
L 178.8106 278.223542 
L 182.3818 275.306391 
L 185.953 268.013515 
L 189.5242 263.500187 
L 193.0954 258.684137 
L 196.6666 248.088826 
L 200.2378 245.075354 
L 203.809 235.828537 
L 207.3802 226.925724 
L 210.9514 226.196436 
L 214.5226 216.316653 
L 218.0938 203.450918 
L 221.665 205.473659 
L 225.2362 198.194543 
L 228.8074 193.17209 
L 232.3786 185.700332 
L 235.9498 177.072722 
L 239.521 173.550125 
L 243.0922 175.751748 
L 246.6634 165.390359 
L 250.2346 162.817212 
L 253.8058 163.711622 
L 257.377 166.229728 
L 260.9482 169.023037 
L 264.5194 163.849223 
L 268.0906 159.831261 
L 271.6618 166.36733 
L 275.233 166.670053 
L 278.8042 162.142965 
L 285.9466 143.030125 
L 289.5178 130.893678 
L 293.089 123.545761 
L 296.6602 110.762587 
L 300.2314 99.355427 
L 303.8026 90.163651 
L 307.3738 87.356582 
L 310.945 77.229116 
L 314.5162 71.532416 
L 318.0874 66.977808 
L 321.6586 55.034003 
L 325.2298 50.066591 
L 328.801 52.405815 
L 332.3722 52.103092 
L 335.9434 51.071081 
L 339.5146 54.524878 
L 343.0858 56.313696 
L 346.657 74.75229 
L 350.2282 86.861216 
L 353.7994 59.395969 
L 357.3706 67.225491 
L 360.9418 59.395969 
L 364.513 65.436672 
L 368.0842 67.899738 
L 371.6554 67.390612 
L 375.2266 54.222154 
L 378.7978 88.966519 
L 382.369 79.210576 
L 385.9402 91.93871 
L 389.5114 88.250991 
L 393.0826 84.824715 
L 396.6538 74.504607 
L 400.225 84.288069 
L 403.7962 88.16843 
L 407.3674 105.905256 
L 410.9386 116.445526 
L 414.5098 130.879918 
L 418.081 143.181487 
L 421.6522 158.909331 
L 425.2234 167.564462 
L 428.7946 162.886013 
L 432.3658 164.138186 
L 435.937 173.027239 
L 439.5082 179.879791 
L 443.0794 187.612992 
L 446.6506 194.204101 
L 450.2218 188.768844 
L 453.793 199.77696 
L 457.3642 206.202947 
L 460.9354 206.588231 
L 464.5066 212.22989 
L 468.0778 216.440494 
L 471.649 219.426446 
L 471.649 219.426446 
" style="fill:none;stroke:#c44e52;stroke-linecap:square;stroke-width:2;"/>
   </g>
   <g id="line2d_37">
    <path clip-path="url(#pcc4965831f)" d="M -1 297.1575 
L 128.8138 297.097208 
L 135.9562 296.946477 
L 143.0986 296.373698 
L 146.6698 296.192821 
L 150.241 295.80092 
L 153.8122 295.077411 
L 157.3834 294.142879 
L 164.5258 291.218696 
L 168.097 289.500362 
L 171.6682 286.636472 
L 175.2394 285.973255 
L 178.8106 284.827699 
L 182.3818 281.571908 
L 185.953 279.099919 
L 189.5242 275.633105 
L 193.0954 274.216233 
L 196.6666 274.909596 
L 200.2378 271.563366 
L 203.809 270.930296 
L 207.3802 269.211962 
L 210.9514 267.734797 
L 214.5226 267.433335 
L 218.0938 264.901053 
L 221.665 262.579795 
L 225.2362 261.795994 
L 228.8074 260.168098 
L 232.3786 260.801169 
L 235.9498 262.338625 
L 239.521 262.429064 
L 243.0922 263.966521 
L 246.6634 264.780469 
L 250.2346 267.373043 
L 257.377 268.066406 
L 260.9482 267.31275 
L 264.5194 267.704651 
L 268.0906 267.433335 
L 271.6618 266.860557 
L 275.233 264.870907 
L 278.8042 265.051784 
L 282.3754 263.273158 
L 285.9466 261.675409 
L 289.5178 257.635816 
L 293.089 252.299937 
L 296.6602 249.978678 
L 300.2314 249.466193 
L 303.8026 246.843472 
L 307.3738 246.662595 
L 310.945 242.834026 
L 314.5162 238.131217 
L 318.0874 237.679024 
L 321.6586 235.267327 
L 325.2298 232.192414 
L 328.801 228.514576 
L 332.3722 225.37937 
L 335.9434 225.982294 
L 339.5146 228.544722 
L 343.0858 228.454283 
L 346.657 229.177792 
L 350.2282 231.378466 
L 353.7994 235.32762 
L 357.3706 236.804784 
L 360.9418 234.905573 
L 364.513 228.906476 
L 368.0842 223.932351 
L 371.6554 226.25361 
L 375.2266 227.700628 
L 378.7978 225.288931 
L 382.369 216.636968 
L 385.9402 218.415595 
L 389.5114 215.672289 
L 393.0826 218.264864 
L 396.6538 213.019423 
L 400.225 209.009977 
L 403.7962 209.070269 
L 407.3674 206.99018 
L 410.9386 197.102223 
L 414.5098 199.875674 
L 418.081 198.760265 
L 421.6522 205.030677 
L 425.2234 209.432024 
L 428.7946 205.935063 
L 432.3658 205.2417 
L 435.937 210.818749 
L 439.5082 217.481062 
L 443.0794 223.238989 
L 446.6506 220.827292 
L 450.2218 218.626618 
L 453.793 222.214017 
L 457.3642 232.101975 
L 460.9354 237.648878 
L 464.5066 239.337066 
L 468.0778 238.764288 
L 471.649 239.638528 
L 471.649 239.638528 
" style="fill:none;stroke:#8172b2;stroke-linecap:square;stroke-width:2;"/>
   </g>
   <g id="line2d_38">
    <path clip-path="url(#pcc4965831f)" d="M -1 297.1575 
L 121.6714 297.059668 
L 153.8122 296.815087 
L 157.3834 296.692797 
L 164.5258 295.665559 
L 168.097 294.90736 
L 171.6682 293.733373 
L 175.2394 291.874562 
L 178.8106 289.673337 
L 182.3818 288.01019 
L 185.953 285.88234 
L 189.5242 282.604962 
L 193.0954 280.795066 
L 196.6666 278.178055 
L 200.2378 274.289226 
L 207.3802 272.430414 
L 210.9514 270.449312 
L 214.5226 270.155815 
L 218.0938 266.682773 
L 221.665 264.383716 
L 225.2362 265.45987 
L 228.8074 265.924573 
L 232.3786 265.044084 
L 235.9498 262.475989 
L 239.521 264.310342 
L 243.0922 263.552143 
L 246.6634 266.09578 
L 250.2346 266.902895 
L 253.8058 267.049643 
L 257.377 266.927353 
L 260.9482 267.416514 
L 264.5194 263.038524 
L 268.0906 264.726129 
L 271.6618 263.160814 
L 275.233 263.845639 
L 278.8042 261.815621 
L 282.3754 260.543803 
L 285.9466 259.614397 
L 289.5178 259.541023 
L 293.089 258.978488 
L 296.6602 258.097998 
L 300.2314 256.752805 
L 307.3738 254.527123 
L 310.945 251.200829 
L 314.5162 250.271423 
L 318.0874 246.186929 
L 321.6586 245.453187 
L 325.2298 243.276421 
L 332.3722 235.890091 
L 335.9434 240.977365 
L 339.5146 234.447066 
L 343.0858 233.664409 
L 346.657 236.526 
L 350.2282 236.966245 
L 353.7994 237.699986 
L 357.3706 236.770581 
L 360.9418 230.411488 
L 364.513 232.51488 
L 368.0842 231.830055 
L 371.6554 228.234722 
L 375.2266 228.919547 
L 378.7978 227.941225 
L 382.369 230.607153 
L 385.9402 232.563796 
L 389.5114 237.504322 
L 393.0826 238.238063 
L 400.225 238.678308 
L 403.7962 242.934009 
L 407.3674 239.314218 
L 410.9386 237.2842 
L 414.5098 227.280858 
L 418.081 218.524877 
L 421.6522 209.181903 
L 425.2234 210.037935 
L 428.7946 187.903402 
L 432.3658 175.283049 
L 435.937 173.52207 
L 439.5082 152.757187 
L 443.0794 144.001206 
L 446.6506 126.244664 
L 450.2218 110.346933 
L 453.793 122.380292 
L 457.3642 107.950044 
L 460.9354 84.20128 
L 464.5066 81.975598 
L 468.0778 70.773812 
L 471.649 76.325789 
L 471.649 76.325789 
" style="fill:none;stroke:#ccb974;stroke-linecap:square;stroke-width:2;"/>
   </g>
   <g id="patch_3">
    <path d="M 43.105 297.1575 
L 43.105 25.3575 
" style="fill:none;stroke:#000000;stroke-linecap:square;stroke-linejoin:miter;stroke-width:0.8;"/>
   </g>
   <g id="patch_4">
    <path d="M 43.105 297.1575 
L 489.505 297.1575 
" style="fill:none;stroke:#000000;stroke-linecap:square;stroke-linejoin:miter;stroke-width:0.8;"/>
   </g>
   <g id="text_10">
    <!-- CA -->
    <defs>
     <path d="M 64.40625 67.28125 
L 64.40625 56.890625 
Q 59.421875 61.53125 53.78125 63.8125 
Q 48.140625 66.109375 41.796875 66.109375 
Q 29.296875 66.109375 22.65625 58.46875 
Q 16.015625 50.828125 16.015625 36.375 
Q 16.015625 21.96875 22.65625 14.328125 
Q 29.296875 6.6875 41.796875 6.6875 
Q 48.140625 6.6875 53.78125 8.984375 
Q 59.421875 11.28125 64.40625 15.921875 
L 64.40625 5.609375 
Q 59.234375 2.09375 53.4375 0.328125 
Q 47.65625 -1.421875 41.21875 -1.421875 
Q 24.65625 -1.421875 15.125 8.703125 
Q 5.609375 18.84375 5.609375 36.375 
Q 5.609375 53.953125 15.125 64.078125 
Q 24.65625 74.21875 41.21875 74.21875 
Q 47.75 74.21875 53.53125 72.484375 
Q 59.328125 70.75 64.40625 67.28125 
z
" id="DejaVuSans-67"/>
    </defs>
    <g style="fill:#4c72b0;" transform="translate(476.649 208.257213)scale(0.14 -0.14)">
     <use xlink:href="#DejaVuSans-67"/>
     <use x="69.824219" xlink:href="#DejaVuSans-65"/>
    </g>
   </g>
   <g id="text_11">
    <!-- PA -->
    <defs>
     <path d="M 19.671875 64.796875 
L 19.671875 37.40625 
L 32.078125 37.40625 
Q 38.96875 37.40625 42.71875 40.96875 
Q 46.484375 44.53125 46.484375 51.125 
Q 46.484375 57.671875 42.71875 61.234375 
Q 38.96875 64.796875 32.078125 64.796875 
z
M 9.8125 72.90625 
L 32.078125 72.90625 
Q 44.34375 72.90625 50.609375 67.359375 
Q 56.890625 61.8125 56.890625 51.125 
Q 56.890625 40.328125 50.609375 34.8125 
Q 44.34375 29.296875 32.078125 29.296875 
L 19.671875 29.296875 
L 19.671875 0 
L 9.8125 0 
z
" id="DejaVuSans-80"/>
    </defs>
    <g style="fill:#55a868;" transform="translate(476.649 256.025184)scale(0.14 -0.14)">
     <use xlink:href="#DejaVuSans-80"/>
     <use x="60.208984" xlink:href="#DejaVuSans-65"/>
    </g>
   </g>
   <g id="text_12">
    <!-- IL -->
    <defs>
     <path d="M 9.8125 72.90625 
L 19.671875 72.90625 
L 19.671875 0 
L 9.8125 0 
z
" id="DejaVuSans-73"/>
     <path d="M 9.8125 72.90625 
L 19.671875 72.90625 
L 19.671875 8.296875 
L 55.171875 8.296875 
L 55.171875 0 
L 9.8125 0 
z
" id="DejaVuSans-76"/>
    </defs>
    <g style="fill:#c44e52;" transform="translate(476.649 223.426446)scale(0.14 -0.14)">
     <use xlink:href="#DejaVuSans-73"/>
     <use x="29.492188" xlink:href="#DejaVuSans-76"/>
    </g>
   </g>
   <g id="text_13">
    <!-- WI -->
    <defs>
     <path d="M 3.328125 72.90625 
L 13.28125 72.90625 
L 28.609375 11.28125 
L 43.890625 72.90625 
L 54.984375 72.90625 
L 70.3125 11.28125 
L 85.59375 72.90625 
L 95.609375 72.90625 
L 77.296875 0 
L 64.890625 0 
L 49.515625 63.28125 
L 33.984375 0 
L 21.578125 0 
z
" id="DejaVuSans-87"/>
    </defs>
    <g style="fill:#8172b2;" transform="translate(476.649 243.638528)scale(0.14 -0.14)">
     <use xlink:href="#DejaVuSans-87"/>
     <use x="98.876953" xlink:href="#DejaVuSans-73"/>
    </g>
   </g>
   <g id="text_14">
    <!-- AZ -->
    <defs>
     <path d="M 5.609375 72.90625 
L 62.890625 72.90625 
L 62.890625 65.375 
L 16.796875 8.296875 
L 64.015625 8.296875 
L 64.015625 0 
L 4.5 0 
L 4.5 7.515625 
L 50.59375 64.59375 
L 5.609375 64.59375 
z
" id="DejaVuSans-90"/>
    </defs>
    <g style="fill:#ccb974;" transform="translate(476.649 80.325789)scale(0.14 -0.14)">
     <use xlink:href="#DejaVuSans-65"/>
     <use x="68.408203" xlink:href="#DejaVuSans-90"/>
    </g>
   </g>
   <g id="text_15">
    <!-- Cases per million people -->
    <defs>
     <path d="M 44.28125 53.078125 
L 44.28125 44.578125 
Q 40.484375 46.53125 36.375 47.5 
Q 32.28125 48.484375 27.875 48.484375 
Q 21.1875 48.484375 17.84375 46.4375 
Q 14.5 44.390625 14.5 40.28125 
Q 14.5 37.15625 16.890625 35.375 
Q 19.28125 33.59375 26.515625 31.984375 
L 29.59375 31.296875 
Q 39.15625 29.25 43.1875 25.515625 
Q 47.21875 21.78125 47.21875 15.09375 
Q 47.21875 7.46875 41.1875 3.015625 
Q 35.15625 -1.421875 24.609375 -1.421875 
Q 20.21875 -1.421875 15.453125 -0.5625 
Q 10.6875 0.296875 5.421875 2 
L 5.421875 11.28125 
Q 10.40625 8.6875 15.234375 7.390625 
Q 20.0625 6.109375 24.8125 6.109375 
Q 31.15625 6.109375 34.5625 8.28125 
Q 37.984375 10.453125 37.984375 14.40625 
Q 37.984375 18.0625 35.515625 20.015625 
Q 33.0625 21.96875 24.703125 23.78125 
L 21.578125 24.515625 
Q 13.234375 26.265625 9.515625 29.90625 
Q 5.8125 33.546875 5.8125 39.890625 
Q 5.8125 47.609375 11.28125 51.796875 
Q 16.75 56 26.8125 56 
Q 31.78125 56 36.171875 55.265625 
Q 40.578125 54.546875 44.28125 53.078125 
z
" id="DejaVuSans-115"/>
     <path d="M 56.203125 29.59375 
L 56.203125 25.203125 
L 14.890625 25.203125 
Q 15.484375 15.921875 20.484375 11.0625 
Q 25.484375 6.203125 34.421875 6.203125 
Q 39.59375 6.203125 44.453125 7.46875 
Q 49.3125 8.734375 54.109375 11.28125 
L 54.109375 2.78125 
Q 49.265625 0.734375 44.1875 -0.34375 
Q 39.109375 -1.421875 33.890625 -1.421875 
Q 20.796875 -1.421875 13.15625 6.1875 
Q 5.515625 13.8125 5.515625 26.8125 
Q 5.515625 40.234375 12.765625 48.109375 
Q 20.015625 56 32.328125 56 
Q 43.359375 56 49.78125 48.890625 
Q 56.203125 41.796875 56.203125 29.59375 
z
M 47.21875 32.234375 
Q 47.125 39.59375 43.09375 43.984375 
Q 39.0625 48.390625 32.421875 48.390625 
Q 24.90625 48.390625 20.390625 44.140625 
Q 15.875 39.890625 15.1875 32.171875 
z
" id="DejaVuSans-101"/>
     <path id="DejaVuSans-32"/>
     <path d="M 52 44.1875 
Q 55.375 50.25 60.0625 53.125 
Q 64.75 56 71.09375 56 
Q 79.640625 56 84.28125 50.015625 
Q 88.921875 44.046875 88.921875 33.015625 
L 88.921875 0 
L 79.890625 0 
L 79.890625 32.71875 
Q 79.890625 40.578125 77.09375 44.375 
Q 74.3125 48.1875 68.609375 48.1875 
Q 61.625 48.1875 57.5625 43.546875 
Q 53.515625 38.921875 53.515625 30.90625 
L 53.515625 0 
L 44.484375 0 
L 44.484375 32.71875 
Q 44.484375 40.625 41.703125 44.40625 
Q 38.921875 48.1875 33.109375 48.1875 
Q 26.21875 48.1875 22.15625 43.53125 
Q 18.109375 38.875 18.109375 30.90625 
L 18.109375 0 
L 9.078125 0 
L 9.078125 54.6875 
L 18.109375 54.6875 
L 18.109375 46.1875 
Q 21.1875 51.21875 25.484375 53.609375 
Q 29.78125 56 35.6875 56 
Q 41.65625 56 45.828125 52.96875 
Q 50 49.953125 52 44.1875 
z
" id="DejaVuSans-109"/>
     <path d="M 9.421875 54.6875 
L 18.40625 54.6875 
L 18.40625 0 
L 9.421875 0 
z
M 9.421875 75.984375 
L 18.40625 75.984375 
L 18.40625 64.59375 
L 9.421875 64.59375 
z
" id="DejaVuSans-105"/>
     <path d="M 9.421875 75.984375 
L 18.40625 75.984375 
L 18.40625 0 
L 9.421875 0 
z
" id="DejaVuSans-108"/>
     <path d="M 30.609375 48.390625 
Q 23.390625 48.390625 19.1875 42.75 
Q 14.984375 37.109375 14.984375 27.296875 
Q 14.984375 17.484375 19.15625 11.84375 
Q 23.34375 6.203125 30.609375 6.203125 
Q 37.796875 6.203125 41.984375 11.859375 
Q 46.1875 17.53125 46.1875 27.296875 
Q 46.1875 37.015625 41.984375 42.703125 
Q 37.796875 48.390625 30.609375 48.390625 
z
M 30.609375 56 
Q 42.328125 56 49.015625 48.375 
Q 55.71875 40.765625 55.71875 27.296875 
Q 55.71875 13.875 49.015625 6.21875 
Q 42.328125 -1.421875 30.609375 -1.421875 
Q 18.84375 -1.421875 12.171875 6.21875 
Q 5.515625 13.875 5.515625 27.296875 
Q 5.515625 40.765625 12.171875 48.375 
Q 18.84375 56 30.609375 56 
z
" id="DejaVuSans-111"/>
    </defs>
    <g style="fill:#262626;" transform="translate(167.87375 19.3575)scale(0.16 -0.16)">
     <use xlink:href="#DejaVuSans-67"/>
     <use x="69.824219" xlink:href="#DejaVuSans-97"/>
     <use x="131.103516" xlink:href="#DejaVuSans-115"/>
     <use x="183.203125" xlink:href="#DejaVuSans-101"/>
     <use x="244.726562" xlink:href="#DejaVuSans-115"/>
     <use x="296.826172" xlink:href="#DejaVuSans-32"/>
     <use x="328.613281" xlink:href="#DejaVuSans-112"/>
     <use x="392.089844" xlink:href="#DejaVuSans-101"/>
     <use x="453.613281" xlink:href="#DejaVuSans-114"/>
     <use x="494.726562" xlink:href="#DejaVuSans-32"/>
     <use x="526.513672" xlink:href="#DejaVuSans-109"/>
     <use x="623.925781" xlink:href="#DejaVuSans-105"/>
     <use x="651.708984" xlink:href="#DejaVuSans-108"/>
     <use x="679.492188" xlink:href="#DejaVuSans-108"/>
     <use x="707.275391" xlink:href="#DejaVuSans-105"/>
     <use x="735.058594" xlink:href="#DejaVuSans-111"/>
     <use x="796.240234" xlink:href="#DejaVuSans-110"/>
     <use x="859.619141" xlink:href="#DejaVuSans-32"/>
     <use x="891.40625" xlink:href="#DejaVuSans-112"/>
     <use x="954.882812" xlink:href="#DejaVuSans-101"/>
     <use x="1016.40625" xlink:href="#DejaVuSans-111"/>
     <use x="1077.587891" xlink:href="#DejaVuSans-112"/>
     <use x="1141.064453" xlink:href="#DejaVuSans-108"/>
     <use x="1168.847656" xlink:href="#DejaVuSans-101"/>
    </g>
   </g>
   <g id="legend_1"/>
   <g id="PathCollection_1">
    <defs>
     <path d="M 0 2.236068 
C 0.593012 2.236068 1.161816 2.000462 1.581139 1.581139 
C 2.000462 1.161816 2.236068 0.593012 2.236068 0 
C 2.236068 -0.593012 2.000462 -1.161816 1.581139 -1.581139 
C 1.161816 -2.000462 0.593012 -2.236068 0 -2.236068 
C -0.593012 -2.236068 -1.161816 -2.000462 -1.581139 -1.581139 
C -2.000462 -1.161816 -2.236068 -0.593012 -2.236068 0 
C -2.236068 0.593012 -2.000462 1.161816 -1.581139 1.581139 
C -1.161816 2.000462 -0.593012 2.236068 0 2.236068 
z
" id="C0_0_c47e9daa05"/>
    </defs>
    <g clip-path="url(#pcc4965831f)">
     <use style="fill:#4c72b0;stroke:#4c72b0;" x="471.649" xlink:href="#C0_0_c47e9daa05" y="204.257213"/>
    </g>
    <g clip-path="url(#pcc4965831f)">
     <use style="fill:#55a868;stroke:#55a868;" x="471.649" xlink:href="#C0_0_c47e9daa05" y="252.025184"/>
    </g>
    <g clip-path="url(#pcc4965831f)">
     <use style="fill:#c44e52;stroke:#c44e52;" x="471.649" xlink:href="#C0_0_c47e9daa05" y="219.426446"/>
    </g>
    <g clip-path="url(#pcc4965831f)">
     <use style="fill:#8172b2;stroke:#8172b2;" x="471.649" xlink:href="#C0_0_c47e9daa05" y="239.638528"/>
    </g>
    <g clip-path="url(#pcc4965831f)">
     <use style="fill:#ccb974;stroke:#ccb974;" x="471.649" xlink:href="#C0_0_c47e9daa05" y="76.325789"/>
    </g>
   </g>
  </g>
 </g>
 <defs>
  <clipPath id="pcc4965831f">
   <rect height="271.8" width="446.4" x="43.105" y="25.3575"/>
  </clipPath>
 </defs>
</svg>
