<?xml version="1.0" encoding="utf-8" standalone="no"?>
<!DOCTYPE svg PUBLIC "-//W3C//DTD SVG 1.1//EN"
  "http://www.w3.org/Graphics/SVG/1.1/DTD/svg11.dtd">
<!-- Created with matplotlib (https://matplotlib.org/) -->
<svg height="342.408625pt" version="1.1" viewBox="0 0 520.749752 342.408625" width="520.749752pt" xmlns="http://www.w3.org/2000/svg" xmlns:xlink="http://www.w3.org/1999/xlink">
 <defs>
  <style type="text/css">
*{stroke-linecap:butt;stroke-linejoin:round;}
  </style>
 </defs>
 <g id="figure_1">
  <g id="patch_1">
   <path d="M 0 342.408625 
L 520.749752 342.408625 
L 520.749752 0 
L 0 0 
z
" style="fill:#ffffff;"/>
  </g>
  <g id="axes_1">
   <g id="patch_2">
    <path d="M 50.74 297.1575 
L 497.14 297.1575 
L 497.14 25.3575 
L 50.74 25.3575 
z
" style="fill:#ffffff;"/>
   </g>
   <g id="matplotlib.axis_1">
    <g id="xtick_1">
     <g id="line2d_1">
      <defs>
       <path d="M 0 0 
L 0 6 
" id="m48331cb3da" style="stroke:#262626;"/>
      </defs>
      <g>
       <use style="fill:#262626;stroke:#262626;" x="50.74" xlink:href="#m48331cb3da" y="297.1575"/>
      </g>
     </g>
    </g>
    <g id="xtick_2">
     <g id="line2d_2">
      <g>
       <use style="fill:#262626;stroke:#262626;" x="74.569181" xlink:href="#m48331cb3da" y="297.1575"/>
      </g>
     </g>
     <g id="text_1">
      <!-- Mar -->
      <defs>
       <path d="M 9.8125 72.90625 
L 24.515625 72.90625 
L 43.109375 23.296875 
L 61.8125 72.90625 
L 76.515625 72.90625 
L 76.515625 0 
L 66.890625 0 
L 66.890625 64.015625 
L 48.09375 14.015625 
L 38.1875 14.015625 
L 19.390625 64.015625 
L 19.390625 0 
L 9.8125 0 
z
" id="DejaVuSans-77"/>
       <path d="M 34.28125 27.484375 
Q 23.390625 27.484375 19.1875 25 
Q 14.984375 22.515625 14.984375 16.5 
Q 14.984375 11.71875 18.140625 8.90625 
Q 21.296875 6.109375 26.703125 6.109375 
Q 34.1875 6.109375 38.703125 11.40625 
Q 43.21875 16.703125 43.21875 25.484375 
L 43.21875 27.484375 
z
M 52.203125 31.203125 
L 52.203125 0 
L 43.21875 0 
L 43.21875 8.296875 
Q 40.140625 3.328125 35.546875 0.953125 
Q 30.953125 -1.421875 24.3125 -1.421875 
Q 15.921875 -1.421875 10.953125 3.296875 
Q 6 8.015625 6 15.921875 
Q 6 25.140625 12.171875 29.828125 
Q 18.359375 34.515625 30.609375 34.515625 
L 43.21875 34.515625 
L 43.21875 35.40625 
Q 43.21875 41.609375 39.140625 45 
Q 35.0625 48.390625 27.6875 48.390625 
Q 23 48.390625 18.546875 47.265625 
Q 14.109375 46.140625 10.015625 43.890625 
L 10.015625 52.203125 
Q 14.9375 54.109375 19.578125 55.046875 
Q 24.21875 56 28.609375 56 
Q 40.484375 56 46.34375 49.84375 
Q 52.203125 43.703125 52.203125 31.203125 
z
" id="DejaVuSans-97"/>
       <path d="M 41.109375 46.296875 
Q 39.59375 47.171875 37.8125 47.578125 
Q 36.03125 48 33.890625 48 
Q 26.265625 48 22.1875 43.046875 
Q 18.109375 38.09375 18.109375 28.8125 
L 18.109375 0 
L 9.078125 0 
L 9.078125 54.6875 
L 18.109375 54.6875 
L 18.109375 46.1875 
Q 20.953125 51.171875 25.484375 53.578125 
Q 30.03125 56 36.53125 56 
Q 37.453125 56 38.578125 55.875 
Q 39.703125 55.765625 41.0625 55.515625 
z
" id="DejaVuSans-114"/>
      </defs>
      <g style="fill:#262626;" transform="translate(63.248869 319.275625)scale(0.12 -0.12)">
       <use xlink:href="#DejaVuSans-77"/>
       <use x="86.279297" xlink:href="#DejaVuSans-97"/>
       <use x="147.558594" xlink:href="#DejaVuSans-114"/>
      </g>
      <!-- 2020 -->
      <defs>
       <path d="M 19.1875 8.296875 
L 53.609375 8.296875 
L 53.609375 0 
L 7.328125 0 
L 7.328125 8.296875 
Q 12.9375 14.109375 22.625 23.890625 
Q 32.328125 33.6875 34.8125 36.53125 
Q 39.546875 41.84375 41.421875 45.53125 
Q 43.3125 49.21875 43.3125 52.78125 
Q 43.3125 58.59375 39.234375 62.25 
Q 35.15625 65.921875 28.609375 65.921875 
Q 23.96875 65.921875 18.8125 64.3125 
Q 13.671875 62.703125 7.8125 59.421875 
L 7.8125 69.390625 
Q 13.765625 71.78125 18.9375 73 
Q 24.125 74.21875 28.421875 74.21875 
Q 39.75 74.21875 46.484375 68.546875 
Q 53.21875 62.890625 53.21875 53.421875 
Q 53.21875 48.921875 51.53125 44.890625 
Q 49.859375 40.875 45.40625 35.40625 
Q 44.1875 33.984375 37.640625 27.21875 
Q 31.109375 20.453125 19.1875 8.296875 
z
" id="DejaVuSans-50"/>
       <path d="M 31.78125 66.40625 
Q 24.171875 66.40625 20.328125 58.90625 
Q 16.5 51.421875 16.5 36.375 
Q 16.5 21.390625 20.328125 13.890625 
Q 24.171875 6.390625 31.78125 6.390625 
Q 39.453125 6.390625 43.28125 13.890625 
Q 47.125 21.390625 47.125 36.375 
Q 47.125 51.421875 43.28125 58.90625 
Q 39.453125 66.40625 31.78125 66.40625 
z
M 31.78125 74.21875 
Q 44.046875 74.21875 50.515625 64.515625 
Q 56.984375 54.828125 56.984375 36.375 
Q 56.984375 17.96875 50.515625 8.265625 
Q 44.046875 -1.421875 31.78125 -1.421875 
Q 19.53125 -1.421875 13.0625 8.265625 
Q 6.59375 17.96875 6.59375 36.375 
Q 6.59375 54.828125 13.0625 64.515625 
Q 19.53125 74.21875 31.78125 74.21875 
z
" id="DejaVuSans-48"/>
      </defs>
      <g style="fill:#262626;" transform="translate(59.299181 332.713)scale(0.12 -0.12)">
       <use xlink:href="#DejaVuSans-50"/>
       <use x="63.623047" xlink:href="#DejaVuSans-48"/>
       <use x="127.246094" xlink:href="#DejaVuSans-50"/>
       <use x="190.869141" xlink:href="#DejaVuSans-48"/>
      </g>
     </g>
    </g>
    <g id="xtick_3">
     <g id="line2d_3">
      <g>
       <use style="fill:#262626;stroke:#262626;" x="123.816157" xlink:href="#m48331cb3da" y="297.1575"/>
      </g>
     </g>
     <g id="text_2">
      <!-- Apr -->
      <defs>
       <path d="M 34.1875 63.1875 
L 20.796875 26.90625 
L 47.609375 26.90625 
z
M 28.609375 72.90625 
L 39.796875 72.90625 
L 67.578125 0 
L 57.328125 0 
L 50.6875 18.703125 
L 17.828125 18.703125 
L 11.1875 0 
L 0.78125 0 
z
" id="DejaVuSans-65"/>
       <path d="M 18.109375 8.203125 
L 18.109375 -20.796875 
L 9.078125 -20.796875 
L 9.078125 54.6875 
L 18.109375 54.6875 
L 18.109375 46.390625 
Q 20.953125 51.265625 25.265625 53.625 
Q 29.59375 56 35.59375 56 
Q 45.5625 56 51.78125 48.09375 
Q 58.015625 40.1875 58.015625 27.296875 
Q 58.015625 14.40625 51.78125 6.484375 
Q 45.5625 -1.421875 35.59375 -1.421875 
Q 29.59375 -1.421875 25.265625 0.953125 
Q 20.953125 3.328125 18.109375 8.203125 
z
M 48.6875 27.296875 
Q 48.6875 37.203125 44.609375 42.84375 
Q 40.53125 48.484375 33.40625 48.484375 
Q 26.265625 48.484375 22.1875 42.84375 
Q 18.109375 37.203125 18.109375 27.296875 
Q 18.109375 17.390625 22.1875 11.75 
Q 26.265625 6.109375 33.40625 6.109375 
Q 40.53125 6.109375 44.609375 11.75 
Q 48.6875 17.390625 48.6875 27.296875 
z
" id="DejaVuSans-112"/>
      </defs>
      <g style="fill:#262626;" transform="translate(113.436157 319.275625)scale(0.12 -0.12)">
       <use xlink:href="#DejaVuSans-65"/>
       <use x="68.408203" xlink:href="#DejaVuSans-112"/>
       <use x="131.884766" xlink:href="#DejaVuSans-114"/>
      </g>
     </g>
    </g>
    <g id="xtick_4">
     <g id="line2d_4">
      <g>
       <use style="fill:#262626;stroke:#262626;" x="171.47452" xlink:href="#m48331cb3da" y="297.1575"/>
      </g>
     </g>
     <g id="text_3">
      <!-- May -->
      <defs>
       <path d="M 32.171875 -5.078125 
Q 28.375 -14.84375 24.75 -17.8125 
Q 21.140625 -20.796875 15.09375 -20.796875 
L 7.90625 -20.796875 
L 7.90625 -13.28125 
L 13.1875 -13.28125 
Q 16.890625 -13.28125 18.9375 -11.515625 
Q 21 -9.765625 23.484375 -3.21875 
L 25.09375 0.875 
L 2.984375 54.6875 
L 12.5 54.6875 
L 29.59375 11.921875 
L 46.6875 54.6875 
L 56.203125 54.6875 
z
" id="DejaVuSans-121"/>
      </defs>
      <g style="fill:#262626;" transform="translate(159.06952 319.275625)scale(0.12 -0.12)">
       <use xlink:href="#DejaVuSans-77"/>
       <use x="86.279297" xlink:href="#DejaVuSans-97"/>
       <use x="147.558594" xlink:href="#DejaVuSans-121"/>
      </g>
     </g>
    </g>
    <g id="xtick_5">
     <g id="line2d_5">
      <g>
       <use style="fill:#262626;stroke:#262626;" x="220.721495" xlink:href="#m48331cb3da" y="297.1575"/>
      </g>
     </g>
     <g id="text_4">
      <!-- Jun -->
      <defs>
       <path d="M 9.8125 72.90625 
L 19.671875 72.90625 
L 19.671875 5.078125 
Q 19.671875 -8.109375 14.671875 -14.0625 
Q 9.671875 -20.015625 -1.421875 -20.015625 
L -5.171875 -20.015625 
L -5.171875 -11.71875 
L -2.09375 -11.71875 
Q 4.4375 -11.71875 7.125 -8.046875 
Q 9.8125 -4.390625 9.8125 5.078125 
z
" id="DejaVuSans-74"/>
       <path d="M 8.5 21.578125 
L 8.5 54.6875 
L 17.484375 54.6875 
L 17.484375 21.921875 
Q 17.484375 14.15625 20.5 10.265625 
Q 23.53125 6.390625 29.59375 6.390625 
Q 36.859375 6.390625 41.078125 11.03125 
Q 45.3125 15.671875 45.3125 23.6875 
L 45.3125 54.6875 
L 54.296875 54.6875 
L 54.296875 0 
L 45.3125 0 
L 45.3125 8.40625 
Q 42.046875 3.421875 37.71875 1 
Q 33.40625 -1.421875 27.6875 -1.421875 
Q 18.265625 -1.421875 13.375 4.4375 
Q 8.5 10.296875 8.5 21.578125 
z
M 31.109375 56 
z
" id="DejaVuSans-117"/>
       <path d="M 54.890625 33.015625 
L 54.890625 0 
L 45.90625 0 
L 45.90625 32.71875 
Q 45.90625 40.484375 42.875 44.328125 
Q 39.84375 48.1875 33.796875 48.1875 
Q 26.515625 48.1875 22.3125 43.546875 
Q 18.109375 38.921875 18.109375 30.90625 
L 18.109375 0 
L 9.078125 0 
L 9.078125 54.6875 
L 18.109375 54.6875 
L 18.109375 46.1875 
Q 21.34375 51.125 25.703125 53.5625 
Q 30.078125 56 35.796875 56 
Q 45.21875 56 50.046875 50.171875 
Q 54.890625 44.34375 54.890625 33.015625 
z
" id="DejaVuSans-110"/>
      </defs>
      <g style="fill:#262626;" transform="translate(211.346495 319.275625)scale(0.12 -0.12)">
       <use xlink:href="#DejaVuSans-74"/>
       <use x="29.492188" xlink:href="#DejaVuSans-117"/>
       <use x="92.871094" xlink:href="#DejaVuSans-110"/>
      </g>
     </g>
    </g>
    <g id="xtick_6">
     <g id="line2d_6">
      <g>
       <use style="fill:#262626;stroke:#262626;" x="268.379858" xlink:href="#m48331cb3da" y="297.1575"/>
      </g>
     </g>
     <g id="text_5">
      <!-- Jul -->
      <defs>
       <path d="M 9.421875 75.984375 
L 18.40625 75.984375 
L 18.40625 0 
L 9.421875 0 
z
" id="DejaVuSans-108"/>
      </defs>
      <g style="fill:#262626;" transform="translate(261.140483 319.275625)scale(0.12 -0.12)">
       <use xlink:href="#DejaVuSans-74"/>
       <use x="29.492188" xlink:href="#DejaVuSans-117"/>
       <use x="92.871094" xlink:href="#DejaVuSans-108"/>
      </g>
     </g>
    </g>
    <g id="xtick_7">
     <g id="line2d_7">
      <g>
       <use style="fill:#262626;stroke:#262626;" x="317.626833" xlink:href="#m48331cb3da" y="297.1575"/>
      </g>
     </g>
     <g id="text_6">
      <!-- Aug -->
      <defs>
       <path d="M 45.40625 27.984375 
Q 45.40625 37.75 41.375 43.109375 
Q 37.359375 48.484375 30.078125 48.484375 
Q 22.859375 48.484375 18.828125 43.109375 
Q 14.796875 37.75 14.796875 27.984375 
Q 14.796875 18.265625 18.828125 12.890625 
Q 22.859375 7.515625 30.078125 7.515625 
Q 37.359375 7.515625 41.375 12.890625 
Q 45.40625 18.265625 45.40625 27.984375 
z
M 54.390625 6.78125 
Q 54.390625 -7.171875 48.1875 -13.984375 
Q 42 -20.796875 29.203125 -20.796875 
Q 24.46875 -20.796875 20.265625 -20.09375 
Q 16.0625 -19.390625 12.109375 -17.921875 
L 12.109375 -9.1875 
Q 16.0625 -11.328125 19.921875 -12.34375 
Q 23.78125 -13.375 27.78125 -13.375 
Q 36.625 -13.375 41.015625 -8.765625 
Q 45.40625 -4.15625 45.40625 5.171875 
L 45.40625 9.625 
Q 42.625 4.78125 38.28125 2.390625 
Q 33.9375 0 27.875 0 
Q 17.828125 0 11.671875 7.65625 
Q 5.515625 15.328125 5.515625 27.984375 
Q 5.515625 40.671875 11.671875 48.328125 
Q 17.828125 56 27.875 56 
Q 33.9375 56 38.28125 53.609375 
Q 42.625 51.21875 45.40625 46.390625 
L 45.40625 54.6875 
L 54.390625 54.6875 
z
" id="DejaVuSans-103"/>
      </defs>
      <g style="fill:#262626;" transform="translate(305.910895 319.275625)scale(0.12 -0.12)">
       <use xlink:href="#DejaVuSans-65"/>
       <use x="68.408203" xlink:href="#DejaVuSans-117"/>
       <use x="131.787109" xlink:href="#DejaVuSans-103"/>
      </g>
     </g>
    </g>
    <g id="xtick_8">
     <g id="line2d_8">
      <g>
       <use style="fill:#262626;stroke:#262626;" x="366.873808" xlink:href="#m48331cb3da" y="297.1575"/>
      </g>
     </g>
     <g id="text_7">
      <!-- Sep -->
      <defs>
       <path d="M 53.515625 70.515625 
L 53.515625 60.890625 
Q 47.90625 63.578125 42.921875 64.890625 
Q 37.9375 66.21875 33.296875 66.21875 
Q 25.25 66.21875 20.875 63.09375 
Q 16.5 59.96875 16.5 54.203125 
Q 16.5 49.359375 19.40625 46.890625 
Q 22.3125 44.4375 30.421875 42.921875 
L 36.375 41.703125 
Q 47.40625 39.59375 52.65625 34.296875 
Q 57.90625 29 57.90625 20.125 
Q 57.90625 9.515625 50.796875 4.046875 
Q 43.703125 -1.421875 29.984375 -1.421875 
Q 24.8125 -1.421875 18.96875 -0.25 
Q 13.140625 0.921875 6.890625 3.21875 
L 6.890625 13.375 
Q 12.890625 10.015625 18.65625 8.296875 
Q 24.421875 6.59375 29.984375 6.59375 
Q 38.421875 6.59375 43.015625 9.90625 
Q 47.609375 13.234375 47.609375 19.390625 
Q 47.609375 24.75 44.3125 27.78125 
Q 41.015625 30.8125 33.5 32.328125 
L 27.484375 33.5 
Q 16.453125 35.6875 11.515625 40.375 
Q 6.59375 45.0625 6.59375 53.421875 
Q 6.59375 63.09375 13.40625 68.65625 
Q 20.21875 74.21875 32.171875 74.21875 
Q 37.3125 74.21875 42.625 73.28125 
Q 47.953125 72.359375 53.515625 70.515625 
z
" id="DejaVuSans-83"/>
       <path d="M 56.203125 29.59375 
L 56.203125 25.203125 
L 14.890625 25.203125 
Q 15.484375 15.921875 20.484375 11.0625 
Q 25.484375 6.203125 34.421875 6.203125 
Q 39.59375 6.203125 44.453125 7.46875 
Q 49.3125 8.734375 54.109375 11.28125 
L 54.109375 2.78125 
Q 49.265625 0.734375 44.1875 -0.34375 
Q 39.109375 -1.421875 33.890625 -1.421875 
Q 20.796875 -1.421875 13.15625 6.1875 
Q 5.515625 13.8125 5.515625 26.8125 
Q 5.515625 40.234375 12.765625 48.109375 
Q 20.015625 56 32.328125 56 
Q 43.359375 56 49.78125 48.890625 
Q 56.203125 41.796875 56.203125 29.59375 
z
M 47.21875 32.234375 
Q 47.125 39.59375 43.09375 43.984375 
Q 39.0625 48.390625 32.421875 48.390625 
Q 24.90625 48.390625 20.390625 44.140625 
Q 15.875 39.890625 15.1875 32.171875 
z
" id="DejaVuSans-101"/>
      </defs>
      <g style="fill:#262626;" transform="translate(355.563808 319.275625)scale(0.12 -0.12)">
       <use xlink:href="#DejaVuSans-83"/>
       <use x="63.476562" xlink:href="#DejaVuSans-101"/>
       <use x="125" xlink:href="#DejaVuSans-112"/>
      </g>
     </g>
    </g>
    <g id="xtick_9">
     <g id="line2d_9">
      <g>
       <use style="fill:#262626;stroke:#262626;" x="414.532171" xlink:href="#m48331cb3da" y="297.1575"/>
      </g>
     </g>
     <g id="text_8">
      <!-- Oct -->
      <defs>
       <path d="M 39.40625 66.21875 
Q 28.65625 66.21875 22.328125 58.203125 
Q 16.015625 50.203125 16.015625 36.375 
Q 16.015625 22.609375 22.328125 14.59375 
Q 28.65625 6.59375 39.40625 6.59375 
Q 50.140625 6.59375 56.421875 14.59375 
Q 62.703125 22.609375 62.703125 36.375 
Q 62.703125 50.203125 56.421875 58.203125 
Q 50.140625 66.21875 39.40625 66.21875 
z
M 39.40625 74.21875 
Q 54.734375 74.21875 63.90625 63.9375 
Q 73.09375 53.65625 73.09375 36.375 
Q 73.09375 19.140625 63.90625 8.859375 
Q 54.734375 -1.421875 39.40625 -1.421875 
Q 24.03125 -1.421875 14.8125 8.828125 
Q 5.609375 19.09375 5.609375 36.375 
Q 5.609375 53.65625 14.8125 63.9375 
Q 24.03125 74.21875 39.40625 74.21875 
z
" id="DejaVuSans-79"/>
       <path d="M 48.78125 52.59375 
L 48.78125 44.1875 
Q 44.96875 46.296875 41.140625 47.34375 
Q 37.3125 48.390625 33.40625 48.390625 
Q 24.65625 48.390625 19.8125 42.84375 
Q 14.984375 37.3125 14.984375 27.296875 
Q 14.984375 17.28125 19.8125 11.734375 
Q 24.65625 6.203125 33.40625 6.203125 
Q 37.3125 6.203125 41.140625 7.25 
Q 44.96875 8.296875 48.78125 10.40625 
L 48.78125 2.09375 
Q 45.015625 0.34375 40.984375 -0.53125 
Q 36.96875 -1.421875 32.421875 -1.421875 
Q 20.0625 -1.421875 12.78125 6.34375 
Q 5.515625 14.109375 5.515625 27.296875 
Q 5.515625 40.671875 12.859375 48.328125 
Q 20.21875 56 33.015625 56 
Q 37.15625 56 41.109375 55.140625 
Q 45.0625 54.296875 48.78125 52.59375 
z
" id="DejaVuSans-99"/>
       <path d="M 18.3125 70.21875 
L 18.3125 54.6875 
L 36.8125 54.6875 
L 36.8125 47.703125 
L 18.3125 47.703125 
L 18.3125 18.015625 
Q 18.3125 11.328125 20.140625 9.421875 
Q 21.96875 7.515625 27.59375 7.515625 
L 36.8125 7.515625 
L 36.8125 0 
L 27.59375 0 
Q 17.1875 0 13.234375 3.875 
Q 9.28125 7.765625 9.28125 18.015625 
L 9.28125 47.703125 
L 2.6875 47.703125 
L 2.6875 54.6875 
L 9.28125 54.6875 
L 9.28125 70.21875 
z
" id="DejaVuSans-116"/>
      </defs>
      <g style="fill:#262626;" transform="translate(404.157796 319.275625)scale(0.12 -0.12)">
       <use xlink:href="#DejaVuSans-79"/>
       <use x="78.710938" xlink:href="#DejaVuSans-99"/>
       <use x="133.691406" xlink:href="#DejaVuSans-116"/>
      </g>
     </g>
    </g>
    <g id="xtick_10">
     <g id="line2d_10">
      <g>
       <use style="fill:#262626;stroke:#262626;" x="463.779146" xlink:href="#m48331cb3da" y="297.1575"/>
      </g>
     </g>
     <g id="text_9">
      <!-- Nov -->
      <defs>
       <path d="M 9.8125 72.90625 
L 23.09375 72.90625 
L 55.421875 11.921875 
L 55.421875 72.90625 
L 64.984375 72.90625 
L 64.984375 0 
L 51.703125 0 
L 19.390625 60.984375 
L 19.390625 0 
L 9.8125 0 
z
" id="DejaVuSans-78"/>
       <path d="M 30.609375 48.390625 
Q 23.390625 48.390625 19.1875 42.75 
Q 14.984375 37.109375 14.984375 27.296875 
Q 14.984375 17.484375 19.15625 11.84375 
Q 23.34375 6.203125 30.609375 6.203125 
Q 37.796875 6.203125 41.984375 11.859375 
Q 46.1875 17.53125 46.1875 27.296875 
Q 46.1875 37.015625 41.984375 42.703125 
Q 37.796875 48.390625 30.609375 48.390625 
z
M 30.609375 56 
Q 42.328125 56 49.015625 48.375 
Q 55.71875 40.765625 55.71875 27.296875 
Q 55.71875 13.875 49.015625 6.21875 
Q 42.328125 -1.421875 30.609375 -1.421875 
Q 18.84375 -1.421875 12.171875 6.21875 
Q 5.515625 13.875 5.515625 27.296875 
Q 5.515625 40.765625 12.171875 48.375 
Q 18.84375 56 30.609375 56 
z
" id="DejaVuSans-111"/>
       <path d="M 2.984375 54.6875 
L 12.5 54.6875 
L 29.59375 8.796875 
L 46.6875 54.6875 
L 56.203125 54.6875 
L 35.6875 0 
L 23.484375 0 
z
" id="DejaVuSans-118"/>
      </defs>
      <g style="fill:#262626;" transform="translate(452.067896 319.275625)scale(0.12 -0.12)">
       <use xlink:href="#DejaVuSans-78"/>
       <use x="74.804688" xlink:href="#DejaVuSans-111"/>
       <use x="135.986328" xlink:href="#DejaVuSans-118"/>
      </g>
     </g>
    </g>
    <g id="xtick_11">
     <g id="line2d_11">
      <g>
       <use style="fill:#262626;stroke:#262626;" x="497.14" xlink:href="#m48331cb3da" y="297.1575"/>
      </g>
     </g>
    </g>
    <g id="xtick_12">
     <g id="line2d_12">
      <defs>
       <path d="M 0 0 
L 0 3 
" id="m80a1bf7da8" style="stroke:#262626;stroke-width:0.5;"/>
      </defs>
      <g>
       <use style="fill:#262626;stroke:#262626;stroke-width:0.5;" x="53.917224" xlink:href="#m80a1bf7da8" y="297.1575"/>
      </g>
     </g>
    </g>
    <g id="xtick_13">
     <g id="line2d_13">
      <g>
       <use style="fill:#262626;stroke:#262626;stroke-width:0.5;" x="65.037509" xlink:href="#m80a1bf7da8" y="297.1575"/>
      </g>
     </g>
    </g>
    <g id="xtick_14">
     <g id="line2d_14">
      <g>
       <use style="fill:#262626;stroke:#262626;stroke-width:0.5;" x="76.157794" xlink:href="#m80a1bf7da8" y="297.1575"/>
      </g>
     </g>
    </g>
    <g id="xtick_15">
     <g id="line2d_15">
      <g>
       <use style="fill:#262626;stroke:#262626;stroke-width:0.5;" x="87.278078" xlink:href="#m80a1bf7da8" y="297.1575"/>
      </g>
     </g>
    </g>
    <g id="xtick_16">
     <g id="line2d_16">
      <g>
       <use style="fill:#262626;stroke:#262626;stroke-width:0.5;" x="98.398363" xlink:href="#m80a1bf7da8" y="297.1575"/>
      </g>
     </g>
    </g>
    <g id="xtick_17">
     <g id="line2d_17">
      <g>
       <use style="fill:#262626;stroke:#262626;stroke-width:0.5;" x="109.518648" xlink:href="#m80a1bf7da8" y="297.1575"/>
      </g>
     </g>
    </g>
    <g id="xtick_18">
     <g id="line2d_18">
      <g>
       <use style="fill:#262626;stroke:#262626;stroke-width:0.5;" x="120.638932" xlink:href="#m80a1bf7da8" y="297.1575"/>
      </g>
     </g>
    </g>
    <g id="xtick_19">
     <g id="line2d_19">
      <g>
       <use style="fill:#262626;stroke:#262626;stroke-width:0.5;" x="131.759217" xlink:href="#m80a1bf7da8" y="297.1575"/>
      </g>
     </g>
    </g>
    <g id="xtick_20">
     <g id="line2d_20">
      <g>
       <use style="fill:#262626;stroke:#262626;stroke-width:0.5;" x="142.879502" xlink:href="#m80a1bf7da8" y="297.1575"/>
      </g>
     </g>
    </g>
    <g id="xtick_21">
     <g id="line2d_21">
      <g>
       <use style="fill:#262626;stroke:#262626;stroke-width:0.5;" x="153.999786" xlink:href="#m80a1bf7da8" y="297.1575"/>
      </g>
     </g>
    </g>
    <g id="xtick_22">
     <g id="line2d_22">
      <g>
       <use style="fill:#262626;stroke:#262626;stroke-width:0.5;" x="165.120071" xlink:href="#m80a1bf7da8" y="297.1575"/>
      </g>
     </g>
    </g>
    <g id="xtick_23">
     <g id="line2d_23">
      <g>
       <use style="fill:#262626;stroke:#262626;stroke-width:0.5;" x="176.240356" xlink:href="#m80a1bf7da8" y="297.1575"/>
      </g>
     </g>
    </g>
    <g id="xtick_24">
     <g id="line2d_24">
      <g>
       <use style="fill:#262626;stroke:#262626;stroke-width:0.5;" x="187.360641" xlink:href="#m80a1bf7da8" y="297.1575"/>
      </g>
     </g>
    </g>
    <g id="xtick_25">
     <g id="line2d_25">
      <g>
       <use style="fill:#262626;stroke:#262626;stroke-width:0.5;" x="198.480925" xlink:href="#m80a1bf7da8" y="297.1575"/>
      </g>
     </g>
    </g>
    <g id="xtick_26">
     <g id="line2d_26">
      <g>
       <use style="fill:#262626;stroke:#262626;stroke-width:0.5;" x="209.60121" xlink:href="#m80a1bf7da8" y="297.1575"/>
      </g>
     </g>
    </g>
    <g id="xtick_27">
     <g id="line2d_27">
      <g>
       <use style="fill:#262626;stroke:#262626;stroke-width:0.5;" x="231.841779" xlink:href="#m80a1bf7da8" y="297.1575"/>
      </g>
     </g>
    </g>
    <g id="xtick_28">
     <g id="line2d_28">
      <g>
       <use style="fill:#262626;stroke:#262626;stroke-width:0.5;" x="242.962064" xlink:href="#m80a1bf7da8" y="297.1575"/>
      </g>
     </g>
    </g>
    <g id="xtick_29">
     <g id="line2d_29">
      <g>
       <use style="fill:#262626;stroke:#262626;stroke-width:0.5;" x="254.082349" xlink:href="#m80a1bf7da8" y="297.1575"/>
      </g>
     </g>
    </g>
    <g id="xtick_30">
     <g id="line2d_30">
      <g>
       <use style="fill:#262626;stroke:#262626;stroke-width:0.5;" x="265.202633" xlink:href="#m80a1bf7da8" y="297.1575"/>
      </g>
     </g>
    </g>
    <g id="xtick_31">
     <g id="line2d_31">
      <g>
       <use style="fill:#262626;stroke:#262626;stroke-width:0.5;" x="276.322918" xlink:href="#m80a1bf7da8" y="297.1575"/>
      </g>
     </g>
    </g>
    <g id="xtick_32">
     <g id="line2d_32">
      <g>
       <use style="fill:#262626;stroke:#262626;stroke-width:0.5;" x="287.443203" xlink:href="#m80a1bf7da8" y="297.1575"/>
      </g>
     </g>
    </g>
    <g id="xtick_33">
     <g id="line2d_33">
      <g>
       <use style="fill:#262626;stroke:#262626;stroke-width:0.5;" x="298.563488" xlink:href="#m80a1bf7da8" y="297.1575"/>
      </g>
     </g>
    </g>
    <g id="xtick_34">
     <g id="line2d_34">
      <g>
       <use style="fill:#262626;stroke:#262626;stroke-width:0.5;" x="309.683772" xlink:href="#m80a1bf7da8" y="297.1575"/>
      </g>
     </g>
    </g>
    <g id="xtick_35">
     <g id="line2d_35">
      <g>
       <use style="fill:#262626;stroke:#262626;stroke-width:0.5;" x="320.804057" xlink:href="#m80a1bf7da8" y="297.1575"/>
      </g>
     </g>
    </g>
    <g id="xtick_36">
     <g id="line2d_36">
      <g>
       <use style="fill:#262626;stroke:#262626;stroke-width:0.5;" x="331.924342" xlink:href="#m80a1bf7da8" y="297.1575"/>
      </g>
     </g>
    </g>
    <g id="xtick_37">
     <g id="line2d_37">
      <g>
       <use style="fill:#262626;stroke:#262626;stroke-width:0.5;" x="343.044626" xlink:href="#m80a1bf7da8" y="297.1575"/>
      </g>
     </g>
    </g>
    <g id="xtick_38">
     <g id="line2d_38">
      <g>
       <use style="fill:#262626;stroke:#262626;stroke-width:0.5;" x="354.164911" xlink:href="#m80a1bf7da8" y="297.1575"/>
      </g>
     </g>
    </g>
    <g id="xtick_39">
     <g id="line2d_39">
      <g>
       <use style="fill:#262626;stroke:#262626;stroke-width:0.5;" x="365.285196" xlink:href="#m80a1bf7da8" y="297.1575"/>
      </g>
     </g>
    </g>
    <g id="xtick_40">
     <g id="line2d_40">
      <g>
       <use style="fill:#262626;stroke:#262626;stroke-width:0.5;" x="376.40548" xlink:href="#m80a1bf7da8" y="297.1575"/>
      </g>
     </g>
    </g>
    <g id="xtick_41">
     <g id="line2d_41">
      <g>
       <use style="fill:#262626;stroke:#262626;stroke-width:0.5;" x="387.525765" xlink:href="#m80a1bf7da8" y="297.1575"/>
      </g>
     </g>
    </g>
    <g id="xtick_42">
     <g id="line2d_42">
      <g>
       <use style="fill:#262626;stroke:#262626;stroke-width:0.5;" x="398.64605" xlink:href="#m80a1bf7da8" y="297.1575"/>
      </g>
     </g>
    </g>
    <g id="xtick_43">
     <g id="line2d_43">
      <g>
       <use style="fill:#262626;stroke:#262626;stroke-width:0.5;" x="409.766335" xlink:href="#m80a1bf7da8" y="297.1575"/>
      </g>
     </g>
    </g>
    <g id="xtick_44">
     <g id="line2d_44">
      <g>
       <use style="fill:#262626;stroke:#262626;stroke-width:0.5;" x="420.886619" xlink:href="#m80a1bf7da8" y="297.1575"/>
      </g>
     </g>
    </g>
    <g id="xtick_45">
     <g id="line2d_45">
      <g>
       <use style="fill:#262626;stroke:#262626;stroke-width:0.5;" x="432.006904" xlink:href="#m80a1bf7da8" y="297.1575"/>
      </g>
     </g>
    </g>
    <g id="xtick_46">
     <g id="line2d_46">
      <g>
       <use style="fill:#262626;stroke:#262626;stroke-width:0.5;" x="443.127189" xlink:href="#m80a1bf7da8" y="297.1575"/>
      </g>
     </g>
    </g>
    <g id="xtick_47">
     <g id="line2d_47">
      <g>
       <use style="fill:#262626;stroke:#262626;stroke-width:0.5;" x="454.247473" xlink:href="#m80a1bf7da8" y="297.1575"/>
      </g>
     </g>
    </g>
    <g id="xtick_48">
     <g id="line2d_48">
      <g>
       <use style="fill:#262626;stroke:#262626;stroke-width:0.5;" x="465.367758" xlink:href="#m80a1bf7da8" y="297.1575"/>
      </g>
     </g>
    </g>
    <g id="xtick_49">
     <g id="line2d_49">
      <g>
       <use style="fill:#262626;stroke:#262626;stroke-width:0.5;" x="476.488043" xlink:href="#m80a1bf7da8" y="297.1575"/>
      </g>
     </g>
    </g>
    <g id="xtick_50">
     <g id="line2d_50">
      <g>
       <use style="fill:#262626;stroke:#262626;stroke-width:0.5;" x="487.608327" xlink:href="#m80a1bf7da8" y="297.1575"/>
      </g>
     </g>
    </g>
   </g>
   <g id="matplotlib.axis_2">
    <g id="ytick_1">
     <g id="line2d_51">
      <path clip-path="url(#pc2f69999c0)" d="M 50.74 297.1575 
L 497.14 297.1575 
" style="fill:none;stroke:#b0b0b0;stroke-linecap:square;stroke-opacity:0.3;"/>
     </g>
     <g id="line2d_52">
      <defs>
       <path d="M 0 0 
L -6 0 
" id="m814429c1fc" style="stroke:#262626;"/>
      </defs>
      <g>
       <use style="fill:#262626;stroke:#262626;" x="50.74" xlink:href="#m814429c1fc" y="297.1575"/>
      </g>
     </g>
     <g id="text_10">
      <!-- 0 -->
      <g style="fill:#262626;" transform="translate(30.105 301.716562)scale(0.12 -0.12)">
       <use xlink:href="#DejaVuSans-48"/>
      </g>
     </g>
    </g>
    <g id="ytick_2">
     <g id="line2d_53">
      <path clip-path="url(#pc2f69999c0)" d="M 50.74 255.558508 
L 497.14 255.558508 
" style="fill:none;stroke:#b0b0b0;stroke-linecap:square;stroke-opacity:0.3;"/>
     </g>
     <g id="line2d_54">
      <g>
       <use style="fill:#262626;stroke:#262626;" x="50.74" xlink:href="#m814429c1fc" y="255.558508"/>
      </g>
     </g>
     <g id="text_11">
      <!-- 200 -->
      <g style="fill:#262626;" transform="translate(14.835 260.117571)scale(0.12 -0.12)">
       <use xlink:href="#DejaVuSans-50"/>
       <use x="63.623047" xlink:href="#DejaVuSans-48"/>
       <use x="127.246094" xlink:href="#DejaVuSans-48"/>
      </g>
     </g>
    </g>
    <g id="ytick_3">
     <g id="line2d_55">
      <path clip-path="url(#pc2f69999c0)" d="M 50.74 213.959516 
L 497.14 213.959516 
" style="fill:none;stroke:#b0b0b0;stroke-linecap:square;stroke-opacity:0.3;"/>
     </g>
     <g id="line2d_56">
      <g>
       <use style="fill:#262626;stroke:#262626;" x="50.74" xlink:href="#m814429c1fc" y="213.959516"/>
      </g>
     </g>
     <g id="text_12">
      <!-- 400 -->
      <defs>
       <path d="M 37.796875 64.3125 
L 12.890625 25.390625 
L 37.796875 25.390625 
z
M 35.203125 72.90625 
L 47.609375 72.90625 
L 47.609375 25.390625 
L 58.015625 25.390625 
L 58.015625 17.1875 
L 47.609375 17.1875 
L 47.609375 0 
L 37.796875 0 
L 37.796875 17.1875 
L 4.890625 17.1875 
L 4.890625 26.703125 
z
" id="DejaVuSans-52"/>
      </defs>
      <g style="fill:#262626;" transform="translate(14.835 218.518579)scale(0.12 -0.12)">
       <use xlink:href="#DejaVuSans-52"/>
       <use x="63.623047" xlink:href="#DejaVuSans-48"/>
       <use x="127.246094" xlink:href="#DejaVuSans-48"/>
      </g>
     </g>
    </g>
    <g id="ytick_4">
     <g id="line2d_57">
      <path clip-path="url(#pc2f69999c0)" d="M 50.74 172.360524 
L 497.14 172.360524 
" style="fill:none;stroke:#b0b0b0;stroke-linecap:square;stroke-opacity:0.3;"/>
     </g>
     <g id="line2d_58">
      <g>
       <use style="fill:#262626;stroke:#262626;" x="50.74" xlink:href="#m814429c1fc" y="172.360524"/>
      </g>
     </g>
     <g id="text_13">
      <!-- 600 -->
      <defs>
       <path d="M 33.015625 40.375 
Q 26.375 40.375 22.484375 35.828125 
Q 18.609375 31.296875 18.609375 23.390625 
Q 18.609375 15.53125 22.484375 10.953125 
Q 26.375 6.390625 33.015625 6.390625 
Q 39.65625 6.390625 43.53125 10.953125 
Q 47.40625 15.53125 47.40625 23.390625 
Q 47.40625 31.296875 43.53125 35.828125 
Q 39.65625 40.375 33.015625 40.375 
z
M 52.59375 71.296875 
L 52.59375 62.3125 
Q 48.875 64.0625 45.09375 64.984375 
Q 41.3125 65.921875 37.59375 65.921875 
Q 27.828125 65.921875 22.671875 59.328125 
Q 17.53125 52.734375 16.796875 39.40625 
Q 19.671875 43.65625 24.015625 45.921875 
Q 28.375 48.1875 33.59375 48.1875 
Q 44.578125 48.1875 50.953125 41.515625 
Q 57.328125 34.859375 57.328125 23.390625 
Q 57.328125 12.15625 50.6875 5.359375 
Q 44.046875 -1.421875 33.015625 -1.421875 
Q 20.359375 -1.421875 13.671875 8.265625 
Q 6.984375 17.96875 6.984375 36.375 
Q 6.984375 53.65625 15.1875 63.9375 
Q 23.390625 74.21875 37.203125 74.21875 
Q 40.921875 74.21875 44.703125 73.484375 
Q 48.484375 72.75 52.59375 71.296875 
z
" id="DejaVuSans-54"/>
      </defs>
      <g style="fill:#262626;" transform="translate(14.835 176.919587)scale(0.12 -0.12)">
       <use xlink:href="#DejaVuSans-54"/>
       <use x="63.623047" xlink:href="#DejaVuSans-48"/>
       <use x="127.246094" xlink:href="#DejaVuSans-48"/>
      </g>
     </g>
    </g>
    <g id="ytick_5">
     <g id="line2d_59">
      <path clip-path="url(#pc2f69999c0)" d="M 50.74 130.761532 
L 497.14 130.761532 
" style="fill:none;stroke:#b0b0b0;stroke-linecap:square;stroke-opacity:0.3;"/>
     </g>
     <g id="line2d_60">
      <g>
       <use style="fill:#262626;stroke:#262626;" x="50.74" xlink:href="#m814429c1fc" y="130.761532"/>
      </g>
     </g>
     <g id="text_14">
      <!-- 800 -->
      <defs>
       <path d="M 31.78125 34.625 
Q 24.75 34.625 20.71875 30.859375 
Q 16.703125 27.09375 16.703125 20.515625 
Q 16.703125 13.921875 20.71875 10.15625 
Q 24.75 6.390625 31.78125 6.390625 
Q 38.8125 6.390625 42.859375 10.171875 
Q 46.921875 13.96875 46.921875 20.515625 
Q 46.921875 27.09375 42.890625 30.859375 
Q 38.875 34.625 31.78125 34.625 
z
M 21.921875 38.8125 
Q 15.578125 40.375 12.03125 44.71875 
Q 8.5 49.078125 8.5 55.328125 
Q 8.5 64.0625 14.71875 69.140625 
Q 20.953125 74.21875 31.78125 74.21875 
Q 42.671875 74.21875 48.875 69.140625 
Q 55.078125 64.0625 55.078125 55.328125 
Q 55.078125 49.078125 51.53125 44.71875 
Q 48 40.375 41.703125 38.8125 
Q 48.828125 37.15625 52.796875 32.3125 
Q 56.78125 27.484375 56.78125 20.515625 
Q 56.78125 9.90625 50.3125 4.234375 
Q 43.84375 -1.421875 31.78125 -1.421875 
Q 19.734375 -1.421875 13.25 4.234375 
Q 6.78125 9.90625 6.78125 20.515625 
Q 6.78125 27.484375 10.78125 32.3125 
Q 14.796875 37.15625 21.921875 38.8125 
z
M 18.3125 54.390625 
Q 18.3125 48.734375 21.84375 45.5625 
Q 25.390625 42.390625 31.78125 42.390625 
Q 38.140625 42.390625 41.71875 45.5625 
Q 45.3125 48.734375 45.3125 54.390625 
Q 45.3125 60.0625 41.71875 63.234375 
Q 38.140625 66.40625 31.78125 66.40625 
Q 25.390625 66.40625 21.84375 63.234375 
Q 18.3125 60.0625 18.3125 54.390625 
z
" id="DejaVuSans-56"/>
      </defs>
      <g style="fill:#262626;" transform="translate(14.835 135.320595)scale(0.12 -0.12)">
       <use xlink:href="#DejaVuSans-56"/>
       <use x="63.623047" xlink:href="#DejaVuSans-48"/>
       <use x="127.246094" xlink:href="#DejaVuSans-48"/>
      </g>
     </g>
    </g>
    <g id="ytick_6">
     <g id="line2d_61">
      <path clip-path="url(#pc2f69999c0)" d="M 50.74 89.16254 
L 497.14 89.16254 
" style="fill:none;stroke:#b0b0b0;stroke-linecap:square;stroke-opacity:0.3;"/>
     </g>
     <g id="line2d_62">
      <g>
       <use style="fill:#262626;stroke:#262626;" x="50.74" xlink:href="#m814429c1fc" y="89.16254"/>
      </g>
     </g>
     <g id="text_15">
      <!-- 1000 -->
      <defs>
       <path d="M 12.40625 8.296875 
L 28.515625 8.296875 
L 28.515625 63.921875 
L 10.984375 60.40625 
L 10.984375 69.390625 
L 28.421875 72.90625 
L 38.28125 72.90625 
L 38.28125 8.296875 
L 54.390625 8.296875 
L 54.390625 0 
L 12.40625 0 
z
" id="DejaVuSans-49"/>
      </defs>
      <g style="fill:#262626;" transform="translate(7.2 93.721603)scale(0.12 -0.12)">
       <use xlink:href="#DejaVuSans-49"/>
       <use x="63.623047" xlink:href="#DejaVuSans-48"/>
       <use x="127.246094" xlink:href="#DejaVuSans-48"/>
       <use x="190.869141" xlink:href="#DejaVuSans-48"/>
      </g>
     </g>
    </g>
    <g id="ytick_7">
     <g id="line2d_63">
      <path clip-path="url(#pc2f69999c0)" d="M 50.74 47.563548 
L 497.14 47.563548 
" style="fill:none;stroke:#b0b0b0;stroke-linecap:square;stroke-opacity:0.3;"/>
     </g>
     <g id="line2d_64">
      <g>
       <use style="fill:#262626;stroke:#262626;" x="50.74" xlink:href="#m814429c1fc" y="47.563548"/>
      </g>
     </g>
     <g id="text_16">
      <!-- 1200 -->
      <g style="fill:#262626;" transform="translate(7.2 52.122611)scale(0.12 -0.12)">
       <use xlink:href="#DejaVuSans-49"/>
       <use x="63.623047" xlink:href="#DejaVuSans-50"/>
       <use x="127.246094" xlink:href="#DejaVuSans-48"/>
       <use x="190.869141" xlink:href="#DejaVuSans-48"/>
      </g>
     </g>
    </g>
   </g>
   <g id="line2d_65">
    <path clip-path="url(#pc2f69999c0)" d="M 20.55637 297.156747 
L 90.455302 297.046813 
L 98.398363 296.844263 
L 107.930036 296.123666 
L 112.695872 295.433189 
L 115.873096 294.422697 
L 119.05032 293.791704 
L 123.816157 292.132149 
L 126.993381 291.394234 
L 130.170605 290.470334 
L 136.525053 290.379977 
L 139.702278 290.663096 
L 141.29089 291.042595 
L 142.879502 291.154035 
L 144.468114 290.969556 
L 147.645338 291.170601 
L 149.23395 291.10961 
L 150.822562 290.826491 
L 152.411174 290.967297 
L 153.999786 289.98316 
L 155.588399 289.563 
L 157.177011 289.27687 
L 158.765623 288.579616 
L 160.354235 288.144396 
L 161.942847 288.301768 
L 163.531459 288.01112 
L 165.120071 288.614252 
L 166.708683 289.081097 
L 168.297295 288.625547 
L 169.885907 288.922972 
L 171.47452 288.91243 
L 174.651744 288.587898 
L 176.240356 288.78066 
L 177.828968 287.91248 
L 179.41758 288.209905 
L 181.006192 288.113524 
L 182.594804 287.897421 
L 184.183416 287.315372 
L 185.772028 287.384645 
L 187.360641 287.232544 
L 188.949253 287.894409 
L 192.126477 287.770921 
L 193.715089 287.82137 
L 195.303701 288.039733 
L 201.658149 287.438859 
L 203.246762 286.961474 
L 204.835374 286.776995 
L 206.423986 286.704709 
L 208.012598 286.331987 
L 209.60121 285.807164 
L 211.189822 285.152829 
L 214.367046 285.4239 
L 215.955658 284.92769 
L 219.132883 283.324607 
L 220.721495 283.132599 
L 222.310107 283.485744 
L 225.487331 282.966944 
L 227.075943 282.499347 
L 228.664555 282.815597 
L 231.841779 283.119045 
L 235.019004 282.299809 
L 236.607616 281.501656 
L 238.196228 281.514457 
L 239.78484 281.128934 
L 241.373452 281.378168 
L 244.550676 280.677902 
L 246.139288 279.656869 
L 249.316512 279.418929 
L 250.905125 278.769865 
L 252.493737 277.6901 
L 255.670961 273.131593 
L 257.259573 272.679808 
L 260.436797 269.911874 
L 262.025409 269.59939 
L 263.614021 268.433032 
L 265.202633 267.509133 
L 266.791246 266.19971 
L 271.557082 260.057698 
L 273.145694 256.705456 
L 274.734306 256.021002 
L 276.322918 256.591757 
L 277.91153 255.282334 
L 279.500142 254.584327 
L 281.088754 255.504462 
L 282.677367 255.588042 
L 284.265979 255.853842 
L 285.854591 254.923919 
L 287.443203 253.231232 
L 290.620427 252.586686 
L 293.797651 249.406122 
L 295.386263 249.596625 
L 296.974875 249.129781 
L 298.563488 248.975421 
L 300.1521 249.138063 
L 301.740712 246.684873 
L 303.329324 245.643509 
L 304.917936 245.824223 
L 306.506548 244.349146 
L 308.09516 246.047103 
L 309.683772 246.777489 
L 311.272384 248.526648 
L 312.860996 249.335343 
L 314.449609 251.155282 
L 316.038221 252.598734 
L 317.626833 254.855398 
L 319.215445 254.539902 
L 320.804057 255.644515 
L 322.392669 257.771668 
L 323.981281 261.965735 
L 325.569893 261.960464 
L 327.158505 262.619317 
L 330.33573 261.53654 
L 331.924342 257.978736 
L 333.512954 252.867546 
L 335.101566 250.231382 
L 336.690178 250.323245 
L 338.27879 248.138113 
L 339.867402 247.594466 
L 341.456014 248.015379 
L 343.044626 251.433882 
L 344.633238 256.17988 
L 346.221851 258.270137 
L 347.810463 259.366468 
L 350.987687 264.520577 
L 352.576299 265.957253 
L 354.164911 266.101071 
L 355.753523 265.667357 
L 357.342135 266.383436 
L 360.519359 268.244789 
L 362.107972 269.16643 
L 363.696584 269.564753 
L 365.285196 269.820764 
L 366.873808 271.324454 
L 370.051032 271.228073 
L 371.639644 271.328972 
L 373.228256 271.124163 
L 374.816868 271.824429 
L 376.40548 274.456828 
L 377.994093 274.95605 
L 379.582705 276.705962 
L 381.171317 277.867049 
L 382.759929 278.759323 
L 384.348541 279.456578 
L 385.937153 279.721625 
L 387.525765 278.805255 
L 389.114377 279.233697 
L 390.702989 278.994251 
L 392.291601 279.141081 
L 393.880214 278.851939 
L 397.057438 278.568068 
L 398.64605 278.216429 
L 401.823274 278.309045 
L 406.58911 278.982204 
L 408.177722 279.371492 
L 409.766335 280.156091 
L 411.354947 279.942999 
L 416.120783 280.116936 
L 417.709395 280.38123 
L 419.298007 279.886526 
L 420.886619 279.896315 
L 422.475231 280.303674 
L 424.063843 280.135008 
L 425.652456 279.780357 
L 427.241068 279.941493 
L 428.82968 279.98366 
L 430.418292 280.260001 
L 432.006904 280.412102 
L 433.595516 279.61922 
L 435.184128 279.566512 
L 436.77274 279.842101 
L 438.361352 279.934716 
L 439.949964 280.625947 
L 441.538577 281.105592 
L 443.127189 280.060463 
L 444.715801 279.478414 
L 446.304413 279.794663 
L 447.893025 277.547035 
L 451.070249 274.276867 
L 452.658861 273.852942 
L 454.247473 273.789692 
L 455.836085 273.413205 
L 457.424698 272.665502 
L 459.01331 274.215123 
L 462.190534 275.61942 
L 465.367758 274.235453 
L 466.95637 273.999019 
L 468.544982 273.104486 
L 470.133594 271.563147 
L 473.310819 268.881052 
L 474.899431 267.06789 
L 476.488043 265.94144 
L 478.076655 263.305277 
L 479.665267 263.368527 
L 482.842491 258.413202 
L 486.019715 254.134801 
L 487.608327 250.862375 
L 489.19694 250.976827 
L 489.19694 250.976827 
" style="fill:none;stroke:#4c72b0;stroke-linecap:square;stroke-width:2;"/>
   </g>
   <g id="line2d_66">
    <path clip-path="url(#pc2f69999c0)" d="M 20.55637 297.1575 
L 95.221139 297.057688 
L 103.164199 296.774501 
L 104.752811 296.628265 
L 109.518648 295.850662 
L 111.10726 295.416596 
L 112.695872 294.80844 
L 120.638932 289.005428 
L 122.227544 287.533784 
L 123.816157 286.354611 
L 125.404769 284.783156 
L 126.993381 282.759065 
L 128.581993 280.224309 
L 130.170605 278.241999 
L 131.759217 276.454672 
L 133.347829 274.908749 
L 134.936441 272.531835 
L 136.525053 270.793252 
L 138.113665 269.98083 
L 139.702278 270.082963 
L 141.29089 270.777004 
L 142.879502 271.113579 
L 144.468114 271.603353 
L 146.056726 273.040179 
L 147.645338 274.096327 
L 149.23395 273.961697 
L 150.822562 274.019727 
L 152.411174 273.859564 
L 153.999786 274.618598 
L 155.588399 274.425938 
L 157.177011 274.040618 
L 158.765623 273.899025 
L 160.354235 273.534595 
L 161.942847 274.214709 
L 163.531459 274.60235 
L 165.120071 274.588423 
L 166.708683 274.087042 
L 168.297295 275.273178 
L 169.885907 274.200781 
L 171.47452 275.184972 
L 173.063132 275.233718 
L 176.240356 275.653856 
L 177.828968 277.093003 
L 179.41758 276.735537 
L 181.006192 278.761949 
L 184.183416 279.539553 
L 185.772028 278.68535 
L 187.360641 279.597583 
L 188.949253 279.887734 
L 192.126477 280.888173 
L 193.715089 281.658813 
L 195.303701 281.914146 
L 196.892313 283.908061 
L 198.480925 282.954046 
L 200.069537 283.237233 
L 201.658149 283.330081 
L 203.246762 283.012076 
L 204.835374 282.935476 
L 206.423986 283.522741 
L 208.012598 283.436857 
L 211.189822 284.462829 
L 212.778434 284.402478 
L 214.367046 285.412202 
L 215.955658 286.089994 
L 219.132883 286.568162 
L 220.721495 286.995264 
L 222.310107 286.846707 
L 223.898719 287.350408 
L 225.487331 287.60342 
L 227.075943 288.255678 
L 228.664555 288.527259 
L 230.253167 288.376381 
L 235.019004 288.942755 
L 236.607616 288.996143 
L 238.196228 288.638677 
L 241.373452 289.497523 
L 242.962064 289.601977 
L 249.316512 290.867034 
L 250.905125 290.913458 
L 252.493737 290.836858 
L 255.670961 289.715716 
L 257.259573 289.293257 
L 258.848185 289.149342 
L 260.436797 288.657247 
L 266.791246 288.004988 
L 268.379858 287.666092 
L 269.96847 286.774749 
L 271.557082 286.786356 
L 276.322918 286.401035 
L 277.91153 286.108564 
L 279.500142 285.660571 
L 281.088754 285.711638 
L 282.677367 285.189366 
L 284.265979 284.785477 
L 285.854591 284.643883 
L 287.443203 285.108124 
L 290.620427 284.288739 
L 292.209039 284.30963 
L 293.797651 284.163394 
L 295.386263 284.325878 
L 296.974875 284.181963 
L 298.563488 282.951725 
L 300.1521 282.998149 
L 301.740712 283.448463 
L 303.329324 283.267409 
L 306.506548 282.438738 
L 308.09516 282.32732 
L 309.683772 282.07663 
L 311.272384 281.677383 
L 312.860996 281.565965 
L 314.449609 281.605426 
L 316.038221 282.197333 
L 319.215445 282.61515 
L 322.392669 284.075188 
L 323.981281 284.372302 
L 325.569893 284.527823 
L 327.158505 284.876004 
L 328.747117 285.091876 
L 331.924342 284.780834 
L 333.512954 284.864398 
L 336.690178 284.028764 
L 338.27879 283.935916 
L 339.867402 283.543632 
L 341.456014 283.780395 
L 343.044626 284.583532 
L 346.221851 285.586292 
L 347.810463 286.048212 
L 350.987687 286.412641 
L 355.753523 286.672616 
L 358.930747 287.357372 
L 360.519359 287.030082 
L 363.696584 286.809568 
L 365.285196 286.493884 
L 366.873808 286.04357 
L 368.46242 284.961888 
L 370.051032 284.112327 
L 371.639644 283.896455 
L 374.816868 283.775752 
L 376.40548 283.652729 
L 377.994093 284.158751 
L 379.582705 284.434975 
L 381.171317 285.187045 
L 382.759929 285.070985 
L 384.348541 284.776192 
L 385.937153 286.171236 
L 387.525765 284.655489 
L 389.114377 283.485602 
L 390.702989 283.622553 
L 392.291601 283.049215 
L 393.880214 283.657371 
L 395.468826 284.0984 
L 397.057438 282.559441 
L 398.64605 283.961449 
L 400.234662 284.551035 
L 401.823274 284.428011 
L 403.411886 284.604423 
L 405.000498 284.411763 
L 408.177722 283.587735 
L 409.766335 283.432214 
L 411.354947 281.589177 
L 414.532171 281.240996 
L 416.120783 280.40072 
L 417.709395 282.457308 
L 419.298007 280.001473 
L 420.886619 279.785601 
L 422.475231 280.825501 
L 424.063843 279.945764 
L 425.652456 278.836228 
L 427.241068 278.39752 
L 428.82968 275.02713 
L 430.418292 277.058185 
L 432.006904 276.921234 
L 433.595516 275.29639 
L 435.184128 275.324245 
L 436.77274 275.034094 
L 438.361352 274.33309 
L 439.949964 274.25649 
L 441.538577 274.056867 
L 443.127189 272.557368 
L 444.715801 273.214269 
L 446.304413 273.037858 
L 447.893025 271.858685 
L 449.481637 270.523992 
L 451.070249 269.9994 
L 452.658861 269.340178 
L 454.247473 267.432147 
L 455.836085 265.746952 
L 457.424698 263.48842 
L 459.01331 263.068282 
L 460.601922 262.508871 
L 462.190534 261.304166 
L 465.367758 260.029824 
L 466.95637 258.646386 
L 468.544982 257.625056 
L 470.133594 256.278757 
L 471.722206 253.611692 
L 473.310819 251.27656 
L 474.899431 249.19676 
L 476.488043 244.974488 
L 478.076655 241.599455 
L 479.665267 238.521537 
L 481.253879 231.075111 
L 482.842491 226.000957 
L 484.431103 223.31068 
L 486.019715 218.512749 
L 487.608327 214.678118 
L 489.19694 211.430752 
L 489.19694 211.430752 
" style="fill:none;stroke:#55a868;stroke-linecap:square;stroke-width:2;"/>
   </g>
   <g id="line2d_67">
    <path clip-path="url(#pc2f69999c0)" d="M 20.55637 297.1575 
L 93.632527 297.064084 
L 99.986975 296.830543 
L 104.752811 295.903386 
L 106.341423 295.557745 
L 109.518648 294.399383 
L 112.695872 293.448872 
L 114.284484 292.211105 
L 117.461708 290.627698 
L 119.05032 288.824763 
L 120.638932 288.31798 
L 123.816157 285.237576 
L 125.404769 285.113799 
L 126.993381 283.436976 
L 128.581993 281.253369 
L 130.170605 281.601345 
L 131.759217 280.361243 
L 133.347829 279.508819 
L 134.936441 278.240693 
L 136.525053 276.776392 
L 138.113665 276.178527 
L 139.702278 276.552193 
L 141.29089 274.79363 
L 142.879502 274.356909 
L 144.468114 274.50871 
L 147.645338 275.410178 
L 149.23395 274.532064 
L 150.822562 273.850125 
L 152.411174 274.959444 
L 153.999786 275.010823 
L 155.588399 274.242474 
L 158.765623 270.998592 
L 160.354235 268.938761 
L 161.942847 267.691653 
L 163.531459 265.522059 
L 165.120071 263.586006 
L 166.708683 262.025953 
L 168.297295 261.54953 
L 169.885907 259.830669 
L 171.47452 258.86381 
L 173.063132 258.09079 
L 174.651744 256.063655 
L 176.240356 255.220573 
L 177.828968 255.617592 
L 179.41758 255.566213 
L 181.006192 255.391058 
L 182.594804 255.977245 
L 184.183416 256.280848 
L 185.772028 259.410296 
L 187.360641 261.465455 
L 188.949253 256.80398 
L 190.537865 258.132827 
L 192.126477 256.80398 
L 193.715089 257.829224 
L 195.303701 258.247262 
L 196.892313 258.160852 
L 198.480925 255.925866 
L 200.069537 261.822772 
L 201.658149 260.166968 
L 203.246762 262.327221 
L 206.423986 261.119814 
L 208.012598 259.368258 
L 209.60121 261.028734 
L 211.189822 261.687319 
L 212.778434 264.69766 
L 214.367046 266.486583 
L 215.955658 268.936426 
L 217.54427 271.024281 
L 219.132883 273.693653 
L 220.721495 275.162625 
L 222.310107 274.368586 
L 223.898719 274.581108 
L 225.487331 276.089782 
L 227.075943 277.252815 
L 228.664555 278.565314 
L 230.253167 279.683975 
L 231.841779 278.761489 
L 233.430391 280.629815 
L 235.019004 281.720451 
L 236.607616 281.785843 
L 238.196228 282.74336 
L 239.78484 283.457995 
L 241.373452 283.964778 
L 242.962064 286.171739 
L 244.550676 286.543069 
L 246.139288 286.585107 
L 247.7279 286.998474 
L 249.316512 286.816312 
L 255.670961 286.844337 
L 257.259573 286.393603 
L 258.848185 285.821428 
L 260.436797 285.725676 
L 262.025409 285.478123 
L 263.614021 285.566869 
L 265.202633 284.849898 
L 268.379858 284.275388 
L 269.96847 284.378146 
L 271.557082 284.357127 
L 273.145694 284.044182 
L 274.734306 284.048853 
L 277.91153 284.43186 
L 279.500142 284.280059 
L 281.088754 283.656505 
L 282.677367 282.881149 
L 287.443203 281.136599 
L 289.031815 280.938089 
L 290.620427 279.88482 
L 292.209039 279.669963 
L 296.974875 278.640048 
L 298.563488 277.857686 
L 301.740712 276.860466 
L 303.329324 275.928638 
L 304.917936 275.358799 
L 306.506548 275.274724 
L 308.09516 274.282176 
L 309.683772 274.060312 
L 311.272384 273.677305 
L 312.860996 274.212113 
L 317.626833 272.488582 
L 319.215445 272.320433 
L 320.804057 271.944432 
L 322.392669 271.444655 
L 323.981281 270.283957 
L 327.158505 269.644055 
L 328.747117 268.434313 
L 331.924342 268.927084 
L 333.512954 268.382934 
L 335.101566 268.726239 
L 336.690178 268.871035 
L 338.27879 268.326884 
L 339.867402 269.193321 
L 341.456014 268.733246 
L 343.044626 267.693989 
L 344.633238 267.061093 
L 346.221851 266.236694 
L 347.810463 266.068545 
L 349.399075 266.133936 
L 350.987687 264.569212 
L 352.576299 263.938652 
L 355.753523 264.447771 
L 357.342135 264.49915 
L 358.930747 265.141388 
L 360.519359 264.599573 
L 362.107972 265.986805 
L 365.285196 265.335226 
L 366.873808 266.089563 
L 368.46242 265.839675 
L 370.051032 266.523949 
L 371.639644 259.32155 
L 373.228256 257.278068 
L 376.40548 259.868036 
L 377.994093 259.524731 
L 379.582705 261.35102 
L 381.171317 260.122595 
L 382.759929 267.507156 
L 384.348541 268.957445 
L 385.937153 269.053196 
L 387.525765 268.61881 
L 389.114377 268.779954 
L 390.702989 267.572548 
L 392.291601 267.27128 
L 393.880214 267.621591 
L 395.468826 266.563651 
L 397.057438 266.720124 
L 398.64605 266.41652 
L 400.234662 266.491254 
L 401.823274 266.682757 
L 403.411886 266.21334 
L 405.000498 264.977909 
L 406.58911 265.335226 
L 409.766335 264.141833 
L 411.354947 264.083448 
L 412.943559 263.051197 
L 414.532171 263.315098 
L 416.120783 264.076441 
L 417.709395 264.172193 
L 419.298007 264.58556 
L 420.886619 263.856913 
L 422.475231 263.721459 
L 424.063843 262.876041 
L 425.652456 260.692435 
L 427.241068 259.882048 
L 428.82968 258.679313 
L 430.418292 255.664301 
L 432.006904 254.356472 
L 433.595516 250.052314 
L 435.184128 249.258276 
L 436.77274 246.978917 
L 438.361352 241.766286 
L 439.949964 239.930655 
L 441.538577 236.705456 
L 443.127189 234.816111 
L 444.715801 234.122494 
L 446.304413 231.681993 
L 447.893025 229.643181 
L 449.481637 229.629169 
L 451.070249 224.182997 
L 452.658861 224.304438 
L 454.247473 220.94145 
L 455.836085 220.236157 
L 457.424698 215.315451 
L 459.01331 211.910426 
L 460.601922 203.72482 
L 462.190534 202.519749 
L 463.779146 192.542885 
L 465.367758 189.268642 
L 466.95637 183.210593 
L 468.544982 179.609394 
L 470.133594 171.26498 
L 471.722206 164.639426 
L 473.310819 151.185139 
L 474.899431 147.411119 
L 476.488043 136.635545 
L 478.076655 122.44794 
L 479.665267 111.4108 
L 481.253879 104.878663 
L 482.842491 95.847639 
L 484.431103 98.589409 
L 486.019715 96.914921 
L 487.608327 95.018569 
L 489.19694 94.747662 
L 489.19694 94.747662 
" style="fill:none;stroke:#c44e52;stroke-linecap:square;stroke-width:2;"/>
   </g>
   <g id="line2d_68">
    <path clip-path="url(#pc2f69999c0)" d="M 20.55637 297.1575 
L 93.632527 297.065403 
L 99.986975 296.804462 
L 103.164199 296.405375 
L 106.341423 295.85791 
L 107.930036 295.371843 
L 111.10726 295.064853 
L 112.695872 294.512272 
L 114.284484 294.092719 
L 115.873096 293.504322 
L 117.461708 293.263847 
L 119.05032 293.381526 
L 120.638932 292.803362 
L 122.227544 292.706149 
L 125.404769 292.163801 
L 126.993381 292.112636 
L 130.170605 291.28888 
L 131.759217 291.166084 
L 133.347829 290.87956 
L 134.936441 290.99724 
L 136.525053 291.247948 
L 138.113665 291.263297 
L 139.702278 291.524239 
L 141.29089 291.662384 
L 142.879502 292.102403 
L 146.056726 292.220082 
L 147.645338 292.09217 
L 149.23395 292.158684 
L 152.411174 292.015422 
L 153.999786 291.345161 
L 155.588399 291.345161 
L 158.765623 290.761881 
L 160.354235 290.066037 
L 161.942847 289.160418 
L 163.531459 288.766448 
L 165.120071 288.971107 
L 166.708683 288.469691 
L 168.297295 288.428759 
L 171.47452 286.883577 
L 173.063132 286.80683 
L 176.240356 285.911443 
L 179.41758 284.7193 
L 181.006192 284.898377 
L 182.594804 285.333279 
L 184.183416 285.31793 
L 185.772028 285.440726 
L 187.360641 285.803997 
L 188.949253 286.489607 
L 190.537865 286.827296 
L 192.126477 286.51519 
L 193.715089 285.456075 
L 195.303701 284.611853 
L 196.892313 285.005824 
L 198.480925 285.230949 
L 200.069537 284.780698 
L 201.658149 283.302031 
L 204.835374 283.184351 
L 206.423986 283.62437 
L 208.012598 282.7341 
L 209.60121 282.089421 
L 211.189822 282.109887 
L 212.778434 281.772199 
L 214.367046 280.252599 
L 215.955658 280.365162 
L 217.54427 280.175852 
L 219.132883 281.240083 
L 220.721495 281.971742 
L 222.310107 281.388461 
L 223.898719 281.2452 
L 227.075943 283.481108 
L 228.664555 284.458359 
L 231.841779 283.660185 
L 233.430391 284.289514 
L 235.019004 275.693802 
L 236.607616 276.425461 
L 238.196228 276.640354 
L 244.550676 276.225918 
L 246.139288 286.535656 
L 247.7279 285.90121 
L 249.316512 286.00354 
L 250.905125 285.450959 
L 252.493737 285.435609 
L 255.670961 285.092804 
L 258.848185 283.890428 
L 260.436797 282.805731 
L 262.025409 282.212217 
L 263.614021 281.204268 
L 265.202633 280.508424 
L 266.791246 279.065573 
L 268.379858 278.45671 
L 269.96847 278.369729 
L 273.145694 276.650587 
L 274.734306 276.517558 
L 276.322918 275.591472 
L 277.91153 276.123588 
L 279.500142 275.571006 
L 281.088754 274.225368 
L 282.677367 272.347614 
L 284.265979 272.332265 
L 285.854591 270.802433 
L 287.443203 270.116822 
L 289.031815 268.085574 
L 290.620427 267.057158 
L 292.209039 266.443179 
L 293.797651 267.333449 
L 295.386263 266.340849 
L 296.974875 266.19247 
L 298.563488 265.685937 
L 300.1521 264.529609 
L 301.740712 264.575658 
L 303.329324 264.463095 
L 304.917936 263.122573 
L 306.506548 263.30165 
L 308.09516 262.713253 
L 309.683772 263.547242 
L 311.272384 265.327783 
L 312.860996 264.708687 
L 314.449609 264.61659 
L 316.038221 265.818966 
L 317.626833 264.775201 
L 319.215445 264.897997 
L 320.804057 265.701287 
L 322.392669 265.69617 
L 323.981281 265.803617 
L 325.569893 266.315266 
L 327.158505 265.251035 
L 328.747117 265.604073 
L 330.33573 267.251585 
L 331.924342 266.683654 
L 333.512954 267.057158 
L 335.101566 269.231668 
L 336.690178 268.290233 
L 338.27879 268.991193 
L 339.867402 269.891696 
L 341.456014 269.472144 
L 343.044626 269.687037 
L 344.633238 269.676804 
L 346.221851 269.021892 
L 347.810463 270.111706 
L 349.399075 270.889413 
L 350.987687 270.654054 
L 352.576299 271.7848 
L 354.164911 271.7848 
L 355.753523 271.902479 
L 357.342135 271.493159 
L 358.930747 271.221985 
L 360.519359 271.119655 
L 362.107972 271.436878 
L 363.696584 271.032675 
L 365.285196 271.687586 
L 366.873808 270.372647 
L 368.46242 271.365247 
L 370.051032 271.662004 
L 371.639644 268.837698 
L 373.228256 267.737652 
L 374.816868 265.972461 
L 376.40548 265.189637 
L 377.994093 266.243635 
L 379.582705 264.504027 
L 381.171317 260.763869 
L 382.759929 260.559209 
L 384.348541 258.348883 
L 385.937153 254.603608 
L 387.525765 253.242621 
L 389.114377 249.717355 
L 390.702989 246.719089 
L 392.291601 244.012463 
L 393.880214 238.11826 
L 395.468826 233.165493 
L 397.057438 232.587329 
L 398.64605 230.172343 
L 400.234662 228.642511 
L 401.823274 226.677777 
L 403.411886 224.89212 
L 405.000498 224.78979 
L 409.766335 217.012717 
L 411.354947 213.497685 
L 414.532171 207.961637 
L 416.120783 206.897406 
L 417.709395 206.242494 
L 419.298007 207.910472 
L 420.886619 207.823491 
L 422.475231 209.450537 
L 424.063843 209.133314 
L 425.652456 207.941171 
L 427.241068 205.904806 
L 428.82968 206.421572 
L 430.418292 202.579084 
L 432.006904 200.583651 
L 433.595516 193.543353 
L 436.77274 185.275097 
L 438.361352 180.39396 
L 439.949964 195.339243 
L 441.538577 209.020751 
L 443.127189 181.923792 
L 444.715801 175.584454 
L 446.304413 170.35028 
L 447.893025 172.453159 
L 449.481637 170.13027 
L 451.070249 146.287402 
L 452.658861 126.957283 
L 454.247473 149.091242 
L 455.836085 145.970179 
L 457.424698 146.973013 
L 459.01331 139.267571 
L 460.601922 135.409733 
L 462.190534 129.689491 
L 463.779146 130.840703 
L 465.367758 129.039696 
L 466.95637 124.322288 
L 468.544982 114.053482 
L 470.133594 108.21556 
L 471.722206 102.822774 
L 473.310819 94.042868 
L 474.899431 90.005953 
L 476.488043 84.966206 
L 478.076655 79.015722 
L 479.665267 72.113569 
L 482.842491 51.826665 
L 484.431103 61.614521 
L 486.019715 51.494093 
L 487.608327 50.573124 
L 489.19694 50.066591 
L 489.19694 50.066591 
" style="fill:none;stroke:#8172b2;stroke-linecap:square;stroke-width:2;"/>
   </g>
   <g id="line2d_69">
    <path clip-path="url(#pc2f69999c0)" d="M 20.55637 297.1575 
L 101.575587 297.078629 
L 106.341423 296.7756 
L 107.930036 296.576348 
L 114.284484 295.24385 
L 115.873096 294.687604 
L 117.461708 294.380424 
L 119.05032 293.932107 
L 120.638932 293.276236 
L 123.816157 292.960753 
L 125.404769 292.624515 
L 126.993381 292.574702 
L 128.581993 291.985248 
L 130.170605 291.599197 
L 133.347829 291.848262 
L 134.936441 291.707125 
L 136.525053 291.271262 
L 138.113665 291.582593 
L 139.702278 291.453909 
L 141.29089 291.885622 
L 142.879502 292.026759 
L 147.645338 292.109781 
L 149.23395 291.366736 
L 150.822562 291.653161 
L 152.411174 291.387492 
L 153.999786 291.503722 
L 155.588399 291.159182 
L 158.765623 290.785585 
L 161.942847 290.677656 
L 165.120071 290.299908 
L 168.297295 289.922159 
L 169.885907 289.357611 
L 171.47452 289.19987 
L 173.063132 288.506639 
L 174.651744 288.382106 
L 176.240356 288.01266 
L 179.41758 286.759032 
L 181.006192 287.622458 
L 182.594804 286.514118 
L 184.183416 286.381283 
L 185.772028 286.86696 
L 188.949253 287.066212 
L 190.537865 286.908471 
L 192.126477 285.829189 
L 193.715089 286.186182 
L 195.303701 286.069952 
L 196.892313 285.459743 
L 198.480925 285.575973 
L 200.069537 285.40993 
L 201.658149 285.862398 
L 203.246762 286.194485 
L 204.835374 287.033004 
L 208.012598 287.186594 
L 209.60121 287.232256 
L 211.189822 287.954545 
L 212.778434 287.340184 
L 214.367046 286.995644 
L 215.955658 285.29785 
L 219.132883 282.226047 
L 220.721495 282.371335 
L 222.310107 278.614604 
L 223.898719 276.472644 
L 225.487331 276.173766 
L 227.075943 272.649494 
L 228.664555 271.163406 
L 230.253167 268.149718 
L 231.841779 265.451513 
L 233.430391 267.493847 
L 235.019004 265.044707 
L 236.607616 261.014003 
L 238.196228 260.636255 
L 239.78484 258.735058 
L 241.373452 259.677354 
L 242.962064 258.784871 
L 244.550676 251.902372 
L 246.139288 250.756672 
L 247.7279 246.489357 
L 249.316512 240.092535 
L 250.905125 233.127015 
L 252.493737 227.780417 
L 254.082349 223.425929 
L 255.670961 217.875929 
L 257.259573 218.087634 
L 258.848185 215.937372 
L 262.025409 214.326751 
L 263.614021 208.760146 
L 265.202633 214.82073 
L 266.791246 209.976414 
L 268.379858 197.759771 
L 269.96847 196.709546 
L 271.557082 192.47544 
L 273.145694 195.605358 
L 274.734306 196.846532 
L 276.322918 185.327271 
L 279.500142 195.215156 
L 281.088754 192.184864 
L 282.677367 193.160369 
L 284.265979 191.823719 
L 285.854591 196.066128 
L 287.443203 204.276974 
L 289.031815 201.819532 
L 290.620427 202.923721 
L 292.209039 206.053639 
L 295.386263 208.565045 
L 296.974875 209.299787 
L 298.563488 208.311829 
L 300.1521 211.628546 
L 301.740712 217.257417 
L 303.329324 221.196797 
L 304.917936 223.197619 
L 306.506548 219.440888 
L 308.09516 220.78999 
L 309.683772 219.955622 
L 311.272384 225.493169 
L 312.860996 223.674994 
L 314.449609 222.952705 
L 316.038221 223.616879 
L 317.626833 226.738495 
L 319.215445 228.946872 
L 320.804057 232.450388 
L 322.392669 236.788272 
L 323.981281 239.586103 
L 325.569893 243.86172 
L 328.747117 258.938461 
L 330.33573 261.404205 
L 331.924342 263.417482 
L 333.512954 262.940107 
L 335.101566 266.887789 
L 336.690178 267.65989 
L 338.27879 269.320324 
L 339.867402 270.407909 
L 341.456014 270.308283 
L 343.044626 270.619614 
L 344.633238 271.624176 
L 346.221851 272.06004 
L 347.810463 274.513332 
L 349.399075 275.9247 
L 350.987687 275.409966 
L 352.576299 278.216099 
L 354.164911 278.917633 
L 355.753523 279.050467 
L 357.342135 280.856189 
L 358.930747 281.105255 
L 360.519359 281.512061 
L 362.107972 283.010602 
L 363.696584 282.304918 
L 365.285196 282.857012 
L 366.873808 284.363856 
L 368.46242 283.031358 
L 370.051032 281.416586 
L 373.228256 279.718792 
L 374.816868 280.233527 
L 376.40548 280.117296 
L 377.994093 281.910565 
L 379.582705 282.00604 
L 381.171317 284.546504 
L 384.348541 286.323168 
L 385.937153 285.775225 
L 387.525765 285.721261 
L 389.114377 284.011014 
L 390.702989 283.197401 
L 392.291601 277.809293 
L 393.880214 271.678141 
L 395.468826 274.646166 
L 397.057438 274.309928 
L 398.64605 274.222756 
L 400.234662 273.782741 
L 401.823274 274.853721 
L 403.411886 279.768605 
L 405.000498 285.932966 
L 406.58911 283.562697 
L 408.177722 283.795158 
L 409.766335 283.616661 
L 411.354947 283.297027 
L 412.943559 283.761949 
L 414.532171 283.201552 
L 416.120783 282.998149 
L 417.709395 282.309069 
L 419.298007 282.545681 
L 420.886619 282.304918 
L 422.475231 281.582629 
L 424.063843 280.358059 
L 427.241068 279.21236 
L 430.418292 277.157573 
L 432.006904 276.480946 
L 433.595516 277.182479 
L 435.184128 275.978665 
L 436.77274 274.986555 
L 438.361352 274.712584 
L 439.949964 274.629562 
L 441.538577 274.019352 
L 443.127189 272.827991 
L 444.715801 271.462284 
L 446.304413 271.055478 
L 447.893025 271.56191 
L 449.481637 270.582254 
L 451.070249 270.233563 
L 452.658861 267.8882 
L 454.247473 267.020623 
L 455.836085 267.190818 
L 457.424698 266.808918 
L 459.01331 265.625859 
L 460.601922 263.164265 
L 462.190534 259.532066 
L 463.779146 258.618827 
L 465.367758 259.382627 
L 466.95637 256.962544 
L 468.544982 257.331991 
L 470.133594 254.264339 
L 473.310819 249.743808 
L 474.899431 248.112431 
L 476.488043 245.879148 
L 478.076655 240.68614 
L 479.665267 237.62264 
L 481.253879 239.868377 
L 482.842491 232.255287 
L 484.431103 230.673723 
L 486.019715 229.810298 
L 487.608327 228.527613 
L 489.19694 223.106296 
L 489.19694 223.106296 
" style="fill:none;stroke:#ccb974;stroke-linecap:square;stroke-width:2;"/>
   </g>
   <g id="patch_3">
    <path d="M 50.74 297.1575 
L 50.74 25.3575 
" style="fill:none;stroke:#000000;stroke-linecap:square;stroke-linejoin:miter;stroke-width:0.8;"/>
   </g>
   <g id="patch_4">
    <path d="M 50.74 297.1575 
L 497.14 297.1575 
" style="fill:none;stroke:#000000;stroke-linecap:square;stroke-linejoin:miter;stroke-width:0.8;"/>
   </g>
   <g id="text_17">
    <!-- CA -->
    <defs>
     <path d="M 64.40625 67.28125 
L 64.40625 56.890625 
Q 59.421875 61.53125 53.78125 63.8125 
Q 48.140625 66.109375 41.796875 66.109375 
Q 29.296875 66.109375 22.65625 58.46875 
Q 16.015625 50.828125 16.015625 36.375 
Q 16.015625 21.96875 22.65625 14.328125 
Q 29.296875 6.6875 41.796875 6.6875 
Q 48.140625 6.6875 53.78125 8.984375 
Q 59.421875 11.28125 64.40625 15.921875 
L 64.40625 5.609375 
Q 59.234375 2.09375 53.4375 0.328125 
Q 47.65625 -1.421875 41.21875 -1.421875 
Q 24.65625 -1.421875 15.125 8.703125 
Q 5.609375 18.84375 5.609375 36.375 
Q 5.609375 53.953125 15.125 64.078125 
Q 24.65625 74.21875 41.21875 74.21875 
Q 47.75 74.21875 53.53125 72.484375 
Q 59.328125 70.75 64.40625 67.28125 
z
" id="DejaVuSans-67"/>
    </defs>
    <g style="fill:#4c72b0;" transform="translate(494.19694 254.976827)scale(0.14 -0.14)">
     <use xlink:href="#DejaVuSans-67"/>
     <use x="69.824219" xlink:href="#DejaVuSans-65"/>
    </g>
   </g>
   <g id="text_18">
    <!-- PA -->
    <defs>
     <path d="M 19.671875 64.796875 
L 19.671875 37.40625 
L 32.078125 37.40625 
Q 38.96875 37.40625 42.71875 40.96875 
Q 46.484375 44.53125 46.484375 51.125 
Q 46.484375 57.671875 42.71875 61.234375 
Q 38.96875 64.796875 32.078125 64.796875 
z
M 9.8125 72.90625 
L 32.078125 72.90625 
Q 44.34375 72.90625 50.609375 67.359375 
Q 56.890625 61.8125 56.890625 51.125 
Q 56.890625 40.328125 50.609375 34.8125 
Q 44.34375 29.296875 32.078125 29.296875 
L 19.671875 29.296875 
L 19.671875 0 
L 9.8125 0 
z
" id="DejaVuSans-80"/>
    </defs>
    <g style="fill:#55a868;" transform="translate(494.19694 215.430752)scale(0.14 -0.14)">
     <use xlink:href="#DejaVuSans-80"/>
     <use x="53.927734" xlink:href="#DejaVuSans-65"/>
    </g>
   </g>
   <g id="text_19">
    <!-- IL -->
    <defs>
     <path d="M 9.8125 72.90625 
L 19.671875 72.90625 
L 19.671875 0 
L 9.8125 0 
z
" id="DejaVuSans-73"/>
     <path d="M 9.8125 72.90625 
L 19.671875 72.90625 
L 19.671875 8.296875 
L 55.171875 8.296875 
L 55.171875 0 
L 9.8125 0 
z
" id="DejaVuSans-76"/>
    </defs>
    <g style="fill:#c44e52;" transform="translate(494.19694 98.747662)scale(0.14 -0.14)">
     <use xlink:href="#DejaVuSans-73"/>
     <use x="29.492188" xlink:href="#DejaVuSans-76"/>
    </g>
   </g>
   <g id="text_20">
    <!-- WI -->
    <defs>
     <path d="M 3.328125 72.90625 
L 13.28125 72.90625 
L 28.609375 11.28125 
L 43.890625 72.90625 
L 54.984375 72.90625 
L 70.3125 11.28125 
L 85.59375 72.90625 
L 95.609375 72.90625 
L 77.296875 0 
L 64.890625 0 
L 49.515625 63.28125 
L 33.984375 0 
L 21.578125 0 
z
" id="DejaVuSans-87"/>
    </defs>
    <g style="fill:#8172b2;" transform="translate(494.19694 54.066591)scale(0.14 -0.14)">
     <use xlink:href="#DejaVuSans-87"/>
     <use x="98.876953" xlink:href="#DejaVuSans-73"/>
    </g>
   </g>
   <g id="text_21">
    <!-- AZ -->
    <defs>
     <path d="M 5.609375 72.90625 
L 62.890625 72.90625 
L 62.890625 65.375 
L 16.796875 8.296875 
L 64.015625 8.296875 
L 64.015625 0 
L 4.5 0 
L 4.5 7.515625 
L 50.59375 64.59375 
L 5.609375 64.59375 
z
" id="DejaVuSans-90"/>
    </defs>
    <g style="fill:#ccb974;" transform="translate(494.19694 227.106296)scale(0.14 -0.14)">
     <use xlink:href="#DejaVuSans-65"/>
     <use x="68.408203" xlink:href="#DejaVuSans-90"/>
    </g>
   </g>
   <g id="text_22">
    <!-- Cases per million people -->
    <defs>
     <path d="M 44.28125 53.078125 
L 44.28125 44.578125 
Q 40.484375 46.53125 36.375 47.5 
Q 32.28125 48.484375 27.875 48.484375 
Q 21.1875 48.484375 17.84375 46.4375 
Q 14.5 44.390625 14.5 40.28125 
Q 14.5 37.15625 16.890625 35.375 
Q 19.28125 33.59375 26.515625 31.984375 
L 29.59375 31.296875 
Q 39.15625 29.25 43.1875 25.515625 
Q 47.21875 21.78125 47.21875 15.09375 
Q 47.21875 7.46875 41.1875 3.015625 
Q 35.15625 -1.421875 24.609375 -1.421875 
Q 20.21875 -1.421875 15.453125 -0.5625 
Q 10.6875 0.296875 5.421875 2 
L 5.421875 11.28125 
Q 10.40625 8.6875 15.234375 7.390625 
Q 20.0625 6.109375 24.8125 6.109375 
Q 31.15625 6.109375 34.5625 8.28125 
Q 37.984375 10.453125 37.984375 14.40625 
Q 37.984375 18.0625 35.515625 20.015625 
Q 33.0625 21.96875 24.703125 23.78125 
L 21.578125 24.515625 
Q 13.234375 26.265625 9.515625 29.90625 
Q 5.8125 33.546875 5.8125 39.890625 
Q 5.8125 47.609375 11.28125 51.796875 
Q 16.75 56 26.8125 56 
Q 31.78125 56 36.171875 55.265625 
Q 40.578125 54.546875 44.28125 53.078125 
z
" id="DejaVuSans-115"/>
     <path id="DejaVuSans-32"/>
     <path d="M 52 44.1875 
Q 55.375 50.25 60.0625 53.125 
Q 64.75 56 71.09375 56 
Q 79.640625 56 84.28125 50.015625 
Q 88.921875 44.046875 88.921875 33.015625 
L 88.921875 0 
L 79.890625 0 
L 79.890625 32.71875 
Q 79.890625 40.578125 77.09375 44.375 
Q 74.3125 48.1875 68.609375 48.1875 
Q 61.625 48.1875 57.5625 43.546875 
Q 53.515625 38.921875 53.515625 30.90625 
L 53.515625 0 
L 44.484375 0 
L 44.484375 32.71875 
Q 44.484375 40.625 41.703125 44.40625 
Q 38.921875 48.1875 33.109375 48.1875 
Q 26.21875 48.1875 22.15625 43.53125 
Q 18.109375 38.875 18.109375 30.90625 
L 18.109375 0 
L 9.078125 0 
L 9.078125 54.6875 
L 18.109375 54.6875 
L 18.109375 46.1875 
Q 21.1875 51.21875 25.484375 53.609375 
Q 29.78125 56 35.6875 56 
Q 41.65625 56 45.828125 52.96875 
Q 50 49.953125 52 44.1875 
z
" id="DejaVuSans-109"/>
     <path d="M 9.421875 54.6875 
L 18.40625 54.6875 
L 18.40625 0 
L 9.421875 0 
z
M 9.421875 75.984375 
L 18.40625 75.984375 
L 18.40625 64.59375 
L 9.421875 64.59375 
z
" id="DejaVuSans-105"/>
    </defs>
    <g style="fill:#262626;" transform="translate(175.50875 19.3575)scale(0.16 -0.16)">
     <use xlink:href="#DejaVuSans-67"/>
     <use x="69.824219" xlink:href="#DejaVuSans-97"/>
     <use x="131.103516" xlink:href="#DejaVuSans-115"/>
     <use x="183.203125" xlink:href="#DejaVuSans-101"/>
     <use x="244.726562" xlink:href="#DejaVuSans-115"/>
     <use x="296.826172" xlink:href="#DejaVuSans-32"/>
     <use x="328.613281" xlink:href="#DejaVuSans-112"/>
     <use x="392.089844" xlink:href="#DejaVuSans-101"/>
     <use x="453.613281" xlink:href="#DejaVuSans-114"/>
     <use x="494.726562" xlink:href="#DejaVuSans-32"/>
     <use x="526.513672" xlink:href="#DejaVuSans-109"/>
     <use x="623.925781" xlink:href="#DejaVuSans-105"/>
     <use x="651.708984" xlink:href="#DejaVuSans-108"/>
     <use x="679.492188" xlink:href="#DejaVuSans-108"/>
     <use x="707.275391" xlink:href="#DejaVuSans-105"/>
     <use x="735.058594" xlink:href="#DejaVuSans-111"/>
     <use x="796.240234" xlink:href="#DejaVuSans-110"/>
     <use x="859.619141" xlink:href="#DejaVuSans-32"/>
     <use x="891.40625" xlink:href="#DejaVuSans-112"/>
     <use x="954.882812" xlink:href="#DejaVuSans-101"/>
     <use x="1016.40625" xlink:href="#DejaVuSans-111"/>
     <use x="1077.587891" xlink:href="#DejaVuSans-112"/>
     <use x="1141.064453" xlink:href="#DejaVuSans-108"/>
     <use x="1168.847656" xlink:href="#DejaVuSans-101"/>
    </g>
   </g>
   <g id="legend_1"/>
   <g id="PathCollection_1">
    <defs>
     <path d="M 0 2.236068 
C 0.593012 2.236068 1.161816 2.000462 1.581139 1.581139 
C 2.000462 1.161816 2.236068 0.593012 2.236068 0 
C 2.236068 -0.593012 2.000462 -1.161816 1.581139 -1.581139 
C 1.161816 -2.000462 0.593012 -2.236068 0 -2.236068 
C -0.593012 -2.236068 -1.161816 -2.000462 -1.581139 -1.581139 
C -2.000462 -1.161816 -2.236068 -0.593012 -2.236068 0 
C -2.236068 0.593012 -2.000462 1.161816 -1.581139 1.581139 
C -1.161816 2.000462 -0.593012 2.236068 0 2.236068 
z
" id="C0_0_9816e20dc0"/>
    </defs>
    <g clip-path="url(#pc2f69999c0)">
     <use style="fill:#4c72b0;stroke:#4c72b0;" x="489.19694" xlink:href="#C0_0_9816e20dc0" y="250.976827"/>
    </g>
    <g clip-path="url(#pc2f69999c0)">
     <use style="fill:#55a868;stroke:#55a868;" x="489.19694" xlink:href="#C0_0_9816e20dc0" y="211.430752"/>
    </g>
    <g clip-path="url(#pc2f69999c0)">
     <use style="fill:#c44e52;stroke:#c44e52;" x="489.19694" xlink:href="#C0_0_9816e20dc0" y="94.747662"/>
    </g>
    <g clip-path="url(#pc2f69999c0)">
     <use style="fill:#8172b2;stroke:#8172b2;" x="489.19694" xlink:href="#C0_0_9816e20dc0" y="50.066591"/>
    </g>
    <g clip-path="url(#pc2f69999c0)">
     <use style="fill:#ccb974;stroke:#ccb974;" x="489.19694" xlink:href="#C0_0_9816e20dc0" y="223.106296"/>
    </g>
   </g>
  </g>
 </g>
 <defs>
  <clipPath id="pc2f69999c0">
   <rect height="271.8" width="446.4" x="50.74" y="25.3575"/>
  </clipPath>
 </defs>
</svg>
