<?xml version="1.0" encoding="utf-8" standalone="no"?>
<!DOCTYPE svg PUBLIC "-//W3C//DTD SVG 1.1//EN"
  "http://www.w3.org/Graphics/SVG/1.1/DTD/svg11.dtd">
<svg height="342.408625pt" version="1.1" viewBox="0 0 524.228812 342.408625" width="524.228812pt" xmlns="http://www.w3.org/2000/svg" xmlns:xlink="http://www.w3.org/1999/xlink">
 <metadata>
  <rdf:RDF xmlns:cc="http://creativecommons.org/ns#" xmlns:dc="http://purl.org/dc/elements/1.1/" xmlns:rdf="http://www.w3.org/1999/02/22-rdf-syntax-ns#">
   <cc:Work>
    <dc:type rdf:resource="http://purl.org/dc/dcmitype/StillImage"/>
    <dc:date>2021-06-07T21:55:39.840498</dc:date>
    <dc:format>image/svg+xml</dc:format>
    <dc:creator>
     <cc:Agent>
      <dc:title>Matplotlib v3.4.2, https://matplotlib.org/</dc:title>
     </cc:Agent>
    </dc:creator>
   </cc:Work>
  </rdf:RDF>
 </metadata>
 <defs>
  <style type="text/css">*{stroke-linecap:butt;stroke-linejoin:round;}</style>
 </defs>
 <g id="figure_1">
  <g id="patch_1">
   <path d="M 0 342.408625 
L 524.228812 342.408625 
L 524.228812 0 
L 0 0 
z
" style="fill:none;"/>
  </g>
  <g id="axes_1">
   <g id="patch_2">
    <path d="M 50.74 297.1575 
L 497.14 297.1575 
L 497.14 25.3575 
L 50.74 25.3575 
z
" style="fill:#ffffff;"/>
   </g>
   <g id="matplotlib.axis_1">
    <g id="xtick_1">
     <g id="line2d_1">
      <defs>
       <path d="M 0 0 
L 0 6 
" id="m0e9d6c48f3" style="stroke:#262626;"/>
      </defs>
      <g>
       <use style="fill:#262626;stroke:#262626;" x="50.74" xlink:href="#m0e9d6c48f3" y="297.1575"/>
      </g>
     </g>
    </g>
    <g id="xtick_2">
     <g id="line2d_2">
      <g>
       <use style="fill:#262626;stroke:#262626;" x="107.8792" xlink:href="#m0e9d6c48f3" y="297.1575"/>
      </g>
     </g>
     <g id="text_1">
      <!-- Apr -->
      <g style="fill:#262626;" transform="translate(97.4992 319.275625)scale(0.12 -0.12)">
       <defs>
        <path d="M 2188 4044 
L 1331 1722 
L 3047 1722 
L 2188 4044 
z
M 1831 4666 
L 2547 4666 
L 4325 0 
L 3669 0 
L 3244 1197 
L 1141 1197 
L 716 0 
L 50 0 
L 1831 4666 
z
" id="DejaVuSans-41" transform="scale(0.015625)"/>
        <path d="M 1159 525 
L 1159 -1331 
L 581 -1331 
L 581 3500 
L 1159 3500 
L 1159 2969 
Q 1341 3281 1617 3432 
Q 1894 3584 2278 3584 
Q 2916 3584 3314 3078 
Q 3713 2572 3713 1747 
Q 3713 922 3314 415 
Q 2916 -91 2278 -91 
Q 1894 -91 1617 61 
Q 1341 213 1159 525 
z
M 3116 1747 
Q 3116 2381 2855 2742 
Q 2594 3103 2138 3103 
Q 1681 3103 1420 2742 
Q 1159 2381 1159 1747 
Q 1159 1113 1420 752 
Q 1681 391 2138 391 
Q 2594 391 2855 752 
Q 3116 1113 3116 1747 
z
" id="DejaVuSans-70" transform="scale(0.015625)"/>
        <path d="M 2631 2963 
Q 2534 3019 2420 3045 
Q 2306 3072 2169 3072 
Q 1681 3072 1420 2755 
Q 1159 2438 1159 1844 
L 1159 0 
L 581 0 
L 581 3500 
L 1159 3500 
L 1159 2956 
Q 1341 3275 1631 3429 
Q 1922 3584 2338 3584 
Q 2397 3584 2469 3576 
Q 2541 3569 2628 3553 
L 2631 2963 
z
" id="DejaVuSans-72" transform="scale(0.015625)"/>
       </defs>
       <use xlink:href="#DejaVuSans-41"/>
       <use x="68.408203" xlink:href="#DejaVuSans-70"/>
       <use x="131.884766" xlink:href="#DejaVuSans-72"/>
      </g>
     </g>
    </g>
    <g id="xtick_3">
     <g id="line2d_3">
      <g>
       <use style="fill:#262626;stroke:#262626;" x="189.124" xlink:href="#m0e9d6c48f3" y="297.1575"/>
      </g>
     </g>
     <g id="text_2">
      <!-- Jul -->
      <g style="fill:#262626;" transform="translate(181.884625 319.275625)scale(0.12 -0.12)">
       <defs>
        <path d="M 628 4666 
L 1259 4666 
L 1259 325 
Q 1259 -519 939 -900 
Q 619 -1281 -91 -1281 
L -331 -1281 
L -331 -750 
L -134 -750 
Q 284 -750 456 -515 
Q 628 -281 628 325 
L 628 4666 
z
" id="DejaVuSans-4a" transform="scale(0.015625)"/>
        <path d="M 544 1381 
L 544 3500 
L 1119 3500 
L 1119 1403 
Q 1119 906 1312 657 
Q 1506 409 1894 409 
Q 2359 409 2629 706 
Q 2900 1003 2900 1516 
L 2900 3500 
L 3475 3500 
L 3475 0 
L 2900 0 
L 2900 538 
Q 2691 219 2414 64 
Q 2138 -91 1772 -91 
Q 1169 -91 856 284 
Q 544 659 544 1381 
z
M 1991 3584 
L 1991 3584 
z
" id="DejaVuSans-75" transform="scale(0.015625)"/>
        <path d="M 603 4863 
L 1178 4863 
L 1178 0 
L 603 0 
L 603 4863 
z
" id="DejaVuSans-6c" transform="scale(0.015625)"/>
       </defs>
       <use xlink:href="#DejaVuSans-4a"/>
       <use x="29.492188" xlink:href="#DejaVuSans-75"/>
       <use x="92.871094" xlink:href="#DejaVuSans-6c"/>
      </g>
     </g>
    </g>
    <g id="xtick_4">
     <g id="line2d_4">
      <g>
       <use style="fill:#262626;stroke:#262626;" x="271.2616" xlink:href="#m0e9d6c48f3" y="297.1575"/>
      </g>
     </g>
     <g id="text_3">
      <!-- Oct -->
      <g style="fill:#262626;" transform="translate(260.887225 319.275625)scale(0.12 -0.12)">
       <defs>
        <path d="M 2522 4238 
Q 1834 4238 1429 3725 
Q 1025 3213 1025 2328 
Q 1025 1447 1429 934 
Q 1834 422 2522 422 
Q 3209 422 3611 934 
Q 4013 1447 4013 2328 
Q 4013 3213 3611 3725 
Q 3209 4238 2522 4238 
z
M 2522 4750 
Q 3503 4750 4090 4092 
Q 4678 3434 4678 2328 
Q 4678 1225 4090 567 
Q 3503 -91 2522 -91 
Q 1538 -91 948 565 
Q 359 1222 359 2328 
Q 359 3434 948 4092 
Q 1538 4750 2522 4750 
z
" id="DejaVuSans-4f" transform="scale(0.015625)"/>
        <path d="M 3122 3366 
L 3122 2828 
Q 2878 2963 2633 3030 
Q 2388 3097 2138 3097 
Q 1578 3097 1268 2742 
Q 959 2388 959 1747 
Q 959 1106 1268 751 
Q 1578 397 2138 397 
Q 2388 397 2633 464 
Q 2878 531 3122 666 
L 3122 134 
Q 2881 22 2623 -34 
Q 2366 -91 2075 -91 
Q 1284 -91 818 406 
Q 353 903 353 1747 
Q 353 2603 823 3093 
Q 1294 3584 2113 3584 
Q 2378 3584 2631 3529 
Q 2884 3475 3122 3366 
z
" id="DejaVuSans-63" transform="scale(0.015625)"/>
        <path d="M 1172 4494 
L 1172 3500 
L 2356 3500 
L 2356 3053 
L 1172 3053 
L 1172 1153 
Q 1172 725 1289 603 
Q 1406 481 1766 481 
L 2356 481 
L 2356 0 
L 1766 0 
Q 1100 0 847 248 
Q 594 497 594 1153 
L 594 3053 
L 172 3053 
L 172 3500 
L 594 3500 
L 594 4494 
L 1172 4494 
z
" id="DejaVuSans-74" transform="scale(0.015625)"/>
       </defs>
       <use xlink:href="#DejaVuSans-4f"/>
       <use x="78.710938" xlink:href="#DejaVuSans-63"/>
       <use x="133.691406" xlink:href="#DejaVuSans-74"/>
      </g>
     </g>
    </g>
    <g id="xtick_5">
     <g id="line2d_5">
      <g>
       <use style="fill:#262626;stroke:#262626;" x="353.3992" xlink:href="#m0e9d6c48f3" y="297.1575"/>
      </g>
     </g>
     <g id="text_4">
      <!-- Jan -->
      <g style="fill:#262626;" transform="translate(344.149825 319.275625)scale(0.12 -0.12)">
       <defs>
        <path d="M 2194 1759 
Q 1497 1759 1228 1600 
Q 959 1441 959 1056 
Q 959 750 1161 570 
Q 1363 391 1709 391 
Q 2188 391 2477 730 
Q 2766 1069 2766 1631 
L 2766 1759 
L 2194 1759 
z
M 3341 1997 
L 3341 0 
L 2766 0 
L 2766 531 
Q 2569 213 2275 61 
Q 1981 -91 1556 -91 
Q 1019 -91 701 211 
Q 384 513 384 1019 
Q 384 1609 779 1909 
Q 1175 2209 1959 2209 
L 2766 2209 
L 2766 2266 
Q 2766 2663 2505 2880 
Q 2244 3097 1772 3097 
Q 1472 3097 1187 3025 
Q 903 2953 641 2809 
L 641 3341 
Q 956 3463 1253 3523 
Q 1550 3584 1831 3584 
Q 2591 3584 2966 3190 
Q 3341 2797 3341 1997 
z
" id="DejaVuSans-61" transform="scale(0.015625)"/>
        <path d="M 3513 2113 
L 3513 0 
L 2938 0 
L 2938 2094 
Q 2938 2591 2744 2837 
Q 2550 3084 2163 3084 
Q 1697 3084 1428 2787 
Q 1159 2491 1159 1978 
L 1159 0 
L 581 0 
L 581 3500 
L 1159 3500 
L 1159 2956 
Q 1366 3272 1645 3428 
Q 1925 3584 2291 3584 
Q 2894 3584 3203 3211 
Q 3513 2838 3513 2113 
z
" id="DejaVuSans-6e" transform="scale(0.015625)"/>
       </defs>
       <use xlink:href="#DejaVuSans-4a"/>
       <use x="29.492188" xlink:href="#DejaVuSans-61"/>
       <use x="90.771484" xlink:href="#DejaVuSans-6e"/>
      </g>
      <!-- 2021 -->
      <g style="fill:#262626;" transform="translate(338.1292 332.713)scale(0.12 -0.12)">
       <defs>
        <path d="M 1228 531 
L 3431 531 
L 3431 0 
L 469 0 
L 469 531 
Q 828 903 1448 1529 
Q 2069 2156 2228 2338 
Q 2531 2678 2651 2914 
Q 2772 3150 2772 3378 
Q 2772 3750 2511 3984 
Q 2250 4219 1831 4219 
Q 1534 4219 1204 4116 
Q 875 4013 500 3803 
L 500 4441 
Q 881 4594 1212 4672 
Q 1544 4750 1819 4750 
Q 2544 4750 2975 4387 
Q 3406 4025 3406 3419 
Q 3406 3131 3298 2873 
Q 3191 2616 2906 2266 
Q 2828 2175 2409 1742 
Q 1991 1309 1228 531 
z
" id="DejaVuSans-32" transform="scale(0.015625)"/>
        <path d="M 2034 4250 
Q 1547 4250 1301 3770 
Q 1056 3291 1056 2328 
Q 1056 1369 1301 889 
Q 1547 409 2034 409 
Q 2525 409 2770 889 
Q 3016 1369 3016 2328 
Q 3016 3291 2770 3770 
Q 2525 4250 2034 4250 
z
M 2034 4750 
Q 2819 4750 3233 4129 
Q 3647 3509 3647 2328 
Q 3647 1150 3233 529 
Q 2819 -91 2034 -91 
Q 1250 -91 836 529 
Q 422 1150 422 2328 
Q 422 3509 836 4129 
Q 1250 4750 2034 4750 
z
" id="DejaVuSans-30" transform="scale(0.015625)"/>
        <path d="M 794 531 
L 1825 531 
L 1825 4091 
L 703 3866 
L 703 4441 
L 1819 4666 
L 2450 4666 
L 2450 531 
L 3481 531 
L 3481 0 
L 794 0 
L 794 531 
z
" id="DejaVuSans-31" transform="scale(0.015625)"/>
       </defs>
       <use xlink:href="#DejaVuSans-32"/>
       <use x="63.623047" xlink:href="#DejaVuSans-30"/>
       <use x="127.246094" xlink:href="#DejaVuSans-32"/>
       <use x="190.869141" xlink:href="#DejaVuSans-31"/>
      </g>
     </g>
    </g>
    <g id="xtick_6">
     <g id="line2d_6">
      <g>
       <use style="fill:#262626;stroke:#262626;" x="433.7512" xlink:href="#m0e9d6c48f3" y="297.1575"/>
      </g>
     </g>
     <g id="text_5">
      <!-- Apr -->
      <g style="fill:#262626;" transform="translate(423.3712 319.275625)scale(0.12 -0.12)">
       <use xlink:href="#DejaVuSans-41"/>
       <use x="68.408203" xlink:href="#DejaVuSans-70"/>
       <use x="131.884766" xlink:href="#DejaVuSans-72"/>
      </g>
     </g>
    </g>
    <g id="xtick_7">
     <g id="line2d_7">
      <g>
       <use style="fill:#262626;stroke:#262626;" x="497.14" xlink:href="#m0e9d6c48f3" y="297.1575"/>
      </g>
     </g>
    </g>
    <g id="xtick_8">
     <g id="line2d_8">
      <defs>
       <path d="M 0 0 
L 0 3 
" id="m60f5e8e7bc" style="stroke:#262626;stroke-width:0.5;"/>
      </defs>
      <g>
       <use style="fill:#262626;stroke:#262626;stroke-width:0.5;" x="54.3112" xlink:href="#m60f5e8e7bc" y="297.1575"/>
      </g>
     </g>
    </g>
    <g id="xtick_9">
     <g id="line2d_9">
      <g>
       <use style="fill:#262626;stroke:#262626;stroke-width:0.5;" x="80.2024" xlink:href="#m60f5e8e7bc" y="297.1575"/>
      </g>
     </g>
    </g>
    <g id="xtick_10">
     <g id="line2d_10">
      <g>
       <use style="fill:#262626;stroke:#262626;stroke-width:0.5;" x="134.6632" xlink:href="#m60f5e8e7bc" y="297.1575"/>
      </g>
     </g>
    </g>
    <g id="xtick_11">
     <g id="line2d_11">
      <g>
       <use style="fill:#262626;stroke:#262626;stroke-width:0.5;" x="162.34" xlink:href="#m60f5e8e7bc" y="297.1575"/>
      </g>
     </g>
    </g>
    <g id="xtick_12">
     <g id="line2d_12">
      <g>
       <use style="fill:#262626;stroke:#262626;stroke-width:0.5;" x="216.8008" xlink:href="#m60f5e8e7bc" y="297.1575"/>
      </g>
     </g>
    </g>
    <g id="xtick_13">
     <g id="line2d_13">
      <g>
       <use style="fill:#262626;stroke:#262626;stroke-width:0.5;" x="244.4776" xlink:href="#m60f5e8e7bc" y="297.1575"/>
      </g>
     </g>
    </g>
    <g id="xtick_14">
     <g id="line2d_14">
      <g>
       <use style="fill:#262626;stroke:#262626;stroke-width:0.5;" x="298.9384" xlink:href="#m60f5e8e7bc" y="297.1575"/>
      </g>
     </g>
    </g>
    <g id="xtick_15">
     <g id="line2d_15">
      <g>
       <use style="fill:#262626;stroke:#262626;stroke-width:0.5;" x="325.7224" xlink:href="#m60f5e8e7bc" y="297.1575"/>
      </g>
     </g>
    </g>
    <g id="xtick_16">
     <g id="line2d_16">
      <g>
       <use style="fill:#262626;stroke:#262626;stroke-width:0.5;" x="381.076" xlink:href="#m60f5e8e7bc" y="297.1575"/>
      </g>
     </g>
    </g>
    <g id="xtick_17">
     <g id="line2d_17">
      <g>
       <use style="fill:#262626;stroke:#262626;stroke-width:0.5;" x="406.0744" xlink:href="#m60f5e8e7bc" y="297.1575"/>
      </g>
     </g>
    </g>
    <g id="xtick_18">
     <g id="line2d_18">
      <g>
       <use style="fill:#262626;stroke:#262626;stroke-width:0.5;" x="460.5352" xlink:href="#m60f5e8e7bc" y="297.1575"/>
      </g>
     </g>
    </g>
    <g id="xtick_19">
     <g id="line2d_19">
      <g>
       <use style="fill:#262626;stroke:#262626;stroke-width:0.5;" x="488.212" xlink:href="#m60f5e8e7bc" y="297.1575"/>
      </g>
     </g>
    </g>
   </g>
   <g id="matplotlib.axis_2">
    <g id="ytick_1">
     <g id="line2d_20">
      <path clip-path="url(#p8ed4b03ff6)" d="M 50.74 297.1575 
L 497.14 297.1575 
" style="fill:none;stroke:#b0b0b0;stroke-linecap:square;stroke-opacity:0.3;"/>
     </g>
     <g id="line2d_21">
      <defs>
       <path d="M 0 0 
L -6 0 
" id="m69b5062f88" style="stroke:#262626;"/>
      </defs>
      <g>
       <use style="fill:#262626;stroke:#262626;" x="50.74" xlink:href="#m69b5062f88" y="297.1575"/>
      </g>
     </g>
     <g id="text_6">
      <!-- 0 -->
      <g style="fill:#262626;" transform="translate(30.105 301.716562)scale(0.12 -0.12)">
       <use xlink:href="#DejaVuSans-30"/>
      </g>
     </g>
    </g>
    <g id="ytick_2">
     <g id="line2d_22">
      <path clip-path="url(#p8ed4b03ff6)" d="M 50.74 263.11538 
L 497.14 263.11538 
" style="fill:none;stroke:#b0b0b0;stroke-linecap:square;stroke-opacity:0.3;"/>
     </g>
     <g id="line2d_23">
      <g>
       <use style="fill:#262626;stroke:#262626;" x="50.74" xlink:href="#m69b5062f88" y="263.11538"/>
      </g>
     </g>
     <g id="text_7">
      <!-- 200 -->
      <g style="fill:#262626;" transform="translate(14.835 267.674443)scale(0.12 -0.12)">
       <use xlink:href="#DejaVuSans-32"/>
       <use x="63.623047" xlink:href="#DejaVuSans-30"/>
       <use x="127.246094" xlink:href="#DejaVuSans-30"/>
      </g>
     </g>
    </g>
    <g id="ytick_3">
     <g id="line2d_24">
      <path clip-path="url(#p8ed4b03ff6)" d="M 50.74 229.07326 
L 497.14 229.07326 
" style="fill:none;stroke:#b0b0b0;stroke-linecap:square;stroke-opacity:0.3;"/>
     </g>
     <g id="line2d_25">
      <g>
       <use style="fill:#262626;stroke:#262626;" x="50.74" xlink:href="#m69b5062f88" y="229.07326"/>
      </g>
     </g>
     <g id="text_8">
      <!-- 400 -->
      <g style="fill:#262626;" transform="translate(14.835 233.632323)scale(0.12 -0.12)">
       <defs>
        <path d="M 2419 4116 
L 825 1625 
L 2419 1625 
L 2419 4116 
z
M 2253 4666 
L 3047 4666 
L 3047 1625 
L 3713 1625 
L 3713 1100 
L 3047 1100 
L 3047 0 
L 2419 0 
L 2419 1100 
L 313 1100 
L 313 1709 
L 2253 4666 
z
" id="DejaVuSans-34" transform="scale(0.015625)"/>
       </defs>
       <use xlink:href="#DejaVuSans-34"/>
       <use x="63.623047" xlink:href="#DejaVuSans-30"/>
       <use x="127.246094" xlink:href="#DejaVuSans-30"/>
      </g>
     </g>
    </g>
    <g id="ytick_4">
     <g id="line2d_26">
      <path clip-path="url(#p8ed4b03ff6)" d="M 50.74 195.03114 
L 497.14 195.03114 
" style="fill:none;stroke:#b0b0b0;stroke-linecap:square;stroke-opacity:0.3;"/>
     </g>
     <g id="line2d_27">
      <g>
       <use style="fill:#262626;stroke:#262626;" x="50.74" xlink:href="#m69b5062f88" y="195.03114"/>
      </g>
     </g>
     <g id="text_9">
      <!-- 600 -->
      <g style="fill:#262626;" transform="translate(14.835 199.590203)scale(0.12 -0.12)">
       <defs>
        <path d="M 2113 2584 
Q 1688 2584 1439 2293 
Q 1191 2003 1191 1497 
Q 1191 994 1439 701 
Q 1688 409 2113 409 
Q 2538 409 2786 701 
Q 3034 994 3034 1497 
Q 3034 2003 2786 2293 
Q 2538 2584 2113 2584 
z
M 3366 4563 
L 3366 3988 
Q 3128 4100 2886 4159 
Q 2644 4219 2406 4219 
Q 1781 4219 1451 3797 
Q 1122 3375 1075 2522 
Q 1259 2794 1537 2939 
Q 1816 3084 2150 3084 
Q 2853 3084 3261 2657 
Q 3669 2231 3669 1497 
Q 3669 778 3244 343 
Q 2819 -91 2113 -91 
Q 1303 -91 875 529 
Q 447 1150 447 2328 
Q 447 3434 972 4092 
Q 1497 4750 2381 4750 
Q 2619 4750 2861 4703 
Q 3103 4656 3366 4563 
z
" id="DejaVuSans-36" transform="scale(0.015625)"/>
       </defs>
       <use xlink:href="#DejaVuSans-36"/>
       <use x="63.623047" xlink:href="#DejaVuSans-30"/>
       <use x="127.246094" xlink:href="#DejaVuSans-30"/>
      </g>
     </g>
    </g>
    <g id="ytick_5">
     <g id="line2d_28">
      <path clip-path="url(#p8ed4b03ff6)" d="M 50.74 160.98902 
L 497.14 160.98902 
" style="fill:none;stroke:#b0b0b0;stroke-linecap:square;stroke-opacity:0.3;"/>
     </g>
     <g id="line2d_29">
      <g>
       <use style="fill:#262626;stroke:#262626;" x="50.74" xlink:href="#m69b5062f88" y="160.98902"/>
      </g>
     </g>
     <g id="text_10">
      <!-- 800 -->
      <g style="fill:#262626;" transform="translate(14.835 165.548083)scale(0.12 -0.12)">
       <defs>
        <path d="M 2034 2216 
Q 1584 2216 1326 1975 
Q 1069 1734 1069 1313 
Q 1069 891 1326 650 
Q 1584 409 2034 409 
Q 2484 409 2743 651 
Q 3003 894 3003 1313 
Q 3003 1734 2745 1975 
Q 2488 2216 2034 2216 
z
M 1403 2484 
Q 997 2584 770 2862 
Q 544 3141 544 3541 
Q 544 4100 942 4425 
Q 1341 4750 2034 4750 
Q 2731 4750 3128 4425 
Q 3525 4100 3525 3541 
Q 3525 3141 3298 2862 
Q 3072 2584 2669 2484 
Q 3125 2378 3379 2068 
Q 3634 1759 3634 1313 
Q 3634 634 3220 271 
Q 2806 -91 2034 -91 
Q 1263 -91 848 271 
Q 434 634 434 1313 
Q 434 1759 690 2068 
Q 947 2378 1403 2484 
z
M 1172 3481 
Q 1172 3119 1398 2916 
Q 1625 2713 2034 2713 
Q 2441 2713 2670 2916 
Q 2900 3119 2900 3481 
Q 2900 3844 2670 4047 
Q 2441 4250 2034 4250 
Q 1625 4250 1398 4047 
Q 1172 3844 1172 3481 
z
" id="DejaVuSans-38" transform="scale(0.015625)"/>
       </defs>
       <use xlink:href="#DejaVuSans-38"/>
       <use x="63.623047" xlink:href="#DejaVuSans-30"/>
       <use x="127.246094" xlink:href="#DejaVuSans-30"/>
      </g>
     </g>
    </g>
    <g id="ytick_6">
     <g id="line2d_30">
      <path clip-path="url(#p8ed4b03ff6)" d="M 50.74 126.9469 
L 497.14 126.9469 
" style="fill:none;stroke:#b0b0b0;stroke-linecap:square;stroke-opacity:0.3;"/>
     </g>
     <g id="line2d_31">
      <g>
       <use style="fill:#262626;stroke:#262626;" x="50.74" xlink:href="#m69b5062f88" y="126.9469"/>
      </g>
     </g>
     <g id="text_11">
      <!-- 1000 -->
      <g style="fill:#262626;" transform="translate(7.2 131.505963)scale(0.12 -0.12)">
       <use xlink:href="#DejaVuSans-31"/>
       <use x="63.623047" xlink:href="#DejaVuSans-30"/>
       <use x="127.246094" xlink:href="#DejaVuSans-30"/>
       <use x="190.869141" xlink:href="#DejaVuSans-30"/>
      </g>
     </g>
    </g>
    <g id="ytick_7">
     <g id="line2d_32">
      <path clip-path="url(#p8ed4b03ff6)" d="M 50.74 92.90478 
L 497.14 92.90478 
" style="fill:none;stroke:#b0b0b0;stroke-linecap:square;stroke-opacity:0.3;"/>
     </g>
     <g id="line2d_33">
      <g>
       <use style="fill:#262626;stroke:#262626;" x="50.74" xlink:href="#m69b5062f88" y="92.90478"/>
      </g>
     </g>
     <g id="text_12">
      <!-- 1200 -->
      <g style="fill:#262626;" transform="translate(7.2 97.463843)scale(0.12 -0.12)">
       <use xlink:href="#DejaVuSans-31"/>
       <use x="63.623047" xlink:href="#DejaVuSans-32"/>
       <use x="127.246094" xlink:href="#DejaVuSans-30"/>
       <use x="190.869141" xlink:href="#DejaVuSans-30"/>
      </g>
     </g>
    </g>
    <g id="ytick_8">
     <g id="line2d_34">
      <path clip-path="url(#p8ed4b03ff6)" d="M 50.74 58.86266 
L 497.14 58.86266 
" style="fill:none;stroke:#b0b0b0;stroke-linecap:square;stroke-opacity:0.3;"/>
     </g>
     <g id="line2d_35">
      <g>
       <use style="fill:#262626;stroke:#262626;" x="50.74" xlink:href="#m69b5062f88" y="58.86266"/>
      </g>
     </g>
     <g id="text_13">
      <!-- 1400 -->
      <g style="fill:#262626;" transform="translate(7.2 63.421723)scale(0.12 -0.12)">
       <use xlink:href="#DejaVuSans-31"/>
       <use x="63.623047" xlink:href="#DejaVuSans-34"/>
       <use x="127.246094" xlink:href="#DejaVuSans-30"/>
       <use x="190.869141" xlink:href="#DejaVuSans-30"/>
      </g>
     </g>
    </g>
   </g>
   <g id="line2d_36">
    <path clip-path="url(#p8ed4b03ff6)" d="M 49.8472 297.156884 
L 89.1304 297.06692 
L 94.4872 296.816747 
L 98.9512 296.311472 
L 101.6296 295.746427 
L 103.4152 294.919501 
L 105.2008 294.403135 
L 108.772 292.764072 
L 111.4504 291.685125 
L 115.0216 291.611182 
L 116.8072 291.842869 
L 117.7 292.153428 
L 118.5928 292.244624 
L 119.4856 292.093658 
L 121.2712 292.258181 
L 122.164 292.208269 
L 123.0568 291.976582 
L 123.9496 292.091809 
L 124.8424 291.28645 
L 127.5208 290.137874 
L 128.4136 289.781717 
L 129.3064 289.9105 
L 130.1992 289.672651 
L 131.9848 290.548256 
L 132.8776 290.175461 
L 133.7704 290.418856 
L 134.6632 290.410229 
L 136.4488 290.144652 
L 137.3416 290.302396 
L 138.2344 289.59193 
L 139.1272 289.835325 
L 140.9128 289.579607 
L 141.8056 289.103292 
L 142.6984 289.159982 
L 143.5912 289.035512 
L 144.484 289.577142 
L 146.2696 289.476087 
L 147.1624 289.517371 
L 148.0552 289.696066 
L 151.6264 289.204347 
L 152.5192 288.813684 
L 155.1976 288.298549 
L 156.9832 287.333597 
L 158.7688 287.555425 
L 159.6616 287.149357 
L 161.4472 285.83749 
L 162.34 285.680362 
L 163.2328 285.969355 
L 165.9112 285.162147 
L 166.804 285.420946 
L 168.5896 285.669271 
L 170.3752 284.998857 
L 171.268 284.345696 
L 172.1608 284.356172 
L 173.0536 284.040683 
L 173.9464 284.244641 
L 175.732 283.671586 
L 176.6248 282.836033 
L 178.4104 282.641317 
L 179.3032 282.110162 
L 180.196 281.226547 
L 181.9816 277.496139 
L 182.8744 277.126425 
L 184.66 274.861314 
L 185.5528 274.605596 
L 186.4456 273.651119 
L 187.3384 272.895055 
L 188.2312 271.823502 
L 190.9096 266.797247 
L 191.8024 264.053974 
L 192.6952 263.493858 
L 193.588 263.960929 
L 194.4808 262.889376 
L 195.3736 262.318169 
L 196.2664 263.071152 
L 197.1592 263.139549 
L 198.052 263.357064 
L 198.9448 262.59607 
L 199.8376 261.210877 
L 201.6232 260.683419 
L 203.4088 258.080637 
L 204.3016 258.236532 
L 205.1944 257.854495 
L 206.0872 257.728176 
L 206.98 257.861273 
L 207.8728 255.853729 
L 208.7656 255.00154 
L 209.6584 255.149425 
L 210.5512 253.942311 
L 211.444 255.331817 
L 212.3368 255.92952 
L 213.2296 257.360928 
L 214.1224 258.022715 
L 215.0152 259.512044 
L 215.908 260.693278 
L 216.8008 262.539997 
L 217.6936 262.281814 
L 218.5864 263.185763 
L 219.4792 264.926497 
L 220.372 268.358671 
L 221.2648 268.354357 
L 222.1576 268.893523 
L 223.9432 268.007443 
L 224.836 265.095949 
L 225.7288 260.913258 
L 226.6216 258.75598 
L 227.5144 258.831155 
L 228.4072 257.042974 
L 229.3 256.598086 
L 230.1928 256.942535 
L 231.0856 259.740034 
L 231.9784 263.623874 
L 232.8712 265.334414 
L 233.764 266.231586 
L 235.5496 270.4494 
L 236.4424 271.625089 
L 237.3352 271.742781 
L 238.228 271.387856 
L 239.1208 271.973852 
L 241.7992 274.251287 
L 243.5848 274.786755 
L 244.4776 276.017285 
L 246.2632 275.938413 
L 247.156 276.020982 
L 248.0488 275.853378 
L 248.9416 276.426434 
L 249.8344 278.580631 
L 250.7272 278.989165 
L 251.62 280.421188 
L 252.5128 281.371352 
L 253.4056 282.101536 
L 254.2984 282.672127 
L 255.1912 282.889025 
L 256.084 282.139123 
L 256.9768 282.489735 
L 257.8696 282.293787 
L 258.7624 282.413944 
L 259.6552 282.177327 
L 261.4408 281.945024 
L 262.3336 281.657263 
L 264.1192 281.733055 
L 266.7976 282.283928 
L 267.6904 282.602498 
L 268.5832 283.244567 
L 269.476 283.070185 
L 272.1544 283.212525 
L 273.0472 283.428807 
L 273.94 283.023971 
L 274.8328 283.031981 
L 275.7256 283.36534 
L 276.6184 283.227313 
L 277.5112 282.937088 
L 281.0824 283.454071 
L 281.9752 282.805224 
L 282.868 282.762091 
L 283.7608 282.987616 
L 284.6536 283.063407 
L 285.5464 283.629069 
L 286.4392 284.021581 
L 287.332 283.166311 
L 288.2248 282.689996 
L 289.1176 282.948796 
L 290.0104 281.109471 
L 291.796 278.433362 
L 292.6888 278.086448 
L 293.5816 278.034688 
L 294.4744 277.726593 
L 295.3672 277.114718 
L 296.26 278.382835 
L 298.0456 279.532027 
L 299.8312 278.399472 
L 300.724 278.205988 
L 301.6168 277.473956 
L 303.4024 275.1158 
L 304.2952 274.017751 
L 305.188 272.533968 
L 306.0808 271.612149 
L 306.9736 269.454871 
L 307.8664 269.506631 
L 309.652 265.45149 
L 311.4376 261.950304 
L 312.3304 259.100429 
L 313.2232 257.872365 
L 314.116 254.012556 
L 315.9016 249.49589 
L 316.7944 246.11979 
L 317.6872 246.216532 
L 319.4728 238.67561 
L 320.3656 236.997727 
L 321.2584 239.566619 
L 322.1512 237.590501 
L 323.044 237.735921 
L 323.9368 235.018528 
L 324.8296 235.091854 
L 325.7224 235.007436 
L 326.6152 232.524194 
L 327.508 224.601235 
L 328.4008 220.091963 
L 329.2936 212.821548 
L 330.1864 203.223171 
L 331.972 191.441019 
L 333.7576 175.665962 
L 334.6504 167.734376 
L 335.5432 166.699178 
L 336.436 162.378461 
L 337.3288 160.54653 
L 338.2216 155.647211 
L 339.1144 137.679753 
L 341.7928 117.180991 
L 342.6856 112.819605 
L 343.5784 104.775256 
L 344.4712 104.078346 
L 345.364 114.050134 
L 346.2568 120.571263 
L 347.1496 139.963966 
L 348.0424 122.939278 
L 348.9352 126.223566 
L 349.828 127.169416 
L 350.7208 127.897135 
L 351.6136 135.520627 
L 352.5064 137.040765 
L 353.3992 123.986799 
L 354.292 131.867858 
L 355.1848 132.878408 
L 356.0776 133.492748 
L 356.9704 131.585643 
L 357.8632 128.797388 
L 358.756 123.769901 
L 359.6488 115.749584 
L 360.5416 118.810195 
L 361.4344 114.806198 
L 362.3272 114.867201 
L 363.22 109.553802 
L 364.1128 106.616429 
L 365.0056 106.449442 
L 365.8984 113.763606 
L 367.684 126.415201 
L 368.5768 135.79976 
L 369.4696 139.979371 
L 370.3624 153.750581 
L 373.0408 180.718096 
L 373.9336 186.81652 
L 374.8264 185.886691 
L 375.7192 196.656443 
L 376.612 197.085311 
L 378.3976 204.01066 
L 379.2904 207.371972 
L 380.1832 212.104304 
L 381.9688 223.23576 
L 382.8616 226.976028 
L 383.7544 230.028012 
L 385.54 237.226949 
L 387.3256 242.001182 
L 388.2184 243.459702 
L 390.004 248.413246 
L 390.8968 251.17747 
L 391.7896 252.661254 
L 392.6824 255.278209 
L 393.5752 260.583597 
L 394.468 261.638512 
L 395.3608 263.065606 
L 396.2536 264.768137 
L 397.1464 265.776222 
L 398.0392 267.688873 
L 398.932 268.491151 
L 399.8248 268.511485 
L 400.7176 270.072292 
L 401.6104 270.33294 
L 402.5032 271.697183 
L 403.396 272.306594 
L 404.2888 273.325771 
L 405.1816 274.038085 
L 406.0744 274.518713 
L 406.9672 275.713504 
L 407.86 276.605129 
L 408.7528 276.838665 
L 409.6456 277.970604 
L 410.5384 278.059952 
L 411.4312 278.513467 
L 413.2168 278.641634 
L 414.1096 279.218387 
L 415.0024 280.26406 
L 415.8952 281.963509 
L 417.6808 282.599417 
L 418.5736 283.348086 
L 419.4664 284.621749 
L 421.252 284.677206 
L 422.1448 284.119555 
L 423.0376 285.074032 
L 423.9304 285.258889 
L 424.8232 285.293395 
L 425.716 285.024737 
L 426.6088 285.389521 
L 427.5016 286.056854 
L 428.3944 285.956415 
L 429.2872 286.004477 
L 431.0728 285.773407 
L 433.7512 285.915746 
L 434.644 285.6742 
L 435.5368 285.196654 
L 436.4296 285.532477 
L 438.2152 285.573761 
L 441.7864 285.724111 
L 442.6792 284.325362 
L 444.4648 283.873696 
L 445.3576 283.833027 
L 446.2504 283.967356 
L 448.036 284.922449 
L 448.9288 286.330442 
L 449.8216 286.911508 
L 450.7144 286.986683 
L 451.6072 287.320041 
L 452.5 287.177085 
L 453.3928 287.522767 
L 454.2856 288.658404 
L 455.1784 288.817997 
L 456.0712 288.711396 
L 457.8568 289.053997 
L 458.7496 289.776787 
L 459.6424 289.73427 
L 460.5352 289.005935 
L 461.428 289.000389 
L 462.3208 289.296776 
L 464.1064 289.306635 
L 464.9992 288.590623 
L 466.7848 288.859898 
L 470.356 289.559272 
L 471.2488 290.043597 
L 472.1416 290.38743 
L 473.0344 290.380036 
L 473.9272 290.536548 
L 474.82 291.023954 
L 475.7128 291.341291 
L 476.6056 291.348685 
L 478.3912 291.63583 
L 479.284 291.966107 
L 480.1768 292.010473 
L 481.9624 291.796039 
L 482.8552 291.999997 
L 483.748 289.697915 
L 485.5336 289.628286 
L 486.4264 289.705925 
L 487.3192 290.350459 
L 488.212 290.349227 
L 489.1048 290.547023 
L 489.9976 293.139331 
L 490.8904 293.305086 
L 492.676 293.176302 
L 492.676 293.176302 
" style="fill:none;stroke:#4c72b0;stroke-linecap:square;stroke-width:2;"/>
   </g>
   <g id="line2d_37">
    <path clip-path="url(#p8ed4b03ff6)" d="M 49.8472 297.1575 
L 91.8088 297.07582 
L 96.2728 296.844077 
L 98.0584 296.509759 
L 99.844 296.088062 
L 100.7368 295.732849 
L 101.6296 295.235171 
L 106.0936 290.486333 
L 106.9864 289.282028 
L 107.8792 288.317064 
L 108.772 287.031079 
L 109.6648 285.374684 
L 110.5576 283.300392 
L 112.3432 280.215547 
L 113.236 278.950457 
L 114.1288 277.005333 
L 115.0216 275.582581 
L 115.9144 274.917744 
L 116.8072 275.001323 
L 117.7 275.569284 
L 118.5928 275.844717 
L 119.4856 276.245519 
L 120.3784 277.421331 
L 121.2712 278.285619 
L 122.164 278.175446 
L 123.0568 278.222935 
L 123.9496 278.091867 
L 124.8424 278.713015 
L 125.7352 278.555353 
L 126.628 278.24003 
L 127.5208 278.124159 
L 128.4136 277.825932 
L 129.3064 278.382496 
L 130.1992 278.699718 
L 131.092 278.688321 
L 131.9848 278.278021 
L 132.8776 279.248684 
L 133.7704 278.371098 
L 134.6632 279.176501 
L 136.4488 279.358857 
L 137.3416 279.560207 
L 138.2344 280.737919 
L 139.1272 280.445391 
L 140.02 282.103685 
L 141.8056 282.740029 
L 142.6984 282.041 
L 143.5912 282.787517 
L 144.484 283.024959 
L 147.1624 284.474304 
L 148.0552 284.683253 
L 148.948 286.314954 
L 149.8408 285.534245 
L 150.7336 285.765988 
L 151.6264 285.84197 
L 152.5192 285.581733 
L 153.412 285.519049 
L 154.3048 285.999631 
L 155.1976 285.929348 
L 156.9832 286.768943 
L 157.876 286.719555 
L 158.7688 287.545853 
L 159.6616 288.100517 
L 161.4472 288.491821 
L 162.34 288.841336 
L 163.2328 288.719765 
L 164.1256 289.131964 
L 165.0184 289.339014 
L 165.9112 289.872783 
L 166.804 290.095029 
L 167.6968 289.971559 
L 170.3752 290.435045 
L 171.268 290.478735 
L 172.1608 290.186206 
L 173.9464 290.889034 
L 174.8392 290.974513 
L 178.4104 292.00976 
L 180.196 291.985066 
L 181.9816 291.067591 
L 182.8744 290.721875 
L 183.7672 290.604104 
L 184.66 290.201403 
L 188.2312 289.667633 
L 189.124 289.390301 
L 190.0168 288.66088 
L 190.9096 288.670377 
L 193.588 288.355055 
L 194.4808 288.115713 
L 195.3736 287.749103 
L 196.2664 287.790893 
L 198.052 287.032978 
L 198.9448 286.917107 
L 199.8376 287.297014 
L 201.6232 286.626478 
L 202.516 286.643574 
L 203.4088 286.523903 
L 204.3016 286.65687 
L 205.1944 286.539099 
L 206.0872 285.532346 
L 206.98 285.570336 
L 207.8728 285.938846 
L 208.7656 285.790682 
L 210.5512 285.112548 
L 211.444 285.021371 
L 212.3368 284.816221 
L 213.2296 284.489501 
L 214.1224 284.398323 
L 215.0152 284.430615 
L 215.908 284.914997 
L 217.6936 285.256913 
L 219.4792 286.45172 
L 220.372 286.694861 
L 221.2648 286.82213 
L 223.0504 287.283717 
L 224.836 287.029179 
L 225.7288 287.097562 
L 227.5144 286.41373 
L 228.4072 286.337748 
L 229.3 286.016727 
L 230.1928 286.21048 
L 231.0856 286.867719 
L 234.6568 288.254379 
L 237.3352 288.49562 
L 238.228 288.5773 
L 240.0136 289.137663 
L 240.9064 288.869829 
L 242.692 288.689373 
L 244.4776 288.062526 
L 245.3704 287.177343 
L 246.2632 286.482113 
L 247.156 286.305456 
L 248.9416 286.20668 
L 249.8344 286.106005 
L 250.7272 286.520104 
L 251.62 286.746148 
L 252.5128 287.361598 
L 253.4056 287.266621 
L 254.2984 287.02538 
L 255.1912 288.167001 
L 256.084 286.926604 
L 256.9768 285.969239 
L 257.8696 286.081311 
L 258.7624 285.612126 
L 259.6552 286.109804 
L 260.548 286.470716 
L 261.4408 285.211324 
L 262.3336 286.358643 
L 263.2264 286.841125 
L 264.1192 286.74045 
L 265.012 286.884814 
L 265.9048 286.727153 
L 267.6904 286.052818 
L 268.5832 285.925549 
L 269.476 284.417318 
L 271.2616 284.132388 
L 272.1544 283.444757 
L 273.0472 285.127745 
L 273.94 283.118036 
L 274.8328 282.94138 
L 275.7256 283.792371 
L 276.6184 283.072448 
L 277.5112 282.16447 
L 278.404 281.805458 
L 279.2968 279.047333 
L 280.1896 280.709426 
L 281.0824 280.597353 
L 281.9752 279.267679 
L 282.868 279.290473 
L 283.7608 279.053031 
L 284.6536 278.479372 
L 286.4392 278.253327 
L 287.332 277.026228 
L 288.2248 277.563796 
L 289.1176 277.419431 
L 290.9032 275.362235 
L 292.6888 274.393472 
L 295.3672 269.604744 
L 297.1528 268.80314 
L 298.0456 267.817282 
L 299.8312 266.774437 
L 300.724 265.642314 
L 301.6168 264.806519 
L 302.5096 263.704788 
L 304.2952 259.61129 
L 305.188 257.909307 
L 306.0808 254.454053 
L 307.8664 249.173345 
L 308.7592 243.079637 
L 309.652 238.927253 
L 310.5448 236.725692 
L 311.4376 232.799353 
L 312.3304 229.661321 
L 313.2232 227.003872 
L 314.116 222.467782 
L 315.0088 220.837981 
L 315.9016 218.569936 
L 316.7944 215.760524 
L 317.6872 212.162804 
L 318.58 211.69172 
L 319.4728 210.468419 
L 321.2584 208.538492 
L 322.1512 206.004512 
L 323.044 204.087881 
L 323.9368 206.741531 
L 324.8296 208.409323 
L 325.7224 209.640222 
L 326.6152 206.414811 
L 328.4008 192.03913 
L 329.2936 183.508318 
L 330.1864 178.548632 
L 331.0792 172.853826 
L 331.972 164.493972 
L 332.8648 164.547159 
L 333.7576 163.116809 
L 334.6504 162.015079 
L 335.5432 164.516767 
L 336.436 160.242813 
L 337.3288 158.468647 
L 338.2216 159.4773 
L 339.1144 156.506428 
L 340.0072 160.284603 
L 340.9 166.900683 
L 341.7928 168.895195 
L 342.6856 175.404902 
L 343.5784 175.604353 
L 344.4712 179.055808 
L 345.364 179.939092 
L 346.2568 181.492912 
L 347.1496 186.627355 
L 348.9352 194.010847 
L 349.828 202.157953 
L 350.7208 200.471166 
L 351.6136 202.556856 
L 352.5064 202.298519 
L 353.3992 201.521609 
L 354.292 198.2886 
L 355.1848 198.564033 
L 356.0776 199.627773 
L 356.9704 198.995227 
L 357.8632 197.523088 
L 358.756 196.561923 
L 359.6488 190.245969 
L 360.5416 189.053061 
L 361.4344 184.516971 
L 362.3272 180.909754 
L 363.22 184.226342 
L 364.1128 186.826806 
L 365.0056 191.879569 
L 365.8984 199.67906 
L 366.7912 205.159219 
L 367.684 207.421565 
L 368.5768 212.584501 
L 369.4696 213.306324 
L 370.3624 217.787328 
L 371.2552 220.813287 
L 372.148 222.323417 
L 373.0408 224.59906 
L 373.9336 228.386733 
L 374.8264 226.542285 
L 375.7192 230.721262 
L 376.612 230.31856 
L 377.5048 229.414382 
L 378.3976 221.29007 
L 379.2904 222.606448 
L 380.1832 222.519069 
L 381.076 224.507883 
L 381.9688 225.195514 
L 383.7544 235.483396 
L 384.6472 244.703739 
L 385.54 246.029615 
L 386.4328 245.275499 
L 387.3256 246.310746 
L 389.1112 246.306947 
L 390.004 245.22991 
L 390.8968 248.041222 
L 391.7896 248.523704 
L 392.6824 251.72632 
L 394.468 256.891156 
L 395.3608 256.087653 
L 396.2536 257.394533 
L 397.1464 258.281616 
L 398.0392 260.420492 
L 398.932 261.636195 
L 399.8248 261.484232 
L 400.7176 261.740669 
L 401.6104 263.106435 
L 402.5032 264.873002 
L 403.396 264.344932 
L 404.2888 263.469246 
L 405.1816 263.465447 
L 406.0744 262.428301 
L 406.9672 263.036152 
L 407.86 263.37237 
L 408.7528 262.156667 
L 409.6456 262.730327 
L 410.5384 263.744679 
L 411.4312 263.896641 
L 412.324 264.810318 
L 413.2168 264.001116 
L 414.1096 264.050504 
L 415.0024 264.681149 
L 415.8952 264.111289 
L 416.788 264.120786 
L 417.6808 263.928933 
L 418.5736 264.039106 
L 419.4664 263.714286 
L 420.3592 262.608757 
L 422.1448 261.113823 
L 423.0376 258.709011 
L 423.9304 258.237926 
L 424.8232 257.552194 
L 425.716 256.558737 
L 426.6088 253.756923 
L 427.5016 252.729275 
L 428.3944 249.809689 
L 429.2872 250.047131 
L 430.18 249.080268 
L 431.9656 242.61615 
L 432.8584 243.016952 
L 433.7512 242.528772 
L 434.644 244.297239 
L 435.5368 241.014842 
L 436.4296 240.169549 
L 437.3224 240.047979 
L 438.2152 241.045235 
L 439.108 240.766003 
L 440.0008 239.59209 
L 440.8936 237.580483 
L 441.7864 239.761149 
L 442.6792 239.113408 
L 443.572 239.508511 
L 444.4648 237.098001 
L 445.3576 233.733924 
L 446.2504 232.476432 
L 447.1432 231.712819 
L 448.036 231.378501 
L 448.9288 232.36436 
L 449.8216 233.572464 
L 450.7144 235.576473 
L 451.6072 239.065919 
L 452.5 241.073728 
L 453.3928 243.88314 
L 454.2856 245.176723 
L 455.1784 245.588923 
L 456.0712 246.350636 
L 456.964 249.013784 
L 457.8568 250.905721 
L 458.7496 252.252492 
L 459.6424 251.504075 
L 460.5352 253.352322 
L 461.428 254.123534 
L 462.3208 254.735184 
L 463.2136 256.644217 
L 464.1064 258.83818 
L 464.9992 259.016736 
L 465.892 262.464392 
L 466.7848 263.172918 
L 467.6776 265.277603 
L 468.5704 266.582584 
L 470.356 268.375745 
L 471.2488 269.714917 
L 472.1416 271.62205 
L 473.0344 272.776968 
L 474.82 273.734333 
L 475.7128 274.84936 
L 477.4984 277.99499 
L 478.3912 277.871521 
L 479.284 281.171013 
L 480.1768 278.874475 
L 481.0696 279.318966 
L 481.9624 280.901279 
L 482.8552 281.066539 
L 483.748 282.035301 
L 484.6408 283.606217 
L 485.5336 282.257547 
L 486.4264 285.3082 
L 487.3192 286.928504 
L 488.212 286.843025 
L 489.9976 288.571602 
L 492.676 289.990554 
L 492.676 289.990554 
" style="fill:none;stroke:#55a868;stroke-linecap:square;stroke-width:2;"/>
   </g>
   <g id="line2d_38">
    <path clip-path="url(#p8ed4b03ff6)" d="M 49.8472 297.1575 
L 90.916 297.081054 
L 94.4872 296.889938 
L 97.1656 296.131208 
L 98.0584 295.848357 
L 99.844 294.900422 
L 101.6296 294.122581 
L 102.5224 293.109667 
L 104.308 291.813902 
L 105.2008 290.338488 
L 106.0936 289.923767 
L 107.8792 287.402949 
L 108.772 287.301658 
L 109.6648 285.929446 
L 110.5576 284.142513 
L 111.4504 284.427276 
L 112.3432 283.412451 
L 113.236 282.714878 
L 115.0216 280.478823 
L 115.9144 279.989567 
L 116.8072 280.295352 
L 117.7 278.85625 
L 118.5928 278.498864 
L 119.4856 278.623089 
L 121.2712 279.360796 
L 122.164 278.642201 
L 123.0568 278.084142 
L 123.9496 278.991942 
L 124.8424 279.033988 
L 125.7352 278.405217 
L 127.5208 275.750618 
L 128.4136 274.064977 
L 129.3064 273.044418 
L 131.092 269.684603 
L 131.9848 268.407949 
L 132.8776 268.018073 
L 133.7704 266.61146 
L 134.6632 265.820241 
L 135.556 265.187648 
L 136.4488 263.528762 
L 137.3416 262.838834 
L 138.2344 263.163731 
L 140.02 262.978349 
L 140.9128 263.45805 
L 141.8056 263.7065 
L 142.6984 266.267452 
L 143.5912 267.949271 
L 144.484 264.1346 
L 145.3768 265.222048 
L 146.2696 264.1346 
L 147.1624 264.973598 
L 148.0552 265.315695 
L 148.948 265.244982 
L 149.8408 263.416004 
L 150.7336 268.241678 
L 151.6264 266.886667 
L 152.5192 268.654488 
L 154.3048 267.66642 
L 155.1976 266.233051 
L 156.0904 267.591884 
L 156.9832 268.130831 
L 157.876 270.594314 
L 158.7688 272.058261 
L 159.6616 274.063066 
L 160.5544 275.771641 
L 161.4472 277.956095 
L 162.34 279.158213 
L 163.2328 278.508419 
L 164.1256 278.682335 
L 165.0184 279.916943 
L 167.6968 282.858215 
L 168.5896 282.103308 
L 169.4824 283.632234 
L 170.3752 284.524745 
L 171.268 284.578258 
L 172.1608 285.361832 
L 173.0536 285.946647 
L 173.9464 286.361368 
L 174.8392 288.167412 
L 175.732 288.471287 
L 176.6248 288.505687 
L 177.5176 288.843962 
L 178.4104 288.694892 
L 181.9816 288.717826 
L 183.7672 287.880739 
L 184.66 287.802381 
L 185.5528 287.599798 
L 186.4456 287.672422 
L 187.3384 287.085697 
L 189.124 286.615552 
L 190.9096 286.682443 
L 191.8024 286.426347 
L 192.6952 286.43017 
L 194.4808 286.7436 
L 195.3736 286.619374 
L 199.8376 284.046956 
L 200.7304 283.884507 
L 201.6232 283.022575 
L 203.4088 282.563897 
L 205.1944 282.003928 
L 206.0872 281.36369 
L 207.8728 280.547625 
L 208.7656 279.785073 
L 209.6584 279.31875 
L 210.5512 279.249949 
L 211.444 278.437707 
L 212.3368 278.256147 
L 213.2296 277.942717 
L 214.1224 278.380372 
L 216.8008 276.969937 
L 217.6936 276.832334 
L 219.4792 276.11565 
L 220.372 275.165804 
L 222.1576 274.642147 
L 223.0504 273.652167 
L 224.836 274.055421 
L 225.7288 273.610121 
L 226.6216 273.891062 
L 227.5144 274.009553 
L 228.4072 273.564253 
L 229.3 274.273293 
L 230.1928 273.896795 
L 231.0856 273.04633 
L 231.9784 272.528406 
L 232.8712 271.853767 
L 233.764 271.716164 
L 234.6568 271.769676 
L 235.5496 270.4892 
L 236.4424 269.973187 
L 238.228 270.38982 
L 239.1208 270.431865 
L 240.0136 270.957434 
L 240.9064 270.514045 
L 241.7992 271.649273 
L 243.5848 271.11606 
L 244.4776 271.733364 
L 245.3704 271.52887 
L 246.2632 272.088839 
L 247.156 266.194828 
L 248.0488 264.522565 
L 249.8344 266.642039 
L 250.7272 266.361099 
L 251.62 267.855624 
L 252.5128 266.850355 
L 253.4056 272.893437 
L 254.2984 274.080266 
L 255.1912 274.158624 
L 256.084 273.803148 
L 256.9768 273.935018 
L 257.8696 272.946949 
L 258.7624 272.70041 
L 259.6552 272.987084 
L 260.548 272.121329 
L 261.4408 272.249377 
L 262.3336 272.000926 
L 264.1192 272.218798 
L 265.012 271.834655 
L 265.9048 270.823653 
L 266.7976 271.11606 
L 268.5832 270.139458 
L 269.476 270.091679 
L 270.3688 269.246947 
L 271.2616 269.462908 
L 272.1544 270.085946 
L 273.0472 270.164303 
L 273.94 270.502578 
L 274.8328 269.906297 
L 275.7256 269.79545 
L 276.6184 269.103611 
L 277.5112 267.316678 
L 278.404 266.653506 
L 279.2968 265.669259 
L 280.1896 263.201954 
L 281.0824 262.131706 
L 281.9752 258.609442 
L 282.868 257.959648 
L 283.7608 256.094357 
L 284.6536 251.828653 
L 285.5464 250.326482 
L 286.4392 247.687173 
L 287.332 246.141046 
L 288.2248 245.573432 
L 289.1176 243.576272 
L 290.0104 241.907831 
L 290.9032 241.896364 
L 291.796 237.439543 
L 292.6888 237.538924 
L 293.5816 234.786856 
L 294.4744 234.209686 
L 295.3672 230.182876 
L 296.26 227.396408 
L 297.1528 220.697799 
L 298.0456 219.711641 
L 298.9384 211.547174 
L 299.8312 208.86773 
L 300.724 203.910186 
L 301.6168 200.96318 
L 302.5096 194.134612 
L 303.4024 188.712657 
L 304.2952 177.702475 
L 305.188 174.614044 
L 306.0808 165.79596 
L 306.9736 154.185675 
L 307.8664 145.153542 
L 308.7592 139.808033 
L 309.652 132.417585 
L 310.5448 134.661284 
L 312.3304 131.739123 
L 313.2232 131.517429 
L 314.116 138.561958 
L 315.0088 134.691863 
L 315.9016 139.02828 
L 316.7944 137.78985 
L 317.6872 139.14295 
L 319.4728 151.555922 
L 320.3656 146.560154 
L 321.2584 152.874621 
L 322.1512 162.803087 
L 323.044 169.882016 
L 323.9368 174.680934 
L 324.8296 178.742145 
L 325.7224 172.995293 
L 326.6152 176.079902 
L 327.508 177.05077 
L 328.4008 171.837131 
L 329.2936 168.400869 
L 330.1864 168.278555 
L 331.0792 163.445236 
L 331.972 172.389456 
L 332.8648 175.260015 
L 333.7576 174.982897 
L 335.5432 178.88166 
L 336.436 179.64039 
L 337.3288 182.352323 
L 338.2216 183.506662 
L 339.1144 185.729339 
L 340.9 194.318084 
L 342.6856 198.709925 
L 343.5784 203.401818 
L 344.4712 205.414267 
L 345.364 205.999082 
L 347.1496 213.164013 
L 348.0424 221.005495 
L 348.9352 225.017016 
L 349.828 225.517739 
L 350.7208 226.717947 
L 352.5064 222.865052 
L 353.3992 232.445687 
L 354.292 217.21758 
L 356.0776 214.868766 
L 356.9704 212.323104 
L 357.8632 212.871606 
L 358.756 211.216543 
L 359.6488 194.482443 
L 360.5416 203.583378 
L 361.4344 203.161012 
L 362.3272 203.527954 
L 363.22 204.408998 
L 364.1128 207.659878 
L 365.0056 211.648465 
L 365.8984 216.678633 
L 366.7912 219.581682 
L 367.684 220.674865 
L 368.5768 224.019391 
L 369.4696 227.847441 
L 370.3624 229.598062 
L 371.2552 233.210151 
L 372.148 232.568001 
L 373.0408 232.546979 
L 373.9336 234.28231 
L 374.8264 234.721877 
L 376.612 238.553749 
L 377.5048 239.834225 
L 378.3976 245.10711 
L 379.2904 248.593062 
L 380.1832 250.71827 
L 381.076 251.62607 
L 381.9688 253.844924 
L 382.8616 254.655255 
L 383.7544 256.37912 
L 384.6472 257.388211 
L 385.54 257.971115 
L 386.4328 258.089607 
L 387.3256 259.589866 
L 388.2184 260.365796 
L 390.004 262.27122 
L 391.7896 266.043846 
L 393.5752 268.052474 
L 394.468 268.59142 
L 395.3608 270.506401 
L 396.2536 272.136618 
L 397.1464 272.902993 
L 398.0392 273.174377 
L 400.7176 273.206867 
L 401.6104 272.971794 
L 402.5032 272.910637 
L 403.396 272.128974 
L 404.2888 272.406092 
L 405.1816 273.036774 
L 406.9672 273.384605 
L 407.86 273.157177 
L 408.7528 273.52603 
L 409.6456 275.658883 
L 410.5384 274.246537 
L 411.4312 274.533211 
L 412.324 274.603923 
L 413.2168 274.542766 
L 414.1096 275.366476 
L 415.0024 275.498345 
L 415.8952 274.97851 
L 416.788 276.669885 
L 417.6808 275.876755 
L 418.5736 276.602995 
L 419.4664 276.035381 
L 420.3592 276.333522 
L 422.1448 273.849016 
L 423.0376 273.375049 
L 423.9304 273.571898 
L 424.8232 272.63352 
L 425.716 272.937394 
L 426.6088 270.600047 
L 427.5016 270.879076 
L 430.18 266.672617 
L 431.9656 264.419362 
L 432.8584 264.707947 
L 433.7512 261.969257 
L 434.644 262.110683 
L 436.4296 261.200972 
L 437.3224 260.512955 
L 438.2152 259.391105 
L 439.108 257.273542 
L 440.0008 256.826331 
L 440.8936 255.064243 
L 441.7864 253.793323 
L 442.6792 252.992548 
L 443.572 252.36951 
L 444.4648 251.9395 
L 446.2504 252.612227 
L 447.1432 252.902723 
L 448.036 253.743633 
L 448.9288 254.16791 
L 450.7144 256.260628 
L 451.6072 257.609906 
L 453.3928 259.125454 
L 454.2856 259.643378 
L 455.1784 260.83403 
L 456.0712 260.681137 
L 456.964 260.70216 
L 457.8568 260.960166 
L 458.7496 260.727005 
L 459.6424 261.342398 
L 460.5352 261.126437 
L 461.428 261.489557 
L 462.3208 261.546891 
L 463.2136 262.338111 
L 464.1064 262.747099 
L 464.9992 265.468588 
L 465.892 265.206759 
L 466.7848 267.423703 
L 467.6776 267.643486 
L 470.356 271.416112 
L 471.2488 271.368333 
L 472.1416 274.173913 
L 473.0344 274.559967 
L 474.82 276.366011 
L 475.7128 276.474947 
L 476.6056 276.799844 
L 477.4984 277.657954 
L 478.3912 278.099432 
L 480.1768 279.35124 
L 481.0696 279.454443 
L 481.9624 280.713896 
L 482.8552 281.671386 
L 484.6408 283.939931 
L 486.4264 285.195562 
L 488.212 286.800934 
L 489.1048 288.045098 
L 491.7832 289.767052 
L 492.676 290.244841 
L 492.676 290.244841 
" style="fill:none;stroke:#c44e52;stroke-linecap:square;stroke-width:2;"/>
   </g>
   <g id="line2d_39">
    <path clip-path="url(#p8ed4b03ff6)" d="M 49.8472 297.1575 
L 91.8088 297.048637 
L 94.4872 296.868595 
L 96.2728 296.542006 
L 98.0584 296.093994 
L 98.9512 295.696226 
L 100.7368 295.445004 
L 103.4152 294.167959 
L 104.308 293.971168 
L 105.2008 294.06747 
L 106.0936 293.594335 
L 106.9864 293.514781 
L 108.772 293.070956 
L 109.6648 293.029086 
L 111.4504 292.354973 
L 112.3432 292.254484 
L 113.236 292.020011 
L 115.9144 292.334038 
L 118.5928 293.020711 
L 120.3784 293.117013 
L 121.2712 293.012337 
L 123.0568 293.029086 
L 123.9496 292.949532 
L 124.8424 292.401031 
L 125.7352 292.401031 
L 127.5208 291.923709 
L 128.4136 291.354272 
L 129.3064 290.613168 
L 130.1992 290.290766 
L 131.092 290.458247 
L 131.9848 290.047918 
L 132.8776 290.014422 
L 134.6632 288.749938 
L 135.556 288.687132 
L 137.3416 287.954402 
L 139.1272 286.978823 
L 140.02 287.125369 
L 140.9128 287.481267 
L 141.8056 287.468706 
L 142.6984 287.569195 
L 143.5912 287.866474 
L 144.484 288.427536 
L 145.3768 288.703881 
L 146.2696 288.448472 
L 147.1624 287.581756 
L 148.0552 286.890895 
L 148.948 287.213297 
L 149.8408 287.397526 
L 150.7336 287.029067 
L 151.6264 285.819015 
L 153.412 285.722713 
L 154.3048 286.082798 
L 155.1976 285.354254 
L 156.0904 284.826688 
L 156.9832 284.843436 
L 157.876 284.567092 
L 158.7688 283.323543 
L 159.6616 283.415658 
L 160.5544 283.260738 
L 161.4472 284.131641 
L 162.34 284.730386 
L 163.2328 284.253065 
L 164.1256 284.135828 
L 165.9112 285.965561 
L 166.804 286.765284 
L 168.5896 286.112107 
L 169.4824 286.627112 
L 170.3752 279.592897 
L 171.268 280.191643 
L 172.1608 280.367498 
L 175.732 280.028348 
L 176.6248 288.46522 
L 177.5176 287.946028 
L 178.4104 288.029768 
L 179.3032 287.577569 
L 181.0888 287.447771 
L 181.9816 287.284476 
L 183.7672 286.300524 
L 184.66 285.412873 
L 185.5528 284.927177 
L 186.4456 284.102331 
L 187.3384 283.532895 
L 188.2312 282.352152 
L 189.124 281.853895 
L 190.0168 281.782715 
L 191.8024 280.375872 
L 192.6952 280.267009 
L 193.588 279.509156 
L 194.4808 279.944608 
L 195.3736 279.492408 
L 196.2664 278.391219 
L 197.1592 276.854577 
L 198.052 276.842016 
L 198.9448 275.590094 
L 199.8376 275.029031 
L 200.7304 273.366779 
L 201.6232 272.525185 
L 202.516 272.022742 
L 203.4088 272.751285 
L 204.3016 271.939001 
L 205.1944 271.817577 
L 206.0872 271.403061 
L 206.98 270.456791 
L 207.8728 270.494475 
L 208.7656 270.40236 
L 209.6584 269.305357 
L 210.5512 269.451903 
L 211.444 268.970395 
L 212.3368 269.652881 
L 213.2296 271.109968 
L 214.1224 270.603337 
L 215.0152 270.527971 
L 215.908 271.511924 
L 216.8008 270.657769 
L 217.6936 270.758258 
L 218.5864 271.415622 
L 220.372 271.499362 
L 221.2648 271.918066 
L 222.1576 271.047163 
L 223.0504 271.336068 
L 223.9432 272.684293 
L 224.836 272.219532 
L 225.7288 272.525185 
L 226.6216 274.304674 
L 227.5144 273.53426 
L 228.4072 274.107884 
L 229.3 274.844802 
L 230.1928 274.501465 
L 231.0856 274.67732 
L 231.9784 274.668946 
L 232.8712 274.133006 
L 233.764 275.024844 
L 234.6568 275.661273 
L 235.5496 275.46867 
L 236.4424 276.394004 
L 238.228 276.490306 
L 240.0136 275.93343 
L 240.9064 275.84969 
L 241.7992 276.109286 
L 242.692 275.77851 
L 243.5848 276.31445 
L 244.4776 275.238383 
L 245.3704 276.050667 
L 246.2632 276.293515 
L 247.156 273.982273 
L 248.0488 273.082061 
L 248.9416 271.637535 
L 249.8344 270.996918 
L 250.7272 271.859447 
L 251.62 270.435856 
L 252.5128 267.375135 
L 253.4056 267.207654 
L 254.2984 265.398855 
L 255.1912 262.333947 
L 256.084 261.220197 
L 256.9768 258.335331 
L 258.7624 253.666789 
L 259.6552 248.843327 
L 260.548 244.79028 
L 261.4408 244.317145 
L 262.3336 242.340865 
L 263.2264 241.088942 
L 265.012 238.019847 
L 265.9048 237.936107 
L 268.5832 231.571817 
L 269.476 228.695325 
L 271.2616 224.164956 
L 272.1544 223.294053 
L 273.0472 222.758112 
L 273.94 224.123085 
L 274.8328 224.051906 
L 275.7256 225.383382 
L 276.6184 225.123786 
L 277.5112 224.148207 
L 278.404 222.481768 
L 279.2968 222.904659 
L 280.1896 219.760197 
L 281.0824 218.127254 
L 281.9752 212.365897 
L 283.7608 205.599652 
L 284.6536 201.605222 
L 286.4392 225.031671 
L 287.332 202.857145 
L 288.2248 197.669411 
L 289.1176 193.386077 
L 290.0104 195.106947 
L 290.9032 193.206034 
L 291.796 173.694461 
L 292.6888 157.875851 
L 293.5816 175.988955 
L 294.4744 173.434865 
L 295.3672 174.255523 
L 296.26 167.949852 
L 297.1528 164.792829 
L 298.0456 160.111726 
L 298.9384 161.053809 
L 299.8312 159.579973 
L 300.724 155.719529 
L 301.6168 147.316154 
L 303.4024 138.125617 
L 304.2952 130.940668 
L 305.188 127.637099 
L 306.0808 123.512872 
L 306.9736 118.643353 
L 307.8664 112.995045 
L 309.652 96.39346 
L 310.5448 104.403254 
L 311.4376 96.121303 
L 312.3304 95.367637 
L 313.2232 94.95312 
L 314.116 90.669786 
L 315.0088 94.052908 
L 315.9016 99.667719 
L 316.7944 93.604896 
L 317.6872 103.239258 
L 318.58 108.519107 
L 319.4728 111.730561 
L 320.3656 122.23164 
L 321.2584 129.713867 
L 322.1512 153.26174 
L 323.044 159.906562 
L 323.9368 159.755829 
L 324.8296 163.017527 
L 325.7224 171.864728 
L 326.6152 177.881494 
L 327.508 178.120155 
L 328.4008 160.409006 
L 329.2936 159.324564 
L 330.1864 163.118016 
L 331.0792 164.491363 
L 331.972 164.663031 
L 332.8648 166.312722 
L 333.7576 170.060116 
L 335.5432 179.614926 
L 336.436 180.38534 
L 337.3288 180.464893 
L 338.2216 182.721704 
L 339.1144 188.370011 
L 340.0072 190.162061 
L 340.9 192.494239 
L 341.7928 193.788032 
L 342.6856 197.640102 
L 343.5784 200.571025 
L 344.4712 204.875295 
L 345.364 203.86622 
L 346.2568 208.12862 
L 347.1496 217.683429 
L 348.0424 232.915854 
L 348.9352 230.767906 
L 349.828 231.069373 
L 350.7208 231.521572 
L 351.6136 231.07356 
L 352.5064 227.100066 
L 354.292 223.34011 
L 355.1848 223.193564 
L 356.0776 222.904659 
L 356.9704 218.298922 
L 357.8632 214.367299 
L 358.756 213.12375 
L 359.6488 204.645008 
L 360.5416 194.650561 
L 361.4344 196.605905 
L 362.3272 196.371431 
L 363.22 199.352599 
L 366.7912 221.200536 
L 367.684 222.184489 
L 368.5768 224.332437 
L 369.4696 230.08542 
L 370.3624 233.93749 
L 371.2552 236.328286 
L 373.0408 239.677912 
L 373.9336 241.842608 
L 374.8264 242.131514 
L 375.7192 243.676529 
L 376.612 244.899142 
L 377.5048 247.365305 
L 378.3976 249.454634 
L 379.2904 251.12526 
L 380.1832 252.092465 
L 381.076 253.428128 
L 381.9688 254.550253 
L 382.8616 254.633994 
L 383.7544 255.726809 
L 384.6472 257.305321 
L 385.54 259.39465 
L 386.4328 260.973162 
L 387.3256 261.693331 
L 388.2184 263.497943 
L 389.1112 265.750566 
L 391.7896 269.376537 
L 393.5752 270.996918 
L 394.468 271.348629 
L 395.3608 272.30746 
L 396.2536 274.660572 
L 397.1464 275.430986 
L 398.0392 275.644525 
L 398.932 276.109286 
L 399.8248 275.912495 
L 400.7176 276.193026 
L 402.5032 275.481231 
L 403.396 275.992049 
L 405.1816 275.636151 
L 406.0744 276.276767 
L 406.9672 276.712218 
L 407.86 276.984376 
L 408.7528 277.440762 
L 409.6456 277.75479 
L 410.5384 278.82667 
L 412.324 279.81481 
L 413.2168 279.848306 
L 414.1096 280.153959 
L 415.0024 280.99974 
L 415.8952 281.058359 
L 416.788 281.38076 
L 418.5736 280.216765 
L 420.3592 279.923673 
L 421.252 279.789688 
L 423.0376 279.89855 
L 423.9304 280.200017 
L 424.8232 279.965543 
L 425.716 282.490324 
L 426.6088 279.396106 
L 429.2872 277.566373 
L 430.18 277.432388 
L 431.0728 277.61243 
L 431.9656 274.199999 
L 432.8584 277.30259 
L 434.644 276.917383 
L 435.5368 276.511241 
L 436.4296 275.816193 
L 437.3224 275.791071 
L 438.2152 274.589393 
L 440.0008 272.667545 
L 440.8936 271.315133 
L 441.7864 270.762445 
L 442.6792 270.86712 
L 443.572 270.314432 
L 444.4648 270.410734 
L 445.3576 270.138577 
L 446.2504 270.268375 
L 447.1432 271.486801 
L 448.036 271.805016 
L 448.9288 271.842699 
L 449.8216 272.110669 
L 450.7144 272.91458 
L 452.5 274.995535 
L 453.3928 275.096024 
L 454.2856 275.941804 
L 455.1784 276.519615 
L 456.0712 276.280954 
L 456.964 276.251645 
L 458.7496 275.673834 
L 459.6424 275.795258 
L 460.5352 275.338872 
L 461.428 275.292814 
L 462.3208 275.648712 
L 463.2136 276.134408 
L 464.1064 276.339572 
L 466.7848 277.779912 
L 468.5704 279.019273 
L 469.4632 280.066032 
L 470.356 280.534979 
L 471.2488 281.464501 
L 472.1416 282.10093 
L 473.0344 282.109304 
L 473.9272 283.528708 
L 474.82 282.90484 
L 475.7128 282.971833 
L 476.6056 283.5957 
L 477.4984 283.604075 
L 478.3912 284.16095 
L 479.284 285.266327 
L 480.1768 284.613149 
L 481.0696 285.5008 
L 482.8552 286.639673 
L 484.6408 288.389853 
L 485.5336 289.872063 
L 486.4264 290.52524 
L 487.3192 289.499417 
L 488.212 291.056993 
L 489.1048 291.500819 
L 489.9976 292.128873 
L 490.8904 292.354973 
L 492.676 292.354973 
L 492.676 292.354973 
" style="fill:none;stroke:#8172b2;stroke-linecap:square;stroke-width:2;"/>
   </g>
   <g id="line2d_40">
    <path clip-path="url(#p8ed4b03ff6)" d="M 49.8472 297.1575 
L 95.38 297.092957 
L 98.0584 296.844976 
L 99.844 296.423748 
L 105.2008 294.518032 
L 106.0936 293.981306 
L 107.8792 293.723134 
L 108.772 293.447977 
L 109.6648 293.407213 
L 110.5576 292.924839 
L 111.4504 292.608918 
L 113.236 292.812738 
L 114.1288 292.69724 
L 115.0216 292.340555 
L 115.9144 292.59533 
L 116.8072 292.490023 
L 117.7 292.843311 
L 119.4856 292.982588 
L 121.2712 293.026749 
L 122.164 292.418686 
L 123.0568 292.653079 
L 123.9496 292.435671 
L 124.8424 292.530787 
L 126.628 292.072193 
L 127.5208 291.943107 
L 129.3064 291.854785 
L 131.9848 291.392793 
L 132.8776 291.236531 
L 133.7704 290.774539 
L 134.6632 290.645453 
L 135.556 290.078154 
L 136.4488 289.976244 
L 137.3416 289.673911 
L 139.1272 288.648018 
L 140.02 289.354593 
L 140.9128 288.447595 
L 141.8056 288.338891 
L 142.6984 288.73634 
L 144.484 288.899396 
L 145.3768 288.77031 
L 146.2696 287.88709 
L 147.1624 288.179232 
L 148.0552 288.084116 
L 148.948 287.584757 
L 149.8408 287.679873 
L 150.7336 287.543993 
L 152.5192 288.186026 
L 153.412 288.87222 
L 155.1976 288.997909 
L 156.0904 289.035276 
L 156.9832 289.626353 
L 157.876 289.123598 
L 158.7688 288.841647 
L 160.5544 286.236148 
L 161.4472 284.938495 
L 162.34 285.05739 
L 163.2328 281.983106 
L 164.1256 280.230254 
L 165.0184 279.98567 
L 165.9112 277.101618 
L 166.804 275.885493 
L 168.5896 271.211222 
L 169.4824 272.882546 
L 170.3752 270.878316 
L 171.268 267.57983 
L 172.1608 267.270703 
L 173.0536 265.714878 
L 173.9464 266.485997 
L 174.8392 265.755642 
L 175.732 260.123418 
L 176.6248 259.185846 
L 177.5176 255.693731 
L 180.196 240.383457 
L 181.0888 236.820005 
L 181.9816 232.278217 
L 182.8744 232.451464 
L 183.7672 230.691819 
L 185.5528 229.373783 
L 186.4456 224.818408 
L 187.3384 229.778026 
L 188.2312 225.813728 
L 189.124 215.81636 
L 190.0168 214.95692 
L 190.9096 211.491981 
L 191.8024 214.053318 
L 192.6952 215.069021 
L 193.588 205.642348 
L 195.3736 213.734 
L 196.2664 211.254191 
L 197.1592 212.052485 
L 198.052 210.958652 
L 198.9448 214.430385 
L 199.8376 221.149649 
L 200.7304 219.138625 
L 201.6232 220.042227 
L 202.516 222.603564 
L 204.3016 224.658749 
L 205.1944 225.260017 
L 206.0872 224.451532 
L 206.98 227.165734 
L 207.8728 231.772064 
L 208.7656 234.995816 
L 209.6584 236.63317 
L 210.5512 233.558886 
L 211.444 234.66291 
L 212.3368 233.980114 
L 213.2296 238.51171 
L 214.1224 237.023825 
L 215.0152 236.432747 
L 215.908 236.976267 
L 216.8008 239.53081 
L 217.6936 241.338013 
L 218.5864 244.20508 
L 219.4792 247.754944 
L 220.372 250.044522 
L 221.2648 253.543431 
L 223.0504 265.881331 
L 223.9432 267.899148 
L 224.836 269.546693 
L 225.7288 269.156038 
L 226.6216 272.386584 
L 227.5144 273.018426 
L 228.4072 274.377225 
L 229.3 275.267239 
L 230.1928 275.185711 
L 231.0856 275.440486 
L 231.9784 276.26256 
L 232.8712 276.619244 
L 233.764 278.626871 
L 234.6568 279.78185 
L 235.5496 279.360623 
L 236.4424 281.656994 
L 237.3352 282.231087 
L 238.228 282.339791 
L 239.1208 283.817485 
L 240.0136 284.021305 
L 240.9064 284.354211 
L 241.7992 285.580528 
L 242.692 285.003038 
L 243.5848 285.454839 
L 244.4776 286.687949 
L 245.3704 285.597513 
L 246.2632 284.27608 
L 248.0488 282.886707 
L 248.9416 283.307935 
L 249.8344 283.212819 
L 250.7272 284.680323 
L 251.62 284.758454 
L 252.5128 286.837417 
L 254.2984 288.291333 
L 255.1912 287.842929 
L 256.084 287.798768 
L 256.9768 286.399204 
L 257.8696 285.733393 
L 258.7624 281.324088 
L 259.6552 276.30672 
L 260.548 278.735575 
L 261.4408 278.460418 
L 262.3336 278.389081 
L 263.2264 278.028999 
L 264.1192 278.905425 
L 265.012 282.927471 
L 265.9048 287.972015 
L 266.7976 286.032328 
L 267.6904 286.22256 
L 268.5832 286.076489 
L 269.476 285.814921 
L 270.3688 286.195384 
L 271.2616 285.73679 
L 272.1544 285.570337 
L 273.0472 285.006435 
L 273.94 285.200064 
L 274.8328 285.003038 
L 275.7256 284.41196 
L 276.6184 283.409845 
L 278.404 282.472274 
L 280.1896 280.790759 
L 281.0824 280.237048 
L 281.9752 280.811141 
L 282.868 279.826011 
L 283.7608 279.014129 
L 284.6536 278.789927 
L 285.5464 278.721987 
L 286.4392 278.222628 
L 288.2248 276.130077 
L 289.1176 275.797171 
L 290.0104 276.211605 
L 290.9032 275.409913 
L 291.796 275.124565 
L 292.6888 273.20526 
L 293.5816 272.495288 
L 294.4744 272.634565 
L 295.3672 272.322041 
L 296.26 271.353896 
L 297.1528 269.339476 
L 298.0456 266.367102 
L 298.9384 265.619762 
L 299.8312 266.24481 
L 300.724 264.264359 
L 301.6168 264.566692 
L 302.5096 262.05631 
L 304.2952 258.356978 
L 305.188 257.021957 
L 306.0808 255.194372 
L 306.9736 250.944726 
L 307.8664 248.437741 
L 308.7592 250.275518 
L 309.652 244.045422 
L 310.5448 242.751165 
L 311.4376 242.044589 
L 312.3304 240.994916 
L 313.2232 236.558436 
L 314.116 231.394997 
L 315.0088 221.869812 
L 315.9016 221.458776 
L 316.7944 216.998516 
L 317.6872 215.035051 
L 318.58 208.804955 
L 319.4728 206.596905 
L 320.3656 204.850848 
L 321.2584 210.469484 
L 322.1512 209.463972 
L 323.044 209.593058 
L 323.9368 207.826619 
L 324.8296 216.111899 
L 325.7224 194.191065 
L 326.6152 191.177927 
L 328.4008 173.646015 
L 329.2936 166.671977 
L 330.1864 167.116983 
L 331.0792 163.594296 
L 331.972 156.494568 
L 332.8648 156.807092 
L 333.7576 154.779083 
L 334.6504 150.760434 
L 335.5432 146.092957 
L 336.436 146.432657 
L 337.3288 113.396842 
L 338.2216 135.939327 
L 339.1144 137.196217 
L 340.0072 132.515152 
L 340.9 141.276013 
L 341.7928 143.779601 
L 342.6856 144.445413 
L 343.5784 158.267801 
L 344.4712 150.305236 
L 345.364 146.412275 
L 346.2568 144.333312 
L 347.1496 151.23941 
L 348.0424 152.886955 
L 348.9352 158.261007 
L 349.828 150.165959 
L 350.7208 160.608334 
L 351.6136 162.432522 
L 352.5064 160.166724 
L 354.292 141.286204 
L 355.1848 86.90025 
L 356.0776 103.779938 
L 356.9704 89.505749 
L 357.8632 82.273538 
L 358.756 77.86763 
L 359.6488 52.984613 
L 360.5416 50.066591 
L 361.4344 85.993252 
L 362.3272 72.177657 
L 363.22 69.34456 
L 364.1128 76.148749 
L 365.0056 75.798858 
L 365.8984 91.805517 
L 366.7912 98.996964 
L 367.684 109.181167 
L 369.4696 136.516817 
L 370.3624 127.229422 
L 371.2552 128.316462 
L 372.148 135.202178 
L 373.0408 136.279027 
L 373.9336 131.750827 
L 374.8264 130.877799 
L 375.7192 132.114306 
L 376.612 137.862029 
L 377.5048 152.013926 
L 380.1832 174.858744 
L 381.076 180.888417 
L 381.9688 189.02423 
L 382.8616 199.670424 
L 383.7544 203.196509 
L 384.6472 207.982881 
L 386.4328 221.418012 
L 387.3256 226.598435 
L 388.2184 222.100808 
L 389.1112 225.908844 
L 390.8968 238.776676 
L 391.7896 243.165599 
L 392.6824 240.546513 
L 393.5752 244.109965 
L 394.468 258.418124 
L 395.3608 258.193922 
L 396.2536 261.6147 
L 397.1464 260.42575 
L 398.0392 259.556119 
L 398.932 260.775641 
L 399.8248 259.607074 
L 400.7176 257.69796 
L 401.6104 260.089448 
L 402.5032 260.673731 
L 403.396 262.141235 
L 404.2888 266.003623 
L 405.1816 266.635465 
L 406.9672 270.929271 
L 407.86 270.294032 
L 408.7528 271.421836 
L 409.6456 269.849025 
L 410.5384 267.314864 
L 411.4312 265.830376 
L 412.324 266.689816 
L 414.1096 269.747116 
L 415.0024 266.615083 
L 415.8952 268.459653 
L 416.788 273.463432 
L 417.6808 275.793774 
L 418.5736 276.252369 
L 419.4664 276.493555 
L 420.3592 277.798003 
L 421.252 283.08713 
L 422.1448 286.205575 
L 423.0376 284.687117 
L 424.8232 285.791142 
L 425.716 285.740187 
L 426.6088 285.200064 
L 427.5016 285.675644 
L 428.3944 285.26121 
L 430.18 284.809409 
L 431.0728 284.371196 
L 431.9656 284.133406 
L 432.8584 283.69859 
L 433.7512 282.845943 
L 434.644 281.619627 
L 436.4296 282.163147 
L 439.108 282.108795 
L 440.0008 281.133856 
L 440.8936 279.88376 
L 442.6792 279.292683 
L 444.4648 278.908822 
L 445.3576 280.05361 
L 446.2504 280.783965 
L 447.1432 282.322806 
L 448.036 283.474388 
L 448.9288 282.890104 
L 449.8216 282.866325 
L 450.7144 282.56739 
L 451.6072 281.775889 
L 452.5 281.144047 
L 453.3928 280.977594 
L 454.2856 280.084183 
L 455.1784 280.254033 
L 456.0712 280.057007 
L 457.8568 280.281209 
L 458.7496 279.486312 
L 459.6424 279.662955 
L 460.5352 278.490991 
L 461.428 279.527075 
L 462.3208 279.859981 
L 463.2136 279.795438 
L 464.1064 279.323256 
L 464.9992 280.274415 
L 465.892 280.355943 
L 466.7848 280.814538 
L 467.6776 280.502014 
L 469.4632 280.59713 
L 470.356 281.524511 
L 471.2488 281.71814 
L 472.1416 281.602642 
L 473.0344 283.182246 
L 473.9272 283.066748 
L 474.82 283.657826 
L 475.7128 283.875234 
L 477.4984 283.477785 
L 478.3912 284.439136 
L 479.284 283.858249 
L 480.1768 284.405166 
L 481.0696 284.466312 
L 481.9624 284.870555 
L 482.8552 284.476503 
L 483.748 283.885425 
L 484.6408 283.083733 
L 485.5336 283.382669 
L 486.4264 282.356776 
L 487.3192 282.659109 
L 488.212 284.34402 
L 489.1048 283.464197 
L 490.8904 286.531687 
L 491.7832 287.482847 
L 492.676 287.876899 
L 492.676 287.876899 
" style="fill:none;stroke:#ccb974;stroke-linecap:square;stroke-width:2;"/>
   </g>
   <g id="patch_3">
    <path d="M 50.74 297.1575 
L 50.74 25.3575 
" style="fill:none;stroke:#000000;stroke-linecap:square;stroke-linejoin:miter;stroke-width:0.8;"/>
   </g>
   <g id="patch_4">
    <path d="M 50.74 297.1575 
L 497.14 297.1575 
" style="fill:none;stroke:#000000;stroke-linecap:square;stroke-linejoin:miter;stroke-width:0.8;"/>
   </g>
   <g id="text_14">
    <!-- CA -->
    <g style="fill:#4c72b0;" transform="translate(497.676 297.176302)scale(0.14 -0.14)">
     <defs>
      <path d="M 4122 4306 
L 4122 3641 
Q 3803 3938 3442 4084 
Q 3081 4231 2675 4231 
Q 1875 4231 1450 3742 
Q 1025 3253 1025 2328 
Q 1025 1406 1450 917 
Q 1875 428 2675 428 
Q 3081 428 3442 575 
Q 3803 722 4122 1019 
L 4122 359 
Q 3791 134 3420 21 
Q 3050 -91 2638 -91 
Q 1578 -91 968 557 
Q 359 1206 359 2328 
Q 359 3453 968 4101 
Q 1578 4750 2638 4750 
Q 3056 4750 3426 4639 
Q 3797 4528 4122 4306 
z
" id="DejaVuSans-43" transform="scale(0.015625)"/>
     </defs>
     <use xlink:href="#DejaVuSans-43"/>
     <use x="69.824219" xlink:href="#DejaVuSans-41"/>
    </g>
   </g>
   <g id="text_15">
    <!-- PA -->
    <g style="fill:#55a868;" transform="translate(497.676 293.990554)scale(0.14 -0.14)">
     <defs>
      <path d="M 1259 4147 
L 1259 2394 
L 2053 2394 
Q 2494 2394 2734 2622 
Q 2975 2850 2975 3272 
Q 2975 3691 2734 3919 
Q 2494 4147 2053 4147 
L 1259 4147 
z
M 628 4666 
L 2053 4666 
Q 2838 4666 3239 4311 
Q 3641 3956 3641 3272 
Q 3641 2581 3239 2228 
Q 2838 1875 2053 1875 
L 1259 1875 
L 1259 0 
L 628 0 
L 628 4666 
z
" id="DejaVuSans-50" transform="scale(0.015625)"/>
     </defs>
     <use xlink:href="#DejaVuSans-50"/>
     <use x="53.927734" xlink:href="#DejaVuSans-41"/>
    </g>
   </g>
   <g id="text_16">
    <!-- IL -->
    <g style="fill:#c44e52;" transform="translate(497.676 294.244841)scale(0.14 -0.14)">
     <defs>
      <path d="M 628 4666 
L 1259 4666 
L 1259 0 
L 628 0 
L 628 4666 
z
" id="DejaVuSans-49" transform="scale(0.015625)"/>
      <path d="M 628 4666 
L 1259 4666 
L 1259 531 
L 3531 531 
L 3531 0 
L 628 0 
L 628 4666 
z
" id="DejaVuSans-4c" transform="scale(0.015625)"/>
     </defs>
     <use xlink:href="#DejaVuSans-49"/>
     <use x="29.492188" xlink:href="#DejaVuSans-4c"/>
    </g>
   </g>
   <g id="text_17">
    <!-- WI -->
    <g style="fill:#8172b2;" transform="translate(497.676 296.354973)scale(0.14 -0.14)">
     <defs>
      <path d="M 213 4666 
L 850 4666 
L 1831 722 
L 2809 4666 
L 3519 4666 
L 4500 722 
L 5478 4666 
L 6119 4666 
L 4947 0 
L 4153 0 
L 3169 4050 
L 2175 0 
L 1381 0 
L 213 4666 
z
" id="DejaVuSans-57" transform="scale(0.015625)"/>
     </defs>
     <use xlink:href="#DejaVuSans-57"/>
     <use x="98.876953" xlink:href="#DejaVuSans-49"/>
    </g>
   </g>
   <g id="text_18">
    <!-- AZ -->
    <g style="fill:#ccb974;" transform="translate(497.676 291.876899)scale(0.14 -0.14)">
     <defs>
      <path d="M 359 4666 
L 4025 4666 
L 4025 4184 
L 1075 531 
L 4097 531 
L 4097 0 
L 288 0 
L 288 481 
L 3238 4134 
L 359 4134 
L 359 4666 
z
" id="DejaVuSans-5a" transform="scale(0.015625)"/>
     </defs>
     <use xlink:href="#DejaVuSans-41"/>
     <use x="68.408203" xlink:href="#DejaVuSans-5a"/>
    </g>
   </g>
   <g id="text_19">
    <!-- Cases per million people -->
    <g style="fill:#262626;" transform="translate(175.50875 19.3575)scale(0.16 -0.16)">
     <defs>
      <path d="M 2834 3397 
L 2834 2853 
Q 2591 2978 2328 3040 
Q 2066 3103 1784 3103 
Q 1356 3103 1142 2972 
Q 928 2841 928 2578 
Q 928 2378 1081 2264 
Q 1234 2150 1697 2047 
L 1894 2003 
Q 2506 1872 2764 1633 
Q 3022 1394 3022 966 
Q 3022 478 2636 193 
Q 2250 -91 1575 -91 
Q 1294 -91 989 -36 
Q 684 19 347 128 
L 347 722 
Q 666 556 975 473 
Q 1284 391 1588 391 
Q 1994 391 2212 530 
Q 2431 669 2431 922 
Q 2431 1156 2273 1281 
Q 2116 1406 1581 1522 
L 1381 1569 
Q 847 1681 609 1914 
Q 372 2147 372 2553 
Q 372 3047 722 3315 
Q 1072 3584 1716 3584 
Q 2034 3584 2315 3537 
Q 2597 3491 2834 3397 
z
" id="DejaVuSans-73" transform="scale(0.015625)"/>
      <path d="M 3597 1894 
L 3597 1613 
L 953 1613 
Q 991 1019 1311 708 
Q 1631 397 2203 397 
Q 2534 397 2845 478 
Q 3156 559 3463 722 
L 3463 178 
Q 3153 47 2828 -22 
Q 2503 -91 2169 -91 
Q 1331 -91 842 396 
Q 353 884 353 1716 
Q 353 2575 817 3079 
Q 1281 3584 2069 3584 
Q 2775 3584 3186 3129 
Q 3597 2675 3597 1894 
z
M 3022 2063 
Q 3016 2534 2758 2815 
Q 2500 3097 2075 3097 
Q 1594 3097 1305 2825 
Q 1016 2553 972 2059 
L 3022 2063 
z
" id="DejaVuSans-65" transform="scale(0.015625)"/>
      <path id="DejaVuSans-20" transform="scale(0.015625)"/>
      <path d="M 3328 2828 
Q 3544 3216 3844 3400 
Q 4144 3584 4550 3584 
Q 5097 3584 5394 3201 
Q 5691 2819 5691 2113 
L 5691 0 
L 5113 0 
L 5113 2094 
Q 5113 2597 4934 2840 
Q 4756 3084 4391 3084 
Q 3944 3084 3684 2787 
Q 3425 2491 3425 1978 
L 3425 0 
L 2847 0 
L 2847 2094 
Q 2847 2600 2669 2842 
Q 2491 3084 2119 3084 
Q 1678 3084 1418 2786 
Q 1159 2488 1159 1978 
L 1159 0 
L 581 0 
L 581 3500 
L 1159 3500 
L 1159 2956 
Q 1356 3278 1631 3431 
Q 1906 3584 2284 3584 
Q 2666 3584 2933 3390 
Q 3200 3197 3328 2828 
z
" id="DejaVuSans-6d" transform="scale(0.015625)"/>
      <path d="M 603 3500 
L 1178 3500 
L 1178 0 
L 603 0 
L 603 3500 
z
M 603 4863 
L 1178 4863 
L 1178 4134 
L 603 4134 
L 603 4863 
z
" id="DejaVuSans-69" transform="scale(0.015625)"/>
      <path d="M 1959 3097 
Q 1497 3097 1228 2736 
Q 959 2375 959 1747 
Q 959 1119 1226 758 
Q 1494 397 1959 397 
Q 2419 397 2687 759 
Q 2956 1122 2956 1747 
Q 2956 2369 2687 2733 
Q 2419 3097 1959 3097 
z
M 1959 3584 
Q 2709 3584 3137 3096 
Q 3566 2609 3566 1747 
Q 3566 888 3137 398 
Q 2709 -91 1959 -91 
Q 1206 -91 779 398 
Q 353 888 353 1747 
Q 353 2609 779 3096 
Q 1206 3584 1959 3584 
z
" id="DejaVuSans-6f" transform="scale(0.015625)"/>
     </defs>
     <use xlink:href="#DejaVuSans-43"/>
     <use x="69.824219" xlink:href="#DejaVuSans-61"/>
     <use x="131.103516" xlink:href="#DejaVuSans-73"/>
     <use x="183.203125" xlink:href="#DejaVuSans-65"/>
     <use x="244.726562" xlink:href="#DejaVuSans-73"/>
     <use x="296.826172" xlink:href="#DejaVuSans-20"/>
     <use x="328.613281" xlink:href="#DejaVuSans-70"/>
     <use x="392.089844" xlink:href="#DejaVuSans-65"/>
     <use x="453.613281" xlink:href="#DejaVuSans-72"/>
     <use x="494.726562" xlink:href="#DejaVuSans-20"/>
     <use x="526.513672" xlink:href="#DejaVuSans-6d"/>
     <use x="623.925781" xlink:href="#DejaVuSans-69"/>
     <use x="651.708984" xlink:href="#DejaVuSans-6c"/>
     <use x="679.492188" xlink:href="#DejaVuSans-6c"/>
     <use x="707.275391" xlink:href="#DejaVuSans-69"/>
     <use x="735.058594" xlink:href="#DejaVuSans-6f"/>
     <use x="796.240234" xlink:href="#DejaVuSans-6e"/>
     <use x="859.619141" xlink:href="#DejaVuSans-20"/>
     <use x="891.40625" xlink:href="#DejaVuSans-70"/>
     <use x="954.882812" xlink:href="#DejaVuSans-65"/>
     <use x="1016.40625" xlink:href="#DejaVuSans-6f"/>
     <use x="1077.587891" xlink:href="#DejaVuSans-70"/>
     <use x="1141.064453" xlink:href="#DejaVuSans-6c"/>
     <use x="1168.847656" xlink:href="#DejaVuSans-65"/>
    </g>
   </g>
   <g id="legend_1"/>
   <g id="PathCollection_1">
    <defs>
     <path d="M 0 2.236068 
C 0.593012 2.236068 1.161816 2.000462 1.581139 1.581139 
C 2.000462 1.161816 2.236068 0.593012 2.236068 -0 
C 2.236068 -0.593012 2.000462 -1.161816 1.581139 -1.581139 
C 1.161816 -2.000462 0.593012 -2.236068 0 -2.236068 
C -0.593012 -2.236068 -1.161816 -2.000462 -1.581139 -1.581139 
C -2.000462 -1.161816 -2.236068 -0.593012 -2.236068 0 
C -2.236068 0.593012 -2.000462 1.161816 -1.581139 1.581139 
C -1.161816 2.000462 -0.593012 2.236068 0 2.236068 
z
" id="C0_0_6d497ff5ef"/>
    </defs>
    <g clip-path="url(#p8ed4b03ff6)">
     <use style="fill:#4c72b0;stroke:#4c72b0;" x="492.676" xlink:href="#C0_0_6d497ff5ef" y="293.176302"/>
    </g>
    <g clip-path="url(#p8ed4b03ff6)">
     <use style="fill:#55a868;stroke:#55a868;" x="492.676" xlink:href="#C0_0_6d497ff5ef" y="289.990554"/>
    </g>
    <g clip-path="url(#p8ed4b03ff6)">
     <use style="fill:#c44e52;stroke:#c44e52;" x="492.676" xlink:href="#C0_0_6d497ff5ef" y="290.244841"/>
    </g>
    <g clip-path="url(#p8ed4b03ff6)">
     <use style="fill:#8172b2;stroke:#8172b2;" x="492.676" xlink:href="#C0_0_6d497ff5ef" y="292.354973"/>
    </g>
    <g clip-path="url(#p8ed4b03ff6)">
     <use style="fill:#ccb974;stroke:#ccb974;" x="492.676" xlink:href="#C0_0_6d497ff5ef" y="287.876899"/>
    </g>
   </g>
  </g>
 </g>
 <defs>
  <clipPath id="p8ed4b03ff6">
   <rect height="271.8" width="446.4" x="50.74" y="25.3575"/>
  </clipPath>
 </defs>
</svg>
