<?xml version="1.0" encoding="utf-8" standalone="no"?>
<!DOCTYPE svg PUBLIC "-//W3C//DTD SVG 1.1//EN"
  "http://www.w3.org/Graphics/SVG/1.1/DTD/svg11.dtd">
<svg height="342.408625pt" version="1.1" viewBox="0 0 508.958812 342.408625" width="508.958812pt" xmlns="http://www.w3.org/2000/svg" xmlns:xlink="http://www.w3.org/1999/xlink">
 <metadata>
  <rdf:RDF xmlns:cc="http://creativecommons.org/ns#" xmlns:dc="http://purl.org/dc/elements/1.1/" xmlns:rdf="http://www.w3.org/1999/02/22-rdf-syntax-ns#">
   <cc:Work>
    <dc:type rdf:resource="http://purl.org/dc/dcmitype/StillImage"/>
    <dc:date>2021-06-07T21:55:39.552152</dc:date>
    <dc:format>image/svg+xml</dc:format>
    <dc:creator>
     <cc:Agent>
      <dc:title>Matplotlib v3.4.2, https://matplotlib.org/</dc:title>
     </cc:Agent>
    </dc:creator>
   </cc:Work>
  </rdf:RDF>
 </metadata>
 <defs>
  <style type="text/css">*{stroke-linecap:butt;stroke-linejoin:round;}</style>
 </defs>
 <g id="figure_1">
  <g id="patch_1">
   <path d="M 0 342.408625 
L 508.958812 342.408625 
L 508.958812 0 
L 0 0 
z
" style="fill:none;"/>
  </g>
  <g id="axes_1">
   <g id="patch_2">
    <path d="M 35.47 297.1575 
L 481.87 297.1575 
L 481.87 25.3575 
L 35.47 25.3575 
z
" style="fill:#ffffff;"/>
   </g>
   <g id="matplotlib.axis_1">
    <g id="xtick_1">
     <g id="line2d_1">
      <defs>
       <path d="M 0 0 
L 0 6 
" id="m5db52bcaf6" style="stroke:#262626;"/>
      </defs>
      <g>
       <use style="fill:#262626;stroke:#262626;" x="35.47" xlink:href="#m5db52bcaf6" y="297.1575"/>
      </g>
     </g>
    </g>
    <g id="xtick_2">
     <g id="line2d_2">
      <g>
       <use style="fill:#262626;stroke:#262626;" x="92.6092" xlink:href="#m5db52bcaf6" y="297.1575"/>
      </g>
     </g>
     <g id="text_1">
      <!-- Apr -->
      <g style="fill:#262626;" transform="translate(82.2292 319.275625)scale(0.12 -0.12)">
       <defs>
        <path d="M 2188 4044 
L 1331 1722 
L 3047 1722 
L 2188 4044 
z
M 1831 4666 
L 2547 4666 
L 4325 0 
L 3669 0 
L 3244 1197 
L 1141 1197 
L 716 0 
L 50 0 
L 1831 4666 
z
" id="DejaVuSans-41" transform="scale(0.015625)"/>
        <path d="M 1159 525 
L 1159 -1331 
L 581 -1331 
L 581 3500 
L 1159 3500 
L 1159 2969 
Q 1341 3281 1617 3432 
Q 1894 3584 2278 3584 
Q 2916 3584 3314 3078 
Q 3713 2572 3713 1747 
Q 3713 922 3314 415 
Q 2916 -91 2278 -91 
Q 1894 -91 1617 61 
Q 1341 213 1159 525 
z
M 3116 1747 
Q 3116 2381 2855 2742 
Q 2594 3103 2138 3103 
Q 1681 3103 1420 2742 
Q 1159 2381 1159 1747 
Q 1159 1113 1420 752 
Q 1681 391 2138 391 
Q 2594 391 2855 752 
Q 3116 1113 3116 1747 
z
" id="DejaVuSans-70" transform="scale(0.015625)"/>
        <path d="M 2631 2963 
Q 2534 3019 2420 3045 
Q 2306 3072 2169 3072 
Q 1681 3072 1420 2755 
Q 1159 2438 1159 1844 
L 1159 0 
L 581 0 
L 581 3500 
L 1159 3500 
L 1159 2956 
Q 1341 3275 1631 3429 
Q 1922 3584 2338 3584 
Q 2397 3584 2469 3576 
Q 2541 3569 2628 3553 
L 2631 2963 
z
" id="DejaVuSans-72" transform="scale(0.015625)"/>
       </defs>
       <use xlink:href="#DejaVuSans-41"/>
       <use x="68.408203" xlink:href="#DejaVuSans-70"/>
       <use x="131.884766" xlink:href="#DejaVuSans-72"/>
      </g>
     </g>
    </g>
    <g id="xtick_3">
     <g id="line2d_3">
      <g>
       <use style="fill:#262626;stroke:#262626;" x="173.854" xlink:href="#m5db52bcaf6" y="297.1575"/>
      </g>
     </g>
     <g id="text_2">
      <!-- Jul -->
      <g style="fill:#262626;" transform="translate(166.614625 319.275625)scale(0.12 -0.12)">
       <defs>
        <path d="M 628 4666 
L 1259 4666 
L 1259 325 
Q 1259 -519 939 -900 
Q 619 -1281 -91 -1281 
L -331 -1281 
L -331 -750 
L -134 -750 
Q 284 -750 456 -515 
Q 628 -281 628 325 
L 628 4666 
z
" id="DejaVuSans-4a" transform="scale(0.015625)"/>
        <path d="M 544 1381 
L 544 3500 
L 1119 3500 
L 1119 1403 
Q 1119 906 1312 657 
Q 1506 409 1894 409 
Q 2359 409 2629 706 
Q 2900 1003 2900 1516 
L 2900 3500 
L 3475 3500 
L 3475 0 
L 2900 0 
L 2900 538 
Q 2691 219 2414 64 
Q 2138 -91 1772 -91 
Q 1169 -91 856 284 
Q 544 659 544 1381 
z
M 1991 3584 
L 1991 3584 
z
" id="DejaVuSans-75" transform="scale(0.015625)"/>
        <path d="M 603 4863 
L 1178 4863 
L 1178 0 
L 603 0 
L 603 4863 
z
" id="DejaVuSans-6c" transform="scale(0.015625)"/>
       </defs>
       <use xlink:href="#DejaVuSans-4a"/>
       <use x="29.492188" xlink:href="#DejaVuSans-75"/>
       <use x="92.871094" xlink:href="#DejaVuSans-6c"/>
      </g>
     </g>
    </g>
    <g id="xtick_4">
     <g id="line2d_4">
      <g>
       <use style="fill:#262626;stroke:#262626;" x="255.9916" xlink:href="#m5db52bcaf6" y="297.1575"/>
      </g>
     </g>
     <g id="text_3">
      <!-- Oct -->
      <g style="fill:#262626;" transform="translate(245.617225 319.275625)scale(0.12 -0.12)">
       <defs>
        <path d="M 2522 4238 
Q 1834 4238 1429 3725 
Q 1025 3213 1025 2328 
Q 1025 1447 1429 934 
Q 1834 422 2522 422 
Q 3209 422 3611 934 
Q 4013 1447 4013 2328 
Q 4013 3213 3611 3725 
Q 3209 4238 2522 4238 
z
M 2522 4750 
Q 3503 4750 4090 4092 
Q 4678 3434 4678 2328 
Q 4678 1225 4090 567 
Q 3503 -91 2522 -91 
Q 1538 -91 948 565 
Q 359 1222 359 2328 
Q 359 3434 948 4092 
Q 1538 4750 2522 4750 
z
" id="DejaVuSans-4f" transform="scale(0.015625)"/>
        <path d="M 3122 3366 
L 3122 2828 
Q 2878 2963 2633 3030 
Q 2388 3097 2138 3097 
Q 1578 3097 1268 2742 
Q 959 2388 959 1747 
Q 959 1106 1268 751 
Q 1578 397 2138 397 
Q 2388 397 2633 464 
Q 2878 531 3122 666 
L 3122 134 
Q 2881 22 2623 -34 
Q 2366 -91 2075 -91 
Q 1284 -91 818 406 
Q 353 903 353 1747 
Q 353 2603 823 3093 
Q 1294 3584 2113 3584 
Q 2378 3584 2631 3529 
Q 2884 3475 3122 3366 
z
" id="DejaVuSans-63" transform="scale(0.015625)"/>
        <path d="M 1172 4494 
L 1172 3500 
L 2356 3500 
L 2356 3053 
L 1172 3053 
L 1172 1153 
Q 1172 725 1289 603 
Q 1406 481 1766 481 
L 2356 481 
L 2356 0 
L 1766 0 
Q 1100 0 847 248 
Q 594 497 594 1153 
L 594 3053 
L 172 3053 
L 172 3500 
L 594 3500 
L 594 4494 
L 1172 4494 
z
" id="DejaVuSans-74" transform="scale(0.015625)"/>
       </defs>
       <use xlink:href="#DejaVuSans-4f"/>
       <use x="78.710938" xlink:href="#DejaVuSans-63"/>
       <use x="133.691406" xlink:href="#DejaVuSans-74"/>
      </g>
     </g>
    </g>
    <g id="xtick_5">
     <g id="line2d_5">
      <g>
       <use style="fill:#262626;stroke:#262626;" x="338.1292" xlink:href="#m5db52bcaf6" y="297.1575"/>
      </g>
     </g>
     <g id="text_4">
      <!-- Jan -->
      <g style="fill:#262626;" transform="translate(328.879825 319.275625)scale(0.12 -0.12)">
       <defs>
        <path d="M 2194 1759 
Q 1497 1759 1228 1600 
Q 959 1441 959 1056 
Q 959 750 1161 570 
Q 1363 391 1709 391 
Q 2188 391 2477 730 
Q 2766 1069 2766 1631 
L 2766 1759 
L 2194 1759 
z
M 3341 1997 
L 3341 0 
L 2766 0 
L 2766 531 
Q 2569 213 2275 61 
Q 1981 -91 1556 -91 
Q 1019 -91 701 211 
Q 384 513 384 1019 
Q 384 1609 779 1909 
Q 1175 2209 1959 2209 
L 2766 2209 
L 2766 2266 
Q 2766 2663 2505 2880 
Q 2244 3097 1772 3097 
Q 1472 3097 1187 3025 
Q 903 2953 641 2809 
L 641 3341 
Q 956 3463 1253 3523 
Q 1550 3584 1831 3584 
Q 2591 3584 2966 3190 
Q 3341 2797 3341 1997 
z
" id="DejaVuSans-61" transform="scale(0.015625)"/>
        <path d="M 3513 2113 
L 3513 0 
L 2938 0 
L 2938 2094 
Q 2938 2591 2744 2837 
Q 2550 3084 2163 3084 
Q 1697 3084 1428 2787 
Q 1159 2491 1159 1978 
L 1159 0 
L 581 0 
L 581 3500 
L 1159 3500 
L 1159 2956 
Q 1366 3272 1645 3428 
Q 1925 3584 2291 3584 
Q 2894 3584 3203 3211 
Q 3513 2838 3513 2113 
z
" id="DejaVuSans-6e" transform="scale(0.015625)"/>
       </defs>
       <use xlink:href="#DejaVuSans-4a"/>
       <use x="29.492188" xlink:href="#DejaVuSans-61"/>
       <use x="90.771484" xlink:href="#DejaVuSans-6e"/>
      </g>
      <!-- 2021 -->
      <g style="fill:#262626;" transform="translate(322.8592 332.713)scale(0.12 -0.12)">
       <defs>
        <path d="M 1228 531 
L 3431 531 
L 3431 0 
L 469 0 
L 469 531 
Q 828 903 1448 1529 
Q 2069 2156 2228 2338 
Q 2531 2678 2651 2914 
Q 2772 3150 2772 3378 
Q 2772 3750 2511 3984 
Q 2250 4219 1831 4219 
Q 1534 4219 1204 4116 
Q 875 4013 500 3803 
L 500 4441 
Q 881 4594 1212 4672 
Q 1544 4750 1819 4750 
Q 2544 4750 2975 4387 
Q 3406 4025 3406 3419 
Q 3406 3131 3298 2873 
Q 3191 2616 2906 2266 
Q 2828 2175 2409 1742 
Q 1991 1309 1228 531 
z
" id="DejaVuSans-32" transform="scale(0.015625)"/>
        <path d="M 2034 4250 
Q 1547 4250 1301 3770 
Q 1056 3291 1056 2328 
Q 1056 1369 1301 889 
Q 1547 409 2034 409 
Q 2525 409 2770 889 
Q 3016 1369 3016 2328 
Q 3016 3291 2770 3770 
Q 2525 4250 2034 4250 
z
M 2034 4750 
Q 2819 4750 3233 4129 
Q 3647 3509 3647 2328 
Q 3647 1150 3233 529 
Q 2819 -91 2034 -91 
Q 1250 -91 836 529 
Q 422 1150 422 2328 
Q 422 3509 836 4129 
Q 1250 4750 2034 4750 
z
" id="DejaVuSans-30" transform="scale(0.015625)"/>
        <path d="M 794 531 
L 1825 531 
L 1825 4091 
L 703 3866 
L 703 4441 
L 1819 4666 
L 2450 4666 
L 2450 531 
L 3481 531 
L 3481 0 
L 794 0 
L 794 531 
z
" id="DejaVuSans-31" transform="scale(0.015625)"/>
       </defs>
       <use xlink:href="#DejaVuSans-32"/>
       <use x="63.623047" xlink:href="#DejaVuSans-30"/>
       <use x="127.246094" xlink:href="#DejaVuSans-32"/>
       <use x="190.869141" xlink:href="#DejaVuSans-31"/>
      </g>
     </g>
    </g>
    <g id="xtick_6">
     <g id="line2d_6">
      <g>
       <use style="fill:#262626;stroke:#262626;" x="418.4812" xlink:href="#m5db52bcaf6" y="297.1575"/>
      </g>
     </g>
     <g id="text_5">
      <!-- Apr -->
      <g style="fill:#262626;" transform="translate(408.1012 319.275625)scale(0.12 -0.12)">
       <use xlink:href="#DejaVuSans-41"/>
       <use x="68.408203" xlink:href="#DejaVuSans-70"/>
       <use x="131.884766" xlink:href="#DejaVuSans-72"/>
      </g>
     </g>
    </g>
    <g id="xtick_7">
     <g id="line2d_7">
      <g>
       <use style="fill:#262626;stroke:#262626;" x="481.87" xlink:href="#m5db52bcaf6" y="297.1575"/>
      </g>
     </g>
    </g>
    <g id="xtick_8">
     <g id="line2d_8">
      <defs>
       <path d="M 0 0 
L 0 3 
" id="ma456851bda" style="stroke:#262626;stroke-width:0.5;"/>
      </defs>
      <g>
       <use style="fill:#262626;stroke:#262626;stroke-width:0.5;" x="39.0412" xlink:href="#ma456851bda" y="297.1575"/>
      </g>
     </g>
    </g>
    <g id="xtick_9">
     <g id="line2d_9">
      <g>
       <use style="fill:#262626;stroke:#262626;stroke-width:0.5;" x="64.9324" xlink:href="#ma456851bda" y="297.1575"/>
      </g>
     </g>
    </g>
    <g id="xtick_10">
     <g id="line2d_10">
      <g>
       <use style="fill:#262626;stroke:#262626;stroke-width:0.5;" x="119.3932" xlink:href="#ma456851bda" y="297.1575"/>
      </g>
     </g>
    </g>
    <g id="xtick_11">
     <g id="line2d_11">
      <g>
       <use style="fill:#262626;stroke:#262626;stroke-width:0.5;" x="147.07" xlink:href="#ma456851bda" y="297.1575"/>
      </g>
     </g>
    </g>
    <g id="xtick_12">
     <g id="line2d_12">
      <g>
       <use style="fill:#262626;stroke:#262626;stroke-width:0.5;" x="201.5308" xlink:href="#ma456851bda" y="297.1575"/>
      </g>
     </g>
    </g>
    <g id="xtick_13">
     <g id="line2d_13">
      <g>
       <use style="fill:#262626;stroke:#262626;stroke-width:0.5;" x="229.2076" xlink:href="#ma456851bda" y="297.1575"/>
      </g>
     </g>
    </g>
    <g id="xtick_14">
     <g id="line2d_14">
      <g>
       <use style="fill:#262626;stroke:#262626;stroke-width:0.5;" x="283.6684" xlink:href="#ma456851bda" y="297.1575"/>
      </g>
     </g>
    </g>
    <g id="xtick_15">
     <g id="line2d_15">
      <g>
       <use style="fill:#262626;stroke:#262626;stroke-width:0.5;" x="310.4524" xlink:href="#ma456851bda" y="297.1575"/>
      </g>
     </g>
    </g>
    <g id="xtick_16">
     <g id="line2d_16">
      <g>
       <use style="fill:#262626;stroke:#262626;stroke-width:0.5;" x="365.806" xlink:href="#ma456851bda" y="297.1575"/>
      </g>
     </g>
    </g>
    <g id="xtick_17">
     <g id="line2d_17">
      <g>
       <use style="fill:#262626;stroke:#262626;stroke-width:0.5;" x="390.8044" xlink:href="#ma456851bda" y="297.1575"/>
      </g>
     </g>
    </g>
    <g id="xtick_18">
     <g id="line2d_18">
      <g>
       <use style="fill:#262626;stroke:#262626;stroke-width:0.5;" x="445.2652" xlink:href="#ma456851bda" y="297.1575"/>
      </g>
     </g>
    </g>
    <g id="xtick_19">
     <g id="line2d_19">
      <g>
       <use style="fill:#262626;stroke:#262626;stroke-width:0.5;" x="472.942" xlink:href="#ma456851bda" y="297.1575"/>
      </g>
     </g>
    </g>
   </g>
   <g id="matplotlib.axis_2">
    <g id="ytick_1">
     <g id="line2d_20">
      <path clip-path="url(#pe9b2d6ee27)" d="M 35.47 297.1575 
L 481.87 297.1575 
" style="fill:none;stroke:#b0b0b0;stroke-linecap:square;stroke-opacity:0.3;"/>
     </g>
     <g id="line2d_21">
      <defs>
       <path d="M 0 0 
L -6 0 
" id="m337ff0990a" style="stroke:#262626;"/>
      </defs>
      <g>
       <use style="fill:#262626;stroke:#262626;" x="35.47" xlink:href="#m337ff0990a" y="297.1575"/>
      </g>
     </g>
     <g id="text_6">
      <!-- 0 -->
      <g style="fill:#262626;" transform="translate(14.835 301.716562)scale(0.12 -0.12)">
       <use xlink:href="#DejaVuSans-30"/>
      </g>
     </g>
    </g>
    <g id="ytick_2">
     <g id="line2d_22">
      <path clip-path="url(#pe9b2d6ee27)" d="M 35.47 246.541071 
L 481.87 246.541071 
" style="fill:none;stroke:#b0b0b0;stroke-linecap:square;stroke-opacity:0.3;"/>
     </g>
     <g id="line2d_23">
      <g>
       <use style="fill:#262626;stroke:#262626;" x="35.47" xlink:href="#m337ff0990a" y="246.541071"/>
      </g>
     </g>
     <g id="text_7">
      <!-- 5 -->
      <g style="fill:#262626;" transform="translate(14.835 251.100133)scale(0.12 -0.12)">
       <defs>
        <path d="M 691 4666 
L 3169 4666 
L 3169 4134 
L 1269 4134 
L 1269 2991 
Q 1406 3038 1543 3061 
Q 1681 3084 1819 3084 
Q 2600 3084 3056 2656 
Q 3513 2228 3513 1497 
Q 3513 744 3044 326 
Q 2575 -91 1722 -91 
Q 1428 -91 1123 -41 
Q 819 9 494 109 
L 494 744 
Q 775 591 1075 516 
Q 1375 441 1709 441 
Q 2250 441 2565 725 
Q 2881 1009 2881 1497 
Q 2881 1984 2565 2268 
Q 2250 2553 1709 2553 
Q 1456 2553 1204 2497 
Q 953 2441 691 2322 
L 691 4666 
z
" id="DejaVuSans-35" transform="scale(0.015625)"/>
       </defs>
       <use xlink:href="#DejaVuSans-35"/>
      </g>
     </g>
    </g>
    <g id="ytick_3">
     <g id="line2d_24">
      <path clip-path="url(#pe9b2d6ee27)" d="M 35.47 195.924641 
L 481.87 195.924641 
" style="fill:none;stroke:#b0b0b0;stroke-linecap:square;stroke-opacity:0.3;"/>
     </g>
     <g id="line2d_25">
      <g>
       <use style="fill:#262626;stroke:#262626;" x="35.47" xlink:href="#m337ff0990a" y="195.924641"/>
      </g>
     </g>
     <g id="text_8">
      <!-- 10 -->
      <g style="fill:#262626;" transform="translate(7.2 200.483704)scale(0.12 -0.12)">
       <use xlink:href="#DejaVuSans-31"/>
       <use x="63.623047" xlink:href="#DejaVuSans-30"/>
      </g>
     </g>
    </g>
    <g id="ytick_4">
     <g id="line2d_26">
      <path clip-path="url(#pe9b2d6ee27)" d="M 35.47 145.308212 
L 481.87 145.308212 
" style="fill:none;stroke:#b0b0b0;stroke-linecap:square;stroke-opacity:0.3;"/>
     </g>
     <g id="line2d_27">
      <g>
       <use style="fill:#262626;stroke:#262626;" x="35.47" xlink:href="#m337ff0990a" y="145.308212"/>
      </g>
     </g>
     <g id="text_9">
      <!-- 15 -->
      <g style="fill:#262626;" transform="translate(7.2 149.867275)scale(0.12 -0.12)">
       <use xlink:href="#DejaVuSans-31"/>
       <use x="63.623047" xlink:href="#DejaVuSans-35"/>
      </g>
     </g>
    </g>
    <g id="ytick_5">
     <g id="line2d_28">
      <path clip-path="url(#pe9b2d6ee27)" d="M 35.47 94.691783 
L 481.87 94.691783 
" style="fill:none;stroke:#b0b0b0;stroke-linecap:square;stroke-opacity:0.3;"/>
     </g>
     <g id="line2d_29">
      <g>
       <use style="fill:#262626;stroke:#262626;" x="35.47" xlink:href="#m337ff0990a" y="94.691783"/>
      </g>
     </g>
     <g id="text_10">
      <!-- 20 -->
      <g style="fill:#262626;" transform="translate(7.2 99.250845)scale(0.12 -0.12)">
       <use xlink:href="#DejaVuSans-32"/>
       <use x="63.623047" xlink:href="#DejaVuSans-30"/>
      </g>
     </g>
    </g>
    <g id="ytick_6">
     <g id="line2d_30">
      <path clip-path="url(#pe9b2d6ee27)" d="M 35.47 44.075354 
L 481.87 44.075354 
" style="fill:none;stroke:#b0b0b0;stroke-linecap:square;stroke-opacity:0.3;"/>
     </g>
     <g id="line2d_31">
      <g>
       <use style="fill:#262626;stroke:#262626;" x="35.47" xlink:href="#m337ff0990a" y="44.075354"/>
      </g>
     </g>
     <g id="text_11">
      <!-- 25 -->
      <g style="fill:#262626;" transform="translate(7.2 48.634416)scale(0.12 -0.12)">
       <use xlink:href="#DejaVuSans-32"/>
       <use x="63.623047" xlink:href="#DejaVuSans-35"/>
      </g>
     </g>
    </g>
   </g>
   <g id="line2d_32">
    <path clip-path="url(#pe9b2d6ee27)" d="M 34.5772 297.1575 
L 74.7532 297.047556 
L 79.2172 296.754373 
L 81.8956 296.46119 
L 85.4668 295.76488 
L 88.1452 294.225669 
L 89.038 293.712599 
L 89.9308 293.602655 
L 90.8236 293.199529 
L 91.7164 292.319979 
L 92.6092 291.880205 
L 93.502 291.147247 
L 94.3948 290.634177 
L 95.2876 289.791275 
L 97.0732 288.398656 
L 97.966 287.519107 
L 98.8588 286.383022 
L 99.7516 286.126487 
L 100.6444 285.72336 
L 101.5372 285.833304 
L 103.3228 284.733867 
L 104.2156 285.02705 
L 106.0012 281.655445 
L 106.894 280.446065 
L 107.7868 278.320488 
L 108.6796 278.833558 
L 109.5724 278.906854 
L 110.4652 277.440938 
L 111.358 277.367643 
L 112.2508 276.011671 
L 113.1436 276.304854 
L 114.0364 277.147755 
L 114.9292 277.367643 
L 115.822 276.011671 
L 116.7148 276.341502 
L 118.5004 278.503727 
L 119.3932 277.807417 
L 120.286 278.063953 
L 121.1788 278.137248 
L 122.0716 278.943502 
L 122.9644 278.760262 
L 123.8572 278.210544 
L 124.75 278.686967 
L 125.6428 278.723614 
L 127.4284 277.58753 
L 128.3212 277.990657 
L 129.214 278.247192 
L 130.1068 277.514234 
L 130.9996 279.639812 
L 131.8924 277.294347 
L 132.7852 278.027305 
L 133.678 278.063953 
L 134.5708 278.760262 
L 135.4636 278.1006 
L 136.3564 278.833558 
L 137.2492 275.718488 
L 138.142 278.906854 
L 139.0348 278.320488 
L 140.8204 279.346628 
L 141.7132 281.142375 
L 142.606 280.775896 
L 143.4988 281.838685 
L 144.3916 280.519361 
L 145.2844 280.812544 
L 146.1772 280.592656 
L 147.07 279.603164 
L 147.9628 278.79691 
L 148.8556 280.262826 
L 149.7484 280.959135 
L 150.6412 282.278459 
L 151.534 282.058572 
L 152.4268 282.09522 
L 153.3196 282.79153 
L 154.2124 281.948628 
L 155.1052 280.775896 
L 155.998 280.409417 
L 156.8908 281.179023 
L 157.7836 281.288966 
L 159.5692 280.995783 
L 161.3548 281.985276 
L 162.2476 281.838685 
L 163.1404 281.069079 
L 164.0332 281.179023 
L 164.926 281.472206 
L 165.8188 280.995783 
L 166.7116 281.215671 
L 167.6044 280.849192 
L 168.4972 280.629304 
L 169.39 280.775896 
L 170.2828 282.241811 
L 171.1756 281.765389 
L 172.0684 281.838685 
L 172.9612 280.812544 
L 173.854 281.032431 
L 174.7468 280.556009 
L 175.6396 280.922487 
L 176.5324 281.508854 
L 177.4252 281.325614 
L 178.318 279.823051 
L 179.2108 279.566516 
L 180.1036 277.367643 
L 180.9964 276.561389 
L 182.782 272.126995 
L 183.6748 272.493474 
L 184.5676 273.922742 
L 185.4604 272.823305 
L 186.3532 272.969897 
L 188.1388 272.56677 
L 189.0316 272.0537 
L 189.9244 272.676714 
L 190.8172 272.310235 
L 191.71 273.116488 
L 192.6028 272.603418 
L 193.4956 271.503981 
L 194.3884 270.844319 
L 196.174 270.001418 
L 197.0668 268.572151 
L 197.9596 266.629813 
L 198.8524 266.15339 
L 199.7452 267.142883 
L 200.638 264.284348 
L 201.5308 262.818433 
L 203.3164 262.122123 
L 204.2092 261.242574 
L 205.102 261.169278 
L 205.9948 260.326377 
L 206.8876 261.425813 
L 207.7804 262.928376 
L 208.6732 261.755644 
L 209.566 261.975531 
L 210.4588 262.048827 
L 211.3516 262.635193 
L 212.2444 261.205926 
L 213.1372 262.378658 
L 214.03 263.074968 
L 214.9228 264.907362 
L 216.7084 265.310489 
L 217.6012 264.980658 
L 218.494 267.619306 
L 219.3868 266.446573 
L 220.2796 263.881221 
L 221.1724 263.917869 
L 222.0652 263.588038 
L 222.958 264.687475 
L 223.8508 265.603672 
L 224.7436 264.357644 
L 225.6364 265.933503 
L 226.5292 268.975277 
L 227.422 268.315615 
L 228.3148 268.938629 
L 229.2076 270.038066 
L 230.1004 268.462207 
L 230.9932 267.802545 
L 231.886 267.54601 
L 232.7788 267.765897 
L 233.6716 268.169024 
L 235.4572 271.723869 
L 236.35 272.969897 
L 237.2428 275.278713 
L 238.1356 274.399164 
L 239.0284 274.252573 
L 239.9212 273.116488 
L 240.814 271.687221 
L 241.7068 269.195165 
L 242.5996 270.551136 
L 243.4924 271.027559 
L 244.3852 273.446319 
L 245.278 271.87046 
L 246.1708 273.996037 
L 247.0636 274.765643 
L 248.8492 275.278713 
L 249.742 275.828432 
L 250.6348 274.399164 
L 251.5276 276.451446 
L 252.4204 275.535249 
L 253.3132 276.19491 
L 254.206 275.828432 
L 255.0988 275.718488 
L 255.9916 275.16877 
L 256.8844 277.330995 
L 257.7772 277.58753 
L 258.67 277.294347 
L 259.5628 277.440938 
L 260.4556 280.299473 
L 261.3484 280.299473 
L 262.2412 281.179023 
L 263.134 281.472206 
L 264.0268 280.812544 
L 266.7052 282.534994 
L 267.598 282.718234 
L 268.4908 281.985276 
L 269.3836 282.534994 
L 270.2764 283.524487 
L 271.1692 282.571642 
L 272.062 282.754882 
L 273.8476 281.142375 
L 276.526 282.315107 
L 277.4188 283.267952 
L 278.3116 282.09522 
L 279.2044 282.09522 
L 280.0972 284.257445 
L 280.99 286.126487 
L 281.8828 285.760008 
L 282.7756 285.576769 
L 283.6684 285.686712 
L 284.5612 286.089839 
L 285.454 287.152628 
L 286.3468 287.006036 
L 287.2396 286.199783 
L 288.1324 285.72336 
L 289.0252 286.053191 
L 289.918 286.016543 
L 290.8108 284.880459 
L 291.7036 285.356881 
L 292.5964 286.492966 
L 293.4892 287.079332 
L 294.382 286.93274 
L 295.2748 286.529614 
L 296.1676 286.529614 
L 297.0604 287.299219 
L 297.9532 286.639557 
L 298.846 284.037558 
L 299.7388 281.985276 
L 300.6316 281.362262 
L 301.5244 280.482713 
L 303.31 280.152882 
L 304.2028 278.28384 
L 305.0956 278.28384 
L 305.9884 279.932995 
L 306.8812 280.629304 
L 307.774 281.655445 
L 308.6668 281.582149 
L 309.5596 280.995783 
L 310.4524 280.592656 
L 311.3452 280.372769 
L 312.238 276.598037 
L 313.1308 271.833812 
L 314.0236 269.891474 
L 314.9164 268.352263 
L 315.8092 266.263334 
L 316.702 263.771278 
L 317.5948 259.556771 
L 318.4876 258.677222 
L 319.3804 258.200799 
L 320.2732 257.50449 
L 321.166 256.62494 
L 322.0588 255.232321 
L 322.9516 251.530885 
L 323.8444 245.300744 
L 324.7372 241.489364 
L 325.63 236.981675 
L 326.5228 235.112633 
L 327.4156 235.112633 
L 328.3084 231.777675 
L 329.2012 232.254098 
L 330.094 232.950407 
L 330.9868 231.594436 
L 331.8796 243.358407 
L 332.7724 239.620322 
L 333.6652 240.463224 
L 334.558 240.389928 
L 335.4508 234.856097 
L 336.3436 232.73052 
L 338.1292 213.893508 
L 339.022 212.097762 
L 339.9148 210.961677 
L 340.8076 206.783818 
L 341.7004 204.365058 
L 342.5932 200.077256 
L 343.486 202.349424 
L 344.3788 187.580327 
L 345.2716 181.460131 
L 346.1644 173.837371 
L 347.0572 173.067765 
L 347.95 164.528808 
L 348.8428 164.748696 
L 349.7356 161.780217 
L 350.6284 160.790724 
L 351.5212 161.780217 
L 352.414 165.481653 
L 353.3068 173.983962 
L 354.1996 176.769202 
L 355.0924 174.460385 
L 355.9852 170.429118 
L 356.878 173.3243 
L 357.7708 171.638498 
L 358.6636 167.973709 
L 359.5564 159.4714 
L 360.4492 156.759457 
L 361.342 153.277908 
L 362.2348 157.05264 
L 363.1276 155.476781 
L 364.0204 155.110302 
L 364.9132 157.529063 
L 365.806 158.44526 
L 367.5916 168.633371 
L 368.4844 167.607231 
L 369.3772 171.125427 
L 370.27 176.476018 
L 372.0556 181.496779 
L 372.9484 182.999342 
L 373.8412 187.140553 
L 374.734 190.365566 
L 375.6268 194.396834 
L 376.5196 191.68489 
L 377.4124 190.768693 
L 379.198 206.527283 
L 380.0908 206.783818 
L 380.9836 210.74179 
L 381.8764 210.705142 
L 382.7692 214.846353 
L 383.662 213.417085 
L 384.5548 208.616213 
L 385.4476 208.359677 
L 386.3404 185.344806 
L 387.2332 185.344806 
L 388.126 187.213848 
L 389.0188 192.051369 
L 389.9116 191.86813 
L 390.8044 188.826355 
L 391.6972 190.695397 
L 392.59 219.720521 
L 393.4828 221.223085 
L 394.3756 222.249225 
L 395.2684 218.547789 
L 396.1612 223.715141 
L 397.054 227.893 
L 397.9468 229.505506 
L 398.8396 230.788182 
L 399.7324 235.772295 
L 400.6252 242.25897 
L 401.518 214.773057 
L 402.4108 212.684128 
L 403.3036 214.626466 
L 404.1964 219.39069 
L 405.0892 220.27024 
L 405.982 220.929902 
L 406.8748 220.929902 
L 407.7676 256.038574 
L 408.6604 258.200799 
L 409.5532 255.378912 
L 410.446 253.436575 
L 411.3388 252.776913 
L 412.2316 253.180039 
L 413.1244 252.703617 
L 414.0172 249.295364 
L 414.91 248.012688 
L 415.8028 251.530885 
L 416.6956 253.912997 
L 417.5884 257.834321 
L 418.4812 261.13263 
L 419.374 261.572405 
L 420.2668 265.12725 
L 421.1596 267.875841 
L 422.0524 268.828686 
L 422.9452 269.378404 
L 423.838 270.917615 
L 424.7308 270.807672 
L 425.6236 272.56677 
L 426.5164 272.017052 
L 427.4092 270.771024 
L 428.302 271.650573 
L 429.1948 272.933249 
L 430.0876 270.257953 
L 430.9804 272.163643 
L 431.8732 273.739502 
L 432.766 274.582404 
L 433.6588 276.048319 
L 434.5516 277.001164 
L 435.4444 276.048319 
L 436.3372 279.236685 
L 437.23 279.090093 
L 438.1228 279.603164 
L 439.0156 280.629304 
L 439.9084 280.995783 
L 440.8012 280.629304 
L 441.694 282.754882 
L 442.5868 283.524487 
L 443.4796 283.964262 
L 444.3724 283.744375 
L 445.2652 281.582149 
L 446.158 280.262826 
L 447.0508 279.713107 
L 447.9436 278.393783 
L 448.8364 279.053445 
L 449.7292 278.137248 
L 450.622 280.482713 
L 451.5148 281.875332 
L 452.4076 283.011417 
L 453.3004 283.561135 
L 454.1932 284.440684 
L 455.086 282.388403 
L 455.9788 282.351755 
L 456.8716 281.948628 
L 457.7644 283.341248 
L 458.6572 283.561135 
L 459.55 283.634431 
L 460.4428 283.964262 
L 461.3356 286.456318 
L 462.2284 288.435304 
L 463.1212 288.691839 
L 464.014 287.775642 
L 464.9068 288.105473 
L 465.7996 288.142121 
L 466.6924 287.775642 
L 467.5852 287.848938 
L 468.478 284.257445 
L 469.3708 284.037558 
L 470.2636 284.953755 
L 472.0492 286.089839 
L 472.942 286.859445 
L 473.8348 287.11598 
L 474.7276 290.450937 
L 475.6204 290.597529 
L 476.5132 290.267698 
L 477.406 286.236431 
L 477.406 286.236431 
" style="fill:none;stroke:#4c72b0;stroke-linecap:square;stroke-width:2;"/>
   </g>
   <g id="line2d_33">
    <path clip-path="url(#pe9b2d6ee27)" d="M 34.5772 297.1575 
L 79.2172 297.1575 
L 80.11 297.044525 
L 81.8956 297.044525 
L 83.6812 296.818575 
L 87.2524 295.462876 
L 88.1452 294.672051 
L 89.038 293.429326 
L 90.8236 292.412552 
L 91.7164 289.927102 
L 92.6092 289.701152 
L 93.502 288.684378 
L 94.3948 288.232478 
L 95.2876 285.295129 
L 96.1804 283.713479 
L 97.0732 283.374554 
L 97.966 278.064731 
L 98.8588 270.608384 
L 99.7516 268.574834 
L 100.6444 259.536837 
L 101.5372 254.791889 
L 102.43 255.808663 
L 103.3228 252.758339 
L 104.2156 240.105144 
L 105.1084 238.410519 
L 106.0012 229.824422 
L 106.894 230.276322 
L 107.7868 225.418398 
L 108.6796 211.296528 
L 109.5724 206.438604 
L 110.4652 198.417382 
L 111.358 196.948708 
L 112.2508 208.698104 
L 113.1436 211.409503 
L 114.0364 218.978825 
L 114.9292 230.954171 
L 115.822 231.632021 
L 116.7148 243.833317 
L 118.5004 200.337956 
L 119.3932 197.174657 
L 120.286 189.605335 
L 121.1788 187.345836 
L 122.0716 191.638884 
L 122.9644 171.303391 
L 123.8572 187.797735 
L 124.75 182.036012 
L 125.6428 178.194864 
L 126.5356 184.295512 
L 127.4284 186.893936 
L 128.3212 188.023685 
L 129.214 216.041476 
L 130.1068 213.104127 
L 130.9996 218.188001 
L 131.8924 217.171226 
L 133.678 219.76965 
L 134.5708 216.493376 
L 135.4636 212.313303 
L 136.3564 219.204775 
L 137.2492 230.615247 
L 138.142 229.372522 
L 139.0348 225.870298 
L 139.9276 224.740548 
L 140.8204 229.485497 
L 141.7132 240.670018 
L 142.606 241.121918 
L 143.4988 239.540269 
L 144.3916 248.013391 
L 145.2844 250.159915 
L 146.1772 250.837765 
L 147.07 250.27289 
L 147.9628 241.234893 
L 148.8556 246.092817 
L 149.7484 244.624142 
L 150.6412 242.364643 
L 151.534 246.431741 
L 152.4268 247.222566 
L 153.3196 248.239341 
L 154.2124 251.967515 
L 155.1052 251.85454 
L 155.998 260.440637 
L 156.8908 265.863435 
L 157.7836 265.75046 
L 158.6764 265.75046 
L 159.5692 263.265011 
L 161.3548 270.834334 
L 162.2476 271.173258 
L 164.0332 274.223582 
L 164.926 274.901432 
L 165.8188 278.177706 
L 166.7116 277.499856 
L 167.6044 275.466307 
L 169.39 276.934982 
L 170.2828 276.257132 
L 171.1756 276.483082 
L 172.0684 275.918207 
L 172.9612 276.370107 
L 173.854 281.792905 
L 174.7468 279.533406 
L 175.6396 278.516631 
L 176.5324 281.22803 
L 177.4252 281.115055 
L 178.318 281.90588 
L 179.2108 281.341005 
L 180.1036 279.081506 
L 180.9964 281.67993 
L 181.8892 281.45398 
L 182.782 279.985306 
L 183.6748 279.872331 
L 184.5676 279.420431 
L 185.4604 281.566955 
L 186.3532 280.55018 
L 187.246 280.889105 
L 188.1388 282.696705 
L 189.0316 283.26158 
L 189.9244 283.148605 
L 190.8172 283.487529 
L 191.71 283.487529 
L 192.6028 284.278354 
L 193.4956 285.521079 
L 194.3884 285.295129 
L 195.2812 285.972979 
L 196.174 286.311904 
L 197.0668 286.085954 
L 197.9596 285.521079 
L 198.8524 286.537853 
L 199.7452 285.182154 
L 200.638 285.972979 
L 201.5308 285.521079 
L 202.4236 285.408104 
L 204.2092 285.972979 
L 205.102 286.876778 
L 205.9948 286.763803 
L 206.8876 285.972979 
L 207.7804 285.634054 
L 208.6732 285.860004 
L 209.566 285.634054 
L 210.4588 284.956204 
L 211.3516 281.67993 
L 212.2444 282.018855 
L 213.1372 279.872331 
L 214.03 279.872331 
L 214.9228 279.307456 
L 215.8156 279.420431 
L 216.7084 279.420431 
L 217.6012 280.663155 
L 219.3868 284.052404 
L 220.2796 283.826454 
L 221.1724 284.617279 
L 222.0652 285.069179 
L 222.958 285.295129 
L 223.8508 286.085954 
L 225.6364 286.650828 
L 226.5292 286.198929 
L 228.3148 285.747029 
L 229.2076 286.085954 
L 230.9932 285.521079 
L 231.886 285.972979 
L 233.6716 286.424878 
L 234.5644 284.504304 
L 235.4572 286.085954 
L 236.35 286.989753 
L 237.2428 287.102728 
L 238.1356 286.650828 
L 239.0284 288.345453 
L 239.9212 288.345453 
L 240.814 287.554628 
L 242.5996 288.006528 
L 243.4924 287.667603 
L 244.3852 286.763803 
L 246.1708 282.018855 
L 247.0636 281.341005 
L 247.9564 279.759356 
L 248.8492 277.499856 
L 249.742 277.725806 
L 250.6348 280.098281 
L 251.5276 280.32423 
L 252.4204 282.35778 
L 253.3132 285.747029 
L 254.206 286.198929 
L 255.0988 288.232478 
L 255.9916 287.667603 
L 256.8844 286.198929 
L 257.7772 286.537853 
L 259.5628 283.713479 
L 260.4556 283.374554 
L 261.3484 282.35778 
L 262.2412 281.566955 
L 263.134 282.13183 
L 264.0268 280.211255 
L 264.9196 281.45398 
L 265.8124 280.889105 
L 266.7052 281.341005 
L 267.598 282.018855 
L 268.4908 283.148605 
L 269.3836 281.67993 
L 270.2764 284.278354 
L 271.1692 282.58373 
L 272.062 283.826454 
L 274.7404 278.629606 
L 275.6332 277.838781 
L 276.526 276.144157 
L 277.4188 277.386881 
L 278.3116 277.386881 
L 279.2044 278.064731 
L 280.0972 279.081506 
L 280.99 278.177706 
L 284.5612 279.533406 
L 285.454 278.403656 
L 286.3468 277.047957 
L 287.2396 276.709032 
L 288.1324 275.466307 
L 289.0252 273.884658 
L 289.918 273.997633 
L 290.8108 273.997633 
L 291.7036 271.173258 
L 292.5964 268.913759 
L 293.4892 267.445085 
L 294.382 268.461859 
L 295.2748 267.33211 
L 296.1676 264.168811 
L 297.0604 263.152036 
L 297.9532 265.863435 
L 299.7388 255.243789 
L 301.5244 239.653244 
L 302.4172 238.862419 
L 303.31 236.941845 
L 304.2028 231.519046 
L 305.0956 227.000048 
L 305.9884 226.209223 
L 307.774 243.494392 
L 308.6668 240.105144 
L 309.5596 239.879194 
L 310.4524 229.372522 
L 311.3452 224.740548 
L 312.238 213.894952 
L 313.1308 196.157883 
L 314.0236 184.860386 
L 314.9164 186.103111 
L 315.8092 185.086336 
L 316.702 186.667986 
L 317.5948 180.115438 
L 318.4876 177.629989 
L 320.2732 166.332492 
L 321.166 158.876145 
L 322.0588 157.40747 
L 322.9516 145.996999 
L 323.8444 143.398575 
L 324.7372 141.70395 
L 325.63 142.8337 
L 326.5228 141.252051 
L 327.4156 144.528325 
L 328.3084 144.302375 
L 329.2012 148.708398 
L 330.094 153.679297 
L 330.9868 148.369473 
L 331.8796 158.424245 
L 332.7724 178.985688 
L 333.6652 175.596439 
L 334.558 173.675865 
L 335.4508 167.801167 
L 336.3436 156.164746 
L 337.2364 154.696071 
L 338.1292 144.076425 
L 339.022 144.076425 
L 339.9148 152.097647 
L 340.8076 152.549547 
L 341.7004 162.265394 
L 342.5932 156.842596 
L 343.486 161.587544 
L 344.3788 163.847043 
L 345.2716 137.749827 
L 346.1644 132.665953 
L 347.0572 131.423229 
L 347.95 126.791255 
L 348.8428 127.921005 
L 349.7356 124.079856 
L 350.6284 121.933332 
L 351.5212 126.90423 
L 352.414 124.305806 
L 353.3068 124.418781 
L 354.1996 141.70395 
L 355.0924 137.862802 
L 356.878 145.319149 
L 357.7708 145.996999 
L 358.6636 150.403023 
L 359.5564 153.227397 
L 360.4492 137.184952 
L 361.342 157.40747 
L 362.2348 159.102095 
L 363.1276 161.361594 
L 364.0204 169.269841 
L 365.806 175.483464 
L 366.6988 186.103111 
L 367.5916 194.915158 
L 368.4844 207.568354 
L 369.3772 212.539252 
L 371.1628 209.262979 
L 372.0556 211.748428 
L 372.9484 207.907279 
L 373.8412 208.472154 
L 374.734 210.731653 
L 375.6268 214.233877 
L 376.5196 218.978825 
L 377.4124 224.514599 
L 378.3052 222.594024 
L 379.198 239.540269 
L 380.0908 233.326646 
L 382.7692 240.557043 
L 383.662 240.218118 
L 384.5548 240.670018 
L 385.4476 231.293096 
L 386.3404 243.833317 
L 387.2332 245.414967 
L 388.126 246.318766 
L 389.0188 256.034613 
L 389.9116 250.159915 
L 390.8044 251.063715 
L 391.6972 253.549164 
L 392.59 254.001064 
L 393.4828 257.051388 
L 394.3756 259.649812 
L 395.2684 253.888089 
L 396.1612 259.084937 
L 397.054 259.197912 
L 397.9468 262.135261 
L 398.8396 266.541285 
L 400.6252 267.219135 
L 401.518 272.980858 
L 402.4108 276.483082 
L 403.3036 271.286233 
L 404.1964 266.767235 
L 405.0892 267.33211 
L 405.982 269.139709 
L 406.8748 269.930534 
L 407.7676 267.219135 
L 408.6604 265.863435 
L 409.5532 273.545733 
L 410.446 278.855556 
L 411.3388 276.257132 
L 414.0172 274.223582 
L 414.91 273.997633 
L 415.8028 270.721359 
L 416.6956 271.173258 
L 417.5884 272.754908 
L 418.4812 273.771683 
L 419.374 275.353332 
L 420.2668 274.675482 
L 421.1596 275.466307 
L 422.0524 276.709032 
L 422.9452 276.257132 
L 423.838 275.466307 
L 424.7308 274.449532 
L 425.6236 272.867883 
L 426.5164 272.980858 
L 427.4092 273.545733 
L 428.302 273.884658 
L 429.1948 270.495409 
L 430.0876 270.269459 
L 430.9804 269.704584 
L 431.8732 267.78401 
L 432.766 267.55806 
L 433.6588 264.959635 
L 434.5516 265.07261 
L 435.4444 263.942861 
L 436.3372 262.587161 
L 437.23 262.022286 
L 438.1228 262.248236 
L 439.0156 261.683362 
L 439.9084 263.942861 
L 440.8012 263.490961 
L 441.694 263.377986 
L 443.4796 263.377986 
L 444.3724 264.959635 
L 445.2652 266.20236 
L 446.158 264.507736 
L 447.0508 264.620711 
L 447.9436 267.445085 
L 448.8364 267.671035 
L 449.7292 267.33211 
L 450.622 266.42831 
L 451.5148 266.541285 
L 452.4076 267.55806 
L 453.3004 266.993185 
L 454.1932 266.993185 
L 455.086 266.767235 
L 455.9788 268.461859 
L 456.8716 270.834334 
L 457.7644 271.738133 
L 458.6572 265.52451 
L 459.55 264.055836 
L 460.4428 265.863435 
L 461.3356 267.10616 
L 462.2284 266.88021 
L 463.1212 267.445085 
L 464.014 265.97641 
L 464.9068 272.303008 
L 465.7996 274.675482 
L 466.6924 273.432758 
L 467.5852 274.675482 
L 468.478 274.562507 
L 469.3708 274.675482 
L 470.2636 277.047957 
L 471.1564 277.499856 
L 472.0492 276.934982 
L 472.942 282.13183 
L 473.8348 281.90588 
L 474.7276 282.470755 
L 476.5132 280.55018 
L 477.406 280.77613 
L 477.406 280.77613 
" style="fill:none;stroke:#55a868;stroke-linecap:square;stroke-width:2;"/>
   </g>
   <g id="line2d_34">
    <path clip-path="url(#pe9b2d6ee27)" d="M 34.5772 297.1575 
L 78.3244 297.1575 
L 79.2172 297.043834 
L 80.11 297.043834 
L 81.0028 296.702835 
L 82.7884 296.475503 
L 85.4668 295.452506 
L 86.3596 294.884175 
L 87.2524 294.656843 
L 88.1452 293.52018 
L 89.038 292.156185 
L 89.9308 290.110193 
L 90.8236 288.97353 
L 91.7164 286.813872 
L 92.6092 282.949219 
L 93.502 281.357892 
L 94.3948 277.265907 
L 95.2876 274.651584 
L 97.0732 271.582595 
L 97.966 265.67195 
L 98.8588 261.011634 
L 99.7516 255.214656 
L 100.6444 252.259334 
L 101.5372 247.82635 
L 102.43 246.689688 
L 103.3228 241.347374 
L 104.2156 241.006375 
L 105.1084 241.006375 
L 106.0012 234.982064 
L 106.894 236.346059 
L 107.7868 230.094416 
L 109.5724 233.61807 
L 110.4652 228.844087 
L 111.358 226.798095 
L 112.2508 227.25276 
L 113.1436 221.910446 
L 114.0364 227.593759 
L 114.9292 224.297438 
L 115.822 225.206767 
L 116.7148 222.933443 
L 117.6076 223.956439 
L 118.5004 221.569448 
L 119.3932 222.137779 
L 120.286 218.500459 
L 121.1788 218.841458 
L 122.0716 219.750788 
L 122.9644 216.3408 
L 123.8572 211.225819 
L 125.6428 206.451837 
L 126.5356 207.815832 
L 127.4284 206.906502 
L 128.3212 205.428841 
L 129.214 209.179827 
L 130.1068 201.905187 
L 130.9996 205.542507 
L 131.8924 204.746844 
L 132.7852 207.702166 
L 133.678 209.40716 
L 135.4636 208.270497 
L 136.3564 213.953809 
L 137.2492 218.841458 
L 138.142 221.569448 
L 139.0348 221.228449 
L 139.9276 219.182457 
L 140.8204 222.70611 
L 141.7132 233.390737 
L 142.606 232.254075 
L 143.4988 229.98075 
L 144.3916 232.595073 
L 145.2844 234.5274 
L 146.1772 235.550396 
L 147.07 235.095731 
L 147.9628 228.16209 
L 148.8556 234.982064 
L 149.7484 234.982064 
L 150.6412 237.369056 
L 151.534 236.914391 
L 152.4268 238.846717 
L 153.3196 219.409789 
L 154.2124 221.001116 
L 155.1052 224.752103 
L 155.998 227.139094 
L 156.8908 224.979435 
L 157.7836 229.753417 
L 158.6764 232.026742 
L 159.5692 251.577336 
L 160.462 254.987323 
L 161.3548 253.395996 
L 162.2476 257.487981 
L 163.1404 259.420307 
L 164.0332 256.805983 
L 164.926 257.033316 
L 165.8188 257.82898 
L 166.7116 261.125301 
L 167.6044 263.171293 
L 168.4972 264.535288 
L 169.39 267.831609 
L 170.2828 270.2186 
L 171.1756 270.673265 
L 172.0684 271.468929 
L 172.9612 273.173922 
L 173.854 277.379574 
L 174.7468 277.49324 
L 175.6396 278.629902 
L 176.5324 279.993897 
L 178.318 281.812557 
L 180.1036 279.539232 
L 180.9964 281.698891 
L 181.8892 282.721887 
L 183.6748 280.107563 
L 184.5676 280.334896 
L 185.4604 280.789561 
L 186.3532 283.517551 
L 187.246 283.062886 
L 189.0316 284.199548 
L 189.9244 285.790876 
L 190.8172 285.563543 
L 191.71 286.245541 
L 192.6028 284.767879 
L 193.4956 285.108878 
L 194.3884 284.426881 
L 195.2812 284.995212 
L 196.174 285.336211 
L 197.0668 283.631217 
L 197.9596 283.062886 
L 198.8524 283.858549 
L 199.7452 284.199548 
L 200.638 283.176552 
L 201.5308 284.199548 
L 202.4236 283.176552 
L 203.3164 284.767879 
L 204.2092 285.563543 
L 205.102 284.085882 
L 205.9948 283.631217 
L 206.8876 282.380888 
L 207.7804 281.357892 
L 208.6732 281.926223 
L 209.566 282.835553 
L 210.4588 282.153556 
L 211.3516 282.267222 
L 212.2444 281.471558 
L 213.1372 283.517551 
L 214.03 284.313214 
L 214.9228 283.403884 
L 215.8156 281.698891 
L 216.7084 281.471558 
L 217.6012 282.380888 
L 218.494 282.380888 
L 219.3868 282.03989 
L 220.2796 280.334896 
L 222.0652 282.03989 
L 222.958 281.471558 
L 223.8508 280.22123 
L 224.7436 281.016893 
L 225.6364 280.903227 
L 226.5292 282.494555 
L 227.422 281.926223 
L 228.3148 281.812557 
L 229.2076 280.789561 
L 230.1004 281.698891 
L 230.9932 281.13056 
L 231.886 279.3119 
L 232.7788 277.947905 
L 233.6716 278.857235 
L 234.5644 279.084567 
L 235.4572 282.153556 
L 236.35 281.812557 
L 237.2428 282.03989 
L 238.1356 281.698891 
L 239.0284 281.13056 
L 239.9212 279.766565 
L 240.814 279.652898 
L 241.7068 279.198233 
L 242.5996 278.40257 
L 243.4924 278.629902 
L 244.3852 280.789561 
L 245.278 281.016893 
L 246.1708 281.471558 
L 247.0636 280.562228 
L 247.9564 279.880231 
L 248.8492 281.244226 
L 250.6348 278.970901 
L 251.5276 279.084567 
L 252.4204 279.084567 
L 253.3132 278.970901 
L 254.206 278.970901 
L 255.0988 277.49324 
L 255.9916 278.629902 
L 256.8844 276.58391 
L 258.67 275.447247 
L 259.5628 275.106249 
L 261.3484 274.083252 
L 262.2412 272.491925 
L 263.134 274.424251 
L 264.0268 274.196919 
L 265.8124 275.901912 
L 266.7052 275.788246 
L 267.598 274.76525 
L 269.3836 269.877601 
L 270.2764 269.991268 
L 271.1692 269.195604 
L 272.062 267.376944 
L 273.8476 264.535288 
L 275.6332 267.945275 
L 276.526 264.080623 
L 277.4188 263.398626 
L 278.3116 264.080623 
L 279.2044 263.284959 
L 280.0972 264.194289 
L 280.99 263.057627 
L 281.8828 262.148297 
L 282.7756 267.035945 
L 283.6684 262.716628 
L 284.5612 262.602962 
L 285.454 261.125301 
L 286.3468 259.988638 
L 287.2396 254.987323 
L 288.1324 251.691002 
L 289.0252 243.961698 
L 289.918 245.212026 
L 290.8108 244.643695 
L 291.7036 242.484037 
L 292.5964 232.822406 
L 293.4892 237.937387 
L 294.382 240.892709 
L 295.2748 228.957754 
L 296.1676 226.457096 
L 297.0604 224.411104 
L 297.9532 221.114783 
L 298.846 219.523455 
L 299.7388 204.405845 
L 300.6316 194.062217 
L 301.5244 198.381534 
L 302.4172 195.539878 
L 303.31 192.12989 
L 304.2028 187.242242 
L 305.0956 186.10558 
L 305.9884 190.538563 
L 306.8812 195.880877 
L 307.774 196.562874 
L 308.6668 202.700851 
L 309.5596 197.813203 
L 310.4524 197.017539 
L 311.3452 187.128576 
L 312.238 178.83094 
L 313.1308 171.783633 
L 314.0236 163.485997 
L 314.9164 157.120687 
L 315.8092 158.598348 
L 316.702 158.825681 
L 317.5948 162.122002 
L 318.4876 160.530675 
L 319.3804 153.028703 
L 320.2732 160.303342 
L 321.166 159.280346 
L 322.0588 158.030017 
L 322.9516 160.871673 
L 323.8444 165.418323 
L 324.7372 168.146313 
L 325.63 168.714644 
L 326.5228 172.806629 
L 327.4156 175.875618 
L 328.3084 175.307286 
L 329.2012 173.715959 
L 330.094 175.989284 
L 330.9868 186.10558 
L 331.8796 189.288234 
L 332.7724 194.971547 
L 333.6652 191.561559 
L 334.558 189.629233 
L 335.4508 191.561559 
L 336.3436 187.242242 
L 337.2364 181.786262 
L 338.1292 203.496515 
L 339.022 184.400586 
L 339.9148 185.082583 
L 340.8076 190.538563 
L 341.7004 187.696907 
L 342.5932 192.016224 
L 343.486 187.469574 
L 344.3788 168.600978 
L 345.2716 184.059587 
L 347.95 191.675225 
L 348.8428 197.017539 
L 349.7356 208.043165 
L 350.6284 210.089157 
L 351.5212 205.201509 
L 352.414 211.112153 
L 353.3068 211.453152 
L 354.1996 222.478778 
L 355.0924 221.455781 
L 355.9852 218.15946 
L 357.7708 226.229764 
L 358.6636 225.775099 
L 359.5564 226.116097 
L 360.4492 217.704795 
L 361.342 221.569448 
L 362.2348 223.160775 
L 363.1276 227.593759 
L 364.0204 232.595073 
L 364.9132 233.277071 
L 365.806 237.028057 
L 366.6988 242.256704 
L 367.5916 243.734365 
L 368.4844 249.076679 
L 369.3772 245.325693 
L 370.27 244.530029 
L 371.1628 240.779043 
L 372.0556 239.64238 
L 372.9484 244.18903 
L 373.8412 246.121356 
L 374.734 241.688373 
L 375.6268 248.963013 
L 376.5196 250.440674 
L 377.4124 253.623329 
L 378.3052 253.168664 
L 379.198 252.032001 
L 380.9836 261.693632 
L 381.8764 258.397311 
L 382.7692 258.624643 
L 383.662 257.942646 
L 384.5548 258.510977 
L 385.4476 259.761306 
L 386.3404 257.260648 
L 387.2332 261.920964 
L 388.126 262.261963 
L 389.0188 264.876287 
L 390.8044 268.39994 
L 391.6972 265.899283 
L 392.59 265.558284 
L 393.4828 263.625958 
L 394.3756 266.353948 
L 395.2684 263.966957 
L 396.1612 265.444618 
L 397.054 267.49061 
L 398.8396 272.832924 
L 399.7324 272.150926 
L 400.6252 272.491925 
L 401.518 276.015579 
L 402.4108 275.333581 
L 403.3036 274.878916 
L 404.1964 274.878916 
L 405.0892 275.788246 
L 406.8748 281.13056 
L 407.7676 281.13056 
L 408.6604 279.993897 
L 409.5532 278.629902 
L 410.446 279.425566 
L 411.3388 279.766565 
L 412.2316 279.539232 
L 413.1244 278.061571 
L 414.0172 277.947905 
L 414.91 278.516236 
L 415.8028 280.334896 
L 416.6956 279.993897 
L 417.5884 277.720572 
L 418.4812 279.084567 
L 419.374 279.652898 
L 420.2668 281.585225 
L 421.1596 282.03989 
L 422.0524 281.471558 
L 423.838 283.176552 
L 424.7308 281.357892 
L 425.6236 281.698891 
L 426.5164 281.016893 
L 427.4092 281.357892 
L 428.302 280.789561 
L 430.0876 278.629902 
L 430.9804 279.425566 
L 431.8732 279.198233 
L 432.766 278.061571 
L 433.6588 278.743568 
L 434.5516 278.175237 
L 435.4444 278.629902 
L 436.3372 279.766565 
L 437.23 278.970901 
L 438.1228 278.629902 
L 439.0156 277.947905 
L 439.9084 276.242911 
L 440.8012 277.379574 
L 441.694 276.129245 
L 442.5868 275.219915 
L 443.4796 274.878916 
L 444.3724 273.514921 
L 445.2652 272.605591 
L 446.158 272.264593 
L 447.0508 269.991268 
L 449.7292 270.900598 
L 450.622 270.673265 
L 451.5148 272.605591 
L 452.4076 272.264593 
L 453.3004 274.310585 
L 454.1932 273.628587 
L 455.9788 275.788246 
L 456.8716 274.310585 
L 457.7644 271.696261 
L 459.55 273.173922 
L 460.4428 272.94659 
L 461.3356 271.696261 
L 462.2284 269.650269 
L 463.1212 273.287589 
L 464.014 273.742254 
L 464.9068 273.742254 
L 465.7996 273.287589 
L 466.6924 274.537917 
L 468.478 275.788246 
L 469.3708 275.333581 
L 470.2636 275.560914 
L 471.1564 276.242911 
L 472.0492 273.060256 
L 472.942 273.969586 
L 474.7276 278.516236 
L 475.6204 279.539232 
L 476.5132 280.334896 
L 477.406 278.175237 
L 477.406 278.175237 
" style="fill:none;stroke:#c44e52;stroke-linecap:square;stroke-width:2;"/>
   </g>
   <g id="line2d_35">
    <path clip-path="url(#pe9b2d6ee27)" d="M 34.5772 297.1575 
L 80.11 297.1575 
L 81.0028 296.659452 
L 82.7884 296.161404 
L 83.6812 296.161404 
L 84.574 295.91238 
L 85.4668 295.91238 
L 86.3596 295.414332 
L 87.2524 295.165308 
L 88.1452 293.920188 
L 89.9308 293.920188 
L 90.8236 293.422139 
L 91.7164 292.177019 
L 92.6092 290.682875 
L 93.502 290.433851 
L 94.3948 288.690683 
L 95.2876 286.449466 
L 96.1804 283.212154 
L 97.0732 281.468986 
L 97.966 279.974841 
L 99.7516 277.484601 
L 100.6444 276.986553 
L 101.5372 276.986553 
L 102.43 279.227769 
L 103.3228 279.227769 
L 104.2156 277.733625 
L 105.1084 277.982649 
L 106.0012 276.986553 
L 106.894 278.729721 
L 107.7868 279.476793 
L 108.6796 277.982649 
L 109.5724 278.231673 
L 110.4652 279.476793 
L 111.358 281.468986 
L 114.0364 283.710202 
L 115.822 284.706298 
L 116.7148 282.96313 
L 117.6076 281.967034 
L 118.5004 282.465082 
L 119.3932 280.970938 
L 120.286 280.223865 
L 121.1788 280.970938 
L 122.9644 283.959226 
L 123.8572 283.710202 
L 124.75 282.714106 
L 125.6428 282.96313 
L 126.5356 281.219962 
L 127.4284 281.967034 
L 128.3212 279.974841 
L 129.214 280.970938 
L 130.1068 282.465082 
L 131.8924 281.967034 
L 132.7852 283.461178 
L 133.678 283.959226 
L 134.5708 284.706298 
L 135.4636 284.955322 
L 136.3564 282.216058 
L 137.2492 283.959226 
L 138.142 284.457274 
L 139.9276 282.96313 
L 140.8204 283.461178 
L 141.7132 284.706298 
L 142.606 282.714106 
L 143.4988 281.468986 
L 144.3916 278.978745 
L 145.2844 276.986553 
L 146.1772 276.239481 
L 147.07 276.488505 
L 147.9628 273.998264 
L 148.8556 277.484601 
L 149.7484 277.982649 
L 150.6412 280.970938 
L 151.534 282.714106 
L 152.4268 283.710202 
L 154.2124 284.20825 
L 155.1052 281.967034 
L 155.998 281.219962 
L 156.8908 281.219962 
L 157.7836 283.710202 
L 158.6764 283.710202 
L 159.5692 283.959226 
L 160.462 285.204346 
L 161.3548 287.196538 
L 162.2476 288.690683 
L 163.1404 287.694587 
L 164.0332 284.457274 
L 164.926 284.955322 
L 165.8188 285.204346 
L 166.7116 285.204346 
L 167.6044 284.706298 
L 168.4972 284.706298 
L 169.39 287.445563 
L 170.2828 288.441659 
L 172.9612 288.441659 
L 173.854 290.931899 
L 174.7468 290.682875 
L 175.6396 289.935803 
L 176.5324 292.675067 
L 177.4252 292.675067 
L 178.318 292.426043 
L 179.2108 291.180923 
L 180.1036 291.180923 
L 180.9964 292.177019 
L 181.8892 291.927995 
L 182.782 290.931899 
L 184.5676 291.429947 
L 185.4604 292.924091 
L 186.3532 292.924091 
L 187.246 292.675067 
L 188.1388 292.924091 
L 189.0316 291.429947 
L 190.8172 290.433851 
L 191.71 288.690683 
L 192.6028 287.445563 
L 193.4956 285.204346 
L 194.3884 285.951418 
L 195.2812 285.204346 
L 196.174 285.204346 
L 197.0668 284.706298 
L 198.8524 285.702394 
L 199.7452 286.947514 
L 200.638 283.212154 
L 201.5308 283.461178 
L 203.3164 283.461178 
L 204.2092 283.710202 
L 205.102 282.465082 
L 205.9948 282.216058 
L 206.8876 282.714106 
L 207.7804 284.20825 
L 208.6732 283.959226 
L 209.566 284.955322 
L 210.4588 285.45337 
L 211.3516 286.449466 
L 212.2444 286.947514 
L 213.1372 288.690683 
L 214.03 287.196538 
L 214.9228 287.445563 
L 215.8156 286.947514 
L 216.7084 285.702394 
L 217.6012 284.955322 
L 218.494 285.204346 
L 219.3868 286.200442 
L 220.2796 285.951418 
L 222.0652 286.449466 
L 222.958 286.449466 
L 223.8508 286.947514 
L 224.7436 286.200442 
L 225.6364 286.200442 
L 226.5292 287.943611 
L 227.422 287.196538 
L 228.3148 287.445563 
L 229.2076 288.441659 
L 230.1004 287.445563 
L 230.9932 288.690683 
L 232.7788 285.204346 
L 233.6716 285.951418 
L 234.5644 285.951418 
L 235.4572 287.694587 
L 236.35 286.69849 
L 237.2428 285.45337 
L 238.1356 286.69849 
L 239.0284 286.947514 
L 239.9212 286.69849 
L 240.814 286.69849 
L 241.7068 284.457274 
L 242.5996 285.951418 
L 243.4924 287.694587 
L 244.3852 286.947514 
L 245.278 289.437755 
L 246.1708 289.437755 
L 247.0636 288.690683 
L 247.9564 289.935803 
L 248.8492 289.437755 
L 249.742 288.441659 
L 250.6348 287.694587 
L 251.5276 286.69849 
L 253.3132 287.196538 
L 254.206 283.959226 
L 255.9916 276.488505 
L 256.8844 277.484601 
L 257.7772 274.247288 
L 258.67 273.002168 
L 259.5628 272.255096 
L 260.4556 272.753144 
L 261.3484 274.994361 
L 262.2412 277.733625 
L 263.134 274.994361 
L 264.0268 275.492409 
L 264.9196 274.994361 
L 265.8124 273.500216 
L 266.7052 269.515832 
L 268.4908 264.286327 
L 269.3836 263.539255 
L 270.2764 267.772663 
L 271.1692 269.515832 
L 272.062 263.290231 
L 272.9548 262.543159 
L 273.8476 257.811702 
L 274.7404 256.815606 
L 276.526 243.368308 
L 277.4188 240.878067 
L 278.3116 247.103668 
L 279.2044 238.387827 
L 280.0972 235.897587 
L 280.99 227.928817 
L 281.8828 232.909298 
L 282.7756 225.438577 
L 283.6684 223.446385 
L 284.5612 224.442481 
L 285.454 226.683697 
L 286.3468 226.434673 
L 287.2396 231.16613 
L 288.1324 220.956144 
L 289.0252 224.193457 
L 289.918 225.936625 
L 290.8108 221.454192 
L 291.7036 217.967856 
L 292.5964 216.224688 
L 293.4892 209.252015 
L 294.382 209.00299 
L 295.2748 206.761774 
L 296.1676 206.761774 
L 297.0604 209.00299 
L 297.9532 202.77739 
L 298.846 203.275438 
L 300.6316 194.559596 
L 301.5244 195.804716 
L 302.4172 196.800813 
L 303.31 197.547885 
L 304.2028 192.816428 
L 305.0956 191.571308 
L 305.9884 195.057644 
L 306.8812 212.987375 
L 307.774 217.718832 
L 308.6668 213.983471 
L 309.5596 215.228591 
L 310.4524 214.232495 
L 311.3452 209.501039 
L 312.238 209.999087 
L 313.1308 196.800813 
L 314.0236 181.610346 
L 314.9164 182.606442 
L 315.8092 178.871082 
L 316.702 189.82814 
L 317.5948 189.081067 
L 318.4876 188.832043 
L 319.3804 191.322284 
L 320.2732 199.789101 
L 321.166 200.536173 
L 322.0588 202.528365 
L 322.9516 209.252015 
L 323.8444 209.999087 
L 324.7372 209.999087 
L 325.63 206.761774 
L 326.5228 198.793005 
L 327.4156 197.298861 
L 328.3084 198.793005 
L 329.2012 180.116202 
L 330.094 183.353515 
L 330.9868 183.602539 
L 331.8796 199.291053 
L 332.7724 220.458096 
L 333.6652 223.197361 
L 334.558 219.711024 
L 336.3436 237.640755 
L 337.2364 241.625139 
L 338.1292 240.130995 
L 339.022 240.629043 
L 339.9148 241.874164 
L 340.8076 245.3605 
L 341.7004 244.11538 
L 342.5932 235.648563 
L 343.486 237.391731 
L 345.2716 220.209072 
L 346.1644 220.70712 
L 347.0572 221.703216 
L 347.95 231.16613 
L 348.8428 238.138803 
L 349.7356 236.395635 
L 350.6284 237.142707 
L 351.5212 212.987375 
L 352.414 213.485423 
L 353.3068 209.00299 
L 354.1996 212.738351 
L 355.0924 208.255918 
L 355.9852 207.010798 
L 356.878 205.26763 
L 357.7708 227.181745 
L 358.6636 225.936625 
L 359.5564 229.173938 
L 360.4492 223.944433 
L 362.2348 235.399539 
L 363.1276 234.154418 
L 364.0204 235.897587 
L 364.9132 236.395635 
L 365.806 238.387827 
L 366.6988 243.119284 
L 367.5916 248.846837 
L 368.4844 244.862452 
L 369.3772 250.839029 
L 370.27 251.835125 
L 371.1628 252.333173 
L 372.0556 252.333173 
L 372.9484 251.337077 
L 373.8412 245.3605 
L 374.734 253.329269 
L 375.6268 257.811702 
L 376.5196 264.286327 
L 377.4124 264.535351 
L 378.3052 263.788279 
L 379.198 266.527543 
L 380.0908 273.500216 
L 380.9836 273.500216 
L 381.8764 267.523639 
L 382.7692 265.282423 
L 383.662 265.531447 
L 384.5548 266.527543 
L 385.4476 266.776567 
L 386.3404 263.041207 
L 387.2332 252.831221 
L 388.126 260.301942 
L 389.0188 261.298038 
L 389.9116 261.298038 
L 390.8044 261.547063 
L 391.6972 262.045111 
L 392.59 263.788279 
L 393.4828 274.994361 
L 394.3756 273.500216 
L 395.2684 275.243385 
L 396.1612 274.247288 
L 397.054 274.247288 
L 397.9468 276.488505 
L 398.8396 277.982649 
L 399.7324 278.480697 
L 400.6252 280.223865 
L 401.518 278.978745 
L 402.4108 280.472889 
L 403.3036 280.223865 
L 404.1964 285.702394 
L 405.0892 284.20825 
L 405.982 284.955322 
L 406.8748 282.714106 
L 407.7676 281.967034 
L 408.6604 281.468986 
L 409.5532 281.71801 
L 410.446 282.96313 
L 411.3388 281.967034 
L 412.2316 282.96313 
L 413.1244 285.45337 
L 414.0172 288.690683 
L 414.91 288.690683 
L 415.8028 287.943611 
L 416.6956 284.20825 
L 417.5884 284.20825 
L 419.374 280.721913 
L 420.2668 280.472889 
L 421.1596 280.721913 
L 422.0524 281.219962 
L 422.9452 282.96313 
L 423.838 286.947514 
L 424.7308 286.200442 
L 425.6236 287.694587 
L 426.5164 287.694587 
L 429.1948 286.200442 
L 430.0876 285.951418 
L 430.9804 288.441659 
L 431.8732 288.192635 
L 432.766 286.69849 
L 433.6588 287.445563 
L 434.5516 287.943611 
L 435.4444 288.939707 
L 436.3372 290.184827 
L 437.23 289.188731 
L 438.1228 287.196538 
L 439.0156 284.20825 
L 439.9084 283.959226 
L 440.8012 284.20825 
L 441.694 280.472889 
L 442.5868 271.259 
L 443.4796 271.259 
L 444.3724 272.753144 
L 445.2652 273.500216 
L 446.158 273.74924 
L 447.0508 273.74924 
L 447.9436 275.243385 
L 448.8364 281.71801 
L 449.7292 279.227769 
L 450.622 278.480697 
L 451.5148 276.488505 
L 452.4076 275.990457 
L 453.3004 275.990457 
L 454.1932 276.239481 
L 455.086 274.496313 
L 455.9788 274.247288 
L 456.8716 276.737529 
L 457.7644 282.216058 
L 460.4428 282.216058 
L 461.3356 285.951418 
L 462.2284 290.184827 
L 463.1212 287.694587 
L 464.014 288.192635 
L 464.9068 288.192635 
L 465.7996 287.943611 
L 466.6924 288.690683 
L 467.5852 288.939707 
L 468.478 277.235577 
L 469.3708 275.990457 
L 470.2636 276.737529 
L 471.1564 276.737529 
L 472.0492 270.511928 
L 472.942 268.519736 
L 473.8348 265.033399 
L 474.7276 270.01388 
L 475.6204 266.278519 
L 477.406 266.278519 
L 477.406 266.278519 
" style="fill:none;stroke:#8172b2;stroke-linecap:square;stroke-width:2;"/>
   </g>
   <g id="line2d_36">
    <path clip-path="url(#pe9b2d6ee27)" d="M 34.5772 297.1575 
L 81.0028 297.1575 
L 81.8956 296.955463 
L 82.7884 296.955463 
L 83.6812 296.753427 
L 84.574 296.753427 
L 85.4668 295.94528 
L 86.3596 295.94528 
L 87.2524 295.541206 
L 88.1452 294.328986 
L 89.038 294.328986 
L 90.8236 293.520839 
L 91.7164 293.520839 
L 92.6092 292.510655 
L 93.502 291.702509 
L 94.3948 291.904545 
L 95.2876 289.480105 
L 96.1804 287.863811 
L 97.0732 287.661774 
L 97.966 286.449554 
L 98.8588 286.853627 
L 99.7516 286.247517 
L 100.6444 285.843444 
L 101.5372 285.237333 
L 102.43 286.449554 
L 103.3228 286.04548 
L 104.2156 286.247517 
L 105.1084 284.631223 
L 106.0012 284.429187 
L 106.894 281.600673 
L 107.7868 283.216966 
L 108.6796 282.812893 
L 109.5724 283.216966 
L 111.358 278.166048 
L 112.2508 275.943644 
L 113.1436 278.166048 
L 114.0364 278.166048 
L 114.9292 279.176232 
L 115.822 279.782342 
L 116.7148 280.186415 
L 117.6076 282.610856 
L 118.5004 284.429187 
L 119.3932 284.631223 
L 120.286 281.398636 
L 121.1788 279.984379 
L 122.0716 279.984379 
L 122.9644 277.357901 
L 123.8572 273.317167 
L 124.75 270.892726 
L 125.6428 259.376633 
L 126.5356 260.992927 
L 127.4284 262.003111 
L 128.3212 260.79089 
L 129.214 263.417368 
L 130.1068 263.215331 
L 130.9996 262.003111 
L 131.8924 270.084579 
L 132.7852 267.458102 
L 133.678 268.064212 
L 134.5708 268.064212 
L 135.4636 268.468286 
L 136.3564 266.245882 
L 138.142 272.104947 
L 139.0348 272.913094 
L 140.8204 272.913094 
L 142.606 280.186415 
L 143.4988 278.166048 
L 144.3916 274.933461 
L 145.2844 276.145681 
L 146.1772 275.741608 
L 147.07 274.529387 
L 147.9628 269.680506 
L 148.8556 266.447918 
L 149.7484 268.266249 
L 150.6412 270.69069 
L 151.534 268.266249 
L 152.4268 268.468286 
L 153.3196 270.084579 
L 154.2124 270.69069 
L 155.1052 273.519204 
L 155.998 270.892726 
L 156.8908 268.670322 
L 157.7836 268.064212 
L 158.6764 267.660139 
L 159.5692 266.447918 
L 160.462 266.043845 
L 161.3548 266.447918 
L 162.2476 265.437735 
L 163.1404 263.821441 
L 164.0332 265.437735 
L 164.926 265.639772 
L 165.8188 266.851992 
L 166.7116 262.811258 
L 167.6044 253.719605 
L 168.4972 255.133862 
L 169.39 253.719605 
L 170.2828 249.880907 
L 171.1756 247.86054 
L 172.0684 247.86054 
L 172.9612 247.25443 
L 174.7468 242.405549 
L 175.6396 243.617769 
L 176.5324 248.668687 
L 177.4252 249.678871 
L 178.318 249.880907 
L 179.2108 238.970925 
L 180.1036 247.25443 
L 180.9964 240.385182 
L 181.8892 238.364814 
L 182.782 229.071125 
L 183.6748 214.322445 
L 184.5676 212.706151 
L 185.4604 214.726518 
L 186.3532 202.402278 
L 187.246 204.422645 
L 188.1388 195.330993 
L 189.0316 180.986386 
L 189.9244 190.280075 
L 190.8172 187.047487 
L 191.71 180.582312 
L 192.6028 189.269891 
L 193.4956 183.8149 
L 194.3884 184.218973 
L 195.2812 185.02712 
L 196.174 187.047487 
L 197.9596 194.926919 
L 198.8524 197.35136 
L 199.7452 183.8149 
L 200.638 188.259708 
L 201.5308 203.210425 
L 202.4236 205.028755 
L 203.3164 203.210425 
L 204.2092 211.089857 
L 205.102 203.614498 
L 205.9948 220.989656 
L 206.8876 218.363179 
L 207.7804 218.969289 
L 208.6732 219.777436 
L 209.566 221.99984 
L 210.4588 225.434464 
L 211.3516 213.312261 
L 213.1372 228.262978 
L 214.03 225.030391 
L 214.9228 225.030391 
L 215.8156 226.040574 
L 216.7084 230.485382 
L 217.6012 237.556667 
L 218.494 235.940374 
L 219.3868 242.203512 
L 220.2796 244.021843 
L 221.1724 243.415732 
L 222.0652 243.415732 
L 223.8508 245.4361 
L 224.7436 247.86054 
L 225.6364 240.183145 
L 226.5292 246.64832 
L 227.422 245.032026 
L 228.3148 245.4361 
L 229.2076 246.244246 
L 230.1004 262.609221 
L 230.9932 256.548119 
L 231.886 257.962376 
L 232.7788 257.356266 
L 233.6716 259.174597 
L 234.5644 259.174597 
L 235.4572 262.205147 
L 236.35 260.18478 
L 237.2428 268.468286 
L 238.1356 273.72124 
L 239.9212 276.751791 
L 240.814 276.347718 
L 241.7068 271.90291 
L 242.5996 272.306983 
L 243.4924 269.680506 
L 244.3852 263.821441 
L 245.278 265.841808 
L 246.1708 265.235698 
L 247.0636 264.831625 
L 248.8492 266.851992 
L 249.742 267.054029 
L 250.6348 270.286616 
L 251.5276 266.447918 
L 252.4204 268.266249 
L 253.3132 268.468286 
L 254.206 270.69069 
L 255.0988 271.2968 
L 255.9916 274.125314 
L 256.8844 275.943644 
L 257.7772 280.590489 
L 258.67 280.388452 
L 259.5628 280.388452 
L 261.3484 281.196599 
L 262.2412 283.216966 
L 263.134 286.449554 
L 264.0268 286.247517 
L 265.8124 286.651591 
L 266.7052 286.247517 
L 267.598 289.278068 
L 268.4908 287.863811 
L 269.3836 285.035297 
L 270.2764 284.025113 
L 272.062 282.812893 
L 272.9548 283.01493 
L 273.8476 280.590489 
L 276.526 287.863811 
L 277.4188 287.661774 
L 278.3116 288.065848 
L 279.2044 286.247517 
L 280.0972 286.651591 
L 281.8828 283.216966 
L 282.7756 275.135497 
L 283.6684 275.539571 
L 284.5612 275.539571 
L 286.3468 266.245882 
L 287.2396 263.417368 
L 288.1324 261.397 
L 289.0252 263.215331 
L 289.918 260.18478 
L 290.8108 260.386817 
L 291.7036 261.599037 
L 292.5964 263.013294 
L 293.4892 266.245882 
L 294.382 267.660139 
L 295.2748 266.245882 
L 296.1676 269.276433 
L 297.0604 269.276433 
L 297.9532 272.50902 
L 298.846 269.478469 
L 299.7388 268.064212 
L 300.6316 262.811258 
L 301.5244 265.033661 
L 302.4172 264.427551 
L 303.31 264.225515 
L 304.2028 257.76034 
L 305.0956 264.023478 
L 305.9884 259.982743 
L 306.8812 264.629588 
L 307.774 263.821441 
L 308.6668 262.609221 
L 309.5596 261.801074 
L 310.4524 261.397 
L 311.3452 251.497201 
L 312.238 243.415732 
L 313.1308 237.152594 
L 314.0236 233.313896 
L 314.9164 233.515933 
L 315.8092 234.526117 
L 316.702 237.960741 
L 317.5948 231.293529 
L 318.4876 228.667052 
L 319.3804 223.414097 
L 320.2732 216.342812 
L 321.166 214.928555 
L 322.0588 214.726518 
L 323.8444 200.785984 
L 324.7372 188.461744 
L 325.63 182.198606 
L 326.5228 172.70288 
L 327.4156 173.106954 
L 328.3084 173.106954 
L 329.2012 154.721612 
L 330.094 170.682513 
L 330.9868 177.955835 
L 331.8796 177.955835 
L 332.7724 202.604315 
L 333.6652 205.028755 
L 334.558 196.74525 
L 335.4508 193.310626 
L 336.3436 187.653598 
L 337.2364 180.380276 
L 339.022 168.460109 
L 339.9148 169.066219 
L 340.8076 176.945651 
L 341.7004 154.317539 
L 342.5932 147.44829 
L 343.486 118.355002 
L 345.2716 90.675972 
L 346.1644 78.957842 
L 347.0572 78.351732 
L 347.95 58.14806 
L 348.8428 50.268628 
L 349.7356 72.492667 
L 350.6284 76.937475 
L 351.5212 61.784721 
L 352.414 69.86619 
L 353.3068 71.280447 
L 354.1996 149.872731 
L 355.0924 120.37537 
L 355.9852 107.849093 
L 356.878 104.414469 
L 357.7708 110.879644 
L 358.6636 100.777808 
L 359.5564 100.373734 
L 360.4492 50.066591 
L 361.342 74.108961 
L 362.2348 85.423017 
L 363.1276 88.453568 
L 364.0204 107.040946 
L 364.9132 118.961113 
L 365.806 118.355002 
L 366.6988 110.071497 
L 367.5916 110.273534 
L 368.4844 109.061313 
L 369.3772 111.687791 
L 370.27 109.667423 
L 371.1628 109.061313 
L 372.0556 109.061313 
L 372.9484 114.920378 
L 373.8412 112.495938 
L 374.734 115.728525 
L 375.6268 119.769259 
L 376.5196 111.687791 
L 377.4124 109.86946 
L 378.3052 110.677607 
L 379.198 163.005118 
L 380.0908 180.582312 
L 380.9836 175.127321 
L 381.8764 176.743615 
L 382.7692 191.492295 
L 383.662 190.684148 
L 384.5548 191.290258 
L 385.4476 161.792897 
L 386.3404 174.117137 
L 387.2332 190.684148 
L 388.126 204.624682 
L 389.0188 198.765617 
L 389.9116 201.190058 
L 390.8044 200.785984 
L 391.6972 213.514298 
L 392.59 217.150959 
L 393.4828 223.616134 
L 394.3756 221.39373 
L 395.2684 225.232428 
L 396.1612 226.848721 
L 397.054 226.646685 
L 397.9468 244.425916 
L 398.8396 233.515933 
L 400.6252 247.25443 
L 401.518 252.103311 
L 402.4108 251.699238 
L 403.3036 251.699238 
L 404.1964 247.052393 
L 405.0892 260.386817 
L 405.982 260.588854 
L 406.8748 261.599037 
L 407.7676 259.376633 
L 408.6604 258.36645 
L 409.5532 258.36645 
L 411.3388 245.4361 
L 413.1244 256.144046 
L 414.0172 260.79089 
L 414.91 262.003111 
L 415.8028 262.205147 
L 416.6956 268.266249 
L 417.5884 271.90291 
L 418.4812 276.347718 
L 420.2668 281.398636 
L 422.0524 282.610856 
L 422.9452 285.843444 
L 423.838 285.43937 
L 424.7308 281.398636 
L 425.6236 282.408819 
L 426.5164 276.751791 
L 427.4092 278.570122 
L 428.302 277.761975 
L 429.1948 275.337534 
L 430.0876 280.186415 
L 430.9804 283.419003 
L 431.8732 278.772158 
L 432.766 285.237333 
L 433.6588 283.62104 
L 434.5516 283.62104 
L 435.4444 279.378269 
L 436.3372 278.974195 
L 437.23 277.357901 
L 438.1228 279.984379 
L 439.0156 275.135497 
L 439.9084 273.923277 
L 440.8012 273.923277 
L 441.694 280.388452 
L 442.5868 280.388452 
L 443.4796 280.186415 
L 444.3724 279.782342 
L 445.2652 281.398636 
L 446.158 281.802709 
L 447.0508 281.802709 
L 447.9436 281.196599 
L 448.8364 281.398636 
L 449.7292 284.631223 
L 450.622 283.62104 
L 451.5148 283.216966 
L 452.4076 284.025113 
L 453.3004 284.025113 
L 454.1932 282.408819 
L 455.086 283.01493 
L 455.9788 282.812893 
L 456.8716 285.843444 
L 457.7644 286.651591 
L 458.6572 285.641407 
L 459.55 285.641407 
L 460.4428 286.651591 
L 461.3356 283.62104 
L 462.2284 282.812893 
L 463.1212 280.186415 
L 464.014 279.378269 
L 464.9068 279.176232 
L 466.6924 279.176232 
L 467.5852 281.196599 
L 468.478 279.984379 
L 469.3708 281.398636 
L 470.2636 280.792526 
L 471.1564 282.408819 
L 472.0492 282.408819 
L 472.942 285.237333 
L 473.8348 282.610856 
L 474.7276 285.237333 
L 475.6204 284.22715 
L 476.5132 283.01493 
L 477.406 282.610856 
L 477.406 282.610856 
" style="fill:none;stroke:#ccb974;stroke-linecap:square;stroke-width:2;"/>
   </g>
   <g id="patch_3">
    <path d="M 35.47 297.1575 
L 35.47 25.3575 
" style="fill:none;stroke:#000000;stroke-linecap:square;stroke-linejoin:miter;stroke-width:0.8;"/>
   </g>
   <g id="patch_4">
    <path d="M 35.47 297.1575 
L 481.87 297.1575 
" style="fill:none;stroke:#000000;stroke-linecap:square;stroke-linejoin:miter;stroke-width:0.8;"/>
   </g>
   <g id="text_12">
    <!-- CA -->
    <g style="fill:#4c72b0;" transform="translate(482.406 290.236431)scale(0.14 -0.14)">
     <defs>
      <path d="M 4122 4306 
L 4122 3641 
Q 3803 3938 3442 4084 
Q 3081 4231 2675 4231 
Q 1875 4231 1450 3742 
Q 1025 3253 1025 2328 
Q 1025 1406 1450 917 
Q 1875 428 2675 428 
Q 3081 428 3442 575 
Q 3803 722 4122 1019 
L 4122 359 
Q 3791 134 3420 21 
Q 3050 -91 2638 -91 
Q 1578 -91 968 557 
Q 359 1206 359 2328 
Q 359 3453 968 4101 
Q 1578 4750 2638 4750 
Q 3056 4750 3426 4639 
Q 3797 4528 4122 4306 
z
" id="DejaVuSans-43" transform="scale(0.015625)"/>
     </defs>
     <use xlink:href="#DejaVuSans-43"/>
     <use x="69.824219" xlink:href="#DejaVuSans-41"/>
    </g>
   </g>
   <g id="text_13">
    <!-- PA -->
    <g style="fill:#55a868;" transform="translate(482.406 284.77613)scale(0.14 -0.14)">
     <defs>
      <path d="M 1259 4147 
L 1259 2394 
L 2053 2394 
Q 2494 2394 2734 2622 
Q 2975 2850 2975 3272 
Q 2975 3691 2734 3919 
Q 2494 4147 2053 4147 
L 1259 4147 
z
M 628 4666 
L 2053 4666 
Q 2838 4666 3239 4311 
Q 3641 3956 3641 3272 
Q 3641 2581 3239 2228 
Q 2838 1875 2053 1875 
L 1259 1875 
L 1259 0 
L 628 0 
L 628 4666 
z
" id="DejaVuSans-50" transform="scale(0.015625)"/>
     </defs>
     <use xlink:href="#DejaVuSans-50"/>
     <use x="53.927734" xlink:href="#DejaVuSans-41"/>
    </g>
   </g>
   <g id="text_14">
    <!-- IL -->
    <g style="fill:#c44e52;" transform="translate(482.406 282.175237)scale(0.14 -0.14)">
     <defs>
      <path d="M 628 4666 
L 1259 4666 
L 1259 0 
L 628 0 
L 628 4666 
z
" id="DejaVuSans-49" transform="scale(0.015625)"/>
      <path d="M 628 4666 
L 1259 4666 
L 1259 531 
L 3531 531 
L 3531 0 
L 628 0 
L 628 4666 
z
" id="DejaVuSans-4c" transform="scale(0.015625)"/>
     </defs>
     <use xlink:href="#DejaVuSans-49"/>
     <use x="29.492188" xlink:href="#DejaVuSans-4c"/>
    </g>
   </g>
   <g id="text_15">
    <!-- WI -->
    <g style="fill:#8172b2;" transform="translate(482.406 270.278519)scale(0.14 -0.14)">
     <defs>
      <path d="M 213 4666 
L 850 4666 
L 1831 722 
L 2809 4666 
L 3519 4666 
L 4500 722 
L 5478 4666 
L 6119 4666 
L 4947 0 
L 4153 0 
L 3169 4050 
L 2175 0 
L 1381 0 
L 213 4666 
z
" id="DejaVuSans-57" transform="scale(0.015625)"/>
     </defs>
     <use xlink:href="#DejaVuSans-57"/>
     <use x="98.876953" xlink:href="#DejaVuSans-49"/>
    </g>
   </g>
   <g id="text_16">
    <!-- AZ -->
    <g style="fill:#ccb974;" transform="translate(482.406 286.610856)scale(0.14 -0.14)">
     <defs>
      <path d="M 359 4666 
L 4025 4666 
L 4025 4184 
L 1075 531 
L 4097 531 
L 4097 0 
L 288 0 
L 288 481 
L 3238 4134 
L 359 4134 
L 359 4666 
z
" id="DejaVuSans-5a" transform="scale(0.015625)"/>
     </defs>
     <use xlink:href="#DejaVuSans-41"/>
     <use x="68.408203" xlink:href="#DejaVuSans-5a"/>
    </g>
   </g>
   <g id="text_17">
    <!-- Deaths per million people -->
    <g style="fill:#262626;" transform="translate(155.62625 19.3575)scale(0.16 -0.16)">
     <defs>
      <path d="M 1259 4147 
L 1259 519 
L 2022 519 
Q 2988 519 3436 956 
Q 3884 1394 3884 2338 
Q 3884 3275 3436 3711 
Q 2988 4147 2022 4147 
L 1259 4147 
z
M 628 4666 
L 1925 4666 
Q 3281 4666 3915 4102 
Q 4550 3538 4550 2338 
Q 4550 1131 3912 565 
Q 3275 0 1925 0 
L 628 0 
L 628 4666 
z
" id="DejaVuSans-44" transform="scale(0.015625)"/>
      <path d="M 3597 1894 
L 3597 1613 
L 953 1613 
Q 991 1019 1311 708 
Q 1631 397 2203 397 
Q 2534 397 2845 478 
Q 3156 559 3463 722 
L 3463 178 
Q 3153 47 2828 -22 
Q 2503 -91 2169 -91 
Q 1331 -91 842 396 
Q 353 884 353 1716 
Q 353 2575 817 3079 
Q 1281 3584 2069 3584 
Q 2775 3584 3186 3129 
Q 3597 2675 3597 1894 
z
M 3022 2063 
Q 3016 2534 2758 2815 
Q 2500 3097 2075 3097 
Q 1594 3097 1305 2825 
Q 1016 2553 972 2059 
L 3022 2063 
z
" id="DejaVuSans-65" transform="scale(0.015625)"/>
      <path d="M 3513 2113 
L 3513 0 
L 2938 0 
L 2938 2094 
Q 2938 2591 2744 2837 
Q 2550 3084 2163 3084 
Q 1697 3084 1428 2787 
Q 1159 2491 1159 1978 
L 1159 0 
L 581 0 
L 581 4863 
L 1159 4863 
L 1159 2956 
Q 1366 3272 1645 3428 
Q 1925 3584 2291 3584 
Q 2894 3584 3203 3211 
Q 3513 2838 3513 2113 
z
" id="DejaVuSans-68" transform="scale(0.015625)"/>
      <path d="M 2834 3397 
L 2834 2853 
Q 2591 2978 2328 3040 
Q 2066 3103 1784 3103 
Q 1356 3103 1142 2972 
Q 928 2841 928 2578 
Q 928 2378 1081 2264 
Q 1234 2150 1697 2047 
L 1894 2003 
Q 2506 1872 2764 1633 
Q 3022 1394 3022 966 
Q 3022 478 2636 193 
Q 2250 -91 1575 -91 
Q 1294 -91 989 -36 
Q 684 19 347 128 
L 347 722 
Q 666 556 975 473 
Q 1284 391 1588 391 
Q 1994 391 2212 530 
Q 2431 669 2431 922 
Q 2431 1156 2273 1281 
Q 2116 1406 1581 1522 
L 1381 1569 
Q 847 1681 609 1914 
Q 372 2147 372 2553 
Q 372 3047 722 3315 
Q 1072 3584 1716 3584 
Q 2034 3584 2315 3537 
Q 2597 3491 2834 3397 
z
" id="DejaVuSans-73" transform="scale(0.015625)"/>
      <path id="DejaVuSans-20" transform="scale(0.015625)"/>
      <path d="M 3328 2828 
Q 3544 3216 3844 3400 
Q 4144 3584 4550 3584 
Q 5097 3584 5394 3201 
Q 5691 2819 5691 2113 
L 5691 0 
L 5113 0 
L 5113 2094 
Q 5113 2597 4934 2840 
Q 4756 3084 4391 3084 
Q 3944 3084 3684 2787 
Q 3425 2491 3425 1978 
L 3425 0 
L 2847 0 
L 2847 2094 
Q 2847 2600 2669 2842 
Q 2491 3084 2119 3084 
Q 1678 3084 1418 2786 
Q 1159 2488 1159 1978 
L 1159 0 
L 581 0 
L 581 3500 
L 1159 3500 
L 1159 2956 
Q 1356 3278 1631 3431 
Q 1906 3584 2284 3584 
Q 2666 3584 2933 3390 
Q 3200 3197 3328 2828 
z
" id="DejaVuSans-6d" transform="scale(0.015625)"/>
      <path d="M 603 3500 
L 1178 3500 
L 1178 0 
L 603 0 
L 603 3500 
z
M 603 4863 
L 1178 4863 
L 1178 4134 
L 603 4134 
L 603 4863 
z
" id="DejaVuSans-69" transform="scale(0.015625)"/>
      <path d="M 1959 3097 
Q 1497 3097 1228 2736 
Q 959 2375 959 1747 
Q 959 1119 1226 758 
Q 1494 397 1959 397 
Q 2419 397 2687 759 
Q 2956 1122 2956 1747 
Q 2956 2369 2687 2733 
Q 2419 3097 1959 3097 
z
M 1959 3584 
Q 2709 3584 3137 3096 
Q 3566 2609 3566 1747 
Q 3566 888 3137 398 
Q 2709 -91 1959 -91 
Q 1206 -91 779 398 
Q 353 888 353 1747 
Q 353 2609 779 3096 
Q 1206 3584 1959 3584 
z
" id="DejaVuSans-6f" transform="scale(0.015625)"/>
     </defs>
     <use xlink:href="#DejaVuSans-44"/>
     <use x="77.001953" xlink:href="#DejaVuSans-65"/>
     <use x="138.525391" xlink:href="#DejaVuSans-61"/>
     <use x="199.804688" xlink:href="#DejaVuSans-74"/>
     <use x="239.013672" xlink:href="#DejaVuSans-68"/>
     <use x="302.392578" xlink:href="#DejaVuSans-73"/>
     <use x="354.492188" xlink:href="#DejaVuSans-20"/>
     <use x="386.279297" xlink:href="#DejaVuSans-70"/>
     <use x="449.755859" xlink:href="#DejaVuSans-65"/>
     <use x="511.279297" xlink:href="#DejaVuSans-72"/>
     <use x="552.392578" xlink:href="#DejaVuSans-20"/>
     <use x="584.179688" xlink:href="#DejaVuSans-6d"/>
     <use x="681.591797" xlink:href="#DejaVuSans-69"/>
     <use x="709.375" xlink:href="#DejaVuSans-6c"/>
     <use x="737.158203" xlink:href="#DejaVuSans-6c"/>
     <use x="764.941406" xlink:href="#DejaVuSans-69"/>
     <use x="792.724609" xlink:href="#DejaVuSans-6f"/>
     <use x="853.90625" xlink:href="#DejaVuSans-6e"/>
     <use x="917.285156" xlink:href="#DejaVuSans-20"/>
     <use x="949.072266" xlink:href="#DejaVuSans-70"/>
     <use x="1012.548828" xlink:href="#DejaVuSans-65"/>
     <use x="1074.072266" xlink:href="#DejaVuSans-6f"/>
     <use x="1135.253906" xlink:href="#DejaVuSans-70"/>
     <use x="1198.730469" xlink:href="#DejaVuSans-6c"/>
     <use x="1226.513672" xlink:href="#DejaVuSans-65"/>
    </g>
   </g>
   <g id="legend_1"/>
   <g id="PathCollection_1">
    <defs>
     <path d="M 0 2.236068 
C 0.593012 2.236068 1.161816 2.000462 1.581139 1.581139 
C 2.000462 1.161816 2.236068 0.593012 2.236068 -0 
C 2.236068 -0.593012 2.000462 -1.161816 1.581139 -1.581139 
C 1.161816 -2.000462 0.593012 -2.236068 0 -2.236068 
C -0.593012 -2.236068 -1.161816 -2.000462 -1.581139 -1.581139 
C -2.000462 -1.161816 -2.236068 -0.593012 -2.236068 0 
C -2.236068 0.593012 -2.000462 1.161816 -1.581139 1.581139 
C -1.161816 2.000462 -0.593012 2.236068 0 2.236068 
z
" id="C0_0_ae213394ab"/>
    </defs>
    <g clip-path="url(#pe9b2d6ee27)">
     <use style="fill:#4c72b0;stroke:#4c72b0;" x="477.406" xlink:href="#C0_0_ae213394ab" y="286.236431"/>
    </g>
    <g clip-path="url(#pe9b2d6ee27)">
     <use style="fill:#55a868;stroke:#55a868;" x="477.406" xlink:href="#C0_0_ae213394ab" y="280.77613"/>
    </g>
    <g clip-path="url(#pe9b2d6ee27)">
     <use style="fill:#c44e52;stroke:#c44e52;" x="477.406" xlink:href="#C0_0_ae213394ab" y="278.175237"/>
    </g>
    <g clip-path="url(#pe9b2d6ee27)">
     <use style="fill:#8172b2;stroke:#8172b2;" x="477.406" xlink:href="#C0_0_ae213394ab" y="266.278519"/>
    </g>
    <g clip-path="url(#pe9b2d6ee27)">
     <use style="fill:#ccb974;stroke:#ccb974;" x="477.406" xlink:href="#C0_0_ae213394ab" y="282.610856"/>
    </g>
   </g>
  </g>
 </g>
 <defs>
  <clipPath id="pe9b2d6ee27">
   <rect height="271.8" width="446.4" x="35.47" y="25.3575"/>
  </clipPath>
 </defs>
</svg>
